<svg width="78" height="89" viewBox="0 0 78 89" fill="none" xmlns="http://www.w3.org/2000/svg">
<path d="M36.6373 24.6652C34.1847 23.1461 31.1708 24.1229 29.908 26.2626C30.2318 26.1438 30.5745 26.0899 30.9252 26.133C32.9705 26.3678 32.134 27.5955 30.9171 28.3402C30.4369 28.637 29.8945 28.8771 29.3252 28.8933C29.3495 29.1577 29.3953 29.4249 29.4655 29.7001C30.0969 32.6384 33.7853 34.1953 36.354 32.6681C39.5325 30.9979 39.7699 26.5243 36.6373 24.6652Z" fill="#4AB69F"/>
<path d="M60.2903 44.0734C60.1662 44.0734 60.0421 44.0383 59.9288 43.9682C59.5025 43.6957 59.1058 43.4097 58.755 43.156C58.0157 42.6218 57.3196 42.1199 56.923 42.2009C56.5587 42.2791 56.2026 42.0417 56.1243 41.6774C56.0461 41.3132 56.2835 40.9543 56.6478 40.8788C57.6272 40.6737 58.5149 41.3159 59.5456 42.0606C59.8964 42.3142 60.2606 42.5759 60.6546 42.8268C60.9703 43.0265 61.062 43.4447 60.8623 43.7577C60.7328 43.9628 60.5143 44.0734 60.2903 44.0734Z" fill="#F0F3F5"/>
<path d="M72.3324 57.4888C72.1705 57.4888 72.0059 57.4294 71.8764 57.3107C71.6011 57.0571 71.585 56.6308 71.8359 56.3583C72.8801 55.225 74.1186 53.5494 74.4558 50.6327C74.5422 49.8934 74.1374 49.1945 73.4521 48.8896C73.4278 48.8788 73.4062 48.868 73.3846 48.8546L70.8429 47.3597C70.5219 47.1709 70.4139 46.758 70.6028 46.437C70.7917 46.1159 71.2045 46.0106 71.5256 46.1968L74.0349 47.6727C75.241 48.2259 75.9452 49.4724 75.7941 50.7865C75.4137 54.0891 74.0079 55.9859 72.8261 57.2703C72.6966 57.416 72.5158 57.4888 72.3324 57.4888Z" fill="#F0F3F5"/>
<path d="M69.5268 50.3684C69.3892 50.3684 69.2489 50.3252 69.1302 50.2389C68.828 50.0203 68.7632 49.5967 68.9818 49.2972C69.4377 48.6712 69.9747 48.0938 70.5737 47.5811C70.857 47.3383 71.2833 47.3734 71.5262 47.6567C71.769 47.94 71.7339 48.3663 71.4506 48.6092C70.9299 49.0544 70.4658 49.5535 70.0718 50.0959C69.9423 50.2739 69.7373 50.3684 69.5268 50.3684Z" fill="#F0F3F5"/>
<path d="M60.2681 13.1304C59.9389 13.1304 59.6502 12.8876 59.6017 12.553C59.545 12.1699 58.1392 3.57071 47.8375 2.02463C41.9743 1.14502 35.4042 3.81894 29.0526 6.40651C24.5412 8.24399 20.2511 9.99243 16.6679 10.1732C17.5637 11.0609 19.2258 12.124 21.7729 11.5655C22.1371 11.4872 22.496 11.7166 22.5769 12.0808C22.6552 12.4451 22.4258 12.804 22.0616 12.8849C21.4734 13.0144 20.9202 13.0711 20.4076 13.0711C16.5222 13.0711 14.7009 9.84672 14.682 9.80894C14.5633 9.59039 14.5714 9.32597 14.7063 9.11551C14.8412 8.90775 15.0786 8.78903 15.3269 8.81061C18.848 9.10202 23.5591 7.18629 28.5454 5.15724C34.762 2.62633 41.807 -0.241856 48.0372 0.691722C59.3642 2.39159 60.9238 12.2616 60.9373 12.3614C60.9912 12.7311 60.7349 13.0711 60.3653 13.125C60.3329 13.1277 60.2978 13.1304 60.2681 13.1304Z" fill="#F0F3F5"/>
<path d="M18.9234 23.4671C18.1517 23.4671 17.631 23.4104 17.5743 23.4023C17.3396 23.3754 17.1372 23.2297 17.0401 23.0138C16.9402 22.8006 16.9618 22.5497 17.0913 22.3554L24.0797 11.9404C24.2874 11.6301 24.7084 11.5491 25.016 11.7569C25.3263 11.9647 25.4072 12.3829 25.1994 12.6932L18.8776 22.1126C18.8883 22.1126 18.8991 22.1126 18.9099 22.1126C20.1106 22.1126 21.9994 21.9642 23.5023 21.1736C23.8315 20.9982 24.2389 21.1278 24.4143 21.4569C24.5869 21.7861 24.4601 22.1935 24.131 22.3689C22.3798 23.2917 20.2698 23.4671 18.9234 23.4671Z" fill="#F0F3F5"/>
<path d="M21.0764 37.3846C20.8012 37.3846 20.5502 37.2173 20.4477 36.9556C20.3371 36.6696 20.4288 36.3458 20.6771 36.165C21.4218 35.62 22.5928 31.4648 22.868 23.9395C22.8815 23.5671 23.1972 23.273 23.5668 23.2892C23.9392 23.3027 24.2306 23.6157 24.2171 23.988C24.1604 25.5773 23.834 32.4442 22.4875 35.7252C23.6909 35.3987 25.4097 34.7647 26.8074 33.5882C27.0934 33.3481 27.517 33.3859 27.7571 33.6692C27.9973 33.9552 27.9595 34.3788 27.6762 34.619C24.9483 36.9151 21.3057 37.3603 21.1519 37.3765C21.1304 37.3819 21.1034 37.3846 21.0764 37.3846Z" fill="#F0F3F5"/>
<path d="M27.5199 39.3029C27.4822 39.3029 27.4471 39.3002 27.4093 39.2948C27.0424 39.2328 26.7941 38.8874 26.8562 38.5178L27.4039 35.2287C27.466 34.8617 27.8114 34.6135 28.181 34.6755C28.548 34.7376 28.7962 35.083 28.7341 35.4526L28.1864 38.7417C28.1297 39.0682 27.8437 39.3029 27.5199 39.3029Z" fill="#F0F3F5"/>
<path d="M44.1787 18.4622C43.8144 17.963 42.1362 17.1832 41.27 18.9721C40.3634 20.8447 40.5739 21.2116 40.5739 21.2116L42.4033 20.4291L42.7082 22.0778L41.0137 22.6687C41.0137 22.6687 40.9813 25.974 43.2667 25.688C45.5575 25.4019 45.4253 20.1647 44.1787 18.4622Z" fill="#4AB69F"/>
<path d="M41.4832 27.2798C38.4018 27.2798 35.4851 24.2713 35.2989 20.8338C35.1154 17.4314 37.5249 14.5119 40.787 14.1908C43.8603 13.8913 46.232 16.4924 46.9902 19.2176C47.5298 21.1549 47.1548 23.2757 45.9865 24.8865C44.945 26.3246 43.3854 27.1935 41.7017 27.2717C41.6289 27.2771 41.556 27.2798 41.4832 27.2798ZM40.9192 15.5345C38.6932 15.7531 36.4861 17.7687 36.648 20.761C36.7964 23.5293 39.2167 26.0413 41.6397 25.9253C42.9267 25.866 44.0842 25.2157 44.8937 24.0959C45.8219 22.8143 46.1187 21.1252 45.6897 19.5791C45.0826 17.3963 43.2478 15.2998 40.9192 15.5345Z" fill="#F0F3F5"/>
<path d="M57.51 21.287C57.742 21.287 57.9687 21.2978 58.1953 21.314C58.2088 20.4452 58.0388 19.455 57.6125 18.4323C56.3012 15.2835 53.951 17.1291 54.0698 19.5035L55.0978 18.8694L55.5322 20.2536L54.345 20.966C54.345 20.966 54.3072 21.2115 54.488 21.7997C55.4593 21.4705 56.4793 21.287 57.51 21.287Z" fill="#4AB69F"/>
<path d="M53.2718 22.4095C52.9939 22.4095 52.7322 22.2368 52.6351 21.9589C52.3383 21.1171 52.2384 20.394 52.2141 20.1916C52.1467 19.6277 52.0199 17.6418 53.172 15.8178C53.539 15.2377 54.5157 13.697 56.1454 13.5621C57.5566 13.4407 58.9354 14.4444 60.0281 16.3763C60.3465 16.9376 61.3557 18.9342 61.0346 21.0577C60.9779 21.4247 60.6379 21.681 60.2683 21.6243C59.8986 21.5677 59.6477 21.225 59.7017 20.858C59.958 19.1636 59.1188 17.5096 58.8544 17.0428C58.0369 15.5938 57.1114 14.8384 56.2561 14.9085C55.2928 14.9895 54.6047 16.0768 54.3106 16.5409C53.3933 17.9898 53.4985 19.5818 53.5497 20.0351C53.5632 20.1538 53.6469 20.7825 53.9032 21.5137C54.0273 21.8645 53.8412 22.2503 53.4904 22.3744C53.4202 22.3987 53.3447 22.4095 53.2718 22.4095Z" fill="#F0F3F5"/>
<path d="M41.4395 32.4791C40.8836 32.4791 40.3143 32.4414 39.7288 32.3604C39.7207 32.3604 39.7099 32.3577 39.7018 32.355L34.953 31.4835C34.586 31.416 34.3432 31.0653 34.4107 30.6983C34.4781 30.3313 34.8289 30.0885 35.1958 30.156L39.9285 31.0248C43.0206 31.4592 45.7755 30.4447 48.4359 29.4652C50.8886 28.564 53.4222 27.6332 56.1744 27.8544C60.0166 28.1674 62.6015 26.6753 63.1735 25.0429C63.5189 24.0553 63.1007 23.1056 62.0025 22.3663C59.1721 20.4667 49.1644 23.8476 45.5488 25.31C45.2035 25.4503 44.8095 25.283 44.6719 24.9376C44.5316 24.5923 44.6989 24.1983 45.0443 24.0607C46.4419 23.4941 58.8267 18.6131 62.7553 21.2492C64.3661 22.3285 65.0002 23.915 64.4498 25.4908C63.5701 28.0055 60.1272 29.53 56.0691 29.2035C53.6165 29.0038 51.3284 29.8457 48.9054 30.7361C46.5634 31.5914 44.1539 32.4791 41.4395 32.4791Z" fill="#F0F3F5"/>
<path d="M45.6273 34.1333C45.4924 34.1333 45.3602 34.0928 45.2469 34.0173C45.0796 33.9039 44.9717 33.7205 44.9555 33.5208L44.8044 31.8263C44.772 31.454 45.0445 31.1275 45.4169 31.0951C45.7865 31.06 46.1157 31.3353 46.1481 31.7076L46.2263 32.5818C48.4658 31.9073 50.4895 31.2462 51.4069 30.9413L51.2828 29.8863C51.2396 29.5167 51.504 29.1821 51.8737 29.1362C52.2433 29.093 52.5779 29.3575 52.6238 29.7271L52.8126 31.3271C52.8504 31.6428 52.6615 31.9423 52.3593 32.0449C52.327 32.0557 49.1943 33.1161 45.8189 34.1117C45.7541 34.1225 45.6894 34.1333 45.6273 34.1333Z" fill="#F0F3F5"/>
<path d="M55.7887 31.3812C55.4434 31.3812 55.152 31.1194 55.1169 30.7714L54.9523 29.0634C54.9172 28.6937 55.187 28.3619 55.5594 28.3268C55.929 28.2944 56.2609 28.5615 56.296 28.9339L56.4012 30.0186C57.5129 29.9997 58.6218 29.9916 59.3018 29.9916L59.3342 28.5939C59.3423 28.227 59.6418 27.9355 60.0087 27.9355C60.0141 27.9355 60.0195 27.9355 60.0249 27.9355C60.3973 27.9436 60.6914 28.2512 60.6833 28.6236L60.6374 30.6796C60.6293 31.0466 60.3298 31.338 59.9628 31.338C59.9575 31.338 59.9197 31.338 59.8063 31.338C59.2721 31.338 57.4481 31.3407 55.8076 31.3785C55.7995 31.3812 55.7941 31.3812 55.7887 31.3812Z" fill="#F0F3F5"/>
<path d="M34.964 10.4268C34.1815 11.0258 32.4357 12.7445 33.1508 14.4309C33.8685 16.1173 37.279 14.4768 38.4177 13.7995C39.335 13.2545 41.24 11.8622 40.104 9.88175C38.9654 7.89857 36.0513 9.59574 34.964 10.4268Z" fill="#F0F3F5"/>
<path d="M52.9613 10.8749C52.8129 10.6752 52.6402 10.4917 52.5134 10.2759C52.4405 10.1329 52.3947 9.97907 52.3299 9.83067C52.2598 9.6283 52.1815 9.42324 52.168 9.20738C52.1275 8.576 52.5026 7.92304 53.107 7.69909C53.7276 7.44006 54.4264 7.48323 55.074 7.60465C55.5111 7.66941 55.932 7.81241 56.3475 7.96351C56.8899 8.14429 57.3755 8.44649 57.845 8.77028C58.3685 9.07517 58.6626 9.65258 58.7786 10.23C58.9189 10.8371 58.7948 11.5386 58.3334 11.9811C57.667 12.6071 56.2234 12.4263 55.3951 12.2348C54.788 12.1133 54.224 11.8462 53.7114 11.5036C53.4362 11.3255 53.1637 11.1339 52.9613 10.8749Z" fill="#F0F3F5"/>
<path d="M51.9682 21.7026C51.7172 21.7026 51.4771 21.5623 51.3611 21.3194C50.9374 20.4371 50.0039 17.5716 50.1981 16.2576C50.6703 13.0737 53.8839 12.5476 57.289 12.4558C59.1076 12.4073 60.5107 12.8714 61.4496 13.8427C62.5964 15.0272 63.0524 16.8782 62.8851 19.6654C62.8635 20.0378 62.5397 20.3238 62.1701 20.2968C61.7977 20.2752 61.5144 19.9542 61.5387 19.5818C61.6817 17.2317 61.3336 15.6613 60.481 14.779C59.8064 14.0829 58.7703 13.7645 57.3268 13.8022C52.8262 13.9264 51.755 14.9517 51.5337 16.4546C51.4042 17.3369 52.1435 19.8327 52.5779 20.7339C52.7398 21.0685 52.5995 21.4732 52.2623 21.6351C52.1651 21.681 52.0653 21.7026 51.9682 21.7026Z" fill="#F0F3F5"/>
<path d="M38.5959 28.2269C35.7628 28.2269 31.8828 27.0855 30.0534 21.4247C29.9967 21.2493 28.7933 17.1561 36.2673 14.6198C43.1774 12.2724 45.1471 12.1186 47.1168 16.174C48.2662 18.5376 48.2905 21.1845 47.1843 23.4322C46.0348 25.7688 43.7899 27.3877 40.8651 27.9921C40.2796 28.1135 39.489 28.2269 38.5959 28.2269ZM42.967 14.3041C41.715 14.3041 39.8317 14.833 36.7017 15.8961C30.5579 17.9818 31.308 20.8985 31.3431 21.0227C33.3371 27.1854 37.9942 27.2069 40.5952 26.67C43.1046 26.1519 45.0149 24.7894 45.9782 22.8359C46.8982 20.9633 46.874 18.7508 45.908 16.7622C45.1093 15.1271 44.5265 14.3041 42.967 14.3041Z" fill="#F0F3F5"/>
<path d="M48.0964 21.9428C47.9264 21.9428 47.7538 21.878 47.6242 21.7485C47.3598 21.4868 47.3544 21.0605 47.6161 20.7933C49.5454 18.8344 51.2938 19.3552 51.9495 19.9056C52.2355 20.1458 52.2732 20.5694 52.0331 20.8554C51.7957 21.1387 51.3774 21.1765 51.0914 20.9471C50.9808 20.8635 50.0526 20.2402 48.5767 21.7404C48.4445 21.8753 48.2691 21.9428 48.0964 21.9428Z" fill="#F0F3F5"/>
<path d="M50.5378 25.2373C50.9884 25.2562 51.1907 24.8838 51.6629 25.0592C51.9381 25.1186 52.181 24.8811 52.2484 24.6302C52.3213 24.3091 52.0973 23.9691 51.8491 23.7829C51.3985 23.5185 50.7941 23.4484 50.3516 23.7641C49.8524 24.0528 49.5259 24.5519 50.0656 24.9944C50.2032 25.1132 50.3489 25.2427 50.5378 25.2373Z" fill="#F0F3F5"/>
<path d="M56.193 24.0312C56.2605 24.0042 56.3306 23.9826 56.4035 23.9745C56.5303 23.988 56.649 24.0474 56.7785 24.0582C57.0241 24.1121 57.2804 24.0555 57.4801 23.9017C57.6608 23.7425 57.7742 23.4808 57.758 23.2433C57.7877 22.9465 57.6204 22.6362 57.3371 22.5256C56.7515 22.3043 56.023 22.5418 55.6912 23.076C55.5805 23.2595 55.4456 23.4241 55.4996 23.6534C55.5374 23.8639 55.6642 24.1094 55.9016 24.1283C56.0068 24.1364 56.1013 24.0744 56.193 24.0312Z" fill="#F0F3F5"/>
<path d="M53.1315 35.6981C53.0182 35.6981 52.9022 35.6954 52.7835 35.6873C52.4111 35.663 52.1305 35.3419 52.1548 34.9696C52.1791 34.5972 52.4975 34.322 52.8725 34.3409C55.2631 34.4974 56.5879 32.4548 56.6446 32.3685C56.8443 32.0555 57.2598 31.9611 57.5755 32.1607C57.8885 32.3604 57.9829 32.7732 57.7859 33.0889C57.7131 33.1996 56.105 35.6981 53.1315 35.6981Z" fill="#F0F3F5"/>
<path d="M34.1821 32.0232C33.9338 32.0232 33.6964 31.8856 33.5777 31.6509C33.4104 31.3163 33.5453 30.9116 33.8799 30.747C34.0498 30.6633 34.5814 30.3287 34.3332 29.5597C34.2198 29.209 34.4087 28.8258 34.7595 28.7098C35.1102 28.5938 35.488 28.7773 35.6094 29.1253C35.8414 29.7918 35.9035 31.2434 34.4816 31.9531C34.3844 31.9989 34.2819 32.0232 34.1821 32.0232Z" fill="#F0F3F5"/>
<path d="M62.5596 32.0557C63.0668 31.6321 63.6227 31.2598 64.2136 30.9495C64.3566 30.1076 64.3782 29.3629 64.3134 28.7666C64.2729 28.397 63.941 28.1271 63.5687 28.1703C63.199 28.2108 62.9319 28.5454 62.9724 28.915C63.0641 29.7434 62.94 30.8442 62.5596 32.0557Z" fill="#F0F3F5"/>
<path d="M59.7318 37.409C59.7372 37.2336 59.7561 37.061 59.775 36.891C57.8646 39.0252 54.5216 41.4536 48.9174 42.1795C37.7846 43.623 30.8368 36.6104 30.745 36.5159C30.486 36.2488 30.0597 36.2407 29.7899 36.497C29.5227 36.7561 29.5146 37.1824 29.771 37.4522C30.0408 37.7328 35.9391 43.7282 45.8415 43.7282C46.8803 43.7282 47.9649 43.6608 49.0901 43.5178C54.2652 42.8486 57.6623 40.8007 59.8289 38.7662C59.7534 38.3156 59.7156 37.8623 59.7318 37.409Z" fill="#F0F3F5"/>
<path d="M51.6634 46.4721C48.7844 46.4721 43.1209 45.5871 39.8156 43.9547C39.481 43.7901 39.3434 43.3854 39.5107 43.0508C39.6753 42.7162 40.08 42.5813 40.4146 42.7459C44.5186 44.7722 51.8874 45.3389 52.7157 45.0529C53.0611 44.8829 54.0189 43.3341 54.7474 41.7503C54.9039 41.413 55.3033 41.2646 55.6406 41.4184C55.9778 41.5749 56.1262 41.9742 55.9724 42.3115C55.4975 43.3449 54.2834 45.8057 53.2715 46.2805C52.999 46.41 52.4297 46.4721 51.6634 46.4721Z" fill="#F0F3F5"/>
<path d="M47.7972 49.0299C47.4006 49.0299 47.0094 48.9706 46.6343 48.8356C44.4029 48.0181 38.1269 43.3097 37.8625 43.11C37.5657 42.8861 37.5036 42.4625 37.7275 42.1657C37.9515 41.8689 38.3751 41.8068 38.6719 42.0308C40.4392 43.361 45.3985 46.9469 47.0957 47.5675C48.5797 48.1125 51.0135 46.5691 51.8283 45.9297C52.1198 45.7003 52.5461 45.7489 52.7754 46.043C53.0048 46.3344 52.9562 46.7607 52.6621 46.9901C52.3599 47.2302 49.999 49.0299 47.7972 49.0299Z" fill="#F0F3F5"/>
<path d="M55.9588 47.1386C55.3651 47.1386 54.5665 46.9254 53.5654 46.5018C53.2228 46.3561 53.0636 45.9594 53.2093 45.6168C53.355 45.2741 53.7489 45.1122 54.0943 45.2606C54.8282 45.5709 55.697 45.8164 56.01 45.7975C56.2313 45.4009 56.01 43.6983 55.3624 41.9499C55.2329 41.6018 55.411 41.2133 55.7591 41.0838C56.1098 40.9543 56.4957 41.1323 56.6252 41.4804C57.0947 42.7459 58.058 45.8002 56.8627 46.8606C56.6522 47.0468 56.35 47.1386 55.9588 47.1386Z" fill="#F0F3F5"/>
<path d="M75.2047 32.7544C73.869 31.0734 71.9479 29.8646 69.9324 29.441C67.4015 28.9067 64.5764 29.6137 62.3801 31.3297C60.3537 32.9109 59.1423 35.118 59.0559 37.3818C58.9399 40.4146 60.799 43.4096 63.9073 45.2012C63.972 45.2389 64.0449 45.2605 64.115 45.274L64.0233 45.703C63.9558 46.0214 63.9505 46.3344 63.9963 46.6393C64.5171 46.5125 64.9785 46.41 65.3238 46.3479C65.3157 46.2292 65.3184 46.1051 65.3427 45.9836L66.3357 41.2861C66.4085 40.9407 66.6136 40.6439 66.9131 40.4496C67.1343 40.3066 67.3826 40.2311 67.6389 40.2311C67.7306 40.2311 67.8224 40.2419 67.9141 40.2608C68.6318 40.4119 69.0932 41.1188 68.9394 41.8365L67.9465 46.5341C67.8736 46.8794 67.6686 47.1763 67.3691 47.3705C67.1316 47.5243 66.8618 47.5945 66.5866 47.5837C66.9239 48.2582 67.3421 49.1406 67.736 50.0876L68.335 48.3743C68.3404 48.3554 68.3431 48.3392 68.3485 48.3203C68.7991 47.9479 69.1337 47.4272 69.2659 46.812L69.4116 46.1267C69.4602 46.1375 69.5088 46.1455 69.56 46.1455C69.6005 46.1455 69.641 46.1428 69.6814 46.1347C73.4832 45.4521 76.4836 42.476 76.9774 38.9036C77.2769 36.7531 76.6455 34.5703 75.2047 32.7544ZM68.1947 38.9413C67.4959 38.7929 66.7809 38.9278 66.1792 39.3191C65.5775 39.7103 65.1646 40.3093 65.0189 41.0082L64.9488 41.3373C63.7238 40.1259 63.2246 38.3423 63.7319 36.7639C64.3174 34.948 66.4328 33.3615 68.9583 33.8498C70.1941 34.09 71.3651 34.8967 72.0855 36.0084C72.7196 36.9851 72.9409 38.0698 72.7088 39.0601C72.3661 40.5333 71.0953 41.3994 70.3047 41.8068C70.3614 41.2078 70.2157 40.6115 69.8811 40.0989C69.4926 39.4999 68.8936 39.0897 68.1947 38.9413ZM75.6418 38.7201C75.237 41.6422 72.8141 44.0868 69.703 44.7506L69.989 43.3961C70.0214 43.3907 70.0565 43.3853 70.0889 43.3718C70.4234 43.2585 73.3645 42.1792 74.0228 39.3676C74.3385 38.0158 74.0525 36.5615 73.2188 35.2745C72.2879 33.839 70.8282 32.8353 69.2173 32.525C66.6567 32.0285 63.427 33.3237 62.4503 36.3484C61.7406 38.5501 62.5123 41.0459 64.3336 42.6001L63.9208 43.6173C61.6489 42.0605 60.316 39.7481 60.405 37.433C60.4752 35.5659 61.4978 33.7284 63.2112 32.3928C65.0972 30.9196 67.5067 30.3098 69.6572 30.7604C72.9813 31.4592 76.1787 34.8239 75.6418 38.7201Z" fill="#4AB69F"/>
<path d="M68.1836 51.2126C68.2025 51.2639 68.2214 51.3152 68.2376 51.3664C68.2214 51.3152 68.2052 51.2639 68.1836 51.2126Z" fill="#4AB69F"/>
<path d="M68.7051 56.064L69.8788 56.3123L69.6711 57.2917L67.5962 57.7477C67.5881 57.7504 67.58 57.7531 67.5719 57.7558C67.4181 57.9312 67.2562 58.1012 67.0835 58.2712C67.0754 58.317 67.0673 58.3629 67.0673 58.4115C67.0673 58.7299 67.2913 59.0024 67.6016 59.0698L69.2124 59.4098L68.7699 61.4955L65.8531 60.8776L66.2471 59.0132C65.7317 59.4341 65.1786 59.828 64.6227 60.1761L64.5094 60.705C64.4069 61.1933 63.9266 61.5063 63.4382 61.4011C63.2359 61.3579 63.0659 61.2473 62.9418 61.1016C62.4912 61.3175 62.0594 61.4955 61.6709 61.6277C61.9785 62.1674 62.5046 62.5829 63.1603 62.7205C63.3168 62.7529 63.4733 62.7691 63.6271 62.7691C64.2288 62.7691 64.7954 62.5262 65.2082 62.1161L69.1503 62.9499C69.1962 62.9606 69.2448 62.9633 69.2906 62.9633C69.6036 62.9633 69.8815 62.7448 69.949 62.4291L70.6694 59.024C70.7126 58.8162 70.6559 58.6138 70.5345 58.46C70.718 58.371 70.8556 58.1983 70.8988 57.9933L71.3359 55.9291C71.4141 55.5649 71.1794 55.206 70.8151 55.1305L69.0073 54.7473C69.0019 55.1898 68.8967 55.6296 68.7051 56.064Z" fill="#4AB69F"/>
<path d="M53.0989 63.3467C46.7258 63.3467 40.7007 61.539 36.9043 59.5153C33.2213 57.5537 31.087 55.2036 31.0519 53.0666C31.0384 52.2167 31.1194 49.3323 32.7707 47.9184C34.8726 46.116 38.4774 45.4712 40.9759 46.4479C49.1488 49.6399 57.7048 47.4894 62.3025 46.3319C62.9743 46.1619 63.5545 46.0162 64.0536 45.9083C65.5376 45.5818 67.0351 46.2455 67.7852 47.5569C69.6821 50.8757 69.5903 54.7422 69.3664 56.7523C69.2504 57.7911 68.6406 58.7193 67.6476 59.3615C63.1659 62.2621 58.0285 63.3467 53.0989 63.3467ZM38.3613 47.3383C36.6696 47.3383 34.8402 47.9184 33.6503 48.941C32.6924 49.7613 32.3794 51.6635 32.4037 53.045C32.4307 54.6531 34.3518 56.6282 37.5411 58.3254C43.9898 61.7602 57.1354 64.569 66.911 58.2283C67.2861 57.9854 67.9309 57.4512 68.0227 56.6012C68.2278 54.7557 68.3168 51.2102 66.6088 48.2233C66.1555 47.4273 65.2435 47.0253 64.3396 47.225C63.8621 47.3302 63.29 47.4732 62.629 47.6405C57.8855 48.8331 49.0597 51.0537 40.4821 47.7026C39.8508 47.4543 39.1195 47.3383 38.3613 47.3383Z" fill="#F0F3F5"/>
<path d="M64.9228 60.0604C64.7582 60.0604 64.5909 60.001 64.4614 59.8769C64.2483 59.6772 59.2782 54.9068 60.8647 48.1181C60.9484 47.7566 61.3126 47.5299 61.6742 47.6136C62.0357 47.6972 62.2624 48.0615 62.1787 48.423C60.7703 54.44 65.3383 58.8489 65.3842 58.8921C65.654 59.1484 65.6675 59.5747 65.4112 59.8445C65.2817 59.9875 65.1009 60.0604 64.9228 60.0604Z" fill="#F0F3F5"/>
<path d="M59.2101 47.5056C58.9457 47.5056 58.6975 47.3491 58.5895 47.0927L57.745 45.088C57.5993 44.7453 57.7612 44.3487 58.1038 44.2057C58.4465 44.06 58.8432 44.2219 58.9862 44.5645L59.8307 46.5693C59.9764 46.912 59.8145 47.3086 59.4718 47.4516C59.3855 47.4894 59.2992 47.5056 59.2101 47.5056Z" fill="#F0F3F5"/>
<path d="M51.8498 68.3303C50.0231 68.3303 47.9725 68.1037 45.7006 67.529C45.4092 67.4561 45.2041 67.1998 45.1906 66.9003L45.0854 64.1562C45.0773 63.935 45.1772 63.7245 45.3552 63.5896C45.5333 63.4574 45.7627 63.4196 45.9731 63.4898C45.9866 63.4952 47.4733 63.9646 48.2153 63.1498C48.4663 62.8746 48.8926 62.853 49.1678 63.1039C49.443 63.3549 49.4646 63.7812 49.2137 64.0564C48.4042 64.9468 47.2629 65.0304 46.4669 64.9522L46.5209 66.3364C55.0688 68.3249 60.2142 65.0466 61.334 64.221V62.8611C61.334 62.4887 61.6362 62.1865 62.0085 62.1865C62.3809 62.1865 62.6831 62.4887 62.6831 62.8611V64.5502C62.6831 64.7444 62.5995 64.9306 62.4511 65.0601C62.2568 65.2301 58.598 68.3303 51.8498 68.3303Z" fill="#F0F3F5"/>
<path d="M19.4761 51.6527C15.337 51.6527 12.1801 51.1428 10.0728 50.1282C8.97196 49.5994 8.37026 48.4688 8.54295 47.2492C8.71833 46.0216 9.61683 45.0961 10.831 44.8937C17.1853 43.8306 28.0995 39.5971 28.2101 39.554C28.5582 39.4191 28.9495 39.5918 29.0844 39.9371C29.2193 40.2852 29.0466 40.6764 28.7012 40.8113C28.2479 40.9867 17.5468 45.1366 11.055 46.2239C10.2968 46.3508 9.95141 46.9363 9.87856 47.4408C9.8084 47.9373 9.97569 48.5876 10.6556 48.914C12.879 49.9825 16.4811 50.4385 21.3621 50.2712C21.3702 50.2712 21.3783 50.2712 21.3864 50.2712C21.748 50.2712 22.0475 50.5572 22.0609 50.9215C22.0744 51.2939 21.783 51.6068 21.4107 51.6176C20.7442 51.6419 20.0967 51.6527 19.4761 51.6527Z" fill="#F0F3F5"/>
<path d="M48.9519 71.2685C46.3211 71.2685 43.4421 71.0121 40.3203 70.5022C31.9505 69.1288 24.8299 66.3119 24.7571 66.2849C24.5817 66.2147 24.4414 66.0744 24.3766 65.8963C22.3341 60.4622 22.7685 54.5342 25.6367 48.7547C27.7872 44.416 30.5096 41.7178 30.623 41.6044C30.8874 41.3427 31.3164 41.3481 31.5754 41.6125C31.8372 41.8769 31.8318 42.306 31.5673 42.5677C31.4621 42.6702 21.1847 52.9854 25.5369 65.1408C28.4509 66.2444 53.3203 75.2294 63.3603 65.1975L63.3387 64.0454C63.3306 63.673 63.6274 63.3654 63.9997 63.3573C64.0051 63.3573 64.0078 63.3573 64.0132 63.3573C64.3802 63.3573 64.6797 63.6514 64.6878 64.0184L64.7148 65.4538C64.7175 65.6319 64.65 65.8046 64.5286 65.9341C61.1235 69.4823 55.9024 71.2685 48.9519 71.2685Z" fill="#F0F3F5"/>
<path d="M36.3643 88.3077C35.8327 88.3077 35.2877 88.2915 34.7264 88.2591C17.3149 87.2527 15.8525 76.4464 15.7365 74.2906C15.7149 73.9182 16.0009 73.5998 16.3733 73.5809C16.7483 73.554 17.064 73.8454 17.0829 74.2177C17.1881 76.1739 18.5399 85.9738 34.8047 86.9127C41.5043 87.2986 46.9466 85.2992 50.9804 80.9632C54.0078 77.7119 55.0736 74.2852 55.0844 74.2528C55.1599 74.0019 55.3758 73.8184 55.6348 73.7806C58.7 73.3435 61.2579 70.1057 61.2849 70.0733C61.5142 69.7792 61.9378 69.7279 62.2319 69.9572C62.526 70.1866 62.5773 70.6102 62.3506 70.9043C62.2373 71.05 59.6497 74.3337 56.2419 75.0461C55.8615 76.0903 54.6473 78.9935 52.0138 81.8401C49.2239 84.8486 44.2943 88.3077 36.3643 88.3077Z" fill="#F0F3F5"/>
<path d="M54.4754 84.5897C54.1057 84.5897 53.8035 84.2902 53.8008 83.9205C53.7981 83.5482 54.0976 83.2433 54.4699 83.2406C58.4525 83.2163 61.3099 82.0264 62.9639 79.7005C66.45 74.7979 63.6223 66.3444 63.5953 66.2608C63.4739 65.9073 63.6627 65.5242 64.0162 65.4055C64.3697 65.284 64.7528 65.4729 64.8715 65.8264C64.9039 65.9181 65.654 68.1334 65.9454 71.0312C66.3366 74.9328 65.6891 78.2003 64.0675 80.4803C62.149 83.1812 58.9247 84.5627 54.4807 84.5897C54.478 84.5897 54.478 84.5897 54.4754 84.5897Z" fill="#F0F3F5"/>
<path d="M28.1968 77.345C28.043 77.345 27.8865 77.291 27.7597 77.1831C24.2952 74.2286 23.8689 67.2456 23.8527 66.9488C23.8311 66.5765 24.1171 66.2581 24.4895 66.2392C24.8618 66.2176 25.1802 66.5036 25.2018 66.876C25.2045 66.9434 25.6119 73.5783 28.6366 76.1578C28.9199 76.4006 28.955 76.8242 28.7122 77.1075C28.5773 77.264 28.3857 77.345 28.1968 77.345Z" fill="#F0F3F5"/>
<path d="M21.6839 75.3239C21.5274 75.3239 21.3709 75.3212 21.2171 75.3158C20.9985 75.3077 20.7773 75.3023 20.556 75.2942C18.2517 75.2241 15.6426 75.1458 15.6426 73.0952C15.6426 72.1562 16.7866 71.6085 19.8653 71.0796C21.1334 70.8611 22.4232 70.7936 23.7048 70.8773C24.0772 70.9015 24.3578 71.2226 24.3335 71.595C24.3092 71.9673 23.9935 72.2452 23.6158 72.2237C22.4393 72.1481 21.2575 72.2102 20.1027 72.4071C17.9549 72.7768 17.2453 73.0898 17.0187 73.2328C17.2669 73.8426 19.1772 73.9019 20.5965 73.9424C20.8231 73.9505 21.0471 73.9559 21.2683 73.964C22.2397 73.9991 23.2191 73.91 24.1851 73.6915C24.5493 73.6078 24.9109 73.8372 24.9919 74.2014C25.0728 74.5657 24.8461 74.9273 24.4819 75.0082C23.5564 75.2187 22.6174 75.3239 21.6839 75.3239Z" fill="#F0F3F5"/>
<path d="M14.3823 71.8378C14.2987 71.8378 14.2123 71.8216 14.1314 71.7892C2.31056 67.0296 0.559422 55.3382 0.357056 50.5301C0.327376 49.842 0.715917 49.2241 1.3473 48.9516C1.97868 48.6791 2.6991 48.8221 3.17938 49.3159C11.5114 57.8638 21.0766 58.3117 21.171 58.3171C21.5433 58.3306 21.8347 58.6436 21.8213 59.0159C21.8078 59.3883 21.4867 59.6878 21.1251 59.6662C20.7123 59.6527 10.9421 59.2129 2.21342 50.2602C2.0866 50.1307 1.95169 50.1631 1.88154 50.1928C1.81409 50.2225 1.69806 50.298 1.70616 50.4761C1.89773 55.0199 3.54633 66.0744 14.6386 70.5399C14.984 70.6802 15.1513 71.0715 15.0137 71.4168C14.9004 71.6759 14.6494 71.8378 14.3823 71.8378Z" fill="#F0F3F5"/>
<path d="M67.3617 16.3817C67.2403 16.3817 67.1189 16.3493 67.0082 16.2819C66.6926 16.0849 66.5927 15.6694 66.7897 15.3537L69.1371 11.5546C69.3341 11.2389 69.7496 11.1391 70.0653 11.3361C70.381 11.533 70.4808 11.9486 70.2839 12.2643L67.9364 16.0633C67.8069 16.2684 67.5857 16.3817 67.3617 16.3817Z" fill="#4AB69F"/>
<path d="M69.8416 19.9434C69.5907 19.9434 69.3478 19.8031 69.2318 19.5603C69.0699 19.223 69.2129 18.821 69.5475 18.6618L75.2191 15.9447C75.5564 15.7828 75.9584 15.9258 76.1176 16.2604C76.2768 16.595 76.1365 16.9997 75.8019 17.1589L70.1303 19.876C70.0386 19.9218 69.9387 19.9434 69.8416 19.9434Z" fill="#4AB69F"/>
<path d="M75.2999 25.2427C75.2406 25.2427 75.1812 25.2346 75.1191 25.2184L69.658 23.7155C69.2991 23.6157 69.0886 23.246 69.1858 22.8872C69.2829 22.5283 69.6553 22.3152 70.0141 22.415L75.4753 23.9179C75.8342 24.0177 76.0446 24.3874 75.9475 24.7462C75.8692 25.0484 75.5967 25.2427 75.2999 25.2427Z" fill="#4AB69F"/>
</svg>
