<svg xmlns="http://www.w3.org/2000/svg" width="42" height="42" fill="none" viewBox="0 0 42 42">
  <path fill="#232323" d="M20.58 39.98c10.715 0 19.4-8.686 19.4-19.4 0-10.714-8.685-19.4-19.4-19.4-10.714 0-19.4 8.686-19.4 19.4 0 10.714 8.686 19.4 19.4 19.4Z"/>
  <path fill="#fff" d="M25.71 17.71a2.75 2.75 0 1 0 0-5.5 2.75 2.75 0 0 0 0 5.5Z"/>
  <path fill="#fff" d="M12.5 30.38c-.59 0-1.15-.23-1.57-.65-.86-.86-.86-2.27 0-3.13l10.83-10.83c.87-.86 2.27-.86 3.13 0 .86.86.86 2.27 0 3.13L14.06 29.73c-.42.42-.98.65-1.57.65h.01Z"/>
  <path fill="#fff" d="M18.21 28.85c-.59 0-1.15-.23-1.57-.65l-1.84-1.84c-.86-.86-.86-2.27 0-3.13.42-.42.97-.65 1.57-.65.59 0 1.15.23 1.57.65l1.85 1.85c.86.86.86 2.27 0 3.13-.42.42-.98.65-1.57.65l-.01-.01Zm5.12-7.45c-.59 0-1.15-.23-1.56-.65l-1.85-1.85c-.86-.86-.86-2.27 0-3.13.87-.86 2.27-.86 3.13 0l1.85 1.85c.86.86.86 2.27 0 3.13-.42.42-.97.65-1.57.65Z"/>
  <path fill="#fff" d="M15.91 31.14c-.59 0-1.15-.23-1.57-.65l-1.85-1.85c-.86-.86-.86-2.27 0-3.13.87-.86 2.27-.86 3.13 0l1.85 1.85c.86.86.86 2.27 0 3.13-.42.42-.97.65-1.57.65h.01Zm9.8-11.01c-1.38 0-2.68-.54-3.66-1.51a5.112 5.112 0 0 1-1.51-3.65c0-1.38.54-2.68 1.51-3.65.98-.98 2.27-1.51 3.66-1.51 1.39 0 2.68.54 3.65 1.51.97.97 1.51 2.27 1.51 3.65s-.54 2.68-1.51 3.65a5.13 5.13 0 0 1-3.65 1.51Zm0-5.91c-.2 0-.38.07-.52.21a.726.726 0 0 0 0 1.04c.12.12.32.2.52.2.21 0 .4-.07.52-.2a.726.726 0 0 0 0-1.04.726.726 0 0 0-.52-.22v.01Z"/>
  <path fill="#232323" d="M12.5 29.1a.93.93 0 0 1-.66-1.59l10.83-10.83c.37-.37.96-.37 1.33 0 .37.37.37.96 0 1.32L13.17 28.83a.93.93 0 0 1-.66.27h-.01Z"/>
  <path fill="#232323" d="M18.21 27.57a.93.93 0 0 1-.66-.27l-1.85-1.85a.924.924 0 0 1 0-1.32c.37-.37.96-.37 1.33 0l1.85 1.85c.37.37.37.96 0 1.32a.93.93 0 0 1-.66.27h-.01Zm5.12-7.45a.93.93 0 0 1-.66-.27L20.82 18a.924.924 0 0 1 0-1.32c.37-.37.96-.37 1.33 0L24 18.53c.37.37.37.96 0 1.32a.93.93 0 0 1-.66.27h-.01Zm-7.42 9.74a.93.93 0 0 1-.66-.27l-1.85-1.85a.924.924 0 0 1 0-1.32c.37-.37.96-.37 1.33 0l1.85 1.85c.37.37.37.96 0 1.32a.93.93 0 0 1-.66.27h-.01Z"/>
  <path fill="#00E1EC" d="M25.71 18.85c-1.04 0-2.02-.4-2.75-1.14a3.874 3.874 0 0 1-1.14-2.75c0-1.04.4-2.02 1.14-2.75a3.89 3.89 0 0 1 2.75-1.14c1.04 0 2.02.4 2.75 1.14a3.89 3.89 0 0 1 1.14 2.75c0 1.04-.4 2.02-1.14 2.75-.73.73-1.71 1.14-2.75 1.14Zm0-5.91a2.012 2.012 0 0 0-2.02 2.02c0 .54.21 1.04.59 1.43.76.76 2.09.76 2.85 0a2.03 2.03 0 0 0 0-2.86c-.38-.38-.89-.59-1.43-.59h.01Z"/>
  <path fill="#05DBDB" d="m28.33 12.1-1.32 1.32s.09.07.13.11a2.03 2.03 0 0 1 0 2.86c-.76.76-2.09.76-2.85 0-.04-.04-.07-.09-.11-.13l-1.32 1.32s.07.09.11.13c.73.73 1.71 1.14 2.75 1.14s2.02-.4 2.75-1.14c.73-.73 1.14-1.71 1.14-2.75s-.4-2.02-1.14-2.75c-.04-.04-.09-.07-.13-.11h-.01Z" style="mix-blend-mode:multiply"/>
  <path fill="#00E2ED" d="M8.45 18.9a.6.6 0 1 0 0-1.2.6.6 0 0 0 0 1.2Zm23.76 5.01a.6.6 0 1 0 0-1.2.6.6 0 0 0 0 1.2Z"/>
  <path fill="#F1FBFC" d="M12.52 11.24c.21 0 .36.4.45.79.11.46.46.81.92.92.4.09.79.24.79.45 0 .21-.4.36-.79.45-.46.11-.81.46-.92.92-.09.4-.24.79-.45.79-.21 0-.36-.4-.45-.79-.11-.46-.46-.81-.92-.92-.4-.09-.79-.24-.79-.45 0-.21.4-.36.79-.45.46-.11.81-.46.92-.92.09-.4.24-.79.45-.79Zm14.09 15.51c.19 0 .32.35.4.7.1.41.41.72.81.81.35.08.7.21.7.4 0 .19-.35.32-.7.4-.41.1-.72.41-.81.81-.08.35-.21.7-.4.7-.19 0-.32-.35-.4-.7-.1-.41-.41-.72-.81-.81-.35-.08-.7-.21-.7-.4 0-.19.35-.32.7-.4.41-.1.72-.41.81-.81.08-.35.21-.7.4-.7Z"/>
</svg>
