<svg width="82" height="94" viewBox="0 0 82 94" fill="none" xmlns="http://www.w3.org/2000/svg">
<path d="M38.6321 26.3114C36.0308 24.7003 32.8343 25.7362 31.4951 28.0055C31.8385 27.8796 32.2019 27.8224 32.5739 27.8682C34.7431 28.1171 33.856 29.4192 32.5653 30.209C32.056 30.5238 31.4808 30.7785 30.877 30.7957C30.9027 31.0761 30.9514 31.3594 31.0258 31.6513C31.6954 34.7677 35.6073 36.4188 38.3316 34.7991C41.7027 33.0278 41.9545 28.2831 38.6321 26.3114Z" fill="#4AB69F"/>
<path d="M63.7184 46.8953C63.5868 46.8953 63.4552 46.8581 63.335 46.7837C62.8828 46.4947 62.4622 46.1913 62.0901 45.9223C61.306 45.3557 60.5677 44.8234 60.1471 44.9093C59.7607 44.9923 59.383 44.7404 59.3 44.3541C59.217 43.9678 59.4689 43.5872 59.8552 43.5071C60.894 43.2896 61.8355 43.9707 62.9286 44.7605C63.3006 45.0295 63.687 45.3071 64.1048 45.5732C64.4396 45.785 64.5369 46.2285 64.3251 46.5605C64.1877 46.778 63.956 46.8953 63.7184 46.8953Z" fill="#021D30"/>
<path d="M76.4896 61.1236C76.3179 61.1236 76.1434 61.0606 76.006 60.9347C75.7141 60.6657 75.697 60.2135 75.9631 59.9245C77.0706 58.7226 78.3841 56.9455 78.7418 53.852C78.8334 53.0679 78.4041 52.3268 77.6772 52.0034C77.6515 51.992 77.6286 51.9805 77.6057 51.9662L74.91 50.3808C74.5695 50.1805 74.455 49.7427 74.6553 49.4021C74.8556 49.0616 75.2935 48.95 75.634 49.1475L78.2954 50.7128C79.5745 51.2994 80.3214 52.6215 80.1612 54.0152C79.7577 57.5178 78.2667 59.5296 77.0133 60.8918C76.876 61.0463 76.6842 61.1236 76.4896 61.1236Z" fill="#021D30"/>
<path d="M73.5139 53.5717C73.368 53.5717 73.2192 53.5259 73.0933 53.4344C72.7728 53.2026 72.7041 52.7533 72.9359 52.4356C73.4195 51.7717 73.989 51.1593 74.6243 50.6156C74.9247 50.358 75.3769 50.3953 75.6344 50.6957C75.892 50.9962 75.8548 51.4483 75.5543 51.7059C75.002 52.1781 74.5098 52.7075 74.092 53.2827C73.9546 53.4715 73.7371 53.5717 73.5139 53.5717Z" fill="#021D30"/>
<path d="M63.6942 14.0776C63.345 14.0776 63.0388 13.82 62.9873 13.4652C62.9272 13.0588 61.4363 3.93868 50.5104 2.29894C44.292 1.36604 37.3239 4.20195 30.5875 6.94629C25.8028 8.89509 21.2527 10.7495 17.4524 10.9412C18.4025 11.8827 20.1653 13.0102 22.8667 12.4178C23.253 12.3348 23.6336 12.5781 23.7195 12.9644C23.8025 13.3507 23.5592 13.7313 23.1729 13.8172C22.549 13.9545 21.9624 14.0146 21.4187 14.0146C17.2979 14.0146 15.3663 10.5949 15.3462 10.5549C15.2203 10.3231 15.2289 10.0426 15.372 9.81942C15.5151 9.59907 15.7669 9.47315 16.0302 9.49604C19.7646 9.80511 24.7611 7.77332 30.0495 5.62134C36.6428 2.93709 44.1146 -0.104864 50.7222 0.885274C62.7355 2.68813 64.3896 13.1561 64.4039 13.262C64.4611 13.6541 64.1892 14.0146 63.7972 14.0719C63.7628 14.0747 63.7256 14.0776 63.6942 14.0776Z" fill="#021D30"/>
<path d="M19.845 25.0405C19.0266 25.0405 18.4743 24.9804 18.4142 24.9718C18.1652 24.9432 17.9506 24.7886 17.8476 24.5597C17.7417 24.3336 17.7646 24.0675 17.9019 23.8615L25.3137 12.8154C25.534 12.4863 25.9804 12.4005 26.3067 12.6208C26.6358 12.8412 26.7216 13.2847 26.5013 13.6138L19.7964 23.6039C19.8078 23.6039 19.8193 23.6039 19.8307 23.6039C21.1042 23.6039 23.1073 23.4465 24.7013 22.608C25.0504 22.422 25.4825 22.5594 25.6685 22.9085C25.8517 23.2576 25.7172 23.6897 25.368 23.8758C23.5108 24.8545 21.273 25.0405 19.845 25.0405Z" fill="#021D30"/>
<path d="M22.128 39.8011C21.8361 39.8011 21.57 39.6237 21.4613 39.3461C21.3439 39.0428 21.4412 38.6994 21.7045 38.5076C22.4943 37.9296 23.7363 33.5226 24.0282 25.5414C24.0425 25.1465 24.3773 24.8346 24.7693 24.8518C25.1643 24.8661 25.4733 25.198 25.459 25.5929C25.3989 27.2784 25.0527 34.5614 23.6247 38.0412C24.901 37.6949 26.7239 37.0224 28.2062 35.7747C28.5096 35.5201 28.9588 35.5601 29.2135 35.8606C29.4682 36.1639 29.4282 36.6132 29.1277 36.8679C26.2345 39.3032 22.3713 39.7754 22.2082 39.7925C22.1853 39.7983 22.1566 39.8011 22.128 39.8011Z" fill="#021D30"/>
<path d="M28.9621 41.8358C28.922 41.8358 28.8848 41.833 28.8448 41.8272C28.4556 41.7614 28.1923 41.3951 28.2581 41.0031L28.8391 37.5147C28.9049 37.1255 29.2712 36.8622 29.6632 36.9281C30.0524 36.9939 30.3157 37.3602 30.2499 37.7522L29.6689 41.2406C29.6088 41.5869 29.3055 41.8358 28.9621 41.8358Z" fill="#021D30"/>
<path d="M46.6298 19.7323C46.2435 19.2029 44.4635 18.3758 43.5449 20.2731C42.5834 22.2591 42.8066 22.6483 42.8066 22.6483L44.7468 21.8184L45.0702 23.5669L43.2731 24.1936C43.2731 24.1936 43.2387 27.6992 45.6626 27.3958C48.0921 27.0925 47.9519 21.538 46.6298 19.7323Z" fill="#4AB69F"/>
<path d="M43.7705 29.084C40.5025 29.084 37.409 25.8932 37.2116 22.2475C37.017 18.6389 39.5725 15.5426 43.0322 15.202C46.2917 14.8844 48.8071 17.643 49.6112 20.5333C50.1835 22.588 49.7858 24.8373 48.5467 26.5457C47.4421 28.071 45.788 28.9924 44.0023 29.0754C43.9251 29.0811 43.8478 29.084 43.7705 29.084ZM43.1724 16.6271C40.8116 16.8589 38.4707 18.9966 38.6424 22.1702C38.7998 25.1063 41.3667 27.7705 43.9365 27.6474C45.3015 27.5845 46.5292 26.8948 47.3877 25.7072C48.3721 24.3479 48.6869 22.5565 48.2319 20.9168C47.588 18.6017 45.6421 16.3782 43.1724 16.6271Z" fill="#021D30"/>
<path d="M60.7685 22.7282C61.0146 22.7282 61.2549 22.7397 61.4953 22.7568C61.5096 21.8354 61.3293 20.7851 60.8772 19.7006C59.4864 16.361 56.9939 18.3184 57.1198 20.8366L58.2101 20.1642L58.6708 21.6322L57.4117 22.3877C57.4117 22.3877 57.3717 22.6481 57.5634 23.2719C58.5936 22.9228 59.6753 22.7282 60.7685 22.7282Z" fill="#4AB69F"/>
<path d="M56.274 23.9188C55.9792 23.9188 55.7016 23.7356 55.5986 23.4409C55.2838 22.548 55.1779 21.7811 55.1522 21.5665C55.0806 20.9684 54.9461 18.8622 56.1681 16.9277C56.5573 16.3125 57.5932 14.6784 59.3216 14.5354C60.8183 14.4066 62.2806 15.4711 63.4396 17.5201C63.7773 18.1153 64.8475 20.2329 64.507 22.4851C64.4469 22.8743 64.0863 23.1461 63.6943 23.086C63.3022 23.0259 63.0361 22.6625 63.0933 22.2733C63.3652 20.4762 62.4752 18.722 62.1948 18.2269C61.3277 16.6902 60.3461 15.8889 59.439 15.9633C58.4174 16.0492 57.6876 17.2024 57.3757 17.6946C56.4027 19.2314 56.5143 20.9197 56.5687 21.4005C56.583 21.5264 56.6717 22.1932 56.9436 22.9687C57.0752 23.3407 56.8778 23.7499 56.5058 23.8816C56.4314 23.9073 56.3512 23.9188 56.274 23.9188Z" fill="#021D30"/>
<path d="M43.7244 34.5983C43.1349 34.5983 42.5311 34.5583 41.9101 34.4724C41.9015 34.4724 41.8901 34.4696 41.8815 34.4667L36.8449 33.5424C36.4558 33.4708 36.1982 33.0988 36.2697 32.7096C36.3413 32.3204 36.7133 32.0629 37.1025 32.1344L42.1219 33.0559C45.4013 33.5166 48.3231 32.4406 51.1447 31.4019C53.746 30.4461 56.4331 29.4588 59.352 29.6934C63.427 30.0254 66.1685 28.4429 66.7752 26.7116C67.1415 25.6642 66.6979 24.6569 65.5332 23.8728C62.5313 21.8582 51.9174 25.4438 48.0827 26.9949C47.7164 27.1437 47.2986 26.9663 47.1527 26.6C47.0039 26.2337 47.1813 25.8159 47.5476 25.6699C49.0299 25.069 62.165 19.8922 66.3316 22.6881C68.04 23.8327 68.7125 25.5154 68.1287 27.1866C67.1958 29.8537 63.5443 31.4705 59.2404 31.1243C56.6391 30.9125 54.2124 31.8053 51.6426 32.7497C49.1587 33.6568 46.6032 34.5983 43.7244 34.5983Z" fill="#021D30"/>
<path d="M48.1656 36.3528C48.0225 36.3528 47.8823 36.3099 47.7621 36.2298C47.5847 36.1096 47.4702 35.915 47.4531 35.7032L47.2928 33.9061C47.2585 33.5112 47.5475 33.1649 47.9424 33.1306C48.3345 33.0934 48.6836 33.3853 48.7179 33.7802L48.8009 34.7074C51.1761 33.9919 53.3224 33.2908 54.2953 32.9675L54.1637 31.8485C54.1179 31.4565 54.3983 31.1016 54.7904 31.053C55.1824 31.0072 55.5373 31.2876 55.5859 31.6797L55.7863 33.3767C55.8263 33.7115 55.626 34.0291 55.3055 34.1379C55.2711 34.1493 51.9488 35.274 48.3688 36.3299C48.3001 36.3414 48.2314 36.3528 48.1656 36.3528Z" fill="#021D30"/>
<path d="M58.9431 33.4339C58.5768 33.4339 58.2678 33.1563 58.2306 32.7872L58.056 30.9757C58.0188 30.5837 58.305 30.2317 58.6999 30.1945C59.0919 30.1601 59.4439 30.4435 59.4811 30.8384L59.5927 31.9888C60.7717 31.9687 61.9479 31.9601 62.669 31.9601L62.7033 30.4778C62.7119 30.0886 63.0296 29.7795 63.4188 29.7795C63.4245 29.7795 63.4302 29.7795 63.4359 29.7795C63.8308 29.7881 64.1428 30.1144 64.1342 30.5093L64.0855 32.6899C64.0769 33.0791 63.7593 33.3881 63.3701 33.3881C63.3644 33.3881 63.3243 33.3881 63.2041 33.3881C62.6375 33.3881 60.703 33.391 58.9631 33.431C58.9546 33.4339 58.9488 33.4339 58.9431 33.4339Z" fill="#021D30"/>
<path d="M36.8565 11.21C36.0266 11.8452 34.1751 13.6681 34.9334 15.4567C35.6946 17.2452 39.3118 15.5053 40.5194 14.787C41.4924 14.209 43.5127 12.7324 42.308 10.6319C41.1003 8.52856 38.0097 10.3286 36.8565 11.21Z" fill="#021D30"/>
<path d="M55.9441 11.6853C55.7867 11.4735 55.6036 11.2789 55.4691 11.05C55.3918 10.8983 55.3431 10.7352 55.2745 10.5778C55.2001 10.3632 55.1171 10.1457 55.1028 9.91675C55.0598 9.24712 55.4576 8.5546 56.0986 8.31708C56.7568 8.04236 57.498 8.08814 58.1848 8.21692C58.6484 8.2856 59.0948 8.43726 59.5355 8.59752C60.1107 8.78925 60.6258 9.10976 61.1237 9.45316C61.6789 9.77653 61.9908 10.3889 62.1139 11.0013C62.2627 11.6452 62.131 12.3892 61.6417 12.8585C60.9349 13.5224 59.4039 13.3307 58.5253 13.1275C57.8815 12.9988 57.2834 12.7155 56.7396 12.352C56.4478 12.1632 56.1587 11.96 55.9441 11.6853Z" fill="#021D30"/>
<path d="M54.8905 23.169C54.6243 23.169 54.3696 23.0202 54.2466 22.7627C53.7973 21.8269 52.8072 18.7878 53.0132 17.3942C53.514 14.0174 56.9222 13.4594 60.5337 13.3621C62.4624 13.3105 63.9505 13.8028 64.9464 14.833C66.1626 16.0892 66.6462 18.0523 66.4688 21.0085C66.4459 21.4034 66.1025 21.7067 65.7104 21.6781C65.3155 21.6552 65.0151 21.3147 65.0408 20.9197C65.1925 18.4272 64.8233 16.7617 63.919 15.826C63.2036 15.0876 62.1047 14.75 60.5737 14.79C55.8005 14.9217 54.6644 16.0091 54.4297 17.6031C54.2924 18.5388 55.0765 21.1859 55.5372 22.1417C55.7089 22.4965 55.5601 22.9258 55.2024 23.0975C55.0994 23.1461 54.9935 23.169 54.8905 23.169Z" fill="#021D30"/>
<path d="M40.7086 30.0884C37.7038 30.0884 33.5888 28.8779 31.6485 22.8741C31.5885 22.6881 30.3121 18.347 38.239 15.657C45.5677 13.1673 47.6567 13.0042 49.7458 17.3053C50.9648 19.8121 50.9906 22.6194 49.8173 25.0032C48.5982 27.4814 46.2173 29.1984 43.1153 29.8394C42.4943 29.9682 41.6558 30.0884 40.7086 30.0884ZM45.3445 15.3222C44.0167 15.3222 42.0192 15.8831 38.6997 17.0106C32.1837 19.2226 32.9792 22.3161 33.0164 22.4477C35.1312 28.9838 40.0705 29.0067 42.8291 28.4372C45.4905 27.8878 47.5165 26.4426 48.5381 24.3708C49.514 22.3848 49.4882 20.0382 48.4637 17.9292C47.6167 16.195 46.9986 15.3222 45.3445 15.3222Z" fill="#021D30"/>
<path d="M50.7847 23.4238C50.6044 23.4238 50.4213 23.3551 50.2839 23.2177C50.0035 22.9401 49.9977 22.488 50.2753 22.2047C52.3214 20.1271 54.1758 20.6794 54.8712 21.2632C55.1745 21.5179 55.2146 21.9672 54.9599 22.2705C54.708 22.571 54.2645 22.6111 53.9611 22.3678C53.8438 22.2791 52.8594 21.6181 51.2941 23.2091C51.1539 23.3522 50.9678 23.4238 50.7847 23.4238Z" fill="#021D30"/>
<path d="M53.3733 26.9178C53.8512 26.9378 54.0658 26.5429 54.5666 26.729C54.8585 26.7919 55.116 26.5401 55.1876 26.2739C55.2648 25.9334 55.0273 25.5728 54.764 25.3754C54.2861 25.0949 53.6451 25.0205 53.1758 25.3554C52.6464 25.6616 52.3001 26.191 52.8725 26.6603C53.0184 26.7862 53.173 26.9235 53.3733 26.9178Z" fill="#021D30"/>
<path d="M59.3715 25.6386C59.4431 25.61 59.5175 25.5871 59.5947 25.5785C59.7292 25.5928 59.8551 25.6558 59.9925 25.6672C60.2529 25.7245 60.5248 25.6644 60.7365 25.5013C60.9283 25.3324 61.0485 25.0549 61.0313 24.803C61.0628 24.4882 60.8853 24.1591 60.5849 24.0418C59.9639 23.8072 59.1912 24.059 58.8392 24.6256C58.7219 24.8202 58.5788 24.9947 58.6361 25.238C58.6761 25.4612 58.8106 25.7216 59.0625 25.7416C59.1741 25.7502 59.2742 25.6844 59.3715 25.6386Z" fill="#021D30"/>
<path d="M56.1244 38.0125C56.0042 38.0125 55.8812 38.0096 55.7552 38.0011C55.3603 37.9753 55.0627 37.6347 55.0885 37.2398C55.1142 36.8449 55.4519 36.553 55.8497 36.5731C58.3851 36.739 59.7902 34.5728 59.8503 34.4812C60.062 34.1492 60.5027 34.0491 60.8376 34.2608C61.1695 34.4726 61.2697 34.9104 61.0608 35.2453C60.9835 35.3626 59.278 38.0125 56.1244 38.0125Z" fill="#021D30"/>
<path d="M36.0277 34.115C35.7644 34.115 35.5126 33.969 35.3867 33.7201C35.2093 33.3652 35.3524 32.936 35.7072 32.7614C35.8875 32.6727 36.4512 32.3178 36.188 31.5023C36.0678 31.1302 36.2681 30.7239 36.6401 30.6008C37.0121 30.4778 37.4128 30.6724 37.5415 31.0415C37.7876 31.7484 37.8535 33.2879 36.3454 34.0406C36.2423 34.0892 36.1336 34.115 36.0277 34.115Z" fill="#021D30"/>
<path d="M66.125 34.1496C66.663 33.7003 67.2525 33.3054 67.8792 32.9763C68.0309 32.0834 68.0538 31.2936 67.9851 30.6612C67.9422 30.2691 67.5902 29.983 67.1953 30.0287C66.8032 30.0717 66.5199 30.4265 66.5628 30.8186C66.6601 31.6971 66.5285 32.8647 66.125 34.1496Z" fill="#021D30"/>
<path d="M63.1257 39.8272C63.1314 39.6412 63.1514 39.458 63.1715 39.2777C61.1454 41.5413 57.5998 44.1168 51.6561 44.8866C39.8488 46.4176 32.48 38.9801 32.3827 38.88C32.108 38.5967 31.6559 38.5881 31.3697 38.8599C31.0864 39.1346 31.0778 39.5868 31.3497 39.873C31.6358 40.1706 37.8915 46.5292 48.3938 46.5292C49.4955 46.5292 50.6459 46.4577 51.8392 46.306C57.3279 45.5963 60.9308 43.4243 63.2287 41.2666C63.1486 40.7887 63.1085 40.3079 63.1257 39.8272Z" fill="#021D30"/>
<path d="M54.569 49.4394C51.5156 49.4394 45.509 48.5008 42.0034 46.7695C41.6486 46.5949 41.5026 46.1657 41.6801 45.8108C41.8546 45.456 42.2839 45.3129 42.6387 45.4875C46.9913 47.6366 54.8065 48.2375 55.6851 47.9342C56.0514 47.7539 57.0673 46.1113 57.8399 44.4315C58.0059 44.0738 58.4294 43.9164 58.7871 44.0795C59.1448 44.2455 59.3022 44.669 59.1391 45.0267C58.6355 46.1228 57.3477 48.7326 56.2746 49.2363C55.9856 49.3736 55.3817 49.4394 54.569 49.4394Z" fill="#021D30"/>
<path d="M50.4682 52.152C50.0475 52.152 49.6326 52.0891 49.2348 51.946C46.8682 51.0789 40.212 46.0853 39.9315 45.8735C39.6167 45.636 39.5509 45.1867 39.7884 44.872C40.026 44.5572 40.4752 44.4914 40.79 44.7289C42.6644 46.1397 47.9242 49.9428 49.7242 50.601C51.2981 51.1791 53.8793 49.5422 54.7435 48.864C55.0526 48.6207 55.5047 48.6723 55.748 48.9842C55.9912 49.2933 55.9397 49.7454 55.6278 49.9886C55.3073 50.2433 52.8033 52.152 50.4682 52.152Z" fill="#021D30"/>
<path d="M59.1247 50.1461C58.4951 50.1461 57.6481 49.92 56.5864 49.4708C56.223 49.3162 56.0541 48.8956 56.2086 48.5321C56.3632 48.1687 56.781 47.997 57.1473 48.1544C57.9257 48.4835 58.8471 48.7439 59.1791 48.7239C59.4137 48.3032 59.1791 46.4975 58.4923 44.6431C58.3549 44.274 58.5438 43.8619 58.9129 43.7245C59.2849 43.5872 59.6942 43.776 59.8315 44.1452C60.3295 45.4873 61.3511 48.7267 60.0834 49.8514C59.8601 50.0488 59.5396 50.1461 59.1247 50.1461Z" fill="#021D30"/>
<path d="M79.5368 34.8905C78.1203 33.1077 76.0828 31.8256 73.9451 31.3764C71.2609 30.8098 68.2647 31.5595 65.9353 33.3795C63.7862 35.0565 62.5013 37.3973 62.4097 39.7983C62.2867 43.0148 64.2584 46.1912 67.555 48.0914C67.6237 48.1314 67.701 48.1543 67.7754 48.1687L67.6781 48.6237C67.6065 48.9613 67.6008 49.2933 67.6495 49.6167C68.2018 49.4822 68.6911 49.3734 69.0574 49.3076C69.0488 49.1817 69.0517 49.0501 69.0774 48.9213L70.1305 43.9391C70.2078 43.5728 70.4253 43.258 70.7429 43.052C70.9776 42.9003 71.2409 42.8202 71.5127 42.8202C71.61 42.8202 71.7073 42.8316 71.8046 42.8517C72.5658 43.0119 73.0552 43.7617 72.892 44.5229L71.839 49.5051C71.7617 49.8713 71.5442 50.1861 71.2265 50.3922C70.9747 50.5553 70.6886 50.6297 70.3967 50.6182C70.7544 51.3337 71.1979 52.2694 71.6157 53.2739L72.251 51.4567C72.2568 51.4367 72.2596 51.4195 72.2653 51.3995C72.7432 51.0046 73.0981 50.4523 73.2383 49.7998L73.3928 49.073C73.4443 49.0844 73.4959 49.093 73.5502 49.093C73.5932 49.093 73.6361 49.0901 73.679 49.0815C77.7111 48.3575 80.8933 45.2011 81.417 41.4123C81.7346 39.1315 81.065 36.8164 79.5368 34.8905ZM72.1022 41.4523C71.3611 41.2949 70.6027 41.438 69.9646 41.8529C69.3264 42.2679 68.8886 42.9032 68.734 43.6444L68.6596 43.9935C67.3604 42.7086 66.831 40.817 67.369 39.1429C67.99 37.217 70.2336 35.5344 72.9121 36.0523C74.2227 36.307 75.4647 37.1627 76.2288 38.3417C76.9012 39.3776 77.1359 40.528 76.8898 41.5782C76.5264 43.1407 75.1785 44.0593 74.34 44.4914C74.4001 43.8561 74.2456 43.2237 73.8908 42.68C73.4787 42.0447 72.8434 41.6097 72.1022 41.4523ZM80.0004 41.2177C79.5712 44.3169 77.0014 46.9095 73.7019 47.6135L74.0052 46.1769C74.0396 46.1712 74.0768 46.1655 74.1111 46.1512C74.466 46.031 77.5852 44.8863 78.2834 41.9045C78.6182 40.4708 78.3149 38.9283 77.4307 37.5633C76.4434 36.0409 74.8952 34.9763 73.1868 34.6473C70.4711 34.1207 67.0457 35.4943 66.0097 38.7022C65.2571 41.0374 66.0755 43.6844 68.0072 45.3327L67.5693 46.4116C65.1598 44.7604 63.7461 42.308 63.8406 39.8526C63.915 37.8724 64.9996 35.9236 66.8167 34.507C68.817 32.9446 71.3725 32.2978 73.6532 32.7757C77.1788 33.5169 80.5699 37.0854 80.0004 41.2177Z" fill="#4AB69F"/>
<path d="M72.0908 54.467C72.1109 54.5214 72.1309 54.5758 72.148 54.6302C72.1309 54.5758 72.1137 54.5214 72.0908 54.467Z" fill="#4AB69F"/>
<path d="M72.644 59.6123L73.8888 59.8756L73.6685 60.9144L71.4678 61.398C71.4592 61.4009 71.4507 61.4037 71.4421 61.4066C71.279 61.5926 71.1073 61.7729 70.9241 61.9532C70.9155 62.0018 70.9069 62.0505 70.9069 62.102C70.9069 62.4397 71.1445 62.7287 71.4736 62.8002L73.182 63.1608L72.7127 65.3729L69.6192 64.7175L70.037 62.7401C69.4904 63.1865 68.9038 63.6043 68.3143 63.9735L68.1941 64.5344C68.0853 65.0524 67.576 65.3843 67.058 65.2727C66.8434 65.2269 66.6631 65.1096 66.5314 64.9551C66.0535 65.184 65.5957 65.3729 65.1836 65.5131C65.5098 66.0854 66.0679 66.5261 66.7632 66.6721C66.9292 66.7064 67.0952 66.7236 67.2583 66.7236C67.8965 66.7236 68.4974 66.466 68.9352 66.031L73.1161 66.9153C73.1648 66.9268 73.2163 66.9296 73.265 66.9296C73.5969 66.9296 73.8917 66.6978 73.9632 66.363L74.7273 62.7516C74.7731 62.5312 74.713 62.3166 74.5842 62.1535C74.7788 62.059 74.9247 61.8759 74.9705 61.6584L75.4341 59.4692C75.5171 59.0829 75.2681 58.7023 74.8818 58.6222L72.9645 58.2158C72.9588 58.6851 72.8472 59.1516 72.644 59.6123Z" fill="#4AB69F"/>
<path d="M56.091 67.3364C49.3317 67.3364 42.9416 65.4191 38.9152 63.2729C35.009 61.1924 32.7454 58.6999 32.7082 56.4335C32.6939 55.5321 32.7798 52.4729 34.5311 50.9734C36.7604 49.0618 40.5836 48.3779 43.2335 49.4138C51.9015 52.7992 60.9758 50.5184 65.8521 49.2907C66.5647 49.1105 67.1799 48.9559 67.7093 48.8415C69.2833 48.4952 70.8715 49.1992 71.667 50.59C73.6788 54.1098 73.5815 58.2106 73.344 60.3425C73.2209 61.4443 72.5742 62.4287 71.5211 63.1098C66.7679 66.1861 61.3192 67.3364 56.091 67.3364ZM40.4605 50.3582C38.6662 50.3582 36.726 50.9734 35.464 52.058C34.4481 52.9279 34.1162 54.9454 34.1419 56.4106C34.1705 58.1161 36.2081 60.2109 39.5906 62.0109C46.4299 65.6538 60.372 68.6328 70.7399 61.9079C71.1376 61.6503 71.8216 61.0837 71.9189 60.1823C72.1364 58.2249 72.2308 54.4646 70.4194 51.2968C69.9386 50.4526 68.9713 50.0262 68.0127 50.238C67.5062 50.3496 66.8995 50.5012 66.1984 50.6787C61.1676 51.9435 51.807 54.2987 42.7098 50.7445C42.0401 50.4812 41.2646 50.3582 40.4605 50.3582Z" fill="#021D30"/>
<path d="M68.6309 63.8509C68.4564 63.8509 68.2789 63.7879 68.1416 63.6563C67.9155 63.4445 62.6443 58.3851 64.327 51.1852C64.4157 50.8017 64.802 50.5613 65.1855 50.65C65.5689 50.7387 65.8093 51.125 65.7206 51.5085C64.2268 57.89 69.0716 62.566 69.1203 62.6118C69.4064 62.8837 69.4207 63.3358 69.1489 63.622C69.0115 63.7736 68.8198 63.8509 68.6309 63.8509Z" fill="#021D30"/>
<path d="M62.5726 50.5354C62.2922 50.5354 62.0289 50.3694 61.9145 50.0976L61.0187 47.9713C60.8642 47.6079 61.0359 47.1873 61.3993 47.0356C61.7628 46.8811 62.1834 47.0528 62.3351 47.4162L63.2308 49.5424C63.3854 49.9058 63.2136 50.3265 62.8502 50.4782C62.7586 50.5182 62.6671 50.5354 62.5726 50.5354Z" fill="#021D30"/>
<path d="M54.7665 72.622C52.8291 72.622 50.6543 72.3816 48.2447 71.7721C47.9357 71.6948 47.7182 71.423 47.7039 71.1053L47.5923 68.195C47.5837 67.9603 47.6896 67.7371 47.8784 67.594C48.0673 67.4538 48.3106 67.4137 48.5338 67.4881C48.5481 67.4939 50.1249 67.9918 50.9118 67.1276C51.178 66.8357 51.6301 66.8128 51.922 67.0789C52.2139 67.3451 52.2368 67.7972 51.9706 68.0891C51.1121 69.0334 49.9016 69.1222 49.0575 69.0392L49.1147 70.5072C58.1805 72.6163 63.6377 69.1393 64.8253 68.2637V66.8214C64.8253 66.4265 65.1458 66.106 65.5407 66.106C65.9356 66.106 66.2561 66.4265 66.2561 66.8214V68.6128C66.2561 68.8188 66.1674 69.0163 66.01 69.1536C65.804 69.3339 61.9235 72.622 54.7665 72.622Z" fill="#021D30"/>
<path d="M20.4312 54.9339C16.0414 54.9339 12.6933 54.393 10.4583 53.3171C9.29074 52.7562 8.65259 51.5571 8.83574 50.2637C9.02174 48.9616 9.97468 47.98 11.2624 47.7654C18.0017 46.6379 29.5771 42.1479 29.6945 42.1022C30.0636 41.9591 30.4786 42.1422 30.6216 42.5085C30.7647 42.8777 30.5816 43.2926 30.2153 43.4357C29.7345 43.6217 18.3851 48.023 11.5 49.1762C10.6958 49.3107 10.3295 49.9317 10.2523 50.4668C10.1779 50.9934 10.3553 51.683 11.0764 52.0293C13.4344 53.1625 17.2548 53.6462 22.4315 53.4687C22.4401 53.4687 22.4487 53.4687 22.4573 53.4687C22.8408 53.4687 23.1584 53.7721 23.1727 54.1584C23.187 54.5533 22.878 54.8853 22.4831 54.8967C21.7762 54.9225 21.0894 54.9339 20.4312 54.9339Z" fill="#021D30"/>
<path d="M51.6932 75.738C48.9031 75.738 45.8497 75.4661 42.5387 74.9253C33.6618 73.4687 26.1099 70.4811 26.0326 70.4525C25.8466 70.3781 25.6978 70.2293 25.6291 70.0404C23.4628 64.277 23.9236 57.9899 26.9655 51.8602C29.2463 47.2586 32.1337 44.397 32.2539 44.2768C32.5343 43.9992 32.9893 44.0049 33.2641 44.2854C33.5417 44.5658 33.5359 45.0208 33.2555 45.2984C33.1439 45.4071 22.2438 56.3473 26.8596 69.2391C29.9503 70.4096 56.3263 79.9389 66.9746 69.2992L66.9517 68.0773C66.9431 67.6824 67.2579 67.3562 67.6528 67.3476C67.6585 67.3476 67.6614 67.3476 67.6671 67.3476C68.0563 67.3476 68.3739 67.6595 68.3825 68.0487L68.4111 69.5711C68.414 69.76 68.3424 69.9431 68.2137 70.0805C64.6022 73.8436 59.0649 75.738 51.6932 75.738Z" fill="#021D30"/>
<path d="M38.3426 93.8095C37.7788 93.8095 37.2008 93.7923 36.6055 93.758C18.1392 92.6906 16.5881 81.2296 16.4651 78.9431C16.4422 78.5482 16.7455 78.2105 17.1404 78.1905C17.5382 78.1619 17.873 78.4709 17.8931 78.8659C18.0047 80.9406 19.4384 91.3342 36.6885 92.33C43.794 92.7392 49.566 90.6187 53.8442 86.02C57.055 82.5717 58.1854 78.9374 58.1968 78.9031C58.277 78.6369 58.5059 78.4423 58.7806 78.4023C62.0315 77.9387 64.7443 74.5047 64.773 74.4703C65.0162 74.1584 65.4655 74.104 65.7774 74.3473C66.0893 74.5905 66.1437 75.0398 65.9033 75.3517C65.7831 75.5062 63.0388 78.9889 59.4245 79.7444C59.021 80.8519 57.7332 83.931 54.9403 86.9501C51.9813 90.1408 46.753 93.8095 38.3426 93.8095Z" fill="#021D30"/>
<path d="M57.5514 89.8662C57.1593 89.8662 56.8388 89.5486 56.836 89.1565C56.8331 88.7616 57.1507 88.4383 57.5456 88.4354C61.7695 88.4097 64.8 87.1477 66.5542 84.6809C70.2515 79.4812 67.2524 70.5156 67.2238 70.4269C67.095 70.052 67.2954 69.6457 67.6702 69.5198C68.0451 69.391 68.4515 69.5913 68.5774 69.9662C68.6117 70.0635 69.4073 72.4129 69.7163 75.4863C70.1313 79.6243 69.4445 83.0898 67.7246 85.5079C65.69 88.3724 62.2703 89.8376 57.5571 89.8662C57.5542 89.8662 57.5542 89.8662 57.5514 89.8662Z" fill="#021D30"/>
<path d="M29.6808 82.1827C29.5177 82.1827 29.3517 82.1255 29.2172 82.011C25.5428 78.8775 25.0907 71.4715 25.0735 71.1567C25.0506 70.7618 25.3539 70.4241 25.7488 70.404C26.1437 70.3812 26.4814 70.6845 26.5043 71.0794C26.5072 71.1509 26.9393 78.1878 30.1472 80.9236C30.4477 81.1811 30.4849 81.6304 30.2274 81.9309C30.0843 82.0968 29.8811 82.1827 29.6808 82.1827Z" fill="#021D30"/>
<path d="M22.7725 80.0392C22.6065 80.0392 22.4406 80.0364 22.2774 80.0307C22.0457 80.0221 21.811 80.0163 21.5763 80.0078C19.1325 79.9334 16.3652 79.8504 16.3652 77.6755C16.3652 76.6796 17.5786 76.0987 20.8438 75.5378C22.1887 75.306 23.5566 75.2345 24.9159 75.3232C25.3108 75.349 25.6084 75.6895 25.5827 76.0844C25.5569 76.4793 25.2221 76.7741 24.8215 76.7512C23.5738 76.6711 22.3204 76.7369 21.0956 76.9458C18.8177 77.3378 18.0651 77.6698 17.8247 77.8214C18.088 78.4682 20.114 78.5311 21.6193 78.5741C21.8596 78.5826 22.0972 78.5884 22.3318 78.597C23.362 78.6342 24.4008 78.5397 25.4253 78.3079C25.8116 78.2192 26.1951 78.4625 26.2809 78.8488C26.3668 79.2351 26.1264 79.6186 25.7401 79.7044C24.7585 79.9276 23.7627 80.0392 22.7725 80.0392Z" fill="#021D30"/>
<path d="M15.029 76.3417C14.9403 76.3417 14.8487 76.3245 14.7629 76.2902C2.22588 71.2422 0.368653 58.8426 0.154028 53.7431C0.122549 53.0134 0.534629 52.358 1.20426 52.069C1.87389 51.78 2.63796 51.9316 3.14734 52.4553C11.9842 61.5211 22.1288 61.9962 22.229 62.0019C22.6239 62.0162 22.9329 62.3481 22.9186 62.743C22.9043 63.138 22.5638 63.4556 22.1803 63.4327C21.7425 63.4184 11.3804 62.9519 2.12286 53.4569C1.98836 53.3196 1.84528 53.3539 1.77087 53.3854C1.69933 53.4168 1.57628 53.497 1.58486 53.6859C1.78804 58.5049 3.53652 70.2292 15.3009 74.9652C15.6672 75.1141 15.8446 75.529 15.6986 75.8953C15.5784 76.17 15.3123 76.3417 15.029 76.3417Z" fill="#021D30"/>
<path d="M71.2179 17.526C71.0892 17.526 70.9604 17.4917 70.843 17.4202C70.5082 17.2113 70.4024 16.7706 70.6113 16.4357L73.1009 12.4065C73.3098 12.0717 73.7505 11.9658 74.0853 12.1747C74.4201 12.3836 74.526 12.8243 74.3171 13.1591L71.8275 17.1884C71.6901 17.4059 71.4554 17.526 71.2179 17.526Z" fill="#4AB69F"/>
<path d="M73.8484 21.3035C73.5823 21.3035 73.3247 21.1547 73.2017 20.8972C73.03 20.5394 73.1816 20.1131 73.5365 19.9442L79.5517 17.0625C79.9094 16.8908 80.3358 17.0425 80.5047 17.3973C80.6735 17.7522 80.5247 18.1814 80.1698 18.3503L74.1546 21.232C74.0573 21.2806 73.9514 21.3035 73.8484 21.3035Z" fill="#4AB69F"/>
<path d="M79.6376 26.9238C79.5746 26.9238 79.5117 26.9152 79.4459 26.898L73.6538 25.3041C73.2732 25.1982 73.05 24.8062 73.153 24.4256C73.2561 24.045 73.651 23.8189 74.0316 23.9248L79.8236 25.5187C80.2042 25.6246 80.4274 26.0167 80.3244 26.3973C80.2414 26.7178 79.9524 26.9238 79.6376 26.9238Z" fill="#4AB69F"/>
</svg>
