<svg xmlns="http://www.w3.org/2000/svg" width="134" height="134" fill="none" viewBox="0 0 134 134">
  <path fill="#fff" d="M46.901 20.754c.147.36.635.48 1.115.286.48-.196.745-.623.598-.983-.063-.154-.364-.111-.947.126s-.829.417-.766.571Zm6.709-2.652c.224.549 1.462.304 1.668-.319.098-.3.032-.313-.379-.145-.274.111-.689.22-.915.253-.251.022-.408.126-.373.212Zm-12.43 5.521-.458.347.556-.206c.29-.12.571-.313.588-.42.043-.237-.025-.21-.685.28ZM29.428 34.639c-.071.169-.038.495.06.734.097.24.301.497.47.568.169.07.495.038.735-.06.24-.097.496-.301.567-.47.07-.169.038-.495-.06-.735-.097-.24-.302-.496-.47-.567-.169-.071-.495-.038-.735.06-.24.097-.496.301-.567.47Zm6.682-2.72c-.07.168-.037.494.06.734.098.24.302.496.47.568.17.07.496.038.736-.06s.496-.302.567-.47c.071-.17.038-.495-.06-.735-.097-.24-.301-.497-.47-.568-.169-.07-.495-.038-.735.06s-.496.302-.567.47Zm6.681-2.721c-.07.17-.038.495.06.735s.302.496.47.567c.17.072.495.039.735-.06.24-.097.497-.3.568-.47.07-.168.038-.494-.06-.734-.097-.24-.302-.497-.47-.568-.17-.07-.495-.038-.735.06-.24.097-.496.302-.568.47Zm6.681-2.72c-.071.169-.038.495.06.735.097.24.301.496.47.567.168.071.495.038.734-.06.24-.097.497-.301.568-.47.07-.169.038-.495-.06-.735-.097-.24-.302-.496-.47-.567-.17-.071-.495-.038-.735.06-.24.097-.496.301-.567.47Zm6.68-2.72c-.071.169-.038.495.06.735.097.24.301.496.47.567.169.071.495.038.735-.06.24-.097.496-.301.567-.47.071-.169.038-.495-.06-.735-.097-.24-.301-.496-.47-.567-.169-.071-.495-.038-.735.06-.24.097-.496.301-.567.47Zm6.684-2.72c-.072.169-.039.495.059.735s.302.496.47.567c.17.071.495.038.735-.06.24-.097.496-.301.568-.47.07-.169.038-.495-.06-.735s-.302-.496-.47-.567c-.17-.071-.495-.038-.735.06-.24.097-.496.301-.567.47Zm6.68-2.72c-.072.169-.039.495.06.735.097.24.301.496.47.567.168.071.495.038.734-.06.24-.097.497-.301.568-.47.07-.169.038-.495-.06-.735-.097-.24-.302-.496-.47-.567-.17-.071-.495-.038-.735.06-.24.097-.496.301-.567.47Zm6.762-1.934c.216.531.718.686 1.256.387.616-.35.425-.573-.544-.697l-.88-.101.168.41ZM25.467 44.04c-.071.17-.038.495.06.735.097.24.301.496.47.567.169.071.495.038.735-.06.24-.097.496-.301.567-.47.071-.168.038-.495-.06-.734-.097-.24-.301-.497-.47-.568-.169-.07-.495-.038-.735.06-.24.097-.496.302-.567.47Zm6.681-2.72c-.07.169-.038.495.06.735s.302.496.47.567c.17.071.495.038.735-.06.24-.097.496-.301.568-.47.07-.169.038-.495-.06-.735s-.302-.496-.47-.567c-.17-.071-.495-.038-.735.06-.24.097-.497.301-.568.47Zm6.684-2.72c-.071.169-.038.495.06.735.097.24.301.496.47.567.169.071.495.038.735-.06.24-.097.496-.301.567-.47.071-.169.038-.495-.06-.735-.097-.24-.301-.496-.47-.567-.169-.071-.495-.038-.735.06-.24.097-.496.301-.567.47Zm6.68-2.72c-.07.168-.038.494.06.734.097.24.301.496.47.567.169.072.495.039.735-.059s.496-.302.567-.47c.071-.17.038-.495-.06-.735-.097-.24-.301-.497-.47-.568-.169-.07-.495-.038-.734.06-.24.098-.497.302-.568.47Zm6.68-2.72c-.07.168-.038.494.06.734.097.24.302.496.47.568.17.07.495.038.735-.06s.496-.302.568-.47c.07-.17.038-.495-.06-.735s-.302-.497-.47-.568c-.17-.07-.495-.038-.735.06-.24.097-.496.302-.568.47Zm6.681-2.72c-.072.168-.039.494.059.734s.302.496.47.567c.17.072.495.038.735-.06.24-.097.496-.301.568-.47.07-.168.038-.495-.06-.734-.098-.24-.302-.497-.47-.568-.17-.07-.495-.038-.735.06-.24.097-.496.302-.567.47Zm6.682-2.72c-.071.168-.039.494.06.734.097.24.301.496.47.567.169.072.495.039.735-.06.24-.097.496-.3.567-.47.07-.168.038-.494-.06-.734-.097-.24-.302-.497-.47-.568-.169-.07-.495-.038-.735.06-.24.097-.496.302-.567.47ZM72.236 25c-.07.168-.038.494.06.734.097.24.302.496.47.567.17.071.495.039.735-.06.24-.097.496-.301.567-.47.072-.169.039-.495-.059-.735s-.302-.496-.47-.567c-.17-.07-.496-.038-.735.06-.24.097-.497.302-.568.47Zm6.68-2.721c-.07.169-.038.495.06.735s.302.496.47.567c.17.071.495.038.735-.06.24-.097.496-.301.568-.47.07-.169.038-.495-.06-.735-.097-.24-.302-.496-.47-.567-.17-.071-.495-.038-.735.06-.24.097-.496.301-.567.47Zm6.684-2.721c-.071.17-.038.495.06.735.097.24.301.496.47.567.169.072.495.039.735-.059s.496-.302.567-.47c.071-.17.038-.495-.06-.735-.097-.24-.301-.497-.47-.568-.169-.07-.495-.038-.735.06s-.496.302-.567.47ZM19.988 47.31l-.348.86.445-.181c.531-.216.727-.715.44-1.177-.191-.322-.236-.284-.537.497Zm1.516 6.131c-.07.17-.038.495.06.735s.302.496.47.567c.17.072.495.039.735-.059s.496-.302.568-.47c.07-.17.038-.495-.06-.735s-.302-.496-.47-.568c-.17-.07-.495-.038-.735.06s-.496.302-.568.47Zm6.684-2.72c-.072.17-.039.495.059.735s.302.496.47.567c.17.071.495.038.735-.06.24-.097.496-.301.568-.47.07-.169.038-.495-.06-.734-.098-.24-.302-.497-.47-.568-.17-.07-.495-.038-.735.06-.24.097-.496.302-.567.47Zm6.68-2.72c-.071.17-.038.495.06.735.097.24.301.496.47.567.168.072.495.039.734-.06.24-.097.497-.301.568-.47.07-.168.038-.495-.06-.734-.097-.24-.302-.497-.47-.568-.17-.07-.495-.038-.735.06-.24.097-.496.302-.567.47Zm6.682-2.721c-.071.17-.038.496.06.736.097.24.301.496.47.567.169.071.495.038.735-.06.24-.097.496-.301.567-.47.071-.169.038-.495-.06-.735-.097-.24-.301-.496-.47-.567-.169-.071-.495-.038-.735.06-.24.097-.496.301-.567.47Zm6.681-2.72c-.07.17-.038.496.06.736s.302.496.47.567c.17.071.495.038.735-.06.24-.097.496-.301.567-.47.072-.169.039-.495-.059-.735s-.302-.496-.47-.567c-.17-.071-.495-.038-.735.06-.24.097-.496.301-.568.47Zm6.682-2.72c-.071.17-.038.496.06.735.097.24.301.497.47.568.169.071.495.038.735-.06.24-.097.496-.301.567-.47.071-.169.038-.495-.06-.735-.097-.24-.301-.496-.47-.567-.169-.071-.495-.038-.735.06-.24.097-.496.301-.567.47Zm6.682-2.72c-.07.17-.038.496.06.736.097.24.302.496.47.567.169.07.495.038.735-.06.24-.097.496-.302.567-.47.071-.17.038-.495-.06-.735-.097-.24-.301-.496-.47-.567-.169-.071-.495-.038-.734.06-.24.097-.497.301-.568.47Zm6.682-2.72c-.071.17-.038.495.06.735.097.24.301.496.47.567.169.072.495.039.735-.059s.496-.302.567-.47c.071-.17.038-.495-.06-.735-.097-.24-.301-.497-.47-.568-.169-.07-.495-.038-.735.06-.24.097-.496.302-.567.47Zm6.68-2.72c-.071.17-.038.495.06.735.097.24.301.496.47.567.169.071.495.038.735-.06.24-.097.496-.301.567-.47.071-.169.038-.495-.06-.734-.097-.24-.301-.497-.47-.568-.169-.07-.495-.038-.735.06-.24.097-.496.302-.567.47Zm6.68-2.72c-.07.17-.038.495.06.735.097.24.302.496.47.567.169.072.495.038.735-.06.24-.097.496-.301.567-.47.071-.168.038-.495-.06-.734-.097-.24-.301-.497-.47-.568-.168-.07-.495-.038-.734.06-.24.097-.497.302-.568.47Zm6.683-2.72c-.07.169-.037.495.06.735.098.24.302.496.47.567.17.071.496.038.736-.06.24-.097.496-.301.567-.47.071-.169.038-.495-.06-.735-.097-.24-.301-.496-.47-.567-.169-.071-.495-.038-.735.06-.24.097-.496.301-.567.47ZM95 23.52c-.072.169-.039.495.059.735s.302.496.47.567c.17.071.496.038.735-.06.24-.097.496-.301.568-.47.07-.169.038-.495-.06-.735s-.302-.496-.47-.567c-.17-.071-.495-.038-.735.06-.24.097-.496.301-.567.47ZM17.545 62.843c-.071.169-.038.495.06.735.097.24.301.496.47.567.169.071.495.038.735-.06.24-.097.496-.301.567-.47.071-.169.038-.495-.06-.735-.097-.24-.301-.496-.47-.567-.169-.071-.495-.038-.735.06-.24.097-.496.301-.567.47Zm6.683-2.72c-.071.169-.038.495.06.735.097.24.301.496.47.567.169.07.495.038.735-.06.24-.097.496-.302.567-.47.071-.169.038-.495-.06-.735-.097-.24-.301-.496-.47-.567-.169-.071-.495-.038-.735.06-.24.097-.496.301-.567.47Zm6.68-2.72c-.07.169-.038.495.06.734.097.24.302.497.47.568.169.07.495.038.735-.06.24-.097.496-.302.567-.47.071-.17.038-.495-.06-.735-.097-.24-.301-.496-.47-.567-.169-.071-.495-.038-.735.06-.24.097-.496.301-.567.47Zm6.681-2.72c-.071.169-.038.495.06.734.097.24.301.497.47.568.169.07.495.038.735-.06.24-.097.496-.302.567-.47.071-.17.038-.495-.06-.735-.097-.24-.301-.496-.47-.567-.169-.071-.495-.038-.735.06-.24.097-.496.301-.567.47Zm6.681-2.721c-.07.17-.038.495.06.735s.302.496.47.567c.17.071.495.038.735-.06.24-.097.497-.301.568-.47.07-.169.038-.495-.06-.735-.097-.24-.302-.496-.47-.567-.17-.07-.495-.038-.735.06-.24.097-.496.302-.568.47Zm6.682-2.72c-.07.169-.038.495.06.735.097.24.301.496.47.567.169.071.495.038.735-.06.24-.097.496-.301.567-.47.071-.169.038-.495-.06-.735-.097-.24-.301-.496-.47-.567-.169-.071-.495-.038-.734.06-.24.097-.497.301-.568.47Zm6.682-2.72c-.071.169-.038.495.06.735.097.24.301.496.47.567.169.071.495.038.735-.06.24-.097.496-.301.567-.47.071-.169.038-.495-.06-.734-.097-.24-.301-.497-.47-.568-.169-.07-.495-.038-.735.06-.24.097-.496.301-.567.47Zm6.68-2.72c-.07.169-.038.495.06.735s.302.496.47.567c.17.071.495.038.735-.06.24-.097.496-.301.568-.47.07-.168.038-.495-.06-.734-.098-.24-.302-.497-.47-.568-.17-.07-.495-.038-.735.06-.24.097-.496.301-.568.47Zm6.682-2.72c-.071.169-.038.495.06.735.097.24.301.496.47.567.169.071.495.038.735-.06.24-.097.496-.301.567-.47.071-.169.038-.495-.06-.735-.097-.24-.301-.496-.47-.567-.169-.071-.495-.038-.735.06-.24.097-.496.301-.567.47Zm6.682-2.72c-.071.169-.038.495.06.734.097.24.301.497.47.568.169.07.495.038.734-.06.24-.097.497-.302.568-.47.07-.17.038-.495-.06-.735-.097-.24-.302-.496-.47-.567-.169-.072-.495-.038-.735.06-.24.097-.496.301-.567.47Zm6.682-2.72c-.071.168-.038.495.06.734.097.24.301.497.47.568.169.07.495.038.735-.06.24-.097.496-.302.567-.47.071-.17.038-.495-.06-.735-.097-.24-.301-.496-.47-.567-.169-.071-.495-.038-.735.06-.24.097-.496.301-.567.47Zm6.681-2.721c-.07.169-.038.495.06.735s.302.496.47.567c.17.071.495.038.735-.06.24-.097.496-.301.568-.47.07-.168.038-.495-.06-.734-.097-.24-.302-.497-.47-.568-.17-.07-.495-.038-.735.06-.24.097-.496.301-.567.47Zm6.681-2.72c-.071.169-.038.495.06.735.097.24.301.496.47.567.169.071.495.038.735-.06.24-.097.496-.301.567-.47.07-.169.038-.495-.06-.735-.097-.24-.302-.496-.47-.567-.17-.071-.495-.038-.735.06-.24.097-.496.301-.567.47Zm6.822-1.78c.063.155.225.308.332.325.278.046.188-.177-.175-.429-.227-.167-.262-.153-.157.104Zm-84.28 41.103c-.07.169-.038.495.06.735.097.24.301.496.47.567.169.071.495.038.735-.06.24-.097.496-.301.567-.47.071-.169.038-.495-.06-.735-.097-.24-.301-.496-.47-.567-.169-.071-.495-.038-.735.06-.24.097-.496.302-.567.47Zm6.68-2.72c-.07.169-.038.495.06.735.097.24.302.496.47.567.17.071.495.038.735-.06.24-.097.496-.301.567-.47.072-.169.039-.495-.059-.734-.098-.24-.302-.497-.47-.568-.17-.07-.495-.038-.735.06-.24.097-.497.301-.568.47Zm6.682-2.72c-.071.169-.038.495.06.735.097.24.301.496.47.567.169.071.495.038.735-.06.24-.097.496-.301.567-.47.071-.169.038-.495-.06-.735-.097-.24-.301-.496-.47-.567-.169-.071-.495-.038-.735.06-.24.097-.496.301-.567.47Zm6.684-2.72c-.072.169-.039.495.059.735s.302.496.47.567c.17.071.495.038.735-.06.24-.097.497-.301.568-.47.07-.169.038-.495-.06-.735-.097-.24-.302-.496-.47-.567-.17-.071-.495-.038-.735.06-.24.097-.496.301-.567.47Zm6.68-2.72c-.071.169-.038.495.06.734.097.24.301.497.47.568.169.07.495.038.734-.06.24-.097.497-.302.568-.47.07-.17.038-.495-.06-.735-.097-.24-.301-.496-.47-.567-.169-.072-.495-.039-.735.06-.24.097-.496.301-.567.47Zm6.683-2.721c-.071.17-.038.495.06.735.097.24.301.496.47.567.169.072.495.039.735-.06.24-.097.496-.301.567-.47.071-.169.038-.495-.06-.734-.097-.24-.301-.497-.47-.568-.169-.07-.495-.038-.735.06-.24.097-.496.302-.567.47Zm6.68-2.72c-.07.169-.038.495.06.735s.302.496.47.567c.17.071.495.038.735-.06.24-.097.496-.301.568-.47.07-.169.038-.495-.06-.735-.097-.24-.302-.496-.47-.567-.17-.07-.495-.038-.735.06-.24.097-.496.302-.568.47Zm6.681-2.72c-.071.17-.038.495.06.735.097.24.301.496.47.567.169.071.495.039.735-.06.24-.097.496-.301.567-.47.07-.169.038-.495-.06-.735-.097-.24-.302-.496-.47-.567-.169-.07-.495-.038-.735.06-.24.097-.496.302-.567.47Zm6.681-2.72c-.07.169-.038.495.06.735.097.24.302.496.47.567.17.071.495.038.735-.06.24-.097.496-.301.567-.47.072-.169.039-.495-.059-.735s-.302-.496-.47-.567c-.17-.071-.496-.038-.735.06-.24.097-.497.301-.568.47Zm6.682-2.72c-.071.169-.038.495.06.735.097.24.301.496.47.567.169.07.495.038.735-.06.24-.097.496-.302.567-.47.071-.17.038-.495-.06-.735-.097-.24-.301-.496-.47-.567-.169-.071-.495-.038-.735.06-.24.097-.496.301-.567.47Zm6.681-2.72c-.072.169-.038.495.06.735.097.24.301.496.47.567.168.071.495.038.734-.06.24-.097.497-.301.568-.47.07-.169.038-.495-.06-.735-.097-.24-.302-.496-.47-.567-.17-.071-.495-.038-.735.06-.24.097-.496.301-.567.47Zm6.682-2.721c-.07.17-.037.495.06.735.098.24.302.496.47.567.17.071.496.038.735-.06.24-.097.497-.301.568-.47.07-.169.038-.495-.06-.735-.097-.24-.302-.496-.47-.567-.169-.07-.495-.038-.735.06-.24.097-.496.302-.567.47Zm6.682-2.72c-.071.17-.038.495.06.735.097.24.302.496.47.567.169.072.495.038.735-.06.24-.097.496-.301.567-.47.072-.169.039-.495-.059-.734-.098-.24-.302-.497-.471-.568-.168-.07-.494-.038-.734.06-.24.097-.497.302-.568.47Zm6.681-2.72c-.072.169-.039.495.059.735s.302.496.471.567c.168.071.494.038.734-.06.24-.097.497-.301.568-.47.071-.169.038-.495-.06-.734-.097-.24-.302-.497-.47-.568-.169-.07-.495-.038-.735.06-.24.097-.496.301-.567.47ZM15.163 72.64c.063.693.077.728.22.39.098-.2.058-.543-.067-.752-.174-.328-.212-.273-.153.362Zm1.142 6.286c-.071.168-.038.495.06.734.097.24.301.497.47.568.168.07.495.038.735-.06.24-.097.496-.302.567-.47.07-.17.038-.495-.06-.735-.097-.24-.302-.496-.47-.567-.169-.072-.495-.039-.735.06-.24.097-.496.3-.567.47Zm6.68-2.72c-.071.168-.038.495.06.734.097.24.301.497.47.568.169.07.495.038.735-.06.24-.097.496-.302.567-.47.071-.17.038-.495-.06-.735-.097-.24-.301-.496-.47-.567-.169-.072-.495-.038-.735.06-.24.097-.496.301-.567.47Zm6.68-2.72c-.071.168-.038.495.06.734.097.24.301.496.47.568.169.07.495.038.735-.06.24-.097.496-.302.567-.47.071-.17.038-.495-.06-.735-.097-.24-.301-.496-.47-.567-.169-.072-.495-.039-.735.059s-.496.302-.567.47Zm6.681-2.72c-.071.168-.038.494.06.734.097.24.301.496.47.567.169.072.495.039.735-.059s.496-.302.567-.47c.07-.17.038-.495-.06-.735-.097-.24-.302-.496-.47-.567-.169-.072-.495-.039-.735.059s-.496.302-.567.47Zm6.683-2.72c-.071.168-.038.494.06.734.097.24.301.496.47.568.169.07.495.038.735-.06.24-.097.496-.302.567-.47.071-.17.038-.495-.06-.735-.097-.24-.301-.496-.47-.567-.169-.072-.495-.039-.735.059s-.496.302-.567.47Zm6.681-2.721c-.07.169-.038.495.06.735s.302.496.47.567c.17.071.495.038.735-.06.24-.097.496-.301.567-.47.072-.169.039-.495-.059-.735s-.302-.496-.47-.567c-.17-.071-.495-.038-.735.06-.24.097-.496.301-.567.47Zm6.684-2.72c-.072.169-.039.495.059.735s.302.496.47.567c.17.071.495.038.735-.06.24-.097.496-.301.568-.47.07-.169.038-.495-.06-.735-.097-.24-.302-.496-.47-.567-.17-.071-.495-.038-.735.06-.24.097-.496.301-.567.47Zm6.68-2.72c-.07.168-.038.495.06.734.097.24.302.497.47.568.169.07.495.038.735-.06.24-.097.496-.302.567-.47.071-.17.038-.495-.06-.735-.097-.24-.301-.496-.47-.567-.169-.072-.495-.039-.735.06-.24.097-.496.3-.567.47Zm6.68-2.72c-.07.168-.038.495.06.734.098.24.302.497.47.568.17.07.495.038.735-.06.24-.097.496-.302.567-.47.072-.17.039-.495-.059-.735s-.302-.496-.47-.567c-.17-.072-.496-.039-.735.06-.24.097-.496.301-.568.47Zm6.681-2.72c-.072.168-.039.495.059.734.098.24.302.496.47.568.17.07.496.038.735-.06.24-.097.497-.302.568-.47.07-.17.038-.495-.06-.735-.097-.24-.302-.496-.47-.568-.17-.07-.495-.038-.735.06s-.496.302-.567.47Zm6.683-2.72c-.07.168-.038.494.06.734.097.24.302.496.47.568.169.07.495.038.735-.06.24-.097.496-.302.567-.47.071-.17.038-.495-.06-.735-.097-.24-.301-.496-.47-.567-.169-.072-.495-.039-.734.059-.24.098-.497.302-.568.47Zm6.68-2.72c-.07.168-.038.494.06.734.097.24.302.497.47.568.17.07.495.038.735-.06s.496-.302.567-.47c.072-.17.039-.495-.059-.735s-.302-.496-.47-.568c-.17-.07-.495-.038-.735.06s-.497.302-.568.47Zm6.682-2.721c-.071.169-.038.495.06.735.097.24.301.496.47.567.169.071.495.038.735-.06.24-.097.496-.301.567-.47.071-.169.038-.495-.06-.735-.097-.24-.301-.496-.47-.567-.169-.071-.495-.038-.735.06-.24.097-.496.301-.567.47Zm6.682-2.72c-.071.169-.039.495.059.734.098.24.302.497.471.568.168.07.495.038.734-.06.24-.097.497-.302.568-.47.071-.17.038-.495-.06-.735-.097-.24-.302-.496-.47-.567-.169-.071-.495-.038-.735.06-.24.097-.496.301-.567.47Zm6.68-2.72c-.071.168-.038.495.06.734.097.24.302.497.47.568.169.07.495.038.735-.06.24-.097.496-.302.567-.47.071-.17.039-.495-.059-.735s-.302-.496-.471-.567c-.168-.072-.495-.039-.734.059-.24.098-.497.302-.568.47ZM19.024 85.607c-.071.168-.038.495.06.734.097.24.301.497.47.568.169.07.495.038.735-.06.24-.097.496-.302.567-.47.071-.17.038-.495-.06-.735-.097-.24-.301-.496-.47-.567-.169-.072-.495-.038-.735.06-.24.097-.496.301-.567.47Zm6.682-2.72c-.072.168-.039.495.059.734.098.24.302.497.47.568.17.07.495.038.735-.06.24-.097.497-.302.568-.47.07-.17.038-.495-.06-.735s-.302-.496-.47-.567c-.17-.071-.495-.038-.735.06-.24.097-.496.301-.567.47Zm6.681-2.72c-.07.168-.038.495.06.734.097.24.301.497.47.568.169.07.495.038.735-.06.24-.097.496-.302.567-.47.071-.17.038-.495-.06-.735-.097-.24-.301-.496-.47-.567-.169-.072-.495-.039-.734.059-.24.098-.497.302-.568.47Zm6.683-2.72c-.072.169-.039.495.059.735.097.24.302.496.47.567.17.071.495.038.735-.06.24-.097.496-.301.567-.47.071-.169.039-.495-.059-.735s-.302-.496-.47-.567c-.17-.071-.495-.038-.735.06-.24.097-.497.301-.568.47Zm6.68-2.72c-.072.168-.039.494.059.734s.302.496.47.568c.17.07.495.038.735-.06.24-.097.496-.302.568-.47.07-.17.038-.495-.06-.735-.097-.24-.302-.496-.47-.567-.17-.072-.495-.039-.735.059s-.496.302-.568.47Zm6.681-2.72c-.07.168-.038.494.06.734.097.24.301.496.47.567.169.072.495.039.735-.059s.496-.302.567-.47c.071-.17.038-.495-.06-.735-.097-.24-.301-.496-.47-.568-.169-.07-.495-.038-.734.06-.24.097-.497.302-.568.47Zm6.679-2.721c-.07.169-.038.495.06.735.097.24.302.496.47.567.17.071.495.038.735-.06.24-.097.496-.301.567-.47.072-.169.039-.495-.059-.735s-.302-.496-.47-.567c-.17-.071-.495-.038-.735.06-.24.097-.496.301-.568.47Zm6.683-2.72c-.07.169-.038.495.06.735s.302.496.47.567c.17.071.495.038.735-.06.24-.097.496-.301.567-.47.072-.169.039-.495-.059-.735s-.302-.496-.47-.567c-.17-.071-.495-.038-.735.06-.24.097-.496.301-.568.47Zm6.682-2.72c-.071.169-.038.495.06.734.097.24.301.497.47.568.169.07.495.038.735-.06.24-.097.496-.302.567-.47.071-.17.038-.495-.06-.735-.097-.24-.301-.496-.47-.567-.169-.071-.495-.038-.735.06-.24.097-.496.301-.567.47Zm6.68-2.72c-.07.168-.038.495.06.734.097.24.302.496.47.568.17.07.495.038.735-.06s.496-.302.567-.47c.072-.17.038-.495-.06-.735-.097-.24-.301-.496-.47-.567-.168-.071-.495-.039-.734.059-.24.098-.497.302-.568.47Zm6.682-2.72c-.07.169-.038.495.06.735.097.24.302.496.47.567.17.071.495.038.735-.06.24-.097.496-.301.567-.47.072-.169.039-.495-.059-.735s-.302-.496-.47-.567c-.17-.071-.495-.038-.735.06-.24.097-.496.301-.568.47Zm6.681-2.72c-.072.168-.039.494.059.734s.302.496.47.568c.17.07.496.038.735-.06.24-.097.497-.302.568-.47.07-.17.038-.495-.06-.735-.097-.24-.302-.496-.47-.567-.17-.072-.495-.039-.735.059s-.496.302-.567.47Zm6.682-2.721c-.072.169-.039.495.059.735.097.24.302.496.47.567.169.071.495.038.735-.06.24-.097.496-.301.567-.47.071-.169.038-.495-.059-.735-.098-.24-.302-.496-.471-.567-.169-.07-.495-.038-.735.06-.24.097-.496.302-.567.47Zm6.679-2.72c-.071.169-.038.495.06.735s.302.496.47.567c.169.071.495.038.735-.06.24-.097.496-.301.567-.47.072-.169.039-.495-.059-.735s-.302-.496-.471-.567c-.168-.071-.494-.038-.734.06-.24.097-.497.301-.568.47Zm6.683-2.72c-.072.169-.039.495.059.735s.302.496.471.567c.168.071.494.038.734-.06.24-.097.497-.301.568-.47.071-.169.038-.495-.06-.735-.097-.24-.302-.496-.47-.567-.169-.071-.495-.038-.735.06-.24.097-.496.301-.567.47ZM21.743 92.288c-.07.17-.038.495.06.735.097.24.302.496.47.568.169.07.495.038.735-.06s.496-.302.567-.47c.071-.17.038-.496-.06-.735-.097-.24-.301-.496-.47-.568-.169-.07-.495-.038-.735.06-.24.097-.496.302-.567.47Zm6.682-2.719c-.071.168-.038.494.06.734.097.24.301.496.47.568.169.07.495.038.735-.06s.496-.302.567-.47c.071-.17.038-.495-.06-.735-.097-.24-.301-.496-.47-.568-.169-.07-.495-.038-.735.06-.24.097-.496.302-.567.47Zm6.682-2.721c-.071.17-.038.495.06.735.097.24.301.496.47.567.169.072.495.039.735-.059s.496-.302.567-.47c.071-.17.038-.495-.06-.735-.097-.24-.301-.497-.47-.568-.169-.07-.495-.038-.735.06-.24.097-.496.302-.567.47Zm6.682-2.72c-.072.169-.039.495.059.735s.302.496.47.567c.17.071.495.038.735-.06.24-.097.497-.301.568-.47.07-.169.038-.495-.06-.735-.097-.24-.302-.496-.47-.567-.17-.071-.495-.038-.735.06-.24.097-.496.301-.567.47Zm6.68-2.72c-.071.169-.038.495.06.735.097.24.301.496.47.567.169.071.495.038.734-.06.24-.097.497-.301.568-.47.07-.169.038-.495-.06-.735-.097-.24-.301-.496-.47-.567-.169-.071-.495-.038-.735.06-.24.097-.496.301-.567.47Zm6.681-2.72c-.07.168-.038.494.06.734.097.24.302.496.47.568.17.07.495.038.735-.06s.496-.302.568-.47c.07-.17.038-.495-.06-.735s-.302-.496-.47-.568c-.17-.07-.495-.038-.735.06s-.497.302-.568.47Zm6.681-2.72c-.071.168-.038.494.06.734.097.24.301.496.47.568.169.07.495.038.735-.06.24-.097.496-.302.567-.47.071-.17.038-.495-.06-.735-.097-.24-.301-.496-.47-.567-.169-.072-.495-.039-.735.059s-.496.302-.567.47Zm6.68-2.72c-.07.168-.038.494.06.734.097.24.302.496.47.567.17.072.495.039.735-.059s.496-.302.567-.47c.071-.17.038-.495-.06-.735-.097-.24-.301-.496-.47-.568-.169-.07-.495-.038-.734.06-.24.097-.497.302-.568.47Zm6.683-2.72c-.07.168-.038.494.06.734.097.24.302.496.47.567.17.072.495.039.735-.059s.496-.302.567-.47c.072-.17.039-.495-.059-.735s-.302-.496-.47-.568c-.17-.07-.496-.038-.735.06-.24.097-.497.302-.568.47Zm6.684-2.721c-.071.169-.038.495.06.735.097.24.301.496.47.567.169.071.495.038.735-.06.24-.097.496-.301.567-.47.071-.169.038-.495-.06-.735-.097-.24-.301-.496-.47-.567-.169-.071-.495-.038-.735.06-.24.097-.496.301-.567.47Zm6.68-2.72c-.071.169-.038.495.06.735.097.24.301.496.47.567.169.071.495.038.735-.06.24-.097.496-.301.567-.47.071-.169.038-.495-.06-.735-.097-.24-.301-.496-.47-.567-.169-.071-.495-.038-.735.06-.24.097-.496.301-.567.47Zm6.68-2.72c-.07.169-.038.495.06.735.097.24.302.496.47.567.17.071.495.038.735-.06.24-.097.496-.301.567-.47.072-.169.039-.495-.06-.735-.097-.24-.301-.496-.47-.567-.169-.071-.495-.038-.734.06-.24.097-.497.301-.568.47Zm6.682-2.72c-.071.168-.038.495.059.734.098.24.302.496.471.568.169.07.495.038.735-.06s.496-.302.567-.47c.071-.17.038-.495-.059-.735-.098-.24-.302-.496-.471-.567-.169-.072-.495-.039-.735.059s-.496.302-.567.47Zm6.682-2.721c-.071.17-.038.495.06.735.097.24.301.496.47.567.169.072.495.039.735-.059s.496-.302.567-.47c.071-.17.038-.495-.059-.735-.098-.24-.302-.496-.471-.567-.169-.072-.495-.039-.735.059-.239.098-.496.302-.567.47Zm6.682-2.72c-.071.169-.038.495.059.735.098.24.302.496.471.567.169.071.495.038.734-.06.24-.097.497-.301.568-.47.071-.169.038-.495-.06-.735-.097-.24-.302-.496-.47-.567-.169-.071-.495-.038-.735.06-.24.097-.496.302-.567.47ZM24.45 99.035c-.077.251.004.498.267.85.689.858 1.938.15 1.527-.86-.105-.258-.31-.514-.478-.585-.41-.173-1.184.182-1.315.595Zm6.694-2.785c-.071.169-.038.495.06.735.097.24.301.496.47.567.169.071.495.038.735-.06.24-.097.496-.301.567-.47.071-.169.038-.495-.06-.735-.097-.24-.301-.496-.47-.567-.169-.071-.495-.038-.735.06-.24.097-.496.301-.567.47Zm6.682-2.72c-.07.168-.038.494.06.734.097.24.301.496.47.568.169.07.495.038.735-.06s.496-.302.567-.47c.071-.17.038-.496-.06-.735-.097-.24-.301-.496-.47-.568-.169-.07-.495-.038-.734.06-.24.097-.497.302-.568.47Zm6.682-2.72c-.071.168-.038.494.06.734.097.24.301.496.47.568.169.07.495.038.735-.06s.496-.302.567-.47c.071-.17.038-.495-.06-.735-.097-.24-.301-.496-.47-.568-.169-.07-.495-.038-.735.06-.24.097-.496.302-.567.47Zm6.682-2.72c-.072.168-.039.494.059.734s.302.496.47.567c.17.072.495.039.735-.06.24-.097.496-.3.568-.47.07-.168.038-.495-.06-.734-.098-.24-.302-.497-.47-.568-.17-.07-.495-.038-.735.06-.24.097-.496.302-.567.47Zm6.682-2.72c-.072.168-.039.494.059.734s.302.496.47.567c.17.072.495.039.735-.059s.497-.302.568-.47c.07-.17.038-.495-.06-.735-.097-.24-.302-.497-.47-.568-.17-.07-.495-.038-.735.06-.24.097-.496.302-.567.47Zm6.68-2.72c-.071.168-.038.494.06.734.097.24.301.496.47.567.169.071.495.039.735-.06.24-.097.496-.301.567-.47.07-.169.038-.495-.06-.735-.097-.24-.302-.496-.47-.567-.169-.07-.495-.038-.735.06-.24.097-.496.302-.567.47Zm6.683-2.721c-.071.169-.038.495.06.735.097.24.301.496.47.567.169.071.495.038.735-.06.24-.097.496-.301.567-.47.071-.169.038-.495-.06-.735-.097-.24-.301-.496-.47-.567-.169-.071-.495-.038-.735.06-.24.097-.496.301-.567.47Zm6.68-2.72c-.071.169-.038.495.06.735.097.24.301.496.47.567.169.071.495.038.735-.06.24-.097.496-.301.567-.47.071-.169.038-.495-.06-.735-.097-.24-.301-.496-.47-.567-.169-.071-.495-.038-.735.06-.24.097-.496.301-.567.47Zm6.681-2.721c-.071.17-.038.495.06.735.097.24.301.496.47.567.168.072.495.039.734-.059.24-.098.497-.302.568-.47.07-.17.038-.495-.06-.735-.097-.24-.301-.496-.47-.568-.169-.07-.495-.038-.735.06-.24.097-.496.302-.567.47Zm6.68-2.719c-.071.168-.038.494.06.734.097.24.301.496.47.567.169.072.495.039.735-.059s.496-.302.567-.47c.071-.17.038-.495-.06-.735-.097-.24-.301-.496-.47-.568-.169-.07-.495-.038-.735.06-.24.097-.496.302-.567.47Zm6.683-2.721c-.071.17-.038.495.06.735.097.24.301.496.47.567.169.072.495.039.735-.06.24-.097.496-.301.567-.47.071-.168.038-.495-.06-.734-.097-.24-.301-.497-.47-.568-.169-.07-.495-.038-.735.06-.24.097-.496.302-.567.47Zm6.682-2.72c-.071.169-.039.495.059.735s.302.496.471.567c.168.071.495.038.734-.06.24-.097.497-.301.568-.47.071-.169.038-.495-.06-.735-.097-.24-.302-.496-.47-.567-.169-.071-.495-.038-.735.06-.24.097-.496.301-.567.47Zm6.682-2.72c-.071.169-.038.495.059.735.098.24.302.496.471.567.169.071.495.038.735-.06.239-.097.496-.301.567-.47.071-.169.038-.495-.06-.735-.097-.24-.301-.496-.47-.567-.169-.071-.495-.038-.735.06-.24.097-.496.301-.567.47Zm6.68-2.72c-.071.169-.038.495.059.735.098.24.302.496.471.567.169.071.495.038.735-.06.24-.097.496-.301.567-.47.071-.169.038-.495-.059-.735-.098-.24-.302-.496-.471-.567-.169-.071-.495-.038-.735.06-.24.097-.496.301-.567.47Zm-84.136 42.043c-.071.169-.038.495.06.735.23.565.64.738 1.205.507.565-.23.738-.639.507-1.205-.23-.565-.64-.738-1.205-.508-.24.098-.496.302-.567.471Zm6.68-2.72c-.071.169-.038.495.06.735.23.565.64.738 1.205.507.565-.23.738-.64.508-1.205-.23-.565-.64-.738-1.206-.508-.24.098-.496.302-.567.471Zm6.68-2.721c-.071.17-.038.496.06.736.23.565.64.738 1.205.507.565-.23.738-.64.508-1.205-.23-.565-.64-.738-1.206-.508-.24.098-.496.302-.567.47Zm6.68-2.72c-.07.17-.038.495.06.735.23.566.64.738 1.205.508.565-.23.738-.64.508-1.205-.23-.566-.64-.738-1.206-.508-.24.097-.496.302-.567.47Zm6.683-2.72c-.07.17-.037.496.06.736.23.565.64.737 1.206.507.565-.23.738-.64.507-1.205-.23-.565-.64-.738-1.205-.508-.24.098-.496.302-.567.47Zm6.682-2.72c-.07.17-.038.495.06.735.23.565.64.738 1.205.508.566-.23.738-.64.508-1.205-.23-.566-.64-.738-1.205-.508-.24.097-.496.302-.568.47Zm6.682-2.72c-.071.17-.038.495.06.735.23.565.64.738 1.205.508.565-.23.738-.64.508-1.205-.23-.566-.64-.738-1.206-.508-.24.097-.496.302-.567.47Zm6.682-2.72c-.07.169-.038.495.06.735.23.565.64.738 1.205.507.565-.23.738-.64.508-1.205-.23-.565-.64-.738-1.206-.508-.24.098-.496.302-.567.47Zm6.68-2.72c-.07.169-.038.495.06.734.23.566.64.739 1.205.508.566-.23.738-.64.508-1.205-.23-.565-.64-.738-1.205-.508-.24.098-.496.302-.568.47Zm6.681-2.72c-.072.169-.039.495.059.735.23.565.64.738 1.205.507.566-.23.738-.64.508-1.205-.23-.565-.64-.738-1.205-.508-.24.098-.496.302-.567.47Zm6.681-2.72c-.071.168-.038.494.06.734.23.565.64.738 1.205.508.565-.23.738-.64.508-1.205-.23-.566-.64-.738-1.205-.508-.24.097-.497.302-.568.47Zm6.682-2.72c-.071.168-.038.494.06.734.23.566.64.738 1.205.508.565-.23.738-.64.508-1.205-.23-.566-.64-.738-1.205-.508-.24.097-.497.302-.568.47Zm6.681-2.72c-.072.168-.039.494.059.734.23.565.64.738 1.205.508.566-.23.738-.64.508-1.205-.23-.566-.64-.738-1.205-.508-.24.097-.496.302-.567.47Zm6.683-2.721c-.071.169-.039.495.059.735.23.565.64.738 1.205.507.566-.23.738-.64.508-1.205-.23-.565-.64-.738-1.205-.508-.24.098-.496.302-.567.471Zm-84.138 42.043c-.071.169-.038.495.06.735.23.565.64.738 1.205.508.565-.23.738-.64.508-1.205-.23-.566-.64-.738-1.206-.508-.24.097-.496.302-.567.47Zm6.682-2.72c-.072.169-.039.495.059.735.23.565.64.738 1.205.508.566-.23.738-.64.508-1.206-.23-.565-.64-.738-1.205-.507-.24.097-.496.301-.567.47Zm6.68-2.72c-.071.169-.038.495.06.735.23.565.64.738 1.204.508.566-.23.738-.64.508-1.206-.23-.565-.64-.738-1.205-.507-.24.097-.496.302-.567.47Zm6.68-2.72c-.07.169-.038.495.06.735.23.565.64.738 1.205.507.566-.23.738-.64.508-1.205-.23-.565-.64-.738-1.205-.508-.24.098-.496.302-.568.471Zm6.684-2.72c-.072.169-.039.495.059.734.23.566.64.739 1.205.508.566-.23.738-.64.508-1.205-.23-.565-.64-.738-1.205-.508-.24.098-.496.302-.567.47Zm6.68-2.721c-.071.17-.038.495.06.735.23.565.64.738 1.204.508.566-.23.739-.64.508-1.205-.23-.566-.64-.738-1.205-.508-.24.097-.496.302-.567.47Zm6.681-2.72c-.07.17-.038.495.06.735.23.566.64.738 1.205.508.566-.23.738-.64.508-1.205-.23-.566-.64-.738-1.205-.508-.24.097-.497.302-.568.47Zm6.684-2.72c-.071.17-.038.495.06.735.23.565.64.738 1.205.508.565-.23.738-.64.508-1.205-.23-.566-.64-.738-1.206-.508-.24.097-.496.302-.567.47Zm6.68-2.72c-.071.17-.038.495.06.735.23.565.64.738 1.205.508.565-.23.738-.64.508-1.205-.23-.566-.64-.738-1.206-.508-.24.097-.496.302-.567.47Zm6.682-2.721c-.071.17-.038.496.06.736.23.565.64.738 1.205.507.565-.23.738-.64.507-1.205-.23-.565-.64-.738-1.205-.508-.24.098-.496.302-.567.47Zm6.678-2.72c-.071.17-.038.496.06.736.23.565.64.737 1.205.507.566-.23.738-.64.508-1.205-.23-.565-.64-.738-1.205-.508-.24.098-.496.302-.568.47Zm6.684-2.72c-.071.17-.038.495.06.735.23.566.639.738 1.205.508.565-.23.738-.64.508-1.205-.23-.566-.64-.738-1.206-.508-.239.097-.496.302-.567.47Zm6.68-2.72c-.071.17-.038.495.06.735.23.565.64.738 1.205.508.565-.23.738-.64.508-1.205-.23-.566-.64-.738-1.205-.508-.24.097-.497.302-.568.47Zm-70.774 36.604c-.071.169-.038.495.06.734.23.566.64.738 1.205.508.565-.23.738-.64.507-1.205-.23-.565-.64-.738-1.205-.508-.24.098-.496.302-.567.471Zm6.682-2.72c-.072.168-.039.495.059.734.23.566.64.738 1.205.508.566-.23.738-.64.508-1.205-.23-.565-.64-.738-1.205-.508-.24.098-.496.302-.567.471Zm6.683-2.721c-.071.169-.038.495.06.735.23.565.64.738 1.205.508.565-.23.738-.64.508-1.206-.23-.565-.64-.738-1.206-.507-.24.097-.496.301-.567.47Zm6.68-2.72c-.07.169-.038.495.06.735.23.565.64.738 1.205.507.565-.23.738-.64.508-1.205-.23-.565-.64-.738-1.206-.508-.24.098-.496.302-.567.471Zm6.68-2.72c-.07.169-.038.495.06.734.23.566.64.738 1.205.508.566-.23.738-.64.508-1.205-.23-.565-.64-.738-1.205-.508-.24.098-.496.302-.568.471Zm6.681-2.72c-.072.169-.039.495.059.735.23.565.64.738 1.205.507.566-.23.738-.64.508-1.205-.23-.565-.64-.738-1.205-.508-.24.098-.496.302-.567.47Zm6.683-2.72c-.07.168-.038.495.06.734.23.566.64.738 1.205.508.565-.23.738-.64.508-1.205-.23-.565-.64-.738-1.206-.508-.24.098-.496.302-.567.47Zm6.68-2.721c-.07.17-.038.495.06.735.23.565.64.738 1.205.508.566-.23.738-.64.508-1.205-.23-.566-.64-.738-1.205-.508-.24.097-.496.302-.568.47Zm6.68-2.72c-.07.169-.038.495.06.735.23.565.64.738 1.205.508.566-.23.738-.64.508-1.206-.23-.565-.64-.737-1.205-.507-.24.097-.496.302-.568.47Zm6.684-2.72c-.071.17-.038.495.06.735.23.565.64.738 1.205.508.565-.23.738-.64.508-1.206-.23-.565-.64-.738-1.206-.507-.239.097-.496.302-.567.47Zm6.682-2.72c-.071.169-.038.495.059.735.23.565.64.738 1.206.507.565-.23.738-.64.507-1.205-.23-.565-.64-.738-1.205-.508-.24.098-.496.302-.567.47Zm6.68-2.72c-.173.41.183 1.184.62 1.325.316.091.391-.02.651-.804.216-.647.221-.929.031-1.051-.327-.166-1.139.144-1.302.53Zm-64.094 33.883c-.07.168-.038.495.06.734.23.566.64.738 1.205.508.565-.23.738-.64.508-1.205-.098-.24-.302-.496-.47-.567-.362-.153-1.15.168-1.303.53Zm6.683-2.72c-.07.168-.038.495.06.734.23.566.64.738 1.205.508.565-.23.738-.64.508-1.205-.098-.24-.302-.496-.47-.567-.362-.153-1.15.168-1.303.53Zm6.682-2.72c-.071.168-.038.494.06.734.23.566.64.738 1.205.508.565-.23.738-.64.508-1.205-.098-.24-.302-.496-.471-.567-.362-.153-1.15.168-1.302.53Zm6.68-2.721c-.071.169-.038.495.06.735.23.565.64.738 1.205.508.565-.23.738-.64.508-1.206-.098-.239-.302-.496-.47-.567-.362-.152-1.15.169-1.303.53Zm6.681-2.72c-.071.169-.038.495.06.735.23.565.64.738 1.205.508.565-.23.738-.64.507-1.206-.097-.239-.301-.496-.47-.567-.362-.152-1.15.169-1.302.53Zm6.68-2.72c-.071.169-.038.495.06.735.23.565.64.738 1.205.508.565-.231.738-.64.508-1.206-.098-.24-.302-.496-.471-.567-.362-.152-1.15.169-1.302.53Zm6.682-2.72c-.072.169-.039.495.06.734.23.566.639.738 1.204.508.566-.23.738-.64.508-1.205-.097-.24-.302-.496-.47-.567-.362-.153-1.15.168-1.302.53Zm6.681-2.72c-.071.168-.038.495.06.734.23.566.64.738 1.205.508.565-.23.738-.64.508-1.205-.098-.24-.302-.496-.471-.567-.361-.153-1.149.168-1.302.53Zm6.682-2.72c-.071.168-.038.495.06.734.23.566.64.738 1.205.508.565-.23.738-.64.508-1.205-.098-.24-.302-.496-.471-.567-.361-.153-1.149.168-1.302.53Zm6.681-2.721c-.163.386.182 1.184.547 1.295.203.057.401-.143.713-.75.38-.733.407-.864.121-1.027-.407-.214-1.209.072-1.381.482Zm-50.73 28.443c-.071.169-.08.392-.031.512.104.257 1.71.422 1.876.194.177-.251-.206-1.094-.543-1.236-.362-.153-1.15.168-1.302.53Zm6.682-2.72c-.07.168-.038.495.06.734.23.566.64.738 1.205.508.565-.23.738-.64.508-1.205-.098-.24-.302-.496-.47-.567-.362-.153-1.15.168-1.303.53Zm6.681-2.72c-.071.168-.038.495.06.734.23.566.64.738 1.205.508.565-.23.738-.64.507-1.205-.097-.24-.301-.496-.47-.567-.362-.153-1.15.168-1.302.53Zm6.683-2.72c-.071.168-.038.494.06.734.23.566.64.738 1.205.508.565-.23.738-.64.508-1.205-.098-.24-.302-.496-.471-.567-.362-.153-1.15.168-1.302.53Zm6.679-2.72c-.071.168-.038.494.06.734.23.566.64.738 1.204.508.566-.23.738-.64.508-1.205-.097-.24-.302-.496-.47-.568-.362-.152-1.15.169-1.302.531Zm6.681-2.721c-.07.169-.038.495.06.735.23.565.64.738 1.205.508.565-.23.738-.64.508-1.206-.098-.239-.302-.496-.47-.567-.362-.152-1.15.169-1.303.53Zm6.682-2.72c-.071.168-.038.495.06.734.23.566.64.738 1.205.508.566-.23.738-.64.508-1.205-.098-.24-.302-.496-.471-.567-.361-.153-1.149.168-1.302.53Z"/>
</svg>
