<svg width="252" height="251" viewBox="0 0 252 251" fill="none" xmlns="http://www.w3.org/2000/svg">
<path d="M93.4169 31.991C93.651 32.7085 94.581 33.0099 95.5376 32.6978C96.4943 32.3857 97.0676 31.5938 96.8335 30.8763C96.7332 30.5688 96.1419 30.6105 94.9803 30.9895C93.8187 31.3685 93.3166 31.6835 93.4169 31.991Z" fill="#232323"/>
<path d="M106.784 27.7797C107.141 28.873 109.575 28.5704 110.06 27.3915C110.291 26.8248 110.166 26.7899 109.346 27.0574C108.8 27.2357 107.98 27.3896 107.537 27.4209C107.048 27.4291 106.729 27.6089 106.784 27.7797Z" fill="#232323"/>
<path d="M81.9325 36.7596L80.9967 37.3673L82.1011 37.0448C82.6819 36.8553 83.2523 36.518 83.2991 36.3137C83.4157 35.8599 83.279 35.9045 81.9325 36.7596Z" fill="#232323"/>
<path d="M57.6307 56.4812C57.4696 56.7984 57.4883 57.435 57.6443 57.9133C57.8004 58.3916 58.1607 58.9167 58.4779 59.0778C58.7951 59.239 59.4316 59.2203 59.91 59.0642C60.3883 58.9082 60.9134 58.5479 61.0745 58.2307C61.2356 57.9135 61.217 57.2769 61.0609 56.7986C60.9049 56.3203 60.5445 55.7952 60.2274 55.6341C59.9102 55.4729 59.2736 55.4916 58.7953 55.6477C58.317 55.8037 57.7919 56.164 57.6307 56.4812Z" fill="#232323"/>
<path d="M70.9613 52.1341C70.8002 52.4512 70.8188 53.0878 70.9749 53.5661C71.1309 54.0444 71.4913 54.5695 71.8085 54.7307C72.1256 54.8918 72.7622 54.8731 73.2405 54.7171C73.7188 54.561 74.2439 54.2007 74.4051 53.8835C74.5662 53.5663 74.5475 52.9298 74.3915 52.4515C74.2354 51.9731 73.8751 51.448 73.5579 51.2869C73.2407 51.1258 72.6042 51.1444 72.1259 51.3005C71.6475 51.4565 71.1224 51.8169 70.9613 52.1341Z" fill="#232323"/>
<path d="M84.2841 47.787C84.1229 48.1042 84.1416 48.7407 84.2976 49.2191C84.4537 49.6974 84.814 50.2225 85.1312 50.3836C85.4484 50.5448 86.085 50.5261 86.5633 50.37C87.0416 50.214 87.5667 49.8537 87.7278 49.5365C87.889 49.2193 87.8703 48.5827 87.7142 48.1044C87.5582 47.6261 87.1979 47.101 86.8807 46.9399C86.5635 46.7787 85.9269 46.7974 85.4486 46.9534C84.9703 47.1095 84.4452 47.4698 84.2841 47.787Z" fill="#232323"/>
<path d="M97.6068 43.439C97.4457 43.7562 97.4643 44.3927 97.6204 44.8711C97.7765 45.3494 98.1368 45.8745 98.454 46.0356C98.7712 46.1967 99.4077 46.1781 99.886 46.022C100.364 45.866 100.889 45.5056 101.051 45.1884C101.212 44.8713 101.193 44.2347 101.037 43.7564C100.881 43.2781 100.521 42.753 100.203 42.5918C99.8862 42.4307 99.2497 42.4494 98.7714 42.6054C98.293 42.7615 97.768 43.1218 97.6068 43.439Z" fill="#232323"/>
<path d="M110.926 39.0919C110.765 39.4091 110.783 40.0457 110.939 40.524C111.095 41.0023 111.456 41.5274 111.773 41.6885C112.09 41.8497 112.727 41.831 113.205 41.675C113.683 41.5189 114.208 41.1586 114.369 40.8414C114.531 40.5242 114.512 39.8877 114.356 39.4093C114.2 38.931 113.839 38.4059 113.522 38.2448C113.205 38.0837 112.569 38.1023 112.09 38.2584C111.612 38.4144 111.087 38.7748 110.926 39.0919Z" fill="#232323"/>
<path d="M124.256 34.7449C124.095 35.0621 124.114 35.6986 124.27 36.177C124.426 36.6553 124.786 37.1804 125.104 37.3415C125.421 37.5026 126.057 37.484 126.536 37.3279C127.014 37.1719 127.539 36.8115 127.7 36.4944C127.861 36.1772 127.843 35.5406 127.687 35.0623C127.531 34.584 127.17 34.0589 126.853 33.8977C126.536 33.7366 125.899 33.7553 125.421 33.9113C124.943 34.0674 124.418 34.4277 124.256 34.7449Z" fill="#232323"/>
<path d="M137.579 30.3978C137.418 30.715 137.437 31.3516 137.593 31.8299C137.749 32.3082 138.109 32.8333 138.426 32.9945C138.744 33.1556 139.38 33.1369 139.858 32.9809C140.337 32.8248 140.862 32.4645 141.023 32.1473C141.184 31.8301 141.165 31.1936 141.009 30.7152C140.853 30.2369 140.493 29.7118 140.176 29.5507C139.859 29.3896 139.222 29.4082 138.744 29.5643C138.265 29.7203 137.74 30.0807 137.579 30.3978Z" fill="#232323"/>
<path d="M150.953 27.5855C151.299 28.6446 152.251 29.0144 153.334 28.5099C154.576 27.9155 154.238 27.4587 152.377 27.0832L150.686 26.7655L150.953 27.5855Z" fill="#232323"/>
<path d="M48.6525 74.1531C48.4913 74.4703 48.51 75.1068 48.6661 75.5852C48.8221 76.0635 49.1824 76.5886 49.4996 76.7497C49.8168 76.9108 50.4534 76.8922 50.9317 76.7361C51.41 76.5801 51.9351 76.2197 52.0962 75.9026C52.2574 75.5854 52.2387 74.9488 52.0826 74.4705C51.9266 73.9922 51.5663 73.4671 51.2491 73.3059C50.9319 73.1448 50.2953 73.1635 49.817 73.3195C49.3387 73.4756 48.8136 73.8359 48.6525 74.1531Z" fill="#232323"/>
<path d="M61.9791 69.8057C61.818 70.1229 61.8367 70.7594 61.9927 71.2377C62.1488 71.7161 62.5091 72.2412 62.8263 72.4023C63.1435 72.5634 63.78 72.5448 64.2583 72.3887C64.7367 72.2327 65.2618 71.8723 65.4229 71.5551C65.584 71.238 65.5654 70.6014 65.4093 70.1231C65.2533 69.6448 64.8929 69.1197 64.5757 68.9585C64.2586 68.7974 63.622 68.8161 63.1437 68.9721C62.6654 69.1282 62.1403 69.4885 61.9791 69.8057Z" fill="#232323"/>
<path d="M75.306 65.459C75.1449 65.7762 75.1636 66.4127 75.3196 66.8911C75.4757 67.3694 75.836 67.8945 76.1532 68.0556C76.4704 68.2167 77.1069 68.1981 77.5852 68.042C78.0636 67.886 78.5887 67.5257 78.7498 67.2085C78.9109 66.8913 78.8923 66.2547 78.7362 65.7764C78.5802 65.2981 78.2198 64.773 77.9026 64.6119C77.5855 64.4507 76.9489 64.4694 76.4706 64.6254C75.9923 64.7815 75.4672 65.1418 75.306 65.459Z" fill="#232323"/>
<path d="M88.6288 61.111C88.4677 61.4282 88.4863 62.0647 88.6424 62.543C88.7984 63.0214 89.1587 63.5465 89.4759 63.7076C89.7931 63.8687 90.4297 63.8501 90.908 63.694C91.3863 63.538 91.9114 63.1776 92.0725 62.8604C92.2337 62.5433 92.215 61.9067 92.059 61.4284C91.9029 60.9501 91.5426 60.425 91.2254 60.2638C90.9082 60.1027 90.2717 60.1214 89.7933 60.2774C89.315 60.4335 88.7899 60.7938 88.6288 61.111Z" fill="#232323"/>
<path d="M101.956 56.7639C101.795 57.0811 101.813 57.7177 101.969 58.196C102.125 58.6743 102.486 59.1994 102.803 59.3605C103.12 59.5217 103.757 59.503 104.235 59.347C104.713 59.1909 105.238 58.8306 105.399 58.5134C105.561 58.1962 105.542 57.5597 105.386 57.0813C105.23 56.603 104.869 56.0779 104.552 55.9168C104.235 55.7557 103.599 55.7743 103.12 55.9304C102.642 56.0864 102.117 56.4467 101.956 56.7639Z" fill="#232323"/>
<path d="M115.278 52.4168C115.117 52.734 115.136 53.3705 115.292 53.8488C115.448 54.3272 115.808 54.8522 116.126 55.0134C116.443 55.1745 117.079 55.1558 117.558 54.9998C118.036 54.8437 118.561 54.4834 118.722 54.1662C118.883 53.849 118.865 53.2125 118.709 52.7342C118.553 52.2558 118.192 51.7308 117.875 51.5696C117.558 51.4085 116.921 51.4272 116.443 51.5832C115.965 51.7393 115.44 52.0996 115.278 52.4168Z" fill="#232323"/>
<path d="M128.609 48.0703C128.448 48.3875 128.467 49.0241 128.623 49.5024C128.779 49.9807 129.139 50.5058 129.456 50.6669C129.774 50.8281 130.41 50.8094 130.888 50.6534C131.367 50.4973 131.892 50.137 132.053 49.8198C132.214 49.5026 132.195 48.8661 132.039 48.3877C131.883 47.9094 131.523 47.3843 131.206 47.2232C130.889 47.0621 130.252 47.0807 129.774 47.2368C129.295 47.3928 128.77 47.7531 128.609 48.0703Z" fill="#232323"/>
<path d="M141.924 43.7226C141.763 44.0397 141.781 44.6763 141.938 45.1546C142.094 45.6329 142.454 46.158 142.771 46.3192C143.088 46.4803 143.725 46.4616 144.203 46.3056C144.681 46.1495 145.207 45.7892 145.368 45.472C145.529 45.1548 145.51 44.5183 145.354 44.04C145.198 43.5616 144.838 43.0365 144.521 42.8754C144.203 42.7143 143.567 42.7329 143.089 42.889C142.61 43.045 142.085 43.4054 141.924 43.7226Z" fill="#232323"/>
<path d="M155.251 39.3753C155.09 39.6925 155.108 40.329 155.264 40.8073C155.42 41.2857 155.781 41.8107 156.098 41.9719C156.415 42.133 157.052 42.1143 157.53 41.9583C158.008 41.8022 158.533 41.4419 158.695 41.1247C158.856 40.8075 158.837 40.171 158.681 39.6927C158.525 39.2143 158.165 38.6893 157.847 38.5281C157.53 38.367 156.894 38.3856 156.415 38.5417C155.937 38.6978 155.412 39.0581 155.251 39.3753Z" fill="#232323"/>
<path d="M168.574 35.0277C168.412 35.3449 168.431 35.9815 168.587 36.4598C168.743 36.9381 169.104 37.4632 169.421 37.6243C169.738 37.7855 170.375 37.7668 170.853 37.6108C171.331 37.4547 171.856 37.0944 172.017 36.7772C172.179 36.46 172.16 35.8235 172.004 35.3451C171.848 34.8668 171.487 34.3417 171.17 34.1806C170.853 34.0194 170.216 34.0381 169.738 34.1942C169.26 34.3502 168.735 34.7105 168.574 35.0277Z" fill="#232323"/>
<path d="M37.5855 79.7308L36.791 81.351L37.6793 81.0611C38.7385 80.7156 39.1877 79.7752 38.6936 78.8401C38.3682 78.1902 38.2768 78.2578 37.5855 79.7308Z" fill="#232323"/>
<path d="M39.6742 91.824C39.5131 92.1412 39.5317 92.7777 39.6878 93.2561C39.8438 93.7344 40.2042 94.2595 40.5213 94.4206C40.8385 94.5817 41.4751 94.5631 41.9534 94.407C42.4317 94.251 42.9568 93.8906 43.118 93.5735C43.2791 93.2563 43.2604 92.6197 43.1044 92.1414C42.9483 91.6631 42.588 91.138 42.2708 90.9768C41.9536 90.8157 41.3171 90.8344 40.8387 90.9904C40.3604 91.1465 39.8353 91.5068 39.6742 91.824Z" fill="#232323"/>
<path d="M53.0011 87.4776C52.84 87.7947 52.8586 88.4313 53.0147 88.9096C53.1707 89.3879 53.5311 89.913 53.8483 90.0742C54.1654 90.2353 54.802 90.2166 55.2803 90.0606C55.7586 89.9045 56.2837 89.5442 56.4449 89.227C56.606 88.9098 56.5873 88.2733 56.4313 87.795C56.2752 87.3166 55.9149 86.7915 55.5977 86.6304C55.2805 86.4693 54.644 86.4879 54.1657 86.644C53.6873 86.8 53.1622 87.1604 53.0011 87.4776Z" fill="#232323"/>
<path d="M66.3319 83.1309C66.1708 83.4481 66.1894 84.0846 66.3455 84.5629C66.5016 85.0413 66.8619 85.5664 67.1791 85.7275C67.4963 85.8886 68.1328 85.87 68.6111 85.7139C69.0895 85.5579 69.6145 85.1975 69.7757 84.8803C69.9368 84.5632 69.9181 83.9266 69.7621 83.4483C69.606 82.97 69.2457 82.4449 68.9285 82.2837C68.6113 82.1226 67.9748 82.1413 67.4965 82.2973C67.0181 82.4534 66.4931 82.8137 66.3319 83.1309Z" fill="#232323"/>
<path d="M79.6427 78.7825C79.4816 79.0997 79.5002 79.7362 79.6563 80.2146C79.8123 80.6929 80.1727 81.218 80.4899 81.3791C80.807 81.5402 81.4436 81.5216 81.9219 81.3655C82.4002 81.2095 82.9253 80.8491 83.0865 80.532C83.2476 80.2148 83.2289 79.5782 83.0729 79.0999C82.9168 78.6216 82.5565 78.0965 82.2393 77.9353C81.9221 77.7742 81.2856 77.7929 80.8073 77.9489C80.3289 78.105 79.8038 78.4653 79.6427 78.7825Z" fill="#232323"/>
<path d="M92.9774 74.4364C92.8163 74.7536 92.835 75.3902 92.991 75.8685C93.1471 76.3468 93.5074 76.8719 93.8246 77.033C94.1418 77.1942 94.7783 77.1755 95.2566 77.0194C95.735 76.8634 96.26 76.5031 96.4212 76.1859C96.5823 75.8687 96.5637 75.2321 96.4076 74.7538C96.2515 74.2755 95.8912 73.7504 95.574 73.5893C95.2568 73.4281 94.6203 73.4468 94.142 73.6029C93.6636 73.7589 93.1386 74.1192 92.9774 74.4364Z" fill="#232323"/>
<path d="M106.304 70.0893C106.143 70.4064 106.162 71.043 106.318 71.5213C106.474 71.9996 106.834 72.5247 107.151 72.6859C107.469 72.847 108.105 72.8283 108.584 72.6723C109.062 72.5162 109.587 72.1559 109.748 71.8387C109.909 71.5215 109.891 70.885 109.735 70.4067C109.578 69.9283 109.218 69.4032 108.901 69.2421C108.584 69.081 107.947 69.0996 107.469 69.2557C106.991 69.4117 106.465 69.7721 106.304 70.0893Z" fill="#232323"/>
<path d="M119.627 65.7417C119.466 66.0589 119.485 66.6955 119.641 67.1738C119.797 67.6521 120.157 68.1772 120.474 68.3383C120.791 68.4995 121.428 68.4808 121.906 68.3247C122.385 68.1687 122.91 67.8084 123.071 67.4912C123.232 67.174 123.213 66.5374 123.057 66.0591C122.901 65.5808 122.541 65.0557 122.224 64.8946C121.907 64.7334 121.27 64.7521 120.792 64.9082C120.313 65.0642 119.788 65.4245 119.627 65.7417Z" fill="#232323"/>
<path d="M132.954 61.3942C132.793 61.7114 132.811 62.3479 132.967 62.8263C133.123 63.3046 133.484 63.8297 133.801 63.9908C134.118 64.1519 134.755 64.1333 135.233 63.9772C135.711 63.8212 136.236 63.4608 136.397 63.1436C136.559 62.8265 136.54 62.1899 136.384 61.7116C136.228 61.2333 135.868 60.7082 135.55 60.547C135.233 60.3859 134.597 60.4046 134.118 60.5606C133.64 60.7167 133.115 61.077 132.954 61.3942Z" fill="#232323"/>
<path d="M146.273 57.0467C146.111 57.3638 146.13 58.0004 146.286 58.4787C146.442 58.957 146.803 59.4821 147.12 59.6433C147.437 59.8044 148.073 59.7857 148.552 59.6297C149.03 59.4736 149.555 59.1133 149.716 58.7961C149.877 58.4789 149.859 57.8424 149.703 57.364C149.547 56.8857 149.186 56.3606 148.869 56.1995C148.552 56.0384 147.915 56.057 147.437 56.2131C146.959 56.3691 146.434 56.7295 146.273 57.0467Z" fill="#232323"/>
<path d="M159.603 52.7C159.442 53.0172 159.461 53.6537 159.617 54.132C159.773 54.6104 160.133 55.1354 160.451 55.2966C160.768 55.4577 161.404 55.4391 161.883 55.283C162.361 55.1269 162.886 54.7666 163.047 54.4494C163.208 54.1322 163.19 53.4957 163.034 53.0174C162.878 52.539 162.517 52.014 162.2 51.8528C161.883 51.6917 161.246 51.7104 160.768 51.8664C160.29 52.0225 159.765 52.3828 159.603 52.7Z" fill="#232323"/>
<path d="M172.926 48.3526C172.765 48.6697 172.784 49.3063 172.94 49.7846C173.096 50.2629 173.456 50.788 173.773 50.9492C174.09 51.1103 174.727 51.0916 175.205 50.9356C175.684 50.7795 176.209 50.4192 176.37 50.102C176.531 49.7848 176.512 49.1483 176.356 48.67C176.2 48.1916 175.84 47.6665 175.523 47.5054C175.206 47.3443 174.569 47.3629 174.091 47.519C173.612 47.675 173.087 48.0354 172.926 48.3526Z" fill="#232323"/>
<path d="M186.249 44.0055C186.088 44.3227 186.106 44.9593 186.262 45.4376C186.419 45.9159 186.779 46.441 187.096 46.6021C187.413 46.7633 188.05 46.7446 188.528 46.5885C189.006 46.4325 189.532 46.0722 189.693 45.755C189.854 45.4378 189.835 44.8012 189.679 44.3229C189.523 43.8446 189.163 43.3195 188.846 43.1584C188.528 42.9972 187.892 43.0159 187.413 43.1719C186.935 43.328 186.41 43.6883 186.249 44.0055Z" fill="#232323"/>
<path d="M30.7001 109.497C30.5389 109.814 30.5576 110.451 30.7137 110.929C30.8697 111.407 31.23 111.932 31.5472 112.094C31.8644 112.255 32.501 112.236 32.9793 112.08C33.4576 111.924 33.9827 111.564 34.1438 111.246C34.305 110.929 34.2863 110.293 34.1303 109.814C33.9742 109.336 33.6139 108.811 33.2967 108.65C32.9795 108.489 32.3429 108.507 31.8646 108.663C31.3863 108.819 30.8612 109.18 30.7001 109.497Z" fill="#232323"/>
<path d="M44.0311 105.15C43.87 105.467 43.8887 106.103 44.0447 106.582C44.2008 107.06 44.5611 107.585 44.8783 107.746C45.1955 107.907 45.832 107.889 46.3103 107.733C46.7887 107.577 47.3138 107.216 47.4749 106.899C47.636 106.582 47.6174 105.945 47.4613 105.467C47.3053 104.989 46.9449 104.464 46.6277 104.302C46.3106 104.141 45.674 104.16 45.1957 104.316C44.7174 104.472 44.1923 104.832 44.0311 105.15Z" fill="#232323"/>
<path d="M57.3497 100.802C57.1886 101.119 57.2073 101.756 57.3633 102.234C57.5194 102.712 57.8797 103.237 58.1969 103.398C58.5141 103.56 59.1506 103.541 59.6289 103.385C60.1073 103.229 60.6324 102.868 60.7935 102.551C60.9546 102.234 60.936 101.597 60.7799 101.119C60.6239 100.641 60.2635 100.116 59.9463 99.9546C59.6292 99.7935 58.9926 99.8122 58.5143 99.9682C58.036 100.124 57.5109 100.485 57.3497 100.802Z" fill="#232323"/>
<path d="M70.6686 96.4547C70.5075 96.7719 70.5261 97.4085 70.6822 97.8868C70.8382 98.3651 71.1985 98.8902 71.5157 99.0513C71.8329 99.2125 72.4695 99.1938 72.9478 99.0378C73.4261 98.8817 73.9512 98.5214 74.1123 98.2042C74.2735 97.887 74.2548 97.2505 74.0988 96.7721C73.9427 96.2938 73.5824 95.7687 73.2652 95.6076C72.948 95.4465 72.3115 95.4651 71.8331 95.6212C71.3548 95.7772 70.8297 96.1375 70.6686 96.4547Z" fill="#232323"/>
<path d="M83.9952 92.1073C83.8341 92.4245 83.8528 93.0611 84.0088 93.5394C84.1649 94.0177 84.5252 94.5428 84.8424 94.7039C85.1596 94.8651 85.7961 94.8464 86.2745 94.6903C86.7528 94.5343 87.2779 94.174 87.439 93.8568C87.6001 93.5396 87.5815 92.903 87.4254 92.4247C87.2694 91.9464 86.909 91.4213 86.5919 91.2602C86.2747 91.099 85.6381 91.1177 85.1598 91.2738C84.6815 91.4298 84.1564 91.7901 83.9952 92.1073Z" fill="#232323"/>
<path d="M97.3302 87.7606C97.1691 88.0778 97.1877 88.7144 97.3438 89.1927C97.4998 89.671 97.8602 90.1961 98.1774 90.3572C98.4945 90.5184 99.1311 90.4997 99.6094 90.3437C100.088 90.1876 100.613 89.8273 100.774 89.5101C100.935 89.1929 100.916 88.5564 100.76 88.078C100.604 87.5997 100.244 87.0746 99.9268 86.9135C99.6096 86.7524 98.9731 86.771 98.4948 86.9271C98.0164 87.0831 97.4913 87.4435 97.3302 87.7606Z" fill="#232323"/>
<path d="M110.653 83.4136C110.492 83.7308 110.51 84.3673 110.667 84.8457C110.823 85.324 111.183 85.8491 111.5 86.0102C111.817 86.1713 112.454 86.1527 112.932 85.9966C113.41 85.8406 113.936 85.4802 114.097 85.1631C114.258 84.8459 114.239 84.2093 114.083 83.731C113.927 83.2527 113.567 82.7276 113.25 82.5664C112.932 82.4053 112.296 82.424 111.818 82.58C111.339 82.7361 110.814 83.0964 110.653 83.4136Z" fill="#232323"/>
<path d="M123.98 79.067C123.819 79.3842 123.837 80.0208 123.993 80.4991C124.15 80.9774 124.51 81.5025 124.827 81.6636C125.144 81.8248 125.781 81.8061 126.259 81.6501C126.737 81.494 127.262 81.1337 127.424 80.8165C127.585 80.4993 127.566 79.8628 127.41 79.3844C127.254 78.9061 126.894 78.381 126.576 78.2199C126.259 78.0588 125.623 78.0774 125.144 78.2335C124.666 78.3895 124.141 78.7498 123.98 79.067Z" fill="#232323"/>
<path d="M137.295 74.72C137.133 75.0372 137.152 75.6737 137.308 76.1521C137.464 76.6304 137.825 77.1555 138.142 77.3166C138.459 77.4777 139.095 77.4591 139.574 77.303C140.052 77.147 140.577 76.7866 140.738 76.4695C140.899 76.1523 140.881 75.5157 140.725 75.0374C140.569 74.5591 140.208 74.034 139.891 73.8728C139.574 73.7117 138.937 73.7304 138.459 73.8864C137.981 74.0425 137.456 74.4028 137.295 74.72Z" fill="#232323"/>
<path d="M150.625 70.372C150.464 70.6892 150.483 71.3257 150.639 71.804C150.795 72.2824 151.155 72.8074 151.473 72.9686C151.79 73.1297 152.426 73.111 152.905 72.955C153.383 72.7989 153.908 72.4386 154.069 72.1214C154.23 71.8042 154.212 71.1677 154.056 70.6894C153.899 70.211 153.539 69.686 153.222 69.5248C152.905 69.3637 152.268 69.3824 151.79 69.5384C151.312 69.6945 150.787 70.0548 150.625 70.372Z" fill="#232323"/>
<path d="M163.944 66.0249C163.783 66.3421 163.802 66.9787 163.958 67.457C164.114 67.9353 164.474 68.4604 164.791 68.6215C165.108 68.7827 165.745 68.764 166.223 68.6079C166.702 68.4519 167.227 68.0916 167.388 67.7744C167.549 67.4572 167.53 66.8206 167.374 66.3423C167.218 65.864 166.858 65.3389 166.541 65.1778C166.223 65.0166 165.587 65.0353 165.109 65.1914C164.63 65.3474 164.105 65.7077 163.944 66.0249Z" fill="#232323"/>
<path d="M177.275 61.6774C177.114 61.9946 177.132 62.6311 177.288 63.1095C177.444 63.5878 177.805 64.1129 178.122 64.274C178.439 64.4351 179.076 64.4165 179.554 64.2604C180.032 64.1044 180.557 63.744 180.719 63.4269C180.88 63.1097 180.861 62.4731 180.705 61.9948C180.549 61.5165 180.189 60.9914 179.871 60.8302C179.554 60.6691 178.918 60.6878 178.439 60.8438C177.961 60.9999 177.436 61.3602 177.275 61.6774Z" fill="#232323"/>
<path d="M190.606 57.3303C190.444 57.6475 190.463 58.2841 190.619 58.7624C190.775 59.2407 191.136 59.7658 191.453 59.927C191.77 60.0881 192.406 60.0694 192.885 59.9134C193.363 59.7573 193.888 59.397 194.049 59.0798C194.21 58.7626 194.192 58.1261 194.036 57.6477C193.88 57.1694 193.519 56.6443 193.202 56.4832C192.885 56.3221 192.248 56.3407 191.77 56.4968C191.292 56.6528 190.767 57.0132 190.606 57.3303Z" fill="#232323"/>
<path d="M204.059 54.8226C204.16 55.1307 204.454 55.4515 204.658 55.4984C205.193 55.6271 205.048 55.182 204.379 54.6424C203.96 54.2866 203.892 54.309 204.059 54.8226Z" fill="#232323"/>
<path d="M35.049 122.821C34.8878 123.138 34.9065 123.775 35.0625 124.253C35.2186 124.731 35.5789 125.256 35.8961 125.417C36.2133 125.579 36.8498 125.56 37.3282 125.404C37.8065 125.248 38.3316 124.887 38.4927 124.57C38.6538 124.253 38.6352 123.617 38.4791 123.138C38.3231 122.66 37.9628 122.135 37.6456 121.974C37.3284 121.813 36.6918 121.831 36.2135 121.987C35.7352 122.143 35.2101 122.504 35.049 122.821Z" fill="#232323"/>
<path d="M48.3676 118.474C48.2064 118.791 48.2251 119.428 48.3811 119.906C48.5372 120.384 48.8975 120.909 49.2147 121.07C49.5319 121.232 50.1684 121.213 50.6468 121.057C51.1251 120.901 51.6502 120.54 51.8113 120.223C51.9725 119.906 51.9538 119.269 51.7977 118.791C51.6417 118.313 51.2814 117.788 50.9642 117.627C50.647 117.465 50.0104 117.484 49.5321 117.64C49.0538 117.796 48.5287 118.157 48.3676 118.474Z" fill="#232323"/>
<path d="M61.7023 114.127C61.5411 114.444 61.5598 115.081 61.7159 115.559C61.8719 116.038 62.2322 116.563 62.5494 116.724C62.8666 116.885 63.5032 116.866 63.9815 116.71C64.4598 116.554 64.9849 116.194 65.146 115.877C65.3072 115.559 65.2885 114.923 65.1325 114.445C64.9764 113.966 64.6161 113.441 64.2989 113.28C63.9817 113.119 63.3451 113.138 62.8668 113.294C62.3885 113.45 61.8634 113.81 61.7023 114.127Z" fill="#232323"/>
<path d="M75.0131 109.78C74.8519 110.097 74.8706 110.733 75.0267 111.212C75.1827 111.69 75.543 112.215 75.8602 112.376C76.1774 112.537 76.814 112.519 77.2923 112.363C77.7706 112.207 78.2957 111.846 78.4568 111.529C78.618 111.212 78.5993 110.575 78.4432 110.097C78.2872 109.619 77.9269 109.094 77.6097 108.932C77.2925 108.771 76.6559 108.79 76.1776 108.946C75.6993 109.102 75.1742 109.462 75.0131 109.78Z" fill="#232323"/>
<path d="M88.348 105.433C88.1869 105.75 88.2056 106.386 88.3616 106.865C88.5177 107.343 88.878 107.868 89.1952 108.029C89.5124 108.19 90.1489 108.172 90.6272 108.016C91.1056 107.859 91.6307 107.499 91.7918 107.182C91.9529 106.865 91.9343 106.228 91.7782 105.75C91.6221 105.272 91.2618 104.747 90.9446 104.585C90.6275 104.424 89.9909 104.443 89.5126 104.599C89.0343 104.755 88.5092 105.115 88.348 105.433Z" fill="#232323"/>
<path d="M101.679 101.085C101.518 101.402 101.536 102.039 101.692 102.517C101.848 102.995 102.209 103.521 102.526 103.682C102.843 103.843 103.48 103.824 103.958 103.668C104.436 103.512 104.961 103.152 105.123 102.835C105.284 102.517 105.265 101.881 105.109 101.403C104.953 100.924 104.593 100.399 104.275 100.238C103.958 100.077 103.322 100.095 102.843 100.252C102.365 100.408 101.84 100.768 101.679 101.085Z" fill="#232323"/>
<path d="M114.998 96.7384C114.837 97.0556 114.855 97.6922 115.011 98.1705C115.167 98.6488 115.528 99.1739 115.845 99.335C116.162 99.4962 116.799 99.4775 117.277 99.3215C117.755 99.1654 118.28 98.8051 118.441 98.4879C118.603 98.1707 118.584 97.5341 118.428 97.0558C118.272 96.5775 117.911 96.0524 117.594 95.8913C117.277 95.7301 116.641 95.7488 116.162 95.9049C115.684 96.0609 115.159 96.4212 114.998 96.7384Z" fill="#232323"/>
<path d="M128.32 92.3909C128.159 92.7081 128.178 93.3446 128.334 93.823C128.49 94.3013 128.85 94.8264 129.168 94.9875C129.485 95.1486 130.121 95.13 130.6 94.9739C131.078 94.8179 131.603 94.4575 131.764 94.1404C131.925 93.8232 131.907 93.1866 131.751 92.7083C131.595 92.23 131.234 91.7049 130.917 91.5437C130.6 91.3826 129.963 91.4013 129.485 91.5573C129.007 91.7134 128.482 92.0737 128.32 92.3909Z" fill="#232323"/>
<path d="M141.643 88.0438C141.482 88.361 141.501 88.9976 141.657 89.4759C141.813 89.9542 142.173 90.4793 142.49 90.6405C142.808 90.8016 143.444 90.7829 143.922 90.6269C144.401 90.4708 144.926 90.1105 145.087 89.7933C145.248 89.4761 145.229 88.8396 145.073 88.3612C144.917 87.8829 144.557 87.3578 144.24 87.1967C143.923 87.0356 143.286 87.0542 142.808 87.2103C142.329 87.3663 141.804 87.7267 141.643 88.0438Z" fill="#232323"/>
<path d="M154.97 83.6964C154.809 84.0136 154.828 84.6502 154.984 85.1285C155.14 85.6068 155.5 86.1319 155.817 86.293C156.134 86.4542 156.771 86.4355 157.249 86.2795C157.728 86.1234 158.253 85.7631 158.414 85.4459C158.575 85.1287 158.556 84.4922 158.4 84.0138C158.244 83.5355 157.884 83.0104 157.567 82.8493C157.25 82.6881 156.613 82.7068 156.135 82.8629C155.656 83.0189 155.131 83.3792 154.97 83.6964Z" fill="#232323"/>
<path d="M168.297 79.3498C168.136 79.6669 168.154 80.3035 168.31 80.7818C168.466 81.2601 168.827 81.7852 169.144 81.9464C169.461 82.1075 170.098 82.0888 170.576 81.9328C171.054 81.7767 171.579 81.4164 171.741 81.0992C171.902 80.782 171.883 80.1455 171.727 79.6671C171.571 79.1888 171.211 78.6637 170.893 78.5026C170.576 78.3415 169.94 78.3601 169.461 78.5162C168.983 78.6722 168.458 79.0326 168.297 79.3498Z" fill="#232323"/>
<path d="M181.62 75.0012C181.458 75.3184 181.477 75.955 181.633 76.4333C181.789 76.9116 182.149 77.4367 182.467 77.5979C182.784 77.759 183.42 77.7403 183.899 77.5843C184.377 77.4282 184.902 77.0679 185.063 76.7507C185.224 76.4335 185.206 75.797 185.05 75.3186C184.894 74.8403 184.533 74.3152 184.216 74.1541C183.899 73.993 183.262 74.0116 182.784 74.1677C182.306 74.3237 181.781 74.6841 181.62 75.0012Z" fill="#232323"/>
<path d="M194.95 70.6546C194.789 70.9717 194.808 71.6083 194.964 72.0866C195.12 72.5649 195.48 73.09 195.797 73.2512C196.115 73.4123 196.751 73.3936 197.23 73.2376C197.708 73.0815 198.233 72.7212 198.394 72.404C198.555 72.0868 198.537 71.4503 198.38 70.972C198.224 70.4936 197.864 69.9685 197.547 69.8074C197.23 69.6463 196.593 69.6649 196.115 69.821C195.637 69.9771 195.111 70.3374 194.95 70.6546Z" fill="#232323"/>
<path d="M208.273 66.3075C208.112 66.6247 208.131 67.2613 208.287 67.7396C208.443 68.2179 208.803 68.743 209.12 68.9041C209.437 69.0653 210.074 69.0466 210.552 68.8905C211.031 68.7345 211.556 68.3742 211.717 68.057C211.878 67.7398 211.859 67.1032 211.703 66.6249C211.547 66.1466 211.187 65.6215 210.87 65.4604C210.552 65.2992 209.916 65.3179 209.438 65.474C208.959 65.63 208.434 65.9903 208.273 66.3075Z" fill="#232323"/>
<path d="M24.729 128.153C24.7545 129.506 24.7768 129.574 25.099 128.94C25.3173 128.566 25.2875 127.895 25.0743 127.474C24.783 126.813 24.7028 126.914 24.729 128.153Z" fill="#232323"/>
<path d="M26.0707 140.493C25.9096 140.81 25.9282 141.447 26.0843 141.925C26.2403 142.403 26.6006 142.928 26.9178 143.09C27.235 143.251 27.8716 143.232 28.3499 143.076C28.8282 142.92 29.3533 142.56 29.5144 142.242C29.6756 141.925 29.6569 141.289 29.5009 140.81C29.3448 140.332 28.9845 139.807 28.6673 139.646C28.3501 139.485 27.7136 139.503 27.2352 139.659C26.7569 139.815 26.2318 140.176 26.0707 140.493Z" fill="#232323"/>
<path d="M39.3934 136.147C39.2323 136.464 39.251 137.1 39.407 137.579C39.5631 138.057 39.9234 138.582 40.2406 138.743C40.5578 138.904 41.1943 138.886 41.6727 138.73C42.151 138.574 42.6761 138.213 42.8372 137.896C42.9983 137.579 42.9797 136.942 42.8236 136.464C42.6676 135.986 42.3072 135.461 41.99 135.299C41.6729 135.138 41.0363 135.157 40.558 135.313C40.0797 135.469 39.5546 135.829 39.3934 136.147Z" fill="#232323"/>
<path d="M52.7203 131.8C52.5592 132.117 52.5779 132.753 52.7339 133.232C52.89 133.71 53.2503 134.235 53.5675 134.396C53.8847 134.557 54.5212 134.539 54.9996 134.383C55.4779 134.227 56.003 133.866 56.1641 133.549C56.3252 133.232 56.3066 132.595 56.1505 132.117C55.9945 131.639 55.6341 131.114 55.317 130.952C54.9998 130.791 54.3632 130.81 53.8849 130.966C53.4066 131.122 52.8815 131.482 52.7203 131.8Z" fill="#232323"/>
<path d="M66.0389 127.451C65.8778 127.768 65.8965 128.405 66.0525 128.883C66.2086 129.362 66.5689 129.887 66.8861 130.048C67.2033 130.209 67.8398 130.19 68.3182 130.034C68.7965 129.878 69.3216 129.518 69.4827 129.201C69.6438 128.883 69.6252 128.247 69.4691 127.769C69.3131 127.29 68.9527 126.765 68.6356 126.604C68.3184 126.443 67.6818 126.462 67.2035 126.618C66.7252 126.774 66.2001 127.134 66.0389 127.451Z" fill="#232323"/>
<path d="M79.3659 123.105C79.2047 123.422 79.2234 124.058 79.3794 124.537C79.5355 125.015 79.8958 125.54 80.213 125.701C80.5302 125.862 81.1667 125.844 81.6451 125.688C82.1234 125.531 82.6485 125.171 82.8096 124.854C82.9707 124.537 82.9521 123.9 82.796 123.422C82.64 122.944 82.2796 122.419 81.9625 122.257C81.6453 122.096 81.0087 122.115 80.5304 122.271C80.0521 122.427 79.527 122.787 79.3659 123.105Z" fill="#232323"/>
<path d="M92.7008 118.758C92.5397 119.075 92.5583 119.712 92.7144 120.19C92.8704 120.668 93.2308 121.193 93.548 121.355C93.8651 121.516 94.5017 121.497 94.98 121.341C95.4583 121.185 95.9834 120.825 96.1446 120.507C96.3057 120.19 96.287 119.554 96.131 119.075C95.9749 118.597 95.6146 118.072 95.2974 117.911C94.9802 117.75 94.3437 117.768 93.8654 117.924C93.387 118.08 92.8619 118.441 92.7008 118.758Z" fill="#232323"/>
<path d="M106.023 114.41C105.862 114.727 105.881 115.364 106.037 115.842C106.193 116.321 106.553 116.846 106.87 117.007C107.188 117.168 107.824 117.149 108.303 116.993C108.781 116.837 109.306 116.477 109.467 116.16C109.628 115.843 109.61 115.206 109.453 114.728C109.297 114.249 108.937 113.724 108.62 113.563C108.303 113.402 107.666 113.421 107.188 113.577C106.71 113.733 106.184 114.093 106.023 114.41Z" fill="#232323"/>
<path d="M119.35 110.063C119.189 110.38 119.208 111.017 119.364 111.495C119.52 111.973 119.88 112.498 120.197 112.659C120.515 112.821 121.151 112.802 121.629 112.646C122.108 112.49 122.633 112.129 122.794 111.812C122.955 111.495 122.936 110.858 122.78 110.38C122.624 109.902 122.264 109.377 121.947 109.216C121.63 109.054 120.993 109.073 120.515 109.229C120.036 109.385 119.511 109.746 119.35 110.063Z" fill="#232323"/>
<path d="M132.665 105.715C132.504 106.033 132.522 106.669 132.679 107.147C132.835 107.626 133.195 108.151 133.512 108.312C133.829 108.473 134.466 108.454 134.944 108.298C135.422 108.142 135.948 107.782 136.109 107.465C136.27 107.148 136.251 106.511 136.095 106.033C135.939 105.554 135.579 105.029 135.262 104.868C134.944 104.707 134.308 104.726 133.829 104.882C133.351 105.038 132.826 105.398 132.665 105.715Z" fill="#232323"/>
<path d="M145.992 101.369C145.831 101.686 145.849 102.322 146.005 102.801C146.161 103.279 146.522 103.804 146.839 103.965C147.156 104.126 147.793 104.108 148.271 103.952C148.749 103.796 149.274 103.435 149.436 103.118C149.597 102.801 149.578 102.164 149.422 101.686C149.266 101.208 148.906 100.683 148.588 100.522C148.271 100.36 147.635 100.379 147.156 100.535C146.678 100.691 146.153 101.051 145.992 101.369Z" fill="#232323"/>
<path d="M159.319 97.022C159.158 97.3392 159.176 97.9757 159.332 98.4541C159.488 98.9324 159.849 99.4575 160.166 99.6186C160.483 99.7797 161.12 99.7611 161.598 99.605C162.076 99.449 162.601 99.0886 162.762 98.7715C162.924 98.4543 162.905 97.8177 162.749 97.3394C162.593 96.8611 162.233 96.336 161.915 96.1748C161.598 96.0137 160.962 96.0324 160.483 96.1884C160.005 96.3445 159.48 96.7048 159.319 97.022Z" fill="#232323"/>
<path d="M172.645 92.6746C172.484 92.9918 172.503 93.6283 172.659 94.1066C172.815 94.585 173.175 95.1101 173.493 95.2712C173.81 95.4323 174.446 95.4137 174.925 95.2576C175.403 95.1016 175.928 94.7412 176.089 94.424C176.25 94.1069 176.232 93.4703 176.076 92.992C175.92 92.5137 175.559 91.9886 175.242 91.8274C174.925 91.6663 174.288 91.685 173.81 91.841C173.332 91.9971 172.807 92.3574 172.645 92.6746Z" fill="#232323"/>
<path d="M185.968 88.3274C185.807 88.6446 185.826 89.2812 185.982 89.7595C186.138 90.2378 186.498 90.7629 186.815 90.924C187.132 91.0852 187.769 91.0665 188.247 90.9104C188.726 90.7544 189.251 90.3941 189.412 90.0769C189.573 89.7597 189.554 89.1231 189.398 88.6448C189.242 88.1665 188.882 87.6414 188.565 87.4803C188.248 87.3191 187.611 87.3378 187.133 87.4938C186.654 87.6499 186.129 88.0102 185.968 88.3274Z" fill="#232323"/>
<path d="M199.291 83.9794C199.13 84.2966 199.148 84.9331 199.304 85.4115C199.461 85.8898 199.821 86.4149 200.138 86.576C200.455 86.7371 201.092 86.7185 201.57 86.5624C202.048 86.4064 202.574 86.046 202.735 85.7289C202.896 85.4117 202.877 84.7751 202.721 84.2968C202.565 83.8185 202.205 83.2934 201.888 83.1322C201.57 82.9711 200.934 82.9898 200.455 83.1458C199.977 83.3019 199.452 83.6622 199.291 83.9794Z" fill="#232323"/>
<path d="M212.61 79.632C212.449 79.9492 212.467 80.5857 212.623 81.064C212.779 81.5424 213.14 82.0675 213.457 82.2286C213.774 82.3897 214.411 82.3711 214.889 82.215C215.367 82.059 215.892 81.6986 216.054 81.3814C216.215 81.0643 216.196 80.4277 216.04 79.9494C215.884 79.4711 215.524 78.946 215.206 78.7848C214.889 78.6237 214.253 78.6424 213.774 78.7984C213.296 78.9545 212.771 79.3148 212.61 79.632Z" fill="#232323"/>
<path d="M30.4193 153.817C30.2582 154.134 30.2768 154.771 30.4329 155.249C30.589 155.728 30.9493 156.253 31.2665 156.414C31.5837 156.575 32.2202 156.556 32.6985 156.4C33.1769 156.244 33.7019 155.884 33.8631 155.567C34.0242 155.25 34.0055 154.613 33.8495 154.135C33.6934 153.656 33.3331 153.131 33.0159 152.97C32.6987 152.809 32.0622 152.828 31.5839 152.984C31.1055 153.14 30.5805 153.5 30.4193 153.817Z" fill="#232323"/>
<path d="M43.7382 149.47C43.577 149.787 43.5957 150.424 43.7517 150.902C43.9078 151.381 44.2681 151.906 44.5853 152.067C44.9025 152.228 45.5391 152.209 46.0174 152.053C46.4957 151.897 47.0208 151.537 47.1819 151.22C47.3431 150.902 47.3244 150.266 47.1683 149.788C47.0123 149.309 46.652 148.784 46.3348 148.623C46.0176 148.462 45.381 148.48 44.9027 148.637C44.4244 148.793 43.8993 149.153 43.7382 149.47Z" fill="#232323"/>
<path d="M57.069 145.124C56.9078 145.441 56.9265 146.077 57.0826 146.556C57.2386 147.034 57.5989 147.559 57.9161 147.72C58.2333 147.881 58.8699 147.863 59.3482 147.707C59.8265 147.551 60.3516 147.19 60.5127 146.873C60.6739 146.556 60.6552 145.919 60.4992 145.441C60.3431 144.963 59.9828 144.438 59.6656 144.277C59.3484 144.115 58.7118 144.134 58.2335 144.29C57.7552 144.446 57.2301 144.806 57.069 145.124Z" fill="#232323"/>
<path d="M70.3956 140.777C70.2345 141.095 70.2532 141.731 70.4092 142.209C70.5653 142.688 70.9256 143.213 71.2428 143.374C71.56 143.535 72.1965 143.516 72.6748 143.36C73.1532 143.204 73.6783 142.844 73.8394 142.527C74.0005 142.21 73.9819 141.573 73.8258 141.095C73.6698 140.616 73.3094 140.091 72.9922 139.93C72.6751 139.769 72.0385 139.788 71.5602 139.944C71.0819 140.1 70.5568 140.46 70.3956 140.777Z" fill="#232323"/>
<path d="M83.7186 136.429C83.5575 136.747 83.5762 137.383 83.7322 137.862C83.8883 138.34 84.2486 138.865 84.5658 139.026C84.883 139.187 85.5195 139.169 85.9978 139.012C86.4762 138.856 87.0013 138.496 87.1624 138.179C87.3235 137.862 87.3049 137.225 87.1488 136.747C86.9928 136.269 86.6324 135.743 86.3152 135.582C85.9981 135.421 85.3615 135.44 84.8832 135.596C84.4049 135.752 83.8798 136.112 83.7186 136.429Z" fill="#232323"/>
<path d="M97.0453 132.082C96.8842 132.4 96.9028 133.036 97.0589 133.514C97.2149 133.993 97.5753 134.518 97.8924 134.679C98.2096 134.84 98.8462 134.821 99.3245 134.665C99.8028 134.509 100.328 134.149 100.489 133.832C100.65 133.515 100.632 132.878 100.475 132.4C100.319 131.921 99.9591 131.396 99.6419 131.235C99.3247 131.074 98.6882 131.093 98.2098 131.249C97.7315 131.405 97.2064 131.765 97.0453 132.082Z" fill="#232323"/>
<path d="M110.36 127.734C110.199 128.051 110.218 128.688 110.374 129.166C110.53 129.644 110.89 130.169 111.207 130.33C111.524 130.492 112.161 130.473 112.639 130.317C113.118 130.161 113.643 129.8 113.804 129.483C113.965 129.166 113.946 128.53 113.79 128.051C113.634 127.573 113.274 127.048 112.957 126.887C112.639 126.726 112.003 126.744 111.525 126.9C111.046 127.056 110.521 127.417 110.36 127.734Z" fill="#232323"/>
<path d="M123.691 123.387C123.53 123.704 123.549 124.341 123.705 124.819C123.861 125.298 124.221 125.823 124.538 125.984C124.855 126.145 125.492 126.126 125.97 125.97C126.449 125.814 126.974 125.454 127.135 125.137C127.296 124.82 127.277 124.183 127.121 123.705C126.965 123.226 126.605 122.701 126.288 122.54C125.97 122.379 125.334 122.398 124.856 122.554C124.377 122.71 123.852 123.07 123.691 123.387Z" fill="#232323"/>
<path d="M137.014 119.04C136.853 119.357 136.871 119.994 137.027 120.472C137.183 120.951 137.544 121.476 137.861 121.637C138.178 121.798 138.815 121.779 139.293 121.623C139.771 121.467 140.296 121.107 140.458 120.79C140.619 120.472 140.6 119.836 140.444 119.358C140.288 118.879 139.928 118.354 139.61 118.193C139.293 118.032 138.657 118.051 138.178 118.207C137.7 118.363 137.175 118.723 137.014 119.04Z" fill="#232323"/>
<path d="M150.34 114.693C150.179 115.01 150.198 115.647 150.354 116.125C150.51 116.604 150.87 117.129 151.188 117.29C151.505 117.451 152.141 117.432 152.62 117.276C153.098 117.12 153.623 116.76 153.784 116.443C153.945 116.125 153.927 115.489 153.771 115.011C153.615 114.532 153.254 114.007 152.937 113.846C152.62 113.685 151.983 113.704 151.505 113.86C151.027 114.016 150.502 114.376 150.34 114.693Z" fill="#232323"/>
<path d="M163.667 110.347C163.506 110.664 163.525 111.301 163.681 111.779C163.837 112.257 164.197 112.782 164.515 112.944C164.832 113.105 165.468 113.086 165.947 112.93C166.425 112.774 166.95 112.414 167.111 112.096C167.272 111.779 167.254 111.143 167.098 110.664C166.941 110.186 166.581 109.661 166.264 109.5C165.947 109.339 165.31 109.357 164.832 109.513C164.354 109.669 163.828 110.03 163.667 110.347Z" fill="#232323"/>
<path d="M176.982 105.998C176.821 106.316 176.84 106.952 176.996 107.43C177.152 107.909 177.512 108.434 177.829 108.595C178.146 108.756 178.783 108.738 179.261 108.581C179.74 108.425 180.265 108.065 180.426 107.748C180.587 107.431 180.568 106.794 180.412 106.316C180.256 105.838 179.896 105.312 179.579 105.151C179.261 104.99 178.625 105.009 178.147 105.165C177.668 105.321 177.143 105.681 176.982 105.998Z" fill="#232323"/>
<path d="M190.313 101.651C190.152 101.969 190.17 102.605 190.326 103.083C190.483 103.562 190.843 104.087 191.16 104.248C191.477 104.409 192.114 104.39 192.592 104.234C193.07 104.078 193.595 103.718 193.757 103.401C193.918 103.084 193.899 102.447 193.743 101.969C193.587 101.49 193.227 100.965 192.909 100.804C192.592 100.643 191.956 100.662 191.477 100.818C190.999 100.974 190.474 101.334 190.313 101.651Z" fill="#232323"/>
<path d="M203.632 97.3039C203.471 97.621 203.489 98.2576 203.645 98.7359C203.801 99.2142 204.162 99.7393 204.479 99.9005C204.796 100.062 205.433 100.043 205.911 99.8869C206.389 99.7308 206.914 99.3705 207.075 99.0533C207.237 98.7361 207.218 98.0996 207.062 97.6213C206.906 97.1429 206.546 96.6178 206.228 96.4567C205.911 96.2956 205.275 96.3142 204.796 96.4703C204.318 96.6263 203.793 96.9867 203.632 97.3039Z" fill="#232323"/>
<path d="M216.958 92.9568C216.797 93.274 216.816 93.9105 216.972 94.3889C217.128 94.8672 217.488 95.3923 217.806 95.5534C218.123 95.7146 218.759 95.6959 219.238 95.5398C219.716 95.3838 220.241 95.0235 220.402 94.7063C220.563 94.3891 220.545 93.7525 220.389 93.2742C220.233 92.7959 219.872 92.2708 219.555 92.1097C219.238 91.9485 218.601 91.9672 218.123 92.1232C217.645 92.2793 217.12 92.6396 216.958 92.9568Z" fill="#232323"/>
<path d="M34.764 167.143C34.6029 167.46 34.6216 168.096 34.7776 168.575C34.9337 169.053 35.294 169.578 35.6112 169.739C35.9284 169.9 36.5649 169.882 37.0433 169.726C37.5216 169.57 38.0467 169.209 38.2078 168.892C38.3689 168.575 38.3503 167.938 38.1942 167.46C38.0382 166.982 37.6778 166.457 37.3607 166.295C37.0435 166.134 36.4069 166.153 35.9286 166.309C35.4503 166.465 34.9252 166.825 34.764 167.143Z" fill="#232323"/>
<path d="M48.0868 162.796C47.9257 163.113 47.9443 163.749 48.1004 164.228C48.2564 164.706 48.6168 165.231 48.9339 165.392C49.2511 165.553 49.8877 165.535 50.366 165.379C50.8443 165.223 51.3694 164.862 51.5306 164.545C51.6917 164.228 51.673 163.591 51.517 163.113C51.3609 162.635 51.0006 162.11 50.6834 161.948C50.3662 161.787 49.7297 161.806 49.2513 161.962C48.773 162.118 48.2479 162.478 48.0868 162.796Z" fill="#232323"/>
<path d="M61.4176 158.449C61.2565 158.766 61.2751 159.403 61.4312 159.881C61.5872 160.359 61.9476 160.884 62.2648 161.045C62.5819 161.207 63.2185 161.188 63.6968 161.032C64.1751 160.876 64.7002 160.516 64.8614 160.198C65.0225 159.881 65.0038 159.245 64.8478 158.766C64.6917 158.288 64.3314 157.763 64.0142 157.602C63.697 157.441 63.0605 157.459 62.5822 157.615C62.1038 157.771 61.5787 158.132 61.4176 158.449Z" fill="#232323"/>
<path d="M74.7365 154.101C74.5753 154.419 74.594 155.055 74.75 155.534C74.9061 156.012 75.2664 156.537 75.5836 156.698C75.9008 156.859 76.5373 156.841 77.0157 156.684C77.494 156.528 78.0191 156.168 78.1802 155.851C78.3413 155.534 78.3227 154.897 78.1666 154.419C78.0106 153.941 77.6503 153.415 77.3331 153.254C77.0159 153.093 76.3793 153.112 75.901 153.268C75.4227 153.424 74.8976 153.784 74.7365 154.101Z" fill="#232323"/>
<path d="M88.0634 149.754C87.9022 150.071 87.9209 150.707 88.0769 151.186C88.233 151.664 88.5933 152.189 88.9105 152.35C89.2277 152.511 89.8643 152.493 90.3426 152.337C90.8209 152.181 91.346 151.82 91.5071 151.503C91.6683 151.186 91.6496 150.549 91.4935 150.071C91.3375 149.593 90.9772 149.068 90.66 148.907C90.3428 148.745 89.7062 148.764 89.2279 148.92C88.7496 149.076 88.2245 149.436 88.0634 149.754Z" fill="#232323"/>
<path d="M101.394 145.407C101.233 145.724 101.251 146.36 101.408 146.839C101.564 147.317 101.924 147.842 102.241 148.003C102.558 148.164 103.195 148.146 103.673 147.99C104.151 147.834 104.677 147.473 104.838 147.156C104.999 146.839 104.98 146.202 104.824 145.724C104.668 145.246 104.308 144.721 103.991 144.559C103.673 144.398 103.037 144.417 102.558 144.573C102.08 144.729 101.555 145.089 101.394 145.407Z" fill="#232323"/>
<path d="M114.705 141.059C114.544 141.376 114.562 142.013 114.718 142.491C114.874 142.969 115.235 143.494 115.552 143.655C115.869 143.817 116.506 143.798 116.984 143.642C117.462 143.486 117.987 143.126 118.148 142.808C118.31 142.491 118.291 141.855 118.135 141.376C117.979 140.898 117.619 140.373 117.301 140.212C116.984 140.051 116.348 140.069 115.869 140.225C115.391 140.381 114.866 140.742 114.705 141.059Z" fill="#232323"/>
<path d="M128.036 136.712C127.874 137.029 127.893 137.666 128.049 138.144C128.205 138.623 128.565 139.148 128.883 139.309C129.2 139.47 129.836 139.451 130.315 139.295C130.793 139.139 131.318 138.779 131.479 138.462C131.64 138.144 131.622 137.508 131.466 137.03C131.31 136.551 130.949 136.026 130.632 135.865C130.315 135.704 129.678 135.723 129.2 135.879C128.722 136.035 128.197 136.395 128.036 136.712Z" fill="#232323"/>
<path d="M141.362 132.365C141.201 132.683 141.22 133.319 141.376 133.798C141.532 134.276 141.892 134.801 142.21 134.962C142.527 135.123 143.163 135.105 143.642 134.949C144.12 134.792 144.645 134.432 144.806 134.115C144.967 133.798 144.949 133.161 144.793 132.683C144.637 132.205 144.276 131.679 143.959 131.518C143.642 131.357 143.005 131.376 142.527 131.532C142.049 131.688 141.524 132.048 141.362 132.365Z" fill="#232323"/>
<path d="M154.689 128.017C154.528 128.335 154.547 128.971 154.703 129.45C154.859 129.928 155.219 130.453 155.536 130.614C155.853 130.775 156.49 130.757 156.968 130.601C157.447 130.444 157.972 130.084 158.133 129.767C158.294 129.45 158.275 128.813 158.119 128.335C157.963 127.857 157.603 127.331 157.286 127.17C156.969 127.009 156.332 127.028 155.854 127.184C155.375 127.34 154.85 127.7 154.689 128.017Z" fill="#232323"/>
<path d="M168.016 123.671C167.855 123.988 167.874 124.625 168.03 125.103C168.186 125.581 168.546 126.106 168.863 126.268C169.18 126.429 169.817 126.41 170.295 126.254C170.774 126.098 171.299 125.738 171.46 125.42C171.621 125.103 171.602 124.467 171.446 123.988C171.29 123.51 170.93 122.985 170.613 122.824C170.295 122.663 169.659 122.681 169.181 122.837C168.702 122.993 168.177 123.354 168.016 123.671Z" fill="#232323"/>
<path d="M181.335 119.324C181.174 119.641 181.192 120.278 181.348 120.756C181.504 121.234 181.865 121.759 182.182 121.92C182.499 122.082 183.136 122.063 183.614 121.907C184.092 121.751 184.617 121.391 184.779 121.073C184.94 120.756 184.921 120.12 184.765 119.641C184.609 119.163 184.249 118.638 183.931 118.477C183.614 118.316 182.978 118.334 182.499 118.49C182.021 118.646 181.496 119.007 181.335 119.324Z" fill="#232323"/>
<path d="M194.665 114.976C194.504 115.293 194.523 115.93 194.679 116.408C194.835 116.887 195.195 117.412 195.513 117.573C195.83 117.734 196.466 117.715 196.945 117.559C197.423 117.403 197.948 117.043 198.109 116.726C198.27 116.408 198.252 115.772 198.096 115.294C197.94 114.815 197.579 114.29 197.262 114.129C196.945 113.968 196.308 113.987 195.83 114.143C195.352 114.299 194.827 114.659 194.665 114.976Z" fill="#232323"/>
<path d="M207.98 110.629C207.819 110.946 207.838 111.583 207.994 112.061C208.15 112.54 208.51 113.065 208.828 113.226C209.145 113.387 209.781 113.368 210.26 113.212C210.738 113.056 211.263 112.696 211.424 112.379C211.585 112.062 211.567 111.425 211.411 110.947C211.254 110.468 210.894 109.943 210.577 109.782C210.26 109.621 209.623 109.64 209.145 109.796C208.667 109.952 208.141 110.312 207.98 110.629Z" fill="#232323"/>
<path d="M221.311 106.282C221.15 106.599 221.169 107.235 221.325 107.714C221.481 108.192 221.841 108.717 222.158 108.878C222.475 109.039 223.112 109.021 223.59 108.865C224.069 108.709 224.594 108.348 224.755 108.031C224.916 107.714 224.897 107.077 224.741 106.599C224.585 106.121 224.225 105.596 223.908 105.434C223.591 105.273 222.954 105.292 222.476 105.448C221.997 105.604 221.472 105.964 221.311 106.282Z" fill="#232323"/>
<path d="M39.0763 180.592C38.8914 181.068 39.0133 181.557 39.4747 182.276C40.6909 184.034 43.2102 182.834 42.5525 180.818C42.3853 180.306 42.025 179.781 41.7078 179.62C40.9375 179.228 39.3882 179.81 39.0763 180.592Z" fill="#232323"/>
<path d="M52.4354 176.12C52.2743 176.438 52.293 177.074 52.449 177.552C52.6051 178.031 52.9654 178.556 53.2826 178.717C53.5998 178.878 54.2363 178.859 54.7146 178.703C55.193 178.547 55.7181 178.187 55.8792 177.87C56.0403 177.553 56.0217 176.916 55.8656 176.438C55.7096 175.959 55.3492 175.434 55.032 175.273C54.7149 175.112 54.0783 175.131 53.6 175.287C53.1217 175.443 52.5966 175.803 52.4354 176.12Z" fill="#232323"/>
<path d="M65.7582 171.772C65.5971 172.089 65.6157 172.726 65.7718 173.204C65.9278 173.683 66.2881 174.208 66.6053 174.369C66.9225 174.53 67.5591 174.511 68.0374 174.355C68.5157 174.199 69.0408 173.839 69.2019 173.522C69.3631 173.205 69.3444 172.568 69.1884 172.09C69.0323 171.611 68.672 171.086 68.3548 170.925C68.0376 170.764 67.4011 170.783 66.9227 170.939C66.4444 171.095 65.9193 171.455 65.7582 171.772Z" fill="#232323"/>
<path d="M79.0848 167.426C78.9237 167.743 78.9424 168.38 79.0984 168.858C79.2545 169.337 79.6148 169.862 79.932 170.023C80.2492 170.184 80.8857 170.165 81.3641 170.009C81.8424 169.853 82.3675 169.493 82.5286 169.176C82.6897 168.859 82.6711 168.222 82.515 167.744C82.359 167.265 81.9986 166.74 81.6815 166.579C81.3643 166.418 80.7277 166.437 80.2494 166.593C79.7711 166.749 79.246 167.109 79.0848 167.426Z" fill="#232323"/>
<path d="M92.4078 163.079C92.2467 163.396 92.2654 164.033 92.4214 164.511C92.5775 164.99 92.9378 165.515 93.255 165.676C93.5722 165.837 94.2087 165.818 94.6871 165.662C95.1654 165.506 95.6905 165.146 95.8516 164.829C96.0127 164.511 95.9941 163.875 95.838 163.397C95.682 162.918 95.3216 162.393 95.0045 162.232C94.6873 162.071 94.0507 162.09 93.5724 162.246C93.0941 162.402 92.569 162.762 92.4078 163.079Z" fill="#232323"/>
<path d="M105.739 158.732C105.578 159.049 105.596 159.686 105.752 160.164C105.908 160.643 106.269 161.168 106.586 161.329C106.903 161.49 107.54 161.471 108.018 161.315C108.496 161.159 109.021 160.799 109.182 160.482C109.344 160.164 109.325 159.528 109.169 159.05C109.013 158.571 108.652 158.046 108.335 157.885C108.018 157.724 107.382 157.743 106.903 157.899C106.425 158.055 105.9 158.415 105.739 158.732Z" fill="#232323"/>
<path d="M119.053 154.384C118.892 154.702 118.911 155.338 119.067 155.816C119.223 156.295 119.583 156.82 119.9 156.981C120.218 157.142 120.854 157.124 121.333 156.967C121.811 156.811 122.336 156.451 122.497 156.134C122.658 155.817 122.64 155.18 122.484 154.702C122.327 154.223 121.967 153.698 121.65 153.537C121.333 153.376 120.696 153.395 120.218 153.551C119.74 153.707 119.214 154.067 119.053 154.384Z" fill="#232323"/>
<path d="M132.392 150.038C132.231 150.355 132.25 150.992 132.406 151.47C132.562 151.948 132.922 152.473 133.239 152.635C133.557 152.796 134.193 152.777 134.671 152.621C135.15 152.465 135.675 152.105 135.836 151.787C135.997 151.47 135.978 150.834 135.822 150.355C135.666 149.877 135.306 149.352 134.989 149.191C134.672 149.03 134.035 149.048 133.557 149.204C133.078 149.36 132.553 149.721 132.392 150.038Z" fill="#232323"/>
<path d="M145.711 145.69C145.55 146.008 145.569 146.644 145.725 147.122C145.881 147.601 146.241 148.126 146.558 148.287C146.875 148.448 147.512 148.429 147.99 148.273C148.469 148.117 148.994 147.757 149.155 147.44C149.316 147.123 149.297 146.486 149.141 146.008C148.985 145.529 148.625 145.004 148.308 144.843C147.99 144.682 147.354 144.701 146.876 144.857C146.397 145.013 145.872 145.373 145.711 145.69Z" fill="#232323"/>
<path d="M159.038 141.342C158.877 141.66 158.895 142.296 159.051 142.774C159.207 143.253 159.568 143.778 159.885 143.939C160.202 144.1 160.839 144.082 161.317 143.925C161.795 143.769 162.32 143.409 162.481 143.092C162.643 142.775 162.624 142.138 162.468 141.66C162.312 141.182 161.952 140.656 161.634 140.495C161.317 140.334 160.681 140.353 160.202 140.509C159.724 140.665 159.199 141.025 159.038 141.342Z" fill="#232323"/>
<path d="M172.349 136.995C172.187 137.312 172.206 137.949 172.362 138.427C172.518 138.905 172.878 139.43 173.196 139.592C173.513 139.753 174.149 139.734 174.628 139.578C175.106 139.422 175.631 139.062 175.792 138.744C175.953 138.427 175.935 137.791 175.779 137.312C175.623 136.834 175.262 136.309 174.945 136.148C174.628 135.987 173.991 136.005 173.513 136.161C173.035 136.317 172.51 136.678 172.349 136.995Z" fill="#232323"/>
<path d="M185.683 132.649C185.522 132.966 185.541 133.603 185.697 134.081C185.853 134.559 186.213 135.085 186.531 135.246C186.848 135.407 187.484 135.388 187.963 135.232C188.441 135.076 188.966 134.716 189.127 134.399C189.288 134.081 189.27 133.445 189.114 132.966C188.958 132.488 188.597 131.963 188.28 131.802C187.963 131.641 187.326 131.659 186.848 131.816C186.37 131.972 185.845 132.332 185.683 132.649Z" fill="#232323"/>
<path d="M199.006 128.301C198.845 128.618 198.864 129.255 199.02 129.733C199.176 130.212 199.536 130.737 199.853 130.898C200.171 131.059 200.807 131.04 201.285 130.884C201.764 130.728 202.289 130.368 202.45 130.051C202.611 129.734 202.592 129.097 202.436 128.619C202.28 128.14 201.92 127.615 201.603 127.454C201.286 127.293 200.649 127.312 200.171 127.468C199.692 127.624 199.167 127.984 199.006 128.301Z" fill="#232323"/>
<path d="M212.333 123.954C212.172 124.271 212.19 124.908 212.346 125.386C212.503 125.865 212.863 126.39 213.18 126.551C213.497 126.712 214.134 126.693 214.612 126.537C215.09 126.381 215.616 126.021 215.777 125.704C215.938 125.386 215.919 124.75 215.763 124.272C215.607 123.793 215.247 123.268 214.93 123.107C214.612 122.946 213.976 122.965 213.497 123.121C213.019 123.277 212.494 123.637 212.333 123.954Z" fill="#232323"/>
<path d="M225.66 119.607C225.499 119.924 225.517 120.561 225.673 121.039C225.829 121.517 226.19 122.043 226.507 122.204C226.824 122.365 227.461 122.346 227.939 122.19C228.417 122.034 228.942 121.674 229.104 121.357C229.265 121.039 229.246 120.403 229.09 119.924C228.934 119.446 228.574 118.921 228.256 118.76C227.939 118.599 227.303 118.617 226.824 118.774C226.346 118.93 225.821 119.29 225.66 119.607Z" fill="#232323"/>
<path d="M56.7882 189.445C56.6271 189.762 56.6457 190.399 56.8018 190.877C57.1696 192.005 57.94 192.396 59.0674 192.028C60.1949 191.66 60.5862 190.89 60.2184 189.763C59.8505 188.635 59.0802 188.244 57.9528 188.612C57.4744 188.768 56.9493 189.128 56.7882 189.445Z" fill="#232323"/>
<path d="M70.111 185.098C69.9498 185.415 69.9685 186.051 70.1246 186.53C70.4924 187.657 71.2627 188.048 72.3902 187.681C73.5177 187.313 73.909 186.542 73.5411 185.415C73.1733 184.287 72.403 183.896 71.2755 184.264C70.7972 184.42 70.2721 184.78 70.111 185.098Z" fill="#232323"/>
<path d="M83.4296 180.75C83.2684 181.067 83.2871 181.704 83.4432 182.182C83.811 183.31 84.5813 183.701 85.7088 183.333C86.8363 182.965 87.2276 182.195 86.8597 181.068C86.4919 179.94 85.7216 179.549 84.5941 179.917C84.1158 180.073 83.5907 180.433 83.4296 180.75Z" fill="#232323"/>
<path d="M96.7565 176.403C96.5953 176.72 96.614 177.356 96.7701 177.835C97.1379 178.962 97.9082 179.354 99.0357 178.986C100.163 178.618 100.554 177.848 100.187 176.72C99.8188 175.593 99.0485 175.201 97.921 175.569C97.4427 175.725 96.9176 176.086 96.7565 176.403Z" fill="#232323"/>
<path d="M110.075 172.057C109.914 172.374 109.933 173.011 110.089 173.489C110.457 174.616 111.227 175.008 112.354 174.64C113.482 174.272 113.873 173.502 113.505 172.374C113.137 171.247 112.367 170.856 111.24 171.223C110.761 171.379 110.236 171.74 110.075 172.057Z" fill="#232323"/>
<path d="M123.406 167.709C123.245 168.027 123.264 168.663 123.42 169.141C123.788 170.269 124.558 170.66 125.685 170.292C126.813 169.925 127.204 169.154 126.836 168.027C126.468 166.899 125.698 166.508 124.571 166.876C124.092 167.032 123.567 167.392 123.406 167.709Z" fill="#232323"/>
<path d="M136.733 163.362C136.572 163.679 136.59 164.316 136.746 164.794C137.114 165.922 137.885 166.313 139.012 165.945C140.139 165.577 140.531 164.807 140.163 163.68C139.795 162.552 139.025 162.161 137.897 162.529C137.419 162.685 136.894 163.045 136.733 163.362Z" fill="#232323"/>
<path d="M150.06 159.014C149.899 159.332 149.917 159.968 150.073 160.446C150.441 161.574 151.211 161.965 152.339 161.597C153.466 161.23 153.858 160.459 153.49 159.332C153.122 158.204 152.352 157.813 151.224 158.181C150.746 158.337 150.221 158.697 150.06 159.014Z" fill="#232323"/>
<path d="M163.386 154.668C163.225 154.985 163.244 155.621 163.4 156.1C163.768 157.227 164.538 157.619 165.666 157.251C166.793 156.883 167.184 156.113 166.817 154.985C166.449 153.858 165.678 153.466 164.551 153.834C164.073 153.99 163.547 154.351 163.386 154.668Z" fill="#232323"/>
<path d="M176.701 150.32C176.54 150.637 176.559 151.274 176.715 151.752C177.083 152.88 177.853 153.271 178.981 152.903C180.108 152.535 180.499 151.765 180.131 150.638C179.764 149.51 178.993 149.119 177.866 149.487C177.388 149.643 176.862 150.003 176.701 150.32Z" fill="#232323"/>
<path d="M190.032 145.973C189.871 146.29 189.89 146.926 190.046 147.405C190.414 148.532 191.184 148.923 192.311 148.556C193.439 148.188 193.83 147.417 193.462 146.29C193.094 145.162 192.324 144.771 191.197 145.139C190.718 145.295 190.193 145.655 190.032 145.973Z" fill="#232323"/>
<path d="M203.351 141.626C203.19 141.943 203.208 142.579 203.364 143.058C203.732 144.185 204.502 144.576 205.63 144.209C206.757 143.841 207.149 143.07 206.781 141.943C206.413 140.815 205.643 140.424 204.515 140.792C204.037 140.948 203.512 141.308 203.351 141.626Z" fill="#232323"/>
<path d="M216.682 137.278C216.52 137.596 216.539 138.232 216.695 138.711C217.063 139.838 217.833 140.229 218.961 139.861C220.088 139.494 220.48 138.723 220.112 137.596C219.744 136.468 218.974 136.077 217.846 136.445C217.368 136.601 216.843 136.961 216.682 137.278Z" fill="#232323"/>
<path d="M230.005 132.931C229.843 133.248 229.862 133.885 230.018 134.363C230.386 135.491 231.156 135.882 232.284 135.514C233.411 135.146 233.803 134.376 233.435 133.249C233.067 132.121 232.297 131.73 231.169 132.098C230.691 132.254 230.166 132.614 230.005 132.931Z" fill="#232323"/>
<path d="M61.1246 202.769C60.9635 203.086 60.9822 203.723 61.1382 204.201C61.5061 205.329 62.2764 205.72 63.4039 205.352C64.5313 204.984 64.9227 204.214 64.5548 203.086C64.187 201.959 63.4167 201.568 62.2892 201.935C61.8109 202.092 61.2858 202.452 61.1246 202.769Z" fill="#232323"/>
<path d="M74.4596 198.423C74.2985 198.74 74.3171 199.376 74.4732 199.855C74.841 200.982 75.6113 201.373 76.7388 201.006C77.8663 200.638 78.2576 199.867 77.8898 198.74C77.5219 197.612 76.7516 197.221 75.6241 197.589C75.1458 197.745 74.6207 198.105 74.4596 198.423Z" fill="#232323"/>
<path d="M87.7782 194.076C87.6171 194.393 87.6357 195.03 87.7918 195.508C88.1596 196.635 88.9299 197.027 90.0574 196.659C91.1849 196.291 91.5762 195.521 91.2084 194.393C90.8405 193.266 90.0702 192.874 88.9427 193.242C88.4644 193.398 87.9393 193.759 87.7782 194.076Z" fill="#232323"/>
<path d="M101.109 189.728C100.948 190.045 100.967 190.682 101.123 191.16C101.491 192.287 102.261 192.679 103.388 192.311C104.516 191.943 104.907 191.173 104.539 190.045C104.172 188.918 103.401 188.527 102.274 188.894C101.795 189.05 101.27 189.411 101.109 189.728Z" fill="#232323"/>
<path d="M114.424 185.381C114.263 185.698 114.281 186.334 114.438 186.813C114.805 187.94 115.576 188.332 116.703 187.964C117.831 187.596 118.222 186.826 117.854 185.698C117.486 184.571 116.716 184.179 115.589 184.547C115.11 184.703 114.585 185.064 114.424 185.381Z" fill="#232323"/>
<path d="M127.759 181.033C127.598 181.351 127.616 181.987 127.772 182.465C128.14 183.593 128.91 183.984 130.038 183.616C131.165 183.249 131.557 182.478 131.189 181.351C130.821 180.223 130.051 179.832 128.923 180.2C128.445 180.356 127.92 180.716 127.759 181.033Z" fill="#232323"/>
<path d="M141.078 176.686C140.916 177.003 140.935 177.64 141.091 178.118C141.459 179.246 142.229 179.637 143.357 179.269C144.484 178.901 144.876 178.131 144.508 177.004C144.14 175.876 143.37 175.485 142.242 175.853C141.764 176.009 141.239 176.369 141.078 176.686Z" fill="#232323"/>
<path d="M154.408 172.34C154.247 172.657 154.266 173.293 154.422 173.772C154.79 174.899 155.56 175.29 156.688 174.923C157.815 174.555 158.206 173.784 157.839 172.657C157.471 171.53 156.7 171.138 155.573 171.506C155.095 171.662 154.569 172.022 154.408 172.34Z" fill="#232323"/>
<path d="M167.727 167.992C167.566 168.31 167.584 168.946 167.741 169.425C168.108 170.552 168.879 170.943 170.006 170.575C171.134 170.208 171.525 169.437 171.157 168.31C170.789 167.182 170.019 166.791 168.891 167.159C168.413 167.315 167.888 167.675 167.727 167.992Z" fill="#232323"/>
<path d="M181.054 163.645C180.893 163.962 180.911 164.598 181.067 165.077C181.435 166.204 182.206 166.595 183.333 166.228C184.461 165.86 184.852 165.089 184.484 163.962C184.116 162.834 183.346 162.443 182.218 162.811C181.74 162.967 181.215 163.327 181.054 163.645Z" fill="#232323"/>
<path d="M194.377 159.297C194.216 159.615 194.234 160.251 194.39 160.729C194.758 161.857 195.529 162.248 196.656 161.88C197.784 161.513 198.175 160.742 197.807 159.615C197.439 158.487 196.669 158.096 195.541 158.464C195.063 158.62 194.538 158.98 194.377 159.297Z" fill="#232323"/>
<path d="M207.703 154.95C207.542 155.267 207.561 155.904 207.717 156.382C208.085 157.509 208.855 157.901 209.983 157.533C211.11 157.165 211.502 156.395 211.134 155.267C210.766 154.14 209.996 153.748 208.868 154.116C208.39 154.272 207.865 154.633 207.703 154.95Z" fill="#232323"/>
<path d="M221.03 150.603C220.869 150.92 220.888 151.557 221.044 152.035C221.412 153.162 222.182 153.554 223.31 153.186C224.437 152.818 224.828 152.048 224.461 150.92C224.093 149.793 223.322 149.402 222.195 149.769C221.717 149.925 221.192 150.286 221.03 150.603Z" fill="#232323"/>
<path d="M78.796 211.747C78.6349 212.064 78.6536 212.701 78.8096 213.179C79.1774 214.307 79.9478 214.698 81.0752 214.33C82.2027 213.962 82.594 213.192 82.2262 212.065C81.8584 210.937 81.088 210.546 79.9606 210.914C79.4822 211.07 78.9572 211.43 78.796 211.747Z" fill="#232323"/>
<path d="M92.1271 207.401C91.9659 207.718 91.9846 208.355 92.1407 208.833C92.5085 209.96 93.2788 210.352 94.4063 209.984C95.5338 209.616 95.9251 208.846 95.5573 207.718C95.1894 206.591 94.4191 206.199 93.2916 206.567C92.8133 206.723 92.2882 207.084 92.1271 207.401Z" fill="#232323"/>
<path d="M105.462 203.053C105.301 203.37 105.319 204.006 105.475 204.485C105.843 205.612 106.614 206.004 107.741 205.636C108.868 205.268 109.26 204.498 108.892 203.37C108.524 202.243 107.754 201.851 106.626 202.219C106.148 202.375 105.623 202.736 105.462 203.053Z" fill="#232323"/>
<path d="M118.777 198.706C118.616 199.023 118.634 199.659 118.79 200.138C119.158 201.265 119.928 201.657 121.056 201.289C122.183 200.921 122.575 200.151 122.207 199.023C121.839 197.896 121.069 197.504 119.941 197.872C119.463 198.028 118.938 198.389 118.777 198.706Z" fill="#232323"/>
<path d="M132.103 194.358C131.942 194.675 131.961 195.312 132.117 195.79C132.485 196.918 133.255 197.309 134.383 196.941C135.51 196.573 135.901 195.803 135.534 194.676C135.166 193.548 134.395 193.157 133.268 193.525C132.79 193.681 132.265 194.041 132.103 194.358Z" fill="#232323"/>
<path d="M145.422 190.011C145.261 190.328 145.28 190.965 145.436 191.443C145.804 192.571 146.574 192.962 147.701 192.594C148.829 192.226 149.22 191.456 148.852 190.329C148.485 189.201 147.714 188.81 146.587 189.178C146.108 189.334 145.583 189.694 145.422 190.011Z" fill="#232323"/>
<path d="M158.757 185.664C158.596 185.982 158.614 186.618 158.771 187.097C159.138 188.224 159.909 188.615 161.036 188.247C162.164 187.88 162.555 187.109 162.187 185.982C161.819 184.854 161.049 184.463 159.922 184.831C159.443 184.987 158.918 185.347 158.757 185.664Z" fill="#232323"/>
<path d="M172.076 181.316C171.915 181.633 171.933 182.27 172.089 182.748C172.457 183.876 173.228 184.267 174.355 183.899C175.482 183.531 175.874 182.761 175.506 181.634C175.138 180.506 174.368 180.115 173.24 180.483C172.762 180.639 172.237 180.999 172.076 181.316Z" fill="#232323"/>
<path d="M185.403 176.969C185.242 177.286 185.26 177.923 185.416 178.401C185.784 179.529 186.554 179.92 187.682 179.552C188.809 179.184 189.201 178.414 188.833 177.287C188.465 176.159 187.695 175.768 186.567 176.136C186.089 176.292 185.564 176.652 185.403 176.969Z" fill="#232323"/>
<path d="M198.721 172.622C198.56 172.94 198.579 173.576 198.735 174.054C199.103 175.182 199.873 175.573 201.001 175.205C202.128 174.838 202.519 174.067 202.151 172.94C201.784 171.812 201.013 171.421 199.886 171.789C199.408 171.945 198.882 172.305 198.721 172.622Z" fill="#232323"/>
<path d="M212.048 168.274C211.887 168.592 211.906 169.228 212.062 169.706C212.43 170.834 213.2 171.225 214.327 170.857C215.455 170.489 215.846 169.719 215.478 168.592C215.111 167.464 214.34 167.073 213.213 167.441C212.734 167.597 212.209 167.957 212.048 168.274Z" fill="#232323"/>
<path d="M225.372 163.928C224.981 164.698 225.562 166.247 226.39 166.582C226.991 166.802 227.151 166.599 227.763 165.114C228.271 163.89 228.32 163.344 227.969 163.081C227.358 162.713 225.741 163.203 225.372 163.928Z" fill="#232323"/>
<path d="M96.4757 220.725C96.3146 221.042 96.3332 221.678 96.4893 222.157C96.8571 223.284 97.6275 223.675 98.7549 223.308C99.8824 222.94 100.274 222.17 99.9059 221.042C99.7498 220.564 99.3895 220.039 99.0723 219.877C98.3926 219.532 96.821 220.045 96.4757 220.725Z" fill="#232323"/>
<path d="M109.795 216.378C109.633 216.695 109.652 217.331 109.808 217.81C110.176 218.937 110.946 219.328 112.074 218.961C113.201 218.593 113.593 217.822 113.225 216.695C113.069 216.217 112.708 215.692 112.391 215.53C111.711 215.185 110.14 215.698 109.795 216.378Z" fill="#232323"/>
<path d="M123.129 212.031C122.968 212.348 122.987 212.984 123.143 213.463C123.511 214.59 124.281 214.981 125.408 214.614C126.536 214.246 126.927 213.475 126.559 212.348C126.403 211.87 126.043 211.345 125.726 211.183C125.046 210.838 123.475 211.351 123.129 212.031Z" fill="#232323"/>
<path d="M136.456 207.683C136.295 208 136.313 208.637 136.47 209.115C136.837 210.243 137.608 210.634 138.735 210.266C139.863 209.898 140.254 209.128 139.886 208C139.73 207.522 139.37 206.997 139.053 206.836C138.373 206.491 136.801 207.003 136.456 207.683Z" fill="#232323"/>
<path d="M149.771 203.336C149.61 203.654 149.628 204.29 149.784 204.768C150.152 205.896 150.923 206.287 152.05 205.919C153.178 205.552 153.569 204.781 153.201 203.654C153.045 203.175 152.685 202.65 152.367 202.489C151.688 202.144 150.116 202.657 149.771 203.336Z" fill="#232323"/>
<path d="M163.094 198.989C162.932 199.306 162.951 199.943 163.107 200.421C163.475 201.548 164.245 201.94 165.373 201.572C166.5 201.204 166.892 200.434 166.524 199.306C166.368 198.828 166.007 198.303 165.69 198.142C165.011 197.796 163.439 198.309 163.094 198.989Z" fill="#232323"/>
<path d="M176.424 194.641C176.263 194.958 176.282 195.595 176.438 196.073C176.806 197.201 177.576 197.592 178.703 197.224C179.831 196.856 180.222 196.086 179.854 194.959C179.698 194.48 179.338 193.955 179.021 193.794C178.341 193.449 176.769 193.962 176.424 194.641Z" fill="#232323"/>
<path d="M189.747 190.294C189.586 190.611 189.605 191.248 189.761 191.726C190.129 192.854 190.899 193.245 192.026 192.877C193.154 192.509 193.545 191.739 193.177 190.612C193.021 190.133 192.661 189.608 192.344 189.447C191.664 189.102 190.092 189.615 189.747 190.294Z" fill="#232323"/>
<path d="M203.074 185.948C202.913 186.265 202.932 186.901 203.088 187.38C203.456 188.507 204.226 188.899 205.353 188.531C206.481 188.163 206.872 187.393 206.504 186.265C206.348 185.787 205.988 185.262 205.671 185.101C204.991 184.755 203.419 185.268 203.074 185.948Z" fill="#232323"/>
<path d="M216.395 181.599C216.027 182.324 216.585 183.919 217.276 184.185C217.662 184.324 218.073 183.963 218.762 182.83C219.601 181.461 219.671 181.211 219.139 180.855C218.38 180.385 216.786 180.829 216.395 181.599Z" fill="#232323"/>
<path d="M114.142 229.702C113.981 230.019 113.933 230.451 114.011 230.69C114.178 231.202 117.266 231.745 117.621 231.327C117.999 230.863 117.373 229.177 116.739 228.855C116.059 228.51 114.488 229.022 114.142 229.702Z" fill="#232323"/>
<path d="M127.474 225.355C127.313 225.672 127.332 226.309 127.488 226.787C127.855 227.914 128.626 228.306 129.753 227.938C130.881 227.57 131.272 226.8 130.904 225.672C130.748 225.194 130.388 224.669 130.071 224.508C129.391 224.162 127.819 224.675 127.474 225.355Z" fill="#232323"/>
<path d="M140.793 221.008C140.631 221.325 140.65 221.962 140.806 222.44C141.174 223.567 141.944 223.959 143.072 223.591C144.199 223.223 144.591 222.453 144.223 221.325C144.067 220.847 143.706 220.322 143.389 220.161C142.71 219.816 141.138 220.328 140.793 221.008Z" fill="#232323"/>
<path d="M154.127 216.661C153.966 216.978 153.985 217.615 154.141 218.093C154.509 219.22 155.279 219.612 156.407 219.244C157.534 218.876 157.925 218.106 157.557 216.978C157.401 216.5 157.041 215.975 156.724 215.814C156.044 215.468 154.473 215.981 154.127 216.661Z" fill="#232323"/>
<path d="M167.45 212.314C167.289 212.631 167.308 213.268 167.464 213.746C167.832 214.874 168.602 215.265 169.73 214.897C170.857 214.529 171.248 213.759 170.88 212.632C170.724 212.153 170.364 211.628 170.047 211.467C169.367 211.122 167.796 211.634 167.45 212.314Z" fill="#232323"/>
<path d="M180.773 207.967C180.612 208.284 180.631 208.92 180.787 209.399C181.155 210.526 181.925 210.918 183.052 210.55C184.18 210.182 184.571 209.412 184.203 208.284C184.047 207.806 183.687 207.281 183.37 207.12C182.69 206.774 181.118 207.287 180.773 207.967Z" fill="#232323"/>
<path d="M194.092 203.619C193.931 203.936 193.949 204.572 194.105 205.051C194.473 206.178 195.243 206.57 196.371 206.202C197.498 205.834 197.89 205.064 197.522 203.936C197.366 203.458 197.005 202.933 196.688 202.772C196.009 202.426 194.437 202.939 194.092 203.619Z" fill="#232323"/>
</svg>
