<svg xmlns="http://www.w3.org/2000/svg" width="42" height="42" fill="none" viewBox="0 0 42 42">
  <path fill="#232323" d="M20.58 40.45c10.715 0 19.4-8.686 19.4-19.4 0-10.714-8.685-19.4-19.4-19.4-10.714 0-19.4 8.686-19.4 19.4 0 10.714 8.686 19.4 19.4 19.4Z"/>
  <path fill="#F1FBFC" d="M20.58 33.13c5.866 0 10.62-4.755 10.62-10.62 0-5.865-4.754-10.62-10.62-10.62-5.865 0-10.62 4.755-10.62 10.62 0 5.865 4.755 10.62 10.62 10.62Z"/>
  <path fill="#C2EDEF" d="M29.72 17.11c.46 6.07-3.23 12.51-11.07 12.51-3.45 0-6.09-1.26-7.93-3.17 1.57 3.91 5.39 6.68 9.86 6.68 5.87 0 10.62-4.76 10.62-10.62 0-1.97-.55-3.81-1.48-5.4Z" opacity=".45"/>
  <path fill="#C2EDEF" d="M17.86 17.37a1.052 1.052 0 0 0-1.05 1.06 1.063 1.063 0 0 0 1.05 1.06 1.06 1.06 0 0 0 0-2.12Zm-.12 12.4c-.06 0-.11 0-.16.02a.7.7 0 0 0-.54.69.709.709 0 0 0 .7.71c.39 0 .71-.32.71-.71 0-.39-.32-.71-.71-.71Zm-.27-2.5c0-.82-.66-1.48-1.48-1.48-.12 0-.23.02-.34.04a1.48 1.48 0 1 0 1.82 1.44Zm-1.36-7.12a2.258 2.258 0 0 0-2.78-2.2 2.262 2.262 0 0 0 .52 4.46c1.25 0 2.26-1.01 2.26-2.26Zm8.41 4.73c-.22 0-.44.03-.64.08-1.23.29-2.16 1.4-2.16 2.72 0 1.32.92 2.43 2.16 2.72.21.05.42.08.64.08 1.54 0 2.8-1.25 2.8-2.8 0-1.55-1.25-2.8-2.8-2.8Zm1.12-4.64c-.14 0-.27.02-.4.05-.78.18-1.36.88-1.36 1.71s.58 1.53 1.36 1.71c.13.03.26.05.4.05.97 0 1.76-.79 1.76-1.76s-.79-1.76-1.76-1.76Zm3.21 2.86a1.127 1.127 0 0 0-1.13 1.13 1.127 1.127 0 0 0 1.13 1.13c.62 0 1.13-.5 1.13-1.13 0-.63-.5-1.13-1.13-1.13Zm-.47-2.55c.6 0 1.08-.48 1.08-1.08a1.076 1.076 0 0 0-1.33-1.05c-.48.11-.83.54-.83 1.05a1.084 1.084 0 0 0 1.08 1.08Zm-11.83-3.91c.1.02.2.04.31.04.75 0 1.36-.61 1.36-1.36 0-.75-.61-1.36-1.36-1.36-.11 0-.21.01-.31.04-.6.14-1.05.68-1.05 1.32s.45 1.18 1.05 1.32Z"/>
  <path fill="#00E2ED" d="M25.49 9.14s-.55.37-.9 1.87c0 0 1.38.07 2.72 1.18.06.05.16.01.15-.07-.08-.58-.43-2.16-1.96-2.98h-.01Z"/>
  <path fill="#05DBDB" d="M25.49 9.14s-.55.37-.9 1.87c0 0 1.38.07 2.72 1.18.06.05.16.01.15-.07-.08-.58-.43-2.16-1.96-2.98h-.01Z" style="mix-blend-mode:multiply"/>
  <mask id="a" width="4" height="4" x="24" y="9" maskUnits="userSpaceOnUse" style="mask-type:luminance">
    <path fill="#fff" d="M25.49 9.14s-.55.37-.9 1.87c0 0 1.38.07 2.72 1.18.06.05.16.01.15-.07-.08-.58-.43-2.16-1.96-2.98h-.01Z"/>
  </mask>
  <g mask="url(#a)">
    <path fill="#05DBDB" d="m28.11 12.54-1.72-.44-1.79-1.03.39-.1s2.23-.55 3.44.63c1.21 1.18-.31.94-.31.94h-.01Z" style="mix-blend-mode:multiply"/>
  </g>
  <path fill="#00E2ED" d="M22.84 15.11h-.06a.258.258 0 0 1-.19-.3c.03-.15.86-3.67 3-6 .1-.1.25-.11.35-.02.1.09.11.25.02.35-2.05 2.24-2.88 5.74-2.88 5.78-.03.12-.13.19-.24.19Zm12.74 6.81a.59.59 0 1 0 0-1.18.59.59 0 0 0 0 1.18ZM6.84 16.66a.57.57 0 1 0 0-1.14.57.57 0 0 0 0 1.14Zm11.53-8.3a.44.44 0 1 0 0-.88.44.44 0 0 0 0 .88Z"/>
  <path fill="#F1FBFC" d="M33.13 13.54c-.15 0-.26.29-.33.57-.08.33-.33.59-.66.66-.29.07-.57.17-.57.33 0 .15.29.26.57.33.33.08.59.33.66.66.07.29.17.57.33.57s.26-.29.33-.57c.08-.33.33-.59.66-.66.29-.07.57-.17.57-.33s-.29-.26-.57-.33a.873.873 0 0 1-.66-.66c-.07-.29-.17-.57-.33-.57ZM6.27 22.48c-.13 0-.21.24-.27.47a.71.71 0 0 1-.54.54c-.23.06-.47.14-.47.27s.24.21.47.27c.27.06.48.27.54.54.06.23.14.47.27.47s.21-.24.27-.47a.71.71 0 0 1 .54-.54c.23-.06.47-.14.47-.27s-.24-.21-.47-.27a.71.71 0 0 1-.54-.54c-.06-.23-.14-.47-.27-.47Zm27.99 3.27c-.11 0-.19.21-.24.41-.06.24-.24.42-.48.48-.21.05-.41.13-.41.24 0 .11.21.19.41.24.24.06.42.24.48.48.05.21.13.41.24.41.11 0 .19-.21.24-.41.06-.24.24-.42.48-.48.21-.05.41-.13.41-.24 0-.11-.21-.19-.41-.24a.651.651 0 0 1-.48-.48c-.05-.21-.13-.41-.24-.41ZM11.39 9.45c-.12 0-.2.22-.25.45a.69.69 0 0 1-.52.52c-.22.05-.45.13-.45.25s.22.2.45.25c.26.06.46.26.52.52.05.22.13.45.25.45s.2-.22.25-.45a.69.69 0 0 1 .52-.52c.22-.05.45-.13.45-.25s-.22-.2-.45-.25a.69.69 0 0 1-.52-.52c-.05-.22-.13-.45-.25-.45Z"/>
</svg>
