<svg xmlns="http://www.w3.org/2000/svg" width="39" height="39" fill="none" viewBox="0 0 39 39">
  <path fill="#232323" d="M19.4 38.8c10.714 0 19.4-8.686 19.4-19.4C38.8 8.686 30.114 0 19.4 0 8.686 0 0 8.686 0 19.4c0 10.714 8.686 19.4 19.4 19.4Z"/>
  <mask id="a" width="39" height="39" x="0" y="0" maskUnits="userSpaceOnUse" style="mask-type:luminance">
    <path fill="#fff" d="M19.4 38.8c10.714 0 19.4-8.686 19.4-19.4C38.8 8.686 30.114 0 19.4 0 8.686 0 0 8.686 0 19.4c0 10.714 8.686 19.4 19.4 19.4Z"/>
  </mask>
  <g mask="url(#a)">
    <path fill="#F1FBFC" d="M39.9 44.9c5.467-5.468 5.467-14.332 0-19.8-5.468-5.467-14.332-5.467-19.8 0-5.467 5.468-5.467 14.332 0 19.8 5.468 5.467 14.332 5.467 19.8 0Z"/>
    <path fill="#F1FBFC" stroke="#232323" stroke-width=".5" d="M40.076 45.076c5.565-5.565 5.565-14.587 0-20.152-5.565-5.565-14.587-5.565-20.152 0-5.565 5.565-5.565 14.587 0 20.152 5.565 5.565 14.587 5.565 20.152 0Z"/>
    <path fill="#C2EDEF" d="M33.486 21.447c6.087 5.23 8.65 14.672 1.343 21.98-3.216 3.216-6.852 4.502-10.347 4.437 5.108 2.181 11.25 1.203 15.418-2.964 5.471-5.472 5.462-14.337 0-19.8a14.07 14.07 0 0 0-6.414-3.653Z" opacity=".45"/>
    <path fill="#C2EDEF" d="M22.673 32.745a1.387 1.387 0 0 0 .01 1.967 1.4 1.4 0 0 0 1.966.009 1.398 1.398 0 0 0-1.976-1.976Zm.961 4.221a2.976 2.976 0 0 0-4.642.54 2.97 2.97 0 0 0 .43 3.673 2.982 2.982 0 0 0 4.212 0 2.976 2.976 0 0 0 0-4.213Zm12.248-3.429a3.518 3.518 0 0 0-.523.671c-.876 1.417-.708 3.319.523 4.55a3.687 3.687 0 0 0 4.548.521c.243-.149.467-.317.672-.522a3.693 3.693 0 0 0 0-5.22 3.685 3.685 0 0 0-5.22 0ZM32.6 28.168c-.13.13-.233.27-.326.419a2.317 2.317 0 0 0 .327 2.862 2.317 2.317 0 0 0 2.861.326 2.31 2.31 0 0 0 .42-.326 2.323 2.323 0 0 0 0-3.282 2.323 2.323 0 0 0-3.281 0Zm5.659-.327a1.485 1.485 0 0 0 0 2.107 1.485 1.485 0 0 0 2.107 0 1.488 1.488 0 0 0 0-2.107 1.48 1.48 0 0 0-2.107 0Zm-2.815-1.938a1.419 1.419 0 0 0 0-2.014 1.418 1.418 0 0 0-2.219.261c-.345.55-.27 1.277.205 1.753a1.428 1.428 0 0 0 2.014 0Zm-14.672 7.382c.112-.075.224-.15.326-.252a1.794 1.794 0 0 0-2.535-2.536 1.387 1.387 0 0 0-.252.327 1.794 1.794 0 0 0 .252 2.209c.596.596 1.52.68 2.209.252Z"/>
  </g>
  <path fill="#00E2ED" d="M8.38 16.26a.5.5 0 1 0 0-1 .5.5 0 0 0 0 1Z"/>
  <path fill="#F1FBFC" d="M10.41 7.99c.18 0 .3.33.38.67.09.38.39.68.77.77.33.08.67.2.67.38s-.33.3-.67.38c-.38.09-.68.39-.77.77-.08.33-.2.67-.38.67s-.3-.33-.38-.67a1.04 1.04 0 0 0-.77-.77c-.33-.08-.67-.2-.67-.38s.33-.3.67-.38c.38-.09.68-.39.77-.77.08-.33.2-.67.38-.67ZM5.29 19.01c.09 0 .16.17.2.35.05.2.2.35.4.4.17.04.35.1.35.2s-.17.16-.35.2c-.2.05-.35.2-.4.4-.04.17-.1.35-.2.35s-.16-.17-.2-.35c-.05-.2-.2-.35-.4-.4-.17-.04-.35-.1-.35-.2s.17-.16.35-.2c.2-.05.35-.2.4-.4.04-.17.1-.35.2-.35Zm26.59-7.78c.13 0 .23.25.29.5.07.29.29.51.58.58.25.06.5.15.5.29 0 .14-.25.23-.5.29a.78.78 0 0 0-.58.58c-.06.25-.15.5-.29.5-.14 0-.23-.25-.29-.5a.78.78 0 0 0-.58-.58c-.25-.06-.5-.15-.5-.29 0-.14.25-.23.5-.29a.78.78 0 0 0 .58-.58c.06-.25.15-.5.29-.5Z"/>
  <path fill="#00E2ED" d="M25.57 7.14a.57.57 0 1 0 0-1.14.57.57 0 0 0 0 1.14Z"/>
  <path fill="#fff" stroke="#232323" stroke-width=".5" d="m27.51 23.375-7.36-12.75a.75.75 0 0 0-1.3 0l-7.36 12.75a.75.75 0 0 0 .649 1.125H26.86a.75.75 0 0 0 .65-1.125Z"/>
  <circle cx="19.5" cy="20.5" r=".5" fill="#232323"/>
  <path stroke="#232323" stroke-linecap="round" d="M19.5 16.5v2"/>
  <path fill="#00E1EC" d="m30.819 17.33.18 1.44c.012.12-.096.22-.24.21l-2.402-.11c-.216 0-.3-.24-.12-.35l2.21-1.33c.144-.09.348-.01.372.14Zm-2.822-1.77c.12.07.144.21.036.29l-.997.88L27 15l.997.56Z"/>
</svg>
