<svg xmlns="http://www.w3.org/2000/svg" width="42" height="42" fill="none" viewBox="0 0 42 42">
  <path fill="#232323" d="M20.48 40.28c10.714 0 19.4-8.686 19.4-19.4 0-10.714-8.686-19.4-19.4-19.4-10.714 0-19.4 8.686-19.4 19.4 0 10.714 8.686 19.4 19.4 19.4Z"/>
  <path fill="#232323" d="M28.4 13.35h-2.11c-.78 0-1.42-.64-1.42-1.42v-2.3a.38.38 0 1 1 .76 0v2.3c0 .37.3.67.67.67h2.11a.38.38 0 1 1 0 .76l-.01-.01Z"/>
  <path fill="#fff" d="M26.29 14.44h2.11v-.05l-3.15-3.3v2.3c0 .58.47 1.04 1.04 1.04v.01Zm.34 6.15-1.65 1.31-1.02-.83-2.09 1.07-3.24-1.07-2.06 1.65-1.85-1.65-1.93 1.17-.3-.21v6.86c0 .82.66 1.48 1.48 1.48h12.95c.82 0 1.48-.66 1.48-1.48v-7.64l-1.77-.67v.01Z"/>
  <path fill="#fff" d="m14.71 19.08 1.85 1.65 2.06-1.65 3.24 1.07 2.09-1.07 1.02.83 1.65-1.31 1.77.67v-4.82h-2.11c-.58 0-1.04-.47-1.04-1.04v-2.3H13.97c-.82 0-1.48.66-1.48 1.48v7.47l.3.21 1.93-1.17-.01-.02Z"/>
  <path fill="#00E1EC" d="m34.02 22.59.15 1.44c.01.12-.08.22-.2.21l-2-.11c-.18 0-.25-.24-.1-.35l1.84-1.33c.12-.09.29-.01.31.14Zm-2.35-1.77c.1.07.12.21.03.29l-.83.88-.03-1.73.83.56Z"/>
  <path fill="#232323" d="M28.07 28.93a3.329 3.329 0 1 1 0-6.66c1.84 0 3.33 1.49 3.33 3.33s-1.49 3.33-3.33 3.33Zm0-5.65c-1.28 0-2.33 1.04-2.33 2.33s1.04 2.33 2.33 2.33 2.33-1.04 2.33-2.33-1.04-2.33-2.33-2.33Z"/>
  <path fill="#00E1EC" d="M28.07 28.44a2.83 2.83 0 1 0 0-5.66 2.83 2.83 0 0 0 0 5.66Z"/>
  <path fill="#F1FBFC" d="M28.26 23.23c1.06 0 1.83.45 2.32 1.1-.47-.91-1.41-1.55-2.51-1.55a2.827 2.827 0 0 0-2.77 3.41c.05-1.5 1.03-2.96 2.95-2.96h.01Z"/>
  <path fill="#05DBDB" d="M30.59 24.36c0 1.53-.99 3.05-2.96 3.05-1.02 0-1.77-.41-2.26-1.02a2.805 2.805 0 0 0 2.7 2.04c1.56 0 2.83-1.26 2.83-2.83 0-.45-.12-.87-.3-1.25l-.01.01Z" style="mix-blend-mode:multiply"/>
  <path fill="#232323" d="M27.11 26.92c-.06 0-.11-.02-.15-.06-.08-.08-.08-.22 0-.31l2.1-2.1c.09-.09.22-.09.31 0s.08.22 0 .31l-2.1 2.1s-.1.06-.15.06h-.01Z"/>
  <path fill="#232323" d="M29.21 26.92c-.06 0-.11-.02-.15-.06l-2.1-2.1c-.08-.08-.08-.22 0-.31s.22-.09.31 0l2.1 2.1c.08.08.08.22 0 .31a.22.22 0 0 1-.15.06h-.01Zm-.81-11.91h-2.11c-.78 0-1.42-.64-1.42-1.42v-2.3a.38.38 0 1 1 .76 0v2.3c0 .37.3.67.67.67h2.11a.38.38 0 1 1 0 .76l-.01-.01Z"/>
  <path fill="#00E2ED" d="M9.08 30.35a.59.59 0 1 0 0-1.18.59.59 0 0 0 0 1.18ZM27.39 7.86a.57.57 0 1 0 0-1.14.57.57 0 0 0 0 1.14Zm-17.28 3.1a.44.44 0 1 0 0-.88.44.44 0 0 0 0 .88Zm17.58 22.26a.44.44 0 1 0 0-.88.44.44 0 0 0 0 .88Z"/>
  <path fill="#fff" d="M6.6 21.4c-.06 0-.11-.02-.15-.06-.08-.08-.08-.22 0-.31l1.82-1.82c.09-.09.22-.09.31 0s.08.22 0 .31l-1.82 1.82s-.1.06-.15.06H6.6Z"/>
  <path fill="#fff" d="M8.42 21.4c-.06 0-.11-.02-.15-.06l-1.82-1.82c-.08-.08-.08-.22 0-.31s.22-.09.31 0l1.82 1.82c.08.08.08.22 0 .31a.22.22 0 0 1-.15.06h-.01ZM19.18 8.41c-.06 0-.11-.02-.15-.06-.08-.08-.08-.22 0-.31l1.47-1.47c.09-.09.22-.09.31 0s.08.22 0 .31l-1.47 1.47s-.1.06-.15.06h-.01Z"/>
  <path fill="#fff" d="M20.65 8.41c-.06 0-.11-.02-.15-.06l-1.47-1.47c-.08-.08-.08-.22 0-.31s.22-.09.31 0l1.47 1.47c.08.08.08.22 0 .31a.22.22 0 0 1-.15.06h-.01Zm-1.64 26.85c-.06 0-.11-.02-.15-.06-.08-.08-.08-.22 0-.31l1.82-1.82c.09-.09.22-.09.31 0s.08.22 0 .31l-1.82 1.82s-.1.06-.15.06h-.01Z"/>
  <path fill="#fff" d="M20.83 35.26c-.06 0-.11-.02-.15-.06l-1.82-1.82c-.08-.08-.08-.22 0-.31s.22-.09.31 0l1.82 1.82c.08.08.08.22 0 .31a.22.22 0 0 1-.15.06h-.01ZM31.61 15.5c-.06 0-.11-.02-.15-.06-.08-.08-.08-.22 0-.31l2.75-2.75c.09-.09.22-.09.31 0s.08.22 0 .31l-2.75 2.75s-.1.06-.15.06h-.01Z"/>
  <path fill="#fff" d="M34.36 15.5c-.06 0-.11-.02-.15-.06l-2.75-2.75c-.08-.08-.08-.22 0-.31s.22-.09.31 0l2.75 2.75c.08.08.08.22 0 .31a.22.22 0 0 1-.15.06h-.01Z"/>
  <path fill="#232323" d="M24.57 14.93h-8.26c-.867 0-1.57.7-1.57 1.565 0 .864.703 1.565 1.57 1.565h8.26c.867 0 1.57-.7 1.57-1.565 0-.864-.703-1.565-1.57-1.565Z"/>
  <path fill="#fff" d="M17.44 17.38h-1.3v-1.81h1.3v.26h-1.03v.51h.78v.26h-.78v.51h1.03v.27Zm1.83 0h-.26v-.78h-.77v.78h-.26v-1.81h1.04v.26h.26v.52h-.26v.25h.26v.78h-.01ZM19 16.34v-.51h-.77v.51H19Zm2.09 1.04h-.26v-.78h-.77v.78h-.26v-1.81h1.04v.26h.26v.52h-.26v.25h.26v.78h-.01Zm-.26-1.04v-.51h-.77v.51h.77Zm2.09.79h-.26v.26h-.78v-.26h-.26v-1.3h.26v-.26h.78v.26h.26v1.3Zm-.26-.01v-1.29h-.77v1.29h.77Zm2.09.26h-.26v-.78h-.77v.78h-.26v-1.81h1.04v.26h.26v.52h-.26v.25h.26v.78h-.01Zm-.27-1.04v-.51h-.77v.51h.77Z"/>
</svg>
