<svg width="49" height="65" viewBox="0 0 49 65" fill="none" xmlns="http://www.w3.org/2000/svg">
<path d="M41.782 35.3845C41.7065 35.3845 41.6282 35.371 41.5527 35.344C41.2019 35.2172 41.0211 34.8313 41.1479 34.4806C43.7112 27.3654 41.7308 19.5892 41.7092 19.5109C41.7011 19.4759 40.7189 15.8414 37.7995 12.3796C33.9195 7.77377 28.6148 5.6233 22.0258 5.98486C21.6642 6.00914 21.335 5.72043 21.3161 5.34808C21.2946 4.97573 21.5806 4.65734 21.953 4.63845C30.7356 4.15547 35.9998 8.13263 38.868 11.554C41.9655 15.2478 42.9719 19.0118 43.0151 19.171C43.1014 19.5056 45.1224 27.4329 42.4161 34.9393C42.319 35.2145 42.06 35.3845 41.782 35.3845Z" fill="#021D30"/>
<path d="M3.96665 37.8992C3.73191 37.8992 3.50525 37.7778 3.38113 37.5593C-1.74815 28.55 -0.976468 17.7625 5.25368 11.3273C5.51271 11.0602 5.93904 11.0521 6.20886 11.3111C6.47598 11.5702 6.48407 11.9965 6.22505 12.2663C0.410419 18.2725 -0.277621 28.3989 4.55756 36.8928C4.74104 37.2166 4.62771 37.6294 4.30393 37.8129C4.1933 37.8696 4.07998 37.8992 3.96665 37.8992Z" fill="#021D30"/>
<path d="M6.61345 13.386C6.42997 13.386 6.24649 13.3104 6.11427 13.1647C0.35631 6.81044 5.05119 0.337451 5.09706 0.272694C5.29673 0.00287389 5.66367 -0.0780699 5.96047 0.0811241C11.4459 3.04915 26.3643 4.7787 26.5127 4.79488C26.8823 4.83806 27.1495 5.17263 27.1063 5.54228C27.0631 5.91194 26.7285 6.17636 26.3589 6.13589C25.7545 6.06574 11.9262 4.46301 5.87145 1.55165C5.00532 3.01677 2.89802 7.60641 7.11261 12.2581C7.36355 12.5333 7.34196 12.9596 7.06675 13.2106C6.93723 13.3293 6.77534 13.386 6.61345 13.386Z" fill="#021D30"/>
<path d="M10.561 16.7615C9.25503 18.7042 6.50016 17.1311 6.34097 19.1872C6.10623 22.2469 12.0369 21.4564 14.3169 18.3184C14.7836 17.6735 15.2396 16.9665 15.2612 16.1706C15.2828 15.3746 14.7324 14.5193 13.9391 14.4626C13.9391 14.4626 12.6197 13.7017 10.561 16.7615Z" fill="#021D30"/>
<path d="M29.8671 14.3598C31.6398 15.8897 33.882 13.6448 34.5782 15.5875C35.6143 18.4773 29.6809 19.2786 26.6562 16.8529C26.0357 16.3565 25.4097 15.7926 25.1776 15.0317C24.9456 14.2708 25.2505 13.2994 26.0006 13.035C26.0006 13.035 27.0745 11.953 29.8671 14.3598Z" fill="#021D30"/>
<path d="M6.68142 34.7962C6.44937 34.3294 6.02845 33.1638 6.66253 31.7553C5.73165 31.097 4.92758 30.212 4.25033 29.1057C3.86989 29.4133 3.5353 29.7776 3.27897 30.1985C3.58387 30.0933 3.90496 30.0474 4.22874 30.0932C6.13368 30.3442 5.33232 31.4747 4.18558 32.152C3.73498 32.4218 3.22501 32.6377 2.69077 32.6431C2.70965 32.8886 2.74743 33.1422 2.80949 33.3985C3.30326 35.9052 6.19034 37.3811 8.52968 36.5716C7.77149 36.229 7.08345 35.6057 6.68142 34.7962Z" fill="#4AB69F"/>
<path d="M7.06721 28.0911C6.49249 28.0992 5.93396 28.2152 5.41321 28.4256C5.97983 29.343 6.6382 30.0742 7.391 30.6193C7.69319 30.2604 8.07363 29.8962 8.54852 29.5292C8.18156 29.3592 7.55019 28.9626 7.06721 28.0911Z" fill="#4AB69F"/>
<path d="M42.4323 29.2405C42.4215 28.976 42.3892 28.7224 42.3379 28.4823C41.8253 28.6226 41.2748 28.5578 40.7676 28.4229C39.4805 28.0883 38.3985 27.2222 40.1578 26.4559C40.4573 26.321 40.7784 26.2778 41.0994 26.294C40.7595 25.9837 40.3709 25.7355 39.9554 25.5493C39.5453 26.5342 39.0029 27.3814 38.3203 28.0883C38.4957 28.3123 38.6441 28.5497 38.7601 28.8033C39.1109 29.5669 38.8222 30.6516 37.9884 31.7039C37.6754 32.1006 37.0521 32.7589 36.0241 33.4119C36.356 33.5684 36.7148 33.6898 37.1007 33.7626C39.8043 34.4264 42.6698 32.0331 42.4323 29.2405Z" fill="#4AB69F"/>
<path d="M35.1635 26.2213C36.0215 26.4749 36.7447 26.7933 37.3221 27.1846C37.8617 26.6314 38.3015 25.965 38.6442 25.1933C37.4462 25.0449 36.178 25.3633 35.1635 26.2213Z" fill="#4AB69F"/>
<path d="M37.9856 31.7067C38.8194 30.6544 39.1108 29.5697 38.7573 28.8061C38.6413 28.5525 38.4929 28.3151 38.3175 28.0911C39.0002 27.3842 39.5425 26.5343 39.9526 25.5521C40.5435 24.1302 40.8511 22.4276 40.8646 20.4498C40.8646 20.2474 40.7756 20.0532 40.6191 19.9236C40.5408 19.8589 32.5515 13.4453 23.6015 19.3192C23.4316 19.4299 23.3209 19.6134 23.2993 19.8157C23.2885 19.9183 23.1698 21.1999 23.4423 22.8377C21.8477 22.576 20.7172 23.1912 20.1559 23.6121C20.0372 21.6667 19.4706 20.1854 19.4274 20.0801C19.3519 19.8913 19.1981 19.7456 19.0038 19.6835C16.4972 18.8875 14.2469 18.7904 12.2745 19.0953C12.0883 19.1088 11.9048 19.1304 11.7267 19.1735C11.6242 19.1978 11.519 19.2275 11.4137 19.2572C5.90402 20.4849 2.81727 24.7912 2.7768 24.8506C2.66078 25.0179 2.62571 25.2283 2.68237 25.4226C3.0898 26.8418 3.61325 28.0695 4.24732 29.1056C4.92457 30.2119 5.73133 31.0996 6.65952 31.7553C6.02814 33.1637 6.44636 34.3293 6.67841 34.7961C7.08044 35.6056 7.76847 36.2289 8.52667 36.5689C8.93679 36.7523 9.36582 36.8549 9.78404 36.8549C10.097 36.8549 10.4019 36.7982 10.6852 36.6795C11.009 36.5419 11.3517 36.38 11.7132 36.2073C12.7494 35.7162 13.9636 35.1469 15.4799 34.7719L15.5447 35.8781C15.5609 36.1668 15.7606 36.4124 16.0385 36.4906C16.6887 36.6687 17.4388 36.7361 18.1943 36.7361C20.2261 36.7361 22.2821 36.2586 22.4008 36.2316C22.7138 36.1587 22.9297 35.8754 22.9216 35.5543L22.9 34.8366C23.1968 34.8933 23.4882 34.9445 23.7742 34.9931L23.9091 36.4906C23.9361 36.7928 24.1627 37.041 24.4623 37.095C24.8265 37.1598 25.2205 37.1868 25.6252 37.1868C27.9349 37.1868 30.6384 36.2883 30.7706 36.2424C31.0648 36.1425 31.2536 35.8592 31.2267 35.5489L31.1943 35.1469C33.3582 34.8015 34.9205 34.1135 36.0213 33.4174C37.0494 32.7644 37.6726 32.1033 37.9856 31.7067ZM39.5101 20.7736C39.467 22.5058 39.1756 23.9817 38.6413 25.1905C38.2986 25.9649 37.8588 26.6314 37.3192 27.1818C36.7418 26.7906 36.0187 26.4722 35.1606 26.2186C35.1309 26.2105 35.104 26.1997 35.0716 26.1916C35.6895 25.6843 36.0402 25.1177 36.2345 24.6401C36.7849 23.2883 36.5502 21.5776 35.5896 19.9398C35.2389 19.3435 34.7856 18.8417 34.2432 18.4423C36.9145 19.0117 38.841 20.2825 39.5101 20.7736ZM28.4799 19.3246C29.1841 18.8687 30.5764 18.5314 31.9714 18.8605C32.7269 19.0386 33.7657 19.4892 34.4294 20.6225C35.1741 21.8933 35.3792 23.1723 34.9879 24.1301C34.6884 24.8668 34.0463 25.4199 33.0884 25.7787C32.0793 25.633 30.946 25.5494 29.686 25.5305C29.6698 25.517 29.6509 25.5035 29.6347 25.49C28.9197 24.8344 28.7227 23.8441 28.8414 23.1993C29.0492 22.0741 30.5305 21.2889 31.5558 21.4562C31.8607 21.5075 32.0847 21.6883 32.2169 21.9959C32.3896 22.3979 32.341 22.862 32.2007 23.0698C32.1575 23.1183 31.9498 23.2343 31.7474 23.2047C31.6557 23.1912 31.537 23.148 31.4317 22.9267C31.2725 22.5895 30.8705 22.4492 30.5332 22.6084C30.1959 22.7675 30.0529 23.1696 30.2148 23.5069C30.5089 24.1248 31.0432 24.5052 31.6772 24.5538C32.3167 24.5996 33.0021 24.3001 33.3151 23.836C33.7414 23.2047 33.8007 22.2522 33.4607 21.4643C33.1478 20.7385 32.538 20.2528 31.7825 20.126C30.1042 19.8481 27.8755 21.0218 27.522 22.9564C27.3655 23.8117 27.549 24.7534 27.9915 25.5413C27.6542 25.5494 27.3116 25.5602 26.9608 25.5764C26.8637 25.3848 26.7665 25.1798 26.6748 24.945C25.6468 22.3224 27.0067 20.2798 28.4799 19.3246ZM24.6241 20.2663C25.2474 19.8751 25.8653 19.5513 26.4751 19.2788C25.528 20.3284 24.8508 21.78 24.9695 23.5123C24.6134 22.1146 24.6052 20.8383 24.6241 20.2663ZM20.1505 25.0799C20.1856 25.0853 20.2207 25.088 20.2558 25.088C20.4365 25.088 20.6173 25.0152 20.7495 24.8749C20.7981 24.8236 21.8801 23.7119 23.7796 24.3055C23.9226 24.7831 24.1061 25.2688 24.3354 25.7491C24.1439 25.7653 23.9523 25.7814 23.758 25.8003C22.3792 25.9325 21.1327 26.0729 20.0021 26.2186C20.075 25.8354 20.1235 25.455 20.1505 25.0799ZM18.2726 20.8707C18.5343 21.6937 19.1684 24.0897 18.5694 26.4209C18.2294 26.4695 17.9002 26.5208 17.5872 26.572C17.9515 25.5548 18.0109 24.4701 17.8571 23.6229C17.625 22.3466 16.9532 21.2188 15.9467 20.3823C16.6914 20.4741 17.4658 20.6306 18.2726 20.8707ZM12.0316 20.4849C12.806 20.3068 13.8206 20.5442 14.6759 21.1082C15.6661 21.7611 16.3245 22.7379 16.5295 23.8576C16.6833 24.6941 16.5511 25.9083 15.9656 26.8472C13.9905 27.2169 12.5983 27.5892 11.6242 27.913C11.0522 27.6675 10.6232 27.2924 10.3641 26.796C9.91624 25.9352 10.0673 24.9369 10.3965 24.373C10.9739 23.3854 12.636 23.1507 13.5426 23.6607C13.8125 23.8118 13.9609 24.06 13.9797 24.3946C14.004 24.829 13.799 25.2499 13.5966 25.3983C13.5399 25.428 13.3079 25.4657 13.1244 25.3686C13.0435 25.3254 12.9436 25.2445 12.922 24.999C12.887 24.6293 12.5605 24.3568 12.1854 24.3919C11.8158 24.4269 11.5433 24.7561 11.5783 25.1285C11.6431 25.8084 12.0155 26.3481 12.5983 26.6098C13.1811 26.8715 13.9285 26.823 14.3818 26.4938C14.997 26.0459 15.3774 25.169 15.3288 24.3136C15.283 23.5257 14.8728 22.8593 14.2064 22.4815C12.7224 21.6478 10.2292 21.9932 9.2363 23.6876C8.60222 24.7723 8.57524 26.2725 9.16884 27.4166C9.39549 27.851 9.70308 28.2233 10.0781 28.5363C9.99989 28.5768 9.92974 28.6146 9.87038 28.6496C9.79753 28.6928 9.73007 28.7333 9.65722 28.7764C9.58976 28.5579 9.41709 28.3798 9.17964 28.3231C9.12298 28.307 7.82245 27.8968 7.76309 25.2715C7.69563 22.5004 10.2805 20.8896 12.0316 20.4849ZM7.39074 30.6166C6.63794 30.0743 5.97957 29.3404 5.41295 28.423C4.8841 27.565 4.43619 26.5477 4.07463 25.3686C4.47667 24.8587 5.4831 23.6903 7.04536 22.603C6.60555 23.4286 6.3897 24.3406 6.41129 25.3039C6.44097 26.5558 6.71349 27.4489 7.06965 28.0884C7.55263 28.9599 8.184 29.3593 8.55096 29.5239C8.07338 29.8935 7.69024 30.2578 7.39074 30.6166ZM16.8614 35.2899L16.8156 34.5128C18.1566 34.3213 19.708 34.2997 21.5401 34.5884L21.5536 35.0282C20.5687 35.2171 18.4318 35.5543 16.8614 35.2899ZM25.2016 35.8241L25.1449 35.1874C26.5426 35.352 27.8026 35.4005 28.9386 35.3601C27.8755 35.6218 26.3969 35.9078 25.2016 35.8241ZM22.7111 33.4282C16.9235 32.2463 13.4401 33.8976 11.1358 34.9877C10.7851 35.1523 10.4559 35.3088 10.1564 35.4356C9.5385 35.6973 8.38906 35.2036 7.8899 34.1971C7.18836 32.7806 8.15162 31.1886 10.5368 29.826C11.2303 29.4294 14.2388 28.0668 23.8875 27.1467C25.1449 27.028 26.9959 26.8904 28.9386 26.8904C32.6135 26.8904 36.6177 27.3761 37.5351 29.3701C37.6025 29.5158 37.5431 30.0959 36.9306 30.8703C35.1282 33.1394 30.4469 35.0039 22.7111 33.4282Z" fill="#021D30"/>
<path d="M20.2315 29.845C20.4878 29.648 20.1856 29.4295 19.8969 29.2865C19.5866 29.1327 19.2628 29.0059 18.9309 28.906C18.6908 28.8359 18.4344 28.7792 18.1916 28.8359C17.9488 28.8952 17.7248 29.103 17.7248 29.3512C17.7248 29.6399 18 29.845 18.2618 29.9691C18.4776 30.0717 18.7178 30.1526 18.9552 30.1256C19.1926 30.0986 19.4058 29.9691 19.6298 29.8801C19.851 29.791 20.0399 29.9907 20.2315 29.845Z" fill="#021D30"/>
<path d="M24.4457 29.0328C24.1759 28.8547 24.4619 28.6146 24.7425 28.4527C25.042 28.2773 25.355 28.1289 25.6787 28.0075C25.9135 27.9211 26.1644 27.8456 26.41 27.8887C26.6555 27.9319 26.893 28.1235 26.9118 28.3717C26.9307 28.6604 26.669 28.8844 26.4181 29.0247C26.2076 29.1407 25.9755 29.2378 25.7381 29.2297C25.498 29.2189 25.2767 29.1056 25.0501 29.0301C24.8234 28.9545 24.6454 29.165 24.4457 29.0328Z" fill="#021D30"/>
<path d="M40.5166 14.5191C40.4087 14.5191 40.3008 14.4949 40.1983 14.4382C39.8691 14.2628 39.7477 13.8527 39.923 13.5262C40.2063 12.9974 40.576 11.4971 39.8637 7.41477C39.6181 6.009 39.3132 4.70308 39.1001 3.85854C34.9691 6.6215 27.7002 6.09265 27.371 6.06837C26.9986 6.03869 26.7234 5.7149 26.7504 5.34255C26.7801 4.9702 27.1039 4.68959 27.4762 4.72197C27.5572 4.72736 35.5897 5.31017 39.0434 2.19915C39.2161 2.04265 39.4589 1.98868 39.6829 2.05344C39.9068 2.1182 40.0822 2.29358 40.1443 2.51753C40.3979 3.41873 42.5889 11.4027 41.1103 14.163C40.9888 14.3896 40.7568 14.5191 40.5166 14.5191Z" fill="#021D30"/>
<path d="M42.605 35.8162C42.3298 35.8162 42.0681 35.6462 41.9709 35.371C41.8441 35.0202 42.0276 34.6344 42.3784 34.5076C43.517 34.0974 45.2681 33.887 46.2449 33.7952C45.8132 32.0306 43.8327 29.3405 43.0152 28.3476C42.829 28.1209 42.8101 27.7998 42.9693 27.5543L46.6604 21.8152C43.7248 18.2401 40.6542 16.4431 40.6245 16.4269C40.3008 16.2407 40.1901 15.8279 40.3763 15.5068C40.5625 15.183 40.9753 15.0724 41.2964 15.2586C41.4394 15.3395 44.8284 17.3146 48.0203 21.3538C48.1984 21.5805 48.2146 21.8934 48.0581 22.1363L44.367 27.8781C45.2762 29.0383 47.6804 32.3004 47.6804 34.4131C47.6804 34.7693 47.4024 35.0634 47.0463 35.0877C47.0193 35.0904 44.2671 35.2657 42.8371 35.7784C42.7588 35.8027 42.6806 35.8162 42.605 35.8162Z" fill="#021D30"/>
<path d="M23.3532 40.4489C22.6679 40.4489 21.9097 40.3033 21.1407 39.885C20.8142 39.7069 20.6928 39.2968 20.8709 38.9703C21.049 38.6439 21.4591 38.5224 21.7856 38.7005C23.5853 39.6827 25.385 38.5413 25.4039 38.5305C25.7169 38.3282 26.1351 38.4172 26.3375 38.7302C26.5398 39.0432 26.4508 39.4614 26.1378 39.6638C26.0676 39.7096 24.8966 40.4489 23.3532 40.4489Z" fill="#021D30"/>
<path d="M14.2121 52.5612C14.1096 52.5612 14.007 52.5369 13.9099 52.491C13.5753 52.3238 13.4404 51.919 13.6077 51.5871C15.3966 48.0093 16.1845 45.5216 16.1926 45.4973C16.4975 44.5044 16.824 42.6021 16.403 41.7333C15.831 40.5515 9.8491 36.9737 7.53134 37.4459C6.8487 37.5862 6.51412 38.2257 5.648 40.055C5.47262 40.4247 5.27835 40.8321 5.0598 41.28C4.81426 41.7819 4.43921 42.6534 3.96162 43.757C3.62165 44.5421 3.23581 45.4406 2.81219 46.3985C2.66109 46.7385 2.26176 46.8923 1.92178 46.7412C1.58181 46.5901 1.42801 46.1907 1.57911 45.8508C2.00003 44.8983 2.38587 44.0052 2.72314 43.2227C3.20612 42.103 3.58928 41.218 3.8483 40.6864C4.06416 40.2439 4.25572 39.8419 4.42841 39.4776C5.36738 37.4971 5.88274 36.4044 7.26152 36.1238C10.2134 35.5194 16.8159 39.4938 17.6172 41.1424C18.4078 42.7694 17.5767 45.5809 17.4796 45.8966C17.4472 46.0046 16.6567 48.5058 14.8138 52.1888C14.6978 52.4236 14.4603 52.5612 14.2121 52.5612Z" fill="#021D30"/>
<path d="M15.2182 45.1005C13.3889 45.1005 7.46632 44.8172 4.91382 41.2799C4.69527 40.9777 4.76542 40.5568 5.06492 40.3382C5.36712 40.1196 5.78804 40.1898 6.00659 40.4893C8.5564 44.0266 15.623 43.7433 15.6931 43.7433C16.0736 43.7244 16.3812 44.0132 16.3974 44.3855C16.4136 44.7579 16.1276 45.0735 15.7552 45.0897C15.712 45.0924 15.5204 45.1005 15.2182 45.1005Z" fill="#021D30"/>
<path d="M33.8013 51.3389C33.5827 51.3389 33.3669 51.231 33.2374 51.0341C30.9763 47.5912 29.8997 45.1978 29.8538 45.098C29.7189 44.7931 28.5668 42.1003 29.1604 40.3923C29.7621 38.6601 35.8492 33.9355 38.855 34.1946C40.2581 34.3133 40.8975 35.3359 42.0632 37.195C42.279 37.5376 42.5138 37.9154 42.7809 38.3282C43.102 38.8274 43.5877 39.6638 44.2002 40.7242C44.6265 41.4608 45.1121 42.3 45.6383 43.1931C45.8272 43.5142 45.7219 43.927 45.4008 44.1159C45.0798 44.3047 44.667 44.1995 44.4781 43.8784C43.9492 42.9826 43.4609 42.1381 43.0318 41.3988C42.4275 40.3546 41.9499 39.5289 41.645 39.0567C41.3751 38.6385 41.135 38.2554 40.9191 37.91C39.8452 36.1939 39.4378 35.5976 38.7417 35.5383C36.3889 35.3386 30.8656 39.5937 30.4339 40.8348C30.1182 41.7468 30.666 43.5978 31.0869 44.5503C31.095 44.5719 32.1689 46.949 34.3652 50.2947C34.5703 50.605 34.4839 51.0233 34.1709 51.2283C34.0576 51.3039 33.9281 51.3389 33.8013 51.3389Z" fill="#021D30"/>
<path d="M31.4241 44.0998C31.0733 44.0998 30.7792 43.83 30.7522 43.4738C30.7252 43.1014 31.0058 42.7804 31.3755 42.7534C31.4456 42.748 38.5014 42.1921 40.6141 38.3904C40.7949 38.0639 41.205 37.9479 41.5315 38.1287C41.858 38.3094 41.974 38.7196 41.7932 39.046C39.3244 43.4873 31.791 44.0782 31.4726 44.0998C31.4564 44.0998 31.4403 44.0998 31.4241 44.0998Z" fill="#021D30"/>
<path d="M23.124 47.9823C20.7981 47.9823 18.9498 47.5452 18.8176 47.5128C18.4561 47.4238 18.2348 47.0595 18.3212 46.698C18.4075 46.3364 18.7745 46.1124 19.136 46.2015C19.19 46.215 24.4866 47.4615 28.1696 45.6214C28.5042 45.4541 28.9089 45.589 29.0735 45.9236C29.2408 46.2581 29.1059 46.6629 28.7713 46.8275C26.9797 47.7233 24.9102 47.9823 23.124 47.9823Z" fill="#021D30"/>
<path d="M23.9606 52.7554C23.8445 52.7554 23.7312 52.7258 23.626 52.6664L18.0866 49.5014C17.7628 49.3152 17.6495 48.9051 17.8356 48.5813C18.0218 48.2575 18.432 48.1442 18.7557 48.3304L23.9201 51.2822L28.7904 47.8123C29.0926 47.5965 29.5162 47.6666 29.732 47.9715C29.9479 48.2737 29.8777 48.6973 29.5728 48.9132L24.3518 52.6313C24.2358 52.7123 24.0982 52.7554 23.9606 52.7554Z" fill="#021D30"/>
<path d="M19.8998 54.8491C19.8135 54.8491 19.7245 54.8464 19.6354 54.841C18.2 54.7466 16.9372 53.8886 15.8795 52.2912C15.6744 51.9809 15.7581 51.5627 16.0711 51.3577C16.3814 51.1526 16.7996 51.2362 17.0047 51.5492C17.8141 52.7715 18.7261 53.4272 19.7191 53.4946C21.543 53.6134 23.197 51.7732 23.2159 51.7543C23.4615 51.4737 23.8878 51.4467 24.1684 51.6922C24.449 51.9378 24.4787 52.3614 24.2332 52.642C24.1495 52.7337 22.277 54.8491 19.8998 54.8491Z" fill="#021D30"/>
<path d="M27.9079 54.6468C25.6388 54.6468 23.7122 52.893 23.6232 52.812C23.3507 52.5584 23.3318 52.1321 23.5854 51.8596C23.8391 51.5871 24.2627 51.5682 24.5379 51.8191C24.5568 51.838 26.4806 53.5783 28.3828 53.2572C29.3758 53.09 30.2311 52.3614 30.9192 51.0906C31.0972 50.7641 31.5074 50.6427 31.8338 50.8181C32.1603 50.9961 32.2817 51.4036 32.1064 51.7328C31.2079 53.3895 30.0287 54.35 28.6014 54.5875C28.3666 54.6306 28.1346 54.6468 27.9079 54.6468Z" fill="#021D30"/>
<path d="M15.4155 61.8537C15.3346 61.8537 15.2509 61.8402 15.17 61.8079C14.8219 61.6729 14.6519 61.2817 14.7869 60.9336L17.5552 53.8131C17.6901 53.465 18.0814 53.2923 18.4294 53.4299C18.7775 53.5648 18.9475 53.9561 18.8126 54.3042L16.0442 61.4247C15.939 61.6918 15.6854 61.8537 15.4155 61.8537Z" fill="#021D30"/>
<path d="M33.6148 61.538C33.3477 61.538 33.0941 61.3788 32.9888 61.1144L30.0613 53.8346C29.921 53.4893 30.091 53.0953 30.4363 52.9577C30.7817 52.8174 31.1757 52.9874 31.3133 53.3328L34.2408 60.6125C34.3811 60.9579 34.2111 61.3518 33.8658 61.4894C33.7848 61.5218 33.6985 61.538 33.6148 61.538Z" fill="#021D30"/>
<path d="M15.3397 64.1284C15.3074 64.1284 15.2777 64.1257 15.248 64.123C15.2318 64.1203 15.2048 64.1203 15.1724 64.1203C14.8136 64.1041 13.9717 64.0663 13.4321 63.3864C13.0382 62.8926 12.9221 62.1938 13.084 61.3142C13.1434 60.9877 13.4375 60.7502 13.7694 60.7637C15.078 60.8042 16.7374 60.9958 17.2258 61.6784C17.4848 62.04 17.4875 62.4906 17.2339 62.9142C16.9047 63.4646 15.9441 64.1284 15.3397 64.1284ZM14.3657 62.1479C14.3765 62.3233 14.4197 62.4582 14.4898 62.5472C14.649 62.7469 15.0294 62.7631 15.2345 62.7739C15.2669 62.7766 15.2966 62.7766 15.3235 62.7793C15.48 62.728 15.7472 62.5553 15.9226 62.4015C15.5853 62.2936 14.9998 62.1992 14.3657 62.1479Z" fill="#021D30"/>
<path d="M33.7633 63.9422C33.5609 63.9422 33.3477 63.9098 33.1319 63.8262C32.541 63.5995 32.0877 63.0572 31.7828 62.218C31.6695 61.905 31.8017 61.5543 32.0931 61.3951C33.2398 60.7664 34.7697 60.0892 35.536 60.4291C35.9407 60.6099 36.1728 60.9958 36.1701 61.4895C36.1674 62.1641 35.6223 63.3027 35.0719 63.5402C35.0557 63.5483 35.0341 63.559 35.0045 63.5752C34.7697 63.6967 34.311 63.9422 33.7633 63.9422ZM33.3073 62.2828C33.4071 62.4285 33.5097 62.5229 33.6149 62.5634C33.8523 62.6552 34.1896 62.4771 34.3704 62.3799C34.4 62.3637 34.4243 62.3502 34.4486 62.3395C34.5565 62.2153 34.6995 61.932 34.7724 61.7108C34.4324 61.7917 33.8766 62.0076 33.3073 62.2828Z" fill="#021D30"/>
</svg>
