<svg xmlns="http://www.w3.org/2000/svg" width="42" height="42" fill="none" viewBox="0 0 42 42">
  <path fill="#232323" d="M20.56 40.5c10.715 0 19.4-8.686 19.4-19.4 0-10.714-8.686-19.4-19.4-19.4-10.714 0-19.4 8.686-19.4 19.4 0 10.714 8.686 19.4 19.4 19.4Z"/>
  <path fill="#00E1EC" d="m19.92 16.24-4.14-2.73-8.01 3.31 4.08 2.8 8.07-3.38Z"/>
  <path fill="#05DBDB" d="m9.91 18.28 1.95 1.34 8.07-3.39-.65-.43c-1.81.87-8.16 2.18-9.36 2.48h-.01Z" style="mix-blend-mode:multiply"/>
  <path fill="#F1FBFC" d="M16.19 14.81c.46-.12.9-.17 1.32-.16l-1.73-1.14-8.01 3.31.86.59c2.47-1 4.96-1.92 7.56-2.6Z"/>
  <path fill="#232323" d="M11.85 20.09a.47.47 0 0 1-.26-.08l-4.08-2.8a.47.47 0 0 1 .09-.82l8.01-3.31a.49.49 0 0 1 .44.04l4.14 2.72c.14.1.22.26.21.43-.02.17-.12.32-.28.39l-8.07 3.39c-.06.02-.12.04-.18.04h-.02Zm-3.1-3.17 3.16 2.17 7.02-2.95-3.2-2.1-6.98 2.88Z"/>
  <path fill="#00E1EC" d="m29.41 19.76 4.35-3.19-9.75-3.84-4.09 3.51"/>
  <path fill="#05DBDB" d="M31.19 15.61s.02-.03.03-.04l-7.21-2.83-4.09 3.5 9.35 3.47c.55-1.41 1.18-2.78 1.91-4.1h.01Z" style="mix-blend-mode:multiply"/>
  <path fill="#232323" d="M29.41 20.22a.463.463 0 0 1-.28-.84l3.66-2.69-8.69-3.42-3.88 3.32c-.2.17-.49.15-.66-.05-.17-.2-.15-.49.05-.66l4.09-3.5a.49.49 0 0 1 .48-.08l9.75 3.83c.16.06.27.21.29.38.02.17-.05.34-.19.44l-4.35 3.19c-.08.06-.18.09-.28.09l.01-.01Z"/>
  <path fill="#00E1EC" d="m11.41 19.93 8.51-3.69 9.66 3.69-8.81 4.17-9.36-4.17Z"/>
  <path fill="#232323" d="M20.77 24.57c-.06 0-.13-.01-.19-.04l-9.36-4.17a.471.471 0 0 1 0-.86l8.51-3.7c.11-.05.24-.05.35 0l9.65 3.7a.466.466 0 0 1 .03.86l-8.8 4.17c-.06.03-.13.04-.2.04h.01Zm-8.2-4.63 8.19 3.65 7.62-3.61-8.45-3.24-7.36 3.2Z"/>
  <path fill="#05DBDB" d="M26.99 18.94c-.31.33-.69.64-1.15.91-3.86 2.24-9.25 1.31-13.56-.29l-.86.38 9.36 4.17 8.8-4.17-2.59-.99v-.01Z" style="mix-blend-mode:multiply"/>
  <path fill="#232323" d="M20.77 24.57c-.06 0-.13-.01-.19-.04l-9.36-4.17a.471.471 0 0 1 0-.86l8.51-3.7c.11-.05.24-.05.35 0l9.65 3.7a.466.466 0 0 1 .03.86l-8.8 4.17c-.06.03-.13.04-.2.04h.01Zm-8.2-4.63 8.19 3.65 7.62-3.61-8.45-3.24-7.36 3.2Z"/>
  <path fill="#fff" d="M26.94 14.67a1.89 1.89 0 1 0 0-3.78 1.89 1.89 0 0 0 0 3.78Z"/>
  <path fill="#fff" d="M17.85 23.7c-.49 0-.96-.19-1.3-.54-.72-.72-.72-1.89 0-2.6L24 13.11c.35-.35.81-.54 1.3-.54s.95.19 1.3.54c.35.35.54.81.54 1.3s-.19.96-.54 1.3l-7.45 7.45c-.35.35-.81.54-1.3.54Z"/>
  <path fill="#fff" d="M21.78 22.65c-.49 0-.96-.19-1.3-.54l-1.27-1.27c-.72-.72-.72-1.89 0-2.6.72-.72 1.89-.72 2.61 0l1.27 1.27c.35.35.54.81.54 1.3s-.19.96-.54 1.3c-.35.35-.81.54-1.3.54h-.01Zm3.52-5.13c-.49 0-.96-.19-1.3-.54l-1.27-1.27c-.72-.72-.72-1.89 0-2.6.72-.72 1.89-.72 2.61 0l1.27 1.27c.35.35.54.81.54 1.3s-.19.96-.54 1.3c-.35.35-.81.54-1.3.54h-.01Z"/>
  <path fill="#fff" d="M20.2 24.23c-.49 0-.96-.19-1.3-.54l-1.27-1.27c-.35-.35-.54-.81-.54-1.3s.19-.95.54-1.3c.7-.7 1.91-.69 2.61 0l1.27 1.27c.72.72.72 1.89 0 2.6-.35.35-.81.54-1.3.54h-.01Zm6.74-7.58c-1.04 0-2.01-.4-2.74-1.14-.73-.73-1.13-1.7-1.13-2.74 0-1.04.4-2.01 1.13-2.74 1.46-1.46 4.01-1.46 5.48 0 .73.73 1.13 1.71 1.13 2.74 0 1.03-.4 2.01-1.13 2.74-.73.73-1.71 1.14-2.74 1.14Zm0-4.06c-.05 0-.1.02-.13.05-.04.04-.06.08-.06.14 0 .06.02.1.06.14.05.05.22.05.27 0 .04-.04.06-.08.06-.14 0-.06-.02-.1-.06-.14a.166.166 0 0 0-.13-.05h-.01Z"/>
  <path fill="#232323" d="M17.85 22.51a.646.646 0 0 1-.46-1.1l7.45-7.45c.25-.25.66-.25.91 0s.25.66 0 .91l-7.45 7.45c-.13.13-.29.19-.46.19h.01Z"/>
  <path fill="#232323" d="M21.78 21.45c-.16 0-.33-.06-.46-.19l-1.27-1.27a.646.646 0 0 1 0-.91c.25-.25.66-.25.91 0l1.27 1.27a.646.646 0 0 1-.46 1.1h.01Zm3.52-5.12c-.16 0-.33-.06-.46-.19l-1.27-1.27a.646.646 0 0 1 0-.91c.25-.25.66-.25.91 0l1.27 1.27a.646.646 0 0 1-.46 1.1h.01Zm-5.1 6.7c-.16 0-.33-.06-.46-.19l-1.27-1.27a.646.646 0 0 1 0-.91c.25-.25.66-.25.91 0l1.27 1.27a.646.646 0 0 1-.46 1.1h.01Z"/>
  <path fill="#00E1EC" d="M26.94 15.45c-.72 0-1.39-.28-1.89-.78-.51-.51-.78-1.18-.78-1.89s.28-1.39.78-1.89 1.18-.78 1.89-.78 1.39.28 1.89.78.78 1.18.78 1.89-.28 1.39-.78 1.89c-.51.51-1.18.78-1.89.78Zm0-4.06c-.37 0-.72.14-.98.41-.26.26-.41.61-.41.98s.14.72.41.98c.52.52 1.44.52 1.96 0 .26-.26.41-.61.41-.98s-.14-.72-.41-.98c-.26-.26-.61-.41-.98-.41Z"/>
  <path fill="#05DBDB" d="m28.74 10.81-.91.91s.06.05.09.07c.26.26.41.61.41.98s-.14.72-.41.98c-.52.52-1.44.52-1.96 0a.55.55 0 0 1-.07-.09l-.91.91s.05.06.07.09c.51.51 1.18.78 1.89.78s1.39-.28 1.89-.78c.51-.51.78-1.18.78-1.89s-.28-1.39-.78-1.89a.55.55 0 0 0-.09-.07Z" style="mix-blend-mode:multiply"/>
  <path fill="#00E1EC" d="m20.77 33.02-9.18-3.72v-8.84l9.18 3.64v8.92Z"/>
  <path fill="#00E1EC" d="m20.68 33.02 8.9-3.72v-9.37l-8.9 4.62v8.47Z"/>
  <path fill="#05DBDB" d="M20.77 30.99V24.1l-9.18-3.64v7.02l9.18 3.51Z" style="mix-blend-mode:multiply"/>
  <path fill="#05DBDB" d="M20.68 24.55v7.1s8.8-4.08 8.9-4.11v-7.6l-8.9 4.61Z" style="mix-blend-mode:multiply"/>
  <path fill="#232323" d="M20.77 33.49c-.06 0-.12-.01-.18-.03l-9.19-3.72a.455.455 0 0 1-.29-.43v-8.84c0-.16.08-.3.21-.39a.46.46 0 0 1 .44-.05l9.19 3.64c.18.07.29.24.29.44v8.92a.47.47 0 0 1-.47.47v-.01Zm-8.72-4.5 8.25 3.34v-7.91l-8.25-3.27v7.84Z"/>
  <path fill="#232323" d="M20.68 33.49a.47.47 0 0 1-.47-.47v-8.47c0-.17.1-.33.25-.42l8.9-4.61c.15-.08.32-.07.46.02.14.08.22.24.22.4v9.37c0 .19-.11.36-.29.43l-8.9 3.72c-.06.02-.12.04-.18.04l.01-.01Zm.47-8.66v7.48l7.96-3.33v-8.29l-7.96 4.13v.01Z"/>
  <path fill="#00E1EC" d="m20.77 24.1 4.94 3.38 8.05-4.33-4.3-3.26"/>
  <path fill="#05DBDB" d="M21.47 24.06c1.4-.33 9.15-2.67 9.93-2.7l-1.94-1.47-8.69 4.21.2.14c.16-.06.32-.14.5-.18Z" style="mix-blend-mode:multiply"/>
  <path fill="#F1FBFC" d="M32.54 22.23c-.35.44-.77.83-1.29 1.1-2.25 1.18-4.55 2.3-6.92 3.21l1.37.94 8.04-4.33-1.21-.92h.01Z"/>
  <path fill="#232323" d="M25.71 27.95a.47.47 0 0 1-.26-.08l-4.94-3.38a.467.467 0 0 1 .53-.77l4.7 3.22 7.15-3.85-3.71-2.83a.466.466 0 0 1-.09-.66c.16-.21.45-.24.66-.09l4.29 3.27c.13.1.2.25.18.41-.02.16-.1.3-.25.38l-8.04 4.33c-.07.04-.15.06-.22.06v-.01Z"/>
  <path fill="#00E1EC" d="m20.59 24.1-5.25 3.54-8.97-4.27 5.04-3.44"/>
  <path fill="#05DBDB" d="m19 25.17 1.58-1.07-9.18-4.17-1.61 1.1c3.14 1.18 6.21 2.59 9.2 4.14H19Z" style="mix-blend-mode:multiply"/>
  <path fill="#F1FBFC" d="m7.78 22.4-1.42.96 8.98 4.28L17 26.52c-6-1.5-8.7-3.66-9.22-4.12Z"/>
  <path fill="#232323" d="M15.34 28.11c-.07 0-.14-.01-.2-.04L6.16 23.8a.489.489 0 0 1-.27-.39c-.01-.17.06-.33.2-.42l5.04-3.43c.21-.14.51-.09.65.12.15.21.09.51-.12.65L7.29 23.3l8 3.81 5.02-3.39c.21-.15.5-.09.65.13.15.21.09.51-.13.65l-5.24 3.54c-.08.05-.17.08-.26.08l.01-.01Z"/>
  <path fill="#232323" d="M20.77 24.57c-.06 0-.13-.01-.19-.04l-9.36-4.17c-.24-.1-.34-.38-.24-.62.1-.24.38-.34.62-.24l9.17 4.08 8.61-4.08c.23-.11.51-.01.62.22.11.23.01.51-.22.62l-8.8 4.17c-.06.03-.13.04-.2.04l-.01.02Z"/>
  <path fill="#00E2ED" d="M11.09 11.77a.5.5 0 1 0 0-1 .5.5 0 0 0 0 1ZM32.48 28.9a.51.51 0 1 0 0-1.02.51.51 0 0 0 0 1.02Z"/>
  <path fill="#F1FBFC" d="M18.14 7.83c.18 0 .3.33.38.67.09.38.39.68.77.77.33.08.67.2.67.38s-.33.3-.67.38c-.38.09-.68.39-.77.77-.08.33-.2.67-.38.67s-.3-.33-.38-.67a1.04 1.04 0 0 0-.77-.77c-.33-.08-.67-.2-.67-.38s.33-.3.67-.38c.38-.09.68-.39.77-.77.08-.33.2-.67.38-.67ZM6.58 17.78c.09 0 .16.17.2.35.05.2.2.35.4.4.17.04.35.1.35.2s-.17.16-.35.2c-.2.05-.35.2-.4.4-.04.17-.1.35-.2.35s-.16-.17-.2-.35c-.05-.2-.2-.35-.4-.4-.17-.04-.35-.1-.35-.2s.17-.16.35-.2c.2-.05.35-.2.4-.4.04-.17.1-.35.2-.35ZM34 18.79c.13 0 .23.25.29.5.07.29.29.51.58.58.25.06.5.15.5.29 0 .14-.25.23-.5.29a.78.78 0 0 0-.58.58c-.06.25-.15.5-.29.5-.14 0-.23-.25-.29-.5a.78.78 0 0 0-.58-.58c-.25-.06-.5-.15-.5-.29 0-.14.25-.23.5-.29a.78.78 0 0 0 .58-.58c.06-.25.15-.5.29-.5ZM26.51 32.1c.09 0 .15.17.19.34.05.2.2.35.39.39.17.04.34.1.34.19s-.17.15-.34.19c-.2.05-.35.2-.39.39-.04.17-.1.34-.19.34s-.15-.17-.19-.34c-.05-.2-.2-.35-.39-.39-.17-.04-.34-.1-.34-.19s.17-.15.34-.19c.2-.05.35-.2.39-.39.04-.17.1-.34.19-.34Z"/>
</svg>
