<svg width="83" height="75" viewBox="0 0 83 75" fill="none" xmlns="http://www.w3.org/2000/svg">
<path d="M67.0342 53.9511C66.8156 53.9511 66.5998 53.8431 66.4703 53.6489C66.2652 53.3386 66.3515 52.9204 66.6618 52.7153C74.3625 47.64 79.5889 40.5221 80.9947 33.1857C81.1593 32.3277 80.9947 31.5506 80.5333 30.9975C79.2139 29.4163 76.4455 26.6237 72.7409 25.6955C71.7291 25.4419 70.6822 25.8736 70.1317 26.7721C69.8511 27.2335 69.5273 27.8001 69.155 28.4531C68.591 29.4433 67.8895 30.6737 67.0693 31.9877C66.8723 32.3034 66.4568 32.4005 66.1411 32.2035C65.8254 32.0066 65.7282 31.5911 65.9252 31.2754C66.7293 29.9829 67.3957 28.8173 67.9839 27.7866C68.3617 27.1228 68.6909 26.5481 68.9823 26.0705C69.8403 24.6675 71.4835 23.9902 73.0701 24.3896C77.1443 25.4122 80.1447 28.4288 81.5694 30.134C82.2952 31.0029 82.5623 32.1793 82.3195 33.442C80.8463 41.1346 75.4094 48.5709 67.4065 53.8458C67.2905 53.9133 67.161 53.9511 67.0342 53.9511Z" fill="#F0F3F5"/>
<path d="M81.2944 33.3907C79.7402 33.3907 73.3023 33.0319 69.5734 27.2928C69.371 26.9798 69.4601 26.5616 69.7703 26.3592C70.0833 26.1569 70.5016 26.2432 70.7039 26.5562C74.4463 32.3141 81.4886 32.0362 81.5615 32.0362C81.9419 32.02 82.2495 32.3061 82.2684 32.6757C82.2873 33.0481 82.0013 33.3637 81.6289 33.3826C81.5939 33.3853 81.4806 33.3907 81.2944 33.3907Z" fill="#F0F3F5"/>
<path d="M79.2897 38.493C69.6193 38.493 66.9157 30.4119 66.8887 30.3283C66.7754 29.9748 66.9697 29.5944 67.3258 29.481C67.6793 29.3677 68.0598 29.562 68.1731 29.9154C68.2756 30.2284 70.7715 37.5621 80.0803 37.125C80.4607 37.1035 80.7683 37.3949 80.7872 37.7672C80.8061 38.1396 80.5174 38.4553 80.145 38.4741C79.8536 38.4876 79.5676 38.493 79.2897 38.493Z" fill="#F0F3F5"/>
<path d="M16.2909 53.8348C16.1641 53.8348 16.0346 53.7998 15.9213 53.7242C7.91573 48.4492 2.48155 41.013 1.00833 33.3204C0.765493 32.0577 1.03261 30.8812 1.75843 30.0124C2.38441 29.2623 5.74638 25.4659 10.5303 24.2679C12.1195 23.8713 13.76 24.5459 14.6181 25.9489C14.9095 26.4265 15.2386 27.0012 15.6164 27.6677C16.2046 28.6984 16.8684 29.864 17.6724 31.1564C17.8694 31.4721 17.7723 31.8877 17.4566 32.0846C17.1409 32.2816 16.7254 32.1845 16.5284 31.8688C15.7108 30.5548 15.0066 29.3244 14.4427 28.3368C14.0703 27.6812 13.7465 27.1145 13.4659 26.6531C12.9182 25.7546 11.8686 25.3229 10.8595 25.5766C7.46513 26.4265 4.39458 28.9655 2.79724 30.8785C2.33585 31.4317 2.17126 32.2088 2.33585 33.0668C3.74161 40.4032 8.96533 47.5211 16.6687 52.5964C16.979 52.8014 17.0653 53.2197 16.8603 53.53C16.7254 53.7269 16.5095 53.8348 16.2909 53.8348Z" fill="#F0F3F5"/>
<path d="M2.3788 33.0586C2.02264 33.0586 1.72583 32.7807 1.70695 32.4192C1.68806 32.0468 1.97137 31.7284 2.34373 31.7095C2.44626 31.7041 9.24303 31.2428 12.265 25.3823C12.435 25.0504 12.8424 24.9209 13.1743 25.0909C13.5062 25.2608 13.6357 25.6683 13.4657 26.0002C10.0741 32.573 2.72687 33.0398 2.41658 33.056C2.40308 33.0587 2.3923 33.0586 2.3788 33.0586Z" fill="#F0F3F5"/>
<path d="M3.13131 37.9992C2.77784 37.9992 2.48105 37.724 2.45946 37.3678C2.43518 36.9954 2.71849 36.6771 3.09084 36.6528C3.18797 36.6474 12.7342 35.9647 15.0034 29.8884C15.1329 29.5403 15.5242 29.3622 15.8722 29.4917C16.2203 29.6213 16.3984 30.0098 16.2689 30.3606C15.1923 33.2395 12.5723 35.4764 8.68691 36.8255C5.81332 37.8238 3.28241 37.9938 3.17718 37.9992C3.16099 37.9992 3.1475 37.9992 3.13131 37.9992Z" fill="#F0F3F5"/>
<path d="M27.618 34.71C27.5452 34.4294 27.5721 34.1433 27.7017 33.8304C27.9094 33.3204 28.3735 32.8644 29.0076 32.5406C28.7324 32.2573 28.4113 32.001 28.0416 31.7824C25.589 30.2633 22.5751 31.2401 21.3123 33.3797C21.6361 33.261 21.9788 33.2071 22.3295 33.2502C24.3748 33.485 23.5383 34.7127 22.3214 35.4574C21.8412 35.7542 21.2988 35.9943 20.7295 36.0105C20.7538 36.2749 20.7997 36.5421 20.8698 36.8173C21.5012 39.7556 25.1896 41.3125 27.7583 39.7853C29.2126 39.019 30.0491 37.6699 30.2326 36.2506C27.9013 35.6327 27.6369 34.7801 27.618 34.71Z" fill="#4AB69F"/>
<path d="M63.2799 31.6611C63.2637 31.3778 63.2232 31.1079 63.1638 30.8489C62.6161 31.0081 62.0252 30.9488 61.4775 30.8138C60.0906 30.4793 58.9142 29.57 60.7894 28.7173C61.1078 28.5662 61.4505 28.515 61.7958 28.5258C59.9395 26.8852 56.7826 26.8798 54.9154 29.0627C57.271 29.6806 57.8079 30.6061 57.816 30.6223C57.8538 30.7032 57.8888 31.0324 57.5893 31.5531C57.3141 32.0307 56.4885 33.0857 54.2598 34.1326C54.8884 35.3657 56.0756 36.3344 57.6406 36.6069C60.5547 37.2679 63.5848 34.6507 63.2799 31.6611Z" fill="#4AB69F"/>
<path d="M58.1586 45.0171C57.9832 45.0171 57.8051 44.947 57.6729 44.8121C57.4139 44.5449 57.422 44.1159 57.6891 43.8596C66.3206 35.5329 62.6808 21.0841 62.6457 20.9384C62.6349 20.9006 61.5826 16.9963 58.4473 13.2755C54.2759 8.32158 48.5665 6.0119 41.4891 6.39775C41.1221 6.42473 40.7984 6.13333 40.7795 5.76098C40.7579 5.38862 41.0439 5.07023 41.4162 5.05135C50.8087 4.53329 56.4479 8.79107 59.5158 12.4498C62.8292 16.4027 63.9085 20.4284 63.9516 20.5984C63.9921 20.7549 64.9473 24.4649 64.7881 29.3136C64.5776 35.7812 62.446 41.1452 58.6281 44.8309C58.4959 44.9551 58.3286 45.0171 58.1586 45.0171Z" fill="#F0F3F5"/>
<path d="M40.3266 51.1286C34.4013 51.1286 29.5337 49.3909 25.8399 45.9453C18.7625 39.3509 18.4549 28.9008 18.4414 27.9591C18.3146 27.1307 17.2138 18.7339 23.5356 12.2043C23.7947 11.9372 24.221 11.9291 24.4908 12.1881C24.7579 12.4471 24.766 12.8734 24.507 13.1433C18.4765 19.3707 19.7689 27.7082 19.7824 27.7918C19.7878 27.8269 19.7905 27.862 19.7905 27.8997C19.7905 28.005 19.9362 38.6062 26.7681 44.9659C30.6076 48.541 35.8475 50.1383 42.3448 49.712C42.7064 49.6904 43.0383 49.9683 43.0625 50.3407C43.0868 50.713 42.8062 51.0341 42.4339 51.0584C41.7161 51.1043 41.0146 51.1286 40.3266 51.1286Z" fill="#F0F3F5"/>
<path d="M24.9627 14.3332C24.7792 14.3332 24.5957 14.2576 24.4635 14.1119C18.3143 7.32593 23.3248 0.418531 23.3761 0.348378C23.5758 0.0785575 23.9454 -0.00238627 24.2395 0.156808C30.1297 3.34338 46.1355 5.19974 46.2973 5.21593C46.667 5.2591 46.9341 5.59368 46.891 5.96334C46.8478 6.33299 46.5105 6.59742 46.1435 6.55694C45.496 6.48409 30.6127 4.75724 24.1505 1.62463C23.2304 3.16261 20.883 8.14619 25.4645 13.2026C25.7154 13.4778 25.6939 13.9041 25.4187 14.1551C25.2864 14.2765 25.1245 14.3332 24.9627 14.3332Z" fill="#F0F3F5"/>
<path d="M32.8177 15.5366C33.6676 15.5987 34.2558 16.5161 34.2342 17.3687C34.2126 18.2214 33.7377 18.993 33.2224 19.673C31.9246 21.3782 30.0871 22.865 27.9447 22.981C27.2728 23.0188 26.5767 22.9108 25.9885 22.5816C25.4003 22.2525 24.9308 21.6831 24.8121 21.0194C24.6421 20.0804 25.179 19.1549 25.8077 18.4372C27.3862 16.6402 29.7201 15.5258 32.1107 15.4287" fill="#F0F3F5"/>
<path d="M45.3829 14.4248C44.6598 14.8781 44.5708 15.9655 44.9917 16.7075C45.4126 17.4495 46.1924 17.9109 46.9668 18.2671C48.9122 19.1656 51.2326 19.6162 53.1781 18.7177C53.7905 18.4344 54.3518 18.0162 54.7187 17.4495C55.083 16.8829 55.2314 16.1598 55.0263 15.5176C54.7349 14.6083 53.8283 14.0417 52.9352 13.7044C50.6984 12.8572 48.1162 12.9651 45.9577 14.0012" fill="#F0F3F5"/>
<path d="M35.3993 27.7944L33.3865 28.8278L31.8107 26.6665L33.8101 25.3525C33.3136 23.6553 31.3331 23.6526 30.5156 27.2277C30.2377 28.4446 30.297 29.5401 30.5696 30.4305C31.7352 30.015 33.292 29.5482 35.3427 29.076C35.4128 28.3448 35.3993 27.7944 35.3993 27.7944Z" fill="#4AB69F"/>
<path d="M52.549 25.2582L50.671 26.5182L48.8524 24.5566L50.6845 23.0159C49.9911 21.3889 48.0241 21.6183 47.6328 25.2663C47.5573 25.9786 47.587 26.6369 47.6949 27.2305C49.6565 27.1199 51.2835 27.155 52.6326 27.2845C52.6839 26.2025 52.549 25.2582 52.549 25.2582Z" fill="#4AB69F"/>
<path d="M59.0245 30.0177C60.7406 28.1749 61.6202 25.4686 61.6445 21.9555C61.6445 21.7531 61.5554 21.5589 61.3989 21.4294C61.3126 21.3592 52.7755 14.5058 43.205 20.7845C43.035 20.8951 42.9243 21.0786 42.9028 21.281C42.892 21.3916 42.7625 22.7946 43.0647 24.5755C41.2623 24.2571 40.0103 24.991 39.4356 25.4416C39.3195 23.3181 38.699 21.6911 38.6531 21.5751C38.5775 21.3862 38.4237 21.2405 38.2295 21.1784C27.3206 17.7112 20.9475 26.6099 20.8827 26.7016C20.7667 26.8689 20.7316 27.0794 20.7883 27.2737C21.8163 30.8542 23.527 33.3041 25.8798 34.5588C26.0039 34.6263 26.128 34.6829 26.2522 34.7396C26.2656 34.8421 26.2818 34.942 26.3088 35.0418C26.6434 36.3504 28.5456 38.25 36.7643 38.25C38.7044 38.25 40.9978 38.1447 43.7041 37.8992C47.4438 37.5619 56.3992 36.3315 58.7601 32.2249C59.2134 31.4343 59.3159 30.641 59.0407 30.0501C59.0353 30.042 59.0299 30.0312 59.0245 30.0177ZM27.6174 34.7099C27.5446 34.4293 27.5716 34.1433 27.7011 33.8303C27.9115 33.3149 28.381 32.8535 29.0259 32.5298C30.6097 31.7365 34.5653 30.2228 43.2886 29.0248C55.8919 27.2926 57.8049 30.5898 57.8211 30.6221C57.8589 30.7031 57.894 31.0323 57.5945 31.553C57.0629 32.4785 54.4807 35.5706 43.5854 36.5555C28.6104 37.91 27.6525 34.8421 27.6174 34.7099ZM36.3893 28.844C36.0277 28.9223 35.677 28.9978 35.3424 29.0761C33.2891 29.5483 31.7322 30.0177 30.5693 30.4306C29.9163 30.6626 29.3848 30.8785 28.9611 31.07C28.2758 30.0501 28.0842 28.9115 28.0546 28.7091C27.9871 28.2477 27.8603 26.6315 29.0205 25.1502C29.4117 24.651 30.3264 23.4854 31.6944 23.3937C32.9086 23.3127 34.1741 24.1222 35.2588 25.6709C35.4989 26.0136 36.365 27.3546 36.3893 28.844ZM46.8718 25.9461C46.8044 25.4848 46.6775 23.8685 47.8378 22.3872C48.229 21.888 49.1437 20.7224 50.5117 20.6307C51.7232 20.5497 52.9913 21.3592 54.076 22.908C55.6302 25.1259 55.2659 26.788 54.8666 27.6352C54.2217 27.4895 53.4824 27.3708 52.6325 27.2872C51.2834 27.1576 49.6564 27.1226 47.6948 27.2332C47.5437 27.2413 47.3899 27.2521 47.2361 27.2602C46.9824 26.618 46.8907 26.0811 46.8718 25.9461ZM58.1233 29.0032C57.6916 28.6713 57.071 28.3152 56.186 28.0076C57.044 25.992 56.2939 23.7201 55.1823 22.1309C54.2001 20.7305 53.0507 19.8158 51.85 19.4543C56.1536 19.4839 59.378 21.6074 60.29 22.2793C60.2225 25.2149 59.4913 27.4733 58.1233 29.0032ZM44.2276 21.7316C45.7575 20.771 47.2442 20.1693 48.6634 19.8266C47.7083 20.369 47.0769 21.1703 46.7747 21.5535C45.2826 23.4557 45.4472 25.5441 45.5335 26.1404C45.5551 26.278 45.6333 26.7556 45.8411 27.3708C45.7008 27.3843 45.5605 27.3978 45.4175 27.4113C44.2168 25.1879 44.1952 22.6166 44.2276 21.7316ZM40.0885 26.6666C40.102 26.6531 41.2946 25.3822 43.41 26.0568C43.5584 26.5586 43.75 27.0713 43.9874 27.5759C43.6987 27.6109 43.4046 27.6487 43.1024 27.6919C41.6994 27.8862 40.415 28.0858 39.2386 28.2936C39.3411 27.8133 39.4005 27.3357 39.4302 26.8689C39.4814 26.8824 39.5327 26.8905 39.5867 26.8905C39.7728 26.8878 39.9563 26.8123 40.0885 26.6666ZM22.1833 27.2224C23.2544 25.8517 28.632 19.7322 37.5036 22.3683C37.7897 23.256 38.5155 25.9677 37.7762 28.5634C37.76 28.5661 37.7438 28.5688 37.7303 28.5715C37.6494 27.2305 37.08 25.9192 36.3623 24.8965C34.9943 22.9457 33.2998 21.9339 31.6027 22.0472C29.6357 22.1794 28.4161 23.7336 27.9574 24.3164C26.4653 26.2187 26.6299 28.3071 26.7162 28.9034C26.7513 29.1489 26.9753 30.4656 27.7739 31.7149C27.1614 32.152 26.7028 32.7051 26.4518 33.3203C26.4491 33.323 26.4491 33.3284 26.4491 33.3311C24.5334 32.2788 23.1007 30.2255 22.1833 27.2224Z" fill="#F0F3F5"/>
<path d="M39.5661 32.0334C39.8413 31.8229 39.5175 31.5882 39.2072 31.4344C38.8753 31.2698 38.5273 31.1349 38.1711 31.027C37.9148 30.9514 37.6396 30.8894 37.3778 30.9541C37.1161 31.0189 36.876 31.2401 36.876 31.5072C36.876 31.8175 37.1728 32.0388 37.4507 32.171C37.6827 32.2816 37.9391 32.368 38.1954 32.3383C38.4517 32.3113 38.6784 32.171 38.9185 32.0739C39.1587 31.9767 39.361 32.1899 39.5661 32.0334Z" fill="#F0F3F5"/>
<path d="M44.0848 31.1621C43.796 30.9705 44.1009 30.7142 44.4031 30.5388C44.7242 30.3526 45.0615 30.1934 45.4096 30.0639C45.6605 29.9694 45.9303 29.8912 46.1948 29.9371C46.4592 29.9829 46.7128 30.188 46.7317 30.4551C46.7533 30.7627 46.4727 31.0056 46.2029 31.1567C45.9789 31.2835 45.7307 31.386 45.4716 31.3752C45.2153 31.3644 44.9779 31.2403 44.7323 31.1594C44.4895 31.0784 44.3006 31.3051 44.0848 31.1621Z" fill="#F0F3F5"/>
<path d="M42.2931 44.5747C39.8782 44.5747 37.4175 43.6735 35.1024 41.9278C33.0626 40.3898 31.8565 38.7493 31.8079 38.6818C31.5894 38.3796 31.6541 37.9587 31.9563 37.7401C32.2585 37.5216 32.6795 37.5863 32.898 37.8885C32.9628 37.9776 37.4499 43.9811 43.4372 43.15C50.6036 42.149 53.5123 36.2453 54.2327 34.4591C54.373 34.1138 54.7642 33.9465 55.1096 34.0868C55.455 34.2271 55.6223 34.6183 55.482 34.9637C54.6914 36.9199 51.5021 43.3821 43.6207 44.4857C43.1836 44.545 42.7383 44.5747 42.2931 44.5747Z" fill="#F0F3F5"/>
<path d="M42.3843 38.4712L42.3735 39.2564C42.3735 39.2564 38.3262 40.2088 35.9086 39.5397L35.8789 38.9407" fill="white"/>
<path d="M38.029 40.4517C37.2222 40.4517 36.4209 40.3815 35.7275 40.19C35.4468 40.1117 35.2472 39.8635 35.2337 39.5721L35.204 38.9731C35.1851 38.6007 35.4738 38.285 35.8462 38.2661C36.2104 38.2499 36.5342 38.536 36.5531 38.9083L36.5585 38.9919C38.288 39.2941 40.6733 38.9056 41.7067 38.7032L41.7094 38.4604C41.7148 38.0907 42.0143 37.7939 42.3839 37.7939C42.3866 37.7939 42.3893 37.7939 42.3947 37.7939C42.7671 37.7993 43.0639 38.1042 43.0612 38.4766L43.0504 39.2618C43.045 39.5721 42.8318 39.8392 42.5296 39.9093C42.4028 39.9417 40.2011 40.4517 38.029 40.4517Z" fill="#F0F3F5"/>
<path d="M45.3502 39.8557C44.9185 39.8557 44.4976 39.826 44.109 39.7558C43.823 39.7046 43.6018 39.4752 43.5586 39.1865L43.4749 38.5929C43.421 38.2232 43.6773 37.8833 44.047 37.8293C44.4139 37.7754 44.7566 38.0317 44.8106 38.4013L44.8213 38.485C46.5698 38.6226 48.9091 38.0155 49.921 37.7187L49.9021 37.4759C49.8724 37.1035 50.1503 36.7797 50.52 36.75C50.8842 36.7258 51.2161 36.9983 51.2458 37.3679L51.3078 38.1504C51.3321 38.458 51.1432 38.744 50.8518 38.8438C50.7088 38.8924 47.8164 39.8557 45.3502 39.8557Z" fill="#F0F3F5"/>
<path d="M38.6035 41.6689C38.6035 41.6689 42.5618 39.8422 47.0597 41.3613Z" fill="white"/>
<path d="M38.6065 42.3407C38.3502 42.3407 38.1073 42.195 37.994 41.9468C37.8375 41.6095 37.9859 41.2102 38.3232 41.0537C38.4959 40.9755 42.5783 39.1353 47.2758 40.7191C47.6293 40.8378 47.8182 41.221 47.6994 41.5745C47.5807 41.9279 47.1976 42.1168 46.8441 41.9981C42.67 40.5896 38.9249 42.2625 38.8871 42.2787C38.7954 42.3219 38.7009 42.3407 38.6065 42.3407Z" fill="#F0F3F5"/>
<path d="M61.3186 15.5474C61.2107 15.5474 61.1028 15.5231 61.0002 15.4664C60.6711 15.291 60.5496 14.8809 60.725 14.5544C61.0326 13.9824 61.4347 12.3635 60.6684 7.9789C60.3986 6.43013 60.0586 4.98929 59.8319 4.08269C55.4285 7.08039 47.5794 6.51106 47.2259 6.48138C46.8536 6.4517 46.5784 6.12792 46.6053 5.75556C46.635 5.38321 46.9615 5.1026 47.3312 5.13498C47.4175 5.14038 56.0517 5.76636 59.7726 2.41789C59.9453 2.26139 60.1881 2.20743 60.412 2.27219C60.636 2.33695 60.8114 2.51234 60.8734 2.73629C61.146 3.69955 63.4907 12.2447 61.9149 15.1885C61.7908 15.4178 61.5588 15.5474 61.3186 15.5474Z" fill="#F0F3F5"/>
<path d="M68.7959 24.0467C68.5962 24.0467 68.3992 23.9577 68.267 23.7904C65.0211 19.681 61.4918 17.6169 61.4568 17.598C61.133 17.4118 61.0223 16.999 61.2085 16.6779C61.3947 16.3542 61.8075 16.2435 62.1286 16.4297C62.2824 16.5188 65.9088 18.6314 69.3247 22.954C69.5568 23.2454 69.5055 23.6717 69.2141 23.901C69.09 23.9982 68.9416 24.0467 68.7959 24.0467Z" fill="#F0F3F5"/>
<path d="M42.914 47.4051C42.1854 47.4051 41.3814 47.2486 40.5638 46.8061C40.2373 46.628 40.1159 46.2179 40.294 45.8914C40.4721 45.565 40.8822 45.4435 41.2087 45.6216C43.146 46.6793 45.059 45.4867 45.14 45.4355C45.453 45.2358 45.8712 45.3275 46.0708 45.6405C46.2705 45.9535 46.1815 46.369 45.8712 46.5714C45.7983 46.6173 44.5545 47.4051 42.914 47.4051Z" fill="#F0F3F5"/>
<path d="M54.8453 68.9689C51.4618 68.9689 48.0431 67.2987 45.8333 64.3712C45.6093 64.0744 45.6687 63.6508 45.9655 63.4268C46.2623 63.2029 46.6859 63.2622 46.9099 63.559C49.484 66.9669 53.8874 68.4482 57.6164 67.1638C62.4542 65.4963 64.4806 59.8085 63.3392 55.5454C62.5999 52.7878 60.4792 50.354 57.6676 49.0346C55.1097 47.8339 52.3738 47.7287 50.1585 48.7486C47.3578 50.0356 45.4313 53.036 45.0158 56.6867L46.7723 56.5383C47.4333 53.5811 49.797 51.2579 52.6787 50.8019C55.7411 50.3162 59.5861 52.1888 60.722 56.1633C61.2832 58.1302 60.9891 60.3131 59.9179 62.156C58.9601 63.8046 57.5138 64.9351 55.8436 65.3425C52.363 66.1952 49.5083 63.5294 49.1953 63.2245C48.9281 62.9654 48.9228 62.5364 49.1845 62.2693C49.4462 62.0022 49.8725 61.9968 50.1396 62.2585C50.2422 62.3583 52.7056 64.7193 55.528 64.0312C56.8393 63.7101 57.986 62.8035 58.7577 61.476C59.6319 59.9704 59.8828 58.1222 59.4295 56.5302C58.5014 53.2762 55.3769 51.7382 52.8945 52.1321C50.4176 52.5234 48.4101 54.6334 48.0135 57.2641C47.9676 57.5717 47.7139 57.8092 47.4037 57.8361L44.3412 58.0952C44.1469 58.1114 43.9554 58.0439 43.815 57.9063C43.6747 57.7714 43.6019 57.5798 43.61 57.3855C43.8528 52.8876 46.1463 49.1075 49.6 47.5182C52.1768 46.3337 55.3256 46.4389 58.245 47.8096C61.4127 49.2963 63.806 52.0566 64.6479 55.1946C65.317 57.6904 65.0553 60.5236 63.9275 62.9735C62.716 65.6124 60.6329 67.5524 58.0616 68.4374C57.0174 68.7963 55.9327 68.9689 54.8453 68.9689Z" fill="#4AB69F"/>
<path d="M25.8376 68.5776C24.6504 68.5776 23.5603 67.7844 23.242 66.5837C22.8615 65.1509 23.7141 63.6777 25.1469 63.2945L34.4854 60.8041C34.8415 60.7097 35.2139 60.9228 35.311 61.2817C35.4082 61.6406 35.1923 62.0102 34.8334 62.1073L25.495 64.5978C24.7826 64.7867 24.3563 65.5233 24.5479 66.2356C24.6396 66.5783 24.8609 66.867 25.1712 67.0451C25.4815 67.2258 25.843 67.2744 26.1857 67.1827L35.5242 64.6922C35.883 64.5978 36.2527 64.8109 36.3498 65.1698C36.447 65.5287 36.2311 65.8983 35.8722 65.9954L26.5338 68.4859C26.299 68.548 26.067 68.5776 25.8376 68.5776Z" fill="#4AB69F"/>
<path d="M37.0054 66.4676C36.919 66.4676 36.8354 66.4622 36.749 66.4541C35.8451 66.3624 35.1139 65.8146 34.7875 64.9863C34.7551 64.908 34.7281 64.8244 34.7038 64.7381L34.1534 62.79C34.0832 62.5417 34.0508 62.2854 34.0562 62.0318C34.0724 61.252 34.4637 60.5559 35.1274 60.1214C35.8128 59.6708 36.6762 59.5872 37.4317 59.8948L38.8321 60.4668C39.1774 60.6071 39.342 61.0011 39.2017 61.3464C39.0614 61.6918 38.6675 61.8564 38.3221 61.7161L36.9217 61.1441C36.5764 61.0038 36.1824 61.0415 35.8667 61.2493C35.5807 61.4382 35.4107 61.7323 35.4053 62.0615C35.4026 62.1829 35.4188 62.3043 35.4512 62.4257L36.0017 64.3738C36.0124 64.4143 36.0259 64.4547 36.0421 64.4925C36.2418 64.9971 36.6978 65.0942 36.8867 65.1131C37.2239 65.1482 37.6826 65.0322 37.9605 64.6086L38.7322 63.4213C38.9346 63.1084 39.3528 63.0193 39.6658 63.2244C39.9788 63.4267 40.0678 63.845 39.8628 64.1579L39.0911 65.3452C38.627 66.0521 37.8445 66.4676 37.0054 66.4676Z" fill="#4AB69F"/>
<path d="M27.0839 74.0308C26.9652 74.0308 26.8492 74.0011 26.7467 73.939C26.5929 73.85 26.4796 73.7016 26.4337 73.5289L25.0819 68.459C24.9847 68.1001 25.2006 67.7305 25.5595 67.6333C25.9183 67.5389 26.288 67.752 26.3851 68.1109L27.5642 72.5306L30.5511 71.7346L29.9629 69.5275C29.882 69.2199 30.025 68.8988 30.3083 68.7531C30.5916 68.6074 30.937 68.6802 31.1366 68.9258L32.9256 71.114L34.4527 70.7066L33.2359 66.1466C33.1387 65.7877 33.3546 65.4181 33.7134 65.321C34.0723 65.2265 34.4419 65.4397 34.5391 65.7985L35.9287 71.0115C36.0258 71.3703 35.8099 71.74 35.4511 71.8371L32.85 72.5306C32.5937 72.598 32.3212 72.5117 32.1539 72.3066L32.0459 72.1744C32.0648 72.4874 31.8625 72.7815 31.5468 72.8651L27.2566 74.0092C27.2 74.0227 27.1433 74.0308 27.0839 74.0308Z" fill="#4AB69F"/>
<path d="M39.293 64.463C38.9908 64.463 38.721 64.2607 38.6427 63.9612L37.9223 61.263C37.8387 60.95 37.9898 60.6208 38.2812 60.4805L40.947 59.1988C41.2843 59.037 41.6863 59.18 41.8482 59.5145C42.0101 59.8518 41.8671 60.2538 41.5325 60.4157L39.3713 61.4546L39.7949 63.0384L42.1639 62.7227C42.5309 62.6714 42.8735 62.9332 42.9221 63.3028C42.9707 63.6725 42.7116 64.0124 42.342 64.061L39.3848 64.455C39.3524 64.4603 39.3227 64.463 39.293 64.463Z" fill="#4AB69F"/>
<path d="M43.4049 64.4575C42.9381 64.4575 42.4794 64.3333 42.0639 64.0932C41.4433 63.7343 41.0008 63.1569 40.8173 62.4662L40.534 61.4004C40.3505 60.7097 40.4477 59.9892 40.8065 59.3686C41.1654 58.7481 41.7428 58.3056 42.4335 58.1221L49.4138 56.2603C50.1018 56.0768 50.825 56.174 51.4455 56.5328C52.0661 56.8917 52.5086 57.4691 52.6921 58.1599L52.9754 59.2256C53.1589 59.9137 53.0618 60.6368 52.7029 61.2574C52.344 61.878 51.7666 62.3205 51.0759 62.504L44.0956 64.3657C43.869 64.4278 43.6369 64.4575 43.4049 64.4575ZM50.1018 57.5204C49.9885 57.5204 49.8725 57.5366 49.7619 57.5662L42.7816 59.428C42.4416 59.5198 42.1529 59.7383 41.9748 60.0486C41.7968 60.3562 41.7482 60.7151 41.8399 61.0577L42.1232 62.1235C42.215 62.4635 42.4335 62.7522 42.7438 62.9303C43.0514 63.1084 43.4103 63.1569 43.7503 63.0652L50.7305 61.2034C51.0705 61.1117 51.3592 60.8931 51.5373 60.5828C51.7153 60.2752 51.7639 59.9164 51.6722 59.5737L51.3889 58.5079C51.2971 58.1679 51.0786 57.8792 50.7683 57.7012C50.5605 57.5797 50.3312 57.5204 50.1018 57.5204Z" fill="#4AB69F"/>
<path d="M65.4505 67.7842C65.1833 67.7842 64.9324 67.6251 64.8245 67.3633C64.6842 67.018 64.8488 66.624 65.1941 66.4837C67.4309 65.5717 67.0316 63.3565 67.0127 63.2621C66.9426 62.8978 67.18 62.5443 67.5443 62.4715C67.9112 62.4013 68.262 62.6334 68.3375 62.9949C68.5777 64.166 68.3348 66.6618 65.7068 67.733C65.6204 67.7681 65.5341 67.7842 65.4505 67.7842Z" fill="#4AB69F"/>
<path d="M66.1381 71.4457C65.8683 71.4457 65.612 71.2811 65.5094 71.014C65.3745 70.6659 65.5499 70.2746 65.8953 70.1424C72.3871 67.6385 70.7439 61.8832 70.6711 61.6404C70.5632 61.2842 70.7655 60.9092 71.1217 60.8012C71.4778 60.6933 71.8529 60.893 71.9608 61.2492C72.7163 63.7234 72.5247 69.0335 66.3782 71.4025C66.3 71.4295 66.219 71.4457 66.1381 71.4457Z" fill="#4AB69F"/>
<path d="M22.2846 62.0534C22.2414 62.0534 22.2009 62.0507 22.1577 62.0399C21.7935 61.9697 21.5534 61.6189 21.6235 61.2547C21.8421 60.081 23.0104 57.8604 25.8489 57.8604C26.2213 57.8604 26.5235 58.1626 26.5235 58.5349C26.5235 58.9073 26.2213 59.2095 25.8489 59.2095C23.434 59.2095 22.9672 61.4139 22.9483 61.5056C22.8809 61.8294 22.6003 62.0534 22.2846 62.0534Z" fill="#4AB69F"/>
<path d="M18.275 62.2423C18.2535 62.2423 18.2319 62.2423 18.213 62.2396C17.8433 62.2045 17.5708 61.878 17.6032 61.5084C17.8325 58.9639 19.9641 54.2097 26.3535 54.2097C26.4371 54.2097 26.5181 54.2097 26.6017 54.2124C26.974 54.2205 27.2709 54.5281 27.2628 54.9005C27.2547 55.2728 26.9525 55.5588 26.5747 55.5615C19.6134 55.4239 18.9685 61.3788 18.9442 61.6325C18.9118 61.9805 18.6177 62.2423 18.275 62.2423Z" fill="#4AB69F"/>
</svg>
