<svg width="87" height="80" viewBox="0 0 87 80" fill="none" xmlns="http://www.w3.org/2000/svg">
<path d="M70.5343 57.7955C70.3025 57.7955 70.0736 57.6811 69.9362 57.475C69.7187 57.1459 69.8103 56.7024 70.1394 56.4849C78.3066 51.1021 83.8497 43.553 85.3406 35.7721C85.5152 34.8621 85.3406 34.0379 84.8512 33.4513C83.4519 31.7744 80.5158 28.8125 76.5867 27.8281C75.5136 27.5591 74.4033 28.017 73.8195 28.9699C73.5219 29.4593 73.1785 30.0602 72.7836 30.7527C72.1855 31.803 71.4414 33.1079 70.5715 34.5015C70.3626 34.8363 69.9219 34.9394 69.5871 34.7305C69.2523 34.5216 69.1493 34.0809 69.3582 33.746C70.2109 32.3753 70.9178 31.1391 71.5416 30.0459C71.9422 29.3419 72.2914 28.7324 72.6004 28.2259C73.5104 26.7378 75.2532 26.0195 76.9359 26.4431C81.257 27.5276 84.4392 30.727 85.9501 32.5356C86.7199 33.457 87.0032 34.7047 86.7457 36.044C85.1832 44.2026 79.4169 52.0894 70.9292 57.6839C70.8062 57.7555 70.6688 57.7955 70.5343 57.7955Z" fill="#021D30"/>
<path d="M85.6585 35.9896C84.0102 35.9896 77.1822 35.609 73.2274 29.5222C73.0128 29.1903 73.1072 28.7467 73.4363 28.5321C73.7683 28.3175 74.2118 28.409 74.4265 28.741C78.3956 34.8478 85.8646 34.553 85.9418 34.553C86.3453 34.5359 86.6716 34.8392 86.6916 35.2313C86.7116 35.6262 86.4083 35.961 86.0134 35.981C85.9762 35.9839 85.856 35.9896 85.6585 35.9896Z" fill="#021D30"/>
<path d="M83.5322 41.4011C73.276 41.4011 70.4086 32.8304 70.3799 32.7417C70.2598 32.3668 70.4658 31.9633 70.8435 31.8431C71.2184 31.7229 71.6219 31.929 71.7421 32.3038C71.8509 32.6358 74.4979 40.4138 84.3707 39.9502C84.7742 39.9273 85.1004 40.2364 85.1204 40.6313C85.1405 41.0262 84.8343 41.361 84.4393 41.381C84.1303 41.3954 83.827 41.4011 83.5322 41.4011Z" fill="#021D30"/>
<path d="M16.7173 57.6723C16.5828 57.6723 16.4454 57.6351 16.3252 57.5549C7.83462 51.9604 2.07122 44.0736 0.508745 35.915C0.251195 34.5757 0.5345 33.328 1.30429 32.4066C1.9682 31.611 5.53384 27.5846 10.6076 26.3141C12.2931 25.8934 14.033 26.6088 14.943 28.0969C15.2521 28.6034 15.6012 29.2129 16.0018 29.9198C16.6257 31.0129 17.3296 32.2492 18.1824 33.6199C18.3913 33.9547 18.2883 34.3954 17.9535 34.6043C17.6187 34.8132 17.178 34.7102 16.9691 34.3754C16.102 32.9818 15.3551 31.6768 14.757 30.6295C14.3621 29.9341 14.0187 29.3331 13.7211 28.8438C13.1402 27.8908 12.027 27.433 10.9567 27.702C7.35673 28.6034 4.10015 31.2962 2.40604 33.3252C1.91669 33.9118 1.74213 34.736 1.91669 35.646C3.40762 43.4269 8.94782 50.9759 17.1179 56.3588C17.447 56.5762 17.5386 57.0198 17.3211 57.3489C17.178 57.5578 16.949 57.6723 16.7173 57.6723Z" fill="#021D30"/>
<path d="M1.96253 35.6375C1.58479 35.6375 1.27 35.3427 1.24997 34.9592C1.22994 34.5643 1.53042 34.2266 1.92533 34.2066C2.03407 34.2009 9.24262 33.7116 12.4477 27.496C12.628 27.144 13.0601 27.0067 13.4121 27.1869C13.7641 27.3672 13.9014 27.7993 13.7211 28.1513C10.124 35.1224 2.33168 35.6174 2.00259 35.6346C1.98828 35.6375 1.97684 35.6375 1.96253 35.6375Z" fill="#021D30"/>
<path d="M2.76097 40.8773C2.38609 40.8773 2.07131 40.5854 2.04841 40.2076C2.02266 39.8127 2.32313 39.475 2.71804 39.4493C2.82106 39.4436 12.9457 38.7196 15.3523 32.2751C15.4897 31.9059 15.9046 31.7171 16.2738 31.8544C16.6429 31.9918 16.8318 32.4038 16.6945 32.7759C15.5527 35.8293 12.774 38.2016 8.65315 39.6324C5.60547 40.6913 2.92123 40.8715 2.80962 40.8773C2.79245 40.8773 2.77814 40.8773 2.76097 40.8773Z" fill="#021D30"/>
<path d="M28.7307 37.3887C28.6534 37.0911 28.682 36.7878 28.8194 36.4558C29.0397 35.915 29.5319 35.4314 30.2044 35.088C29.9125 34.7875 29.572 34.5156 29.1799 34.2838C26.5787 32.6727 23.3822 33.7086 22.0429 35.9779C22.3863 35.852 22.7498 35.7948 23.1218 35.8406C25.2909 36.0895 24.4038 37.3916 23.1132 38.1814C22.6038 38.4962 22.0286 38.7509 21.4248 38.7681C21.4506 39.0485 21.4992 39.3318 21.5736 39.6237C22.2432 42.7401 26.1551 44.3913 28.8795 42.7716C30.4219 41.9588 31.309 40.528 31.5036 39.0227C29.0311 38.3674 28.7507 37.4631 28.7307 37.3887Z" fill="#4AB69F"/>
<path d="M66.5529 34.1552C66.5357 33.8547 66.4928 33.5685 66.4298 33.2938C65.8489 33.4627 65.2222 33.3997 64.6413 33.2566C63.1704 32.9018 61.9227 31.9374 63.9116 31.0331C64.2493 30.8729 64.6127 30.8185 64.979 30.8299C63.0101 29.09 59.662 29.0843 57.6817 31.3994C60.18 32.0547 60.7494 33.0363 60.758 33.0535C60.7981 33.1393 60.8353 33.4884 60.5176 34.0407C60.2257 34.5472 59.3501 35.6662 56.9863 36.7765C57.6531 38.0843 58.9122 39.1116 60.572 39.4006C63.6626 40.1017 66.8763 37.3259 66.5529 34.1552Z" fill="#4AB69F"/>
<path d="M61.1217 48.3204C60.9357 48.3204 60.7468 48.246 60.6066 48.1029C60.3319 47.8196 60.3405 47.3646 60.6238 47.0928C69.7783 38.2617 65.9179 22.9374 65.8807 22.7829C65.8692 22.7428 64.7532 18.602 61.4279 14.6557C57.0038 9.40171 50.9485 6.9521 43.4423 7.36132C43.0531 7.38994 42.7097 7.08088 42.6897 6.68597C42.6668 6.29106 42.9701 5.95338 43.365 5.93335C53.3265 5.38391 59.3074 9.89964 62.5611 13.7801C66.0753 17.9724 67.2199 22.242 67.2657 22.4223C67.3087 22.5883 68.3217 26.5231 68.1528 31.6655C67.9296 38.5249 65.6689 44.2139 61.6197 48.123C61.4794 48.2546 61.302 48.3204 61.1217 48.3204Z" fill="#021D30"/>
<path d="M42.2095 54.802C35.9252 54.802 30.7628 52.959 26.8452 49.3047C19.339 42.3107 19.0128 31.2275 18.9985 30.2288C18.864 29.3502 17.6964 20.4447 24.4013 13.5195C24.676 13.2362 25.1282 13.2276 25.4143 13.5023C25.6976 13.777 25.7062 14.2292 25.4315 14.5153C19.0357 21.1201 20.4064 29.9626 20.4207 30.0514C20.4264 30.0886 20.4293 30.1257 20.4293 30.1658C20.4293 30.2774 20.5838 41.5209 27.8296 48.2659C31.9017 52.0576 37.4591 53.7517 44.35 53.2996C44.7335 53.2767 45.0855 53.5714 45.1112 53.9664C45.137 54.3613 44.8394 54.7018 44.4444 54.7275C43.6832 54.7762 42.9392 54.802 42.2095 54.802Z" fill="#021D30"/>
<path d="M25.9146 15.7775C25.72 15.7775 25.5254 15.6974 25.3852 15.5429C18.8635 8.34575 24.1776 1.01987 24.232 0.945465C24.4437 0.659298 24.8358 0.57345 25.1477 0.742289C31.3947 4.12192 48.3702 6.09075 48.5419 6.10792C48.9339 6.1537 49.2172 6.50855 49.1714 6.9006C49.1257 7.29265 48.7679 7.5731 48.3787 7.53018C47.6919 7.45291 31.907 5.62144 25.0533 2.29904C24.0774 3.93019 21.5878 9.2157 26.4469 14.5785C26.713 14.8704 26.6901 15.3225 26.3982 15.5886C26.258 15.7174 26.0863 15.7775 25.9146 15.7775Z" fill="#021D30"/>
<path d="M34.246 17.0539C35.1474 17.1197 35.7713 18.0927 35.7484 18.997C35.7255 19.9013 35.2218 20.7197 34.6753 21.4409C33.2988 23.2494 31.35 24.8262 29.0778 24.9493C28.3653 24.9893 27.627 24.8749 27.0031 24.5257C26.3793 24.1766 25.8813 23.5728 25.7554 22.8688C25.5751 21.873 26.1446 20.8914 26.8114 20.1302C28.4855 18.2243 30.9608 17.0425 33.4962 16.9395" fill="#021D30"/>
<path d="M47.5714 15.8748C46.8044 16.3556 46.71 17.5089 47.1564 18.2958C47.6028 19.0828 48.4299 19.5721 49.2512 19.9499C51.3144 20.9028 53.7755 21.3807 55.8387 20.4278C56.4883 20.1273 57.0836 19.6837 57.4727 19.0828C57.8591 18.4818 58.0165 17.7149 57.799 17.0338C57.4899 16.0695 56.5284 15.4685 55.5812 15.1108C53.2088 14.2122 50.4702 14.3267 48.1809 15.4256" fill="#021D30"/>
<path d="M36.9835 30.0541L34.8488 31.1501L33.1775 28.8579L35.298 27.4642C34.7715 25.6643 32.671 25.6614 31.8039 29.4531C31.5092 30.7437 31.5721 31.9056 31.8612 32.8499C33.0974 32.4092 34.7486 31.9142 36.9235 31.4134C36.9979 30.6379 36.9835 30.0541 36.9835 30.0541Z" fill="#4AB69F"/>
<path d="M55.1726 27.3643L53.1809 28.7007L51.2521 26.6203L53.1952 24.9863C52.4597 23.2607 50.3736 23.5039 49.9586 27.3729C49.8785 28.1284 49.91 28.8266 50.0244 29.4562C52.1049 29.3389 53.8305 29.3761 55.2613 29.5134C55.3157 28.3659 55.1726 27.3643 55.1726 27.3643Z" fill="#4AB69F"/>
<path d="M62.0399 32.4123C63.8599 30.4578 64.7928 27.5875 64.8186 23.8616C64.8186 23.647 64.7242 23.4409 64.5582 23.3036C64.4666 23.2292 55.4123 15.9605 45.2619 22.6196C45.0816 22.737 44.9643 22.9316 44.9414 23.1462C44.93 23.2635 44.7926 24.7516 45.1131 26.6403C43.2015 26.3026 41.8737 27.081 41.2642 27.5589C41.1411 25.3068 40.4829 23.5812 40.4343 23.4581C40.3542 23.2578 40.191 23.1033 39.985 23.0374C28.4153 19.3602 21.656 28.798 21.5873 28.8953C21.4643 29.0727 21.4271 29.2959 21.4872 29.502C22.5775 33.2994 24.3918 35.8978 26.8871 37.2285C27.0188 37.3 27.1504 37.3601 27.2821 37.4202C27.2964 37.529 27.3135 37.6348 27.3421 37.7407C27.697 39.1286 29.7145 41.1433 38.4311 41.1433C40.4887 41.1433 42.9211 41.0316 45.7913 40.7712C49.7576 40.4135 59.2555 39.1086 61.7595 34.7531C62.2402 33.9147 62.349 33.0733 62.0571 32.4466C62.0514 32.438 62.0456 32.4266 62.0399 32.4123ZM28.7301 37.3887C28.6528 37.0911 28.6814 36.7878 28.8188 36.4558C29.042 35.9093 29.5399 35.4199 30.2238 35.0765C31.9036 34.2352 36.0989 32.6298 45.3506 31.3592C58.7175 29.522 60.7464 33.019 60.7636 33.0533C60.8037 33.1392 60.8409 33.4883 60.5232 34.0406C59.9595 35.0221 57.2209 38.3016 45.6654 39.3461C29.7832 40.7827 28.7673 37.529 28.7301 37.3887ZM38.0333 31.1675C37.6499 31.2504 37.2779 31.3306 36.923 31.4136C34.7453 31.9144 33.0941 32.4123 31.8607 32.8501C31.1682 33.0962 30.6045 33.3252 30.1552 33.5283C29.4283 32.4466 29.2251 31.239 29.1937 31.0244C29.1221 30.535 28.9876 28.8209 30.2181 27.2498C30.6331 26.7204 31.6032 25.4842 33.054 25.3869C34.3418 25.301 35.6839 26.1595 36.8343 27.8021C37.089 28.1656 38.0076 29.5878 38.0333 31.1675ZM49.1509 28.094C49.0794 27.6047 48.9449 25.8905 50.1754 24.3195C50.5904 23.7901 51.5605 22.5538 53.0113 22.4565C54.2962 22.3707 55.6412 23.2292 56.7916 24.8718C58.4399 27.2241 58.0536 28.9869 57.6301 29.8854C56.9461 29.7309 56.162 29.605 55.2606 29.5163C53.8298 29.3789 52.1042 29.3417 50.0238 29.459C49.8635 29.4676 49.7004 29.4791 49.5373 29.4877C49.2683 28.8066 49.171 28.2371 49.1509 28.094ZM61.0841 31.3363C60.6263 30.9843 59.9681 30.6066 59.0294 30.2803C59.9395 28.1427 59.1439 25.7331 57.9649 24.0476C56.9232 22.5624 55.7042 21.5923 54.4307 21.2088C58.9951 21.2403 62.4148 23.4925 63.382 24.205C63.3105 27.3185 62.535 29.7137 61.0841 31.3363ZM46.3465 23.6241C47.9691 22.6053 49.5459 21.9672 51.0511 21.6037C50.0381 22.1789 49.3684 23.0289 49.0479 23.4352C47.4654 25.4527 47.64 27.6676 47.7316 28.3001C47.7544 28.446 47.8374 28.9525 48.0578 29.605C47.909 29.6193 47.7602 29.6336 47.6085 29.6479C46.3351 27.2899 46.3122 24.5627 46.3465 23.6241ZM41.9567 28.8581C41.971 28.8438 43.2359 27.4959 45.4794 28.2114C45.6368 28.7436 45.84 29.2873 46.0918 29.8225C45.7856 29.8597 45.4737 29.8997 45.1532 29.9455C43.6651 30.1516 42.303 30.3633 41.0553 30.5837C41.164 30.0743 41.227 29.5678 41.2585 29.0727C41.3128 29.087 41.3672 29.0956 41.4244 29.0956C41.6219 29.0927 41.8165 29.0126 41.9567 28.8581ZM22.9667 29.4476C24.1027 27.9939 29.806 21.5036 39.2152 24.2994C39.5186 25.2409 40.2883 28.1169 39.5042 30.8698C39.4871 30.8727 39.4699 30.8756 39.4556 30.8784C39.3698 29.4562 38.7659 28.0654 38.0047 26.9808C36.5539 24.9118 34.7567 23.8387 32.9567 23.9589C30.8706 24.0991 29.5771 25.7475 29.0906 26.3656C27.5081 28.3831 27.6827 30.598 27.7743 31.2304C27.8115 31.4908 28.049 32.8873 28.896 34.2123C28.2464 34.6759 27.76 35.2625 27.4938 35.915C27.491 35.9178 27.491 35.9236 27.491 35.9264C25.4592 34.8104 23.9396 32.6326 22.9667 29.4476Z" fill="#021D30"/>
<path d="M41.4029 34.5501C41.6948 34.3269 41.3514 34.078 41.0223 33.9148C40.6703 33.7403 40.3011 33.5972 39.9234 33.4827C39.6515 33.4026 39.3597 33.3368 39.0821 33.4055C38.8045 33.4741 38.5498 33.7088 38.5498 33.9921C38.5498 34.3212 38.8646 34.5559 39.1593 34.6961C39.4054 34.8134 39.6773 34.905 39.9491 34.8735C40.221 34.8449 40.4614 34.6961 40.7161 34.5931C40.9708 34.49 41.1854 34.7161 41.4029 34.5501Z" fill="#021D30"/>
<path d="M46.1953 33.626C45.8891 33.4228 46.2125 33.151 46.533 32.965C46.8735 32.7675 47.2312 32.5987 47.6004 32.4613C47.8665 32.3611 48.1527 32.2782 48.4331 32.3268C48.7136 32.3755 48.9826 32.5929 49.0026 32.8762C49.0255 33.2025 48.7279 33.46 48.4417 33.6203C48.2042 33.7548 47.9409 33.8635 47.6662 33.8521C47.3943 33.8406 47.1425 33.709 46.8821 33.6231C46.6246 33.5373 46.4242 33.7777 46.1953 33.626Z" fill="#021D30"/>
<path d="M44.2956 47.8511C41.7344 47.8511 39.1246 46.8953 36.6692 45.0438C34.5058 43.4126 33.2266 41.6727 33.1751 41.6012C32.9433 41.2806 33.012 40.8342 33.3325 40.6024C33.653 40.3706 34.0995 40.4393 34.3313 40.7598C34.3999 40.8543 39.1589 47.2215 45.5089 46.3401C53.1095 45.2784 56.1944 39.0171 56.9585 37.1226C57.1073 36.7563 57.5222 36.5789 57.8885 36.7277C58.2548 36.8765 58.4322 37.2915 58.2834 37.6578C57.445 39.7325 54.0625 46.5862 45.7035 47.7566C45.2399 47.8196 44.7678 47.8511 44.2956 47.8511Z" fill="#021D30"/>
<path d="M44.3936 41.3779L44.3822 42.2107C44.3822 42.2107 40.0897 43.2209 37.5256 42.5112L37.4941 41.8759" fill="white"/>
<path d="M39.7744 43.4784C38.9188 43.4784 38.0689 43.404 37.3334 43.2008C37.0358 43.1178 36.8241 42.8546 36.8097 42.5455L36.7783 41.9102C36.7582 41.5153 37.0644 41.1805 37.4594 41.1605C37.8457 41.1433 38.1891 41.4466 38.2091 41.8415L38.2148 41.9303C40.0492 42.2508 42.5789 41.8387 43.6749 41.6241L43.6778 41.3665C43.6835 40.9744 44.0011 40.6597 44.3932 40.6597C44.396 40.6597 44.3989 40.6597 44.4046 40.6597C44.7995 40.6654 45.1143 40.9888 45.1115 41.3837L45.1 42.2164C45.0943 42.5455 44.8682 42.8288 44.5477 42.9032C44.4132 42.9375 42.0781 43.4784 39.7744 43.4784Z" fill="#021D30"/>
<path d="M47.5375 42.8461C47.0796 42.8461 46.6332 42.8147 46.2211 42.7403C45.9178 42.6859 45.6831 42.4427 45.6373 42.1365L45.5486 41.5069C45.4914 41.1148 45.7632 40.7543 46.1553 40.697C46.5445 40.6398 46.9079 40.9117 46.9652 41.3037L46.9766 41.3924C48.831 41.5384 51.312 40.8945 52.3852 40.5797L52.3651 40.3222C52.3337 39.9273 52.6284 39.5839 53.0205 39.5524C53.4068 39.5266 53.7588 39.8156 53.7903 40.2077L53.8561 41.0376C53.8818 41.3638 53.6815 41.6671 53.3724 41.773C53.2208 41.8245 50.1531 42.8461 47.5375 42.8461Z" fill="#021D30"/>
<path d="M40.3838 44.769C40.3838 44.769 44.5819 42.8316 49.3523 44.4428Z" fill="white"/>
<path d="M40.3866 45.4815C40.1148 45.4815 39.8572 45.327 39.737 45.0637C39.5711 44.706 39.7285 44.2824 40.0862 44.1165C40.2693 44.0335 44.599 42.0818 49.5812 43.7616C49.9561 43.8875 50.1564 44.2939 50.0305 44.6688C49.9046 45.0436 49.4982 45.244 49.1233 45.1181C44.6963 43.6243 40.7243 45.3985 40.6843 45.4157C40.587 45.4615 40.4868 45.4815 40.3866 45.4815Z" fill="#021D30"/>
<path d="M64.4728 17.0652C64.3584 17.0652 64.2439 17.0394 64.1352 16.9793C63.786 16.7933 63.6573 16.3583 63.8433 16.0121C64.1695 15.4054 64.5959 13.6884 63.7832 9.03817C63.497 7.39557 63.1364 5.86744 62.8961 4.90592C58.2258 8.08524 49.9012 7.48141 49.5263 7.44993C49.1314 7.41845 48.8395 7.07505 48.8681 6.68014C48.8996 6.28523 49.2459 5.98762 49.6379 6.02196C49.7295 6.02768 58.8869 6.69159 62.8331 3.14026C63.0163 2.97428 63.2738 2.91705 63.5113 2.98573C63.7488 3.05441 63.9349 3.24043 64.0007 3.47795C64.2897 4.49956 66.7765 13.5625 65.1053 16.6846C64.9736 16.9278 64.7275 17.0652 64.4728 17.0652Z" fill="#021D30"/>
<path d="M72.4036 26.0794C72.1918 26.0794 71.9829 25.9849 71.8427 25.8075C68.4001 21.4492 64.657 19.26 64.6198 19.24C64.2764 19.0425 64.1591 18.6047 64.3566 18.2641C64.554 17.9207 64.9919 17.8034 65.3324 18.0009C65.4955 18.0953 69.3416 20.336 72.9645 24.9204C73.2106 25.2294 73.1562 25.6816 72.8471 25.9248C72.7155 26.0278 72.5581 26.0794 72.4036 26.0794Z" fill="#021D30"/>
<path d="M44.9536 50.8531C44.181 50.8531 43.3282 50.6872 42.4611 50.2178C42.1149 50.029 41.9861 49.594 42.175 49.2477C42.3638 48.9015 42.7988 48.7727 43.1451 48.9616C45.1997 50.0833 47.2287 48.8185 47.3145 48.7641C47.6465 48.5524 48.09 48.6496 48.3018 48.9816C48.5135 49.3135 48.4191 49.7542 48.09 49.9689C48.0128 50.0175 46.6935 50.8531 44.9536 50.8531Z" fill="#021D30"/>
<path d="M57.6071 73.7234C54.0185 73.7234 50.3928 71.952 48.0491 68.8471C47.8116 68.5323 47.8745 68.083 48.1893 67.8455C48.5041 67.608 48.9534 67.6709 49.1909 67.9857C51.9209 71.6 56.5912 73.1711 60.546 71.8089C65.677 70.0404 67.8261 64.008 66.6156 59.4865C65.8315 56.5619 63.5823 53.9807 60.6004 52.5813C57.8875 51.3079 54.9858 51.1963 52.6364 52.278C49.6659 53.643 47.6227 56.8252 47.182 60.697L49.045 60.5396C49.7461 57.4032 52.2529 54.9393 55.3092 54.4557C58.5572 53.9406 62.635 55.9266 63.8398 60.1419C64.435 62.228 64.1231 64.5431 62.987 66.4976C61.9711 68.2461 60.4373 69.4452 58.6659 69.8773C54.9743 70.7816 51.9467 67.9542 51.6147 67.6309C51.3314 67.3561 51.3257 66.9011 51.6033 66.6178C51.8809 66.3345 52.333 66.3288 52.6163 66.6064C52.7251 66.7123 55.3378 69.2162 58.3311 68.4865C59.7219 68.146 60.9381 67.1844 61.7565 65.7765C62.6837 64.1797 62.9498 62.2194 62.4691 60.5311C61.4846 57.0799 58.1708 55.4487 55.5381 55.8665C52.9111 56.2815 50.782 58.5193 50.3613 61.3094C50.3127 61.6357 50.0437 61.8875 49.7146 61.9161L46.4666 62.1908C46.2606 62.208 46.0574 62.1364 45.9086 61.9905C45.7598 61.8474 45.6825 61.6442 45.6911 61.4382C45.9486 56.6678 48.3811 52.6586 52.044 50.9731C54.7769 49.7168 58.1165 49.8284 61.2128 51.2821C64.5724 52.8589 67.1107 55.7864 68.0035 59.1145C68.7132 61.7616 68.4357 64.7663 67.2395 67.3647C65.9546 70.1634 63.7454 72.221 61.0182 73.1596C59.9107 73.5402 58.7603 73.7234 57.6071 73.7234Z" fill="#4AB69F"/>
<path d="M26.8431 73.3085C25.584 73.3085 24.4279 72.4671 24.0902 71.1937C23.6867 69.6742 24.591 68.1117 26.1106 67.7053L36.0148 65.064C36.3925 64.9638 36.7875 65.1899 36.8905 65.5705C36.9935 65.9511 36.7646 66.3432 36.384 66.4462L26.4797 69.0875C25.7242 69.2878 25.2721 70.0691 25.4753 70.8246C25.5726 71.188 25.8072 71.4942 26.1363 71.6831C26.4654 71.8748 26.8489 71.9263 27.2123 71.829L37.1166 69.1877C37.4972 69.0875 37.8892 69.3136 37.9922 69.6942C38.0953 70.0748 37.8663 70.4668 37.4857 70.5699L27.5815 73.2112C27.3325 73.277 27.0864 73.3085 26.8431 73.3085Z" fill="#4AB69F"/>
<path d="M38.687 71.0705C38.5954 71.0705 38.5067 71.0648 38.4152 71.0562C37.4565 70.9589 36.681 70.378 36.3347 69.4994C36.3004 69.4165 36.2718 69.3278 36.246 69.2362L35.6622 67.17C35.5878 66.9068 35.5535 66.6349 35.5592 66.3659C35.5764 65.5389 35.9913 64.8006 36.6953 64.3399C37.4221 63.862 38.3379 63.7732 39.1392 64.0995L40.6244 64.7061C40.9907 64.855 41.1652 65.2728 41.0164 65.6391C40.8676 66.0053 40.4498 66.1799 40.0835 66.0311L38.5983 65.4244C38.232 65.2756 37.8142 65.3157 37.4794 65.536C37.1761 65.7364 36.9958 66.0483 36.99 66.3974C36.9872 66.5262 37.0043 66.6549 37.0387 66.7837L37.6225 68.8498C37.6339 68.8928 37.6482 68.9357 37.6654 68.9758C37.8772 69.5109 38.3608 69.6139 38.5611 69.634C38.9188 69.6712 39.4053 69.5481 39.7 69.0988L40.5185 67.8397C40.7331 67.5077 41.1767 67.4133 41.5086 67.6308C41.8406 67.8454 41.935 68.289 41.7175 68.6209L40.8991 69.8801C40.4069 70.6298 39.577 71.0705 38.687 71.0705Z" fill="#4AB69F"/>
<path d="M28.1647 79.092C28.0387 79.092 27.9157 79.0605 27.8069 78.9947C27.6438 78.9003 27.5236 78.7429 27.475 78.5598L26.0413 73.1827C25.9383 72.8021 26.1672 72.41 26.5478 72.307C26.9284 72.2068 27.3205 72.4329 27.4235 72.8135L28.674 77.5009L31.8419 76.6567L31.2181 74.3159C31.1322 73.9897 31.2839 73.6491 31.5844 73.4946C31.8848 73.3401 32.2511 73.4173 32.4629 73.6777L34.3602 75.9986L35.9799 75.5664L34.6893 70.7302C34.5863 70.3496 34.8152 69.9576 35.1958 69.8545C35.5764 69.7544 35.9684 69.9805 36.0715 70.3611L37.5452 75.8898C37.6482 76.2704 37.4193 76.6625 37.0387 76.7655L34.28 77.5009C34.0082 77.5725 33.7192 77.4809 33.5417 77.2634L33.4273 77.1232C33.4473 77.4551 33.2327 77.7671 32.8979 77.8558L28.3478 79.0691C28.2877 79.0834 28.2276 79.092 28.1647 79.092Z" fill="#4AB69F"/>
<path d="M41.1138 68.9445C40.7933 68.9445 40.5071 68.7298 40.4241 68.4122L39.6601 65.5505C39.5713 65.2186 39.7316 64.8694 40.0406 64.7206L42.868 63.3613C43.2257 63.1896 43.6521 63.3413 43.8238 63.6962C43.9955 64.0539 43.8438 64.4803 43.489 64.652L41.1968 65.7537L41.6461 67.4335L44.1586 67.0987C44.5478 67.0443 44.9112 67.3219 44.9627 67.7139C45.0142 68.106 44.7395 68.4666 44.3475 68.5181L41.2111 68.9359C41.1767 68.9416 41.1452 68.9445 41.1138 68.9445Z" fill="#4AB69F"/>
<path d="M45.474 68.9386C44.9789 68.9386 44.4924 68.8069 44.0517 68.5522C43.3935 68.1716 42.9242 67.5593 42.7296 66.8267L42.4291 65.6963C42.2346 64.9637 42.3376 64.1996 42.7182 63.5415C43.0988 62.8833 43.7112 62.414 44.4438 62.2194L51.8469 60.2448C52.5766 60.0502 53.3436 60.1532 54.0017 60.5338C54.6599 60.9144 55.1292 61.5268 55.3238 62.2594L55.6243 63.3898C55.8189 64.1195 55.7159 64.8864 55.3353 65.5446C54.9547 66.2028 54.3423 66.6721 53.6097 66.8667L46.2066 68.8413C45.9662 68.9071 45.7201 68.9386 45.474 68.9386ZM52.5766 61.5812C52.4564 61.5812 52.3334 61.5984 52.2161 61.6299L44.8129 63.6044C44.4523 63.7017 44.1461 63.9335 43.9573 64.2626C43.7684 64.5888 43.7169 64.9694 43.8142 65.3329L44.1147 66.4632C44.212 66.8238 44.4438 67.13 44.7729 67.3189C45.0991 67.5077 45.4797 67.5592 45.8403 67.462L53.2434 65.4874C53.604 65.3901 53.9102 65.1583 54.099 64.8292C54.2879 64.503 54.3394 64.1224 54.2421 63.7589L53.9416 62.6286C53.8443 62.268 53.6126 61.9618 53.2835 61.7729C53.0631 61.6442 52.8199 61.5812 52.5766 61.5812Z" fill="#4AB69F"/>
<path d="M68.8547 72.467C68.5714 72.467 68.3052 72.2981 68.1908 72.0206C68.042 71.6543 68.2165 71.2365 68.5828 71.0877C70.9552 70.1204 70.5316 67.771 70.5116 67.6708C70.4372 67.2845 70.689 66.9096 71.0754 66.8323C71.4645 66.7579 71.8366 67.004 71.9167 67.3875C72.1714 68.6295 71.9138 71.2765 69.1266 72.4126C69.035 72.4498 68.9434 72.467 68.8547 72.467Z" fill="#4AB69F"/>
<path d="M69.5852 76.3501C69.299 76.3501 69.0272 76.1756 68.9184 75.8923C68.7753 75.5231 68.9614 75.1082 69.3276 74.9679C76.2128 72.3123 74.4701 66.2084 74.3928 65.9508C74.2783 65.5731 74.493 65.1753 74.8707 65.0608C75.2484 64.9464 75.6462 65.1581 75.7607 65.5359C76.5619 68.16 76.3588 73.7918 69.8399 76.3044C69.7569 76.333 69.671 76.3501 69.5852 76.3501Z" fill="#4AB69F"/>
<path d="M23.0744 66.3892C23.0286 66.3892 22.9857 66.3863 22.9399 66.3749C22.5535 66.3005 22.2989 65.9284 22.3733 65.5421C22.6051 64.2973 23.8442 61.9421 26.8547 61.9421C27.2496 61.9421 27.5701 62.2626 27.5701 62.6576C27.5701 63.0525 27.2496 63.373 26.8547 63.373C24.2935 63.373 23.7984 65.711 23.7784 65.8083C23.7068 66.1517 23.4092 66.3892 23.0744 66.3892Z" fill="#4AB69F"/>
<path d="M18.8218 66.5895C18.7989 66.5895 18.776 66.5895 18.7559 66.5867C18.3639 66.5494 18.0749 66.2032 18.1092 65.8111C18.3525 63.1126 20.6132 58.0703 27.3896 58.0703C27.4783 58.0703 27.5642 58.0703 27.6529 58.0732C28.0478 58.0818 28.3626 58.408 28.354 58.8029C28.3454 59.1978 28.0249 59.5012 27.6243 59.504C20.2412 59.3581 19.5572 65.6738 19.5315 65.9428C19.4971 66.3119 19.1852 66.5895 18.8218 66.5895Z" fill="#4AB69F"/>
</svg>
