<svg width="90" height="90" viewBox="0 0 90 90" fill="none" xmlns="http://www.w3.org/2000/svg">
<path d="M84.2617 63.9341L41.7585 88.4726C36.2752 91.6233 29.2166 89.745 26.0659 84.2617L1.52738 41.7585C-1.62325 36.2752 0.255012 29.2166 5.73832 26.0659L48.2415 1.52738C53.7248 -1.62325 60.7834 0.255012 63.9341 5.73832L88.4726 48.2415C91.6232 53.6945 89.745 60.7531 84.2617 63.9341Z" fill="#00E2ED"/>
<path d="M21.2489 32.2766C21.0671 32.2766 20.8551 32.2463 20.6733 32.1857C19.5221 31.8524 18.8556 30.6709 19.1889 29.55C19.8554 27.1568 21.5216 26.0965 23.1575 25.0665L50.271 7.82888C54.7849 4.95091 60.7832 6.28386 63.6612 10.7977L71.144 22.1582C71.8104 23.1579 71.5075 24.4909 70.5381 25.1271C69.5384 25.7632 68.2054 25.4906 67.5692 24.5212L60.0865 13.1304C58.4809 10.5857 55.1182 9.85862 52.6037 11.4339L25.4901 28.6715C24.0966 29.5501 23.5816 29.9136 23.3695 30.7012C23.0363 31.6707 22.188 32.2766 21.2489 32.2766Z" fill="#1D1D1B"/>
<mask id="mask0_907_1265" style="mask-type:luminance" maskUnits="userSpaceOnUse" x="13" y="15" width="69" height="61">
<path d="M13.6451 28.1257L20.734 67.8418C21.7034 73.2343 26.8535 76.809 32.2156 75.8396L73.2344 68.5083C78.6268 67.5389 82.2015 62.3888 81.2321 57.0267C80.6868 53.9064 77.6876 51.816 74.5673 52.3613L62.0254 54.6031C58.3597 55.2696 54.8153 52.7855 54.1791 49.1198C53.5126 45.4542 55.9968 41.9097 59.6624 41.2736L72.2043 39.0318C75.3247 38.4865 77.415 35.4873 76.8697 32.367L76.7788 31.7914C75.8094 26.399 70.6593 22.8242 65.2972 23.7936L24.2784 31.1249C24.2784 31.1249 41.7887 16.1897 44.9696 15.6141L19.704 20.3703C19.6434 20.3703 12.918 21.4004 13.6451 28.1257Z" fill="white"/>
</mask>
<g mask="url(#mask0_907_1265)">
<path d="M34.0336 47.3024L37.9719 29.3075L26.0359 31.4281C25.1876 31.8522 24.3091 32.1551 23.4003 32.3066C17.6443 33.3366 12.5548 29.3983 11.3127 23.8847C10.9795 22.37 11.0401 20.8553 11.4642 19.4011L2.89087 20.7341L3.95118 49.2412L27.3688 77.4757L30.7618 62.0861C31.4889 62.177 32.2765 62.177 33.0339 62.0255C37.1843 61.2985 39.9411 57.3299 39.214 53.1795C38.7293 50.3318 36.639 48.1203 34.0336 47.3024Z" fill="#1D1D1B"/>
</g>
<mask id="mask1_907_1265" style="mask-type:luminance" maskUnits="userSpaceOnUse" x="13" y="15" width="69" height="61">
<path d="M13.6451 28.1257L20.734 67.8418C21.7034 73.2343 26.8535 76.809 32.2156 75.8396L73.2344 68.5083C78.6268 67.5389 82.2015 62.3888 81.2321 57.0267C80.6868 53.9064 77.6876 51.816 74.5673 52.3613L62.0254 54.6031C58.3597 55.2696 54.8153 52.7855 54.1791 49.1198C53.5126 45.4542 55.9968 41.9097 59.6624 41.2736L72.2043 39.0318C75.3247 38.4865 77.415 35.4873 76.8697 32.367L76.7788 31.7914C75.8094 26.399 70.6593 22.8242 65.2972 23.7936L24.2784 31.1249C24.2784 31.1249 41.7887 16.1897 44.9696 15.6141L19.704 20.3703C19.6434 20.3703 12.918 21.4004 13.6451 28.1257Z" fill="white"/>
</mask>
<g mask="url(#mask1_907_1265)">
<path d="M31.1855 64.5098C38.8986 64.5098 45.1513 58.2571 45.1513 50.544C45.1513 42.831 38.8986 36.5783 31.1855 36.5783C23.4724 36.5783 17.2197 42.831 17.2197 50.544C17.2197 58.2571 23.4724 64.5098 31.1855 64.5098Z" fill="#1D1D1B"/>
</g>
<path d="M31.0036 78.3845C28.5498 78.3845 26.1868 77.6272 24.1268 76.2034C21.4911 74.3554 19.7341 71.5986 19.1585 68.448L12.0998 28.9136C11.9787 28.5198 11.8575 28.126 11.7969 27.7321C11.4334 25.6418 11.8878 23.5212 13.0996 21.7944C14.3113 20.0676 16.129 18.8861 18.2193 18.5226L39.3649 14.7964C40.5161 14.5843 41.637 15.372 41.8491 16.5232C42.0611 17.6744 41.2735 18.7953 40.1223 19.0073L18.9767 22.7335C18.0073 22.9153 17.1893 23.4303 16.6137 24.2483C16.0381 25.0662 15.8261 26.0356 16.0078 27.0051C16.0381 27.1868 16.0684 27.3686 16.129 27.5201C16.1593 27.5807 16.1896 27.6715 16.2199 27.7321C16.4925 28.3986 16.9167 28.9439 17.5226 29.368C18.3102 29.9436 19.2796 30.1557 20.2794 29.9739L65.4182 21.9156C71.9618 20.7341 78.2328 25.1268 79.3839 31.6704L79.4748 32.2763C79.8384 34.3363 79.3839 36.457 78.1722 38.1837C76.9604 39.9105 75.1427 41.0617 73.0827 41.4555L59.9955 43.7882C57.481 44.2426 55.8148 46.6359 56.2389 49.1503C56.451 50.3621 57.1478 51.4224 58.1475 52.1192C59.1472 52.816 60.3893 53.0886 61.6011 52.8766L74.6883 50.5439C76.7483 50.1804 78.8689 50.6348 80.5957 51.8466C82.3225 53.0583 83.4737 54.876 83.8675 56.936C85.0187 63.4797 80.6563 69.7506 74.1127 70.9321L33.0939 78.2634C32.4275 78.324 31.7004 78.3845 31.0036 78.3845ZM17.3711 33.9728L23.3997 67.7209C24.1571 71.9318 28.1862 74.7492 32.3972 73.9919L73.4159 66.6606C77.6269 65.9032 80.4443 61.874 79.6869 57.6631C79.5051 56.724 78.9901 55.8757 78.2025 55.3304C77.4148 54.7851 76.4454 54.5731 75.5063 54.7245L62.419 57.0572C60.0864 57.4511 57.7234 56.9663 55.7542 55.5728C53.7851 54.2095 52.4824 52.1798 52.0583 49.8168C51.6342 47.4842 52.1795 45.1212 53.5427 43.152C54.906 41.1829 56.9357 39.8802 59.2987 39.4561L72.3859 37.1234C73.325 36.9417 74.1733 36.4267 74.7186 35.639C75.2639 34.8513 75.476 33.8819 75.3245 32.9428L75.2336 32.3369C74.4762 28.126 70.4471 25.3086 66.2361 26.0659L21.0973 34.1243C19.7644 34.3969 18.5223 34.306 17.3711 33.9728Z" fill="#1D1D1B"/>
<path d="M34.0634 52.9373L30.3069 53.6037L28.9436 45.9089L26.7624 46.3028L28.1257 53.9976L24.8841 54.5732C24.4297 54.6641 24.0056 54.3611 23.9147 53.9067L22.7029 47.0298L20.5217 47.4237L21.9153 55.2397C22.1273 56.3606 23.1876 57.1179 24.3085 56.9058L36.6081 54.7247L34.851 44.8789L32.6698 45.2728L34.0634 52.9373Z" fill="white"/>
<path d="M40.3023 51.7346L38.0952 52.1282L38.4889 54.3353L40.6959 53.9416L40.3023 51.7346Z" fill="#00E2ED"/>
<path d="M61.4193 50.2411C62.6741 50.2411 63.6914 49.2239 63.6914 47.969C63.6914 46.7142 62.6741 45.6969 61.4193 45.6969C60.1645 45.6969 59.1472 46.7142 59.1472 47.969C59.1472 49.2239 60.1645 50.2411 61.4193 50.2411Z" fill="#1D1D1B"/>
</svg>
