<svg width="800" height="143" viewBox="0 0 800 143" fill="none" xmlns="http://www.w3.org/2000/svg">
<path d="M0 36.8163H8.29467L8.73125 48.2397C13.6062 39.7995 21.7553 35.0701 32.7422 35.0701C45.7663 35.0701 55.5889 41.0364 59.7362 53.0419C64.1746 41.473 73.0514 35.0701 86.0027 35.0701C103.829 35.0701 115.543 46.0569 115.398 68.6126V111.032H106.521V73.051C106.521 48.458 96.844 43.3648 84.5475 43.3648C70.432 43.3648 62.1373 54.3516 62.1373 72.9055V111.032H53.2606V73.051C53.2606 48.458 43.5834 43.3648 31.2869 43.3648C17.1714 43.3648 8.87677 54.3516 8.87677 72.9055V111.032H0V36.8163Z" fill="white"/>
<path d="M119.981 36.8172H129.149L155.852 100.337L182.701 36.8172H192.014L155.707 122.82C150.395 135.407 145.157 142.392 133.006 142.392C129.877 142.392 125.584 141.228 119.836 138.827L123.11 131.26C128.276 133.152 131.696 134.243 133.806 134.243C139.408 134.243 142.974 130.969 145.375 125.366L151.487 110.96H151.341L119.981 36.8172Z" fill="white"/>
<path d="M188.667 7.1304H216.68L233.124 68.6856L248.694 7.1304H275.979L291.987 67.0849L307.994 7.1304H336.007L306.175 110.959H277.726L262.3 49.5497L246.875 110.959H218.426L188.667 7.1304Z" fill="white"/>
<path d="M337.898 14.8431C337.898 6.83948 344.738 0 352.742 0C360.745 0 367.585 6.83948 367.585 14.8431C367.585 22.8468 360.745 29.6862 352.742 29.6862C344.738 29.6862 337.898 22.8468 337.898 14.8431ZM339.354 36.8167H366.057V110.96H339.354V36.8167Z" fill="white"/>
<path d="M382.356 87.5308V59.0815H371.223V36.8168H382.356V13.679H409.059V36.8168H424.338V59.0815H409.059V80.3275C409.059 85.93 410.514 88.0401 414.225 88.0401C415.825 88.0401 418.663 86.8759 419.973 85.7845L428.995 105.066C424.411 109.068 416.408 112.779 409.423 112.779C391.087 112.779 382.356 103.829 382.356 87.5308Z" fill="white"/>
<path d="M426.884 7.1304H436.343L464.064 96.4073L491.058 7.1304H500.517L526.929 96.4073L555.233 7.1304H564.692L531.877 110.959H521.472L495.642 22.9922L469.085 110.959H458.68L426.884 7.1304Z" fill="white"/>
<path d="M561.129 90.0769C561.129 75.5248 571.388 66.9391 588.851 66.9391H610.679C609.369 51.0774 603.694 43.2192 590.379 43.2192C580.92 43.2192 574.08 46.93 569.933 54.4971L561.929 50.9318C568.478 40.2361 577.937 35.0701 590.379 35.0701C610.242 35.0701 619.919 46.93 619.919 71.232V110.959H612.498L612.207 102.519C607.041 109.067 599.037 112.778 588.923 112.778C571.315 112.778 561.129 104.265 561.129 90.0769ZM611.261 79.2356L611.115 75.0883H590.088C575.827 75.0883 570.078 80.5453 570.078 90.0769C570.078 99.0992 576.772 104.629 588.341 104.629C602.602 104.556 611.261 94.3698 611.261 79.2356Z" fill="white"/>
<path d="M634.181 7.1304H643.057L642.766 110.959H633.889L634.181 7.1304Z" fill="white"/>
<path d="M659.717 7.1304H668.594L668.303 110.959H659.426L659.717 7.1304Z" fill="white"/>
<path d="M680.455 73.8522C680.455 51.1509 695.298 34.9981 716.18 34.9981C737.281 34.9981 749.141 51.5875 749.141 74.8708H689.332C689.768 92.5516 701.046 104.557 716.908 104.557C728.331 104.557 736.335 98.2996 740.919 89.4229L748.34 94.0068C742.738 104.994 731.751 112.706 716.908 112.706C695.589 112.779 680.455 96.6989 680.455 73.8522ZM689.987 66.7216H739.682C737.572 52.6061 729.714 43.1473 716.253 43.1473C702.72 43.1473 692.533 52.6789 689.987 66.7216Z" fill="white"/>
<path d="M766.093 91.9691V44.966H752.924V36.8168H766.093V13.679H774.97V36.8168H798.545V44.966H774.97V91.9691C774.97 99.9728 779.7 104.557 787.849 104.557C790.25 104.557 791.851 104.266 796.289 101.282L800 108.995C794.688 112.124 791.56 112.706 787.849 112.706C774.243 112.779 766.093 105.139 766.093 91.9691Z" fill="white"/>
</svg>
