<svg width="110" height="95" viewBox="0 0 110 95" fill="none" xmlns="http://www.w3.org/2000/svg">
<path d="M43.9317 27.7904C42.2175 25.8416 39.3702 25.896 37.7218 27.407C38.0309 27.3898 38.3428 27.4327 38.629 27.5615C40.3288 28.2969 39.2872 29.1354 38.0452 29.4588C37.5559 29.5904 37.0236 29.6534 36.5314 29.5189C36.4827 29.7507 36.4512 29.9968 36.4427 30.2515C36.2166 32.9443 38.9867 35.2479 41.5937 34.6069C44.7673 33.9945 46.1409 30.2085 43.9317 27.7904Z" fill="#4AB69F"/>
<path d="M58.6746 39.695C53.4149 39.695 46.9218 38.6418 41.1927 34.6555C40.8693 34.4295 40.7892 33.983 41.0153 33.6597C41.2413 33.3363 41.6878 33.2562 42.0111 33.4823C53.3262 41.3576 68.3471 37.0508 68.4988 37.0079C69.0425 36.8619 70.4762 36.2839 70.7852 35.3281C70.977 34.7357 70.7194 34.0002 70.0212 33.1475C67.7347 30.3488 56.537 30.695 52.4162 31.0613C52.0184 31.0928 51.675 30.8066 51.6407 30.4117C51.6063 30.0168 51.8953 29.6705 52.2902 29.6362C53.8842 29.4931 67.955 28.357 71.1315 32.2403C72.1588 33.4966 72.4994 34.6842 72.1474 35.7687C71.5321 37.6632 68.9938 38.3557 68.8879 38.3843C68.5588 38.4787 64.3293 39.695 58.6746 39.695Z" fill="#021D30"/>
<path d="M54.666 42.0502C53.1922 42.0502 50.9544 41.7984 48.9112 40.5564C48.6422 40.3933 48.5105 40.0699 48.5907 39.7637L48.8969 38.5904C48.997 38.207 49.3862 37.978 49.7697 38.0782C50.1531 38.1784 50.3821 38.5675 50.2819 38.951L50.1159 39.5892C52.2536 40.6938 54.6002 40.6566 55.5874 40.5764L55.782 39.6092C55.8593 39.2229 56.237 38.9711 56.6234 39.0483C57.0097 39.1256 57.2615 39.5033 57.1843 39.8896L56.8866 41.3691C56.8294 41.6582 56.5976 41.8842 56.3057 41.9329C56.2399 41.9472 55.6103 42.0502 54.666 42.0502Z" fill="#021D30"/>
<path d="M61.3274 42.2792C60.8838 42.2792 60.5662 42.2277 60.3716 42.1218C60.0969 41.9759 59.9481 41.6668 60.0053 41.3606L60.2457 40.0671C60.3172 39.6779 60.6921 39.4232 61.0813 39.4948C61.4705 39.5663 61.7252 39.9412 61.6536 40.3304L61.5563 40.8512C62.3147 40.7997 63.631 40.5822 64.8301 40.3275L65.3824 38.6449C65.5054 38.27 65.9089 38.064 66.2838 38.187C66.6587 38.3101 66.8647 38.7136 66.7417 39.0884L66.0606 41.1603C65.9833 41.4007 65.783 41.5809 65.5369 41.6353C63.6368 42.0645 62.2288 42.2792 61.3274 42.2792Z" fill="#021D30"/>
<path d="M46.2554 12.6952C45.2767 13.0615 42.9759 14.2691 43.1819 16.1979C43.388 18.1295 47.3571 17.5171 48.7221 17.1794C49.821 16.9076 52.1847 16.0834 51.641 13.7225C51.0973 11.3645 47.6147 12.1887 46.2554 12.6952Z" fill="#021D30"/>
<path d="M64.3809 18.6959C64.2921 18.4469 64.1719 18.2066 64.1119 17.949C64.0832 17.7802 64.0832 17.6113 64.0632 17.4396C64.0546 17.2107 64.0375 16.9818 64.0918 16.7557C64.2464 16.1004 64.8273 15.5538 65.5084 15.5137C66.218 15.4422 66.9134 15.6997 67.5316 16.026C67.9551 16.2263 68.3385 16.501 68.7134 16.7815C69.2085 17.1334 69.6091 17.5885 69.984 18.0606C70.4218 18.5299 70.5392 19.2082 70.4819 19.832C70.4362 20.4902 70.0956 21.1655 69.4918 21.4717C68.6219 21.9038 67.2111 21.2743 66.4298 20.825C65.8518 20.5159 65.3596 20.0695 64.9446 19.563C64.7271 19.2997 64.5068 19.0221 64.3809 18.6959Z" fill="#021D30"/>
<path d="M71.0725 31.1415C70.9895 31.1415 70.9066 31.1272 70.8236 31.0957C70.4544 30.9584 70.2627 30.5463 70.4029 30.1771C71.27 27.8363 71.4045 26.1364 70.8093 24.9775C70.3399 24.0617 69.3899 23.4207 67.9104 23.0144C63.306 21.7524 61.9009 22.4649 61.2141 23.9215C60.8077 24.7771 60.7934 27.5387 60.9537 28.586C61.0138 28.9752 60.7476 29.3415 60.3556 29.4016C59.9635 29.4617 59.6001 29.1956 59.54 28.8035C59.3797 27.779 59.3168 24.5826 59.9206 23.3091C61.3801 20.2242 64.8055 20.6821 68.2881 21.635C70.1511 22.1444 71.4274 23.0487 72.0827 24.325C72.8811 25.8817 72.7752 27.8992 71.745 30.6751C71.6363 30.9641 71.3616 31.1415 71.0725 31.1415Z" fill="#021D30"/>
<path d="M47.9274 32.392C47.5697 32.392 47.2034 32.3749 46.8343 32.3405C44.1929 32.1001 38.0346 30.6407 37.8858 22.3447C37.883 22.1501 37.923 17.6258 46.2905 17.3539C54.0285 17.1021 56.0717 17.5514 56.8215 22.276C57.2593 25.0289 56.4695 27.7218 54.6523 29.662C52.9868 31.4391 50.6288 32.3892 47.9274 32.392ZM49.1837 18.7275C48.3567 18.7275 47.4152 18.7476 46.3335 18.7819C39.4569 19.0051 39.3166 22.1959 39.3138 22.3333C39.4368 29.2013 44.1586 30.6607 46.963 30.9154C49.6673 31.1615 52.0282 30.3688 53.605 28.6833C55.1159 27.0665 55.7741 24.8143 55.405 22.4992C54.9356 19.5317 54.3776 18.7275 49.1837 18.7275Z" fill="#021D30"/>
<path d="M59.9727 28.6575C59.7438 28.6575 59.5177 28.5459 59.3804 28.3427C59.2945 28.2254 58.5447 27.304 56.5845 28.3714C56.2382 28.5602 55.8033 28.4315 55.6144 28.0852C55.4255 27.7389 55.5543 27.3039 55.9006 27.1151C58.4618 25.7214 60.0757 26.7889 60.5737 27.5501C60.7883 27.882 60.6967 28.3256 60.3648 28.5402C60.2417 28.6203 60.1072 28.6575 59.9727 28.6575Z" fill="#021D30"/>
<path d="M56.6513 33.7599C57.1035 33.9173 57.424 33.6054 57.8475 33.9259C58.1108 34.0718 58.4255 33.9059 58.5743 33.6712C58.7489 33.3679 58.6259 32.9558 58.4313 32.6896C58.0564 32.2833 57.464 32.0229 56.9174 32.2089C56.3222 32.3491 55.8357 32.7554 56.2478 33.3707C56.3508 33.5281 56.4596 33.7055 56.6513 33.7599Z" fill="#021D30"/>
<path d="M62.7634 34.2778C62.8407 34.2693 62.918 34.2693 62.9924 34.2864C63.1183 34.3408 63.2184 34.4352 63.3472 34.4867C63.579 34.6184 63.8566 34.6384 64.1055 34.544C64.3373 34.4381 64.5319 34.2092 64.5892 33.9602C64.7122 33.6683 64.635 33.302 64.3831 33.1017C63.8566 32.6953 63.0439 32.7154 62.5431 33.1532C62.3742 33.3049 62.1882 33.4308 62.1711 33.6826C62.1453 33.9087 62.1968 34.1949 62.4315 34.2893C62.5402 34.3265 62.6547 34.295 62.7634 34.2778Z" fill="#021D30"/>
<path d="M71.8383 21.2371C71.804 21.2371 71.7668 21.2343 71.7296 21.2285C71.3376 21.1684 71.0714 20.805 71.1286 20.4129C71.1887 20.0066 72.4135 10.8464 62.4349 6.10172C56.6629 3.35738 50.4387 3.23148 44.4207 3.11129C40.1425 3.02544 36.0732 2.94244 32.5962 1.86645C32.9625 3.34021 33.8611 5.78408 35.8786 6.57677C36.2477 6.71985 36.428 7.13765 36.2821 7.50395C36.139 7.87024 35.724 8.05338 35.3549 7.90743C31.6032 6.43367 30.9708 1.08236 30.945 0.856288C30.9164 0.607322 31.0223 0.361216 31.2226 0.209547C31.4229 0.0578784 31.6862 0.0206717 31.9209 0.115107C35.4064 1.49729 39.7991 1.58888 44.4464 1.68045C50.3271 1.80064 56.9948 1.93514 63.0444 4.81112C68.7649 7.52971 71.0456 11.6763 71.9499 14.6753C72.9315 17.929 72.5537 20.5188 72.5366 20.6276C72.4908 20.9824 72.1875 21.2371 71.8383 21.2371Z" fill="#021D30"/>
<path d="M30.461 19.5947C27.7568 19.5947 25.2642 18.5273 25.1383 18.4729C24.9094 18.3728 24.7491 18.161 24.7148 17.9149C24.6805 17.6688 24.7778 17.4198 24.9724 17.2624L35.2744 8.84913C35.5806 8.60016 36.0299 8.64595 36.2817 8.95214C36.5335 9.25834 36.4849 9.70763 36.1787 9.95946L26.8611 17.5715C28.0773 17.9435 30.0604 18.3871 31.8432 18.0437C32.2324 17.9693 32.6073 18.224 32.6817 18.6103C32.7561 18.9995 32.5014 19.3744 32.1151 19.4488C31.5656 19.5489 31.0105 19.5947 30.461 19.5947Z" fill="#021D30"/>
<path d="M26.793 33.9344C25.4681 33.9344 24.5438 33.7713 24.4665 33.757C24.146 33.6998 23.9056 33.4336 23.8827 33.1103C23.8598 32.7869 24.0515 32.4864 24.3577 32.3776C25.2821 32.0543 27.7488 28.1996 30.3501 20.6477C30.4789 20.2756 30.8852 20.0753 31.2601 20.2041C31.635 20.3329 31.8324 20.7392 31.7037 21.1141C31.1542 22.7109 28.7075 29.5789 26.3323 32.4921C27.6544 32.5322 29.5946 32.4177 31.3746 31.6536C31.738 31.4991 32.1587 31.6651 32.3132 32.0285C32.4677 32.392 32.3017 32.8126 31.9383 32.9672C30.1297 33.7455 28.2267 33.9344 26.793 33.9344Z" fill="#021D30"/>
<path d="M30.5356 37.7033C30.4298 37.7033 30.321 37.6804 30.218 37.6289C29.8631 37.4544 29.7201 37.0251 29.8946 36.6703L31.4657 33.5024C31.6402 33.1476 32.0695 33.0045 32.4243 33.179C32.7792 33.3536 32.9223 33.7829 32.7477 34.1377L31.1767 37.3056C31.0536 37.5574 30.7989 37.7033 30.5356 37.7033Z" fill="#021D30"/>
<path d="M54.7323 49.8168C53.4788 49.8168 52.131 49.7109 50.6887 49.4676C38.1689 47.3672 33.3699 36.8992 33.1724 36.4527C33.0122 36.0922 33.1724 35.6687 33.5359 35.5084C33.8964 35.3482 34.32 35.5084 34.4802 35.869C34.526 35.972 39.1848 46.0851 50.9262 48.054C57.4423 49.1471 61.812 47.3042 64.3303 45.5672C67.2864 43.5268 68.9519 40.7796 69.2924 38.9653C69.364 38.5761 69.7389 38.3214 70.1281 38.393C70.5172 38.4645 70.7719 38.8394 70.7004 39.2286C70.337 41.1802 68.6629 44.3195 65.1459 46.7462C62.971 48.2457 59.5456 49.8168 54.7323 49.8168Z" fill="#021D30"/>
<path d="M58.0618 45.7588C57.458 45.7588 56.8084 45.6587 56.1302 45.404C55.761 45.2638 55.5722 44.8517 55.7124 44.4826C55.8526 44.1134 56.2647 43.9245 56.6338 44.0647C59.0262 44.9633 61.0465 43.2463 61.0666 43.2291C61.3642 42.9716 61.8163 43.0031 62.0767 43.3007C62.3343 43.5983 62.3028 44.0504 62.0052 44.3109C61.9193 44.3824 60.2996 45.7588 58.0618 45.7588Z" fill="#021D30"/>
<path d="M66.0245 30.1599C65.9015 30.1599 65.7755 30.1541 65.6525 30.1398C64.0671 29.9624 63.1829 28.7061 63.0856 28.5631C62.7765 28.1052 62.8996 27.4813 63.3574 27.1723C63.8124 26.8661 64.4305 26.9834 64.7425 27.4384C64.7625 27.4642 65.2146 28.0823 65.89 28.151C66.4166 28.2054 67.0146 27.9192 67.6671 27.3039C68.0706 26.9233 68.703 26.9434 69.0836 27.3469C69.4614 27.7504 69.4442 28.3828 69.0407 28.7634C68.0534 29.6906 67.0404 30.1599 66.0245 30.1599Z" fill="#021D30"/>
<path d="M48.668 29.6076C48.5335 29.6076 48.3961 29.6018 48.2616 29.5904C45.9408 29.4015 44.4842 27.633 44.4241 27.5586C44.0779 27.1294 44.1437 26.4969 44.5729 26.1507C45.0022 25.8044 45.6289 25.8702 45.978 26.2966C46.0038 26.3281 46.991 27.4899 48.439 27.5958C49.4292 27.6731 50.4537 27.2381 51.4896 26.3109C51.9017 25.9418 52.5341 25.9761 52.9032 26.3882C53.2724 26.8003 53.2381 27.4327 52.826 27.8019C51.4867 29.0038 50.0902 29.6076 48.668 29.6076Z" fill="#021D30"/>
<path d="M56.5394 51.9543C56.3419 51.9543 56.1445 51.9429 55.9413 51.9229C52.3871 51.5423 41.5528 45.8132 41.0949 45.5671C40.7458 45.3811 40.6142 44.9489 40.7973 44.5998C40.9833 44.2507 41.4155 44.1191 41.7646 44.3022C41.8733 44.3595 52.8135 50.1458 56.0958 50.4978C59.1235 50.8183 61.7963 47.6561 61.822 47.6246C62.0739 47.3213 62.526 47.2784 62.8293 47.5302C63.1327 47.782 63.1756 48.2313 62.9238 48.5375C62.8036 48.6863 60.0564 51.9543 56.5394 51.9543Z" fill="#021D30"/>
<path d="M59.6424 54.9248C59.5307 54.9248 59.422 54.9104 59.3075 54.879C58.7066 54.713 57.7279 53.863 57.3358 53.5053C57.044 53.2392 57.0239 52.7871 57.2872 52.4952C57.5533 52.2033 58.0055 52.1833 58.2974 52.4465C58.8182 52.9216 59.4363 53.3909 59.6624 53.4882C60.2118 53.3193 61.4423 51.1187 62.2722 48.8122C62.4067 48.4402 62.8159 48.2485 63.188 48.3801C63.56 48.5146 63.7517 48.9238 63.6201 49.2958C62.8446 51.4564 61.3336 54.9248 59.6424 54.9248Z" fill="#021D30"/>
<path d="M49.3661 54.8788C48.7394 54.8788 48.1213 54.7643 47.5633 54.4725C44.9935 53.1418 40.9271 47.4099 39.9312 44.7084C39.7938 44.3393 39.9856 43.9272 40.3547 43.7899C40.7239 43.6525 41.136 43.8442 41.2733 44.2134C42.4924 47.5157 46.6104 52.3691 48.2215 53.2019C49.8269 54.0346 52.6428 52.5809 53.5928 51.9513C53.9219 51.7339 54.3655 51.8226 54.583 52.1516C54.8005 52.4807 54.7117 52.9243 54.3826 53.1418C54.2482 53.2334 51.7328 54.8788 49.3661 54.8788Z" fill="#021D30"/>
<path d="M42.1914 54.4698C42.1313 54.4698 42.0712 54.4612 42.0111 54.4469C41.6276 54.3496 41.3987 53.9575 41.496 53.5769L42.3459 50.286C42.4432 49.9025 42.8353 49.6736 43.2159 49.7709C43.5993 49.8682 43.8283 50.2603 43.731 50.6409L42.881 53.9318C42.8009 54.2552 42.509 54.4698 42.1914 54.4698Z" fill="#021D30"/>
<path d="M41.8878 56.8421C41.739 56.8421 41.6045 56.822 41.4929 56.7791C41.4757 56.7734 41.45 56.7648 41.4185 56.7562C41.0551 56.6446 40.1994 56.3842 39.8245 55.54C39.5527 54.9276 39.6156 54.1807 40.0163 53.3194C40.1651 52.9988 40.5257 52.8357 40.8662 52.933C42.1969 53.3222 43.8538 53.9575 44.1714 54.7874C44.3403 55.2252 44.2229 55.6888 43.8509 56.058C43.4388 56.47 42.5317 56.8421 41.8878 56.8421ZM41.1094 54.5155C41.0751 54.6987 41.0808 54.8475 41.1295 54.9591C41.2382 55.2052 41.6274 55.3254 41.8334 55.3883C41.8678 55.3998 41.8964 55.4084 41.925 55.4169C42.0996 55.4055 42.4201 55.2996 42.6404 55.1852C42.3228 54.9877 41.7447 54.7359 41.1094 54.5155Z" fill="#021D30"/>
<path d="M62.0279 56.856C62.0136 56.856 62.0021 56.856 61.9878 56.856C61.5929 56.8332 61.2896 56.4983 61.3124 56.1034C61.3296 55.7772 61.0578 54.5238 60.7974 53.5451C60.6943 53.1645 60.9204 52.7724 61.3039 52.6694C61.6845 52.5693 62.0794 52.7925 62.1795 53.1759C62.3226 53.7053 62.7805 55.4825 62.7433 56.1836C62.7204 56.5613 62.4056 56.856 62.0279 56.856Z" fill="#021D30"/>
<path d="M62.3175 59.2973C61.9913 59.2973 61.6851 59.2143 61.4218 59.0511C60.8695 58.7077 60.5376 58.0582 60.4345 57.1167C60.4059 56.842 60.5376 56.573 60.7751 56.4299C62.7124 55.2537 63.1875 55.371 63.3878 55.4226C63.6053 55.4769 63.7856 55.6114 63.8943 55.7974C64.2034 56.3211 64.0631 57.6403 63.8371 58.2814C63.6768 58.7335 63.4307 59.0254 63.1045 59.1485C62.8383 59.2486 62.5722 59.2973 62.3175 59.2973ZM61.9398 57.4057C62.0085 57.6518 62.0972 57.7863 62.1744 57.8349C62.2546 57.8836 62.3805 57.8693 62.4778 57.8464C62.5493 57.6747 62.6065 57.3485 62.6323 57.0423C62.4234 57.1424 62.183 57.2683 61.9398 57.4057Z" fill="#021D30"/>
<path d="M50.9993 60.1355C50.8105 60.1355 50.6216 60.0611 50.4785 59.9123C50.2067 59.6261 50.2181 59.174 50.5071 58.9022L51.8092 57.6688L50.7075 56.5584C50.4299 56.278 50.4327 55.8258 50.7103 55.5454C50.9908 55.2678 51.4429 55.2707 51.7233 55.5482L53.3402 57.1794C53.4747 57.3168 53.552 57.5028 53.5462 57.6945C53.5434 57.8862 53.4632 58.0694 53.323 58.2039L51.4887 59.9409C51.3513 60.0697 51.1768 60.1355 50.9993 60.1355Z" fill="#021D30"/>
<path d="M53.7745 60.2902C53.391 60.2902 53.0762 59.9869 53.0591 59.6034C53.0448 59.2085 53.351 58.8765 53.7459 58.8594L55.9351 58.7735C56.3243 58.7621 56.6619 59.0654 56.6791 59.4603C56.6934 59.8552 56.3872 60.1872 55.9923 60.2043L53.8031 60.2902C53.7945 60.2873 53.7859 60.2902 53.7745 60.2902Z" fill="#021D30"/>
<path d="M68.0236 61.0944C67.6601 61.0944 67.3482 60.8197 67.311 60.4477C66.7644 54.8846 64.6783 48.3543 64.6554 48.2884C64.5352 47.9136 64.7412 47.5101 65.1161 47.387C65.491 47.2669 65.8945 47.4729 66.0175 47.8478C66.1062 48.1196 68.1724 54.587 68.7332 60.3046C68.7704 60.6967 68.4843 61.0487 68.0922 61.0859C68.0693 61.0945 68.0464 61.0944 68.0236 61.0944Z" fill="#021D30"/>
<path d="M43.4107 90.1835C41.6708 90.1835 39.7849 89.9832 37.756 89.4967C37.6702 89.4767 37.5872 89.4395 37.5156 89.388C37.3382 89.2649 33.1745 86.2545 33.4034 76.1413C33.412 75.7464 33.7411 75.4259 34.136 75.4431C34.5309 75.4517 34.8428 75.7808 34.8342 76.1757C34.7226 81.0319 35.6899 84.0539 36.5169 85.7337C37.2409 87.2017 37.9878 87.9228 38.2425 88.1432C43.7369 89.4223 48.1296 88.4093 50.8567 87.3219C53.1289 86.4176 54.6542 85.3187 55.2666 84.8322C54.7601 82.3969 51.8268 69.6883 45.1362 65.2269C42.1515 63.238 38.7576 62.9633 35.0517 64.4142C32.2187 65.5245 30.2556 67.2701 30.2355 67.2902C29.9408 67.5534 29.4886 67.5306 29.2254 67.2387C28.9621 66.9439 28.985 66.4946 29.2769 66.2285C29.3627 66.1512 37.839 58.6451 45.9318 64.0393C49.2628 66.26 52.0958 70.4695 54.3594 76.5534C56.0278 81.0376 56.7289 84.8236 56.7575 84.9839C56.8004 85.2243 56.7174 85.4732 56.5372 85.6392C56.2939 85.8596 51.4749 90.1835 43.4107 90.1835Z" fill="#021D30"/>
<path d="M41.7306 87.9514C41.516 87.9514 41.3043 87.8541 41.1612 87.671C40.9208 87.3562 40.9809 86.9069 41.2928 86.6665C41.4388 86.5549 44.7755 84.0682 50.0924 86.0885C50.5045 85.2958 51.3258 84.0538 52.5878 83.636C53.1773 83.4414 54.1074 83.3556 55.2063 84.0595C55.5382 84.2713 55.6355 84.7149 55.4237 85.0468C55.212 85.3788 54.7684 85.4761 54.4365 85.2643C53.9299 84.941 53.4721 84.8522 53.0428 84.9953C52.0613 85.3187 51.3287 86.7438 51.1284 87.2675C51.0568 87.4506 50.9166 87.5966 50.7363 87.6738C50.556 87.7482 50.3529 87.7482 50.1726 87.671C45.2448 85.5161 42.1971 87.7826 42.1656 87.8084C42.034 87.9028 41.8823 87.9514 41.7306 87.9514Z" fill="#021D30"/>
<path d="M67.3313 85.141C67.1653 85.141 66.9965 85.0838 66.862 84.9636C66.5672 84.7032 66.5329 84.2568 66.7904 83.9592C66.902 83.8304 69.4689 80.9515 74.3624 82.2536C74.6314 81.3837 75.2095 80.0472 76.3141 79.515C76.812 79.2746 77.6276 79.1086 78.6749 79.6695C79.0241 79.8555 79.1528 80.2905 78.9668 80.6396C78.7808 80.9887 78.3459 81.1175 77.9967 80.9315C77.3729 80.5967 77.0438 80.7541 76.935 80.8056C76.1338 81.189 75.673 82.763 75.5757 83.2867C75.5385 83.4898 75.4127 83.6673 75.2352 83.7731C75.0549 83.879 74.8403 83.8991 74.6457 83.8333C70.213 82.3366 67.9637 84.7948 67.8721 84.8978C67.7262 85.058 67.5287 85.141 67.3313 85.141Z" fill="#021D30"/>
<path d="M25.9893 81.584C25.8233 81.584 25.6545 81.5267 25.52 81.4094C24.59 80.6024 23.7229 79.6437 22.9388 78.562C22.707 78.2415 22.7785 77.7951 23.099 77.5633C23.4195 77.3315 23.866 77.403 24.0978 77.7235C24.816 78.7165 25.6116 79.5951 26.4586 80.3305C26.7563 80.591 26.7877 81.0402 26.5302 81.3407C26.3871 81.5009 26.1896 81.584 25.9893 81.584Z" fill="#021D30"/>
<path d="M33.4438 84.6116C32.9201 84.6116 32.0473 84.5601 30.9713 84.294C30.5879 84.1996 30.3532 83.8132 30.4476 83.4298C30.5421 83.0463 30.9284 82.8088 31.3119 82.9061C32.7913 83.2695 33.8072 83.1694 33.8187 83.1665C34.2079 83.1236 34.5627 83.4098 34.6056 83.8018C34.6486 84.1939 34.3681 84.5458 33.9761 84.5888C33.956 84.5916 33.7672 84.6116 33.4438 84.6116Z" fill="#021D30"/>
<path d="M28.3866 66.6892C28.3465 66.6892 28.3065 66.6864 28.2664 66.6806L27.7627 66.5976C27.3736 66.5318 27.1103 66.1627 27.1761 65.7735C27.2419 65.3843 27.6082 65.121 28.0002 65.1868L28.5039 65.2698C28.8931 65.3357 29.1564 65.7048 29.0906 66.094C29.0333 66.4431 28.73 66.6892 28.3866 66.6892Z" fill="#021D30"/>
<path d="M66.4704 87.6165C65.6434 87.6165 64.8049 87.5421 63.9693 87.379C63.7576 87.3361 63.5744 87.2016 63.4743 87.0098L58.887 78.2817C58.7039 77.9326 58.8384 77.5005 59.1875 77.3145C59.5366 77.1314 59.9687 77.2658 60.1547 77.615L64.5789 86.034C70.617 87.0213 76.9441 82.7545 78.4379 81.6642C78.0745 79.5552 76.1744 69.9457 71.0462 65.8649C65.446 61.4036 57.2444 65.5616 57.1643 65.6045C57.0756 65.6503 56.9754 65.6789 56.8752 65.6847L49.0428 66.1311C48.6479 66.1569 48.3103 65.8535 48.2874 65.4586C48.2645 65.0637 48.565 64.726 48.9599 64.7031L56.6463 64.2624C57.1872 63.9991 59.1817 63.0891 61.7716 62.6284C65.7865 61.913 69.3006 62.6456 71.9362 64.746C78.1289 69.6795 79.8487 81.3809 79.9203 81.8789C79.9546 82.1307 79.8573 82.3797 79.657 82.5399C79.3708 82.766 73.2011 87.6137 66.4704 87.6165Z" fill="#021D30"/>
<path d="M58.0654 84.9293C57.7392 84.9293 57.4444 84.7061 57.37 84.3741C57.2813 83.9878 57.5216 83.6044 57.9051 83.5156L60.8154 82.8431C61.2018 82.7544 61.5852 82.9948 61.6739 83.3783C61.7627 83.7646 61.5223 84.148 61.1388 84.2368L58.2285 84.9093C58.1741 84.9236 58.1198 84.9293 58.0654 84.9293Z" fill="#021D30"/>
<path d="M8.91072 63.5529C8.71899 63.5529 8.5244 63.4756 8.38418 63.3211C0.334294 54.5872 2.42903 42.7085 3.70248 38.0067C3.8799 37.3543 4.42934 36.8764 5.09897 36.7934C5.76861 36.7104 6.4182 37.0337 6.75016 37.6232C10.0325 43.4267 15.1377 47.5247 17.8878 49.4534C18.2112 49.6795 18.2913 50.1259 18.0623 50.4493C17.8363 50.7726 17.3899 50.8528 17.0665 50.6238C13.5838 48.1857 8.75333 44.0735 5.50247 38.3272C5.43951 38.2185 5.34507 38.2042 5.27353 38.2128C5.2163 38.2213 5.11328 38.2528 5.07894 38.3816C3.86559 42.8544 1.86528 54.1408 9.43154 62.351C9.70054 62.6428 9.68051 63.095 9.39148 63.3611C9.25985 63.4899 9.08529 63.5529 8.91072 63.5529Z" fill="#021D30"/>
<path d="M79.2157 74.7475C78.9467 74.7475 78.692 74.5958 78.569 74.3383C78.4001 73.9806 78.5518 73.5542 78.9095 73.3853C80.3003 72.7272 81.2332 70.8613 81.6052 69.9971C76.7633 65.6731 66.5128 48.1912 66.0663 47.4271C65.866 47.0866 65.9805 46.6487 66.3239 46.4484C66.6644 46.2481 67.1023 46.3626 67.3026 46.706C67.4142 46.8948 78.4746 65.7618 82.9016 69.2187C83.1419 69.4076 83.2364 69.7281 83.1391 70.0171C83.0904 70.1602 81.8943 73.5599 79.5248 74.6817C79.4218 74.7246 79.3159 74.7475 79.2157 74.7475Z" fill="#021D30"/>
<path d="M76.4174 67.9225C76.1999 67.9225 75.9853 67.8252 75.8451 67.6363C75.6076 67.3215 75.6734 66.8722 75.9882 66.6347L77.3303 65.6274C77.6451 65.3899 78.0944 65.4529 78.3319 65.7705C78.5694 66.0853 78.5036 66.5346 78.1888 66.7721L76.8467 67.7794C76.7179 67.8738 76.5662 67.9225 76.4174 67.9225Z" fill="#021D30"/>
<path d="M19.3382 81.3007C16.1131 81.3007 12.7449 80.0845 9.47689 77.7179C6.49217 75.5573 4.65498 73.2308 4.57771 73.1306C4.38884 72.8874 4.37453 72.5526 4.54337 72.295C4.64639 72.1405 14.8769 56.676 18.9633 49.9396C23.19 42.9715 32.3846 39.8065 32.7738 39.6748C33.1487 39.5489 33.5521 39.7492 33.6809 40.1241C33.8068 40.499 33.6065 40.9053 33.2316 41.0313C33.1401 41.0627 24.1401 44.1676 20.1881 50.6837C16.4794 56.7962 7.74844 70.0429 6.0343 72.6413C7.49375 74.3154 13.6292 80.7656 20.8492 79.7697L30.8822 53.9689C31.0253 53.5997 31.4402 53.4166 31.8094 53.5625C32.1785 53.7056 32.3588 54.1205 32.2157 54.4897L22.0339 80.674C21.9423 80.9087 21.7363 81.0775 21.4902 81.1204C20.7805 81.2377 20.0622 81.3007 19.3382 81.3007Z" fill="#021D30"/>
<path d="M21.1405 75.8664C21.0804 75.8664 21.0203 75.8578 20.9602 75.8435C20.6168 75.7548 12.4925 73.5914 9.13293 68.6149C8.91258 68.2887 8.99843 67.8423 9.32466 67.6219C9.65089 67.4016 10.0973 67.4874 10.3177 67.8137C13.3768 72.3494 21.2407 74.4385 21.3179 74.4585C21.7014 74.5586 21.9303 74.9478 21.8302 75.3313C21.7472 75.6518 21.4581 75.8664 21.1405 75.8664Z" fill="#021D30"/>
<path d="M31.6572 54.6071C31.268 54.6071 30.9504 54.298 30.9418 53.906C30.8359 48.9839 26.4719 44.1277 26.429 44.079C26.1628 43.7871 26.1857 43.335 26.4776 43.0688C26.7695 42.8027 27.2216 42.8256 27.4878 43.1175C27.6824 43.3321 32.2582 48.4145 32.3727 53.8774C32.3812 54.2723 32.0664 54.5985 31.6715 54.6071C31.6687 54.6071 31.663 54.6071 31.6572 54.6071Z" fill="#021D30"/>
<path d="M94.5948 89.3847C94.2514 89.3847 93.948 89.1386 93.8908 88.7866C93.8765 88.6951 92.3312 79.4032 91.8333 67.719C91.3697 56.9048 91.7331 41.7579 96.0914 31.0152C96.2402 30.6489 96.658 30.4715 97.0243 30.6203C97.3906 30.7691 97.5681 31.1869 97.4192 31.5532C95.0698 37.3509 92.44 48.3169 93.2641 67.6417C93.7592 79.2401 95.2902 88.4576 95.3045 88.5491C95.3703 88.9383 95.107 89.3075 94.7178 89.3733C94.6749 89.3819 94.6348 89.3847 94.5948 89.3847Z" fill="#4AB69F"/>
<path d="M92.9436 84.9977C92.7462 84.9977 92.5516 84.9176 92.4113 84.7631C92.0193 84.3281 82.8018 73.9317 83.5259 57.291C84.2527 40.5932 91.0177 35.5852 91.3039 35.3792C91.5471 35.2046 91.8762 35.2018 92.1223 35.3706C92.3713 35.5394 92.4857 35.8457 92.4113 36.1376C92.377 36.2778 88.8342 50.2971 88.7427 60.539C88.674 68.071 93.576 83.9103 93.6247 84.0706C93.7248 84.3911 93.5875 84.7373 93.2956 84.9062C93.184 84.9663 93.0638 84.9977 92.9436 84.9977ZM90.4053 38.4126C88.4308 41.0367 85.4146 46.7286 84.9538 57.3511C84.4874 68.0624 88.405 76.2238 91.0835 80.4906C89.604 75.2022 87.2603 65.9533 87.309 60.5276C87.3834 52.8068 89.3665 43.0199 90.4053 38.4126Z" fill="#4AB69F"/>
<path d="M97.2561 80.8284C96.9556 80.8284 96.6752 80.6366 96.5779 80.3362C92.955 69.3588 94.7292 57.4886 96.8526 49.4673C99.1477 40.7993 102.344 34.6152 102.376 34.5523C102.559 34.2032 102.988 34.0658 103.34 34.249C103.689 34.4321 103.826 34.8642 103.643 35.2133C103.517 35.4537 91.2065 59.4946 97.9343 79.8898C98.0574 80.2646 97.8542 80.6681 97.4793 80.7941C97.4078 80.8141 97.3305 80.8284 97.2561 80.8284Z" fill="#4AB69F"/>
<path d="M94.5947 89.6023C94.5089 89.6023 94.423 89.588 94.3401 89.5537C93.9709 89.4135 93.7877 88.9985 93.928 88.6294C93.968 88.5235 98.0259 77.8695 99.72 69.6822C99.8001 69.2959 100.178 69.0469 100.567 69.1271C100.953 69.2072 101.202 69.5849 101.122 69.9741C99.4052 78.2758 95.3044 89.0357 95.2644 89.1444C95.1556 89.4249 94.8838 89.6023 94.5947 89.6023Z" fill="#4AB69F"/>
<path d="M95.6479 67.5874C95.6422 67.5874 95.6393 67.5874 95.6336 67.5874C95.3102 67.5817 95.0298 67.3585 94.9525 67.0408C94.8981 66.8176 93.6533 61.5292 96.784 56.6987C99.0848 53.1474 103.105 50.8266 108.734 49.7964C109.083 49.7306 109.43 49.9366 109.541 50.2743C109.653 50.612 109.501 50.9811 109.181 51.1414C109.083 51.19 99.4797 56.0835 96.3347 67.0694C96.246 67.3756 95.9655 67.5874 95.6479 67.5874ZM104.751 52.3547C101.712 53.5051 99.4453 55.2193 97.983 57.4771C96.6552 59.5289 96.2145 61.7009 96.1201 63.4237C98.4151 58.1153 102.015 54.5096 104.751 52.3547Z" fill="#4AB69F"/>
<path d="M99.4787 51.0442C99.4071 51.0442 99.3327 51.0328 99.2583 51.0099C98.8834 50.8897 98.6745 50.4862 98.7947 50.1113C98.8634 49.8967 100.558 44.8029 106.009 42.9085C106.289 42.8112 106.601 42.8971 106.79 43.1231C106.982 43.3492 107.011 43.6726 106.868 43.9301L103.122 50.6751C102.93 51.0214 102.495 51.1444 102.149 50.9527C101.802 50.7609 101.679 50.326 101.871 49.9797L104.538 45.1778C101.27 47.1924 100.168 50.5062 100.157 50.5463C100.06 50.8525 99.7792 51.0442 99.4787 51.0442Z" fill="#4AB69F"/>
<path d="M103 35.7886C102.899 35.7886 102.799 35.7829 102.696 35.7743C102.31 35.7371 102.027 35.3994 102.052 35.0131C102.153 33.5651 102.859 31.1155 104.874 31.1155C104.88 31.1155 104.883 31.1155 104.885 31.1155C105.73 31.1183 106.102 31.5848 106.248 31.8595C106.571 32.4691 106.436 33.319 105.89 34.1346C105.34 34.9559 104.307 35.7886 103 35.7886ZM104.874 32.5435C104.193 32.5435 103.812 33.4621 103.626 34.229C104.044 34.063 104.393 33.7539 104.622 33.4477C104.946 33.0185 105.003 32.6722 104.988 32.5549C104.968 32.5492 104.928 32.5406 104.874 32.5435Z" fill="#4AB69F"/>
<path d="M102.57 35.5111C102.413 35.5111 102.255 35.4596 102.123 35.3537C100.987 34.4408 99.3763 32.4577 100.538 30.8036C101.025 30.1111 101.617 30.071 101.929 30.1082C102.613 30.1912 103.234 30.7836 103.594 31.6993C103.984 32.6923 104.064 34.1489 103.116 35.2592C102.973 35.4252 102.77 35.5111 102.57 35.5111ZM101.78 31.5391C101.763 31.5534 101.74 31.5791 101.709 31.6249C101.302 32.203 101.869 33.0415 102.378 33.6109C102.478 33.1731 102.424 32.7124 102.304 32.3518C102.138 31.8395 101.886 31.5963 101.78 31.5391Z" fill="#4AB69F"/>
<path d="M100.71 29.0523C99.743 29.0523 98.936 28.7261 98.315 28.0793C96.9757 26.6943 97.0444 24.3105 97.0473 24.2104C97.053 24.0129 97.1417 23.8269 97.2934 23.6953C97.445 23.5636 97.6396 23.5035 97.8371 23.5235C101.26 23.8755 103.223 25.7099 103.143 27.2752C103.097 28.0965 102.436 29.0523 100.71 29.0523ZM98.5268 25.0746C98.6183 25.7356 98.8415 26.5712 99.3452 27.0892C99.6915 27.4469 100.138 27.6215 100.71 27.6215C101.162 27.6215 101.695 27.5127 101.709 27.2065C101.738 26.6199 100.696 25.5096 98.5268 25.0746Z" fill="#4AB69F"/>
<path d="M104.983 27.3353C104.17 27.3353 103.108 27.195 101.732 26.7944C101.351 26.6828 101.136 26.285 101.245 25.9073C101.357 25.5296 101.755 25.3121 102.132 25.4208C103.783 25.9016 105.864 26.1105 106.328 25.6526C106.411 25.5696 106.416 25.4008 106.348 25.1461C105.884 23.4634 101.669 23.7467 99.6999 24.1474C99.3136 24.2246 98.9358 23.9757 98.8557 23.5894C98.7756 23.203 99.0274 22.8253 99.4137 22.7452C100.163 22.5906 106.785 21.3429 107.727 24.7655C107.999 25.7528 107.661 26.3451 107.332 26.6714C107.18 26.823 106.542 27.3353 104.983 27.3353Z" fill="#4AB69F"/>
<path d="M105.597 24.0185C105.228 24.0185 104.916 23.7352 104.885 23.3632C104.85 22.9682 105.145 22.6248 105.537 22.5905C106.756 22.4875 108.247 22.0468 108.419 21.6118C108.465 21.4973 108.333 21.2513 108.09 20.9794C107.429 20.2525 105.826 20.2955 103.574 21.1024C101.68 21.7807 100.008 22.7594 99.9912 22.7679C99.6507 22.9683 99.2128 22.8538 99.0125 22.5132C98.8122 22.1727 98.9238 21.7349 99.2643 21.5345C100.014 21.091 106.67 17.2907 109.146 20.015C109.976 20.9279 109.93 21.6691 109.75 22.1326C109.154 23.6465 106.235 23.9641 105.657 24.0128C105.637 24.0185 105.617 24.0185 105.597 24.0185Z" fill="#4AB69F"/>
<path d="M101.21 21.8609C100.852 21.8609 100.543 21.5919 100.5 21.2285C100.446 20.7677 100.02 16.6813 101.485 14.8956C101.906 14.3805 102.464 14.0829 103.096 14.0314C104.129 13.9484 104.956 14.3232 105.434 15.0902C106.304 16.4809 105.817 18.8447 104.919 20.3585C104.719 20.699 104.278 20.8106 103.94 20.6103C103.6 20.41 103.488 19.9693 103.688 19.6316C104.438 18.3639 104.687 16.5983 104.221 15.8485C104.1 15.6568 103.863 15.405 103.21 15.4593C102.964 15.4794 102.767 15.5881 102.589 15.8056C101.671 16.9245 101.797 19.9808 101.92 21.0653C101.966 21.4574 101.685 21.8122 101.29 21.858C101.265 21.858 101.239 21.8609 101.21 21.8609Z" fill="#4AB69F"/>
<path d="M97.3284 22.7965C97.0393 22.7965 96.7646 22.6191 96.6587 22.3301C96.6301 22.2557 95.9776 20.4957 95.6886 18.5126C95.2651 15.6166 95.826 13.7508 97.3513 12.9695C98.2613 12.5031 98.9023 12.6834 99.2829 12.918C100.591 13.7222 100.682 16.1689 100.665 19.5371C100.662 20.3756 100.656 21.1682 100.702 21.7348C100.734 22.1298 100.439 22.4732 100.044 22.5046C99.6578 22.5361 99.3058 22.2414 99.2743 21.8465C99.2257 21.2226 99.2285 20.3985 99.2314 19.5285C99.24 17.8001 99.2543 14.5807 98.5303 14.1342C98.4015 14.057 98.1411 14.1657 97.998 14.2401C96.0549 15.236 97.377 20.1752 97.9951 21.8264C98.1325 22.1956 97.9465 22.6077 97.5745 22.7479C97.4972 22.7822 97.4142 22.7965 97.3284 22.7965Z" fill="#4AB69F"/>
<path d="M96.3947 22.6506C96.3603 22.6506 96.3231 22.6477 96.2888 22.642C93.264 22.1927 89.996 19.5085 89.541 17.7085C89.3693 17.0274 89.561 16.4207 90.0675 16.0401C90.9375 15.3877 92.2367 15.6223 94.0424 16.7527C95.2128 17.4853 96.1829 18.3438 96.223 18.3781C96.5177 18.6414 96.5464 19.0935 96.2831 19.3883C96.0198 19.683 95.5677 19.7117 95.2729 19.4484C93.679 18.0376 91.4841 16.7699 90.926 17.1848C90.9003 17.2277 90.9003 17.4223 91.1178 17.7886C91.9276 19.1536 94.4001 20.9136 96.4977 21.2255C96.8898 21.2827 97.1588 21.649 97.0987 22.0382C97.0471 22.3959 96.7438 22.6506 96.3947 22.6506Z" fill="#4AB69F"/>
<path d="M92.2652 24.1157C90.8916 24.1157 89.6239 23.6693 88.7597 23.0483C87.9613 22.4731 87.5864 21.8006 87.7066 21.1568C88.0242 19.4626 90.8086 19.5857 91.3609 19.6257C91.7559 19.6544 92.0506 19.9978 92.022 20.3927C91.9934 20.7876 91.65 21.0852 91.2551 21.0509C90.0017 20.9564 89.2176 21.2569 89.1231 21.3971C89.1775 21.5288 89.4808 21.9008 90.1962 22.2327C91.2808 22.7335 92.9892 22.9625 94.5317 22.1011C94.8751 21.9094 95.3129 22.0324 95.5046 22.3758C95.6964 22.7192 95.5733 23.1571 95.2299 23.3488C94.2627 23.8925 93.2382 24.1157 92.2652 24.1157Z" fill="#4AB69F"/>
<path d="M92.1248 27.8448C91.4294 27.8448 90.6911 27.5872 89.8898 27.0664C89.1887 26.6114 89.0084 26.0448 88.9798 25.6527C88.9025 24.5624 89.9099 23.6553 90.0243 23.5551C90.3219 23.2976 90.7741 23.3262 91.0345 23.6267C91.292 23.9243 91.2634 24.3736 90.9658 24.634C90.7197 24.8515 90.3877 25.295 90.4078 25.5554C90.4164 25.6556 90.5022 25.7615 90.6682 25.8702C91.4323 26.3681 92.0275 26.5198 92.5455 26.3481C93.3067 26.0934 94.0307 25.0833 94.6402 23.4206C94.7776 23.0486 95.1868 22.8597 95.5588 22.9942C95.9308 23.1316 96.1197 23.5408 95.9852 23.9128C95.1982 26.0591 94.2224 27.2982 92.9976 27.7074C92.7143 27.799 92.4224 27.8448 92.1248 27.8448Z" fill="#4AB69F"/>
<path d="M95.8143 30.4915C94.8499 30.4915 94.3091 30.0623 94.0229 29.6931C93.1129 28.5256 93.6308 26.5625 93.6938 26.3421C93.8025 25.9615 94.1946 25.7412 94.5752 25.847C94.9558 25.9558 95.1762 26.3507 95.0703 26.7284C94.9386 27.2035 94.7841 28.3396 95.1533 28.8117C95.242 28.9234 95.4108 29.0693 95.8715 29.0578C96.172 29.0493 96.3809 28.952 96.5497 28.7488C97.1507 28.0133 97.0105 26.2219 96.9132 25.6524C96.8474 25.2633 97.1078 24.8941 97.497 24.8283C97.8861 24.7625 98.2553 25.0229 98.324 25.4121C98.3726 25.7011 98.779 28.2852 97.6572 29.6559C97.228 30.1825 96.6241 30.4715 95.9144 30.4915C95.8801 30.4915 95.8458 30.4915 95.8143 30.4915Z" fill="#4AB69F"/>
<path d="M82.4408 33.3672C82.0716 33.3672 81.7625 33.0868 81.7282 32.7148C81.5994 31.2639 81.9142 28.7285 83.9145 28.4194C84.7501 28.2906 85.1908 28.6913 85.3768 28.9402C85.7918 29.4897 85.7946 30.351 85.3826 31.241C84.9361 32.2083 83.9403 33.2757 82.4837 33.3644C82.4694 33.3673 82.4551 33.3672 82.4408 33.3672ZM84.2236 29.8274C84.2007 29.8274 84.1721 29.8302 84.132 29.8359C83.4567 29.939 83.2249 30.9091 83.1619 31.696C83.5482 31.4642 83.843 31.1065 84.0233 30.7688C84.2751 30.2938 84.278 29.9418 84.2436 29.8302C84.2379 29.8274 84.2322 29.8274 84.2236 29.8274Z" fill="#4AB69F"/>
<path d="M81.631 32.5633C81.5108 32.5633 81.3878 32.5319 81.2762 32.4689C80.0113 31.7478 78.1083 30.0422 78.9954 28.225C79.3674 27.4667 79.9455 27.3322 80.2574 27.3208C80.95 27.2864 81.6539 27.7844 82.1519 28.6285C82.6927 29.5471 82.9989 30.9751 82.2406 32.22C82.1061 32.4403 81.8714 32.5633 81.631 32.5633ZM80.3404 28.7545C80.3261 28.7716 80.3061 28.8031 80.2832 28.8517C79.9741 29.487 80.6638 30.2254 81.2562 30.7061C81.2876 30.2597 81.1617 29.8133 80.9843 29.4727C80.7382 28.9948 80.452 28.7917 80.3404 28.7545Z" fill="#4AB69F"/>
<path d="M84.4017 44.9056C84.0869 44.9056 83.8008 44.6967 83.7121 44.379C83.5289 43.718 83.2227 43.2401 82.7992 42.5762C82.41 41.9666 81.9235 41.2083 81.4256 40.1037C79.0876 34.9069 81.2882 32.1024 81.3827 31.9851C81.6316 31.6789 82.0838 31.6303 82.39 31.8792C82.6962 32.1282 82.7419 32.5746 82.4987 32.8808C82.4186 32.9867 80.7846 35.1873 82.7305 39.5142C83.1855 40.5244 83.6205 41.2026 84.0039 41.8035C84.4589 42.5132 84.8538 43.1285 85.0914 43.9984C85.1972 44.379 84.9712 44.7739 84.5906 44.877C84.5276 44.897 84.4647 44.9056 84.4017 44.9056Z" fill="#4AB69F"/>
<path d="M97.4371 24.093C98.967 24.093 100.207 23.4012 100.207 22.5478C100.207 21.6943 98.967 21.0024 97.4371 21.0024C95.9072 21.0024 94.667 21.6943 94.667 22.5478C94.667 23.4012 95.9072 24.093 97.4371 24.093Z" fill="#4AB69F"/>
<path d="M19.0951 94.7535C18.7259 94.7535 18.4168 94.473 18.3825 94.101C18.2537 92.6502 18.5685 90.1147 20.5688 89.8057C21.4044 89.6769 21.8451 90.0775 22.0311 90.3265C22.4461 90.8759 22.4489 91.7373 22.0369 92.6273C21.5904 93.5945 20.5946 94.6619 19.138 94.7506C19.1237 94.7506 19.1094 94.7535 19.0951 94.7535ZM20.8779 91.2136C20.855 91.2136 20.8264 91.2164 20.7863 91.2222C20.111 91.3252 19.8792 92.2953 19.8162 93.0823C20.2025 92.8505 20.4973 92.4928 20.6776 92.1551C20.9294 91.68 20.9322 91.328 20.8979 91.2164C20.8922 91.2136 20.8865 91.2136 20.8779 91.2136Z" fill="#4AB69F"/>
<path d="M18.2847 93.9466C18.1645 93.9466 18.0415 93.9151 17.9299 93.8522C16.665 93.131 14.762 91.4255 15.652 89.6054C16.024 88.8471 16.6021 88.7126 16.914 88.7012C16.9311 88.7012 16.9483 88.7012 16.9683 88.7012C17.6408 88.7012 18.3248 89.1876 18.8084 90.0118C19.3493 90.9304 19.6555 92.3584 18.8971 93.6032C18.7598 93.8236 18.5251 93.9466 18.2847 93.9466ZM16.9941 90.1406C16.9798 90.1577 16.9598 90.1892 16.9369 90.235C16.6364 90.8503 17.3003 91.5915 17.9098 92.0951C17.9413 91.6458 17.8154 91.1994 17.6408 90.8588C17.3947 90.3781 17.1057 90.1778 16.9941 90.1406Z" fill="#4AB69F"/>
<path d="M9.50264 92.5384C9.20217 92.5384 8.92458 92.3496 8.82443 92.0491C8.69851 91.6742 8.9017 91.2678 9.27657 91.1448C10.2753 90.8128 12.2327 88.452 12.7335 86.6949C12.8823 86.1712 12.8794 85.7505 12.7306 85.5703C12.7049 85.5388 12.6848 85.5245 12.6791 85.5216C12.3071 85.4758 11.0766 86.8294 10.1322 88.5607C9.94334 88.907 9.50837 89.0357 9.16211 88.8469C8.81585 88.658 8.68707 88.223 8.87594 87.8768C9.33667 87.0297 10.965 84.2567 12.536 84.1022C13.0339 84.0536 13.4918 84.251 13.8295 84.6574C14.1614 85.0552 14.4791 85.7992 14.1099 87.0898C13.5061 89.2132 11.254 91.9976 9.72872 92.5069C9.65431 92.527 9.57704 92.5384 9.50264 92.5384Z" fill="#4AB69F"/>
<path d="M7.26228 92.1264C5.69408 92.1264 4.17453 91.1191 3.43622 90.0603C2.92398 89.3249 2.79234 88.5922 3.06706 87.997C3.21301 87.6822 3.48201 87.4619 3.82827 87.3761C4.23463 87.2759 5.49949 87.2931 8.43556 89.5767C8.74748 89.8199 8.80472 90.2692 8.56148 90.5811C8.41267 90.7729 8.18946 90.873 7.95766 90.8558C8.09788 90.976 8.18945 91.1477 8.20662 91.3423C8.2381 91.7372 7.94336 92.0806 7.55131 92.1121C7.45115 92.1236 7.35671 92.1264 7.26228 92.1264ZM4.38057 88.8012C4.41491 88.9128 4.48073 89.0644 4.60664 89.2418C5.15036 90.0202 6.35512 90.7757 7.43111 90.6899C7.46259 90.687 7.49407 90.687 7.52555 90.6899C6.33224 89.7627 4.99297 88.9671 4.38057 88.8012Z" fill="#4AB69F"/>
<path d="M83.0194 91.7832C82.7189 91.7832 82.4413 91.5943 82.3411 91.2939C82.2152 90.919 82.4184 90.5126 82.7933 90.3896C83.792 90.0576 85.7494 87.6968 86.2502 85.9368C86.399 85.4131 86.3961 84.9925 86.2473 84.8122C86.2216 84.7807 86.2015 84.7664 86.1958 84.7635C86.1901 84.7635 86.1844 84.7635 86.1786 84.7635C85.7837 84.7635 84.579 86.0942 83.6461 87.8026C83.4572 88.1489 83.0222 88.2777 82.676 88.0888C82.3297 87.8999 82.2009 87.465 82.3898 87.1187C82.8505 86.2716 84.4788 83.4987 86.0499 83.3441C86.5478 83.2926 87.0057 83.493 87.3434 83.8965C87.6753 84.2942 87.9929 85.0383 87.6238 86.3289C87.02 88.4522 84.7678 91.2395 83.2426 91.746C83.171 91.7718 83.0938 91.7832 83.0194 91.7832Z" fill="#4AB69F"/>
<path d="M80.775 91.371C79.2068 91.371 77.6872 90.3637 76.9489 89.3049C76.4367 88.5695 76.305 87.8369 76.5798 87.2416C76.7257 86.9268 76.9947 86.7065 77.341 86.6207C77.7473 86.5234 79.0122 86.5377 81.9483 88.8213C82.2602 89.0645 82.3174 89.5138 82.0742 89.8257C81.9254 90.0175 81.7022 90.1176 81.4704 90.1004C81.6106 90.2206 81.7022 90.3923 81.7193 90.5869C81.7508 90.9819 81.4561 91.3252 81.064 91.3567C80.9667 91.3682 80.8694 91.371 80.775 91.371ZM77.8961 88.0458C77.9305 88.1574 77.9963 88.3091 78.1222 88.4865C78.6659 89.2649 79.8707 90.0175 80.9467 89.9345C80.9781 89.9316 81.0096 89.9316 81.0411 89.9345C79.8449 89.0073 78.5085 88.2146 77.8961 88.0458Z" fill="#4AB69F"/>
<path d="M74.119 52.4896C73.4122 52.4896 72.6939 52.3408 72.0672 51.9945C71.7209 51.8028 71.5978 51.3678 71.7896 51.0215C71.884 50.8498 72.0414 50.7325 72.2188 50.681C72.0071 50.598 71.8382 50.4177 71.7838 50.1802C71.6923 49.7967 71.9298 49.4104 72.3133 49.3188C73.518 49.0327 76.4283 48.4489 77.4185 49.2273C77.6989 49.4476 77.8535 49.7595 77.8535 50.1058C77.8563 50.7611 77.4328 51.3735 76.6602 51.8314C75.9905 52.2263 75.0633 52.4896 74.119 52.4896ZM72.6796 50.701C72.7082 50.7125 72.7368 50.7268 72.7654 50.7411C73.7098 51.2648 75.1177 51.0788 75.9361 50.5951C76.125 50.4835 76.2481 50.3748 76.3253 50.2889C75.6929 50.1916 74.1247 50.3605 72.6796 50.701Z" fill="#4AB69F"/>
<path d="M5.48763 83.3383C4.0568 83.3383 2.73185 82.8032 1.88765 82.1164C1.13503 81.504 0.780188 80.7686 0.914687 80.1018C0.980505 79.7727 1.18368 79.5008 1.48988 79.3348C2.71181 78.6738 6.16013 79.9301 7.58811 80.4996C7.9544 80.6455 8.13468 81.0633 7.98588 81.4296C7.94009 81.5412 7.87141 81.6356 7.78556 81.71C7.86854 81.7787 7.93723 81.8703 7.98016 81.9762C8.13469 82.3396 7.96584 82.7603 7.59955 82.9148C6.9013 83.2124 6.18016 83.3383 5.48763 83.3383ZM2.37986 80.5568C2.4514 80.6798 2.59449 80.8544 2.84632 81.049C3.74774 81.7472 5.33597 82.165 6.74678 81.7043C4.93534 81.0118 3.08383 80.531 2.37986 80.5568Z" fill="#4AB69F"/>
<path d="M79.6626 61.7386C79.5939 61.7386 79.5252 61.73 79.4565 61.7071C79.0788 61.5926 78.8642 61.1949 78.9786 60.8143C79.3134 59.7097 79.5195 58.4849 79.488 57.9068C79.2104 58.193 78.8184 58.834 78.5608 59.4492C78.4092 59.8127 77.9885 59.9873 77.6251 59.8356C77.2588 59.6839 77.0871 59.2661 77.2387 58.9027C77.5364 58.1844 78.6209 55.8779 80.0746 56.4073C81.1106 56.7822 81.2021 58.4076 80.3465 61.2321C80.2521 61.5411 79.9688 61.7386 79.6626 61.7386Z" fill="#4AB69F"/>
<path d="M17.1273 46.3597C17.0873 46.3597 17.0472 46.3568 17.0043 46.3482C16.6151 46.2824 16.3547 45.9104 16.4205 45.5212C16.4377 45.4211 18.086 35.3394 11.444 32.4205C11.0835 32.2602 10.9175 31.8395 11.0778 31.479C11.238 31.1184 11.6587 30.9524 12.0192 31.1127C15.2186 32.5177 17.2361 35.5225 17.8542 39.7979C18.3092 42.9457 17.8513 45.6528 17.8313 45.7673C17.7712 46.1136 17.4679 46.3597 17.1273 46.3597Z" fill="#4AB69F"/>
<path d="M7.15973 33.7769C7.01378 33.7769 6.86497 33.7597 6.71903 33.7254C6.18103 33.6023 5.78898 33.2847 5.58008 32.8068C5.32825 32.2287 5.41124 31.4819 5.60583 30.7808C4.9362 30.9582 4.1378 30.9696 3.26785 30.5804C2.23193 30.1168 1.63097 29.2555 1.69965 28.334C1.77119 27.4097 2.50092 26.6685 3.65131 26.3537C4.37818 26.1534 5.32825 26.1477 6.07515 26.1906C5.68882 24.8914 5.63159 23.3175 6.91362 22.6536C7.38007 22.4104 7.86942 22.4075 8.29295 22.645C8.80805 22.934 9.14572 23.5665 9.36607 24.2476C9.8268 23.515 10.4163 22.8339 11.0773 22.645C11.5152 22.5191 11.9616 22.6049 12.3336 22.8825C12.9289 23.329 13.1835 24.0129 13.049 24.8142C13.0004 25.1146 12.8916 25.4294 12.7428 25.7385C14.5886 25.4437 15.2239 26.0733 15.43 26.4396C15.6846 26.8917 15.6789 27.4154 15.4099 27.9134C14.7632 29.1181 12.5196 30.1798 10.0672 30.4717C9.82394 31.2872 9.24588 32.8211 8.21854 33.465C7.88659 33.671 7.52602 33.7769 7.15973 33.7769ZM7.10821 28.3712C7.25702 28.3712 7.40583 28.417 7.53174 28.5114C7.82363 28.7261 7.90948 29.1267 7.7292 29.4415C7.16545 30.4259 6.69327 31.7823 6.89358 32.2345C6.90789 32.2688 6.92507 32.3031 7.0424 32.3318C7.1912 32.3661 7.31425 32.3432 7.45733 32.2517C8.09835 31.8482 8.62776 30.4402 8.80804 29.6475C8.87672 29.3413 9.14 29.1153 9.45192 29.0924C12.3393 28.8777 14.1909 27.5499 14.1851 27.1407C13.8847 26.9175 12.2506 27.2237 10.7712 27.796C10.6996 27.8275 10.6309 27.8561 10.5594 27.879C10.1931 27.9992 9.79819 27.8075 9.66369 27.444C9.52919 27.0806 9.70947 26.68 10.0672 26.5369C10.1187 26.5169 10.1702 26.4968 10.2188 26.4768C10.7225 26.2307 11.5095 25.3522 11.6354 24.5824C11.6983 24.1989 11.5467 24.0844 11.4723 24.0272C11.106 24.0644 10.236 25.418 9.71805 26.7515C9.59786 27.0634 9.2745 27.2495 8.94541 27.2008C8.61345 27.1522 8.36163 26.8774 8.33873 26.5455C8.25575 25.3894 7.90376 24.1102 7.61473 23.907C7.60615 23.9099 7.59183 23.9156 7.57466 23.9242C6.88214 24.2819 7.50312 26.0819 7.80646 26.6971C7.92379 26.9347 7.90089 27.218 7.7435 27.4326C7.58897 27.6472 7.3257 27.7588 7.06242 27.7216C6.5187 27.6444 4.91045 27.4956 4.03478 27.7359C3.49964 27.8819 3.15338 28.1566 3.13049 28.4456C3.10759 28.7432 3.39376 29.0695 3.85449 29.2755C5.3168 29.9308 6.53015 28.6574 6.58166 28.603C6.72188 28.4485 6.91362 28.3712 7.10821 28.3712Z" fill="#4AB69F"/>
<path d="M8.8431 29.516C9.58434 29.516 10.1852 28.9151 10.1852 28.1739C10.1852 27.4327 9.58434 26.8318 8.8431 26.8318C8.10187 26.8318 7.50098 27.4327 7.50098 28.1739C7.50098 28.9151 8.10187 29.516 8.8431 29.516Z" fill="#4AB69F"/>
<path d="M18.4197 35.8773C18.2967 35.8773 18.1679 35.8459 18.0534 35.7772C17.7129 35.574 17.6013 35.1362 17.8045 34.7985C17.8388 34.7413 19.7647 31.4017 19.3183 27.4783L17.1091 32.9556C16.9603 33.3219 16.5453 33.4993 16.179 33.3505C15.8127 33.2017 15.6353 32.7868 15.7841 32.4205L18.8432 24.8342C18.9548 24.5594 19.2296 24.3792 19.5215 24.3877C19.8191 24.3935 20.0823 24.5852 20.1796 24.8656C22.0884 30.2885 19.158 35.3193 19.035 35.5311C18.9033 35.7543 18.663 35.8773 18.4197 35.8773Z" fill="#4AB69F"/>
<path d="M29.6213 80.9346C29.2894 80.9346 28.9946 80.7056 28.9231 80.3708C28.6169 78.9486 28.6197 76.3903 30.5657 75.8408C31.3784 75.6119 31.8649 75.9524 32.0824 76.1785C32.5603 76.6736 32.669 77.5264 32.3685 78.4621C32.0452 79.478 31.1867 80.657 29.753 80.9232C29.7101 80.9289 29.6643 80.9346 29.6213 80.9346ZM31.0665 77.1944C31.0436 77.1944 31.0092 77.2001 30.9577 77.2144C30.2767 77.4062 30.1879 78.4135 30.2251 79.1775C30.5771 78.9028 30.8261 78.5107 30.9635 78.153C31.1552 77.6522 31.1123 77.3031 31.0665 77.1944Z" fill="#4AB69F"/>
<path d="M28.7189 80.2335C28.6273 80.2335 28.5329 80.2164 28.4442 80.1792C27.1021 79.6183 25.0016 78.1588 25.6626 76.2444C25.9374 75.446 26.4982 75.2428 26.8044 75.1913C27.4855 75.0797 28.2467 75.4803 28.8448 76.2587C29.4944 77.1057 29.9723 78.4822 29.3742 79.8129C29.2512 80.0761 28.9908 80.2335 28.7189 80.2335ZM27.0591 76.6078C27.0477 76.6278 27.0305 76.6593 27.0134 76.7108C26.7844 77.3776 27.5599 78.0272 28.2067 78.4336C28.1809 77.9871 28.0035 77.5579 27.786 77.2431C27.4855 76.7967 27.1736 76.6307 27.0591 76.6078Z" fill="#4AB69F"/>
<path d="M30.7168 88.6238C30.5365 88.6238 30.3534 88.5551 30.216 88.4178C28.0669 86.303 27.7006 84.0623 27.7693 82.5513C27.8437 80.9173 28.4389 79.7755 28.4647 79.7297C28.6507 79.3806 29.0828 79.2461 29.4319 79.4322C29.781 79.6153 29.9127 80.0474 29.7295 80.3965C29.6523 80.5482 27.8694 84.0995 31.2205 87.399C31.5009 87.6766 31.5066 88.1288 31.2291 88.4121C31.086 88.5523 30.9028 88.6238 30.7168 88.6238Z" fill="#4AB69F"/>
</svg>
