<svg width="104" height="90" viewBox="0 0 104 90" fill="none" xmlns="http://www.w3.org/2000/svg">
<path d="M41.5783 26.8622C39.9621 25.0247 37.2774 25.076 35.7232 26.5006C36.0146 26.4844 36.3087 26.5249 36.5785 26.6463C38.1813 27.3398 37.1991 28.1303 36.0281 28.4352C35.5667 28.5593 35.0649 28.6187 34.6008 28.4919C34.5549 28.7104 34.5252 28.9425 34.5171 29.1826C34.304 31.7216 36.9158 33.8937 39.3739 33.2893C42.3662 32.7119 43.6613 29.1422 41.5783 26.8622Z" fill="#4AB69F"/>
<path d="M55.4788 38.0867C50.5195 38.0867 44.3973 37.0938 38.9955 33.3352C38.6906 33.122 38.6151 32.7011 38.8282 32.3962C39.0414 32.0913 39.4623 32.0158 39.7672 32.2289C50.4359 39.6544 64.5988 35.5936 64.7418 35.5531C65.2544 35.4155 66.6062 34.8705 66.8976 33.9693C67.0784 33.4108 66.8356 32.7173 66.1772 31.9133C64.0214 29.2744 53.4633 29.6009 49.5779 29.9463C49.2028 29.9759 48.879 29.7061 48.8467 29.3338C48.8143 28.9614 49.0868 28.6349 49.4591 28.6026C50.962 28.4676 64.2291 27.3965 67.2241 31.0579C68.1928 32.2424 68.5139 33.3622 68.182 34.3848C67.6019 36.171 65.2086 36.824 65.1087 36.851C64.7984 36.94 60.8105 38.0867 55.4788 38.0867Z" fill="#F0F3F5"/>
<path d="M51.6995 40.3073C50.3099 40.3073 48.1999 40.0699 46.2734 38.8988C46.0197 38.745 45.8956 38.4402 45.9712 38.1515L46.2599 37.0452C46.3543 36.6836 46.7213 36.4678 47.0828 36.5622C47.4444 36.6567 47.6602 37.0236 47.5658 37.3851L47.4093 37.9869C49.4249 39.0284 51.6374 38.9933 52.5683 38.9177L52.7517 38.0057C52.8246 37.6415 53.1808 37.4041 53.545 37.4769C53.9093 37.5498 54.1467 37.9059 54.0739 38.2702L53.7932 39.6651C53.7393 39.9377 53.5207 40.1508 53.2455 40.1967C53.1835 40.2102 52.5899 40.3073 51.6995 40.3073Z" fill="#F0F3F5"/>
<path d="M57.9807 40.5231C57.5625 40.5231 57.263 40.4746 57.0795 40.3747C56.8205 40.2371 56.6801 39.9457 56.7341 39.657L56.9608 38.4374C57.0282 38.0705 57.3817 37.8303 57.7486 37.8978C58.1156 37.9652 58.3557 38.3187 58.2883 38.6857L58.1965 39.1767C58.9116 39.1281 60.1527 38.9231 61.2833 38.683L61.804 37.0964C61.92 36.7429 62.3005 36.5487 62.654 36.6647C63.0074 36.7807 63.2017 37.1612 63.0857 37.5146L62.4435 39.4681C62.3706 39.6948 62.1818 39.8648 61.9497 39.916C60.1581 40.3207 58.8306 40.5231 57.9807 40.5231Z" fill="#F0F3F5"/>
<path d="M43.7695 12.6292C42.8467 12.9745 40.6773 14.1132 40.8716 15.9318C41.0659 17.7531 44.8083 17.1756 46.0953 16.8573C47.1314 16.6009 49.3602 15.8238 48.8475 13.5978C48.3348 11.3745 45.0511 12.1516 43.7695 12.6292Z" fill="#F0F3F5"/>
<path d="M60.8592 18.2871C60.7756 18.0524 60.6623 17.8257 60.6056 17.5829C60.5786 17.4237 60.5786 17.2645 60.5597 17.1026C60.5516 16.8868 60.5355 16.6709 60.5867 16.4578C60.7324 15.8399 61.2802 15.3245 61.9223 15.2867C62.5915 15.2193 63.2471 15.4621 63.83 15.7697C64.2293 15.9586 64.5909 16.2176 64.9443 16.482C65.4111 16.8139 65.7889 17.2429 66.1423 17.6881C66.5551 18.1306 66.6658 18.7701 66.6118 19.3583C66.5686 19.9789 66.2476 20.6157 65.6782 20.9044C64.858 21.3118 63.5278 20.7182 62.7912 20.2946C62.2461 20.0032 61.782 19.5823 61.3908 19.1047C61.1857 18.8565 60.978 18.5947 60.8592 18.2871Z" fill="#F0F3F5"/>
<path d="M67.1682 30.0216C67.09 30.0216 67.0118 30.0081 66.9335 29.9784C66.5854 29.8489 66.4047 29.4604 66.5369 29.1123C67.3544 26.9052 67.4812 25.3024 66.92 24.2097C66.4775 23.3463 65.5817 22.7419 64.1867 22.3587C59.8453 21.1688 58.5205 21.8407 57.8729 23.214C57.4898 24.0208 57.4763 26.6246 57.6274 27.6121C57.6841 27.9791 57.4331 28.3244 57.0635 28.3811C56.6938 28.4378 56.3512 28.1868 56.2945 27.8172C56.1434 26.8512 56.084 23.8373 56.6534 22.6366C58.0294 19.728 61.2592 20.1597 64.5429 21.0582C66.2994 21.5385 67.5028 22.3911 68.1207 23.5945C68.8735 25.0623 68.7737 26.9646 67.8023 29.5818C67.6998 29.8543 67.4408 30.0216 67.1682 30.0216Z" fill="#F0F3F5"/>
<path d="M45.345 31.2008C45.0077 31.2008 44.6624 31.1846 44.3143 31.1522C41.8239 30.9255 36.0173 29.5495 35.877 21.7274C35.8743 21.5439 35.9121 17.278 43.8016 17.0217C51.0976 16.7843 53.0241 17.2079 53.731 21.6626C54.1438 24.2583 53.3991 26.7973 51.6858 28.6267C50.1154 30.3023 47.8921 31.1981 45.345 31.2008ZM46.5295 18.3168C45.7497 18.3168 44.862 18.3357 43.8421 18.3681C37.3583 18.5786 37.2261 21.5871 37.2234 21.7166C37.3394 28.1923 41.7915 29.5684 44.4357 29.8085C46.9855 30.0405 49.2115 29.2931 50.6982 27.7039C52.1229 26.1794 52.7435 24.0559 52.3954 21.8731C51.9529 19.075 51.4268 18.3168 46.5295 18.3168Z" fill="#F0F3F5"/>
<path d="M56.7022 27.6796C56.4863 27.6796 56.2732 27.5744 56.1437 27.3828C56.0627 27.2722 55.3558 26.4034 53.5075 27.4098C53.181 27.5879 52.7709 27.4665 52.5928 27.14C52.4147 26.8135 52.5362 26.4034 52.8627 26.2253C55.2775 24.9113 56.7993 25.9177 57.2688 26.6354C57.4712 26.9484 57.3848 27.3666 57.0718 27.569C56.9558 27.6446 56.829 27.6796 56.7022 27.6796Z" fill="#F0F3F5"/>
<path d="M53.5717 32.4905C53.998 32.639 54.3002 32.3449 54.6995 32.6471C54.9477 32.7847 55.2445 32.6282 55.3848 32.4069C55.5494 32.1209 55.4334 31.7324 55.2499 31.4814C54.8965 31.0983 54.338 30.8528 53.8226 31.0281C53.2614 31.1604 52.8027 31.5435 53.1912 32.1236C53.2883 32.272 53.3909 32.4393 53.5717 32.4905Z" fill="#F0F3F5"/>
<path d="M59.3347 32.9789C59.4076 32.9708 59.4804 32.9708 59.5506 32.987C59.6693 33.0383 59.7637 33.1273 59.8851 33.1759C60.1037 33.3 60.3654 33.3189 60.6002 33.2299C60.8187 33.13 61.0022 32.9142 61.0562 32.6794C61.1722 32.4042 61.0993 32.0588 60.8619 31.87C60.3654 31.4868 59.5991 31.5057 59.1269 31.9185C58.9678 32.0615 58.7924 32.1803 58.7762 32.4177C58.7519 32.6309 58.8005 32.9007 59.0217 32.9897C59.1242 33.0248 59.2322 32.9951 59.3347 32.9789Z" fill="#F0F3F5"/>
<path d="M67.8908 20.6831C67.8584 20.6831 67.8233 20.6804 67.7882 20.675C67.4186 20.6184 67.1676 20.2757 67.2216 19.906C67.2783 19.5229 68.4331 10.8859 59.0245 6.41231C53.5822 3.82473 47.7136 3.70603 42.0393 3.5927C38.0055 3.51176 34.1686 3.4335 30.8903 2.41897C31.2357 3.80855 32.0829 6.11282 33.9852 6.86022C34.3332 6.99513 34.5032 7.38907 34.3656 7.73444C34.2307 8.07981 33.8394 8.25248 33.4914 8.11488C29.954 6.7253 29.3577 1.67967 29.3335 1.46652C29.3065 1.23177 29.4063 0.999725 29.5952 0.85672C29.784 0.713716 30.0323 0.678634 30.2535 0.767675C33.5399 2.07091 37.6817 2.15726 42.0636 2.2436C47.6084 2.35692 53.8952 2.48374 59.5992 5.19543C64.9929 7.75873 67.1434 11.6684 67.996 14.4961C68.9215 17.564 68.5653 20.0059 68.5491 20.1084C68.506 20.443 68.2199 20.6831 67.8908 20.6831Z" fill="#F0F3F5"/>
<path d="M28.8775 19.1346C26.3277 19.1346 23.9776 18.1281 23.8589 18.0769C23.643 17.9824 23.4919 17.7828 23.4595 17.5507C23.4272 17.3187 23.5189 17.0839 23.7024 16.9355L33.4159 9.00281C33.7046 8.76806 34.1282 8.81123 34.3657 9.09994C34.6031 9.38865 34.5572 9.81227 34.2685 10.0497L25.4832 17.2269C26.6299 17.5777 28.4998 17.9959 30.1808 17.6721C30.5477 17.602 30.9012 17.8421 30.9713 18.2064C31.0415 18.5733 30.8013 18.9268 30.4371 18.9969C29.919 19.0914 29.3956 19.1346 28.8775 19.1346Z" fill="#F0F3F5"/>
<path d="M25.4187 32.6552C24.1694 32.6552 23.2979 32.5014 23.225 32.4879C22.9228 32.4339 22.6962 32.183 22.6746 31.8781C22.653 31.5732 22.8338 31.2899 23.1225 31.1873C23.994 30.8824 26.3199 27.248 28.7725 20.1274C28.894 19.7766 29.2771 19.5878 29.6306 19.7092C29.984 19.8306 30.1702 20.2138 30.0488 20.5672C29.5307 22.0728 27.2238 28.5485 24.9843 31.2953C26.2308 31.3331 28.0602 31.2251 29.7385 30.5047C30.0812 30.359 30.4778 30.5155 30.6235 30.8582C30.7692 31.2008 30.6127 31.5975 30.27 31.7432C28.5648 32.4771 26.7705 32.6552 25.4187 32.6552Z" fill="#F0F3F5"/>
<path d="M28.9479 36.2087C28.8481 36.2087 28.7455 36.1871 28.6484 36.1386C28.3138 35.974 28.1789 35.5692 28.3435 35.2347L29.8248 32.2478C29.9894 31.9132 30.3941 31.7783 30.7287 31.9429C31.0633 32.1075 31.1982 32.5122 31.0336 32.8468L29.5523 35.8337C29.4363 36.0711 29.1961 36.2087 28.9479 36.2087Z" fill="#F0F3F5"/>
<path d="M51.7618 47.6302C50.58 47.6302 49.3091 47.5303 47.9492 47.3009C36.1446 45.3205 31.6197 35.4504 31.4335 35.0295C31.2824 34.6896 31.4335 34.2902 31.7762 34.1391C32.1162 33.988 32.5155 34.1391 32.6666 34.4791C32.7098 34.5762 37.1025 44.1117 48.1732 45.968C54.317 46.9988 58.4371 45.2611 60.8116 43.6233C63.5988 41.6995 65.1692 39.1092 65.4902 37.3986C65.5577 37.0316 65.9112 36.7915 66.2781 36.8589C66.6451 36.9264 66.8852 37.2798 66.8178 37.6468C66.4751 39.487 64.8966 42.4469 61.5806 44.735C59.5299 46.1488 56.3002 47.6302 51.7618 47.6302Z" fill="#F0F3F5"/>
<path d="M54.9015 43.8041C54.3322 43.8041 53.7197 43.7097 53.0802 43.4695C52.7322 43.3373 52.5541 42.9488 52.6863 42.6007C52.8185 42.2526 53.2071 42.0745 53.5551 42.2067C55.8108 43.054 57.7157 41.4351 57.7346 41.4189C58.0152 41.1761 58.4416 41.2057 58.6871 41.4863C58.9299 41.767 58.9003 42.1933 58.6196 42.4388C58.5387 42.5063 57.0115 43.8041 54.9015 43.8041Z" fill="#F0F3F5"/>
<path d="M62.4084 29.0962C62.2924 29.0962 62.1737 29.0908 62.0576 29.0773C60.5628 28.91 59.7291 27.7255 59.6374 27.5906C59.3459 27.1589 59.462 26.5707 59.8937 26.2792C60.3227 25.9905 60.9055 26.1012 61.1996 26.5302C61.2185 26.5545 61.6448 27.1373 62.2816 27.202C62.7781 27.2533 63.342 26.9835 63.9572 26.4034C64.3376 26.0445 64.9339 26.0634 65.2928 26.4439C65.649 26.8243 65.6328 27.4206 65.2523 27.7794C64.3214 28.6537 63.3663 29.0962 62.4084 29.0962Z" fill="#F0F3F5"/>
<path d="M46.0437 28.5754C45.9169 28.5754 45.7874 28.57 45.6606 28.5592C43.4723 28.3811 42.099 26.7136 42.0423 26.6435C41.7158 26.2387 41.7779 25.6424 42.1826 25.3159C42.5873 24.9895 43.1782 25.0515 43.5074 25.4536C43.5317 25.4832 44.4626 26.5787 45.8279 26.6786C46.7615 26.7514 47.7274 26.3413 48.7042 25.467C49.0927 25.119 49.689 25.1514 50.0371 25.5399C50.3851 25.9284 50.3528 26.5247 49.9642 26.8728C48.7015 28.0061 47.3847 28.5754 46.0437 28.5754Z" fill="#F0F3F5"/>
<path d="M53.4655 49.6458C53.2793 49.6458 53.0932 49.635 52.9016 49.6161C49.5504 49.2573 39.335 43.8554 38.9033 43.6234C38.5741 43.448 38.45 43.0406 38.6227 42.7114C38.7981 42.3822 39.2055 42.2581 39.5347 42.4308C39.6372 42.4848 49.9525 47.9405 53.0473 48.2724C55.902 48.5746 58.4221 45.5931 58.4464 45.5634C58.6838 45.2774 59.1102 45.237 59.3962 45.4744C59.6822 45.7118 59.7227 46.1354 59.4852 46.4241C59.3719 46.5644 56.7816 49.6458 53.4655 49.6458Z" fill="#F0F3F5"/>
<path d="M56.3908 52.4465C56.2856 52.4465 56.1831 52.433 56.0751 52.4033C55.5085 52.2468 54.5857 51.4454 54.2161 51.1081C53.9409 50.8572 53.922 50.4309 54.1702 50.1557C54.4211 49.8805 54.8475 49.8616 55.1227 50.1098C55.6138 50.5577 56.1966 51.0002 56.4097 51.092C56.9278 50.9328 58.088 48.8579 58.8705 46.6831C58.9973 46.3324 59.3831 46.1516 59.7339 46.2757C60.0847 46.4025 60.2654 46.7883 60.1413 47.1391C59.4101 49.1762 57.9855 52.4465 56.3908 52.4465Z" fill="#F0F3F5"/>
<path d="M46.7016 52.4032C46.1107 52.4032 45.5279 52.2953 45.0017 52.0201C42.5788 50.7654 38.7446 45.3609 37.8056 42.8138C37.6761 42.4658 37.8569 42.0772 38.205 41.9477C38.553 41.8182 38.9416 41.999 39.0711 42.347C40.2205 45.4608 44.1032 50.0369 45.6223 50.8221C47.136 51.6073 49.791 50.2366 50.6869 49.643C50.9971 49.4379 51.4154 49.5216 51.6204 49.8318C51.8255 50.1421 51.7418 50.5604 51.4315 50.7654C51.3047 50.8518 48.933 52.4032 46.7016 52.4032Z" fill="#F0F3F5"/>
<path d="M39.9375 52.0175C39.8808 52.0175 39.8242 52.0094 39.7675 51.9959C39.4059 51.9041 39.1901 51.5345 39.2818 51.1756L40.0832 48.0727C40.1749 47.7111 40.5446 47.4953 40.9035 47.587C41.265 47.6787 41.4809 48.0484 41.3891 48.4073L40.5878 51.5102C40.5122 51.8151 40.237 52.0175 39.9375 52.0175Z" fill="#F0F3F5"/>
<path d="M39.6511 54.2541C39.5108 54.2541 39.384 54.2352 39.2788 54.1948C39.2626 54.1894 39.2383 54.1813 39.2086 54.1732C38.8659 54.068 38.0592 53.8224 37.7057 53.0265C37.4494 52.449 37.5088 51.7448 37.8865 50.9327C38.0268 50.6305 38.3668 50.4766 38.6879 50.5684C39.9425 50.9353 41.5048 51.5344 41.8043 52.3168C41.9635 52.7297 41.8529 53.1667 41.5021 53.5148C41.1136 53.9034 40.2582 54.2541 39.6511 54.2541ZM38.9172 52.0605C38.8848 52.2332 38.8902 52.3735 38.9361 52.4787C39.0386 52.7108 39.4056 52.8241 39.5999 52.8834C39.6322 52.8942 39.6592 52.9023 39.6862 52.9104C39.8508 52.8996 40.153 52.7998 40.3608 52.6919C40.0613 52.5057 39.5162 52.2682 38.9172 52.0605Z" fill="#F0F3F5"/>
<path d="M58.6407 54.2676C58.6272 54.2676 58.6164 54.2676 58.6029 54.2676C58.2306 54.246 57.9446 53.9303 57.9662 53.558C57.9824 53.2504 57.726 52.0686 57.4805 51.1458C57.3834 50.7869 57.5965 50.4173 57.9581 50.3202C58.3169 50.2257 58.6893 50.4362 58.7837 50.7977C58.9186 51.2969 59.3504 52.9725 59.3153 53.6336C59.2937 53.9897 58.9969 54.2676 58.6407 54.2676Z" fill="#F0F3F5"/>
<path d="M58.9138 56.5694C58.6062 56.5694 58.3175 56.4911 58.0693 56.3373C57.5485 56.0135 57.2356 55.401 57.1384 54.5133C57.1114 54.2543 57.2356 54.0007 57.4595 53.8657C59.2862 52.7568 59.7341 52.8674 59.923 52.916C60.128 52.9672 60.298 53.094 60.4006 53.2694C60.692 53.7632 60.5597 55.0071 60.3466 55.6115C60.1955 56.0378 59.9634 56.313 59.6558 56.429C59.4049 56.5235 59.154 56.5694 58.9138 56.5694ZM58.5577 54.7858C58.6224 55.0179 58.7061 55.1447 58.7789 55.1905C58.8545 55.2364 58.9732 55.2229 59.0649 55.2013C59.1324 55.0395 59.1864 54.7319 59.2106 54.4432C59.0137 54.5376 58.787 54.6563 58.5577 54.7858Z" fill="#F0F3F5"/>
<path d="M48.2426 57.36C48.0645 57.36 47.8864 57.2899 47.7515 57.1496C47.4952 56.8797 47.5059 56.4535 47.7785 56.1971L49.0061 55.0342L47.9673 53.9873C47.7056 53.7229 47.7083 53.2965 47.97 53.0321C48.2345 52.7704 48.6608 52.7731 48.9252 53.0348L50.4497 54.5728C50.5765 54.7023 50.6494 54.8777 50.644 55.0585C50.6413 55.2392 50.5657 55.4119 50.4335 55.5387L48.7039 57.1766C48.5744 57.298 48.4099 57.36 48.2426 57.36Z" fill="#F0F3F5"/>
<path d="M50.8596 57.5058C50.498 57.5058 50.2012 57.2198 50.185 56.8582C50.1715 56.4859 50.4602 56.1729 50.8326 56.1567L52.8967 56.0757C53.2637 56.0649 53.5821 56.351 53.5983 56.7233C53.6117 57.0957 53.323 57.4086 52.9507 57.4248L50.8866 57.5058C50.8785 57.5031 50.8704 57.5058 50.8596 57.5058Z" fill="#F0F3F5"/>
<path d="M64.294 58.2638C63.9514 58.2638 63.6573 58.0048 63.6222 57.654C63.1068 52.4087 61.1398 46.2514 61.1182 46.1893C61.0049 45.8359 61.1992 45.4555 61.5527 45.3394C61.9061 45.2261 62.2866 45.4204 62.4026 45.7738C62.4862 46.0302 64.4343 52.1281 64.9632 57.5191C64.9983 57.8887 64.7284 58.2207 64.3588 58.2557C64.3372 58.2638 64.3156 58.2638 64.294 58.2638Z" fill="#F0F3F5"/>
<path d="M41.0869 85.6911C39.4464 85.6911 37.6683 85.5022 35.7553 85.0435C35.6743 85.0246 35.5961 84.9895 35.5286 84.9409C35.3614 84.8249 31.4355 81.9864 31.6513 72.451C31.6594 72.0786 31.9697 71.7764 32.3421 71.7926C32.7144 71.8007 33.0085 72.111 33.0004 72.4834C32.8952 77.0622 33.8072 79.9115 34.587 81.4954C35.2696 82.8795 35.9739 83.5595 36.214 83.7672C41.3945 84.9733 45.5363 84.0182 48.1077 82.9929C50.25 82.1402 51.6882 81.1041 52.2656 80.6454C51.788 78.3493 49.0224 66.3665 42.714 62.16C39.8997 60.2848 36.6997 60.0258 33.2055 61.3938C30.5343 62.4407 28.6833 64.0865 28.6644 64.1054C28.3865 64.3537 27.9602 64.3321 27.712 64.0569C27.4637 63.779 27.4853 63.3553 27.7605 63.1044C27.8415 63.0316 35.8335 55.9542 43.4641 61.0403C46.6048 63.1341 49.276 67.1031 51.4103 72.8395C52.9833 77.0676 53.6444 80.6373 53.6714 80.7884C53.7118 81.0151 53.6336 81.2498 53.4636 81.4063C53.2343 81.6141 48.6905 85.6911 41.0869 85.6911Z" fill="#F0F3F5"/>
<path d="M39.5032 83.5865C39.3008 83.5865 39.1011 83.4947 38.9662 83.322C38.7396 83.0252 38.7962 82.6016 39.0903 82.3749C39.2279 82.2697 42.374 79.925 47.3873 81.8299C47.7759 81.0825 48.5502 79.9115 49.7402 79.5176C50.296 79.3341 51.1729 79.2531 52.209 79.9169C52.522 80.1166 52.6137 80.5348 52.4141 80.8478C52.2144 81.1608 51.7962 81.2525 51.4832 81.0529C51.0056 80.748 50.5739 80.6643 50.1692 80.7992C49.2437 81.1041 48.5529 82.4478 48.3641 82.9416C48.2966 83.1143 48.1644 83.2519 47.9944 83.3247C47.8244 83.3949 47.6329 83.3949 47.4629 83.322C42.8166 81.2903 39.943 83.4273 39.9133 83.4516C39.7892 83.5406 39.6462 83.5865 39.5032 83.5865Z" fill="#F0F3F5"/>
<path d="M63.6411 80.9368C63.4846 80.9368 63.3254 80.8828 63.1986 80.7695C62.9207 80.524 62.8883 80.103 63.1311 79.8224C63.2363 79.701 65.6566 76.9866 70.2706 78.2143C70.5242 77.394 71.0692 76.134 72.1107 75.6321C72.5802 75.4055 73.3492 75.249 74.3367 75.7778C74.6659 75.9532 74.7874 76.3633 74.612 76.6925C74.4366 77.0217 74.0265 77.1431 73.6973 76.9677C73.1091 76.652 72.7988 76.8004 72.6962 76.849C71.9407 77.2106 71.5063 78.6946 71.4146 79.1883C71.3795 79.3799 71.2608 79.5472 71.0935 79.647C70.9235 79.7469 70.7212 79.7658 70.5377 79.7037C66.3582 78.2926 64.2374 80.6103 64.151 80.7074C64.0134 80.8585 63.8272 80.9368 63.6411 80.9368Z" fill="#F0F3F5"/>
<path d="M24.6608 77.5828C24.5043 77.5828 24.3451 77.5288 24.2183 77.4182C23.3414 76.6573 22.5238 75.7534 21.7845 74.7335C21.566 74.4313 21.6334 74.0104 21.9356 73.7919C22.2378 73.5733 22.6587 73.6407 22.8773 73.9429C23.5545 74.8792 24.3046 75.7076 25.1033 76.401C25.3839 76.6466 25.4136 77.0702 25.1708 77.3535C25.0359 77.5046 24.8497 77.5828 24.6608 77.5828Z" fill="#F0F3F5"/>
<path d="M31.6894 80.4375C31.1957 80.4375 30.3727 80.389 29.3582 80.138C28.9966 80.049 28.7754 79.6847 28.8644 79.3232C28.9535 78.9616 29.3177 78.7377 29.6793 78.8294C31.0742 79.1721 32.0321 79.0776 32.0429 79.0749C32.4099 79.0345 32.7444 79.3043 32.7849 79.674C32.8254 80.0436 32.561 80.3755 32.1913 80.416C32.1724 80.4187 31.9943 80.4375 31.6894 80.4375Z" fill="#F0F3F5"/>
<path d="M26.9214 63.5389C26.8836 63.5389 26.8458 63.5362 26.808 63.5308L26.3331 63.4525C25.9662 63.3904 25.718 63.0424 25.78 62.6754C25.8421 62.3085 26.1874 62.0602 26.5571 62.1223L27.032 62.2006C27.3989 62.2626 27.6472 62.6107 27.5851 62.9776C27.5312 63.3068 27.2451 63.5389 26.9214 63.5389Z" fill="#F0F3F5"/>
<path d="M62.8291 83.2708C62.0494 83.2708 61.2588 83.2007 60.4709 83.0469C60.2712 83.0064 60.0986 82.8796 60.0041 82.6988L55.6789 74.4693C55.5062 74.1401 55.633 73.7327 55.9622 73.5573C56.2914 73.3846 56.6988 73.5114 56.8742 73.8406L61.0456 81.7787C66.7388 82.7096 72.7045 78.6866 74.113 77.6585C73.7703 75.67 71.9787 66.6094 67.1436 62.7618C61.8632 58.5553 54.1301 62.4758 54.0546 62.5162C53.9709 62.5594 53.8765 62.5864 53.7821 62.5918L46.3971 63.0127C46.0247 63.037 45.7063 62.751 45.6847 62.3786C45.6632 62.0063 45.9465 61.6879 46.3188 61.6663L53.5662 61.2508C54.0762 61.0026 55.9568 60.1445 58.3987 59.7101C62.1843 59.0355 65.4977 59.7263 67.9827 61.7068C73.8216 66.3585 75.4432 77.3914 75.5107 77.8609C75.5431 78.0983 75.4513 78.3331 75.2624 78.4842C74.9926 78.6974 69.1753 83.2681 62.8291 83.2708Z" fill="#F0F3F5"/>
<path d="M54.9045 80.7371C54.5969 80.7371 54.319 80.5266 54.2488 80.2136C54.1652 79.8494 54.3918 79.4878 54.7534 79.4042L57.4975 78.7701C57.8617 78.6864 58.2233 78.9131 58.3069 79.2746C58.3906 79.6389 58.1639 80.0004 57.8024 80.0841L55.0583 80.7182C55.007 80.7317 54.9558 80.7371 54.9045 80.7371Z" fill="#F0F3F5"/>
<path d="M8.55777 60.5817C8.37699 60.5817 8.19352 60.5088 8.0613 60.3631C0.471261 52.1282 2.44634 40.9279 3.64704 36.4948C3.81433 35.8796 4.33239 35.429 4.96377 35.3508C5.59514 35.2725 6.20763 35.5774 6.52063 36.1332C9.61546 41.6052 14.4291 45.469 17.022 47.2876C17.3269 47.5008 17.4025 47.9217 17.1866 48.2266C16.9735 48.5315 16.5525 48.607 16.2477 48.3912C12.9639 46.0923 8.40937 42.215 5.34421 36.797C5.28485 36.6945 5.19581 36.681 5.12835 36.6891C5.07439 36.6971 4.97725 36.7268 4.94488 36.8482C3.80084 41.0655 1.91479 51.7072 9.04884 59.4484C9.30247 59.7236 9.28359 60.1499 9.01107 60.4009C8.88695 60.5223 8.72236 60.5817 8.55777 60.5817Z" fill="#F0F3F5"/>
<path d="M74.8466 71.1368C74.593 71.1368 74.3529 70.9938 74.2369 70.7509C74.0777 70.4137 74.2207 70.0116 74.5579 69.8524C75.8693 69.2319 76.7489 67.4726 77.0996 66.6577C72.5343 62.5808 62.8693 46.0974 62.4484 45.377C62.2595 45.0559 62.3675 44.6431 62.6912 44.4543C63.0123 44.2654 63.4252 44.3733 63.614 44.6971C63.7193 44.8752 74.1478 62.6644 78.3219 65.9238C78.5486 66.1019 78.6376 66.4041 78.5459 66.6767C78.5 66.8116 77.3722 70.017 75.1381 71.0747C75.0409 71.1152 74.9411 71.1368 74.8466 71.1368Z" fill="#F0F3F5"/>
<path d="M72.2086 64.7016C72.0035 64.7016 71.8012 64.6099 71.6689 64.4318C71.445 64.135 71.5071 63.7114 71.8039 63.4874L73.0693 62.5377C73.3661 62.3137 73.7897 62.3731 74.0137 62.6726C74.2376 62.9694 74.1756 63.393 73.8788 63.6169L72.6133 64.5667C72.4919 64.6557 72.3489 64.7016 72.2086 64.7016Z" fill="#F0F3F5"/>
<path d="M18.3897 77.3157C15.3488 77.3157 12.173 76.169 9.09167 73.9376C6.27745 71.9005 4.5452 69.7068 4.47235 69.6124C4.29427 69.383 4.28078 69.0673 4.43998 68.8245C4.53711 68.6788 14.1832 54.0977 18.0362 47.7461C22.0215 41.176 30.6908 38.1918 31.0577 38.0677C31.4112 37.949 31.7917 38.1379 31.9131 38.4913C32.0318 38.8448 31.8429 39.2279 31.4895 39.3466C31.4031 39.3763 22.9173 42.3039 19.1911 48.4477C15.6942 54.211 7.46196 66.701 5.84574 69.151C7.22182 70.7295 13.0068 76.8112 19.8143 75.8722L29.2742 51.5452C29.4091 51.1972 29.8004 51.0245 30.1485 51.1621C30.4965 51.297 30.6665 51.6882 30.5316 52.0363L20.9314 76.7249C20.845 76.9461 20.6508 77.1053 20.4187 77.1458C19.7496 77.2564 19.0723 77.3157 18.3897 77.3157Z" fill="#F0F3F5"/>
<path d="M20.0892 72.1919C20.0325 72.1919 19.9759 72.1839 19.9192 72.1704C19.5954 72.0867 11.9352 70.0469 8.76755 65.3547C8.55979 65.0471 8.64073 64.6262 8.94833 64.4184C9.25592 64.2107 9.67684 64.2916 9.8846 64.5992C12.769 68.8758 20.1836 70.8456 20.2565 70.8644C20.6181 70.9589 20.8339 71.3258 20.7395 71.6874C20.6612 71.9896 20.3887 72.1919 20.0892 72.1919Z" fill="#F0F3F5"/>
<path d="M30.0052 52.1469C29.6382 52.1469 29.3387 51.8555 29.3306 51.4858C29.2308 46.8449 25.116 42.266 25.0756 42.2202C24.8246 41.945 24.8462 41.5186 25.1214 41.2677C25.3967 41.0168 25.823 41.0384 26.0739 41.3136C26.2574 41.516 30.5718 46.308 30.6797 51.4588C30.6878 51.8312 30.391 52.1388 30.0187 52.1469C30.016 52.1469 30.0106 52.1469 30.0052 52.1469Z" fill="#F0F3F5"/>
<path d="M89.3472 84.9382C89.0234 84.9382 88.7374 84.7062 88.6834 84.3743C88.6699 84.2879 87.2129 75.5269 86.7434 64.5101C86.3063 54.3136 86.649 40.032 90.7584 29.903C90.8987 29.5576 91.2926 29.3903 91.638 29.5306C91.9833 29.6709 92.1506 30.0649 92.0103 30.4102C89.7951 35.8768 87.3155 46.2163 88.0925 64.4373C88.5593 75.3731 90.0029 84.064 90.0164 84.1503C90.0784 84.5173 89.8302 84.8654 89.4632 84.9274C89.4228 84.9355 89.385 84.9382 89.3472 84.9382Z" fill="#4AB69F"/>
<path d="M87.79 80.802C87.6039 80.802 87.4204 80.7264 87.2882 80.5807C86.9185 80.1706 78.2276 70.368 78.9103 54.678C79.5956 38.934 85.9742 34.2121 86.244 34.0178C86.4733 33.8532 86.7836 33.8505 87.0157 34.0097C87.2504 34.1689 87.3583 34.4577 87.2882 34.7329C87.2558 34.8651 83.9154 48.0836 83.8291 57.7404C83.7643 64.8421 88.3863 79.7767 88.4322 79.9278C88.5266 80.23 88.3971 80.5565 88.1219 80.7156C88.0167 80.7723 87.9034 80.802 87.79 80.802ZM85.3967 36.8779C83.535 39.3522 80.6911 44.7189 80.2567 54.7346C79.8169 64.834 83.5107 72.5293 86.0362 76.5523C84.6412 71.566 82.4314 62.8454 82.4773 57.7296C82.5474 50.4499 84.4173 41.222 85.3967 36.8779Z" fill="#4AB69F"/>
<path d="M91.8562 76.8707C91.5729 76.8707 91.3085 76.6899 91.2167 76.4066C87.8008 66.0563 89.4737 54.8642 91.4757 47.3011C93.6397 39.1283 96.6536 33.2974 96.6833 33.2381C96.856 32.9089 97.2607 32.7794 97.5926 32.9521C97.9217 33.1248 98.0513 33.5322 97.8786 33.8614C97.7599 34.088 86.1522 56.7556 92.4957 75.9857C92.6117 76.3392 92.4201 76.7196 92.0667 76.8384C91.9992 76.8572 91.9263 76.8707 91.8562 76.8707Z" fill="#4AB69F"/>
<path d="M89.3469 85.1435C89.266 85.1435 89.185 85.13 89.1068 85.0976C88.7587 84.9654 88.586 84.5742 88.7182 84.2261C88.756 84.1263 92.5821 74.0809 94.1794 66.3613C94.255 65.9971 94.6111 65.7623 94.9781 65.8379C95.3423 65.9134 95.5771 66.2696 95.5015 66.6365C93.8826 74.464 90.0161 84.6093 89.9783 84.7118C89.8758 84.9762 89.6195 85.1435 89.3469 85.1435Z" fill="#4AB69F"/>
<path d="M90.3397 64.3861C90.3343 64.3861 90.3316 64.3861 90.3262 64.3861C90.0213 64.3807 89.7569 64.1702 89.684 63.8707C89.6327 63.6603 88.459 58.674 91.4109 54.1194C93.5802 50.771 97.3712 48.5827 102.679 47.6114C103.008 47.5493 103.334 47.7436 103.439 48.062C103.545 48.3804 103.402 48.7284 103.099 48.8795C103.008 48.9254 93.9526 53.5393 90.9872 63.8977C90.9036 64.1864 90.6392 64.3861 90.3397 64.3861ZM98.9226 50.0236C96.0572 51.1083 93.9202 52.7245 92.5414 54.8533C91.2894 56.7879 90.8739 58.8359 90.7849 60.4602C92.9488 55.455 96.3432 52.0553 98.9226 50.0236Z" fill="#4AB69F"/>
<path d="M93.9523 48.7879C93.8849 48.7879 93.8147 48.7771 93.7445 48.7555C93.3911 48.6422 93.1941 48.2618 93.3074 47.9083C93.3722 47.7059 94.9695 42.9031 100.11 41.1169C100.374 41.0252 100.668 41.1061 100.846 41.3193C101.027 41.5325 101.054 41.8373 100.919 42.0802L97.3871 48.4399C97.2063 48.7663 96.7962 48.8824 96.4697 48.7016C96.1433 48.5208 96.0272 48.1107 96.208 47.7842L98.7227 43.2566C95.6414 45.1561 94.6026 48.2807 94.5918 48.3184C94.5 48.6071 94.2356 48.7879 93.9523 48.7879Z" fill="#4AB69F"/>
<path d="M97.2716 34.4037C97.1772 34.4037 97.0827 34.3983 96.9856 34.3902C96.6213 34.3552 96.3542 34.0368 96.3785 33.6725C96.4729 32.3072 97.1394 29.9976 99.0389 29.9976C99.0443 29.9976 99.047 29.9976 99.0497 29.9976C99.8457 30.0003 100.196 30.4401 100.334 30.6991C100.639 31.2738 100.512 32.0752 99.9968 32.8442C99.4787 33.6186 98.5047 34.4037 97.2716 34.4037ZM99.0389 31.344C98.3967 31.344 98.0379 32.2101 97.8625 32.9332C98.2564 32.7767 98.5856 32.4853 98.8015 32.1966C99.1064 31.7919 99.1603 31.4654 99.1468 31.3548C99.128 31.3494 99.0902 31.3413 99.0389 31.344Z" fill="#4AB69F"/>
<path d="M96.8664 34.1421C96.718 34.1421 96.5696 34.0935 96.4455 33.9937C95.3743 33.1329 93.8552 31.2631 94.9507 29.7035C95.4094 29.0506 95.9679 29.0128 96.262 29.0479C96.9069 29.1261 97.4924 29.6846 97.8324 30.5481C98.1993 31.4843 98.2749 32.8577 97.3818 33.9046C97.2469 34.0611 97.0553 34.1421 96.8664 34.1421ZM96.1217 30.397C96.1055 30.4105 96.0839 30.4347 96.0542 30.4779C95.6711 31.0229 96.2053 31.8135 96.6856 32.3505C96.7801 31.9376 96.7288 31.5032 96.6155 31.1633C96.459 30.6803 96.2215 30.4509 96.1217 30.397Z" fill="#4AB69F"/>
<path d="M95.1132 28.0522C94.2012 28.0522 93.4403 27.7446 92.8548 27.1348C91.592 25.8289 91.6568 23.5813 91.6595 23.4868C91.6649 23.3006 91.7485 23.1253 91.8915 23.0012C92.0345 22.877 92.218 22.8204 92.4042 22.8393C95.6313 23.1711 97.4822 24.9007 97.4067 26.3766C97.3635 27.151 96.7402 28.0522 95.1132 28.0522ZM93.0545 24.3017C93.1408 24.925 93.3513 25.7128 93.8262 26.2012C94.1526 26.5385 94.5736 26.7031 95.1132 26.7031C95.5395 26.7031 96.0414 26.6005 96.0549 26.3118C96.0818 25.7587 95.0997 24.7118 93.0545 24.3017Z" fill="#4AB69F"/>
<path d="M99.1415 26.4333C98.3752 26.4333 97.3741 26.3011 96.0763 25.9234C95.7174 25.8181 95.5151 25.4431 95.6176 25.0869C95.7228 24.7308 96.0979 24.5257 96.4541 24.6282C98.0109 25.0815 99.9725 25.2785 100.41 24.8468C100.488 24.7685 100.493 24.6093 100.429 24.3692C99.9914 22.7827 96.0169 23.0498 94.1606 23.4275C93.7963 23.5004 93.4402 23.2656 93.3646 22.9014C93.2891 22.5371 93.5265 22.181 93.8908 22.1054C94.5977 21.9597 100.841 20.7833 101.729 24.0103C101.985 24.9412 101.667 25.4997 101.357 25.8073C101.214 25.9503 100.612 26.4333 99.1415 26.4333Z" fill="#4AB69F"/>
<path d="M99.7213 23.3061C99.3732 23.3061 99.0791 23.039 99.0494 22.6882C99.017 22.3158 99.2949 21.9921 99.6646 21.9597C100.814 21.8625 102.22 21.447 102.382 21.0369C102.425 20.929 102.301 20.6969 102.071 20.4406C101.448 19.7553 99.9371 19.7957 97.8136 20.5566C96.0274 21.1961 94.4517 22.1189 94.4355 22.127C94.1144 22.3159 93.7016 22.2079 93.5127 21.8868C93.3238 21.5658 93.429 21.1529 93.7501 20.964C94.4571 20.5458 100.733 16.9626 103.067 19.5313C103.85 20.392 103.806 21.0909 103.636 21.528C103.075 22.9553 100.323 23.2548 99.7779 23.3007C99.759 23.3061 99.7401 23.3061 99.7213 23.3061Z" fill="#4AB69F"/>
<path d="M95.5848 21.2716C95.2476 21.2716 94.9562 21.018 94.9157 20.6753C94.8644 20.2409 94.4624 16.3879 95.8439 14.7042C96.2405 14.2185 96.7667 13.9379 97.363 13.8893C98.337 13.8111 99.1168 14.1646 99.5674 14.8877C100.388 16.199 99.929 18.4277 99.0817 19.8551C98.8928 20.1762 98.4773 20.2814 98.1589 20.0925C97.8379 19.9036 97.7326 19.4881 97.9215 19.1697C98.6284 17.9744 98.8632 16.3096 98.4234 15.6027C98.31 15.4219 98.0861 15.1845 97.4709 15.2357C97.2388 15.2546 97.0527 15.3572 96.8854 15.5622C96.0193 16.6172 96.138 19.4989 96.254 20.5215C96.2972 20.8912 96.0328 21.2258 95.6604 21.2689C95.6361 21.2689 95.6118 21.2716 95.5848 21.2716Z" fill="#4AB69F"/>
<path d="M91.9241 22.1539C91.6516 22.1539 91.3926 21.9866 91.2928 21.7141C91.2658 21.6439 90.6506 19.9845 90.3781 18.1147C89.9787 15.3841 90.5076 13.6248 91.9457 12.8882C92.8038 12.4484 93.4081 12.6184 93.767 12.8397C95.0001 13.5979 95.0864 15.9048 95.0702 19.0806C95.0675 19.8712 95.0622 20.6186 95.1053 21.1528C95.135 21.5252 94.8571 21.849 94.4847 21.8786C94.1205 21.9083 93.7886 21.6304 93.7589 21.2581C93.7131 20.6699 93.7157 19.8928 93.7184 19.0725C93.7265 17.4428 93.74 14.4073 93.0574 13.9864C92.936 13.9136 92.6904 14.0161 92.5555 14.0862C90.7234 15.0252 91.97 19.6823 92.5528 21.2392C92.6823 21.5872 92.507 21.9758 92.1562 22.108C92.0833 22.1404 92.0051 22.1539 91.9241 22.1539Z" fill="#4AB69F"/>
<path d="M91.0446 22.0164C91.0122 22.0164 90.9771 22.0137 90.9447 22.0083C88.0927 21.5847 85.0114 19.0537 84.5824 17.3566C84.4205 16.7144 84.6013 16.1424 85.0789 15.7835C85.8991 15.1683 87.1241 15.3896 88.8267 16.4554C89.9302 17.1461 90.8449 17.9556 90.8827 17.988C91.1606 18.2362 91.1876 18.6625 90.9394 18.9404C90.6911 19.2183 90.2648 19.2453 89.9869 18.9971C88.484 17.6669 86.4145 16.4716 85.8883 16.8628C85.864 16.9033 85.864 17.0868 86.0691 17.4321C86.8327 18.7192 89.1639 20.3786 91.1417 20.6727C91.5114 20.7266 91.765 21.072 91.7083 21.4389C91.6598 21.7762 91.3738 22.0164 91.0446 22.0164Z" fill="#4AB69F"/>
<path d="M87.151 23.3977C85.8559 23.3977 84.6606 22.9768 83.8457 22.3913C83.0929 21.8489 82.7395 21.2149 82.8528 20.6078C83.1523 19.0104 85.7776 19.1264 86.2984 19.1642C86.6707 19.1912 86.9487 19.515 86.9217 19.8873C86.8947 20.2597 86.5709 20.5403 86.1986 20.5079C85.0168 20.4189 84.2774 20.7022 84.1884 20.8344C84.2397 20.9585 84.5257 21.3093 85.2002 21.6223C86.2228 22.0945 87.8337 22.3103 89.288 21.4982C89.6118 21.3174 90.0246 21.4334 90.2054 21.7572C90.3862 22.081 90.2702 22.4938 89.9464 22.6746C89.0344 23.1872 88.0684 23.3977 87.151 23.3977Z" fill="#4AB69F"/>
<path d="M87.0181 26.9134C86.3625 26.9134 85.6663 26.6705 84.9108 26.1794C84.2498 25.7504 84.0798 25.2162 84.0528 24.8465C83.98 23.8185 84.9297 22.9632 85.0377 22.8688C85.3183 22.6259 85.7446 22.6529 85.9901 22.9362C86.233 23.2168 86.206 23.6404 85.9254 23.886C85.6933 24.091 85.3803 24.5093 85.3992 24.7548C85.4073 24.8492 85.4883 24.9491 85.6448 25.0516C86.3652 25.5211 86.9264 25.6641 87.4148 25.5022C88.1325 25.2621 88.8151 24.3096 89.3899 22.7419C89.5194 22.3912 89.9052 22.2131 90.256 22.3399C90.6067 22.4694 90.7848 22.8553 90.658 23.206C89.916 25.2297 88.9959 26.398 87.8411 26.7838C87.574 26.8702 87.2987 26.9134 87.0181 26.9134Z" fill="#4AB69F"/>
<path d="M90.497 29.4094C89.5877 29.4094 89.0777 29.0047 88.8079 28.6566C87.9499 27.5557 88.4382 25.7048 88.4976 25.497C88.6001 25.1381 88.9698 24.9304 89.3286 25.0302C89.6875 25.1327 89.8953 25.5051 89.7954 25.8613C89.6713 26.3092 89.5256 27.3804 89.8737 27.8256C89.9573 27.9308 90.1165 28.0684 90.5509 28.0576C90.8342 28.0495 91.0312 27.9578 91.1904 27.7662C91.757 27.0728 91.6248 25.3837 91.5331 24.8467C91.471 24.4798 91.7166 24.1317 92.0835 24.0696C92.4505 24.0076 92.7985 24.2531 92.8633 24.6201C92.9092 24.8926 93.2923 27.3291 92.2346 28.6215C91.8299 29.118 91.2606 29.3905 90.5914 29.4094C90.559 29.4094 90.5266 29.4094 90.497 29.4094Z" fill="#4AB69F"/>
<path d="M77.8869 32.121C77.5388 32.121 77.2474 31.8566 77.215 31.5058C77.0936 30.1379 77.3904 27.7472 79.2765 27.4558C80.0644 27.3344 80.4799 27.7122 80.6553 27.9469C81.0465 28.465 81.0492 29.2771 80.6607 30.1163C80.2397 31.0283 79.3008 32.0347 77.9274 32.1183C77.9139 32.121 77.9004 32.121 77.8869 32.121ZM79.5679 28.7834C79.5463 28.7834 79.5193 28.786 79.4815 28.7914C78.8448 28.8886 78.6262 29.8033 78.5669 30.5453C78.9311 30.3267 79.209 29.9894 79.379 29.6711C79.6165 29.2232 79.6192 28.8913 79.5868 28.7861C79.5814 28.7834 79.576 28.7834 79.5679 28.7834Z" fill="#4AB69F"/>
<path d="M77.1237 31.3629C77.0104 31.3629 76.8944 31.3332 76.7891 31.2739C75.5965 30.5939 73.8022 28.9858 74.6387 27.2724C74.9894 26.5574 75.5345 26.4306 75.8286 26.4198C76.4815 26.3874 77.1453 26.8569 77.6148 27.6529C78.1247 28.519 78.4135 29.8654 77.6984 31.0391C77.5716 31.2469 77.3504 31.3629 77.1237 31.3629ZM75.9068 27.7716C75.8933 27.7878 75.8744 27.8174 75.8529 27.8633C75.5614 28.4623 76.2117 29.1585 76.7702 29.6118C76.7999 29.1908 76.6812 28.7699 76.5139 28.4488C76.2819 27.9982 76.0121 27.8067 75.9068 27.7716Z" fill="#4AB69F"/>
<path d="M79.7359 43.0003C79.4391 43.0003 79.1693 42.8033 79.0856 42.5038C78.9129 41.8805 78.6242 41.4299 78.2249 40.8039C77.858 40.2292 77.3992 39.5142 76.9298 38.4727C74.7253 33.5727 76.8003 30.9285 76.8893 30.8179C77.124 30.5292 77.5504 30.4833 77.8391 30.718C78.1278 30.9528 78.1709 31.3737 77.9416 31.6624C77.866 31.7622 76.3254 33.8372 78.1601 37.9169C78.5891 38.8693 78.9993 39.5088 79.3608 40.0754C79.7899 40.7446 80.1622 41.3247 80.3862 42.1449C80.486 42.5038 80.2728 42.8762 79.914 42.9733C79.8546 42.9922 79.7953 43.0003 79.7359 43.0003Z" fill="#4AB69F"/>
<path d="M92.0269 23.3762C93.4694 23.3762 94.6388 22.7239 94.6388 21.9192C94.6388 21.1145 93.4694 20.4622 92.0269 20.4622C90.5844 20.4622 89.415 21.1145 89.415 21.9192C89.415 22.7239 90.5844 23.3762 92.0269 23.3762Z" fill="#4AB69F"/>
<path d="M18.1603 89.9999C17.8123 89.9999 17.5209 89.7355 17.4885 89.3848C17.3671 88.0168 17.6639 85.6262 19.5499 85.3347C20.3378 85.2133 20.7533 85.5911 20.9287 85.8258C21.3199 86.3439 21.3226 87.156 20.9341 87.9952C20.5132 88.9072 19.5742 89.9136 18.2008 89.9972C18.1873 89.9972 18.1738 89.9999 18.1603 89.9999ZM19.8413 86.6622C19.8197 86.6622 19.7928 86.6649 19.755 86.6703C19.1182 86.7675 18.8996 87.6822 18.8403 88.4242C19.2045 88.2056 19.4825 87.8683 19.6525 87.55C19.8899 87.1021 19.8926 86.7702 19.8602 86.6649C19.8548 86.6622 19.8494 86.6622 19.8413 86.6622Z" fill="#4AB69F"/>
<path d="M17.3966 89.2393C17.2833 89.2393 17.1673 89.2096 17.062 89.1502C15.8694 88.4703 14.0751 86.8621 14.9143 85.1461C15.265 84.431 15.8101 84.3042 16.1042 84.2935C16.1204 84.2935 16.1366 84.2935 16.1555 84.2935C16.7895 84.2935 17.4344 84.7521 17.8904 85.5292C18.4004 86.3953 18.6891 87.7418 17.974 88.9155C17.8445 89.1232 17.6233 89.2393 17.3966 89.2393ZM16.1797 85.6506C16.1662 85.6668 16.1474 85.6965 16.1258 85.7397C15.8425 86.3198 16.4684 87.0186 17.0432 87.4935C17.0728 87.0699 16.9541 86.649 16.7895 86.3279C16.5575 85.8746 16.285 85.6857 16.1797 85.6506Z" fill="#4AB69F"/>
<path d="M9.11606 87.9116C8.83275 87.9116 8.57103 87.7335 8.47659 87.4502C8.35787 87.0967 8.54945 86.7136 8.90291 86.5975C9.84458 86.2846 11.6902 84.0586 12.1623 82.4019C12.3026 81.9081 12.2999 81.5114 12.1596 81.3415C12.1354 81.3118 12.1165 81.2983 12.1111 81.2956C11.7603 81.2524 10.6001 82.5286 9.70967 84.1611C9.53159 84.4875 9.12147 84.609 8.79499 84.4309C8.4685 84.2528 8.34708 83.8427 8.52517 83.5162C8.95958 82.7176 10.4948 80.103 11.9762 79.9573C12.4456 79.9114 12.8774 80.0976 13.1958 80.4807C13.5087 80.8558 13.8082 81.5573 13.4602 82.7742C12.8909 84.7763 10.7674 87.4016 9.32922 87.8819C9.25907 87.9008 9.18622 87.9116 9.11606 87.9116Z" fill="#4AB69F"/>
<path d="M7.00387 87.523C5.52526 87.523 4.09251 86.5733 3.39638 85.5749C2.9134 84.8815 2.78928 84.1907 3.04831 83.6295C3.18591 83.3327 3.43955 83.1249 3.76603 83.044C4.14917 82.9496 5.34178 82.9657 8.11014 85.1189C8.40424 85.3483 8.45821 85.7719 8.22886 86.066C8.08855 86.2468 7.87809 86.3412 7.65953 86.325C7.79175 86.4383 7.87809 86.6002 7.89428 86.7837C7.92396 87.1561 7.64605 87.4798 7.27639 87.5095C7.18196 87.5203 7.09291 87.523 7.00387 87.523ZM4.28678 84.3877C4.31916 84.4929 4.38122 84.6359 4.49994 84.8032C5.0126 85.5371 6.14854 86.2495 7.16307 86.1685C7.19275 86.1658 7.22243 86.1658 7.25211 86.1685C6.12696 85.2943 4.8642 84.5442 4.28678 84.3877Z" fill="#4AB69F"/>
<path d="M78.4335 87.1994C78.1502 87.1994 77.8885 87.0213 77.794 86.738C77.6753 86.3845 77.8669 86.0014 78.2203 85.8853C79.162 85.5723 81.0076 83.3463 81.4798 81.687C81.6201 81.1932 81.6174 80.7965 81.4771 80.6265C81.4528 80.5969 81.4339 80.5834 81.4285 80.5807C81.4231 80.5807 81.4177 80.5807 81.4123 80.5807C81.04 80.5807 79.904 81.8354 79.0244 83.4462C78.8463 83.7727 78.4362 83.8941 78.1097 83.716C77.7832 83.5379 77.6618 83.1278 77.8399 82.8013C78.2743 82.0026 79.8096 79.3881 81.2909 79.2424C81.7604 79.1938 82.1921 79.3827 82.5105 79.7631C82.8235 80.1382 83.123 80.8397 82.7749 82.0566C82.2056 84.0587 80.0821 86.6867 78.644 87.1643C78.5765 87.1886 78.5036 87.1994 78.4335 87.1994Z" fill="#4AB69F"/>
<path d="M76.3174 86.8109C74.8387 86.8109 73.406 85.8611 72.7099 84.8628C72.2269 84.1694 72.1028 83.4786 72.3618 82.9174C72.4994 82.6206 72.753 82.4128 73.0795 82.3319C73.4627 82.2401 74.6553 82.2536 77.4236 84.4068C77.7177 84.6361 77.7717 85.0598 77.5423 85.3539C77.402 85.5346 77.1916 85.6291 76.973 85.6129C77.1052 85.7262 77.1916 85.8881 77.2078 86.0716C77.2374 86.4439 76.9595 86.7677 76.5899 86.7974C76.4981 86.8082 76.4064 86.8109 76.3174 86.8109ZM73.603 83.6756C73.6353 83.7808 73.6974 83.9238 73.8161 84.0911C74.3288 84.825 75.4647 85.5346 76.4792 85.4564C76.5089 85.4537 76.5386 85.4537 76.5683 85.4564C75.4404 84.5822 74.1804 83.8348 73.603 83.6756Z" fill="#4AB69F"/>
<path d="M70.0413 50.1504C69.3748 50.1504 68.6976 50.0101 68.1067 49.6836C67.7802 49.5028 67.6642 49.0927 67.845 48.7662C67.934 48.6043 68.0824 48.4937 68.2497 48.4451C68.05 48.3669 67.8908 48.1969 67.8396 47.9729C67.7532 47.6114 67.9772 47.2471 68.3387 47.1608C69.4747 46.891 72.2187 46.3405 73.1523 47.0744C73.4167 47.2822 73.5625 47.5763 73.5625 47.9028C73.5652 48.5207 73.1658 49.0981 72.4373 49.5298C71.8059 49.9021 70.9317 50.1504 70.0413 50.1504ZM68.6841 48.464C68.7111 48.4748 68.7381 48.4883 68.7651 48.5018C69.6555 48.9956 70.983 48.8202 71.7547 48.3642C71.9327 48.259 72.0488 48.1564 72.1216 48.0755C71.5253 47.9837 70.0467 48.1429 68.6841 48.464Z" fill="#4AB69F"/>
<path d="M5.33028 79.2369C3.98118 79.2369 2.73192 78.7323 1.93595 78.0848C1.22632 77.5073 0.891742 76.8139 1.01856 76.1852C1.08062 75.8749 1.27218 75.6186 1.56089 75.4621C2.71302 74.8388 5.96437 76.0233 7.31077 76.5603C7.65614 76.6979 7.82612 77.0918 7.68581 77.4372C7.64264 77.5424 7.57788 77.6314 7.49694 77.7016C7.57518 77.7664 7.63995 77.8527 7.68042 77.9525C7.82612 78.2952 7.66693 78.6918 7.32156 78.8375C6.66319 79.1181 5.98325 79.2369 5.33028 79.2369ZM2.40004 76.6142C2.46749 76.7302 2.6024 76.8948 2.83984 77.0783C3.68978 77.7367 5.18728 78.1306 6.5175 77.6962C4.80953 77.0432 3.06379 76.5899 2.40004 76.6142Z" fill="#4AB69F"/>
<path d="M75.268 58.871C75.2033 58.871 75.1385 58.8629 75.0738 58.8413C74.7176 58.7334 74.5152 58.3583 74.6232 57.9995C74.9388 56.958 75.1331 55.8031 75.1034 55.2581C74.8417 55.5279 74.4721 56.1323 74.2292 56.7124C74.0862 57.0551 73.6896 57.2197 73.3469 57.0767C73.0015 56.9337 72.8397 56.5398 72.9827 56.1971C73.2633 55.5198 74.2859 53.3451 75.6566 53.8442C76.6333 54.1977 76.7197 55.7303 75.9129 58.3934C75.8239 58.6848 75.5567 58.871 75.268 58.871Z" fill="#4AB69F"/>
<path d="M16.3046 44.3707C16.2669 44.3707 16.2291 44.368 16.1886 44.3599C15.8217 44.2979 15.5761 43.9471 15.6382 43.5801C15.6544 43.4857 17.2085 33.9799 10.946 31.2278C10.606 31.0767 10.4495 30.68 10.6006 30.34C10.7517 30.0001 11.1484 29.8436 11.4883 29.9947C14.5049 31.3195 16.4072 34.1526 16.99 38.1837C17.419 41.1518 16.9873 43.7043 16.9684 43.8122C16.9117 44.1387 16.6257 44.3707 16.3046 44.3707Z" fill="#4AB69F"/>
<path d="M6.90612 32.5067C6.76851 32.5067 6.6282 32.4905 6.49059 32.4581C5.98333 32.3421 5.61367 32.0426 5.4167 31.592C5.17926 31.047 5.25751 30.3427 5.44099 29.6817C4.80961 29.849 4.05681 29.8598 3.23656 29.4928C2.25981 29.0557 1.69318 28.2435 1.75794 27.3747C1.8254 26.5032 2.51344 25.8044 3.59812 25.5076C4.28346 25.3187 5.17926 25.3133 5.8835 25.3538C5.51924 24.1288 5.46527 22.6448 6.67407 22.0188C7.11387 21.7894 7.57527 21.7867 7.9746 22.0107C8.46028 22.2832 8.77867 22.8795 8.98643 23.5217C9.42084 22.8309 9.97666 22.1888 10.5999 22.0107C11.0128 21.892 11.4337 21.9729 11.7845 22.2346C12.3457 22.6556 12.5858 23.3004 12.459 24.0559C12.4131 24.3392 12.3106 24.636 12.1703 24.9274C13.9106 24.6495 14.5097 25.2431 14.7039 25.5885C14.9441 26.0148 14.9387 26.5086 14.685 26.9781C14.0752 28.114 11.9598 29.115 9.64748 29.3903C9.41814 30.1593 8.8731 31.6055 7.90445 32.2126C7.59146 32.4069 7.25149 32.5067 6.90612 32.5067ZM6.85754 27.4098C6.99785 27.4098 7.13816 27.453 7.25688 27.542C7.5321 27.7444 7.61304 28.1221 7.44306 28.4189C6.91151 29.3471 6.4663 30.626 6.65518 31.0524C6.66867 31.0847 6.68486 31.1171 6.79549 31.1441C6.9358 31.1765 7.05181 31.1549 7.18672 31.0686C7.79112 30.6881 8.29029 29.3606 8.46028 28.6132C8.52503 28.3245 8.77327 28.1113 9.06737 28.0897C11.7899 27.8874 13.5356 26.6354 13.5302 26.2496C13.2469 26.0391 11.7062 26.3278 10.3112 26.8675C10.2438 26.8971 10.179 26.9241 10.1116 26.9457C9.7662 27.059 9.39386 26.8782 9.26704 26.5356C9.14023 26.1929 9.31021 25.8152 9.64748 25.6803C9.69605 25.6614 9.74462 25.6425 9.79049 25.6236C10.2654 25.3915 11.0074 24.5632 11.1261 23.8374C11.1855 23.4758 11.0425 23.3679 10.9723 23.3139C10.6269 23.349 9.80668 24.6253 9.3183 25.8826C9.20498 26.1767 8.90009 26.3521 8.58979 26.3062C8.2768 26.2604 8.03936 26.0013 8.01777 25.6883C7.93953 24.5983 7.60765 23.3922 7.33513 23.2006C7.32704 23.2033 7.31354 23.2087 7.29735 23.2168C6.64439 23.5541 7.2299 25.2512 7.5159 25.8314C7.62653 26.0553 7.60495 26.3224 7.45654 26.5248C7.31084 26.7272 7.06261 26.8324 6.81437 26.7973C6.30171 26.7245 4.78533 26.5841 3.95968 26.8108C3.45511 26.9484 3.12863 27.2074 3.10704 27.4799C3.08546 27.7606 3.35528 28.0682 3.78969 28.2624C5.16847 28.8803 6.31251 27.6796 6.36107 27.6283C6.49329 27.4826 6.67406 27.4098 6.85754 27.4098Z" fill="#4AB69F"/>
<path d="M8.493 28.4892C9.19189 28.4892 9.75845 27.9226 9.75845 27.2237C9.75845 26.5248 9.19189 25.9583 8.493 25.9583C7.7941 25.9583 7.22754 26.5248 7.22754 27.2237C7.22754 27.9226 7.7941 28.4892 8.493 28.4892Z" fill="#4AB69F"/>
<path d="M17.524 34.4871C17.4079 34.4871 17.2865 34.4574 17.1786 34.3927C16.8575 34.2011 16.7523 33.7883 16.9438 33.4699C16.9762 33.4159 18.7921 30.2671 18.3712 26.5679L16.2882 31.7323C16.1479 32.0776 15.7566 32.2449 15.4113 32.1046C15.0659 31.9643 14.8986 31.5731 15.0389 31.2277L17.9233 24.0748C18.0285 23.8157 18.2876 23.6457 18.5628 23.6538C18.8434 23.6592 19.0916 23.84 19.1834 24.1044C20.9831 29.2175 18.2201 33.961 18.1041 34.1606C17.98 34.3711 17.7533 34.4871 17.524 34.4871Z" fill="#4AB69F"/>
<path d="M28.0847 76.9704C27.7717 76.9704 27.4938 76.7545 27.4263 76.4388C27.1376 75.0978 27.1403 72.6856 28.9751 72.1675C29.7414 71.9517 30.2001 72.2728 30.4051 72.4859C30.8557 72.9527 30.9583 73.7568 30.6749 74.6391C30.37 75.597 29.5606 76.7086 28.2088 76.9595C28.1683 76.9649 28.1251 76.9704 28.0847 76.9704ZM29.4473 73.4438C29.4257 73.4438 29.3933 73.4492 29.3447 73.4627C28.7026 73.6435 28.6189 74.5932 28.654 75.3137C28.9859 75.0546 29.2206 74.6849 29.3501 74.3477C29.5309 73.8755 29.4904 73.5463 29.4473 73.4438Z" fill="#4AB69F"/>
<path d="M27.2344 76.3094C27.1481 76.3094 27.059 76.2933 26.9754 76.2582C25.7099 75.7293 23.7295 74.3533 24.3527 72.5482C24.6118 71.7954 25.1406 71.6038 25.4293 71.5552C26.0715 71.45 26.7892 71.8277 27.3531 72.5616C27.9656 73.3603 28.4162 74.6581 27.8523 75.9128C27.7363 76.161 27.4907 76.3094 27.2344 76.3094ZM25.6695 72.8908C25.6587 72.9097 25.6425 72.9394 25.6263 72.988C25.4104 73.6166 26.1417 74.2291 26.7514 74.6123C26.7272 74.1914 26.5599 73.7866 26.3548 73.4898C26.0715 73.0689 25.7774 72.9124 25.6695 72.8908Z" fill="#4AB69F"/>
<path d="M29.1183 84.2205C28.9483 84.2205 28.7757 84.1557 28.6461 84.0262C26.6198 82.0322 26.2744 79.9195 26.3392 78.4948C26.4093 76.9542 26.9706 75.8776 26.9948 75.8344C27.1702 75.5052 27.5776 75.3784 27.9068 75.5538C28.236 75.7265 28.3601 76.1339 28.1874 76.4631C28.1146 76.6061 26.4336 79.9546 29.5932 83.0656C29.8576 83.3273 29.863 83.7537 29.6013 84.0208C29.4664 84.153 29.2937 84.2205 29.1183 84.2205Z" fill="#4AB69F"/>
</svg>
