<svg width="28" height="18" viewBox="0 0 28 18" fill="none" xmlns="http://www.w3.org/2000/svg">
<path d="M7.54685 6.16332V17.1323C7.54685 17.3731 7.74204 17.5683 7.98279 17.5683H10.0172C10.2579 17.5683 10.4531 17.3731 10.4531 17.1323V6.16332H12.1264C12.9031 6.16332 13.2921 5.22419 12.7429 4.67491L9.61651 1.54853C9.276 1.20803 8.72396 1.20803 8.38349 1.54853L5.25711 4.67491C4.70786 5.22416 5.09687 6.16332 5.87364 6.16332H7.54685Z" fill="#F0F3F5"/>
<path d="M20.4532 12.8436V1.38605C20.4532 1.13458 20.258 0.930695 20.0172 0.930695H17.9828C17.7421 0.930695 17.5469 1.13458 17.5469 1.38605V12.8436H15.8736C15.0969 12.8436 14.7079 13.8246 15.2571 14.3983L18.3835 17.6639C18.724 18.0196 19.276 18.0196 19.6165 17.6639L22.7429 14.3983C23.2921 13.8246 22.9031 12.8436 22.1264 12.8436H20.4532Z" fill="#F0F3F5"/>
</svg>
