<svg width="112" height="104" viewBox="0 0 112 104" fill="none" xmlns="http://www.w3.org/2000/svg">
<path d="M26.4365 73.9722C26.3163 73.9722 26.1933 73.9407 26.0817 73.8778C25.7383 73.6803 25.6209 73.2454 25.8155 72.902L32.6549 60.9659C32.8524 60.6225 33.2873 60.5052 33.6307 60.6998C33.9741 60.8973 34.0915 61.3322 33.8969 61.6756L27.0575 73.6117C26.9258 73.8435 26.6855 73.9722 26.4365 73.9722Z" fill="#4AB69F"/>
<path d="M38.2406 68.6065C38.1433 68.6065 38.046 68.5865 37.9516 68.5464C37.591 68.3862 37.4279 67.9655 37.5853 67.6021L40.6702 60.6282C40.8305 60.2676 41.254 60.1045 41.6145 60.2648C41.9751 60.425 42.1382 60.8457 41.9808 61.2091L38.896 68.183C38.7758 68.4463 38.5154 68.6065 38.2406 68.6065Z" fill="#4AB69F"/>
<path d="M47.3607 65.2528C47.3034 65.2528 47.249 65.2471 47.1918 65.2328C46.8083 65.1383 46.5708 64.752 46.6653 64.3686L47.7384 59.9416C47.8328 59.5581 48.2191 59.3206 48.6026 59.415C48.9861 59.5094 49.2236 59.8958 49.1291 60.2792L48.056 64.7062C47.9759 65.0325 47.684 65.2528 47.3607 65.2528Z" fill="#4AB69F"/>
<path d="M55.1876 64.4485C55.1561 64.4485 55.1246 64.4456 55.0931 64.4428C54.7011 64.3913 54.4264 64.0307 54.4779 63.6387L54.8356 60.9573C54.8871 60.5652 55.2477 60.2876 55.6397 60.342C56.0318 60.3935 56.3065 60.7541 56.255 61.1461L55.8973 63.8275C55.8458 64.1881 55.5396 64.4485 55.1876 64.4485Z" fill="#4AB69F"/>
<path d="M59.4602 30.7125C57.4256 29.4505 54.9245 30.2632 53.8742 32.0374C54.1432 31.9401 54.4294 31.8944 54.7184 31.9316C56.4183 32.1262 55.72 33.1449 54.7127 33.763C54.3149 34.0091 53.8628 34.2095 53.3906 34.2209C53.4107 34.4384 53.4479 34.6645 53.508 34.8905C54.0316 37.3287 57.0936 38.6221 59.2256 37.3544C61.8612 35.9665 62.0615 32.2549 59.4602 30.7125Z" fill="#4AB69F"/>
<path d="M59.3885 23.873L61.4088 24.6285L60.5274 27.058L58.5586 26.5715C58.5586 26.5715 59.3885 30.5121 61.1484 30.7267C62.9083 30.9413 64.1531 28.0281 62.6508 24.8431C61.1484 21.6581 59.44 22.1445 59.3885 23.873Z" fill="#4AB69F"/>
<path d="M61.6242 32.2291C61.2779 32.2291 60.9231 32.1891 60.5625 32.1032C57.3689 31.3363 56.7708 27.5102 56.7107 27.0753C56.6334 26.4943 56.4846 24.454 57.821 22.5853C58.2388 22.0015 59.3463 20.4562 61.1663 20.3217C62.7345 20.2044 64.2884 21.2117 65.5304 23.1519C66.675 24.9433 67.3933 27.6247 65.9739 29.7881C65.144 31.0587 63.5043 32.2291 61.6242 32.2291ZM58.4048 23.0031L58.9857 23.4209C57.9555 24.8603 58.07 26.44 58.1301 26.8892C58.1759 27.2241 58.6309 30.1716 60.8973 30.7153C62.4626 31.0902 64.0366 30.1401 64.7835 29.0069C66.1313 26.9551 64.6432 24.4168 64.3313 23.9274C63.387 22.4479 62.2996 21.6781 61.2751 21.7525C60.1247 21.8384 59.3291 22.9487 58.9886 23.4209L58.4048 23.0031Z" fill="#021D30"/>
<path d="M75.1191 24.0789C75.1191 24.0789 75.3509 25.3238 75.8317 26.4312C76.7989 26.0335 77.8348 25.8103 78.8793 25.8103C78.9709 25.8103 79.0597 25.8131 79.1512 25.816C79.2714 24.8401 79.1341 23.644 78.6161 22.4049C77.3312 19.3228 75.8718 19.7922 75.826 21.4634L77.5516 22.196L76.7989 24.5454L75.1191 24.0789Z" fill="#4AB69F"/>
<path d="M74.5243 26.7803C74.2295 26.7803 73.952 26.5972 73.8489 26.3024C73.5599 25.4782 73.4598 24.7628 73.4369 24.5625C73.3711 24.0045 73.2451 22.0442 74.3841 20.2442C74.7475 19.669 75.7119 18.1438 77.3373 18.0093C78.7481 17.8891 80.1131 18.8821 81.192 20.7937C81.5039 21.346 82.4998 23.3148 82.185 25.4096C82.1249 25.8016 81.7615 26.0677 81.3723 26.0105C80.9802 25.9504 80.7141 25.587 80.7713 25.1949C81.0203 23.5523 80.2047 21.9498 79.9472 21.4977C79.1688 20.1212 78.2559 19.3686 77.4575 19.4344C76.5418 19.5117 75.8779 20.559 75.5945 21.0083C74.7074 22.4105 74.8076 23.953 74.8591 24.3937C74.8734 24.5081 74.9535 25.1234 75.2025 25.8274C75.3341 26.1994 75.1367 26.6086 74.7647 26.7402C74.6845 26.766 74.6044 26.7803 74.5243 26.7803Z" fill="#021D30"/>
<path d="M65.6978 36.9853C63.2196 36.9853 60.6212 36.6476 58.0028 35.7977C57.6279 35.6747 57.4219 35.274 57.5421 34.8963C57.6623 34.5214 58.0686 34.3125 58.4435 34.4356C70.5398 38.3532 82.6103 30.5294 82.7334 30.4492C83.1684 30.1774 84.2615 29.2989 84.2758 28.3974C84.2844 27.8423 83.8695 27.2785 83.0396 26.7233C80.2895 24.8804 70.5169 28.1828 66.9856 29.6079C66.6193 29.7567 66.2015 29.5793 66.0556 29.213C65.9067 28.8467 66.0842 28.4289 66.4505 28.283C67.8212 27.7278 79.969 22.9402 83.838 25.5358C85.0971 26.3799 85.7267 27.3529 85.7067 28.426C85.6723 30.2632 83.7235 31.5195 83.5032 31.654C83.1082 31.9201 75.2873 36.9853 65.6978 36.9853Z" fill="#021D30"/>
<path d="M68.6578 39.2172C67.9395 39.2172 67.1811 39.14 66.4085 38.9396C66.1023 38.8624 65.8848 38.5905 65.8705 38.2757L65.8247 37.1568C65.8104 36.7619 66.1166 36.43 66.5115 36.4128C66.9007 36.3956 67.2384 36.7047 67.2555 37.0996L67.2785 37.6633C69.4018 38.0411 71.4021 37.4115 72.2606 37.0767L72.1776 36.2125C72.1404 35.8204 72.4266 35.4684 72.8215 35.4312C73.2164 35.394 73.5655 35.6802 73.6027 36.0751L73.7372 37.4602C73.7658 37.7549 73.6085 38.0354 73.3452 38.1699C73.2364 38.2271 71.2161 39.2172 68.6578 39.2172Z" fill="#021D30"/>
<path d="M77.1279 37.2686C77.0621 37.2686 77.0049 37.2629 76.9534 37.2543C76.6472 37.1942 76.4182 36.9424 76.3839 36.6304L76.2494 35.4228C76.2065 35.0308 76.4898 34.6759 76.8818 34.633C77.2739 34.5901 77.6287 34.8734 77.6717 35.2654L77.7175 35.6804C78.3699 35.4257 79.4202 34.9049 80.3674 34.384L80.4017 32.7815C80.4103 32.3923 80.7279 32.0833 81.1171 32.0833C81.1228 32.0833 81.1286 32.0833 81.1343 32.0833C81.5292 32.0918 81.8411 32.4181 81.8325 32.8158L81.7867 34.8276C81.781 35.0794 81.6437 35.3084 81.4262 35.4343C79.2742 36.6505 77.829 37.2686 77.1279 37.2686Z" fill="#021D30"/>
<path d="M56.6046 14.9962C55.8376 15.5828 54.1292 17.2655 54.8303 18.9138C55.5315 20.565 58.871 18.9596 59.9871 18.2957C60.8857 17.7634 62.7514 16.3984 61.6382 14.4582C60.5222 12.5208 57.6691 14.1835 56.6046 14.9962Z" fill="#021D30"/>
<path d="M74.2209 15.4341C74.075 15.2395 73.9061 15.0592 73.7831 14.8475C73.7115 14.7073 73.6657 14.5556 73.6028 14.4125C73.5341 14.2122 73.4568 14.0147 73.4454 13.803C73.4053 13.1849 73.7716 12.5467 74.364 12.3264C74.9735 12.0745 75.6546 12.1146 76.287 12.2348C76.7163 12.2977 77.1283 12.438 77.5318 12.5868C78.0613 12.7642 78.5392 13.0618 78.997 13.3766C79.5093 13.6742 79.7954 14.2408 79.9128 14.8074C80.0501 15.3998 79.9271 16.0895 79.4778 16.5216C78.8253 17.134 77.4117 16.9594 76.6018 16.7705C76.0066 16.6532 75.4543 16.3899 74.9535 16.0551C74.6873 15.8748 74.4212 15.6888 74.2209 15.4341Z" fill="#021D30"/>
<path d="M73.2481 26.0879C72.9819 26.0879 72.7272 25.9391 72.6042 25.6816C72.1749 24.7887 71.2649 22.0129 71.4595 20.6937C71.926 17.5373 75.0967 17.0164 78.4534 16.9249C80.2506 16.8762 81.6356 17.337 82.5657 18.2985C83.7017 19.4718 84.1511 21.2946 83.9851 24.039C83.9622 24.4339 83.6159 24.7344 83.2267 24.7115C82.8318 24.6886 82.5313 24.348 82.5571 23.9531C82.6945 21.6695 82.3596 20.1443 81.5355 19.2943C80.8859 18.6247 79.8957 18.3156 78.4906 18.3557C74.1237 18.4759 73.0878 19.4632 72.8732 20.9055C72.7558 21.6953 73.4312 24.1105 73.892 25.0635C74.0637 25.4183 73.9148 25.8476 73.5571 26.0193C73.4598 26.0651 73.354 26.0879 73.2481 26.0879Z" fill="#021D30"/>
<path d="M60.1584 32.4749C57.3683 32.4749 53.5479 31.3503 51.7479 25.7786C51.6936 25.6041 50.4974 21.5491 57.8662 19.048C64.2019 16.896 66.497 16.3666 68.5545 20.599C69.6877 22.9284 69.7106 25.5354 68.6203 27.7532C67.4871 30.054 65.2779 31.6508 62.3962 32.246C61.8153 32.3633 61.0369 32.4749 60.1584 32.4749ZM64.4251 18.8505C63.2089 18.8505 61.3746 19.3656 58.324 20.4016C52.3689 22.4248 53.1015 25.3122 53.1101 25.3408C55.0503 31.3417 59.5774 31.3618 62.1043 30.8409C64.5424 30.3373 66.3997 29.0152 67.3354 27.1179C68.2283 25.3007 68.2054 23.1516 67.2668 21.2229C66.497 19.6432 65.9333 18.8505 64.4251 18.8505Z" fill="#021D30"/>
<path d="M69.4585 26.3225C69.2782 26.3225 69.0951 26.2538 68.9577 26.1165C68.6773 25.8389 68.6716 25.3867 68.9491 25.1034C70.8665 23.1546 72.6121 23.6812 73.2674 24.2306C73.5707 24.4853 73.6108 24.9346 73.3561 25.2379C73.1043 25.5384 72.6607 25.5785 72.3603 25.3352C72.2544 25.258 71.3787 24.677 69.9707 26.105C69.8277 26.251 69.6445 26.3225 69.4585 26.3225Z" fill="#021D30"/>
<path d="M71.4354 30.8097C71.8761 30.8269 72.0764 30.4663 72.5371 30.6352C72.809 30.6924 73.0436 30.4635 73.1123 30.2174C73.1839 29.9026 72.9664 29.5706 72.7231 29.3875C72.2824 29.1299 71.69 29.0584 71.2579 29.3703C70.7714 29.6536 70.4481 30.143 70.9775 30.5751C71.1063 30.6867 71.2494 30.8126 71.4354 30.8097Z" fill="#021D30"/>
<path d="M76.9721 29.6277C77.038 29.602 77.1066 29.5791 77.1782 29.5733C77.3041 29.5877 77.4186 29.6449 77.5445 29.6563C77.7849 29.7107 78.0367 29.6535 78.2313 29.5018C78.4058 29.3444 78.5174 29.0897 78.5031 28.8579C78.5317 28.5689 78.3686 28.2627 78.091 28.1568C77.5187 27.9393 76.8033 28.174 76.4799 28.6977C76.3712 28.878 76.2395 29.0382 76.2939 29.2643C76.3311 29.4703 76.4542 29.7107 76.6888 29.7307C76.7861 29.7307 76.8806 29.6706 76.9721 29.6277Z" fill="#021D30"/>
<path d="M81.2951 15.7601C80.946 15.7601 80.6398 15.5054 80.5883 15.1477C80.5339 14.79 79.1717 6.39386 69.1187 4.88576C63.298 4.01295 57.775 5.5697 52.4323 7.07494C48.6635 8.13662 45.0778 9.14679 41.7411 9.14965C42.4708 10.3487 43.8845 12.163 45.8104 12.3175C46.2053 12.349 46.4972 12.6953 46.4657 13.0873C46.4342 13.4822 46.0851 13.7741 45.6959 13.7426C41.9557 13.4422 39.9468 8.86062 39.8638 8.66603C39.7636 8.43423 39.7951 8.17096 39.9411 7.96492C40.087 7.76174 40.3245 7.64728 40.5821 7.67017C44.0218 7.95634 47.9194 6.85745 52.046 5.69562C57.2771 4.22185 63.2065 2.55064 69.3333 3.46923C75.1339 4.33918 78.2732 7.40117 79.8814 9.81642C81.627 12.4349 81.9905 14.8387 82.0048 14.9388C82.062 15.3309 81.7902 15.6914 81.3981 15.7487C81.3638 15.7573 81.3294 15.7601 81.2951 15.7601Z" fill="#021D30"/>
<path d="M40.8251 25.879C40.0667 25.879 39.5545 25.8218 39.5001 25.816C39.2512 25.7874 39.0365 25.6329 38.9335 25.404C38.8276 25.1779 38.8505 24.9117 38.9879 24.7057L45.8273 14.5124C46.0476 14.1833 46.4941 14.0975 46.8203 14.3178C47.1494 14.5382 47.2352 14.9817 47.0149 15.3108L40.8852 24.4453C42.0556 24.4396 43.8527 24.2879 45.2836 23.5324C45.6327 23.3493 46.0648 23.4838 46.2508 23.8329C46.434 24.182 46.2995 24.6141 45.9503 24.8001C44.2276 25.7073 42.15 25.879 40.8251 25.879Z" fill="#021D30"/>
<path d="M42.9337 39.5008C42.6418 39.5008 42.3757 39.3233 42.2669 39.0458C42.1496 38.7424 42.2469 38.399 42.5102 38.2073C43.2284 37.6807 44.3617 33.6315 44.6335 26.2856C44.6478 25.8906 44.9798 25.5787 45.3747 25.5959C45.7696 25.6102 46.0787 25.9422 46.0644 26.3371C46.0071 27.8795 45.6952 34.4757 44.4074 37.7408C45.575 37.4146 47.189 36.7993 48.5111 35.689C48.8144 35.4343 49.2637 35.4744 49.5184 35.7749C49.7731 36.0782 49.733 36.5275 49.4326 36.7822C46.7512 39.04 43.1683 39.4779 43.0167 39.495C42.9909 39.5008 42.9623 39.5008 42.9337 39.5008Z" fill="#021D30"/>
<path d="M49.2414 41.3779C49.2013 41.3779 49.1641 41.375 49.1241 41.3693C48.7349 41.3035 48.4716 40.9343 48.5374 40.5451L49.0754 37.3257C49.1412 36.9365 49.5075 36.6733 49.8996 36.7391C50.2888 36.8049 50.552 37.1741 50.4862 37.5632L49.9482 40.7826C49.8853 41.1318 49.5848 41.3779 49.2414 41.3779Z" fill="#021D30"/>
<path d="M67.4809 46.5261C57.5738 46.5261 51.6502 39.8356 51.3783 39.5236C51.1208 39.226 51.1522 38.7739 51.4498 38.5135C51.7475 38.2559 52.1996 38.2874 52.46 38.585C52.5287 38.6623 59.3395 46.323 70.2024 44.9179C81.609 43.4413 84.2589 34.9507 83.9356 32.0261C83.8926 31.634 84.1759 31.2792 84.568 31.2362C84.96 31.1933 85.3149 31.4766 85.3578 31.8687C85.8357 36.1755 81.9353 44.8435 70.3884 46.3373C69.384 46.4661 68.4167 46.5261 67.4809 46.5261Z" fill="#021D30"/>
<path d="M74.4404 41.2979C74.3288 41.2979 74.2143 41.295 74.097 41.2864C73.7021 41.2607 73.4045 40.9201 73.4303 40.5252C73.456 40.1303 73.7994 39.8298 74.1914 39.8585C76.4894 40.0073 77.78 38.0384 77.8344 37.9526C78.0461 37.6206 78.4897 37.5233 78.8216 37.7322C79.1536 37.944 79.2538 38.3818 79.0449 38.7166C78.9705 38.8282 77.3794 41.2979 74.4404 41.2979Z" fill="#021D30"/>
<path d="M86.7936 53.6802C86.4215 53.6802 86.1068 53.3911 86.081 53.0134C85.8692 49.8541 90.1789 43.5871 94.231 37.9582C94.9207 37.0024 95.4644 36.2469 95.762 35.789C96.0282 35.3798 96.2743 35.0135 96.4975 34.6787C97.5878 33.0475 97.9541 32.4523 97.7366 31.8342C96.9754 29.6679 91.0031 26.4628 89.7354 26.5744C88.811 26.6546 87.3916 27.8765 86.7134 28.6291C86.4501 28.921 85.998 28.9468 85.7033 28.6806C85.4085 28.4173 85.3856 27.9652 85.6489 27.6704C85.8664 27.4301 87.8237 25.3067 89.6094 25.1493C91.4066 24.9805 98.1029 28.5604 99.0873 31.3591C99.5537 32.6841 98.8498 33.7343 97.688 35.4742C97.4676 35.8033 97.2272 36.1639 96.964 36.5674C96.6492 37.0539 96.094 37.8208 95.3958 38.7938C92.7745 42.4338 87.3172 50.0058 87.5118 52.9161C87.5376 53.311 87.24 53.6516 86.8451 53.6773C86.8251 53.6802 86.8107 53.6802 86.7936 53.6802Z" fill="#021D30"/>
<path d="M95.9384 36.0009C95.9184 36.0009 95.8984 36.0009 95.8755 35.998C90.8905 35.5688 87.3305 29.0556 87.1817 28.778C86.9957 28.4289 87.1245 27.9968 87.4736 27.8108C87.8199 27.6219 88.2549 27.7535 88.4437 28.0998C88.4781 28.1599 91.7862 34.2095 96.0014 34.5729C96.3963 34.6072 96.6882 34.9535 96.6539 35.3455C96.6167 35.7204 96.3047 36.0009 95.9384 36.0009Z" fill="#021D30"/>
<path d="M68.9711 69.6999C67.2713 69.6999 65.2281 68.3892 64.9791 68.2261C64.7244 68.0573 58.7349 64.0424 52.9629 56.5248C52.7226 56.21 52.7826 55.7636 53.0946 55.5203C53.4065 55.2799 53.8558 55.34 54.0961 55.652C59.7165 62.9721 65.7088 66.9928 65.7689 67.0328C66.6103 67.5851 68.2958 68.4064 69.2087 68.2519C70.4678 68.0373 75.4299 63.4243 75.6159 61.1349C75.6703 60.4796 75.1638 59.996 73.6957 58.6968C73.3953 58.4306 73.0633 58.1387 72.7056 57.8096C72.3021 57.4405 71.5838 56.8481 70.6767 56.0984C68.27 54.1124 64.6357 51.1105 62.0631 48.3461C61.7941 48.0571 61.8112 47.6049 62.1002 47.3359C62.3893 47.0669 62.8414 47.0841 63.1104 47.3731C65.6201 50.0688 69.2115 53.0335 71.5867 54.9966C72.511 55.7578 73.2407 56.3616 73.67 56.7537C74.0248 57.0771 74.3511 57.3661 74.6458 57.6294C76.2112 59.0173 77.1584 59.8557 77.0439 61.2551C76.8035 64.2141 71.229 69.3622 69.4519 69.6656C69.2945 69.6884 69.1342 69.6999 68.9711 69.6999Z" fill="#021D30"/>
<path d="M66.8792 67.6482C66.822 67.6482 66.7676 67.6424 66.7104 67.6281C66.3269 67.5337 66.0894 67.1474 66.1838 66.7639C66.2582 66.4577 68.0496 59.2549 72.7628 57.5751C73.1348 57.4435 73.544 57.638 73.6757 58.0101C73.8073 58.3821 73.6127 58.7913 73.2407 58.9229C69.2572 60.3423 67.5889 67.0329 67.5717 67.0987C67.4945 67.4278 67.2026 67.6482 66.8792 67.6482Z" fill="#021D30"/>
<path d="M46.1558 57.2058C46.1215 57.2058 46.0872 57.203 46.05 57.1973C45.6579 57.14 45.3889 56.7766 45.4462 56.3845C46.1244 51.7687 50.1679 43.3868 50.3396 43.032C50.5113 42.6771 50.9377 42.5283 51.2954 42.7C51.6503 42.8717 51.7991 43.301 51.6274 43.6558C51.5873 43.7417 47.5094 52.195 46.8627 56.5934C46.8083 56.9511 46.505 57.2058 46.1558 57.2058Z" fill="#021D30"/>
<path d="M39.3101 52.4384C37.8965 52.4384 36.7776 51.9404 35.7931 50.9617C34.9547 50.1319 34.9547 49.3106 35.1006 48.7668C35.9906 45.4673 45.6001 42.8174 47.5174 42.3195C47.9009 42.2222 48.2901 42.4511 48.3902 42.8317C48.4904 43.2152 48.2586 43.6044 47.878 43.7045C43.4453 44.8578 36.9779 47.3045 36.4828 49.1417C36.4513 49.2591 36.3769 49.5309 36.8005 49.9487C38.2943 51.4282 40.4119 51.6886 46.347 48.4206C46.6933 48.2317 47.1282 48.3548 47.32 48.701C47.5117 49.0473 47.3829 49.4823 47.0395 49.674C43.6599 51.5312 41.216 52.4384 39.3101 52.4384Z" fill="#021D30"/>
<path d="M72.9843 49.2162C70.695 49.2162 66.806 47.9456 66.3166 47.7796C65.9418 47.6537 65.7385 47.2502 65.8645 46.8754C65.9904 46.5005 66.3939 46.2973 66.7688 46.4232C68.7204 47.0728 72.2746 48.0057 73.5023 47.7424C74.6727 47.4906 76.7388 45.1469 77.7662 43.7304C77.998 43.4099 78.4444 43.3383 78.7649 43.5701C79.0854 43.8019 79.1569 44.2483 78.9251 44.5689C78.6218 44.9895 75.886 48.6925 73.7999 49.1418C73.5652 49.1933 73.2876 49.2162 72.9843 49.2162Z" fill="#021D30"/>
<path d="M77.1792 51.3394C75.2762 51.3394 74.4177 49.9486 74.3776 49.8828C74.1744 49.5451 74.2832 49.1044 74.6237 48.9013C74.9614 48.6981 75.4021 48.8068 75.6053 49.1474C75.6625 49.2361 76.2377 50.0717 77.5741 49.88C78.2666 49.7798 79.4056 46.3601 79.9178 42.8402C79.975 42.4482 80.3356 42.1792 80.7277 42.2364C81.1197 42.2937 81.3887 42.6571 81.3315 43.0463C81.32 43.1236 81.051 44.955 80.5445 46.8495C79.7747 49.7226 78.8962 51.1362 77.7744 51.2965C77.5655 51.328 77.3681 51.3394 77.1792 51.3394Z" fill="#021D30"/>
<path d="M69.6583 52.6787C69.3807 52.6787 69.1174 52.5156 69.0001 52.2437C68.8456 51.8803 69.0115 51.4596 69.375 51.3051C69.9301 51.0676 70.7314 50.0088 71.029 49.5337C71.2408 49.1989 71.6815 49.0988 72.0163 49.3105C72.3511 49.5223 72.4484 49.963 72.2395 50.2978C72.1193 50.4838 71.0491 52.1436 69.9387 52.6186C69.85 52.6615 69.7527 52.6787 69.6583 52.6787Z" fill="#021D30"/>
<path d="M80.8792 51.3539C80.4929 51.3539 80.1752 51.0448 80.1638 50.6556C80.1523 50.1949 79.6401 48.5637 79.2824 47.5507C79.1507 47.1787 79.3453 46.7695 79.7173 46.6378C80.0894 46.5062 80.4986 46.7008 80.6302 47.0728C80.7876 47.5164 81.5746 49.7685 81.5946 50.6213C81.6032 51.0162 81.2913 51.3453 80.8964 51.3539C80.8906 51.3539 80.8849 51.3539 80.8792 51.3539Z" fill="#021D30"/>
<path d="M81.3546 54.2955C81.0484 54.2955 80.7594 54.2268 80.4961 54.0923C79.835 53.7547 79.3972 53.0307 79.1941 51.9461C79.1425 51.6742 79.2541 51.3966 79.4774 51.2335C81.6608 49.6568 82.2245 49.7512 82.4363 49.7855C82.6624 49.8227 82.8599 49.9458 82.9858 50.1261C83.3721 50.6755 83.3406 52.2351 83.1317 53.0192C82.9915 53.5458 82.7568 53.8777 82.4106 54.0408C82.0529 54.2097 81.6951 54.2955 81.3546 54.2955ZM80.705 52.1207C80.8195 52.4841 80.974 52.7302 81.1457 52.8189C81.3203 52.9076 81.5578 52.8475 81.7094 52.7874C81.821 52.5385 81.8668 51.8974 81.8497 51.411C81.5349 51.5798 81.1228 51.8373 80.705 52.1207Z" fill="#021D30"/>
<path d="M73.7625 55.6862C73.4535 55.6862 73.1702 55.4859 73.0786 55.1769C72.9642 54.7991 73.1788 54.3985 73.5594 54.2869L75.2363 53.7832C75.6169 53.6688 76.0147 53.8834 76.1263 54.264C76.2408 54.6417 76.0261 55.0424 75.6455 55.154L73.9686 55.6576C73.8999 55.6748 73.8312 55.6862 73.7625 55.6862Z" fill="#021D30"/>
<path d="M76.0632 57.8755C75.7055 57.8755 75.3965 57.6094 75.3535 57.246C75.3077 56.8539 75.5882 56.4991 75.9802 56.4504L96.2323 54.0352C96.6272 53.9894 96.982 54.2698 97.0278 54.6619C97.0736 55.0539 96.7932 55.4088 96.4011 55.4574L76.1491 57.8727C76.1205 57.8755 76.0918 57.8755 76.0632 57.8755Z" fill="#021D30"/>
<path d="M1.08706 87.9202C0.860993 87.9202 0.640653 87.8114 0.506155 87.6197C0.331593 87.3765 0.328723 87.0474 0.497561 86.8013L17.2641 62.2567C17.3843 62.0793 17.576 61.9677 17.7906 61.9477L54.2741 58.5938C54.6661 58.5566 55.0153 58.8485 55.0525 59.2405C55.0897 59.6354 54.7978 59.9817 54.4058 60.0189L18.26 63.3413L2.7869 85.9943L64.8795 68.8099C65.2601 68.7041 65.655 68.9273 65.7608 69.3079C65.8667 69.6885 65.6435 70.0834 65.2629 70.1893L1.27881 87.8944C1.21585 87.9116 1.15002 87.9202 1.08706 87.9202Z" fill="#021D30"/>
<path d="M76.1977 66.8638C75.8887 66.8638 75.6054 66.6635 75.5109 66.3516C75.3993 65.9739 75.6139 65.5761 75.9945 65.4616L108.449 55.8493L90.8323 51.076C90.4517 50.973 90.2256 50.5809 90.3287 50.1975C90.4317 49.814 90.8266 49.5908 91.2072 49.6938L111.259 55.1253C111.568 55.2082 111.783 55.4887 111.788 55.8063C111.791 56.1268 111.582 56.4101 111.276 56.5017L76.4038 66.8295C76.3322 66.8524 76.2664 66.8638 76.1977 66.8638Z" fill="#021D30"/>
<path d="M34.3511 58.8141C34.0879 58.8141 33.8332 58.6682 33.7101 58.4163L20.5665 31.7913C20.4405 31.5395 20.4777 31.2362 20.6552 31.0187C20.8326 30.8012 21.1216 30.7096 21.3963 30.784L40.7584 36.0409C41.139 36.1439 41.3651 36.5388 41.2621 36.9195C41.1591 37.3001 40.7641 37.5261 40.3835 37.4231L22.5525 32.5812L34.995 57.781C35.1696 58.1359 35.0236 58.5651 34.6717 58.7397C34.5658 58.7912 34.457 58.8141 34.3511 58.8141Z" fill="#021D30"/>
<path d="M41.5248 103.614C41.4733 103.614 41.4247 103.608 41.3732 103.596C41.1786 103.553 41.0097 103.433 40.9096 103.262L28.032 81.5329C27.8317 81.1924 27.9433 80.7545 28.2839 80.5542C28.6244 80.3539 29.0622 80.4655 29.2626 80.806L41.7452 101.871L101.872 59.8615C102.195 59.6354 102.642 59.7155 102.868 60.0389C103.094 60.3622 103.014 60.8087 102.69 61.0347L41.9312 103.485C41.8139 103.568 41.6708 103.614 41.5248 103.614Z" fill="#021D30"/>
<path d="M88.2711 14.2866C88.0222 14.2866 87.7818 14.1578 87.6501 13.926C87.4555 13.5826 87.5729 13.1448 87.9163 12.9502C91.3675 10.9813 96.9534 7.00075 97.2367 4.69711C97.2825 4.31937 97.1766 4.03034 96.8933 3.75848C96.1207 3.01731 93.4479 4.54544 91.8167 5.93335C91.605 6.11364 91.3045 6.1537 91.0527 6.03923C90.8008 5.9219 90.6377 5.67008 90.6377 5.38963C90.6349 4.41094 90.3744 2.63098 89.6876 2.01286C89.4959 1.84116 89.2899 1.7782 89.018 1.80682C88.9837 1.80968 88.9436 1.8154 88.8807 1.90698C88.1767 2.95721 88.9722 7.31554 89.7592 10.0742C89.8679 10.4548 89.6476 10.8497 89.267 10.9584C88.8864 11.0672 88.4915 10.8468 88.3827 10.4662C88.0336 9.25003 86.3652 3.08599 87.6902 1.10857C87.9735 0.687906 88.377 0.436079 88.8577 0.381707C89.5274 0.307303 90.1455 0.501897 90.6406 0.942595C91.4619 1.67804 91.811 2.98869 91.9598 4.00172C93.5566 2.84847 96.3439 1.24307 97.8835 2.72256C98.4901 3.30347 98.7563 4.04751 98.6533 4.86881C98.4444 6.55433 96.7159 8.5804 93.3677 11.0672C90.9954 12.83 88.7175 14.132 88.6202 14.1864C88.5115 14.2551 88.3913 14.2866 88.2711 14.2866Z" fill="#4AB69F"/>
</svg>
