<svg width="106" height="98" viewBox="0 0 106 98" fill="none" xmlns="http://www.w3.org/2000/svg">
<path d="M24.9425 70.0297C24.8292 70.0297 24.7132 70.0001 24.608 69.9407C24.2842 69.7545 24.1736 69.3444 24.357 69.0206L30.8057 57.7664C30.9919 57.4426 31.402 57.332 31.7258 57.5155C32.0496 57.7017 32.1602 58.1118 31.9768 58.4356L25.528 69.6898C25.4039 69.9083 25.1773 70.0297 24.9425 70.0297Z" fill="#4AB69F"/>
<path d="M36.0728 64.9705C35.9811 64.9705 35.8893 64.9516 35.8003 64.9138C35.4603 64.7627 35.3065 64.3661 35.4549 64.0234L38.3636 57.4479C38.5147 57.1079 38.914 56.9541 39.254 57.1052C39.594 57.2563 39.7478 57.653 39.5994 57.9956L36.6907 64.5712C36.5774 64.8194 36.3319 64.9705 36.0728 64.9705Z" fill="#4AB69F"/>
<path d="M44.6713 61.8083C44.6173 61.8083 44.5661 61.8029 44.5121 61.7894C44.1505 61.7004 43.9266 61.3361 44.0156 60.9746L45.0275 56.8004C45.1165 56.4389 45.4808 56.2149 45.8423 56.304C46.2039 56.393 46.4278 56.7573 46.3388 57.1188L45.327 61.2929C45.2514 61.6005 44.9762 61.8083 44.6713 61.8083Z" fill="#4AB69F"/>
<path d="M52.051 61.05C52.0213 61.05 51.9916 61.0473 51.9619 61.0446C51.5923 60.996 51.3333 60.656 51.3818 60.2864L51.7191 57.7582C51.7677 57.3885 52.1076 57.1268 52.4773 57.178C52.8469 57.2266 53.106 57.5666 53.0574 57.9362L52.7201 60.4645C52.6716 60.8044 52.3829 61.05 52.051 61.05Z" fill="#4AB69F"/>
<path d="M56.0803 29.241C54.1619 28.0511 51.8036 28.8174 50.8134 30.4903C51.067 30.3986 51.3369 30.3554 51.6094 30.3905C53.2121 30.5739 52.5538 31.5345 51.604 32.1173C51.2289 32.3494 50.8026 32.5382 50.3574 32.549C50.3763 32.7541 50.4114 32.9672 50.4681 33.1804C50.9618 35.4793 53.8489 36.6989 55.8591 35.5036C58.3441 34.1949 58.533 30.6954 56.0803 29.241Z" fill="#4AB69F"/>
<path d="M56.0119 22.7923L57.9169 23.5046L57.0858 25.7954L55.2295 25.3367C55.2295 25.3367 56.012 29.0521 57.6713 29.2545C59.3307 29.4568 60.5045 26.71 59.0879 23.7069C57.6713 20.7039 56.0605 21.1625 56.0119 22.7923Z" fill="#4AB69F"/>
<path d="M58.1201 30.671C57.7936 30.671 57.459 30.6332 57.1191 30.5522C54.1079 29.8291 53.5439 26.2216 53.4873 25.8115C53.4144 25.2638 53.2741 23.3399 54.5342 21.578C54.9281 21.0276 55.9723 19.5706 57.6884 19.4437C59.167 19.3331 60.6321 20.2829 61.8031 22.1123C62.8824 23.8013 63.5597 26.3296 62.2213 28.3694C61.4389 29.5674 59.8928 30.671 58.1201 30.671ZM55.0846 21.972L55.6324 22.3659C54.661 23.7231 54.7689 25.2125 54.8256 25.6361C54.8688 25.9518 55.2978 28.731 57.4347 29.2436C58.9107 29.5971 60.3947 28.7013 61.0989 27.6328C62.3698 25.6982 60.9667 23.3049 60.6726 22.8435C59.7822 21.4485 58.7569 20.7227 57.7909 20.7928C56.7062 20.8738 55.9561 21.9207 55.6351 22.3659L55.0846 21.972Z" fill="#F0F3F5"/>
<path d="M70.8447 22.9864C70.8447 22.9864 71.0633 24.1601 71.5166 25.2043C72.4286 24.8293 73.4053 24.6188 74.3901 24.6188C74.4765 24.6188 74.5601 24.6215 74.6465 24.6242C74.7598 23.7041 74.6303 22.5763 74.1419 21.408C72.9304 18.502 71.5543 18.9445 71.5112 20.5203L73.1382 21.211L72.4286 23.4262L70.8447 22.9864Z" fill="#4AB69F"/>
<path d="M70.2831 25.5336C70.0052 25.5336 69.7435 25.3609 69.6463 25.083C69.3738 24.3059 69.2794 23.6314 69.2578 23.4425C69.1957 22.9163 69.077 21.0681 70.1509 19.3709C70.4936 18.8286 71.4029 17.3904 72.9355 17.2636C74.2657 17.1503 75.5527 18.0866 76.5699 19.889C76.864 20.4097 77.803 22.2661 77.5062 24.2412C77.4495 24.6108 77.1069 24.8617 76.7399 24.8078C76.3703 24.7511 76.1193 24.4084 76.1733 24.0388C76.408 22.49 75.6391 20.979 75.3962 20.5527C74.6623 19.2549 73.8016 18.5452 73.0488 18.6073C72.1853 18.6802 71.5594 19.6677 71.2922 20.0913C70.4558 21.4134 70.5502 22.8678 70.5988 23.2833C70.6123 23.3912 70.6878 23.9713 70.9226 24.6351C71.0467 24.9859 70.8605 25.3717 70.5097 25.4958C70.4342 25.5201 70.3587 25.5336 70.2831 25.5336Z" fill="#F0F3F5"/>
<path d="M61.9614 35.1554C59.6248 35.1554 57.1748 34.837 54.706 34.0357C54.3525 33.9197 54.1582 33.5419 54.2716 33.1857C54.3849 32.8323 54.768 32.6353 55.1215 32.7513C66.5268 36.4452 77.9078 29.0683 78.0239 28.9927C78.434 28.7364 79.4647 27.9081 79.4782 27.0581C79.4863 26.5347 79.095 26.0031 78.3125 25.4797C75.7196 23.742 66.5052 26.8558 63.1756 28.1995C62.8303 28.3398 62.4363 28.1725 62.2987 27.8271C62.1584 27.4817 62.3257 27.0878 62.6711 26.9502C63.9635 26.4267 75.4174 21.9127 79.0654 24.3599C80.2526 25.1559 80.8462 26.0733 80.8273 27.0851C80.7949 28.8174 78.9574 30.0019 78.7497 30.1287C78.3773 30.3796 71.0031 35.1554 61.9614 35.1554Z" fill="#F0F3F5"/>
<path d="M64.7518 37.26C64.0745 37.26 63.3595 37.1872 62.631 36.9983C62.3423 36.9255 62.1372 36.6691 62.1237 36.3723L62.0805 35.3173C62.067 34.945 62.3558 34.632 62.7281 34.6158C63.0951 34.5996 63.4134 34.891 63.4296 35.2634L63.4512 35.7949C65.4533 36.1511 67.3393 35.5575 68.1488 35.2418L68.0706 34.4269C68.0355 34.0573 68.3053 33.7254 68.6777 33.6903C69.05 33.6552 69.3792 33.9251 69.4143 34.2974L69.5411 35.6033C69.5681 35.8813 69.4197 36.1457 69.1714 36.2725C69.0689 36.3265 67.164 37.26 64.7518 37.26Z" fill="#F0F3F5"/>
<path d="M72.7386 35.4226C72.6766 35.4226 72.6226 35.4172 72.5741 35.4091C72.2853 35.3524 72.0695 35.115 72.0371 34.8209L71.9103 33.6822C71.8698 33.3126 72.1369 32.978 72.5066 32.9375C72.8763 32.8971 73.2108 33.1642 73.2513 33.5338L73.2945 33.9251C73.9097 33.685 74.8999 33.1939 75.793 32.7028L75.8254 31.1918C75.8335 30.8249 76.133 30.5334 76.4999 30.5334C76.5053 30.5334 76.5107 30.5334 76.5161 30.5334C76.8885 30.5415 77.1826 30.8491 77.1745 31.2242L77.1313 33.121C77.1259 33.3585 76.9964 33.5743 76.7913 33.693C74.7623 34.8398 73.3997 35.4226 72.7386 35.4226Z" fill="#F0F3F5"/>
<path d="M53.3873 14.4224C52.6642 14.9756 51.0534 16.5621 51.7145 18.1163C52.3755 19.6731 55.5243 18.1595 56.5766 17.5335C57.4239 17.0316 59.1831 15.7446 58.1335 13.9152C57.0812 12.0885 54.3911 13.6562 53.3873 14.4224Z" fill="#F0F3F5"/>
<path d="M69.9977 14.8353C69.8601 14.6519 69.7009 14.4819 69.5849 14.2822C69.5174 14.15 69.4743 14.007 69.4149 13.8721C69.3501 13.6832 69.2773 13.497 69.2665 13.2974C69.2287 12.7145 69.5741 12.1128 70.1326 11.9051C70.7073 11.6676 71.3495 11.7054 71.9458 11.8187C72.3505 11.8781 72.7391 12.0103 73.1195 12.1506C73.6187 12.3179 74.0693 12.5985 74.501 12.8953C74.984 13.1759 75.2538 13.7102 75.3644 14.2444C75.494 14.803 75.3779 15.4532 74.9543 15.8607C74.3391 16.4381 73.0062 16.2735 72.2426 16.0954C71.6814 15.9848 71.1606 15.7365 70.6884 15.4208C70.4375 15.2509 70.1866 15.0755 69.9977 14.8353Z" fill="#F0F3F5"/>
<path d="M69.0799 24.8807C68.829 24.8807 68.5888 24.7404 68.4728 24.4976C68.0681 23.6557 67.2101 21.0385 67.3935 19.7946C67.8333 16.8185 70.8229 16.3274 73.9879 16.2411C75.6824 16.1952 76.9883 16.6296 77.8652 17.5362C78.9364 18.6425 79.3601 20.3612 79.2036 22.9488C79.182 23.3212 78.8555 23.6045 78.4885 23.5829C78.1162 23.5613 77.8329 23.2402 77.8572 22.8679C77.9867 20.7147 77.671 19.2766 76.8939 18.4752C76.2814 17.8438 75.3478 17.5524 74.023 17.5902C69.9056 17.7035 68.9288 18.6344 68.7264 19.9943C68.6158 20.739 69.2526 23.0163 69.687 23.9148C69.8489 24.2493 69.7086 24.6541 69.3713 24.816C69.2796 24.8591 69.1797 24.8807 69.0799 24.8807Z" fill="#F0F3F5"/>
<path d="M56.7384 30.9029C54.1077 30.9029 50.5056 29.8425 48.8084 24.5891C48.7572 24.4245 47.6293 20.6012 54.5772 18.243C60.551 16.2139 62.715 15.7148 64.655 19.7054C65.7235 21.9017 65.745 24.3598 64.717 26.4509C63.6485 28.6203 61.5655 30.1259 58.8484 30.6871C58.3007 30.7977 57.5668 30.9029 56.7384 30.9029ZM60.7615 18.0568C59.6147 18.0568 57.8852 18.5425 55.0089 19.5192C49.3939 21.4268 50.0847 24.1493 50.0928 24.1763C51.9222 29.8344 56.1907 29.8533 58.5732 29.3623C60.8721 28.8874 62.6232 27.6408 63.5055 25.8519C64.3474 24.1385 64.3258 22.1122 63.4408 20.2936C62.715 18.8042 62.1834 18.0568 60.7615 18.0568Z" fill="#F0F3F5"/>
<path d="M65.5076 25.1019C65.3376 25.1019 65.1649 25.0371 65.0354 24.9076C64.771 24.6459 64.7655 24.2196 65.0273 23.9525C66.8351 22.115 68.481 22.6115 69.0989 23.1295C69.3849 23.3697 69.4227 23.7933 69.1825 24.0793C68.9451 24.3626 68.5269 24.4004 68.2435 24.171C68.1437 24.0982 67.318 23.5504 65.9905 24.8968C65.8556 25.0344 65.6829 25.1019 65.5076 25.1019Z" fill="#F0F3F5"/>
<path d="M67.3712 29.3327C67.7867 29.3489 67.9756 29.0089 68.41 29.1681C68.6663 29.222 68.8876 29.0062 68.9523 28.7741C69.0198 28.4773 68.8147 28.1644 68.5854 27.9917C68.1699 27.7488 67.6113 27.6814 67.2039 27.9755C66.7452 28.2426 66.4403 28.704 66.9395 29.1114C67.0609 29.2166 67.1958 29.3354 67.3712 29.3327Z" fill="#F0F3F5"/>
<path d="M72.5918 28.2183C72.6539 28.194 72.7187 28.1724 72.7861 28.167C72.9048 28.1805 73.0128 28.2345 73.1315 28.2453C73.3581 28.2965 73.5956 28.2426 73.7791 28.0996C73.9437 27.9512 74.0489 27.711 74.0354 27.4925C74.0624 27.2199 73.9085 26.9312 73.6468 26.8314C73.1072 26.6263 72.4326 26.8476 72.1277 27.3414C72.0252 27.5113 71.9011 27.6624 71.9524 27.8756C71.9875 28.0699 72.1035 28.2965 72.3247 28.3154C72.4165 28.3154 72.5055 28.2587 72.5918 28.2183Z" fill="#F0F3F5"/>
<path d="M76.6673 15.1429C76.3381 15.1429 76.0494 14.9027 76.0008 14.5654C75.9495 14.2282 74.6652 6.31165 65.1864 4.88969C59.6982 4.06674 54.4907 5.53456 49.4532 6.95382C45.8997 7.95485 42.5188 8.90732 39.3727 8.91001C40.0607 10.0406 41.3936 11.7512 43.2095 11.8969C43.5819 11.9266 43.8571 12.2531 43.8274 12.6227C43.7978 12.9951 43.4686 13.2703 43.1016 13.2406C39.5751 12.9573 37.6809 8.6375 37.6027 8.45402C37.5082 8.23546 37.5379 7.98723 37.6755 7.79296C37.8131 7.60139 38.0371 7.49346 38.2799 7.51504C41.5232 7.78486 45.1981 6.74875 49.0889 5.65328C54.0212 4.26371 59.6119 2.68796 65.3888 3.55408C70.858 4.37434 73.8179 7.26141 75.3343 9.5387C76.9802 12.0076 77.3229 14.274 77.3364 14.3685C77.3904 14.7381 77.134 15.0781 76.7644 15.1321C76.732 15.1402 76.6996 15.1429 76.6673 15.1429Z" fill="#F0F3F5"/>
<path d="M38.5091 24.6838C37.7941 24.6838 37.3111 24.6298 37.2599 24.6244C37.0251 24.5974 36.8228 24.4517 36.7256 24.2359C36.6258 24.0227 36.6474 23.7718 36.7769 23.5775L43.2256 13.9665C43.4333 13.6562 43.8543 13.5753 44.1619 13.783C44.4722 13.9908 44.5531 14.409 44.3453 14.7193L38.5658 23.332C39.6694 23.3266 41.3638 23.1836 42.7129 22.4712C43.0421 22.2986 43.4496 22.4254 43.6249 22.7546C43.7976 23.0837 43.6708 23.4912 43.3416 23.6666C41.7173 24.5219 39.7584 24.6838 38.5091 24.6838Z" fill="#F0F3F5"/>
<path d="M40.4973 37.5272C40.2221 37.5272 39.9711 37.3599 39.8686 37.0982C39.758 36.8122 39.8497 36.4884 40.0979 36.3076C40.7752 35.8112 41.8437 31.9932 42.1 25.0669C42.1135 24.6946 42.4265 24.4005 42.7989 24.4167C43.1712 24.4301 43.4626 24.7431 43.4491 25.1155C43.3952 26.5698 43.101 32.7892 41.8869 35.8678C42.9877 35.5602 44.5095 34.9801 45.7561 33.9332C46.0421 33.6931 46.4657 33.7308 46.7058 34.0142C46.946 34.3002 46.9082 34.7238 46.6249 34.9639C44.0967 37.0928 40.7185 37.5056 40.5755 37.5218C40.5513 37.5272 40.5243 37.5272 40.4973 37.5272Z" fill="#F0F3F5"/>
<path d="M46.4447 39.2971C46.407 39.2971 46.3719 39.2944 46.3341 39.289C45.9672 39.227 45.7189 38.8789 45.781 38.5119L46.2883 35.4765C46.3503 35.1095 46.6957 34.8613 47.0653 34.9233C47.4323 34.9854 47.6805 35.3335 47.6185 35.7004L47.1112 38.7359C47.0518 39.0651 46.7685 39.2971 46.4447 39.2971Z" fill="#F0F3F5"/>
<path d="M63.6429 44.1513C54.3018 44.1513 48.7165 37.8429 48.4602 37.5488C48.2173 37.2682 48.247 36.8418 48.5276 36.5963C48.8082 36.3535 49.2345 36.3831 49.4801 36.6638C49.5448 36.7366 55.9666 43.9597 66.2089 42.6349C76.964 41.2426 79.4625 33.237 79.1576 30.4795C79.1171 30.1098 79.3842 29.7752 79.7539 29.7348C80.1236 29.6943 80.4581 29.9614 80.4986 30.3311C80.9492 34.3919 77.2716 42.5647 66.3843 43.9732C65.4373 44.0946 64.5253 44.1513 63.6429 44.1513Z" fill="#F0F3F5"/>
<path d="M70.2049 39.2217C70.0997 39.2217 69.9917 39.219 69.8811 39.2109C69.5088 39.1866 69.2282 38.8655 69.2524 38.4932C69.2767 38.1208 69.6005 37.8375 69.9701 37.8645C72.1368 38.0048 73.3537 36.1484 73.405 36.0675C73.6046 35.7545 74.0229 35.6628 74.3358 35.8597C74.6488 36.0594 74.7433 36.4722 74.5463 36.7879C74.4762 36.8931 72.976 39.2217 70.2049 39.2217Z" fill="#F0F3F5"/>
<path d="M81.8525 50.8967C81.5017 50.8967 81.2049 50.6242 81.1806 50.2681C80.981 47.2892 85.0444 41.3802 88.8651 36.0728C89.5154 35.1716 90.028 34.4593 90.3086 34.0276C90.5596 33.6417 90.7916 33.2964 91.0021 32.9807C92.0301 31.4427 92.3755 30.8815 92.1704 30.2987C91.4527 28.2561 85.8215 25.2341 84.6262 25.3394C83.7547 25.4149 82.4164 26.567 81.7769 27.2767C81.5287 27.5519 81.1024 27.5762 80.8245 27.3252C80.5466 27.077 80.525 26.6507 80.7732 26.3728C80.9783 26.1461 82.8238 24.1441 84.5075 23.9957C86.202 23.8365 92.5158 27.2119 93.4439 29.8508C93.8838 31.1 93.22 32.0903 92.1246 33.7308C91.9168 34.0411 91.6901 34.381 91.4419 34.7615C91.1451 35.2202 90.6217 35.9433 89.9633 36.8607C87.4917 40.2928 82.3463 47.4323 82.5297 50.1763C82.554 50.5487 82.2734 50.8698 81.9011 50.894C81.8822 50.8967 81.8687 50.8967 81.8525 50.8967Z" fill="#F0F3F5"/>
<path d="M90.4754 34.2273C90.4565 34.2273 90.4376 34.2273 90.416 34.2246C85.7157 33.8199 82.3592 27.6788 82.2189 27.417C82.0435 27.0879 82.1649 26.6804 82.4941 26.5051C82.8206 26.327 83.2307 26.4511 83.4088 26.7776C83.4412 26.8342 86.5603 32.5382 90.5347 32.8809C90.9071 32.9133 91.1823 33.2398 91.1499 33.6094C91.1148 33.9629 90.8207 34.2273 90.4754 34.2273Z" fill="#F0F3F5"/>
<path d="M65.0482 66.0013C63.4455 66.0013 61.519 64.7655 61.2843 64.6117C61.0441 64.4525 55.3968 60.667 49.9545 53.5788C49.7279 53.282 49.7845 52.8611 50.0786 52.6317C50.3727 52.4051 50.7963 52.4617 51.023 52.7558C56.3223 59.6578 61.9723 63.4488 62.029 63.4866C62.8222 64.0073 64.4115 64.7817 65.2722 64.636C66.4594 64.4337 71.1381 60.0842 71.3135 57.9256C71.3648 57.3077 70.8872 56.8517 69.503 55.6267C69.2197 55.3758 68.9067 55.1006 68.5694 54.7903C68.189 54.4422 67.5117 53.8837 66.6564 53.1768C64.3872 51.3042 60.9605 48.4738 58.5348 45.8673C58.2812 45.5948 58.2973 45.1685 58.5699 44.9149C58.8424 44.6612 59.2687 44.6774 59.5223 44.9499C61.8887 47.4916 65.2749 50.287 67.5144 52.1379C68.3859 52.8557 69.074 53.425 69.4787 53.7946C69.8133 54.0995 70.1209 54.3721 70.3988 54.6203C71.8747 55.9289 72.7678 56.7195 72.6599 58.0389C72.4332 60.8289 67.1771 65.6829 65.5016 65.9689C65.3532 65.9905 65.202 66.0013 65.0482 66.0013Z" fill="#F0F3F5"/>
<path d="M63.0756 64.0667C63.0216 64.0667 62.9704 64.0613 62.9164 64.0479C62.5549 63.9588 62.3309 63.5946 62.4199 63.233C62.4901 62.9443 64.1792 56.1529 68.6231 54.5691C68.9739 54.445 69.3597 54.6284 69.4838 54.9792C69.608 55.33 69.4245 55.7158 69.0737 55.8399C65.3178 57.1782 63.7448 63.4866 63.7286 63.5487C63.6557 63.859 63.3805 64.0667 63.0756 64.0667Z" fill="#F0F3F5"/>
<path d="M43.5358 54.221C43.5034 54.221 43.471 54.2183 43.4359 54.2129C43.0663 54.159 42.8126 53.8163 42.8666 53.4466C43.5061 49.0944 47.3186 41.1914 47.4805 40.8568C47.6424 40.5223 48.0445 40.382 48.3818 40.5438C48.7163 40.7057 48.8566 41.1105 48.6947 41.445C48.6569 41.526 44.812 49.4965 44.2022 53.6436C44.1509 53.9809 43.8649 54.221 43.5358 54.221Z" fill="#F0F3F5"/>
<path d="M37.0811 49.7258C35.7482 49.7258 34.6932 49.2563 33.765 48.3335C32.9745 47.551 32.9745 46.7766 33.1121 46.264C33.9512 43.1529 43.0118 40.6544 44.8196 40.1849C45.1811 40.0932 45.5481 40.309 45.6425 40.6679C45.737 41.0295 45.5184 41.3964 45.1595 41.4908C40.98 42.5782 34.8821 44.8852 34.4153 46.6174C34.3856 46.7281 34.3155 46.9844 34.7148 47.3783C36.1233 48.7733 38.1199 49.0188 43.716 45.9375C44.0425 45.7594 44.4526 45.8754 44.6334 46.2019C44.8142 46.5284 44.6928 46.9385 44.369 47.1193C41.1824 48.8704 38.8781 49.7258 37.0811 49.7258Z" fill="#F0F3F5"/>
<path d="M68.8313 46.6877C66.6728 46.6877 63.0059 45.4897 62.5445 45.3332C62.1911 45.2145 61.9995 44.834 62.1182 44.4805C62.2369 44.1271 62.6174 43.9355 62.9708 44.0542C64.811 44.6667 68.1622 45.5463 69.3197 45.2981C70.4233 45.0607 72.3714 42.8508 73.34 41.5152C73.5586 41.213 73.9795 41.1456 74.2817 41.3641C74.5839 41.5827 74.6513 42.0036 74.4328 42.3058C74.1468 42.7024 71.5673 46.1939 69.6003 46.6175C69.379 46.6661 69.1173 46.6877 68.8313 46.6877Z" fill="#F0F3F5"/>
<path d="M72.7868 48.6896C70.9925 48.6896 70.183 47.3783 70.1452 47.3162C69.9536 46.9978 70.0562 46.5823 70.3772 46.3907C70.6956 46.1991 71.1112 46.3017 71.3027 46.6228C71.3567 46.7064 71.8991 47.4943 73.1591 47.3135C73.8121 47.2191 74.8859 43.9947 75.3689 40.6759C75.4229 40.3063 75.7629 40.0526 76.1325 40.1066C76.5022 40.1606 76.7558 40.5032 76.7019 40.8702C76.6911 40.943 76.4374 42.6699 75.9598 44.4561C75.234 47.1651 74.4057 48.498 73.348 48.6491C73.151 48.6788 72.9648 48.6896 72.7868 48.6896Z" fill="#F0F3F5"/>
<path d="M65.6955 49.9524C65.4338 49.9524 65.1856 49.7986 65.0749 49.5422C64.9292 49.1996 65.0857 48.8029 65.4284 48.6572C65.9518 48.4333 66.7074 47.4349 66.988 46.987C67.1876 46.6714 67.6031 46.5769 67.9188 46.7766C68.2345 46.9763 68.3263 47.3918 68.1293 47.7075C68.016 47.8828 67.0068 49.4478 65.9599 49.8957C65.8763 49.9362 65.7846 49.9524 65.6955 49.9524Z" fill="#F0F3F5"/>
<path d="M76.2759 48.7032C75.9116 48.7032 75.6121 48.4118 75.6013 48.0448C75.5905 47.6104 75.1075 46.0725 74.7702 45.1173C74.6461 44.7665 74.8296 44.3807 75.1804 44.2566C75.5311 44.1325 75.917 44.3159 76.0411 44.6667C76.1895 45.0849 76.9315 47.2084 76.9504 48.0125C76.9585 48.3848 76.6644 48.6951 76.292 48.7032C76.2866 48.7032 76.2813 48.7032 76.2759 48.7032Z" fill="#F0F3F5"/>
<path d="M76.7236 51.477C76.4349 51.477 76.1624 51.4123 75.9142 51.2854C75.2909 50.9671 74.8781 50.2844 74.6865 49.2618C74.6379 49.0055 74.7432 48.7437 74.9536 48.5899C77.0124 47.1032 77.5439 47.1923 77.7436 47.2247C77.9567 47.2597 78.1429 47.3758 78.2616 47.5457C78.6259 48.0638 78.5962 49.5343 78.3992 50.2736C78.267 50.7701 78.0458 51.0831 77.7193 51.2369C77.382 51.3961 77.0447 51.477 76.7236 51.477ZM76.1111 49.4264C76.2191 49.7691 76.3648 50.0011 76.5267 50.0847C76.6913 50.1684 76.9152 50.1117 77.0582 50.0551C77.1634 49.8203 77.2066 49.2159 77.1904 48.7572C76.8936 48.9164 76.5051 49.1593 76.1111 49.4264Z" fill="#F0F3F5"/>
<path d="M69.5655 52.7882C69.2741 52.7882 69.007 52.5993 68.9206 52.3079C68.8127 51.9517 69.015 51.574 69.3739 51.4687L70.955 50.9939C71.3139 50.8859 71.689 51.0883 71.7942 51.4472C71.9021 51.8033 71.6998 52.1811 71.3409 52.2863L69.7598 52.7612C69.695 52.7774 69.6302 52.7882 69.5655 52.7882Z" fill="#F0F3F5"/>
<path d="M71.7343 54.8524C71.397 54.8524 71.1056 54.6015 71.0652 54.2588C71.022 53.8891 71.2864 53.5546 71.6561 53.5087L90.7512 51.2314C91.1236 51.1883 91.4582 51.4527 91.5013 51.8223C91.5445 52.192 91.2801 52.5266 90.9105 52.5724L71.8153 54.8497C71.7883 54.8524 71.7613 54.8524 71.7343 54.8524Z" fill="#F0F3F5"/>
<path d="M1.04139 83.1808C0.828237 83.1808 0.620484 83.0783 0.493668 82.8975C0.329078 82.6682 0.326372 82.3579 0.485566 82.1258L16.2943 58.9833C16.4077 58.816 16.5884 58.7108 16.7908 58.6919L51.1902 55.5296C51.5598 55.4945 51.889 55.7698 51.9241 56.1394C51.9592 56.5118 51.684 56.8383 51.3143 56.8733L17.2333 60.0059L2.64413 81.3649L61.1897 65.1622C61.5486 65.0624 61.9209 65.2728 62.0208 65.6317C62.1206 65.9906 61.9102 66.3629 61.5513 66.4627L1.22219 83.1565C1.16283 83.1727 1.10076 83.1808 1.04139 83.1808Z" fill="#F0F3F5"/>
<path d="M71.8609 63.3274C71.5695 63.3274 71.3024 63.1385 71.2134 62.8444C71.1081 62.4882 71.3105 62.1132 71.6693 62.0053L102.27 52.942L85.6595 48.4414C85.3006 48.3443 85.0875 47.9746 85.1846 47.6131C85.2818 47.2515 85.6541 47.041 86.013 47.1382L104.919 52.2594C105.211 52.3376 105.413 52.602 105.418 52.9015C105.421 53.2037 105.224 53.4708 104.935 53.5572L72.0552 63.295C71.9877 63.3166 71.9257 63.3274 71.8609 63.3274Z" fill="#F0F3F5"/>
<path d="M32.4052 55.7373C32.1569 55.7373 31.9168 55.5997 31.8008 55.3623L19.4079 30.2582C19.2892 30.0208 19.3243 29.7348 19.4916 29.5297C19.6589 29.3246 19.9314 29.2383 20.1904 29.3085L38.4464 34.2651C38.8053 34.3622 39.0185 34.7345 38.9213 35.0934C38.8242 35.4523 38.4518 35.6654 38.093 35.5683L21.2805 31.0029L33.0123 54.7633C33.1768 55.0979 33.0392 55.5026 32.7074 55.6672C32.6075 55.7158 32.505 55.7373 32.4052 55.7373Z" fill="#F0F3F5"/>
<path d="M39.1693 97.9778C39.1207 97.9778 39.0748 97.9724 39.0263 97.9616C38.8428 97.9211 38.6836 97.8078 38.5892 97.6459L26.4473 77.1584C26.2584 76.8374 26.3636 76.4245 26.6847 76.2357C27.0058 76.0468 27.4186 76.152 27.6075 76.4731L39.377 96.3346L96.069 56.725C96.3739 56.5118 96.7948 56.5874 97.008 56.8923C97.2211 57.1971 97.1456 57.6181 96.8407 57.8312L39.5524 97.8564C39.4418 97.9346 39.3069 97.9778 39.1693 97.9778Z" fill="#F0F3F5"/>
<path d="M83.2453 13.7534C83.0106 13.7534 82.7839 13.6319 82.6598 13.4134C82.4763 13.0896 82.5869 12.6768 82.9107 12.4933C86.1648 10.6369 91.4316 6.88373 91.6988 4.71167C91.7419 4.35551 91.6421 4.08299 91.375 3.82666C90.6465 3.12783 88.1264 4.56867 86.5884 5.8773C86.3887 6.04728 86.1054 6.08506 85.8679 5.97713C85.6305 5.86651 85.4767 5.62906 85.4767 5.36464C85.474 4.44185 85.2285 2.76357 84.5809 2.18076C84.4001 2.01887 84.2059 1.95951 83.9495 1.98649C83.9172 1.98919 83.8794 1.99458 83.82 2.08093C83.1563 3.07117 83.9063 7.18053 84.6484 9.7816C84.7509 10.1405 84.5431 10.5128 84.1843 10.6153C83.8254 10.7179 83.4531 10.5101 83.3505 10.1513C83.0214 9.00451 81.4483 3.19259 82.6976 1.32813C82.9647 0.931492 83.3451 0.69405 83.7984 0.642784C84.4298 0.572631 85.0126 0.756109 85.4794 1.17163C86.2538 1.86507 86.583 3.10085 86.7233 4.05601C88.2289 2.96864 90.8569 1.45494 92.3086 2.84991C92.8806 3.39765 93.1315 4.09918 93.0344 4.87357C92.8374 6.46281 91.2077 8.37314 88.0508 10.7179C85.814 12.38 83.6662 13.6076 83.5745 13.6589C83.4719 13.7237 83.3586 13.7534 83.2453 13.7534Z" fill="#4AB69F"/>
</svg>
