<svg width="8" height="18" viewBox="0 0 8 18" fill="none" xmlns="http://www.w3.org/2000/svg">
<path d="M2.46726 5.44368V17.3826C2.46726 17.6447 2.65635 17.8571 2.88958 17.8571H4.86039C5.09361 17.8571 5.2827 17.6447 5.2827 17.3826V5.44368H6.90366C7.65616 5.44368 8.03301 4.42151 7.50092 3.82365L4.47224 0.420814C4.14238 0.0501989 3.60759 0.0501989 3.27776 0.420814L0.249077 3.82365C-0.283007 4.42147 0.09384 5.44368 0.846338 5.44368H2.46726Z" fill="white"/>
<path d="M2.46726 5.44368V17.3826C2.46726 17.6447 2.65635 17.8571 2.88958 17.8571H4.86039C5.09361 17.8571 5.2827 17.6447 5.2827 17.3826V5.44368H6.90366C7.65616 5.44368 8.03301 4.42151 7.50092 3.82365L4.47224 0.420814C4.14238 0.0501989 3.60759 0.0501989 3.27776 0.420814L0.249077 3.82365C-0.283007 4.42147 0.09384 5.44368 0.846338 5.44368H2.46726Z" fill="white"/>
<path d="M2.46726 5.44368V17.3826C2.46726 17.6447 2.65635 17.8571 2.88958 17.8571H4.86039C5.09361 17.8571 5.2827 17.6447 5.2827 17.3826V5.44368H6.90366C7.65616 5.44368 8.03301 4.42151 7.50092 3.82365L4.47224 0.420814C4.14238 0.0501989 3.60759 0.0501989 3.27776 0.420814L0.249077 3.82365C-0.283007 4.42147 0.09384 5.44368 0.846338 5.44368H2.46726Z" fill="white"/>
</svg>
