<svg xmlns="http://www.w3.org/2000/svg" width="42" height="42" fill="none" viewBox="0 0 42 42">
  <path fill="#232323" d="M20.55 40.5c10.714 0 19.4-8.686 19.4-19.4 0-10.714-8.686-19.4-19.4-19.4-10.714 0-19.4 8.686-19.4 19.4 0 10.714 8.686 19.4 19.4 19.4Z"/>
  <path fill="#00E2ED" d="M10.2 14.16a.54.54 0 1 0 0-1.08.54.54 0 0 0 0 1.08ZM31.83 29.5a.67.67 0 1 0 0-1.34.67.67 0 0 0 0 1.34Z"/>
  <path fill="#F1FBFC" d="M17.52 7.48c.19 0 .32.36.4.71.1.41.41.73.82.82.35.08.71.21.71.4 0 .19-.36.32-.71.4-.41.1-.73.41-.82.82-.08.35-.21.71-.4.71-.19 0-.32-.36-.4-.71-.1-.41-.41-.73-.82-.82-.35-.08-.71-.21-.71-.4 0-.19.36-.32.71-.4.41-.1.73-.41.82-.82.08-.35.21-.71.4-.71ZM7.97 20.65c.15 0 .25.28.32.56.08.32.32.57.64.64.28.07.56.17.56.32s-.28.25-.56.32c-.32.08-.57.32-.64.64-.07.28-.17.56-.32.56s-.25-.28-.32-.56a.853.853 0 0 0-.64-.64c-.28-.07-.56-.17-.56-.32s.28-.25.56-.32c.32-.08.57-.32.64-.64.07-.28.17-.56.32-.56Zm25.28-2.56c.17 0 .29.33.37.65.09.38.38.67.76.76.33.08.65.2.65.37 0 .17-.33.29-.65.37-.38.09-.67.38-.76.76-.08.33-.2.65-.37.65-.17 0-.29-.33-.37-.65-.09-.38-.38-.67-.76-.76-.33-.08-.65-.2-.65-.37 0-.17.33-.29.65-.37.38-.09.67-.38.76-.76.08-.33.2-.65.37-.65Zm-9.39 13.83c.12 0 .2.22.25.44.06.25.25.45.51.51.22.05.44.13.44.25s-.22.2-.44.25a.68.68 0 0 0-.51.51c-.05.22-.13.44-.25.44s-.2-.22-.25-.44a.68.68 0 0 0-.51-.51c-.22-.05-.44-.13-.44-.25s.22-.2.44-.25a.68.68 0 0 0 .51-.51c.05-.22.13-.44.25-.44Z"/>
  <path fill="#fff" d="m19.02 21.39 6.59-6.68c.15-.16.4.06.26.23l-5.28 6.8c-.05.06-.05.15 0 .22l4.06 5.02c.16.19.46.13.54-.11L29.91 11c.08-.26-.2-.49-.44-.36l-16.09 8.54c-.24.13-.21.49.05.57l5.42 1.68c.06.02.13 0 .18-.04h-.01Z"/>
  <path fill="#00E1EC" d="m18.07 22.16-.58 3.22 2.61-1.72s.64 3.08-1.22 4.6c-1.86 1.52-7.2 5.11-7.2 5.11l2.34-7.81s.36-2.59 4.05-3.39v-.01Z"/>
  <path fill="#F1FBFC" d="M13.25 28.53s.05-.09.08-.15c0-.02.01-.04.01-.05a6.947 6.947 0 0 1 2.19-3.54c.63-.78 1.42-1.43 2.4-1.87l.14-.76c-3.69.79-4.05 3.39-4.05 3.39l-1 3.36c.08-.12.16-.24.24-.37l-.01-.01Z"/>
  <path fill="#05DBDB" d="M14.17 28.84c-.39 0-.76-.03-1.12-.08l-1.38 4.6s5.34-3.6 7.2-5.11c.8-.65 1.13-1.58 1.26-2.43-1.19 1.78-3.17 3.03-5.97 3.03l.01-.01Z" style="mix-blend-mode:multiply"/>
</svg>
