<svg width="86" height="97" viewBox="0 0 86 97" fill="none" xmlns="http://www.w3.org/2000/svg">
<path d="M41.6413 71.4733C41.5792 71.4733 41.5172 71.4652 41.4551 71.4463L35.6216 69.7761C35.2627 69.6736 35.0577 69.3012 35.1602 68.9424C35.2627 68.5835 35.6351 68.3757 35.9939 68.481L41.8274 70.1512C42.1863 70.2537 42.3914 70.626 42.2888 70.9849C42.2052 71.279 41.9354 71.4733 41.6413 71.4733Z" fill="#4AB69F"/>
<path d="M26.3077 82.8517C26.2618 82.8517 26.2159 82.8463 26.1701 82.8382C25.3633 82.6709 6.35986 78.7207 0.806962 75.4208C0.485876 75.2293 0.380647 74.8164 0.572219 74.4953C0.763792 74.1743 1.17661 74.069 1.4977 74.2606C6.51906 77.2448 23.8685 80.971 26.1862 81.4621L40.5866 72.8737C40.9076 72.6822 41.3205 72.7874 41.512 73.1085C41.7036 73.4296 41.5984 73.8424 41.2773 74.034L26.6503 82.7572C26.5478 82.8193 26.4291 82.8517 26.3077 82.8517Z" fill="#4AB69F"/>
<path d="M1.42781 74.1041C1.09593 74.1041 0.807222 73.8586 0.761353 73.5213C0.710087 73.1517 0.969118 72.8117 1.33877 72.7604C1.47368 72.7415 14.8298 70.8825 21.3675 66.6382C21.6805 66.4358 22.0987 66.5249 22.3011 66.8379C22.5035 67.1508 22.4144 67.5691 22.1014 67.7714C19.2387 69.6305 14.9026 71.2602 9.20942 72.6174C4.99213 73.6238 1.55462 74.096 1.51955 74.1014C1.48987 74.1014 1.46019 74.1041 1.42781 74.1041Z" fill="#4AB69F"/>
<path d="M25.2234 79.3008C25.0777 79.3008 24.9293 79.2522 24.8052 79.1551C23.189 77.8734 15.5962 76.0171 12.809 75.41C12.4447 75.3317 12.2154 74.9729 12.2936 74.6086C12.3719 74.2444 12.7307 74.0123 13.095 74.0933C14.1527 74.3226 23.4858 76.3921 25.6416 78.0974C25.933 78.3294 25.9843 78.7531 25.7523 79.0445C25.62 79.2145 25.4231 79.3008 25.2234 79.3008Z" fill="#4AB69F"/>
<path d="M27.9184 77.0398C27.8671 77.0398 27.8131 77.0344 27.7592 77.0209C24.2029 76.1629 17.9728 72.9979 17.7111 72.863C17.3792 72.693 17.247 72.2883 17.4169 71.9564C17.5869 71.6245 17.9917 71.4923 18.3236 71.6623C18.3856 71.6947 24.6751 74.8921 28.0748 75.7096C28.4364 75.796 28.6604 76.1602 28.5713 76.5245C28.5012 76.8321 28.2233 77.0398 27.9184 77.0398Z" fill="#4AB69F"/>
<path d="M31.5481 75.2645C31.3781 75.2645 31.2109 75.2024 31.0786 75.0729C31.0517 75.0459 29.9589 74.0503 27.3227 73.4972C26.9585 73.4216 26.7237 73.0627 26.7993 72.6985C26.8748 72.3342 27.2337 72.0995 27.598 72.175C30.6874 72.8199 31.9663 74.053 32.0203 74.1043C32.2847 74.366 32.2901 74.7923 32.0284 75.0594C31.8962 75.197 31.7235 75.2645 31.5481 75.2645Z" fill="#4AB69F"/>
<path d="M36.782 33.4746C36.3017 33.7148 35.7432 33.7579 35.2117 33.7255C33.8679 33.6473 32.6241 32.9997 34.2214 31.8935C34.4912 31.7019 34.8015 31.594 35.1253 31.5481C33.1205 30.3339 30.1795 30.8628 28.8169 33.2183C27.0415 36.1593 29.2324 39.7749 32.6241 39.7479C35.4383 39.8721 37.8127 36.9337 37.0276 34.2085C36.9628 33.9495 36.8791 33.704 36.782 33.4746Z" fill="#4AB69F"/>
<path d="M15.2698 30.5579C15.0107 30.5579 14.7652 30.4068 14.6519 30.1558C14.606 30.0506 10.1054 19.5006 20.8766 13.1086C26.1516 9.97866 29.7024 6.80018 31.7531 4.68479C33.9764 2.39402 34.9639 0.820963 34.972 0.804773C35.1663 0.491782 35.5791 0.391949 35.8921 0.583521C36.1269 0.726526 41.6528 4.12626 40.989 9.95708C40.9459 10.3267 40.6113 10.5939 40.2416 10.5507C39.872 10.5075 39.6049 10.1729 39.648 9.80328C40.1013 5.82073 36.9903 3.05507 35.7194 2.10261C34.4783 3.84025 30.2664 9.10175 21.562 14.2661C11.835 20.0376 15.715 29.2195 15.8849 29.6081C16.0334 29.9481 15.8796 30.3474 15.5396 30.4958C15.4532 30.539 15.3615 30.5579 15.2698 30.5579Z" fill="#F0F3F5"/>
<path d="M40.1851 12.2183C39.9018 12.2183 39.6373 12.0375 39.5456 11.7542C39.4296 11.4007 39.6211 11.0202 39.9746 10.9015C40.0394 10.8799 46.4989 8.71598 48.6952 5.48893C48.9057 5.18134 49.3239 5.10039 49.6315 5.31085C49.9391 5.52131 50.02 5.93953 49.8096 6.24713C47.3569 9.85463 40.6788 12.0914 40.3982 12.1832C40.3254 12.2075 40.2552 12.2183 40.1851 12.2183Z" fill="#F0F3F5"/>
<path d="M48.2821 42.7374C48.1148 42.7374 47.9448 42.6754 47.8153 42.5486C47.5455 42.2895 47.5374 41.8632 47.7964 41.5961C54.4745 34.6428 53.4276 26.5914 52.8906 24.0902L51.5011 24.8079C51.2528 24.9347 50.9533 24.8969 50.7456 24.7134C50.5378 24.53 50.4622 24.2359 50.5594 23.9741C52.8016 17.9059 49.615 8.04664 49.5826 7.94681C49.4666 7.59334 49.6582 7.2129 50.0117 7.09417C50.3651 6.97815 50.7456 7.16972 50.8643 7.52319C50.9911 7.91173 53.7541 16.4488 52.2835 22.8814L53.0282 22.4982C53.2036 22.4065 53.4114 22.3984 53.5949 22.4739C53.7783 22.5495 53.9186 22.7006 53.9807 22.8895C54.0158 22.9947 57.3292 33.6202 48.7732 42.527C48.6356 42.67 48.4575 42.7374 48.2821 42.7374Z" fill="#F0F3F5"/>
<path d="M28.9876 51.6633C28.429 51.6633 27.8759 51.6147 27.3309 51.5176C26.9639 51.4528 26.7211 51.1021 26.7858 50.7351C26.8506 50.3681 27.2041 50.1253 27.5683 50.1901C33.2561 51.21 37.8161 45.7083 37.8593 45.6544C38.094 45.3657 38.5203 45.3225 38.809 45.5572C39.0977 45.792 39.1409 46.2156 38.9062 46.5043C38.8549 46.5664 37.6272 48.0666 35.6036 49.44C33.4396 50.9078 31.1812 51.6633 28.9876 51.6633Z" fill="#F0F3F5"/>
<path d="M38.911 49.6449C38.1771 49.6449 37.7373 49.5019 37.6806 49.483C37.3299 49.3616 37.141 48.9784 37.2624 48.625C37.3838 48.2742 37.7616 48.088 38.1123 48.2041C38.1825 48.2256 41.8089 49.2618 46.3635 43.3797C46.5901 43.0856 47.0164 43.0316 47.3105 43.2583C47.6046 43.4876 47.6586 43.9112 47.4319 44.2053C43.8002 48.8975 40.5893 49.6449 38.911 49.6449Z" fill="#F0F3F5"/>
<path d="M21.845 33.6204L21.7074 35.4201L22.4683 35.4902L23.159 34.3138C23.159 34.3138 26.9662 39.0195 26.4131 40.3335C25.8599 41.6475 23.2292 38.4636 22.0528 36.9418C20.8764 35.4201 20.736 33.758 21.845 33.6204Z" fill="#4AB69F"/>
<path d="M26.4837 41.3858C26.4055 41.3858 26.3326 41.3831 26.2571 41.375C24.8594 41.2455 23.3862 40.3389 21.9939 38.7469C20.8877 37.4815 19.8974 35.8625 19.2822 34.3057C18.6212 32.6328 18.551 31.4834 19.0772 30.8898C19.4846 30.4311 20.1295 30.1747 20.947 30.1504C22.7764 30.0992 25.2237 31.1704 26.7509 32.7056C28.4804 34.4406 29.2899 37.1199 28.7232 39.2164C28.2511 40.9729 27.2851 41.3858 26.4837 41.3858ZM20.1025 31.7694C19.9784 32.0743 20.2185 33.4935 21.3545 35.501C22.5282 37.5759 24.4682 39.8559 26.3812 40.0313C26.6106 40.0528 27.0881 40.096 27.4227 38.8656C27.8005 37.468 27.3634 35.2312 25.7957 33.6581C24.3495 32.2065 22.2476 31.4645 20.9875 31.4995C20.572 31.5103 20.259 31.6075 20.1025 31.7694Z" fill="#F0F3F5"/>
<path d="M19.4675 22.8814C18.5501 23.1107 16.3646 23.9633 16.3565 25.7199C16.3484 27.4737 19.9721 27.3226 21.2321 27.158C22.2466 27.0258 24.4511 26.5212 24.2001 24.3465C23.9465 22.1717 20.7383 22.563 19.4675 22.8814Z" fill="#F0F3F5"/>
<path d="M20.6897 38.0563C20.4793 38.0563 20.2742 37.9591 20.142 37.7756C19.9234 37.4734 19.9936 37.0525 20.2958 36.834C20.8031 36.4697 32.721 27.8867 33.6897 27.2257C35.1224 26.2516 37.0085 26.9882 37.0867 27.0179C37.4321 27.1555 37.6021 27.5495 37.4618 27.8948C37.3241 28.2402 36.9329 28.4075 36.5875 28.2726C36.566 28.2645 35.2816 27.7761 34.4479 28.3427C33.4927 28.9903 21.2078 37.8404 21.0837 37.9294C20.9649 38.0131 20.8273 38.0563 20.6897 38.0563Z" fill="#F0F3F5"/>
<path d="M22.3361 43.35C21.2352 43.35 19.9104 42.1817 19.1468 41.4046C17.0126 39.2218 13.7531 34.1303 13.6155 33.9144C13.4213 33.6095 13.5022 33.2075 13.7963 32.9997L15.8254 31.5697C16.1195 31.3619 16.5242 31.424 16.7481 31.7073C22.7678 39.4646 23.5287 41.3372 23.5746 41.7851C23.6771 42.7537 23.1375 43.118 22.9 43.2313C22.7246 43.315 22.5331 43.35 22.3361 43.35ZM15.1049 33.7282C16.0115 35.1097 18.4696 38.7793 20.1128 40.4603C21.2326 41.6043 21.9557 41.9281 22.239 41.9874C22.239 41.9686 22.2363 41.9497 22.2336 41.9254C22.0879 41.1726 19.0551 36.9121 16.0736 33.0429L15.1049 33.7282Z" fill="#F0F3F5"/>
<path d="M22.2955 50.8348C21.7613 50.8348 21.2648 50.7836 20.8142 50.681C18.6772 50.1873 16.0411 48.7896 15.6364 44.9258C15.5257 43.8708 17.1096 42.2384 18.0647 41.3587C18.34 41.1051 18.7663 41.124 19.0172 41.3992C19.2708 41.6744 19.252 42.1007 18.9767 42.3517C17.9622 43.2853 17.0097 44.4563 16.9774 44.807C17.2364 47.2489 18.6287 48.7896 21.1164 49.3643C21.4429 49.4399 21.8179 49.4776 22.2335 49.4776C26.3482 49.4776 34.343 45.7487 37.8399 38.2477C37.9154 38.0858 38.0503 37.9617 38.2176 37.8996L39.4642 37.4382C39.8123 37.3087 40.2008 37.4868 40.3303 37.8376C40.4598 38.1857 40.2817 38.5742 39.931 38.7037L38.9434 39.0707C35.3386 46.5177 27.2143 50.8348 22.2955 50.8348Z" fill="#F0F3F5"/>
<path d="M24.934 53.5115C24.7667 53.5115 24.5994 53.4494 24.4726 53.328L22.9967 51.9438C22.7242 51.6902 22.7107 51.2612 22.967 50.9913C23.2233 50.7215 23.6497 50.7053 23.9195 50.9617L25.0932 52.0625L25.622 51.871L25.2659 51.2261C25.0851 50.8996 25.2038 50.4895 25.5303 50.3087C25.8568 50.1306 26.2669 50.2466 26.4477 50.5731L27.187 51.9114C27.2814 52.0841 27.2976 52.2892 27.2275 52.4754C27.1573 52.6588 27.0116 52.8045 26.8254 52.872L25.1633 53.471C25.0905 53.498 25.0123 53.5115 24.934 53.5115Z" fill="#F0F3F5"/>
<path d="M19.9301 45.8757C19.6792 45.8622 19.5874 45.6464 19.3176 45.7192C19.1611 45.7381 19.0397 45.5951 19.0154 45.4521C18.9911 45.2713 19.1341 45.0959 19.2798 45.0042C19.5416 44.8828 19.8815 44.8747 20.1082 45.0743C20.3699 45.2605 20.5237 45.5546 20.2026 45.7705C20.1217 45.8217 20.0353 45.8865 19.9301 45.8757Z" fill="#F0F3F5"/>
<path d="M19.9569 46.1456C19.9407 46.1456 19.9245 46.1456 19.9083 46.1429C19.7437 46.1321 19.625 46.0673 19.5387 46.0188C19.4469 45.9675 19.4334 45.9648 19.3876 45.9756L19.3498 45.9837C19.0395 46.0187 18.7994 45.7624 18.7508 45.4953C18.7076 45.1796 18.9181 44.9071 19.142 44.7695L19.169 44.756C19.563 44.5725 20.0028 44.6157 20.2888 44.8666C20.5181 45.0285 20.6584 45.2606 20.6557 45.4899C20.653 45.6275 20.5991 45.8272 20.3562 45.9918C20.2564 46.0592 20.1269 46.1456 19.9569 46.1456ZM19.4227 45.4332C19.5899 45.4332 19.7113 45.5007 19.7977 45.5493C19.8624 45.5843 19.9002 45.6032 19.9434 45.6059H19.9515C19.9704 45.5978 20.0109 45.5709 20.0378 45.552C20.1026 45.5088 20.1134 45.4845 20.1134 45.4818C20.1134 45.4575 20.0729 45.3766 19.9515 45.2902C19.7923 45.1526 19.571 45.1688 19.4091 45.239C19.3309 45.2902 19.2769 45.3739 19.2823 45.4117C19.285 45.4198 19.2931 45.4332 19.2985 45.4413C19.3444 45.4359 19.3849 45.4332 19.4227 45.4332Z" fill="#F0F3F5"/>
<path d="M29.1029 57.4914C29.4807 57.405 29.8692 57.3133 30.2659 57.2162L30.4143 56.5038C30.6274 55.4758 30.0069 54.4397 28.9977 54.1483C28.45 53.9891 27.8591 54.0701 27.3734 54.3696C26.8877 54.6691 26.5505 55.1628 26.4479 55.7241L25.9434 58.4465C26.8311 58.0175 27.8861 57.772 29.1029 57.4914Z" fill="#4AB69F"/>
<path d="M24.8749 64.2043L23.9494 69.2068C23.9278 69.3174 23.9359 69.4308 23.971 69.536L24.5943 71.4733C24.659 71.6784 24.8182 71.8403 25.0233 71.9077C25.0934 71.932 25.1663 71.9428 25.2365 71.9428C25.3741 71.9428 25.5117 71.8996 25.6277 71.8187L27.2898 70.6423C27.4301 70.5424 27.5245 70.3967 27.5596 70.2294L27.8753 68.713C26.9363 67.7228 25.687 66.1605 24.8749 64.2043Z" fill="#4AB69F"/>
<path d="M50.5239 49.1998C49.0804 47.5026 47.7043 46.623 46.4335 46.5798C43.9538 46.4962 41.0641 48.0693 39.8607 50.1577C37.0006 55.1224 33.3877 56.4418 30.2658 57.2162C29.8692 57.316 29.4807 57.405 29.1029 57.4914C27.886 57.772 26.831 58.0175 25.9406 58.4465C25.9217 58.4546 25.9028 58.4627 25.8867 58.4708C24.6482 59.0833 23.9601 60.4054 24.176 61.7653C24.3136 62.6315 24.5618 63.4463 24.8748 64.2045C25.6843 66.1607 26.9363 67.723 27.8725 68.7132C27.9886 68.8373 28.1046 68.956 28.2098 69.0613C28.7953 69.6468 29.5994 69.9571 30.5006 69.9571C30.6355 69.9571 30.7731 69.949 30.9134 69.9355C38.5952 69.1611 43.4034 65.5131 46.0854 62.5883C48.7728 59.6553 49.9007 56.8978 50.0922 56.3959C50.4619 55.8077 52.7958 51.8683 50.5239 49.1998ZM30.7785 68.5945C30.3954 68.6323 29.6776 68.6215 29.165 68.1061C28.9788 67.9199 28.7683 67.6987 28.5471 67.4504C27.3922 66.158 25.9083 64.0696 25.5089 61.5549C25.3875 60.7832 25.7787 60.0304 26.4857 59.6796C27.0091 59.4206 27.6513 59.2317 28.3771 59.0509C28.4203 59.1481 28.485 59.2344 28.5714 59.3046C29.7964 60.2651 30.6112 61.4065 31.1536 62.5478C32.5027 65.389 32.1438 68.2275 32.1384 68.2734C32.1303 68.3247 32.1303 68.3732 32.1357 68.4218C31.6932 68.4893 31.2399 68.5486 30.7785 68.5945ZM48.9212 55.7214C48.8915 55.7672 48.8673 55.8158 48.8484 55.8671C48.8106 55.9723 45.2031 65.7047 33.5064 68.1736C33.6089 66.9998 33.7411 62.5721 30.4682 59.202C30.2982 59.0267 30.1201 58.854 29.9313 58.6867C30.077 58.6516 30.2254 58.6165 30.3738 58.5814C33.6737 57.7801 37.8343 56.3824 41.0317 50.8322C41.9679 49.2079 44.2803 47.9289 46.2446 47.9289C46.2932 47.9289 46.3417 47.9289 46.3903 47.9316C47.2402 47.9586 48.3438 48.7222 49.4986 50.0767C51.2417 52.122 48.959 55.6593 48.9212 55.7214Z" fill="#F0F3F5"/>
<path d="M63.5053 63.708C63.2139 63.708 62.9468 63.5191 62.8605 63.2277C62.7526 62.8716 62.9549 62.4938 63.3111 62.3886L76.7697 58.3413C73.8071 49.5478 68.0113 44.2351 63.6133 41.3048C58.7106 38.0373 54.434 36.9391 54.3908 36.9283C54.0293 36.8366 53.8107 36.4723 53.8997 36.1108C53.9888 35.7492 54.3557 35.5307 54.7173 35.6197C54.8981 35.6656 59.226 36.7718 64.3148 40.1527C69.0151 43.2745 75.2506 49.0082 78.2645 58.5868C78.3185 58.7595 78.3023 58.9457 78.2159 59.1049C78.1323 59.2641 77.9866 59.3828 77.8139 59.4341L63.6969 63.6783C63.6376 63.6999 63.5701 63.708 63.5053 63.708Z" fill="#F0F3F5"/>
<path d="M46.2043 65.7612C46.0721 65.7612 45.9372 65.7235 45.8212 65.6398C45.2438 65.2378 44.9767 64.5147 44.947 64.4337C44.8229 64.083 45.0063 63.6971 45.3598 63.573C45.7106 63.4489 46.0937 63.6324 46.2205 63.9804C46.2664 64.1072 46.4202 64.4094 46.5929 64.5309C46.8978 64.744 46.976 65.1622 46.7629 65.4698C46.628 65.6587 46.4175 65.7612 46.2043 65.7612Z" fill="#F0F3F5"/>
<path d="M51.3982 81.6726C46.9435 81.6726 44.248 80.4826 44.0564 80.3963C43.8217 80.2911 43.6706 80.0617 43.6625 79.8054C43.2389 66.5977 50.8532 60.5807 54.8303 60.4242C58.5566 60.2758 62.8332 63.4678 63.014 63.6054C63.3108 63.8293 63.3702 64.253 63.1462 64.5498C62.9222 64.8466 62.4986 64.9059 62.2018 64.682C62.1614 64.6523 58.1248 61.6438 54.8843 61.7706C53.3086 61.8327 50.7749 63.1764 48.6622 66.0392C46.9138 68.4109 44.8794 72.6228 45.0008 79.317C46.6683 79.9106 53.6377 81.8857 63.1327 77.6441C63.3054 76.8266 63.7263 74.4791 63.4592 71.8214C63.4214 71.4518 63.6912 71.1199 64.0636 71.0821C64.4386 71.0443 64.7651 71.3168 64.8029 71.6865C65.1563 75.2265 64.4009 78.1676 64.3685 78.2917C64.3172 78.4887 64.1796 78.6506 63.9961 78.7342C59.0233 81.0088 54.7224 81.6726 51.3982 81.6726Z" fill="#F0F3F5"/>
<path d="M65.3077 76.7887C65.0487 76.7887 64.8004 76.6376 64.6898 76.384C64.5414 76.0413 64.6979 75.6447 65.0406 75.4963L66.6325 74.8028C66.9752 74.6544 67.3718 74.8109 67.5202 75.1536C67.6686 75.4963 67.5121 75.8929 67.1695 76.0413L65.5775 76.7348C65.4885 76.7698 65.3967 76.7887 65.3077 76.7887Z" fill="#F0F3F5"/>
<path d="M57.3396 96.1106C54.0802 96.1106 51.3658 95.633 49.5904 95.2067C48.9779 95.061 48.5434 94.5376 48.5111 93.9089C48.476 93.2829 48.8483 92.7217 49.4366 92.5085C56.379 90.0019 65.3236 83.0864 67.5766 76.7888C68.4778 74.266 66.0979 71.843 66.0737 71.8187C65.8092 71.5543 65.8119 71.128 66.0737 70.8635C66.3381 70.5991 66.7644 70.6018 67.0288 70.8635C67.1529 70.9876 70.0346 73.926 68.8474 77.2421C67.7088 80.4287 64.9269 83.966 61.0172 87.1985C57.5285 90.0855 53.473 92.4842 49.8952 93.7767C49.8736 93.7848 49.8548 93.7902 49.8575 93.8333C49.8602 93.8819 49.8845 93.8873 49.906 93.8927C54.9031 95.0961 67.7034 96.7204 78.6014 85.8763C82.7054 81.7912 84.6589 77.4849 84.408 73.0788C83.9843 65.6263 77.3414 60.292 77.2739 60.2407C76.9825 60.0087 76.9312 59.585 77.1633 59.2936C77.3926 59.0022 77.8162 58.951 78.1103 59.183C78.4044 59.4151 85.2876 64.9329 85.7544 72.9951C86.0323 77.8087 83.9466 82.4658 79.5539 86.8369C72.0448 94.3082 63.6669 96.1106 57.3396 96.1106Z" fill="#F0F3F5"/>
<path d="M51.3953 80.3182C51.2065 80.3182 51.0203 80.24 50.8854 80.0862C49.7305 78.7586 48.5919 78.0733 47.4991 78.0544C46.3065 78.0328 45.5537 78.8207 45.524 78.8558C45.2704 79.1256 44.8441 79.1445 44.5716 78.8936C44.2991 78.6426 44.2775 78.219 44.5257 77.9465C44.5716 77.8952 45.6697 76.708 47.4505 76.708C47.464 76.708 47.4802 76.708 47.4937 76.708C48.9939 76.7242 50.4779 77.5633 51.9026 79.2038C52.1481 79.4845 52.1157 79.9108 51.8351 80.1563C51.711 80.2642 51.5518 80.3182 51.3953 80.3182Z" fill="#F0F3F5"/>
<path d="M68.4508 39.7668C67.6845 39.7668 66.8454 39.7209 65.9226 39.6211C65.553 39.5806 65.2858 39.2487 65.3263 38.8764C65.3668 38.504 65.704 38.2396 66.071 38.2801C70.3396 38.7469 72.5575 37.9374 73.6691 37.1765C74.5002 36.6072 74.8348 35.9974 74.9589 35.6898C73.1619 32.4358 68.038 32.4628 64.0069 33.0753C59.3552 33.7795 55.0704 35.4119 55.0273 35.4281C54.6792 35.5603 54.2907 35.3876 54.1557 35.0395C54.0235 34.6915 54.1962 34.3029 54.5443 34.168C55.2755 33.8874 72.4711 27.3928 76.2945 35.3364C76.3566 35.4659 76.3754 35.6143 76.3485 35.7573C76.3134 35.9354 75.4823 39.7668 68.4508 39.7668Z" fill="#F0F3F5"/>
<path d="M67.1048 59.0022C66.8269 59.0022 66.5651 58.8295 66.468 58.5516C62.8497 48.2364 53.12 41.5124 53.0229 41.445C52.7153 41.2345 52.6343 40.8163 52.8448 40.5087C53.0552 40.2011 53.4735 40.1202 53.7811 40.3306C54.1966 40.6139 63.9749 47.3621 67.7416 58.1064C67.8657 58.4572 67.6795 58.843 67.3287 58.9671C67.2559 58.9887 67.1803 59.0022 67.1048 59.0022Z" fill="#F0F3F5"/>
<path d="M33.0566 55.5406C32.8461 55.5406 32.6384 55.4408 32.5062 55.2573C32.2903 54.9524 32.3632 54.5315 32.6654 54.3156C34.7322 52.8505 36.2675 50.3223 36.2837 50.298C36.4752 49.9796 36.8908 49.8771 37.2091 50.0687C37.5275 50.2602 37.6328 50.6758 37.4412 50.9941C37.3737 51.1075 35.7494 53.7868 33.4478 55.4192C33.3291 55.5001 33.1915 55.5406 33.0566 55.5406Z" fill="#F0F3F5"/>
<path d="M20.598 65.37C20.3848 65.37 20.1771 65.2702 20.0449 65.0813C19.284 63.9939 19.3595 62.5072 19.3703 62.3426C19.3865 62.089 19.5457 61.865 19.7831 61.7652L22.6432 60.5645C22.9859 60.4215 23.3825 60.5834 23.5255 60.926C23.6685 61.2687 23.5067 61.6654 23.164 61.8084L20.7194 62.8337C20.7464 63.2654 20.8516 63.8833 21.1484 64.3069C21.3616 64.6118 21.2887 65.0327 20.9838 65.2459C20.8678 65.3295 20.7329 65.37 20.598 65.37Z" fill="#F0F3F5"/>
</svg>
