<svg xmlns="http://www.w3.org/2000/svg" width="42" height="42" fill="none" viewBox="0 0 42 42">
  <path fill="#232323" d="M20.55 39.98c10.714 0 19.4-8.686 19.4-19.4 0-10.714-8.686-19.4-19.4-19.4-10.714 0-19.4 8.686-19.4 19.4 0 10.714 8.686 19.4 19.4 19.4Z"/>
  <path fill="#fff" d="M26.72 31.22H13.77c-.82 0-1.48-.66-1.48-1.48V11.42c0-.82.66-1.48 1.48-1.48h11.27l3.15 3.3v16.51c0 .82-.66 1.48-1.48 1.48l.01-.01Z"/>
  <path fill="#232323" d="M28.2 13.66h-2.11c-.78 0-1.42-.64-1.42-1.42v-2.3a.38.38 0 1 1 .76 0v2.3c0 .37.3.67.67.67h2.11a.38.38 0 1 1 0 .76l-.01-.01Z"/>
  <path fill="#00E1EC" d="M21.02 29.98a.47.47 0 0 1-.35-.15.513.513 0 0 1 0-.71l2.92-2.91c.19-.19.51-.2.71 0 .19.2.19.51 0 .71l-2.92 2.91c-.1.1-.22.15-.35.15h-.01Z"/>
  <path fill="#00E1EC" d="M26.21 29.01h-4.05c-.28 0-.5-.22-.5-.5s.22-.5.5-.5h4.05c.28 0 .5.22.5.5s-.22.5-.5.5Z"/>
  <path fill="#00E1EC" d="M23.84 28.91a.47.47 0 0 1-.35-.15c-.2-.2-.2-.51 0-.71l2.08-2.08c.2-.2.51-.2.71 0 .2.2.2.51 0 .71l-2.08 2.08c-.1.1-.23.15-.35.15h-.01Z"/>
  <path fill="#D8D8D8" d="M23.5 13.78h-8.92c-.28 0-.5-.22-.5-.5s.22-.5.5-.5h8.92c.28 0 .5.22.5.5s-.22.5-.5.5Zm0 2.13h-8.92c-.28 0-.5-.22-.5-.5s.22-.5.5-.5h8.92c.28 0 .5.22.5.5s-.22.5-.5.5Zm0 2.2h-8.92c-.28 0-.5-.22-.5-.5s.22-.5.5-.5h8.92c.28 0 .5.22.5.5s-.22.5-.5.5Zm-2.48 2.3h-6.44c-.28 0-.5-.22-.5-.5s.22-.5.5-.5h6.44c.28 0 .5.22.5.5s-.22.5-.5.5Zm-1.84 2.21h-4.61c-.28 0-.5-.22-.5-.5s.22-.5.5-.5h4.61c.28 0 .5.22.5.5s-.22.5-.5.5Zm-.82 2.26h-3.78c-.28 0-.5-.22-.5-.5s.22-.5.5-.5h3.78c.28 0 .5.22.5.5s-.22.5-.5.5Zm-1 2.19h-2.78c-.28 0-.5-.22-.5-.5s.22-.5.5-.5h2.78c.28 0 .5.22.5.5s-.22.5-.5.5Z"/>
  <path fill="#00E1EC" d="M32.31 13.39c-.44-.26-1.01-.14-1.37.22l-8.46 8.52-1.32 2.72c-.09.19.12.39.3.29l2.48-1.36 8.54-8.63c.22-.22.34-.51.34-.81 0-.32-.1-.7-.51-.94v-.01Z"/>
  <mask id="a" width="12" height="13" x="21" y="13" maskUnits="userSpaceOnUse" style="mask-type:luminance">
    <path fill="#fff" d="M32.31 13.39c-.44-.26-1.01-.14-1.37.22l-8.46 8.52-1.32 2.72c-.09.19.12.39.3.29l2.48-1.36 8.54-8.63c.22-.22.34-.51.34-.81 0-.32-.1-.7-.51-.94v-.01Z"/>
  </mask>
  <g mask="url(#a)">
    <path fill="#05DBDB" d="m32.82 13.09-12 12.51 7.83-1.83 5.49-8.36-1.32-2.32Z" style="mix-blend-mode:multiply"/>
  </g>
  <path fill="#fff" d="M30.08 19.01a.501.501 0 0 1-.37-.84l2.23-2.43-.04-.04-1.47-1.63a.505.505 0 0 1 .04-.71c.2-.18.52-.17.71.04l1.81 1.98c.19.19.19.49.01.69l-2.55 2.78c-.1.11-.23.16-.37.16Z"/>
  <path fill="#00E2ED" d="M34.92 21.17a.59.59 0 1 0 0-1.18.59.59 0 0 0 0 1.18ZM7.24 17.61a.57.57 0 1 0 0-1.14.57.57 0 0 0 0 1.14Zm1.93 11.34a.44.44 0 1 0 0-.88.44.44 0 0 0 0 .88Z"/>
  <path fill="#F1FBFC" d="M32.82 25.34c-.15 0-.26.29-.33.57-.08.33-.33.59-.66.66-.29.07-.57.17-.57.33 0 .15.29.26.57.33.33.08.59.33.66.66.07.29.17.57.33.57s.26-.29.33-.57c.08-.33.33-.59.66-.66.29-.07.57-.17.57-.33 0-.15-.29-.26-.57-.33a.873.873 0 0 1-.66-.66c-.07-.29-.17-.57-.33-.57ZM5.81 21.38c-.16 0-.27.3-.34.6-.08.35-.35.62-.7.7-.3.07-.6.18-.6.34 0 .16.3.27.6.34.35.08.62.35.7.7.07.3.18.6.34.6.16 0 .27-.3.34-.6.08-.35.35-.62.7-.7.3-.07.6-.18.6-.34 0-.16-.3-.27-.6-.34a.927.927 0 0 1-.7-.7c-.07-.3-.18-.6-.34-.6Zm3.36-11.4c-.12 0-.2.22-.25.45a.69.69 0 0 1-.52.52c-.22.05-.45.13-.45.25s.22.2.45.25c.26.06.46.26.52.52.05.22.13.45.25.45s.2-.22.25-.45a.69.69 0 0 1 .52-.52c.22-.05.45-.13.45-.25s-.22-.2-.45-.25a.69.69 0 0 1-.52-.52c-.05-.22-.13-.45-.25-.45Zm21.5-.96c-.09 0-.16.18-.2.35-.05.2-.2.36-.41.41-.18.04-.35.11-.35.2 0 .09.18.16.35.2.2.05.36.2.41.41.04.18.11.35.2.35.09 0 .16-.18.2-.35.05-.2.2-.36.41-.41.18-.04.35-.11.35-.2 0-.09-.18-.16-.35-.2-.2-.05-.36-.2-.41-.41-.04-.18-.11-.35-.2-.35Z"/>
</svg>
