<svg width="91" height="102" viewBox="0 0 91 102" fill="none" xmlns="http://www.w3.org/2000/svg">
<path d="M44.0277 75.5034C43.9619 75.5034 43.8961 75.4948 43.8303 75.4748L37.6433 73.7034C37.2627 73.5947 37.0452 73.1997 37.154 72.8191C37.2627 72.4385 37.6576 72.2182 38.0382 72.3298L44.2252 74.1012C44.6058 74.2099 44.8233 74.6048 44.7145 74.9854C44.6258 75.2974 44.3396 75.5034 44.0277 75.5034Z" fill="#4AB69F"/>
<path d="M27.7652 87.5711C27.7166 87.5711 27.6679 87.5654 27.6193 87.5568C26.7636 87.3794 6.60888 83.1899 0.719557 79.6901C0.379018 79.4869 0.267414 79.0491 0.470593 78.7085C0.673772 78.368 1.11161 78.2564 1.45214 78.4596C6.77772 81.6246 25.1783 85.5765 27.6364 86.0974L42.9092 76.9887C43.2497 76.7855 43.6876 76.8971 43.8907 77.2376C44.0939 77.5782 43.9823 78.016 43.6418 78.2192L28.1287 87.471C28.0199 87.5368 27.894 87.5711 27.7652 87.5711Z" fill="#4AB69F"/>
<path d="M1.37776 78.2935C1.02577 78.2935 0.719573 78.0331 0.670924 77.6754C0.616552 77.2833 0.891277 76.9227 1.28333 76.8684C1.42641 76.8483 15.5917 74.8766 22.5255 70.3752C22.8575 70.1606 23.301 70.255 23.5157 70.587C23.7303 70.9189 23.6359 71.3625 23.3039 71.5771C20.2677 73.5488 15.6689 75.2773 9.63082 76.7167C5.15803 77.7841 1.51226 78.2849 1.47505 78.2906C1.44357 78.2906 1.4121 78.2935 1.37776 78.2935Z" fill="#4AB69F"/>
<path d="M26.6151 83.805C26.4606 83.805 26.3032 83.7535 26.1715 83.6505C24.4574 82.2912 16.4047 80.3224 13.4486 79.6785C13.0622 79.5955 12.819 79.2149 12.902 78.8286C12.985 78.4422 13.3656 78.1961 13.7519 78.282C14.8737 78.5252 24.7722 80.7201 27.0587 82.5287C27.3677 82.7748 27.4221 83.2241 27.176 83.5332C27.0358 83.7134 26.8269 83.805 26.6151 83.805Z" fill="#4AB69F"/>
<path d="M29.4731 81.4072C29.4188 81.4072 29.3615 81.4015 29.3043 81.3872C25.5326 80.4772 18.925 77.1204 18.6474 76.9774C18.2954 76.7971 18.1552 76.3678 18.3355 76.0158C18.5158 75.6638 18.9451 75.5236 19.297 75.7039C19.3629 75.7383 26.0334 79.1293 29.6391 79.9964C30.0226 80.088 30.2601 80.4743 30.1657 80.8607C30.0913 81.1869 29.7965 81.4072 29.4731 81.4072Z" fill="#4AB69F"/>
<path d="M33.323 79.5243C33.1427 79.5243 32.9653 79.4585 32.8251 79.3211C32.7965 79.2925 31.6375 78.2365 28.8416 77.6499C28.4553 77.5698 28.2064 77.1892 28.2865 76.8028C28.3666 76.4165 28.7472 76.1675 29.1335 76.2477C32.4102 76.9316 33.7666 78.2394 33.8238 78.2938C34.1043 78.5713 34.11 79.0235 33.8324 79.3068C33.6922 79.4527 33.509 79.5243 33.323 79.5243Z" fill="#4AB69F"/>
<path d="M38.8741 35.2025C38.3647 35.4572 37.7724 35.503 37.2086 35.4687C35.7835 35.3857 34.4643 34.6989 36.1584 33.5256C36.4446 33.3224 36.7736 33.208 37.117 33.1593C34.9908 31.8716 31.8716 32.4324 30.4264 34.9307C28.5435 38.0499 30.8672 41.8846 34.4643 41.8559C37.449 41.9876 39.9673 38.8712 39.1345 35.9809C39.0658 35.7062 38.9771 35.4458 38.8741 35.2025Z" fill="#4AB69F"/>
<path d="M16.0584 32.109C15.7837 32.109 15.5233 31.9487 15.4031 31.6826C15.3544 31.571 10.5812 20.3819 22.005 13.6026C27.5995 10.283 31.3655 6.91196 33.5404 4.66841C35.8984 2.23885 36.9458 0.570499 36.9543 0.553329C37.1604 0.221375 37.5982 0.115493 37.9302 0.318672C38.1791 0.470341 44.0399 4.07605 43.3359 10.2601C43.2901 10.6522 42.9352 10.9355 42.5432 10.8897C42.1511 10.8439 41.8678 10.4891 41.9136 10.097C42.3944 5.87318 39.0949 2.93996 37.747 1.92979C36.4307 3.77271 31.9636 9.35297 22.7318 14.8302C12.4155 20.9513 16.5306 30.6896 16.7109 31.1017C16.8683 31.4623 16.7052 31.8858 16.3446 32.0432C16.253 32.089 16.1557 32.109 16.0584 32.109Z" fill="#021D30"/>
<path d="M42.4837 12.6585C42.1832 12.6585 41.9028 12.4668 41.8055 12.1663C41.6824 11.7914 41.8856 11.3879 42.2605 11.262C42.3291 11.2391 49.18 8.94403 51.5094 5.52147C51.7326 5.19524 52.1762 5.10939 52.5024 5.3326C52.8286 5.55581 52.9145 5.99937 52.6913 6.3256C50.09 10.1517 43.0074 12.524 42.7098 12.6213C42.6325 12.647 42.5581 12.6585 42.4837 12.6585Z" fill="#021D30"/>
<path d="M51.071 45.0266C50.8936 45.0266 50.7133 44.9608 50.576 44.8263C50.2898 44.5516 50.2812 44.0994 50.5559 43.8161C57.6386 36.4416 56.5282 27.9024 55.9588 25.2496L54.485 26.0108C54.2217 26.1453 53.9041 26.1052 53.6837 25.9106C53.4634 25.716 53.3833 25.4041 53.4863 25.1265C55.8643 18.6906 52.4847 8.23408 52.4503 8.1282C52.3273 7.75332 52.5305 7.34983 52.9054 7.22391C53.2802 7.10086 53.6837 7.30404 53.8096 7.67892C53.9441 8.091 56.8745 17.1453 55.3149 23.9676L56.1047 23.5612C56.2907 23.4639 56.5111 23.4553 56.7057 23.5354C56.9002 23.6156 57.0491 23.7758 57.1149 23.9761C57.1521 24.0877 60.6662 35.357 51.5918 44.8034C51.4459 44.9551 51.257 45.0266 51.071 45.0266Z" fill="#021D30"/>
<path d="M30.6069 54.4931C30.0146 54.4931 29.4279 54.4416 28.8499 54.3385C28.4607 54.2699 28.2031 53.8978 28.2718 53.5086C28.3405 53.1195 28.7154 52.8619 29.1017 52.9306C35.1341 54.0123 39.9703 48.1773 40.0161 48.1201C40.2651 47.8139 40.7172 47.7681 41.0234 48.0171C41.3296 48.2661 41.3754 48.7153 41.1265 49.0215C41.0721 49.0874 39.77 50.6785 37.6238 52.135C35.3287 53.6918 32.9335 54.4931 30.6069 54.4931Z" fill="#021D30"/>
<path d="M41.1323 52.3526C40.3539 52.3526 39.8874 52.2009 39.8273 52.1809C39.4553 52.0521 39.255 51.6457 39.3838 51.2709C39.5126 50.8988 39.9132 50.7014 40.2852 50.8244C40.3596 50.8473 44.2057 51.9462 49.0362 45.7078C49.2766 45.3958 49.7287 45.3386 50.0407 45.579C50.3526 45.8222 50.4098 46.2715 50.1694 46.5834C46.3176 51.5599 42.9122 52.3526 41.1323 52.3526Z" fill="#021D30"/>
<path d="M23.0325 35.3572L22.8866 37.2659L23.6936 37.3403L24.4262 36.0926C24.4262 36.0926 28.464 41.0834 27.8773 42.477C27.2907 43.8707 24.5006 40.4939 23.2529 38.8799C22.0052 37.2659 21.8564 35.5031 23.0325 35.3572Z" fill="#4AB69F"/>
<path d="M27.9516 43.5929C27.8686 43.5929 27.7914 43.5901 27.7112 43.5815C26.2289 43.4441 24.6664 42.4826 23.1898 40.7942C22.0165 39.4521 20.9663 37.7351 20.3138 36.0839C19.6127 34.3097 19.5383 33.0906 20.0963 32.461C20.5284 31.9745 21.2124 31.7027 22.0795 31.6769C24.0197 31.6225 26.6152 32.7586 28.2349 34.3869C30.0693 36.227 30.9278 39.0686 30.3268 41.2921C29.826 43.1551 28.8015 43.5929 27.9516 43.5929ZM21.1838 33.3939C21.0521 33.7173 21.3068 35.2225 22.5116 37.3516C23.7564 39.5522 25.814 41.9704 27.8429 42.1564C28.0861 42.1793 28.5926 42.225 28.9475 40.9201C29.3481 39.4378 28.8845 37.0654 27.2219 35.3971C25.6881 33.8575 23.4588 33.0706 22.1224 33.1078C21.6817 33.1192 21.3497 33.2222 21.1838 33.3939Z" fill="#021D30"/>
<path d="M20.5105 23.9675C19.5375 24.2108 17.2195 25.1151 17.211 26.978C17.2024 28.8381 21.0456 28.6778 22.382 28.5033C23.458 28.3631 25.796 27.8279 25.5298 25.5214C25.2608 23.2149 21.8583 23.6299 20.5105 23.9675Z" fill="#021D30"/>
<path d="M21.8068 40.0617C21.5836 40.0617 21.3661 39.9587 21.2259 39.7641C20.9941 39.4436 21.0685 38.9972 21.389 38.7654C21.927 38.3791 34.567 29.2761 35.5943 28.575C37.1139 27.5419 39.1142 28.3231 39.1972 28.3546C39.5635 28.5006 39.7438 28.9184 39.595 29.2847C39.449 29.651 39.0341 29.8284 38.6678 29.6853C38.6449 29.6767 37.2827 29.1587 36.3985 29.7597C35.3854 30.4465 22.3562 39.8328 22.2246 39.9272C22.0987 40.0159 21.9527 40.0617 21.8068 40.0617Z" fill="#021D30"/>
<path d="M23.5525 45.6762C22.3849 45.6762 20.9799 44.4371 20.17 43.6129C17.9064 41.2978 14.4495 35.8978 14.3036 35.6689C14.0975 35.3455 14.1834 34.9191 14.4953 34.6988L16.6473 33.1821C16.9592 32.9618 17.3884 33.0276 17.626 33.3281C24.0104 41.5554 24.8173 43.5414 24.866 44.0164C24.9747 45.0437 24.4024 45.4301 24.1506 45.5503C23.9646 45.639 23.7614 45.6762 23.5525 45.6762ZM15.8832 35.4714C16.8447 36.9366 19.4517 40.8285 21.1945 42.6113C22.3821 43.8247 23.149 44.1681 23.4495 44.231C23.4495 44.211 23.4466 44.191 23.4438 44.1652C23.2892 43.3668 20.0727 38.8482 16.9105 34.7446L15.8832 35.4714Z" fill="#021D30"/>
<path d="M23.5098 53.6146C22.9432 53.6146 22.4167 53.5602 21.9388 53.4515C19.6723 52.9278 16.8765 51.4454 16.4472 47.3475C16.3299 46.2286 18.0097 44.4973 19.0227 43.5644C19.3146 43.2954 19.7668 43.3154 20.0329 43.6073C20.3019 43.8992 20.2819 44.3514 19.99 44.6175C18.914 45.6076 17.9038 46.8496 17.8695 47.2216C18.1442 49.8114 19.6208 51.4454 22.2593 52.055C22.6056 52.1351 23.0033 52.1752 23.444 52.1752C27.8081 52.1752 36.2872 48.2203 39.9959 40.2649C40.0761 40.0932 40.2192 39.9616 40.3966 39.8957L41.7187 39.4064C42.0878 39.269 42.4999 39.4579 42.6373 39.8299C42.7746 40.1991 42.5857 40.6112 42.2137 40.7485L41.1664 41.1377C37.3432 49.0359 28.7267 53.6146 23.5098 53.6146Z" fill="#021D30"/>
<path d="M26.3085 56.4532C26.131 56.4532 25.9536 56.3874 25.8191 56.2586L24.2538 54.7906C23.9647 54.5216 23.9504 54.0666 24.2223 53.7804C24.4941 53.4943 24.9463 53.4771 25.2325 53.749L26.4773 54.9165L27.0382 54.7133L26.6604 54.0294C26.4687 53.6831 26.5946 53.2482 26.9409 53.0564C27.2871 52.8676 27.7221 52.9906 27.9138 53.3369L28.6979 54.7563C28.7981 54.9394 28.8153 55.1569 28.7409 55.3544C28.6665 55.5489 28.5119 55.7035 28.3145 55.775L26.5517 56.4103C26.4744 56.4389 26.3914 56.4532 26.3085 56.4532Z" fill="#021D30"/>
<path d="M21.0023 48.3549C20.7361 48.3406 20.6388 48.1116 20.3527 48.1889C20.1867 48.2089 20.0579 48.0573 20.0322 47.9056C20.0064 47.7139 20.1581 47.5279 20.3126 47.4306C20.5902 47.3018 20.9508 47.2932 21.1911 47.505C21.4687 47.7024 21.6318 48.0144 21.2913 48.2433C21.2054 48.2977 21.1139 48.3663 21.0023 48.3549Z" fill="#021D30"/>
<path d="M21.0303 48.6411C21.0131 48.6411 20.996 48.6411 20.9788 48.6383C20.8042 48.6268 20.6783 48.5581 20.5868 48.5066C20.4895 48.4523 20.4751 48.4494 20.4265 48.4608L20.3864 48.4694C20.0573 48.5066 19.8026 48.2348 19.7511 47.9515C19.7053 47.6166 19.9286 47.3276 20.1661 47.1817L20.1947 47.1674C20.6125 46.9728 21.0789 47.0186 21.3823 47.2847C21.6255 47.4564 21.7743 47.7025 21.7715 47.9457C21.7686 48.0917 21.7114 48.3034 21.4538 48.478C21.3479 48.5495 21.2106 48.6411 21.0303 48.6411ZM20.4637 47.8856C20.6411 47.8856 20.7699 47.9572 20.8615 48.0087C20.9301 48.0459 20.9702 48.0659 21.016 48.0688H21.0246C21.0446 48.0602 21.0875 48.0316 21.1162 48.0116C21.1848 47.9658 21.1963 47.94 21.1963 47.9371C21.1963 47.9114 21.1534 47.8255 21.0246 47.734C20.8557 47.588 20.6211 47.6052 20.4494 47.6796C20.3664 47.734 20.3092 47.8227 20.3149 47.8627C20.3177 47.8713 20.3263 47.8856 20.3321 47.8942C20.3807 47.8885 20.4236 47.8856 20.4637 47.8856Z" fill="#021D30"/>
<path d="M30.7299 60.6744C31.1305 60.5828 31.5426 60.4855 31.9633 60.3825L32.1207 59.627C32.3468 58.5367 31.6886 57.4378 30.6183 57.1287C30.0374 56.9599 29.4107 57.0458 28.8956 57.3634C28.3805 57.681 28.0228 58.2047 27.914 58.8L27.3789 61.6874C28.3204 61.2324 29.4393 60.972 30.7299 60.6744Z" fill="#4AB69F"/>
<path d="M26.2461 67.7939L25.2646 73.0995C25.2417 73.2168 25.2503 73.337 25.2875 73.4486L25.9485 75.5033C26.0172 75.7208 26.186 75.8925 26.4035 75.964C26.4779 75.9898 26.5552 76.0012 26.6296 76.0012C26.7755 76.0012 26.9215 75.9554 27.0445 75.8696L28.8073 74.6219C28.9561 74.516 29.0563 74.3615 29.0935 74.1841L29.4283 72.5758C28.4324 71.5256 27.1075 69.8687 26.2461 67.7939Z" fill="#4AB69F"/>
<path d="M53.4488 51.8804C51.9178 50.0805 50.4583 49.1476 49.1105 49.1018C46.4806 49.0131 43.4158 50.6814 42.1395 52.8963C39.1061 58.1618 35.2743 59.5612 31.9633 60.3825C31.5427 60.4884 31.1306 60.5828 30.73 60.6744C29.4393 60.972 28.3204 61.2324 27.3761 61.6874C27.3561 61.696 27.336 61.7046 27.3188 61.7132C26.0053 62.3628 25.2756 63.765 25.5046 65.2073C25.6505 66.1259 25.9138 66.9901 26.2457 67.7942C27.1042 69.8689 28.432 71.5258 29.425 72.5761C29.5481 72.7077 29.6711 72.8336 29.7827 72.9452C30.4037 73.5662 31.2565 73.8953 32.2123 73.8953C32.3554 73.8953 32.5013 73.8867 32.6501 73.8724C40.7973 73.0511 45.8968 69.1821 48.7413 66.0801C51.5915 62.9694 52.7877 60.0448 52.9909 59.5125C53.383 58.8887 55.8583 54.7106 53.4488 51.8804ZM32.5071 72.4501C32.1007 72.4902 31.3395 72.4788 30.7958 71.9322C30.5983 71.7347 30.3751 71.5001 30.1405 71.2368C28.9157 69.8661 27.3417 67.6511 26.9182 64.984C26.7894 64.1656 27.2044 63.3672 27.9541 62.9952C28.5093 62.7205 29.1904 62.5201 29.9602 62.3284C30.006 62.4314 30.0746 62.523 30.1662 62.5974C31.4654 63.6162 32.3296 64.8267 32.9048 66.0371C34.3357 69.0505 33.9551 72.061 33.9493 72.1096C33.9408 72.164 33.9408 72.2155 33.9465 72.267C33.4772 72.3385 32.9964 72.4015 32.5071 72.4501ZM51.7489 58.7971C51.7175 58.8458 51.6917 58.8973 51.6717 58.9516C51.6316 59.0632 47.8056 69.3853 35.4002 72.0037C35.5089 70.7589 35.6492 66.0629 32.178 62.4887C31.9977 62.3027 31.8088 62.1195 31.6085 61.9421C31.763 61.9049 31.9204 61.8677 32.0778 61.8305C35.5776 60.9806 39.9903 59.4982 43.3814 53.6118C44.3744 51.889 46.8269 50.5326 48.9102 50.5326C48.9617 50.5326 49.0132 50.5326 49.0647 50.5355C49.9661 50.5641 51.1365 51.3739 52.3613 52.8105C54.21 54.9796 51.789 58.7313 51.7489 58.7971Z" fill="#021D30"/>
<path d="M67.2164 67.2676C66.9074 67.2676 66.6241 67.0673 66.5325 66.7582C66.418 66.3805 66.6327 65.9799 67.0104 65.8683L81.2844 61.5757C78.1423 52.2496 71.9954 46.6149 67.3309 43.5071C62.1312 40.0417 57.5955 38.877 57.5497 38.8655C57.1662 38.7682 56.9344 38.3819 57.0289 37.9984C57.1233 37.615 57.5125 37.3832 57.896 37.4776C58.0877 37.5263 62.6778 38.6995 68.0749 42.2852C73.06 45.5962 79.6733 51.6772 82.8698 61.8362C82.927 62.0193 82.9098 62.2168 82.8183 62.3856C82.7296 62.5544 82.575 62.6804 82.3919 62.7347L67.4196 67.2361C67.3567 67.259 67.2851 67.2676 67.2164 67.2676Z" fill="#021D30"/>
<path d="M48.8668 69.4452C48.7266 69.4452 48.5835 69.4052 48.4605 69.3165C47.8481 68.8901 47.5648 68.1232 47.5333 68.0373C47.4017 67.6653 47.5963 67.2561 47.9711 67.1244C48.3432 66.9928 48.7495 67.1874 48.884 67.5565C48.9327 67.691 49.0958 68.0115 49.2789 68.1403C49.6023 68.3664 49.6853 68.81 49.4592 69.1362C49.3161 69.3365 49.0929 69.4452 48.8668 69.4452Z" fill="#021D30"/>
<path d="M54.3757 86.3205C49.6511 86.3205 46.7923 85.0585 46.5891 84.967C46.3402 84.8553 46.1799 84.6121 46.1713 84.3402C45.722 70.3324 53.7977 63.9508 58.0158 63.7849C61.9677 63.6275 66.5035 67.0128 66.6952 67.1588C67.01 67.3963 67.073 67.8456 66.8355 68.1604C66.5979 68.4751 66.1486 68.5381 65.8339 68.3006C65.7909 68.2691 61.5099 65.0783 58.073 65.2128C56.4018 65.2787 53.7147 66.7038 51.474 69.74C49.6196 72.2554 47.4619 76.7225 47.5907 83.8223C49.3592 84.4519 56.7509 86.5466 66.8211 82.0481C67.0043 81.181 67.4507 78.6913 67.1674 75.8726C67.1273 75.4805 67.4135 75.1285 67.8084 75.0885C68.2062 75.0484 68.5524 75.3374 68.5925 75.7295C68.9674 79.484 68.1661 82.6032 68.1318 82.7349C68.0774 82.9438 67.9315 83.1155 67.7369 83.2042C62.4628 85.6166 57.9013 86.3205 54.3757 86.3205Z" fill="#021D30"/>
<path d="M69.1278 81.1407C68.8531 81.1407 68.5898 80.9804 68.4725 80.7114C68.3151 80.348 68.4811 79.9274 68.8445 79.77L70.5329 79.0345C70.8963 78.8771 71.317 79.0431 71.4744 79.4065C71.6318 79.77 71.4658 80.1906 71.1024 80.348L69.414 81.0835C69.3196 81.1207 69.2223 81.1407 69.1278 81.1407Z" fill="#021D30"/>
<path d="M60.6773 101.633C57.2204 101.633 54.3416 101.127 52.4586 100.675C51.809 100.52 51.3483 99.9649 51.3139 99.2982C51.2767 98.6343 51.6716 98.039 52.2955 97.813C59.6586 95.1545 69.145 87.82 71.5345 81.1409C72.4903 78.4652 69.9663 75.8954 69.9406 75.8697C69.6601 75.5892 69.663 75.1371 69.9406 74.8566C70.221 74.5762 70.6731 74.579 70.9536 74.8566C71.0852 74.9883 74.1415 78.1046 72.8824 81.6216C71.6747 85.0012 68.7243 88.7529 64.5778 92.1812C60.8776 95.2432 56.5765 97.7872 52.782 99.1579C52.7591 99.1665 52.7391 99.1723 52.7419 99.218C52.7448 99.2696 52.7705 99.2753 52.7934 99.281C58.0932 100.557 71.669 102.28 83.2273 90.779C87.5799 86.4464 89.6518 81.8792 89.3856 77.2061C88.9363 69.3021 81.8909 63.6446 81.8194 63.5902C81.5103 63.3441 81.4559 62.8948 81.702 62.5858C81.9453 62.2767 82.3945 62.2223 82.7065 62.4684C83.0184 62.7145 90.3185 68.5667 90.8136 77.1173C91.1083 82.2226 88.8963 87.1618 84.2375 91.7977C76.2734 99.7217 67.3879 101.633 60.6773 101.633Z" fill="#021D30"/>
<path d="M54.3728 84.8841C54.1725 84.8841 53.975 84.8011 53.8319 84.638C52.6071 83.23 51.3995 82.5032 50.2405 82.4831C48.9757 82.4603 48.1773 83.2959 48.1458 83.3331C47.8768 83.6192 47.4247 83.6393 47.1356 83.3731C46.8466 83.107 46.8237 82.6577 47.087 82.3687C47.1356 82.3143 48.3003 81.0552 50.189 81.0552C50.2033 81.0552 50.2205 81.0552 50.2348 81.0552C51.8259 81.0723 53.3998 81.9623 54.9108 83.7022C55.1712 83.9998 55.1369 84.452 54.8392 84.7124C54.7076 84.8269 54.5388 84.8841 54.3728 84.8841Z" fill="#021D30"/>
<path d="M72.4612 41.8759C71.6485 41.8759 70.7585 41.8272 69.7798 41.7213C69.3877 41.6784 69.1044 41.3264 69.1474 40.9315C69.1903 40.5366 69.548 40.2562 69.9372 40.2991C74.4643 40.7942 76.8166 39.9357 77.9957 39.1287C78.877 38.5249 79.2319 37.8781 79.3635 37.5519C77.4576 34.1007 72.0233 34.1293 67.748 34.7789C62.8145 35.5258 58.2701 37.2571 58.2244 37.2743C57.8552 37.4145 57.4431 37.2314 57.3 36.8622C57.1598 36.4931 57.343 36.081 57.7121 35.9379C58.4876 35.6403 76.7251 28.7523 80.7801 37.177C80.8459 37.3144 80.8659 37.4718 80.8373 37.6234C80.8001 37.8123 79.9187 41.8759 72.4612 41.8759Z" fill="#021D30"/>
<path d="M71.0344 62.2767C70.7397 62.2767 70.4621 62.0936 70.3591 61.7988C66.5216 50.8587 56.2024 43.7274 56.0993 43.6558C55.7731 43.4326 55.6873 42.9891 55.9105 42.6628C56.1337 42.3366 56.5772 42.2508 56.9035 42.474C57.3442 42.7744 67.7149 49.9315 71.7098 61.3267C71.8414 61.6987 71.644 62.1079 71.2719 62.2395C71.1947 62.2624 71.1145 62.2767 71.0344 62.2767Z" fill="#021D30"/>
<path d="M34.9227 58.6055C34.6995 58.6055 34.4791 58.4996 34.3389 58.305C34.11 57.9817 34.1872 57.5352 34.5077 57.3063C36.6998 55.7524 38.3281 53.071 38.3452 53.0453C38.5484 52.7076 38.9891 52.5989 39.3268 52.802C39.6645 53.0052 39.7761 53.4459 39.5729 53.7836C39.5014 53.9038 37.7786 56.7454 35.3376 58.4767C35.2117 58.5626 35.0658 58.6055 34.9227 58.6055Z" fill="#021D30"/>
<path d="M21.7099 69.0302C21.4838 69.0302 21.2635 68.9244 21.1233 68.724C20.3163 67.5708 20.3964 65.994 20.4079 65.8194C20.425 65.5504 20.5939 65.3129 20.8457 65.207L23.879 63.9336C24.2425 63.7819 24.6632 63.9536 24.8148 64.3171C24.9665 64.6805 24.7948 65.1012 24.4314 65.2528L21.8387 66.3403C21.8673 66.7981 21.9789 67.4535 22.2937 67.9027C22.5198 68.2261 22.4425 68.6725 22.1191 68.8986C21.9961 68.9873 21.853 69.0302 21.7099 69.0302Z" fill="#021D30"/>
</svg>
