<svg width="21" height="17" viewBox="0 0 21 17" fill="none" xmlns="http://www.w3.org/2000/svg">
<path d="M20.981 0.520038C20.9513 0.453496 20.8898 0.404776 20.8162 0.389437C19.5883 0.131053 18.4581 0 17.4574 0C15.2237 0 13.5195 0.652894 12.3917 1.94087C11.4609 3.00384 10.9164 4.46832 10.7333 6.4058C10.3698 6.57408 9.95544 6.83505 9.54205 7.24163C9.43227 7.34968 9.32684 7.46483 9.22458 7.58596C8.89053 6.61907 8.14721 5.76915 7.66189 5.28779C7.52178 3.85975 7.11686 2.77749 6.42784 1.99061C5.5859 1.02902 4.31318 0.541467 2.64529 0.541467C1.89786 0.541467 1.05404 0.639249 0.137116 0.83222C0.082107 0.843836 0.0362668 0.880151 0.0140518 0.929775C-0.00804565 0.979512 -0.00393078 1.03635 0.0253366 1.08248C0.418507 1.7047 0.72446 2.36831 1.02042 3.01027C1.82839 4.76291 2.5917 6.41832 4.88701 6.41832C5.53054 6.41832 6.26082 6.29009 7.10769 6.02866C7.7598 6.70569 8.58505 7.81333 8.44612 8.76893C8.22432 9.20077 8.03167 9.67863 7.86982 10.2026C7.60888 11.0467 7.42775 12.0122 7.3262 13.0884C3.24592 13.2274 1.65973 15.1782 1.07191 16.3584C1.0028 16.4972 1.01267 16.6608 1.09824 16.7909C1.18392 16.9211 1.3332 17 1.49364 17H14.096C14.0965 17 14.0967 17 14.0972 17C14.3553 17 14.5648 16.7992 14.5648 16.5516C14.5648 16.4526 14.5313 16.3611 14.4745 16.2867C13.2428 14.4429 11.6926 13.1906 8.26428 13.0871C8.55307 10.1718 9.41441 8.67036 10.1784 7.90073C10.5075 7.56927 10.8296 7.35983 11.1043 7.2272C12.4012 7.65949 13.4999 7.86971 14.4562 7.86971C17.5297 7.86971 18.5519 5.65287 19.634 3.30587C20.0302 2.44613 20.44 1.55741 20.9667 0.724287C21.0052 0.662595 21.0108 0.586579 20.981 0.520038Z" fill="#292929"/>
</svg>
