<svg width="25" height="22" viewBox="0 0 25 22" fill="none" xmlns="http://www.w3.org/2000/svg">
<path d="M24.9774 1.57309C24.942 1.4909 24.8688 1.43071 24.7812 1.41176C23.3194 1.09258 21.974 0.930695 20.7826 0.930695C18.1234 0.930695 16.0946 1.73721 14.752 3.32824C13.6439 4.64132 12.9958 6.45038 12.7778 8.84375C12.345 9.05161 11.8517 9.37399 11.3596 9.87624C11.2289 10.0097 11.1034 10.152 10.9816 10.3016C10.584 9.1072 9.69906 8.05729 9.1213 7.46268C8.9545 5.69862 8.47245 4.36171 7.65219 3.38968C6.64988 2.20184 5.13474 1.59957 3.14916 1.59957C2.25936 1.59957 1.25481 1.72036 0.163233 1.95873C0.0977464 1.97308 0.0431748 2.01794 0.0167284 2.07924C-0.00957815 2.14068 -0.0046795 2.2109 0.0301626 2.26788C0.498223 3.0365 0.862452 3.85626 1.21479 4.64926C2.17666 6.81428 3.08536 8.85921 5.81787 8.85921C6.58398 8.85921 7.45335 8.70081 8.46153 8.37786C9.23786 9.2142 10.2203 10.5825 10.0549 11.7629C9.79086 12.2964 9.56151 12.8866 9.36883 13.5339C9.05819 14.5766 8.84256 15.7693 8.72166 17.0987C3.86419 17.2705 1.97586 19.6803 1.27608 21.1381C1.1938 21.3096 1.20556 21.5116 1.30743 21.6724C1.40943 21.8332 1.58714 21.9307 1.77814 21.9307H16.781C16.7815 21.9307 16.7818 21.9307 16.7824 21.9307C17.0896 21.9307 17.339 21.6827 17.339 21.3768C17.339 21.2544 17.2991 21.1415 17.2315 21.0495C15.7652 18.7719 13.9197 17.2249 9.83843 17.0972C10.1822 13.4959 11.2076 11.6411 12.1172 10.6904C12.509 10.281 12.8924 10.0222 13.2194 9.85841C14.7633 10.3924 16.0713 10.6521 17.2097 10.6521C20.8687 10.6521 22.0857 7.91365 23.3738 5.01442C23.8455 3.95239 24.3333 2.85455 24.9603 1.8254C25.0062 1.74919 25.0128 1.65529 24.9774 1.57309Z" fill="#292929"/>
</svg>
