<svg xmlns="http://www.w3.org/2000/svg" width="42" height="42" fill="none" viewBox="0 0 42 42">
  <path fill="#232323" d="M20.58 39.84c10.715 0 19.4-8.686 19.4-19.4 0-10.714-8.685-19.4-19.4-19.4-10.714 0-19.4 8.686-19.4 19.4 0 10.714 8.686 19.4 19.4 19.4Z"/>
  <mask id="a" width="39" height="39" x="1" y="1" maskUnits="userSpaceOnUse" style="mask-type:luminance">
    <path fill="#fff" d="M20.58 39.84c10.715 0 19.4-8.686 19.4-19.4 0-10.714-8.685-19.4-19.4-19.4-10.714 0-19.4 8.686-19.4 19.4 0 10.714 8.686 19.4 19.4 19.4Z"/>
  </mask>
  <g mask="url(#a)">
    <path fill="#F1FBFC" d="M36.97 33.7c-4.09-7.7-14.74-11.12-23.79-7.65C4.13 29.53.1 38.59 4.19 46.29c4.09 7.7 14.74 11.12 23.79 7.65 9.05-3.47 13.08-12.54 8.99-20.24Z"/>
    <path fill="#C2EDEF" d="M12.81 36.66a1.786 1.786 0 0 0-.89 2.36 1.8 1.8 0 0 0 1.97 1.02c.13-.03.27-.07.39-.12a1.79 1.79 0 1 0-1.48-3.26h.01Zm-.77 5.5a3.821 3.821 0 0 0-5.06-1.91c-.28.12-.53.28-.76.46a3.836 3.836 0 0 0-1.16 4.61c.74 1.65 2.52 2.51 4.22 2.18.28-.06.57-.14.84-.27a3.821 3.821 0 0 0 1.91-5.06l.01-.01Zm14.78-6.5c-.21.1-.41.22-.59.36-1.07.82-1.48 2.3-.9 3.59a2.978 2.978 0 0 0 3.95 1.49c1.5-.68 2.17-2.44 1.49-3.94a2.976 2.976 0 0 0-3.94-1.49l-.01-.01Zm6.93 2.18c-.14.06-.26.14-.38.23a1.91 1.91 0 0 0 1.52 3.39c.14-.03.28-.07.42-.13.96-.43 1.39-1.56.95-2.52a1.899 1.899 0 0 0-2.52-.95l.01-.02Zm-2.51-3.61c.92-.42 1.33-1.5.91-2.42a1.826 1.826 0 0 0-2.78-.69c-.66.5-.91 1.41-.55 2.2a1.822 1.822 0 0 0 2.41.91h.01Zm-20.97 2.21c.17-.03.34-.08.51-.16a2.307 2.307 0 0 0 1.15-3.05 2.307 2.307 0 0 0-3.05-1.15c-.17.07-.32.17-.46.27-.83.64-1.14 1.78-.7 2.77.44.99 1.51 1.51 2.54 1.31l.01.01Z"/>
    <mask id="b" width="37" height="32" x="2" y="24" maskUnits="userSpaceOnUse" style="mask-type:luminance">
      <path fill="#fff" d="M36.97 33.7c-4.09-7.7-14.74-11.12-23.79-7.65C4.13 29.53.1 38.59 4.19 46.29c4.09 7.7 14.74 11.12 23.79 7.65 9.05-3.47 13.08-12.54 8.99-20.24Z"/>
    </mask>
    <g mask="url(#b)">
      <path fill="#C2EDEF" d="M30.93 26.34c4.93 9.04 3.73 21.56-8.36 27.01-5.33 2.41-10.27 2.3-14.45.63 5.14 4.95 12.97 6.56 19.87 3.44 9.05-4.09 13.08-14.74 8.99-23.79-1.37-3.04-3.5-5.5-6.05-7.29Z" opacity=".45"/>
    </g>
    <path fill="#00E1EC" d="M12.96 26.62s.44-1.21 1.65-1.01c1.21.2 1.38.79 1.38.79.4-2.03 2.75-1.69 2.75-1.69 1.83-1.37 3.47.28 3.47.28 2.81-1.76 4.05 1.08 4.05 1.08 1.49-1.21 2.76.43 2.76.43 1.21-.48 1.73 1.09 1.78 1.61.07.78-.78 1.79-2.14.99 0 0-.44 1.21-1.65 1.01-1.21-.2-1.38-.79-1.38-.79-.4 2.03-2.75 1.69-2.75 1.69-1.83 1.37-3.47-.28-3.47-.28-2.81 1.76-4.05-1.08-4.05-1.08-1.49 1.21-2.76-.43-2.76-.43-1.21.48-1.91-.36-1.96-.88-.07-.78.97-2.52 2.32-1.72Z"/>
    <path fill="#05DBDB" d="M30.66 27.53c-.35.22-.77.37-1.3.37-.28 0-.53-.05-.76-.12-.39.48-.99.8-1.79.8-.52 0-.95-.14-1.3-.36-.33.77-1.04 1.36-2.12 1.36-.48 0-.88-.12-1.21-.32-.33.19-.73.32-1.21.32-.38 0-.72-.07-1.01-.2-.34.2-.74.33-1.23.33-.98 0-1.65-.47-2.02-1.13-.33.19-.73.32-1.21.32-.75 0-1.31-.29-1.7-.71-.2.05-.42.09-.66.09-1 0-1.68-.49-2.04-1.17-.3.41-.47.9-.44 1.23.05.51.75 1.36 1.96.88 0 0 1.26 1.64 2.76.43 0 0 1.24 2.85 4.05 1.08 0 0 1.64 1.65 3.47.28 0 0 2.35.34 2.75-1.69 0 0 .17.59 1.38.79 1.21.2 1.65-1.01 1.65-1.01 1.35.8 2.21-.2 2.13-.99-.01-.14-.06-.35-.14-.57l-.01-.01Z" style="mix-blend-mode:multiply"/>
    <path fill="#232323" d="M21.36 32.05c-.82 0-1.53-.35-2-.71-.87.47-1.7.58-2.47.34-.84-.26-1.39-.88-1.7-1.33-.39.2-.8.27-1.21.23-.69-.08-1.23-.5-1.53-.79-.55.14-1.07.07-1.5-.2-.45-.27-.76-.75-.8-1.21-.06-.66.4-1.69 1.18-2.19.45-.28.94-.35 1.42-.22.35-.5.99-1.03 1.96-.87.48.08.84.22 1.1.37.63-1.14 1.97-1.37 2.81-1.3 1.46-.97 2.89-.41 3.66.19.87-.46 1.7-.58 2.47-.34.84.26 1.39.88 1.7 1.33.39-.2.79-.27 1.21-.23.7.08 1.25.51 1.54.79.36-.07.72 0 1.03.19.78.48 1.05 1.59 1.08 1.94.06.61-.26 1.24-.79 1.57-.29.18-.85.41-1.64.12-.35.5-.99 1.01-1.94.85-.48-.08-.84-.22-1.1-.37-.63 1.14-1.96 1.37-2.81 1.3-.57.38-1.13.52-1.66.52l-.01.02Zm-1.94-1.83c.13 0 .26.05.36.15.14.14 1.39 1.3 2.81.24.11-.08.24-.11.37-.09.19.03 1.89.21 2.19-1.3.04-.23.24-.39.47-.4.23-.02.44.14.5.36 0 0 .19.3.98.43.76.13 1.07-.61 1.11-.7.05-.14.16-.25.3-.29.14-.05.29-.03.42.04.29.17.71.34 1.06.12.24-.15.34-.43.32-.63-.03-.3-.26-.96-.61-1.17-.09-.06-.23-.11-.48-.01-.21.08-.44.02-.58-.16 0 0-.48-.6-1.1-.67-.31-.03-.62.07-.94.33-.12.1-.28.13-.43.1a.495.495 0 0 1-.34-.29s-.46-1.01-1.37-1.29c-.57-.17-1.23-.03-1.96.43-.2.12-.46.09-.62-.07-.13-.13-1.39-1.3-2.81-.24-.11.08-.24.11-.37.09-.19-.03-1.89-.21-2.19 1.3-.04.23-.24.39-.47.4-.21.03-.44-.14-.5-.36 0 0-.19-.3-.98-.43-.76-.13-1.07.61-1.11.7-.05.14-.16.25-.3.29a.48.48 0 0 1-.42-.04c-.3-.18-.57-.18-.85 0-.46.29-.75.95-.72 1.25 0 .11.12.31.33.45.25.15.58.16.95.01.21-.08.44-.02.58.16 0 0 .48.6 1.1.67.32.04.62-.07.94-.33.12-.1.28-.13.43-.1.15.04.28.14.34.29 0 0 .46 1.01 1.37 1.29.57.18 1.23.03 1.96-.43.08-.05.17-.08.27-.08l-.01-.02Z"/>
    <path fill="#00E1EC" d="M28.34 24.57c-.75-1.27-2.28-.93-2.28-.93l.15.45c-.21-.51-.85-1.61-2.46-1.22 0 0-.06-1.21-2.14-1.22-2.08-.02-2.11.17-2.11.17-1.55-.12-1.87 1.02-1.87 1.02-1.46-.54-2.11.96-2.11.96s-1.21-.41-1.86.43c-1.34 1.72.99 2.96 2.09 2.46.37.03.77.06 1.21.09.66.92 2.02.74 2.02.74 1.55 1.16 2.94-.24 2.94-.24 1.78 1.11 2.81.05 3.23-.56.23-.03.45-.05.67-.08 2.45.8 3.1-1.09 2.53-2.06l-.01-.01Z"/>
    <path fill="#F1FBFC" d="M25.85 24.75c.27-.1.56-.17.9-.17.8 0 1.39.32 1.79.79.01-.29-.05-.57-.19-.8-.75-1.27-2.28-.93-2.28-.93l.15.45c-.21-.51-.85-1.61-2.46-1.22 0 0-.06-1.21-2.14-1.22-2.08-.02-2.11.17-2.11.17-1.55-.12-1.87 1.02-1.87 1.02-1.46-.54-2.11.96-2.11.96s-1.21-.41-1.86.43c-.14.19-.24.36-.3.54.33-.19.72-.31 1.19-.31s.83.11 1.15.28c.35-.73 1.04-1.28 2.09-1.28.17 0 .33.02.49.05.36-.7 1.04-1.23 2.07-1.23.23 0 .43.03.62.08.19-.05.4-.08.62-.08 1.01 0 1.69.51 2.05 1.19.04 0 .08-.01.13-.01 1.06 0 1.74.56 2.08 1.29h-.01Z"/>
    <path fill="#05DBDB" d="M28.4 24.69c-.39.39-.94.66-1.65.66-.53 0-.96-.15-1.31-.38-.39.48-.99.81-1.8.81-.55 0-1-.15-1.36-.4-.39.5-.99.84-1.82.84-.43 0-.79-.1-1.1-.25-.23.07-.48.13-.77.13-.86 0-1.48-.38-1.86-.91-.3.14-.65.23-1.06.23-.99 0-1.67-.49-2.03-1.15-1.28 1.7 1.02 2.92 2.11 2.42.37.03.77.06 1.21.09.66.92 2.02.74 2.02.74 1.55 1.16 2.94-.24 2.94-.24 1.78 1.11 2.81.05 3.23-.56.23-.03.45-.05.67-.08 2.35.77 3.04-.94 2.59-1.94l-.01-.01Z" style="mix-blend-mode:multiply"/>
    <path fill="#232323" d="M20.27 28.47c-.45 0-.94-.12-1.43-.45-.44.02-1.46-.03-2.13-.77-.31-.02-.6-.04-.88-.06-.85.3-2.06-.08-2.67-.85-.57-.72-.53-1.6.12-2.42.59-.76 1.48-.77 2-.69.37-.56 1.09-1.16 2.1-.99.32-.47.95-.98 2.02-.93.34-.12.97-.17 2.23-.16 1.6.01 2.23.67 2.48 1.16 1.05-.11 1.7.34 2.1.81.55-.06 1.84-.04 2.57 1.2.41.7.34 1.63-.18 2.26-.28.35-1.11 1.08-2.83.56-.12.02-.23.03-.35.05-.47.59-1.63 1.64-3.44.69-.41.3-1.02.59-1.7.59h-.01Zm-1.29-1.46c.11 0 .21.03.3.1 1.16.86 2.17-.08 2.28-.19.17-.16.42-.19.62-.07 1.06.66 1.91.52 2.55-.41.08-.12.21-.2.36-.22.22-.02.44-.05.65-.08a.6.6 0 0 1 .23.02c.86.28 1.52.21 1.85-.2.28-.35.26-.84.09-1.13-.31-.53-.81-.68-1.19-.72a.503.503 0 0 1-.97.18c-.23-.57-.75-1.19-1.88-.92-.14.03-.3 0-.42-.09a.512.512 0 0 1-.2-.37c0-.02-.11-.74-1.65-.75-1.29-.01-1.72.06-1.84.09-.09.06-.19.08-.31.08-1.09-.08-1.33.59-1.36.66-.04.13-.14.24-.26.3s-.26.07-.39.02c-.99-.36-1.43.58-1.48.69-.1.24-.37.36-.62.28 0 0-.88-.28-1.31.26-.35.45-.39.84-.12 1.19.39.49 1.21.69 1.61.51.08-.04.16-.05.25-.04.36.03.77.06 1.19.09.15 0 .29.09.38.21.47.66 1.54.54 1.55.54h.07l.02-.03Z"/>
    <path fill="#00E1EC" d="M19.69 23.29v-3.12h1.93v2.74"/>
    <path fill="#232323" d="M19.69 23.79c-.28 0-.5-.22-.5-.5v-3.12c0-.28.22-.5.5-.5h1.93c.28 0 .5.22.5.5v2.74c0 .28-.22.5-.5.5s-.5-.22-.5-.5v-2.24h-.93v2.62c0 .28-.22.5-.5.5Z"/>
    <path fill="#232323" d="M15.04 22.03a1.246 1.246 0 0 1-1.14-1.73l5.51-11.83c.03-.3.2-.57.46-.74.2-.13.4-.19.68-.18h.08c.24-.01.48.06.68.18.26.16.43.44.46.74l5.5 11.81a1.243 1.243 0 0 1-1.37 1.74l-5-.99c-.11-.02-.21-.06-.3-.1-.09.05-.2.08-.3.1l-5 .99c-.08.02-.16.02-.24.02l-.02-.01Zm6.9-2.84 2.87.57-3.09-6.63v.1l.22 5.97v-.01Zm-2.49-6.07-3.09 6.64 2.87-.57.22-6.07Zm.27.07v.03-.03Zm1.73-.01v.02-.02Zm-.91-1.2c.32.01.58.12.78.28l-.74-1.58-.73 1.56c.18-.15.42-.25.68-.26h.01Z"/>
    <path fill="#fff" d="M26.35 20.69S20.66 8.54 20.61 8.55h-.04c-.05 0-5.74 12.14-5.74 12.14-.08.18.08.37.27.33l4.76-.99c.06-.01.11-.07.11-.13l.23-6.59.02-.18c0-.08.1-.22.25-.22s.25.14.26.22l.02.18.23 6.59c0 .06.05.12.11.13l5 .99c.19.04.35-.15.27-.33h-.01Z"/>
  </g>
  <path fill="#232323" d="M26.83 12.52c-1.92 0-3.49-1.56-3.49-3.49 0-1.93 1.56-3.49 3.49-3.49 1.93 0 3.49 1.56 3.49 3.49 0 1.93-1.56 3.49-3.49 3.49Zm0-5.98c-1.37 0-2.49 1.12-2.49 2.49s1.12 2.49 2.49 2.49 2.49-1.12 2.49-2.49-1.12-2.49-2.49-2.49Z"/>
  <path fill="#00E1EC" d="M26.83 12.02a2.99 2.99 0 1 0 0-5.98 2.99 2.99 0 0 0 0 5.98Z"/>
  <path fill="#F1FBFC" d="M27.03 6.52c1.12 0 1.93.47 2.45 1.16a2.97 2.97 0 0 0-2.65-1.64c-1.65 0-2.99 1.34-2.99 2.99 0 .21.02.42.07.62.05-1.58 1.09-3.13 3.12-3.13Z"/>
  <path fill="#05DBDB" d="M29.5 7.71c0 1.62-1.05 3.23-3.13 3.23-1.08 0-1.87-.44-2.39-1.08.36 1.24 1.5 2.16 2.86 2.16 1.65 0 2.99-1.34 2.99-2.99 0-.48-.12-.92-.32-1.32h-.01Z" style="mix-blend-mode:multiply"/>
  <path fill="#232323" d="M26.22 10.51s-.12-.03-.17-.08l-.91-1.08a.213.213 0 0 1 .03-.31c.09-.08.23-.07.31.03l.75.89 1.86-2.09c.08-.09.22-.1.31-.02s.1.22.02.31l-2.03 2.28s-.1.07-.16.07h-.01Z"/>
  <path fill="#00E2ED" d="M9.56 17.3a.5.5 0 1 0 0-1 .5.5 0 0 0 0 1Zm20.77 2.42a.51.51 0 1 0 0-1.02.51.51 0 0 0 0 1.02Z"/>
  <path fill="#F1FBFC" d="M11.59 9.03c.18 0 .3.33.38.67.09.38.39.68.77.77.33.08.67.2.67.38s-.33.3-.67.38c-.38.09-.68.39-.77.77-.08.33-.2.67-.38.67s-.3-.33-.38-.67a1.04 1.04 0 0 0-.77-.77c-.33-.08-.67-.2-.67-.38s.33-.3.67-.38c.38-.09.68-.39.77-.77.08-.33.2-.67.38-.67ZM6.47 20.05c.09 0 .16.17.2.35.05.2.2.35.4.4.17.04.35.1.35.2s-.17.16-.35.2c-.2.05-.35.2-.4.4-.04.17-.1.35-.2.35s-.16-.17-.2-.35c-.05-.2-.2-.35-.4-.4-.17-.04-.35-.1-.35-.2s.17-.16.35-.2c.2-.05.35-.2.4-.4.04-.17.1-.35.2-.35Zm26.59-7.78c.13 0 .23.25.29.5.07.29.29.51.58.58.25.06.5.15.5.29 0 .14-.25.23-.5.29a.78.78 0 0 0-.58.58c-.06.25-.15.5-.29.5-.14 0-.23-.25-.29-.5a.78.78 0 0 0-.58-.58c-.25-.06-.5-.15-.5-.29 0-.14.25-.23.5-.29a.78.78 0 0 0 .58-.58c.06-.25.15-.5.29-.5Zm1.99 9.67c.09 0 .15.17.19.34.05.2.2.35.39.39.17.04.34.1.34.19s-.17.15-.34.19c-.2.05-.35.2-.39.39-.04.17-.1.34-.19.34s-.15-.17-.19-.34c-.05-.2-.2-.35-.39-.39-.17-.04-.34-.1-.34-.19s.17-.15.34-.19c.2-.05.35-.2.39-.39.04-.17.1-.34.19-.34Z"/>
</svg>
