<svg width="91" height="89" viewBox="0 0 91 89" fill="none" xmlns="http://www.w3.org/2000/svg">
<path d="M63.6055 38.0245C63.5253 38.0245 63.4423 38.0102 63.3622 37.9816C62.9902 37.8471 62.7984 37.4379 62.9329 37.0659C65.6515 29.5196 63.5511 21.2723 63.5282 21.1893C63.5196 21.1521 62.478 17.2974 59.3816 13.6259C55.2665 8.74105 49.6405 6.46029 42.6523 6.84376C42.2688 6.86951 41.9197 6.56331 41.8997 6.1684C41.8768 5.77349 42.1801 5.43581 42.575 5.41578C51.8898 4.90354 57.4729 9.12165 60.5148 12.7503C63.8 16.6679 64.8674 20.6599 64.9132 20.8287C65.0048 21.1836 67.1482 29.5912 64.2779 37.5524C64.1749 37.8443 63.9002 38.0245 63.6055 38.0245Z" fill="#021D30"/>
<path d="M23.498 40.6917C23.249 40.6917 23.0086 40.5629 22.877 40.3311C17.437 30.776 18.2554 19.335 24.863 12.5099C25.1377 12.2266 25.5899 12.2181 25.876 12.4928C26.1593 12.7675 26.1679 13.2196 25.8932 13.5058C19.7263 19.8759 18.9966 30.6157 24.1247 39.6243C24.3193 39.9677 24.1991 40.4055 23.8557 40.6001C23.7384 40.6602 23.6182 40.6917 23.498 40.6917Z" fill="#021D30"/>
<path d="M26.3058 14.6933C26.1112 14.6933 25.9166 14.6132 25.7764 14.4586C19.6696 7.71938 24.6489 0.854233 24.6976 0.785553C24.9093 0.499386 25.2985 0.413538 25.6133 0.582377C31.4311 3.73022 47.2533 5.56455 47.4106 5.58172C47.8027 5.6275 48.086 5.98235 48.0402 6.3744C47.9944 6.76645 47.6396 7.04689 47.2475 7.00397C46.6065 6.92957 31.9405 5.22974 25.5189 2.14199C24.6003 3.69588 22.3653 8.56358 26.8352 13.4971C27.1014 13.789 27.0785 14.2411 26.7866 14.5073C26.6492 14.6332 26.4775 14.6933 26.3058 14.6933Z" fill="#021D30"/>
<path d="M30.4916 18.2733C29.1066 20.3337 26.1848 18.6653 26.016 20.8459C25.767 24.0911 32.057 23.2526 34.4751 19.9245C34.9701 19.2405 35.4538 18.4908 35.4767 17.6466C35.4996 16.8024 34.9158 15.8952 34.0744 15.8351C34.0744 15.8351 32.6751 15.0281 30.4916 18.2733Z" fill="#021D30"/>
<path d="M50.9684 15.7263C52.8485 17.3488 55.2266 14.9679 55.9649 17.0283C57.0638 20.0932 50.771 20.9431 47.563 18.3704C46.9048 17.8439 46.2409 17.2458 45.9948 16.4388C45.7487 15.6318 46.0721 14.6016 46.8677 14.3212C46.8677 14.3212 48.0066 13.1736 50.9684 15.7263Z" fill="#021D30"/>
<path d="M26.3779 37.4007C26.1318 36.9057 25.6854 35.6694 26.3579 34.1756C25.3706 33.4774 24.5178 32.5388 23.7996 31.3655C23.3961 31.6917 23.0412 32.078 22.7694 32.5245C23.0927 32.4128 23.4333 32.3642 23.7767 32.4128C25.797 32.679 24.9471 33.878 23.7309 34.5963C23.253 34.8825 22.7121 35.1114 22.1455 35.1171C22.1655 35.3775 22.2056 35.6465 22.2714 35.9184C22.7951 38.5769 25.8571 40.1422 28.3382 39.2837C27.534 38.9203 26.8043 38.2592 26.3779 37.4007Z" fill="#4AB69F"/>
<path d="M26.7874 30.2893C26.1779 30.2979 25.5855 30.4209 25.0332 30.6442C25.6342 31.6171 26.3324 32.3926 27.1308 32.9707C27.4513 32.5901 27.8548 32.2038 28.3585 31.8146C27.9693 31.6343 27.2996 31.2136 26.7874 30.2893Z" fill="#4AB69F"/>
<path d="M64.2945 31.5083C64.2831 31.2278 64.2487 30.9588 64.1944 30.7041C63.6506 30.8529 63.0669 30.7843 62.5289 30.6412C61.1639 30.2863 60.0163 29.3677 61.8821 28.555C62.1998 28.4119 62.5403 28.3662 62.8809 28.3833C62.5203 28.0542 62.1082 27.791 61.6675 27.5935C61.2325 28.638 60.6573 29.5366 59.9333 30.2863C60.1193 30.5239 60.2767 30.7757 60.3998 31.0447C60.7718 31.8545 60.4656 33.0049 59.5814 34.121C59.2494 34.5416 58.5883 35.2399 57.498 35.9324C57.85 36.0984 58.2306 36.2272 58.6399 36.3044C61.5072 37.0084 64.5463 34.4701 64.2945 31.5083Z" fill="#4AB69F"/>
<path d="M56.5859 28.3062C57.4959 28.5752 58.2629 28.9129 58.8753 29.3278C59.4476 28.7412 59.9141 28.0344 60.2775 27.2159C59.0069 27.0585 57.6619 27.3962 56.5859 28.3062Z" fill="#4AB69F"/>
<path d="M59.5787 34.124C60.4629 33.008 60.772 31.8576 60.3971 31.0477C60.2741 30.7787 60.1167 30.5269 59.9307 30.2894C60.6547 29.5396 61.2299 28.6382 61.6649 27.5966C62.2916 26.0885 62.6178 24.2827 62.6321 22.1851C62.6321 21.9705 62.5377 21.7645 62.3717 21.6271C62.2887 21.5584 53.8153 14.7562 44.3231 20.9861C44.1429 21.1034 44.0255 21.298 44.0026 21.5126C43.9912 21.6214 43.8652 22.9807 44.1543 24.7177C42.463 24.4401 41.264 25.0926 40.6688 25.539C40.5429 23.4757 39.9419 21.9047 39.8961 21.7931C39.816 21.5928 39.6529 21.4382 39.4468 21.3724C36.7883 20.5282 34.4017 20.4252 32.3098 20.7486C32.1124 20.7629 31.9178 20.7858 31.7289 20.8316C31.6202 20.8573 31.5086 20.8888 31.397 20.9203C25.5534 22.2223 22.2797 26.7896 22.2367 26.8525C22.1137 27.0299 22.0765 27.2531 22.1366 27.4592C22.5687 28.9644 23.1239 30.2665 23.7964 31.3654C24.5146 32.5387 25.3703 33.4802 26.3547 34.1755C25.6851 35.6693 26.1286 36.9056 26.3747 37.4006C26.8011 38.2591 27.5308 38.9202 28.335 39.2808C28.7699 39.4753 29.2249 39.5841 29.6685 39.5841C30.0005 39.5841 30.3238 39.524 30.6243 39.3981C30.9677 39.2521 31.3311 39.0804 31.7146 38.8973C32.8135 38.3765 34.1012 37.7727 35.7095 37.3749L35.7782 38.5482C35.7953 38.8544 36.0071 39.1148 36.3019 39.1978C36.9915 39.3866 37.7871 39.4582 38.5883 39.4582C40.7432 39.4582 42.9238 38.9517 43.0497 38.923C43.3816 38.8458 43.6106 38.5453 43.602 38.2048L43.5791 37.4436C43.8939 37.5037 44.203 37.558 44.5063 37.6095L44.6494 39.1978C44.678 39.5183 44.9183 39.7815 45.236 39.8388C45.6223 39.9075 46.0401 39.9361 46.4694 39.9361C48.919 39.9361 51.7864 38.9831 51.9266 38.9345C52.2385 38.8286 52.4388 38.5281 52.4102 38.199L52.3759 37.7727C54.6709 37.4064 56.3278 36.6766 57.4954 35.9383C58.5857 35.2458 59.2467 34.5447 59.5787 34.124ZM61.1955 22.5285C61.1498 24.3657 60.8407 25.9311 60.2741 27.2131C59.9107 28.0344 59.4442 28.7412 58.8719 29.325C58.2595 28.9101 57.4925 28.5724 56.5825 28.3034C56.5511 28.2948 56.5224 28.2834 56.4881 28.2748C57.1434 27.7368 57.5154 27.1358 57.7215 26.6293C58.3053 25.1956 58.0563 23.3813 57.0375 21.6443C56.6655 21.0118 56.1848 20.4796 55.6096 20.056C58.4426 20.6599 60.4858 22.0077 61.1955 22.5285ZM49.497 20.9918C50.2439 20.5082 51.7206 20.1505 53.2 20.4996C54.0013 20.6885 55.1031 21.1664 55.807 22.3683C56.5968 23.7161 56.8143 25.0726 56.3994 26.0884C56.0817 26.8697 55.4006 27.4563 54.3848 27.8369C53.3145 27.6824 52.1126 27.5937 50.7762 27.5737C50.759 27.5594 50.739 27.545 50.7218 27.5307C49.9635 26.8353 49.7546 25.7851 49.8805 25.1012C50.1008 23.9079 51.6719 23.0751 52.7593 23.2525C53.0827 23.3069 53.3202 23.4986 53.4604 23.8249C53.6436 24.2512 53.5921 24.7435 53.4433 24.9638C53.3975 25.0153 53.1771 25.1384 52.9625 25.1069C52.8652 25.0926 52.7393 25.0468 52.6277 24.8121C52.4589 24.4544 52.0325 24.3056 51.6748 24.4745C51.317 24.6433 51.1654 25.0697 51.3371 25.4274C51.649 26.0827 52.2156 26.4862 52.8881 26.5377C53.5663 26.5864 54.2932 26.2687 54.6252 25.7765C55.0773 25.1069 55.1402 24.0967 54.7797 23.2611C54.4477 22.4913 53.801 21.9762 52.9997 21.8417C51.2198 21.547 48.856 22.7918 48.4811 24.8436C48.3151 25.7508 48.5098 26.7495 48.9791 27.5851C48.6214 27.5937 48.2579 27.6051 47.8859 27.6223C47.7829 27.4191 47.6799 27.2016 47.5826 26.9527C46.4923 24.1711 47.9346 22.0048 49.497 20.9918ZM45.4077 21.9905C46.0687 21.5756 46.7241 21.2322 47.3708 20.9432C46.3663 22.0564 45.6481 23.5959 45.774 25.4331C45.3962 23.9508 45.3877 22.5972 45.4077 21.9905ZM40.663 27.0958C40.7002 27.1015 40.7375 27.1043 40.7747 27.1043C40.9664 27.1043 41.1581 27.0271 41.2983 26.8783C41.3498 26.8239 42.4974 25.6449 44.512 26.2744C44.6637 26.781 44.8583 27.2961 45.1015 27.8055C44.8983 27.8226 44.6951 27.8398 44.4891 27.8598C43.0268 28 41.7047 28.1489 40.5057 28.3034C40.5829 27.897 40.6344 27.4935 40.663 27.0958ZM38.6713 22.6315C38.9489 23.5044 39.6214 26.0455 38.9861 28.518C38.6255 28.5695 38.2764 28.6239 37.9445 28.6783C38.3308 27.5994 38.3937 26.449 38.2306 25.5505C37.9845 24.1969 37.272 23.0007 36.2046 22.1136C36.9944 22.2109 37.8157 22.3769 38.6713 22.6315ZM32.0523 22.2223C32.8736 22.0335 33.9496 22.2853 34.8567 22.8834C35.907 23.5759 36.6052 24.6118 36.8227 25.7994C36.9858 26.6865 36.8456 27.9743 36.2246 28.9702C34.1298 29.3622 32.6532 29.7571 31.6202 30.1005C31.0135 29.8401 30.5585 29.4423 30.2838 28.9158C29.8087 28.0029 29.969 26.9441 30.3181 26.346C30.9305 25.2986 32.6933 25.0497 33.6548 25.5905C33.941 25.7508 34.0984 26.014 34.1184 26.3689C34.1442 26.8296 33.9267 27.276 33.7121 27.4334C33.652 27.4649 33.4059 27.505 33.2113 27.4019C33.1254 27.3562 33.0195 27.2703 32.9966 27.0099C32.9594 26.6179 32.6132 26.3288 32.2154 26.366C31.8233 26.4032 31.5343 26.7524 31.5715 27.1473C31.6402 27.8684 32.0351 28.4407 32.6532 28.7183C33.2714 28.9959 34.064 28.9444 34.5448 28.5953C35.1973 28.1202 35.6008 27.1902 35.5492 26.283C35.5006 25.4474 35.0656 24.7406 34.3588 24.34C32.7849 23.4557 30.1407 23.822 29.0876 25.6191C28.4151 26.7695 28.3865 28.3606 29.016 29.574C29.2564 30.0347 29.5826 30.4296 29.9804 30.7616C29.8974 30.8045 29.823 30.8445 29.7601 30.8818C29.6828 30.9275 29.6113 30.9705 29.534 31.0162C29.4625 30.7844 29.2793 30.5956 29.0275 30.5355C28.9674 30.5183 27.5881 30.0833 27.5251 27.2989C27.4536 24.36 30.195 22.6516 32.0523 22.2223ZM27.1302 32.9679C26.3318 32.3927 25.6335 31.6143 25.0326 30.6414C24.4717 29.7314 23.9967 28.6525 23.6132 27.4019C24.0396 26.8611 25.107 25.622 26.7639 24.4687C26.2975 25.3444 26.0685 26.3117 26.0914 27.3333C26.1229 28.6611 26.4119 29.6083 26.7897 30.2865C27.3019 31.2108 27.9715 31.6344 28.3607 31.8089C27.8542 32.201 27.4479 32.5873 27.1302 32.9679ZM37.1747 37.9243L37.126 37.1002C38.5483 36.897 40.1937 36.8741 42.1368 37.1803L42.1511 37.6467C41.1066 37.8471 38.8402 38.2048 37.1747 37.9243ZM46.0201 38.4909L45.96 37.8156C47.4424 37.9901 48.7787 38.0417 49.9835 37.9987C48.856 38.2763 47.2878 38.5796 46.0201 38.4909ZM43.3788 35.9498C37.2405 34.6964 33.5461 36.4477 31.1022 37.6038C30.7302 37.7784 30.3811 37.9443 30.0634 38.0788C29.4081 38.3564 28.189 37.8328 27.6596 36.7653C26.9156 35.263 27.9372 33.5746 30.4669 32.1294C31.2024 31.7088 34.3931 30.2636 44.6265 29.2878C45.96 29.1619 47.9231 29.0159 49.9835 29.0159C53.8811 29.0159 58.1278 29.531 59.1008 31.6458C59.1724 31.8003 59.1094 32.4156 58.4598 33.2369C56.5482 35.6436 51.5832 37.621 43.3788 35.9498Z" fill="#021D30"/>
<path d="M40.7483 32.1495C41.0202 31.9406 40.6997 31.7088 40.3935 31.5571C40.0644 31.394 39.721 31.2595 39.369 31.1536C39.1143 31.0792 38.8425 31.0191 38.5849 31.0792C38.3274 31.1422 38.0898 31.3625 38.0898 31.6258C38.0898 31.932 38.3817 32.1495 38.6593 32.2811C38.8882 32.3899 39.1429 32.4757 39.3948 32.4471C39.6466 32.4185 39.8727 32.2811 40.1102 32.1867C40.3448 32.0923 40.5452 32.304 40.7483 32.1495Z" fill="#021D30"/>
<path d="M45.2173 31.2881C44.9312 31.0993 45.2345 30.8446 45.5321 30.6729C45.8498 30.4869 46.1817 30.3295 46.5251 30.2007C46.7741 30.1091 47.0402 30.029 47.3006 30.0748C47.561 30.1206 47.8129 30.3238 47.8329 30.587C47.853 30.8932 47.5753 31.1308 47.3092 31.2796C47.086 31.4026 46.8399 31.5056 46.5881 31.497C46.3334 31.4856 46.0987 31.3654 45.8584 31.2853C45.618 31.2052 45.4291 31.4284 45.2173 31.2881Z" fill="#021D30"/>
<path d="M62.2633 15.8951C62.1489 15.8951 62.0344 15.8694 61.9257 15.8093C61.5765 15.6233 61.4478 15.1883 61.6338 14.842C61.9342 14.2812 62.3263 12.6901 61.5708 8.36035C61.3104 6.86942 60.987 5.48437 60.7609 4.58867C56.3797 7.51902 48.6704 6.95813 48.3213 6.93238C47.9264 6.9009 47.6345 6.5575 47.6631 6.16259C47.6945 5.76767 48.038 5.47006 48.4329 5.5044C48.5187 5.51013 57.0379 6.12825 60.7009 2.82874C60.884 2.66276 61.1416 2.60553 61.3791 2.67421C61.6166 2.74289 61.8026 2.9289 61.8684 3.16641C62.1374 4.12221 64.4611 12.5899 62.8929 15.5174C62.7641 15.7578 62.518 15.8951 62.2633 15.8951Z" fill="#021D30"/>
<path d="M64.4771 38.4824C64.1853 38.4824 63.9077 38.3021 63.8047 38.0102C63.6702 37.6382 63.8648 37.229 64.2368 37.0945C65.4444 36.6595 67.3016 36.4363 68.3375 36.339C67.8797 34.4675 65.7792 31.6144 64.9121 30.5613C64.7147 30.3209 64.6946 29.9804 64.8635 29.72L68.7783 23.6332C65.6648 19.8415 62.4082 17.9356 62.3767 17.9184C62.0333 17.721 61.9159 17.2831 62.1134 16.9426C62.3109 16.5992 62.7487 16.4819 63.0892 16.6793C63.2409 16.7652 66.8352 18.8599 70.2205 23.1439C70.4094 23.3842 70.4266 23.7162 70.2606 23.9737L66.3458 30.0634C67.3102 31.2939 69.86 34.7536 69.86 36.9943C69.86 37.3721 69.5652 37.684 69.1875 37.7098C69.1589 37.7126 66.2399 37.8986 64.7232 38.4423C64.6403 38.4681 64.5573 38.4824 64.4771 38.4824Z" fill="#021D30"/>
<path d="M44.0596 43.396C43.3328 43.396 42.5286 43.2414 41.7131 42.7979C41.3668 42.609 41.238 42.174 41.4269 41.8278C41.6158 41.4815 42.0508 41.3527 42.397 41.5416C44.3058 42.5832 46.2145 41.3728 46.2345 41.3613C46.5664 41.1467 47.01 41.2411 47.2247 41.5731C47.4393 41.905 47.3448 42.3486 47.0129 42.5632C46.9385 42.6119 45.6965 43.396 44.0596 43.396Z" fill="#021D30"/>
<path d="M2.7433 88.7561C2.56302 88.7561 2.39131 88.6874 2.25681 88.5672C2.11659 88.4384 2.03361 88.2553 2.02788 88.0664L0.51693 42.4142C0.505483 42.0336 0.794509 41.7073 1.17511 41.6758L19.9734 40.1649C20.3683 40.1363 20.7117 40.4282 20.7432 40.8202C20.7747 41.2151 20.4799 41.5585 20.0879 41.59L1.97065 43.0466L3.43582 87.2938L88.7423 83.3332L84.839 38.7713L67.5659 39.5783C67.171 39.5954 66.8362 39.2921 66.819 38.8972C66.8018 38.5023 67.1052 38.1674 67.5001 38.1503L85.4599 37.3118C85.852 37.2975 86.1725 37.5808 86.2068 37.9643L90.2361 83.9542C90.2532 84.1488 90.1903 84.3405 90.0615 84.4865C89.9327 84.6324 89.7496 84.7211 89.555 84.7297L2.7805 88.7589C2.7662 88.7561 2.75475 88.7561 2.7433 88.7561Z" fill="#4AB69F"/>
<path d="M34.3643 56.242C34.2555 56.242 34.1468 56.2162 34.0438 56.1676C33.6889 55.9901 33.5458 55.5609 33.7233 55.2089C35.6206 51.4143 36.4562 48.7759 36.4648 48.7501C36.7881 47.697 37.1344 45.6795 36.688 44.7581C36.0813 43.5047 29.737 39.7101 27.2788 40.2109C26.5548 40.3597 26.1999 41.0379 25.2813 42.9781C25.0953 43.3702 24.8893 43.8023 24.6575 44.2773C24.3971 44.8096 23.9993 45.7339 23.4928 46.9043C23.1322 47.7371 22.723 48.69 22.2737 49.7059C22.1135 50.0665 21.6899 50.2296 21.3294 50.0693C20.9688 49.9091 20.8057 49.4856 20.9659 49.125C21.4123 48.1148 21.8216 47.1676 22.1793 46.3377C22.6915 45.1501 23.0979 44.2115 23.3726 43.6477C23.6015 43.1784 23.8047 42.752 23.9879 42.3657C24.9837 40.2652 25.5303 39.1063 26.9926 38.8087C30.1233 38.1676 37.1258 42.3829 37.9757 44.1314C38.8142 45.857 37.9328 48.8388 37.8298 49.1736C37.7954 49.2881 36.9569 51.9409 35.0024 55.847C34.8794 56.096 34.6276 56.242 34.3643 56.242Z" fill="#021D30"/>
<path d="M35.4321 48.3294C33.4919 48.3294 27.2105 48.0289 24.5034 44.2773C24.2716 43.9568 24.346 43.5103 24.6637 43.2785C24.9842 43.0467 25.4306 43.1212 25.6624 43.4388C28.3667 47.1904 35.8614 46.89 35.9358 46.89C36.3393 46.8699 36.6655 47.1761 36.6827 47.5711C36.6998 47.966 36.3965 48.3008 36.0016 48.3179C35.9558 48.3208 35.7526 48.3294 35.4321 48.3294Z" fill="#021D30"/>
<path d="M55.1411 54.9456C54.9093 54.9456 54.6804 54.8312 54.543 54.6223C52.145 50.9708 51.0031 48.4325 50.9545 48.3266C50.8114 48.0032 49.5895 45.1473 50.2191 43.3358C50.8572 41.4986 57.3131 36.4879 60.501 36.7626C61.9891 36.8885 62.6673 37.9731 63.9036 39.9447C64.1325 40.3082 64.3815 40.7088 64.6648 41.1467C65.0053 41.6761 65.5204 42.5632 66.17 43.6878C66.6222 44.4691 67.1373 45.359 67.6953 46.3062C67.8956 46.6468 67.784 47.0846 67.4435 47.2849C67.1029 47.4853 66.6651 47.3737 66.4648 47.0331C65.9039 46.083 65.3859 45.1873 64.9309 44.4032C64.2899 43.2958 63.7834 42.4201 63.46 41.9193C63.1739 41.4758 62.9192 41.0694 62.6902 40.7031C61.5513 38.8831 61.1192 38.2506 60.3809 38.1877C57.8855 37.9759 52.0276 42.4888 51.5698 43.8051C51.235 44.7724 51.8159 46.7355 52.2623 47.7457C52.2709 47.7686 53.4098 50.2897 55.7392 53.8382C55.9567 54.1673 55.8651 54.6108 55.5332 54.8283C55.413 54.9084 55.2756 54.9456 55.1411 54.9456Z" fill="#021D30"/>
<path d="M52.6197 47.268C52.2477 47.268 51.9358 46.9818 51.9072 46.6041C51.8786 46.2092 52.1762 45.8686 52.5682 45.84C52.6426 45.8343 60.1259 45.2448 62.3666 41.2127C62.5583 40.8664 62.9933 40.7434 63.3395 40.9351C63.6858 41.1268 63.8088 41.5618 63.6171 41.908C60.9987 46.6184 53.0089 47.2451 52.6712 47.268C52.6541 47.268 52.6369 47.268 52.6197 47.268Z" fill="#021D30"/>
<path d="M45.5416 66.6012C45.4214 66.6012 45.3012 66.5726 45.1924 66.5096L8.43141 46C8.08515 45.8083 7.96211 45.3705 8.15384 45.0271C8.34557 44.6808 8.7834 44.5578 9.1268 44.7495L45.4958 65.0416L78.8629 41.4672C79.1863 41.2382 79.6327 41.3155 79.8587 41.6388C80.0877 41.9622 80.0104 42.4086 79.6871 42.6347L45.9508 66.4696C45.8335 66.5583 45.6875 66.6012 45.5416 66.6012Z" fill="#4AB69F"/>
<path d="M4.50665 87.1623C4.32923 87.1623 4.15466 87.0965 4.0173 86.9677C3.72827 86.6959 3.71683 86.2437 3.98582 85.9576L28.5762 59.8591C28.848 59.5701 29.3002 59.5586 29.5863 59.8276C29.8754 60.0995 29.8868 60.5516 29.6178 60.8378L5.02746 86.9362C4.88724 87.0879 4.69552 87.1623 4.50665 87.1623Z" fill="#4AB69F"/>
<path d="M87.8409 82.7151C87.6578 82.7151 87.4746 82.6436 87.3344 82.5034L62.8299 57.913C62.5523 57.6326 62.5523 57.1804 62.8328 56.9C63.1132 56.6224 63.5654 56.6224 63.8458 56.9028L88.3503 81.4932C88.6279 81.7736 88.6279 82.2258 88.3474 82.5062C88.2044 82.6436 88.0212 82.7151 87.8409 82.7151Z" fill="#4AB69F"/>
<path d="M43.8167 51.3858C41.35 51.3858 39.3897 50.9222 39.2495 50.8878C38.866 50.7934 38.6314 50.4071 38.7229 50.0236C38.8145 49.6402 39.2037 49.4026 39.5872 49.4971C39.6444 49.5114 45.2618 50.8335 49.168 48.8818C49.5229 48.7044 49.9521 48.8475 50.1267 49.2023C50.3041 49.5572 50.161 49.9864 49.8062 50.161C47.906 51.1111 45.7111 51.3858 43.8167 51.3858Z" fill="#021D30"/>
<path d="M44.7034 56.448C44.5804 56.448 44.4602 56.4165 44.3486 56.3536L38.4735 52.9968C38.1301 52.7994 38.01 52.3644 38.2074 52.021C38.4049 51.6776 38.8399 51.5574 39.1833 51.7549L44.6605 54.8855L49.8258 51.2054C50.1463 50.9765 50.5956 51.0509 50.8245 51.3743C51.0535 51.6948 50.9791 52.144 50.6557 52.373L45.1183 56.3164C44.9953 56.4022 44.8494 56.448 44.7034 56.448Z" fill="#021D30"/>
<path d="M40.3964 58.6685C40.3048 58.6685 40.2104 58.6657 40.116 58.66C38.5936 58.5598 37.2543 57.6498 36.1325 55.9557C35.915 55.6266 36.0037 55.183 36.3357 54.9655C36.6648 54.748 37.1084 54.8368 37.3258 55.1687C38.1843 56.465 39.1516 57.1604 40.2047 57.232C42.1392 57.3579 43.8934 55.4062 43.9134 55.3862C44.1738 55.0886 44.626 55.06 44.9236 55.3204C45.2212 55.5808 45.2527 56.0301 44.9923 56.3277C44.9035 56.425 42.9175 58.6685 40.3964 58.6685Z" fill="#021D30"/>
<path d="M48.8904 58.454C46.4838 58.454 44.4405 56.5939 44.3461 56.508C44.0571 56.239 44.037 55.7869 44.306 55.4979C44.575 55.2088 45.0243 55.1888 45.3162 55.4549C45.3363 55.475 47.3766 57.3207 49.3941 56.9802C50.4472 56.8028 51.3544 56.0301 52.0841 54.6823C52.273 54.336 52.7079 54.2072 53.0542 54.3932C53.4005 54.5821 53.5292 55.0142 53.3432 55.3634C52.3903 57.1204 51.1397 58.1392 49.6259 58.391C49.3769 58.4368 49.1308 58.454 48.8904 58.454Z" fill="#021D30"/>
<path d="M35.6416 66.0974C35.5558 66.0974 35.467 66.0831 35.3812 66.0488C35.012 65.9057 34.8317 65.4907 34.9748 65.1216L37.9109 57.5696C38.054 57.2005 38.4689 57.0173 38.8381 57.1633C39.2072 57.3063 39.3875 57.7213 39.2444 58.0905L36.3084 65.6424C36.1968 65.9257 35.9278 66.0974 35.6416 66.0974Z" fill="#021D30"/>
<path d="M54.9432 65.7627C54.6599 65.7627 54.3908 65.5939 54.2792 65.3135L51.1743 57.5926C51.0255 57.2264 51.2058 56.8086 51.5721 56.6626C51.9384 56.5138 52.3562 56.6941 52.5021 57.0604L55.6071 64.7812C55.7559 65.1475 55.5756 65.5653 55.2093 65.7112C55.1234 65.7456 55.0319 65.7627 54.9432 65.7627Z" fill="#021D30"/>
<path d="M2.96553 40.9206C2.77094 40.9206 2.5792 40.8434 2.43611 40.6888C2.16998 40.3969 2.19002 39.9448 2.48191 39.6786L15.5741 27.7054C15.8659 27.4393 16.3181 27.4593 16.5842 27.7512C16.8504 28.0431 16.8303 28.4952 16.5384 28.7614L3.44916 40.7346C3.3118 40.8605 3.14009 40.9206 2.96553 40.9206Z" fill="#4AB69F"/>
<path d="M83.1965 36.6678C83.0419 36.6678 82.8874 36.6192 82.7558 36.5162L70.2245 26.6691C69.9155 26.4259 69.8611 25.9766 70.1043 25.6647C70.3476 25.3556 70.7968 25.3013 71.1088 25.5445L83.64 35.3915C83.9491 35.6348 84.0034 36.084 83.7602 36.396C83.6171 36.5763 83.4082 36.6678 83.1965 36.6678Z" fill="#4AB69F"/>
<path d="M35.5611 68.51C35.5268 68.51 35.4953 68.5071 35.4638 68.5043C35.4467 68.5014 35.418 68.5014 35.3837 68.5014C35.0031 68.4842 34.1102 68.4442 33.5379 67.723C33.1201 67.1993 32.9971 66.4582 33.1688 65.5253C33.2317 65.179 33.5436 64.9272 33.8956 64.9415C35.2835 64.9844 37.0435 65.1876 37.5614 65.9116C37.8361 66.2951 37.839 66.773 37.57 67.2222C37.2209 67.806 36.2021 68.51 35.5611 68.51ZM34.5281 66.4095C34.5395 66.5955 34.5853 66.7386 34.6597 66.8331C34.8285 67.0448 35.232 67.062 35.4495 67.0734C35.4839 67.0763 35.5153 67.0763 35.544 67.0792C35.7099 67.0248 35.9932 66.8416 36.1793 66.6785C35.8215 66.5641 35.2006 66.4639 34.5281 66.4095Z" fill="#021D30"/>
<path d="M55.1003 68.3124C54.8857 68.3124 54.6596 68.2781 54.4307 68.1893C53.804 67.949 53.3232 67.3738 52.9998 66.4838C52.8796 66.1518 53.0199 65.7798 53.3289 65.611C54.5451 64.9442 56.1677 64.2259 56.9804 64.5865C57.4097 64.7782 57.6558 65.1875 57.6529 65.7111C57.6501 66.4266 57.072 67.6342 56.4882 67.886C56.4711 67.8946 56.4482 67.906 56.4167 67.9232C56.1677 68.052 55.6812 68.3124 55.1003 68.3124ZM54.6167 66.5525C54.7226 66.707 54.8313 66.8072 54.9429 66.8501C55.1947 66.9474 55.5524 66.7585 55.7442 66.6555C55.7756 66.6383 55.8014 66.624 55.8272 66.6126C55.9416 66.4809 56.0933 66.1804 56.1706 65.9458C55.81 66.0316 55.2205 66.2606 54.6167 66.5525Z" fill="#021D30"/>
</svg>
