<svg width="82" height="102" viewBox="0 0 82 102" fill="none" xmlns="http://www.w3.org/2000/svg">
<path d="M34.1579 46.6614C31.7565 45.1746 28.8046 46.1298 27.5662 48.2263C27.8845 48.1103 28.2191 48.0563 28.5618 48.0995C30.5666 48.3288 29.7436 49.5295 28.5537 50.2608C28.0842 50.5522 27.5527 50.7869 26.9941 50.8031C27.0184 51.0621 27.0616 51.3238 27.1317 51.5937C27.7496 54.47 31.3625 55.9944 33.8773 54.5023C36.9937 52.8645 37.2257 48.4826 34.1579 46.6614Z" fill="#4AB69F"/>
<path d="M56.1531 54.578C56.1207 54.578 56.0911 54.5753 56.0587 54.5726C54.518 54.3567 52.7723 54.1112 50.2683 54.4538C49.8933 54.5024 49.5587 54.2461 49.5074 53.8764C49.4562 53.5068 49.7152 53.1668 50.0849 53.1155C52.775 52.7486 54.6988 53.0184 56.2449 53.2343C56.6145 53.2855 56.8708 53.6282 56.8196 53.9952C56.7737 54.3351 56.4823 54.578 56.1531 54.578Z" fill="#F0F3F5"/>
<path d="M37.9971 55.7733C37.9971 55.7733 38.2561 55.5683 39.6915 55.1716" stroke="#F0F3F5" stroke-width="5" stroke-miterlimit="10" stroke-linecap="round" stroke-linejoin="round"/>
<path d="M51.0865 40.245C50.984 40.245 50.8761 40.2288 50.7735 40.191C50.2852 40.0183 50.0261 39.4895 50.1934 39.0011C50.2447 38.8473 50.7465 37.4874 52.1469 36.9397C53.156 36.5457 54.3055 36.6887 55.5682 37.3687C56.0269 37.6169 56.1996 38.1889 55.9514 38.6476C55.7031 39.1063 55.1311 39.279 54.6724 39.0308C53.9277 38.6287 53.3125 38.5154 52.8457 38.6935C52.2386 38.9228 51.9769 39.6163 51.9742 39.6217C51.8366 40.0048 51.4724 40.245 51.0865 40.245Z" fill="#F0F3F5"/>
<path d="M21.414 49.5539C21.3439 49.5539 21.271 49.5431 21.1982 49.5188C20.8285 49.3947 12.1403 46.3889 9.61211 38.3995C9.49878 38.0434 9.69575 37.6656 10.0519 37.5523C10.4081 37.439 10.7858 37.6359 10.8991 37.9921C13.2169 45.3177 21.5436 48.2102 21.6272 48.2399C21.9807 48.3586 22.1695 48.7417 22.0508 49.0952C21.9591 49.3758 21.6974 49.5539 21.414 49.5539Z" fill="#F0F3F5"/>
<path d="M44.0005 54.5616C43.0993 54.5616 42.0551 54.4861 40.8544 54.2945C40.5495 54.246 40.3174 53.9977 40.2878 53.6901L40.169 52.3842C40.134 52.0118 40.4092 51.6854 40.7788 51.6503C41.1512 51.6179 41.4777 51.8904 41.5127 52.2601L41.5829 53.0372C45.1553 53.5228 47.009 52.8834 47.6781 52.5569L47.5675 51.5639C47.527 51.1943 47.7941 50.8597 48.1638 50.8192C48.5362 50.7788 48.868 51.0459 48.9085 51.4155L49.0677 52.8402C49.092 53.0695 49.0002 53.2962 48.8195 53.4419C48.7466 53.4986 47.3705 54.5616 44.0005 54.5616Z" fill="#F0F3F5"/>
<path d="M12.6795 38.3591C12.6039 38.3591 12.5311 38.3591 12.4663 38.3591C12.094 38.3537 11.7945 38.0488 11.7999 37.6765C11.8053 37.3068 12.1048 37.01 12.4744 37.01C12.4771 37.01 12.4798 37.01 12.4825 37.01C14.4576 37.0343 21.2948 36.7348 26.7128 31.8403C33.7605 25.4752 48.6384 21.3739 56.8545 29.161C56.8626 29.169 56.8733 29.1798 56.8814 29.1879C56.9489 29.2608 58.5516 30.9795 59.9196 33.8639C60.0788 34.2012 59.9358 34.6032 59.5985 34.7624C59.2613 34.9216 58.8592 34.7786 58.7 34.4413C57.4885 31.8834 56.0531 30.2807 55.9101 30.1242C52.4618 26.8675 47.2785 25.6074 41.3128 26.5761C36.2294 27.4017 30.9814 29.8031 27.6194 32.8413C22.018 37.9004 15.0188 38.3591 12.6795 38.3591Z" fill="#F0F3F5"/>
<path d="M46.2854 60.3412C46.2396 60.3412 46.1964 60.3412 46.1505 60.3412C39.5534 60.3008 36.2454 58.242 34.6319 56.5179C33.3799 55.1823 32.986 53.8413 33.0319 53.0318C33.0858 52.1387 33.4878 51.6422 33.8143 51.3805C34.5779 50.7734 35.5763 50.8975 35.7543 50.9245C43.5683 51.9256 57.3642 50.1124 62.1886 43.0458C62.8065 42.1419 63.0143 41.3567 62.7579 40.8899C61.2416 38.1189 57.6206 39.7836 57.4668 39.8565C57.4425 39.8673 57.4182 39.8781 57.3939 39.8862L44.5748 44.2114C44.2213 44.3301 43.8382 44.1412 43.7194 43.7878C43.6007 43.4343 43.7896 43.0512 44.143 42.9324L56.9244 38.618C58.6351 37.8194 62.2507 37.1502 63.9398 40.2396C64.4551 41.1786 64.2258 42.4441 63.3003 43.8013C60.1677 48.3882 49.4909 54.0436 35.5682 52.2574C35.5574 52.2574 35.5493 52.2547 35.5412 52.252C35.3901 52.2278 34.9206 52.2143 34.6481 52.4328C34.5887 52.4814 34.4052 52.6298 34.3756 53.102C34.3513 53.5094 34.586 54.4888 35.6113 55.587C36.7851 56.839 39.7153 58.9436 46.1532 58.9841C46.1964 58.9841 46.2422 58.9841 46.2854 58.9841C54.9628 58.9841 58.4516 53.8386 58.824 49.0034C58.8536 48.631 59.1801 48.3558 59.5471 48.3828C59.9194 48.4125 60.1974 48.7363 60.1677 49.1059C59.9302 52.19 58.6054 54.9691 56.4388 56.9334C53.9915 59.1675 50.4784 60.3412 46.2854 60.3412Z" fill="#F0F3F5"/>
<path d="M51.6799 43.9064C51.429 44.044 51.2077 43.8929 50.9892 44.125C50.8489 44.2356 50.6438 44.1708 50.5332 44.0467C50.401 43.8848 50.4307 43.6285 50.5197 43.4531C50.7005 43.1752 51.0243 42.962 51.3669 43.0187C51.7312 43.0403 52.0604 43.2319 51.8796 43.6366C51.8337 43.7391 51.7878 43.8551 51.6799 43.9064Z" fill="#F0F3F5"/>
<path d="M50.8247 44.4513C50.6412 44.4513 50.4577 44.3623 50.3363 44.2274C50.1178 43.963 50.1528 43.5879 50.2824 43.3316L50.2985 43.3046C50.5603 42.8999 50.9974 42.684 51.4129 42.7515C51.7232 42.7704 51.9903 42.9026 52.1171 43.1157C52.1927 43.2425 52.2574 43.4557 52.1279 43.7471C52.0713 43.8766 51.993 44.052 51.8041 44.1464C51.6449 44.2328 51.4965 44.2409 51.3886 44.2463C51.2645 44.2544 51.2348 44.2598 51.1889 44.3083L51.1593 44.3353C51.0567 44.4163 50.9407 44.4513 50.8247 44.4513ZM50.7572 43.5879C50.7087 43.6958 50.7006 43.8254 50.7437 43.8766C50.7653 43.8982 50.8031 43.9117 50.822 43.9117C51.0136 43.7255 51.2186 43.7147 51.3589 43.7066C51.448 43.7012 51.5019 43.6985 51.5532 43.6689L51.564 43.6635C51.5829 43.6473 51.6099 43.5825 51.6288 43.542C51.6449 43.5043 51.6773 43.4287 51.6557 43.3936C51.6341 43.3559 51.5343 43.2992 51.3535 43.2857C51.0972 43.2479 50.8787 43.4071 50.7572 43.5879Z" fill="#F0F3F5"/>
<path d="M46.7955 45.1935C46.7496 45.1962 46.7011 45.2043 46.6579 45.2204C46.5877 45.2663 46.5365 45.3338 46.4663 45.3769C46.3395 45.4795 46.1749 45.5199 46.0157 45.4876C45.8673 45.4471 45.7243 45.3311 45.665 45.1881C45.5624 45.0262 45.5705 44.7968 45.7 44.6538C45.9753 44.357 46.4636 44.2842 46.809 44.4973C46.9277 44.5729 47.0491 44.6268 47.0869 44.7752C47.1247 44.9075 47.122 45.0855 46.9925 45.1665C46.9358 45.1989 46.863 45.1935 46.7955 45.1935Z" fill="#F0F3F5"/>
<path d="M46.1237 45.7682C46.0698 45.7682 46.0158 45.7628 45.9645 45.752C45.719 45.6872 45.522 45.52 45.4276 45.3122C45.2711 45.0451 45.3008 44.6943 45.5059 44.4704C45.8674 44.0764 46.5042 43.9874 46.9548 44.268L47.0007 44.295C47.1194 44.3651 47.2948 44.473 47.3541 44.7132C47.4351 44.9938 47.3514 45.2663 47.1383 45.3985C47.0195 45.466 46.9089 45.4633 46.8361 45.4633H46.8118C46.801 45.4633 46.7929 45.466 46.7821 45.466C46.7713 45.4741 46.7632 45.4849 46.7524 45.493C46.72 45.5253 46.6769 45.5631 46.6256 45.5955C46.4799 45.7088 46.3045 45.7682 46.1237 45.7682ZM46.3639 44.643C46.1939 44.643 46.0185 44.7105 45.9025 44.8346C45.8566 44.8832 45.8539 44.9776 45.8971 45.0424L45.9187 45.0828C45.9457 45.1449 46.0185 45.207 46.0887 45.2258C46.1507 45.2366 46.2344 45.2178 46.2991 45.1665L46.3288 45.1449C46.3423 45.1368 46.3639 45.1179 46.3855 45.0963C46.4259 45.0586 46.4691 45.0208 46.515 44.9911L46.5662 44.9668C46.6283 44.9425 46.6985 44.929 46.7794 44.9236H46.8388C46.8415 44.9236 46.8442 44.9236 46.8496 44.9236C46.8469 44.9075 46.8442 44.8832 46.8361 44.8508C46.828 44.8211 46.7983 44.7995 46.7254 44.7564L46.6742 44.724C46.5797 44.67 46.4718 44.643 46.3639 44.643Z" fill="#F0F3F5"/>
<path d="M30.8707 32.2637C30.1341 32.8249 28.4963 34.4385 29.1681 36.0223C29.84 37.6062 33.0427 36.0655 34.1139 35.4287C34.9747 34.916 36.7636 33.6101 35.6978 31.7484C34.6293 29.8893 31.8906 31.4839 30.8707 32.2637Z" fill="#F0F3F5"/>
<path d="M49.6559 32.2261C49.4509 32.1236 49.2296 32.048 49.0353 31.9239C48.9139 31.8376 48.8114 31.7296 48.6981 31.6379C48.5551 31.5003 48.404 31.3681 48.3014 31.1954C47.9992 30.6935 48.0316 30.0028 48.4309 29.563C48.8303 29.0881 49.4185 28.8291 50.0013 28.6564C50.3871 28.5242 50.7919 28.4621 51.1966 28.4135C51.7174 28.3326 52.2435 28.3758 52.7643 28.4405C53.3228 28.4675 53.8058 28.8183 54.1484 29.2419C54.5181 29.679 54.7151 30.3077 54.5262 30.8635C54.2456 31.6595 52.9855 32.1209 52.2273 32.3151C51.6796 32.4743 51.1022 32.4905 50.5382 32.4285C50.2333 32.3934 49.9312 32.3529 49.6559 32.2261Z" fill="#F0F3F5"/>
<path d="M48.6792 41.2596C48.3716 41.2596 48.0937 41.0464 48.0208 40.7335C47.9291 40.3287 47.7834 39.8619 47.6296 39.3682C47.2896 38.2781 46.9712 37.2501 47.0657 36.4784C47.4191 33.6345 50.5733 33.0652 53.9299 32.8709C58.4872 32.6119 59.3668 35.4423 59.7877 36.8049C59.8983 37.161 59.6987 37.5415 59.3425 37.6521C58.9863 37.7627 58.6086 37.5658 58.5006 37.2096L58.498 37.2042C58.0824 35.8578 57.5158 34.0149 54.0054 34.22C49.575 34.4763 48.5632 35.3748 48.404 36.6457C48.3446 37.1287 48.6495 38.1054 48.9166 38.9688C49.0731 39.468 49.2323 39.9833 49.3349 40.4366C49.4158 40.8009 49.1892 41.1625 48.8249 41.2434C48.779 41.2542 48.7305 41.2596 48.6792 41.2596Z" fill="#F0F3F5"/>
<path d="M35.7008 50.7302C33.0376 50.7302 29.4463 49.3703 27.5954 44.3031C27.5387 44.1493 26.3326 40.5526 32.8272 38.0702C38.4071 35.9386 40.4388 35.3909 42.422 39.109C43.5579 41.2406 43.6362 43.9685 42.6271 46.2323C41.653 48.4151 39.7939 49.945 37.3898 50.5359C36.9042 50.6546 36.3295 50.7302 35.7008 50.7302ZM38.7336 37.7275C37.6327 37.7275 36.0246 38.2915 33.3102 39.3303C28.1269 41.3108 28.8365 43.7526 28.8689 43.8552C30.8224 49.203 34.9453 49.748 37.0688 49.2246C39.0573 48.7362 40.5953 47.4761 41.3967 45.6818C42.2412 43.7904 42.1792 41.5158 41.2321 39.7458C40.4982 38.3643 39.9019 37.7275 38.7336 37.7275Z" fill="#F0F3F5"/>
<path d="M44.2571 42.3011C44.1195 42.3011 43.9818 42.2606 43.8604 42.1716C43.5582 41.953 43.4908 41.5321 43.7093 41.2299C44.5026 40.1371 45.3984 39.5274 46.3752 39.4194C47.5839 39.2872 48.4123 39.986 48.5013 40.0643C48.7792 40.3125 48.8062 40.7388 48.558 41.0168C48.3125 41.2947 47.8888 41.3217 47.6109 41.0788C47.5839 41.0545 47.128 40.6849 46.5047 40.7631C45.9299 40.8333 45.3579 41.2569 44.8021 42.0205C44.6699 42.204 44.4648 42.3011 44.2571 42.3011Z" fill="#F0F3F5"/>
<path d="M34.3032 45.779C34.1737 45.779 34.0415 45.752 33.9174 45.6953C33.4452 45.4822 33.232 44.929 33.4425 44.4541C33.4802 44.3705 34.3734 42.4035 36.4429 41.6696C37.8351 41.1731 39.3812 41.3485 41.0379 42.1877C41.502 42.4224 41.6909 42.9917 41.4534 43.4558C41.2187 43.9199 40.6494 44.1088 40.1853 43.8713C39.0143 43.2777 37.9755 43.1347 37.0931 43.4423C35.7899 43.8956 35.172 45.2123 35.1666 45.2258C35.0047 45.5712 34.6621 45.779 34.3032 45.779Z" fill="#F0F3F5"/>
<path d="M51.7984 52.7187C51.4881 52.7187 51.2155 52.5056 51.1427 52.2007L50.7461 50.5386C50.6597 50.177 50.8837 49.8128 51.2452 49.7264C51.6068 49.6401 51.971 49.864 52.0574 50.2256L52.3137 51.3076C53.3633 51.1727 55.6082 50.8084 56.9519 50.0313L56.8197 48.1345C56.7954 47.7621 57.0733 47.4411 57.4457 47.4141C57.8126 47.3898 58.1391 47.6677 58.1661 48.0401L58.3253 50.3335C58.3415 50.5683 58.2363 50.7922 58.0447 50.9298C56.0696 52.341 52.025 52.6999 51.855 52.716C51.8388 52.7187 51.8199 52.7187 51.7984 52.7187Z" fill="#F0F3F5"/>
<path d="M41.0677 101.357C34.1036 101.357 28.4509 98.0055 24.9405 91.6998C22.0373 86.4868 23.1651 82.4638 24.0744 79.2341C24.6599 77.151 25.1645 75.3514 24.4845 73.692C23.4808 71.2366 17.4827 66.2044 8.44101 60.2279C7.15666 59.3807 6.58195 57.8211 7.00826 56.3533C8.08754 52.6271 10.9665 49.9613 12.5881 48.7039C13.4839 48.0078 14.6658 47.7919 15.7504 48.1265C25.0242 50.9785 34.9562 65.3761 35.3745 65.9886C35.5849 66.2962 35.5067 66.7171 35.1991 66.9249C34.8915 67.1353 34.4706 67.0571 34.2628 66.7495C34.163 66.6038 24.1796 52.1306 15.3565 49.4162C14.6927 49.2112 13.9696 49.3434 13.4192 49.7697C11.9271 50.9272 9.28015 53.3691 8.3088 56.7284C8.04707 57.6296 8.40323 58.582 9.19111 59.1028C14.7143 62.7534 24.2066 69.4342 25.7392 73.182C26.5945 75.2704 26.0036 77.3723 25.3803 79.5983C24.4953 82.7471 23.4943 86.3168 26.1277 91.0441C30.9548 99.7107 38.6312 100.577 44.2219 99.7782C50.6193 98.8635 58.9379 95.4206 61.8276 93.065C62.1164 92.8303 62.5427 92.8735 62.7774 93.1622C63.0122 93.4509 62.969 93.8772 62.6803 94.112C59.6556 96.5754 51.0186 100.172 44.4134 101.114C43.264 101.276 42.1497 101.357 41.0677 101.357Z" fill="#F0F3F5"/>
<path d="M65.5109 95.7471C65.438 95.7471 65.3814 95.7417 65.3355 95.7363C64.7149 95.6661 63.606 95.2533 61.183 92.4769C59.9121 91.0198 58.8922 89.6114 58.849 89.5547C58.6305 89.2525 58.6979 88.8316 59.0001 88.613C59.3023 88.3945 59.7232 88.4619 59.9418 88.7641C62.6616 92.5254 64.8201 94.3224 65.4839 94.398C65.4839 94.398 65.4839 94.398 65.4866 94.398C65.9021 94.398 67.6452 93.3322 70.5457 90.4613C73.8456 87.1911 75.6049 84.6035 75.6049 83.991C75.6049 83.365 74.2531 81.1093 71.563 78.8402C68.6084 76.3524 65.5244 75.1652 63.1014 75.5807C60.8781 75.9639 59.1108 77.1619 57.2409 78.43C54.1622 80.5157 50.6735 82.8794 44.3462 82.2075C43.9765 82.167 43.7067 81.8352 43.7472 81.4655C43.7877 81.0959 44.1168 80.8314 44.4892 80.8665C50.3227 81.4898 53.4553 79.3663 56.4827 77.313C58.4767 75.9612 60.3627 74.6849 62.872 74.2505C66.7278 73.5841 70.5161 76.1932 72.4318 77.8067C75.0113 79.9788 76.954 82.6365 76.954 83.9883C76.954 85.9526 72.0702 90.9821 69.8442 92.976C67.0354 95.4854 65.9723 95.7471 65.5109 95.7471Z" fill="#F0F3F5"/>
<path d="M49.1623 91.0954C48.9195 91.0954 48.6847 90.9632 48.5633 90.7312C48.5525 90.7069 47.8267 89.3551 46.4992 88.5753C46.1781 88.3864 46.0702 87.9736 46.2591 87.6525C46.4479 87.3314 46.8608 87.2235 47.1818 87.4124C48.8601 88.3972 49.7235 90.0404 49.7613 90.1106C49.9313 90.4425 49.8018 90.8472 49.4726 91.0199C49.3728 91.0711 49.2676 91.0954 49.1623 91.0954Z" fill="#F0F3F5"/>
<path d="M25.3718 84.9514C25.2099 84.9514 25.0507 84.8948 24.9211 84.7788C24.6432 84.5305 24.6217 84.1042 24.8699 83.8263C25.9573 82.6175 28.2291 82.318 28.4828 82.2883C28.847 82.2451 29.187 82.5096 29.2302 82.8792C29.2733 83.2489 29.0089 83.5834 28.6393 83.6266C28.0834 83.6941 26.505 84.0206 25.8709 84.7275C25.7387 84.8759 25.5552 84.9514 25.3718 84.9514Z" fill="#F0F3F5"/>
<path d="M39.8747 97.099C38.6713 97.099 37.4004 96.7294 36.1377 95.9954C34.0924 94.8055 32.3035 92.7846 31.1055 90.3049C29.9075 87.8253 29.4326 85.1703 29.7699 82.8282C30.1207 80.3863 31.3052 78.5651 33.1049 77.6935C34.9046 76.8247 37.0686 77.0271 39.2001 78.2683C41.2454 79.4582 43.0343 81.4791 44.2323 83.9588C45.4303 86.4384 45.9052 89.0934 45.5679 91.4355C45.2171 93.8774 44.0326 95.6986 42.2329 96.5702C41.499 96.9236 40.703 97.099 39.8747 97.099ZM35.4604 78.5138C34.8318 78.5138 34.2354 78.6433 33.6904 78.9077C32.3089 79.5769 31.3888 81.0366 31.1028 83.0198C30.8033 85.1001 31.235 87.4799 32.317 89.7167C33.399 91.9562 34.9963 93.7721 36.8122 94.8271C38.5445 95.8363 40.2578 96.0224 41.642 95.3533C43.0235 94.6841 43.9436 93.2244 44.2269 91.2412C44.5264 89.1609 44.0947 86.7811 43.0127 84.5443C41.9307 82.3048 40.3334 80.4889 38.5175 79.4339C37.4706 78.8214 36.4264 78.5138 35.4604 78.5138Z" fill="#F0F3F5"/>
<path d="M32.1954 84.1933C31.9984 84.1933 31.8015 84.1069 31.6692 83.9396C31.4372 83.6482 31.4831 83.2246 31.7745 82.9926C33.558 81.5625 33.4231 79.1368 33.4231 79.1126C33.4042 78.8266 33.5688 78.5594 33.8332 78.4461C34.0949 78.3328 34.4025 78.4002 34.5941 78.6107C34.6535 78.6728 36.1186 80.2134 38.6333 80.092C39.0137 80.0731 39.3213 80.3618 39.3402 80.7342C39.3591 81.1065 39.0704 81.4222 38.6981 81.4411C36.9145 81.5248 35.5466 80.9338 34.6777 80.3834C34.497 81.4546 33.9897 82.944 32.619 84.0422C32.4922 84.1447 32.3438 84.1933 32.1954 84.1933Z" fill="#F0F3F5"/>
<path d="M32.217 101.173C32.1927 101.173 32.1657 101.173 32.1388 101.168C21.8802 100.002 13.8692 96.5322 8.32982 90.8552C4.67375 87.1074 2.15093 82.4611 0.836908 77.0431C0.612957 76.123 0.974517 75.1921 1.75969 74.6687C2.54487 74.1452 3.54321 74.1695 4.3068 74.728C12.852 80.9852 22.463 78.5568 22.5601 78.5325C22.919 78.4381 23.2886 78.6539 23.3831 79.0128C23.4775 79.3716 23.2644 79.7413 22.9028 79.8357C22.4873 79.9463 12.5903 82.4638 3.50813 75.8154C3.04943 75.4781 2.62582 75.7102 2.5071 75.7911C2.38838 75.8694 2.01332 76.1716 2.14823 76.7247C4.39044 85.9552 11.4381 97.455 32.2899 99.8267C32.6595 99.8699 32.9266 100.202 32.8835 100.574C32.8484 100.917 32.557 101.173 32.217 101.173Z" fill="#F0F3F5"/>
<path d="M44.5615 65.7621C43.9652 65.7621 43.3473 65.7459 42.7051 65.7162C38.3098 65.4976 34.9856 64.6045 34.848 64.5668C34.4891 64.4696 34.276 64.0973 34.3731 63.7384C34.4702 63.3795 34.8399 63.1664 35.2014 63.2635C35.3309 63.2986 48.3768 66.755 56.2501 61.4557C64.0155 56.2293 62.232 44.8321 62.2131 44.7188C62.1511 44.3518 62.402 44.0038 62.769 43.9444C63.1359 43.885 63.484 44.1306 63.5461 44.4975C63.5676 44.6216 64.0506 47.6113 63.5083 51.3321C62.7825 56.313 60.5322 60.2011 57.0056 62.5755C54.7823 64.0703 50.8726 65.7621 44.5615 65.7621Z" fill="#F0F3F5"/>
<path d="M62.7992 73.3708C62.4862 73.3708 62.2083 73.1523 62.1408 72.8366C61.3152 68.9323 57.106 63.9244 57.0628 63.8758C56.8226 63.5925 56.8577 63.1662 57.141 62.9261C57.4243 62.6859 57.8507 62.721 58.0908 63.0043C58.2743 63.2202 62.5644 68.3252 63.4575 72.5587C63.5358 72.9229 63.301 73.2818 62.9368 73.3573C62.8909 73.3681 62.845 73.3708 62.7992 73.3708Z" fill="#F0F3F5"/>
<path d="M50.5951 68.5167C46.4507 68.5167 36.9665 66.2557 36.5294 66.1504C36.1678 66.0641 35.9439 65.6998 36.0302 65.3383C36.1166 64.9767 36.4808 64.7528 36.8424 64.8391C36.9557 64.8661 48.3071 67.5724 51.383 67.1218C54.2242 66.7063 55.9187 63.1851 55.9349 63.15C56.0941 62.8127 56.4961 62.6697 56.8334 62.8289C57.1706 62.9881 57.3164 63.3875 57.1572 63.7247C57.0762 63.8974 55.1416 67.9366 51.58 68.4574C51.3048 68.4979 50.9702 68.5167 50.5951 68.5167Z" fill="#F0F3F5"/>
<path d="M55.3709 70.365C55.3628 70.365 55.3574 70.365 55.3493 70.365C54.7638 70.3542 53.6683 69.8091 53.2258 69.5744C52.8966 69.399 52.7698 68.9916 52.9452 68.6624C53.1179 68.3332 53.528 68.2064 53.8572 68.3818C54.4427 68.6921 55.1199 68.9754 55.3493 69.0132C55.8107 68.7298 56.4151 66.431 56.6309 64.1294C56.666 63.7598 56.9898 63.4845 57.3648 63.5196C57.7345 63.5547 58.0097 63.8839 57.9746 64.2535C57.7588 66.5389 57.1382 70.365 55.3709 70.365Z" fill="#F0F3F5"/>
<path d="M45.258 72.8421C45.0152 72.8421 44.7696 72.8178 44.5295 72.7611C41.8691 72.1513 36.8099 67.8747 35.2639 65.6433C35.0507 65.3357 35.129 64.9175 35.4339 64.7043C35.7388 64.4911 36.1597 64.5694 36.3728 64.8743C38.2616 67.6049 43.1642 71.064 44.8317 71.4444C46.4884 71.8249 48.7198 69.8363 49.4402 69.0376C49.6885 68.7624 50.1148 68.7381 50.3927 68.989C50.6706 69.24 50.6922 69.6636 50.444 69.9415C50.3252 70.0737 47.8024 72.8421 45.258 72.8421Z" fill="#F0F3F5"/>
<path d="M39.4568 74.0453C39.0844 74.0453 38.7822 73.7431 38.7822 73.3707V70.1653C38.7822 69.7929 39.0844 69.4907 39.4568 69.4907C39.8291 69.4907 40.1313 69.7929 40.1313 70.1653V73.3707C40.1313 73.7431 39.8291 74.0453 39.4568 74.0453Z" fill="#F0F3F5"/>
<path d="M39.6213 76.3011C39.589 76.3011 39.5593 76.2984 39.5296 76.2957C39.5134 76.293 39.4864 76.293 39.4541 76.293C39.0952 76.2768 38.2534 76.239 37.7137 75.559C37.3198 75.0653 37.2038 74.3664 37.3657 73.4868C37.425 73.1603 37.7164 72.9256 38.051 72.9364C39.3596 72.9769 41.019 73.1684 41.5074 73.8511C41.7664 74.2126 41.7691 74.6632 41.5155 75.0869C41.1863 75.6346 40.2257 76.3011 39.6213 76.3011ZM38.65 74.3179C38.6608 74.4933 38.704 74.6282 38.7741 74.7172C38.9333 74.9169 39.3138 74.9331 39.5188 74.9439C39.5512 74.9466 39.5809 74.9466 39.6079 74.9493C39.7644 74.898 40.0315 74.7253 40.2069 74.5715C39.8696 74.4663 39.2814 74.3691 38.65 74.3179Z" fill="#F0F3F5"/>
<path d="M58.1277 71.5522C57.8121 71.5522 57.5314 71.331 57.4667 71.0099C57.4073 70.7104 56.8623 69.6257 56.3928 68.7974C56.2093 68.4736 56.3254 68.0607 56.6491 67.8773C56.9729 67.6938 57.3857 67.8071 57.5692 68.1336C57.8229 68.5815 58.662 70.0979 58.7915 70.7482C58.8644 71.1124 58.6269 71.4686 58.2627 71.5414C58.2168 71.5468 58.1736 71.5522 58.1277 71.5522Z" fill="#F0F3F5"/>
<path d="M58.7167 73.7458C58.5629 73.7458 58.4091 73.7242 58.2607 73.6784C57.6752 73.4976 57.2192 72.9795 56.9035 72.1431C56.8118 71.8975 56.8685 71.6223 57.0519 71.4362C58.544 69.9063 59.0054 69.9036 59.2024 69.9009C59.2051 69.9009 59.2051 69.9009 59.2078 69.9009C59.4156 69.9009 59.6098 69.9791 59.7528 70.1221C60.1576 70.5269 60.3411 71.7626 60.2844 72.4048C60.2439 72.8554 60.0874 73.1792 59.8203 73.3681C59.4668 73.619 59.0864 73.7458 58.7167 73.7458ZM58.3444 72.054C58.4631 72.2618 58.5791 72.3643 58.6601 72.3886C58.7464 72.4156 58.857 72.3724 58.9407 72.3293C58.965 72.1566 58.9407 71.8436 58.8921 71.5603C58.7275 71.6979 58.536 71.8706 58.3444 72.054Z" fill="#F0F3F5"/>
<path d="M48.8329 77.1431C48.7114 77.1431 48.5873 77.1107 48.474 77.0405C48.1583 76.8436 48.0639 76.4253 48.2608 76.1097L49.1593 74.6769L47.8939 73.9214C47.5728 73.7298 47.4676 73.317 47.6591 72.9959C47.8507 72.6748 48.2635 72.5696 48.5846 72.7612L50.4437 73.8701C50.6002 73.9619 50.7108 74.1157 50.754 74.2911C50.7971 74.4665 50.7648 74.6526 50.6703 74.8091L49.4049 76.8274C49.2754 77.0324 49.0568 77.1431 48.8329 77.1431Z" fill="#F0F3F5"/>
<path d="M51.4044 76.6303C51.113 76.6303 50.8458 76.4414 50.7595 76.15C50.6516 75.7938 50.8539 75.4161 51.2128 75.3109L53.1906 74.7173C53.5467 74.6093 53.9245 74.8117 54.0297 75.1706C54.1349 75.5294 53.9353 75.9045 53.5764 76.0097L51.5986 76.6033C51.5339 76.6195 51.4691 76.6303 51.4044 76.6303Z" fill="#F0F3F5"/>
<path d="M49.9339 62.9935C49.5427 62.9935 49.1217 62.9719 48.6685 62.9234C48.2988 62.8829 48.029 62.551 48.0694 62.1814C48.1099 61.8117 48.4391 61.5419 48.8115 61.5824C53.0018 62.0276 53.4389 59.9607 53.4551 59.8717C53.5225 59.5101 53.8679 59.2619 54.2321 59.324C54.5937 59.386 54.8419 59.7206 54.788 60.0822C54.7691 60.2144 54.2942 62.9935 49.9339 62.9935Z" fill="#F0F3F5"/>
<path d="M63.3008 68.8351C62.9339 68.8351 62.6317 68.5383 62.6263 68.1687C62.5831 65.0738 67.1215 59.1675 71.3793 53.8736C72.1024 52.9751 72.6744 52.2628 72.9901 51.831C73.2707 51.4452 73.5297 51.0971 73.7645 50.7841C74.922 49.2354 75.3132 48.6688 75.1298 48.0401C74.4957 45.8734 68.8106 42.4143 67.5451 42.4575C66.6277 42.4899 65.168 43.615 64.4638 44.3192C64.1993 44.581 63.773 44.581 63.5086 44.3192C63.2469 44.0548 63.2469 43.6285 63.5086 43.3668C63.7325 43.1428 65.7508 41.1731 67.4965 41.1111C67.51 41.1111 67.5235 41.1111 67.5397 41.1111C69.3583 41.1111 75.6154 44.8994 76.4249 47.6623C76.808 48.971 76.0687 49.9585 74.8464 51.5936C74.6144 51.9039 74.3581 52.2466 74.0828 52.627C73.7483 53.0857 73.1682 53.8088 72.4343 54.7235C69.6767 58.1529 63.9403 65.287 63.9781 68.1525C63.9835 68.5248 63.6867 68.8297 63.3116 68.8351C63.3062 68.8351 63.3035 68.8351 63.3008 68.8351Z" fill="#F0F3F5"/>
<path d="M73.1651 52.0065C73.1327 52.0065 73.103 52.0038 73.0706 52.0011C68.2274 51.3266 65.0894 44.7781 64.9572 44.5001C64.798 44.1629 64.9437 43.7608 65.2782 43.6016C65.6155 43.4424 66.0175 43.5855 66.1767 43.9227C66.2064 43.9848 69.1367 50.0881 73.2568 50.6628C73.6265 50.7141 73.8828 51.0541 73.8315 51.4237C73.7857 51.7637 73.497 52.0065 73.1651 52.0065Z" fill="#F0F3F5"/>
<path d="M11.946 61.0805C11.7167 61.0805 11.4927 60.9644 11.3659 60.754C11.1743 60.4356 11.2769 60.0201 11.598 59.8285C17.0052 56.5853 16.9674 50.1419 16.9674 50.0772C16.962 49.7048 17.2588 49.3972 17.6311 49.3918C17.6338 49.3918 17.6392 49.3918 17.6419 49.3918C18.0089 49.3918 18.3111 49.686 18.3165 50.0556C18.3219 50.3524 18.3597 57.3435 12.2914 60.9833C12.1835 61.0508 12.0647 61.0805 11.946 61.0805Z" fill="#F0F3F5"/>
<path d="M39.3381 40.8495C39.1034 40.8495 38.874 40.7254 38.7499 40.5068C38.7256 40.4663 38.3749 39.9132 37.4548 39.7729C37.0851 39.7162 36.8342 39.3736 36.8882 39.0039C36.9448 38.637 37.2875 38.3806 37.6571 38.4373C38.9496 38.6343 39.6916 39.4167 39.929 39.8485C40.1071 40.1749 39.9857 40.5851 39.6592 40.7631C39.5567 40.8252 39.4461 40.8495 39.3381 40.8495Z" fill="#F0F3F5"/>
<path d="M49.7937 38.0756C49.4321 38.0756 49.1326 37.7923 49.1191 37.4307C49.1002 36.8884 49.3512 35.8037 50.452 35.5852C50.8136 35.5123 51.1725 35.7498 51.2453 36.114C51.3182 36.4783 51.0807 36.8344 50.7165 36.9073C50.4655 36.9586 50.4682 37.3714 50.4682 37.3903C50.4736 37.7599 50.1795 38.0675 49.8099 38.0783C49.8072 38.0756 49.7991 38.0756 49.7937 38.0756Z" fill="#F0F3F5"/>
<path d="M66.4387 93.2054C66.4225 93.2054 66.4063 93.2054 66.3902 93.2027C66.0178 93.1757 65.7399 92.8573 65.7642 92.4849C65.7723 92.3716 65.9773 89.6707 68.0091 87.9169C69.1153 86.9617 70.5292 86.4788 72.2183 86.4761C72.2345 85.4966 72.4827 83.8237 73.8237 82.6365C74.1016 82.3883 74.5279 82.4153 74.7762 82.6959C75.0244 82.9738 74.9974 83.4001 74.7168 83.6483C73.3056 84.8976 73.589 87.0616 73.5917 87.0832C73.6213 87.2855 73.5566 87.4906 73.4163 87.639C73.276 87.7874 73.0763 87.8656 72.8739 87.8494C71.2199 87.7199 69.8843 88.0842 68.8995 88.9287C67.2941 90.3075 67.1106 92.5551 67.1106 92.5767C67.0863 92.9329 66.7895 93.2054 66.4387 93.2054Z" fill="#F0F3F5"/>
<path d="M1.55504 47.8134C1.46331 47.8134 1.36887 47.7945 1.28253 47.7567C1.10984 47.6812 0.977629 47.5355 0.915571 47.3574C0.861606 47.1955 -0.42004 43.3695 0.613372 40.8682C1.51187 38.6989 1.67107 36.5889 1.67107 36.5673C1.69265 36.2651 1.91121 36.0142 2.20801 35.9548L5.68869 35.2425C5.88296 35.202 6.08802 35.2506 6.24452 35.3747C6.40102 35.4988 6.49276 35.685 6.49815 35.8846C6.50085 36.0169 6.56831 39.1576 5.3811 41.2244C4.43133 42.8757 5.41347 45.4417 5.42427 45.4687C5.55648 45.8059 5.39998 46.1864 5.0681 46.3321L1.82486 47.7567C1.73852 47.7945 1.64678 47.8134 1.55504 47.8134ZM2.96351 37.1771C2.85828 37.9919 2.57497 39.6567 1.85994 41.3836C1.25285 42.8541 1.69265 45.0828 1.98676 46.2134L3.96724 45.3445C3.67313 44.3138 3.26571 42.1984 4.21277 40.5525C4.88193 39.3896 5.0762 37.7194 5.13016 36.7346L2.96351 37.1771Z" fill="#4AB69F"/>
<path d="M3.70315 53.0345C2.52404 53.0345 1.56348 52.0739 1.56348 50.8948C1.56348 49.7157 2.52404 48.7551 3.70315 48.7551C4.88227 48.7551 5.84013 49.7157 5.84013 50.8948C5.84013 52.0739 4.88227 53.0345 3.70315 53.0345ZM3.70315 50.1069C3.26874 50.1069 2.91258 50.4604 2.91258 50.8975C2.91258 51.3346 3.26604 51.6881 3.70315 51.6881C4.13756 51.6881 4.49103 51.3346 4.49103 50.8975C4.49103 50.4604 4.13756 50.1069 3.70315 50.1069Z" fill="#4AB69F"/>
<path d="M15.9552 35.4287C15.7286 35.4287 15.51 35.3126 15.3832 35.113L13.7211 32.4633C13.624 32.3095 13.5943 32.1207 13.6375 31.9453C13.6807 31.7672 13.794 31.6161 13.9505 31.5244C14.9272 30.9524 15.7988 29.8434 16.074 29.1014C17.4501 25.4021 19.5681 23.9667 19.6572 23.9073C19.9378 23.7212 20.3128 23.7697 20.5341 24.0234L23.2242 27.0696C23.3699 27.2342 23.4266 27.4582 23.3753 27.6713C23.324 27.8845 23.1756 28.0599 22.9733 28.1408C22.9517 28.1489 20.5476 29.1634 19.9702 31.403C19.2147 34.3332 16.2952 35.3531 16.1711 35.3936C16.101 35.4179 16.0281 35.4287 15.9552 35.4287ZM15.2105 32.2988L16.217 33.9042C16.9374 33.5345 18.2568 32.6576 18.6669 31.0684C19.1742 29.0933 20.6906 27.898 21.6485 27.3179L19.9594 25.4075C19.3361 25.9931 18.1867 27.299 17.3421 29.5709C17.0318 30.3938 16.2359 31.5136 15.2105 32.2988Z" fill="#4AB69F"/>
<path d="M20.1081 20.5159C19.9435 20.5159 19.7816 20.4565 19.6548 20.3405C19.4929 20.1921 18.0736 18.8511 18.1708 17.2322C18.1816 17.0676 18.249 16.9111 18.3677 16.795C18.6699 16.4928 19.7276 15.4999 20.6261 15.4513C20.9526 15.4325 21.2386 15.6483 21.3169 15.9613C21.5462 16.8733 21.897 17.9984 22.0643 18.2359C22.1911 18.3708 22.2559 18.5516 22.2451 18.7378C22.2343 18.9293 22.1398 19.1101 21.9887 19.2288L20.5263 20.3756C20.4022 20.4673 20.2565 20.5159 20.1081 20.5159ZM19.5253 17.5532C19.5846 18.0551 19.9003 18.5651 20.1863 18.9239L20.7098 18.5138C20.529 18.0983 20.3563 17.5586 20.2079 17.0271C19.9921 17.162 19.7492 17.3482 19.5253 17.5532ZM22.0508 18.217C22.0535 18.2197 22.0562 18.2224 22.0589 18.2251C22.0562 18.2224 22.0535 18.217 22.0508 18.217Z" fill="#4AB69F"/>
<path d="M26.408 22.9199C26.1597 22.9199 25.9088 22.8686 25.6687 22.758C24.754 22.3424 24.3573 21.2416 24.7837 20.308C24.9887 19.8601 25.3503 19.5147 25.8036 19.3366C26.265 19.1559 26.7668 19.1667 27.212 19.3717C27.6599 19.5741 27.9972 19.9464 28.1618 20.4132C28.3237 20.8719 28.3021 21.3738 28.0971 21.8217C27.7814 22.5124 27.1068 22.9199 26.408 22.9199ZM26.47 20.5616C26.4134 20.5616 26.354 20.5724 26.2974 20.594C26.1705 20.6426 26.068 20.7424 26.0113 20.8692C25.8953 21.1256 25.9925 21.4224 26.2299 21.533C26.4673 21.6409 26.756 21.5195 26.8721 21.2632C26.9314 21.1337 26.9368 20.9933 26.8937 20.8665C26.8505 20.7478 26.7668 20.6534 26.6562 20.6021C26.5942 20.5724 26.5321 20.5616 26.47 20.5616Z" fill="#4AB69F"/>
<path d="M65.3924 37.0046C65.1441 37.0046 64.8932 36.9533 64.653 36.8427C63.7384 36.4272 63.3417 35.3263 63.768 34.3927C64.1944 33.4592 65.2844 33.0382 66.1991 33.4565C67.1138 33.872 67.5104 34.9729 67.0841 35.9064C66.7657 36.5972 66.0912 37.0046 65.3924 37.0046ZM65.4544 34.6464C65.2682 34.6464 65.0821 34.7624 64.993 34.9567C64.877 35.213 64.9741 35.5098 65.2116 35.6177C65.449 35.7257 65.7377 35.6042 65.8537 35.3479C65.9698 35.0916 65.8726 34.7948 65.6352 34.6841C65.5758 34.6572 65.5138 34.6464 65.4544 34.6464Z" fill="#4AB69F"/>
<path d="M56.4689 24.8654C56.3529 24.8654 56.2369 24.8357 56.1343 24.7763C55.9104 24.6468 55.7782 24.4013 55.7971 24.1449L55.9212 22.356L55.1576 21.0528C55.0416 20.8558 55.0335 20.613 55.136 20.4106C55.2385 20.2056 55.4355 20.0679 55.6621 20.041L56.8574 19.9034L57.9448 18.6784C58.0797 18.5246 58.2767 18.4436 58.4818 18.4517C58.6868 18.4625 58.8757 18.5624 58.9944 18.7296L60.0899 20.2379L60.9911 20.3594C61.2366 20.3917 61.4444 20.5563 61.5334 20.7884C61.6225 21.0204 61.5739 21.2821 61.412 21.4683L60.4461 22.5854L60.5459 24.1503C60.5621 24.3959 60.4434 24.6306 60.2356 24.7628C60.0278 24.895 59.7661 24.9058 59.5503 24.7871L58.0123 23.9561L56.8494 24.752C56.736 24.8276 56.6011 24.8654 56.4689 24.8654ZM57.9718 22.4882C58.0824 22.4882 58.1931 22.5152 58.2929 22.5692L59.1185 23.0171L59.0781 22.3938C59.0673 22.2184 59.1239 22.043 59.24 21.9081L59.5718 21.525C59.4099 21.4899 59.2642 21.3982 59.1671 21.2606L58.3927 20.1975L57.6831 20.9961C57.5455 21.1499 57.3485 21.2255 57.1596 21.2228L56.8413 21.2606L57.1866 21.8515C57.2541 21.9675 57.2865 22.1051 57.2784 22.24L57.2352 22.8471L57.5887 22.6043C57.7047 22.5287 57.8396 22.4882 57.9718 22.4882Z" fill="#4AB69F"/>
<path d="M40.2417 18.5759L34.1222 13.9296L37.066 11.0641L40.2417 13.8513L46.9522 3.04232C46.8415 2.96407 46.7282 2.89122 46.6068 2.82376C46.0887 2.54315 45.5248 2.40015 44.9555 2.40015C44.629 2.40015 44.2998 2.44602 43.9788 2.54315L34.3785 5.38436C33.4989 5.64608 32.7704 6.23699 32.3279 7.05185C31.8854 7.86671 31.7856 8.80028 32.0473 9.6799L34.8885 19.2801C35.4281 21.1068 37.3547 22.1537 39.184 21.6113L48.7842 18.7701C49.6639 18.5084 50.3924 17.9175 50.8349 17.1027C51.2774 16.2878 51.3772 15.3542 51.1155 14.4746L48.8706 6.89535L41.947 18.2629L40.2417 18.5759Z" fill="#4AB69F"/>
<path d="M45.7407 1.1238C44.4699 0.254977 42.7565 0.128161 41.34 0.945717L37.8809 2.94239L43.593 1.25061C44.2999 1.04285 45.0311 1.00508 45.7407 1.1238Z" fill="#4AB69F"/>
<path d="M52.7132 12.3807L51.043 9.49097L52.4056 14.0941C52.697 15.0816 52.6592 16.1178 52.3138 17.0729C53.3769 15.7805 53.5955 13.9106 52.7132 12.3807Z" fill="#4AB69F"/>
<path d="M38.2016 23.1062C37.3301 23.1062 36.4883 22.866 35.7598 22.4343C36.947 24.2502 39.3781 24.8519 41.2776 23.7537L46.0858 20.9773L39.5642 22.9092C39.1109 23.0414 38.6522 23.1062 38.2016 23.1062Z" fill="#4AB69F"/>
<path d="M30.8438 7.07886C29.3301 8.33892 28.8876 10.5541 29.9048 12.3161L33.0077 17.6936L30.7493 10.0658C30.4579 9.07283 30.4957 8.03672 30.8438 7.07886Z" fill="#4AB69F"/>
<path d="M52.4081 14.094L51.0428 9.49083L49.8151 5.34369L48.868 6.89786L51.1129 14.4771C51.3747 15.3567 51.2748 16.2903 50.8323 17.1052C50.3898 17.92 49.6613 18.5109 48.7817 18.7726L39.1815 21.6139C37.3521 22.1562 35.4283 21.1093 34.8859 19.2826L32.0447 9.6824C31.783 8.80279 31.8828 7.86921 32.3253 7.05435C32.7679 6.23949 33.4964 5.64859 34.376 5.38686L43.9762 2.54565C44.2973 2.45122 44.6265 2.40265 44.9529 2.40265C45.5223 2.40265 46.0862 2.54565 46.6042 2.82627C46.7257 2.89102 46.839 2.96657 46.9496 3.04482L47.6619 1.89539C47.5297 1.80365 47.3894 1.72 47.2464 1.64176C46.7688 1.38273 46.2589 1.21274 45.7381 1.1264C45.0285 1.00768 44.2973 1.04545 43.5903 1.25322L37.8783 2.94499L33.9901 4.09712C32.7652 4.46138 31.7506 5.28163 31.1354 6.41218C31.0167 6.63073 30.9223 6.85468 30.8413 7.08133C30.4933 8.03919 30.4555 9.07531 30.7469 10.0655L33.0053 17.6934L33.5881 19.6658C33.947 20.8772 34.7429 21.8378 35.7548 22.4341C36.486 22.8658 37.3278 23.106 38.1966 23.106C38.6472 23.106 39.1059 23.0412 39.5592 22.909L46.0808 20.9771L49.1594 20.0651C50.3844 19.7008 51.3989 18.8806 52.0141 17.75C52.1329 17.5315 52.23 17.3048 52.3109 17.0755C52.6617 16.1176 52.6995 15.0815 52.4081 14.094Z" fill="#F0F3F5"/>
<path d="M62.5448 13.7757C62.0915 13.0768 61.0905 13.0472 60.3808 13.3709C59.8034 13.6354 59.3231 14.2182 59.1585 14.8549C59.0425 15.3001 59.1019 15.7157 59.3258 16.0179C59.5417 16.312 59.9033 16.4901 60.3458 16.517C60.3889 16.5197 60.4321 16.5224 60.478 16.5224C61.0932 16.5224 61.738 16.2553 62.1509 15.8209C62.6473 15.3028 62.9792 14.4421 62.5448 13.7757ZM61.1768 14.89C60.9771 15.0978 60.6561 15.176 60.4699 15.176C60.5238 14.9953 60.6965 14.7119 60.9448 14.5986C61.1013 14.5258 61.2874 14.515 61.39 14.5312C61.3603 14.6256 61.282 14.7794 61.1768 14.89Z" fill="#4AB69F"/>
<path d="M68.8912 30.2726C68.8561 30.2726 68.821 30.2699 68.7859 30.2645C68.5917 30.2348 68.4217 30.1215 68.3192 29.9542C68.3057 29.9326 67.8092 29.2203 66.6031 29.3714C64.4364 29.6466 63.314 26.6327 63.1926 26.2873C63.0927 26.004 63.1926 25.6856 63.4408 25.5129L65.2351 24.2475C65.54 24.0316 65.9609 24.1045 66.1741 24.4094C66.3899 24.7143 66.3171 25.1352 66.0122 25.3483L64.6604 26.3035C65.0355 27.0941 65.7235 28.1194 66.4358 28.033C67.65 27.8792 68.4622 28.2921 68.9397 28.6779L70.4669 27.3882C70.2835 27.0239 69.9111 26.5436 69.2419 26.63C67.1481 26.8998 66.6301 25.7612 66.5761 25.6316L67.8281 25.1298C67.8281 25.1298 67.8227 25.1109 67.8065 25.0812C67.8092 25.0839 68.0439 25.4239 69.0693 25.2917C70.8258 25.0623 71.7027 26.5895 71.9186 27.4286C71.9833 27.6796 71.897 27.944 71.7 28.1113L69.3256 30.1161C69.2042 30.2186 69.0504 30.2726 68.8912 30.2726Z" fill="#4AB69F"/>
<path d="M71.2118 35.3371C71.1416 35.3371 71.0688 35.3263 70.9986 35.3021C70.8178 35.2427 70.6721 35.1105 70.5939 34.9378L69.6981 32.933C69.5659 32.6389 69.6603 32.2963 69.922 32.1074L71.7676 30.788C71.9376 30.6638 72.1588 30.6315 72.3585 30.6935C72.5609 30.7556 72.7201 30.9094 72.7929 31.1064L73.6375 33.4268C73.7508 33.7371 73.6213 34.0852 73.3326 34.2471L71.5383 35.2481C71.4411 35.3101 71.3278 35.3371 71.2118 35.3371ZM71.1578 32.8872L71.5275 33.7155L72.1777 33.354L71.8324 32.4069L71.1578 32.8872Z" fill="#4AB69F"/>
<path d="M74.9754 41.7237C74.0958 41.7237 73.2081 41.4917 72.4526 41.0465C72.1531 40.8711 72.0371 40.4961 72.1828 40.1804L73.1838 38.0164C73.2701 37.8302 73.4347 37.6953 73.6344 37.6441C73.826 37.5955 74.031 37.636 74.1929 37.752C74.3332 37.8437 74.63 37.9085 75.0402 37.3284C75.7309 36.3543 77.3066 35.7283 78.7097 35.874C79.8241 35.9901 80.6578 36.5675 81.0625 37.5037C81.1408 37.6818 81.1354 37.8869 81.0517 38.0623L79.9967 40.2775C79.8672 40.5473 79.5785 40.7011 79.279 40.6525C78.6207 40.5473 77.8355 40.5635 77.625 40.6822C77.2904 41.2084 76.5781 41.462 76.1761 41.5672C75.7875 41.6725 75.3828 41.7237 74.9754 41.7237ZM73.6856 40.1453C75.0105 40.6391 76.3002 40.2046 76.4891 39.9591C76.9262 39.209 78.1539 39.182 78.9876 39.2603L79.6838 37.7978C79.449 37.4687 79.0767 37.2744 78.5667 37.2231C77.5657 37.1179 76.5026 37.6009 76.1383 38.1135C75.7147 38.7125 75.2155 39.0579 74.6543 39.1443C74.4708 39.1712 74.3008 39.1685 74.147 39.1443L73.6856 40.1453Z" fill="#4AB69F"/>
<path d="M7.45356 28.3595C7.37801 28.3595 7.30246 28.346 7.22691 28.319C6.87615 28.1949 6.69267 27.8063 6.81948 27.4556L7.34833 25.9797C7.42388 25.7692 7.59657 25.61 7.81242 25.5533C8.02828 25.4967 8.25763 25.5506 8.42492 25.6964L10.06 27.121C10.3406 27.3665 10.3703 27.7929 10.1248 28.0735C9.87925 28.3541 9.45563 28.3838 9.17232 28.1382L8.28191 27.3638L8.08764 27.9089C7.99051 28.1895 7.73148 28.3595 7.45356 28.3595Z" fill="#4AB69F"/>
<path d="M11.0394 30.3912C10.918 30.3912 10.7966 30.3588 10.6887 30.2913C10.3703 30.0971 10.2705 29.6815 10.4647 29.3632L10.891 28.6697L9.90889 28.5942C9.53654 28.5672 9.25863 28.2407 9.28831 27.8711C9.31529 27.4987 9.64177 27.2208 10.0114 27.2505L12.0944 27.4097C12.3292 27.4285 12.5369 27.5662 12.6449 27.7739C12.7528 27.9844 12.742 28.2326 12.6206 28.4323L11.6196 30.0674C11.49 30.2778 11.2661 30.3912 11.0394 30.3912Z" fill="#4AB69F"/>
<path d="M11.6465 33.2648C11.5952 33.2648 11.5439 33.2594 11.4954 33.2486L8.98873 32.6685C8.62717 32.5849 8.40052 32.2233 8.48416 31.859C8.56781 31.4975 8.92937 31.2708 9.29362 31.3545L10.4835 31.6297C10.3675 31.3005 10.5213 30.9336 10.8451 30.7878C11.1851 30.6367 11.5844 30.7905 11.7355 31.1305L12.2643 32.3177C12.3696 32.5525 12.3318 32.825 12.1672 33.022C12.0377 33.1785 11.8461 33.2648 11.6465 33.2648Z" fill="#4AB69F"/>
<path d="M6.95096 33.9259C6.83224 33.9259 6.71082 33.8935 6.60559 33.8315C6.40053 33.7073 6.27371 33.4861 6.27641 33.246L6.30339 30.7663C6.30609 30.3967 6.60829 30.0999 6.97794 30.0999C6.98064 30.0999 6.98334 30.0999 6.98604 30.0999C7.35839 30.1026 7.65789 30.4101 7.65249 30.7825L7.639 32.1073L8.44576 31.6621C8.77225 31.4813 9.18237 31.6001 9.36315 31.9265C9.54393 32.253 9.42521 32.6631 9.09873 32.8439L7.27744 33.845C7.17491 33.8989 7.06428 33.9259 6.95096 33.9259Z" fill="#4AB69F"/>
<path d="M6.74112 31.2869C6.60351 31.2869 6.4659 31.2464 6.34718 31.1574L4.52589 29.838C4.31543 29.6842 4.2102 29.4251 4.25877 29.1688C4.30464 28.9125 4.49621 28.7074 4.74715 28.64L6.11783 28.2703C6.47669 28.1732 6.84905 28.3863 6.94348 28.7452C7.04062 29.1041 6.82746 29.4764 6.4686 29.5708L6.4632 29.5735L7.13775 30.0619C7.43995 30.2805 7.50741 30.7014 7.28885 31.0036C7.15664 31.1898 6.94888 31.2869 6.74112 31.2869Z" fill="#4AB69F"/>
</svg>
