<svg width="85" height="84" viewBox="0 0 85 84" fill="none" xmlns="http://www.w3.org/2000/svg">
<path d="M59.7024 35.5952C59.6268 35.5952 59.5486 35.5817 59.473 35.5547C59.1223 35.4279 58.9415 35.042 59.0683 34.6913C61.6316 27.5761 59.6511 19.7999 59.6295 19.7216C59.6214 19.6866 58.6393 16.0521 55.7198 12.5903C51.8398 7.98446 46.5351 5.83399 39.9461 6.19555C39.5846 6.21983 39.2554 5.93112 39.2365 5.55877C39.2149 5.18642 39.501 4.86803 39.8733 4.84914C48.656 4.36616 53.9201 8.34332 56.7883 11.7646C59.8859 15.4585 60.8923 19.2225 60.9355 19.3817C61.0218 19.7162 63.0428 27.6436 60.3365 35.15C60.2393 35.4252 59.9803 35.5952 59.7024 35.5952Z" fill="#F0F3F5"/>
<path d="M21.8866 38.1099C21.6518 38.1099 21.4252 37.9885 21.3011 37.77C16.1718 28.7607 16.9435 17.9732 23.1736 11.538C23.4326 11.2709 23.859 11.2628 24.1288 11.5218C24.3959 11.7809 24.404 12.2072 24.145 12.477C18.3303 18.4832 17.6423 28.6096 22.4775 37.1035C22.661 37.4273 22.5476 37.8401 22.2238 38.0236C22.1132 38.0803 21.9999 38.1099 21.8866 38.1099Z" fill="#F0F3F5"/>
<path d="M24.5337 13.5967C24.3502 13.5967 24.1667 13.5211 24.0345 13.3754C18.2765 7.02113 22.9714 0.548144 23.0173 0.483388C23.217 0.213567 23.5839 0.132623 23.8807 0.291817C29.3661 3.25984 44.2845 4.98939 44.4329 5.00558C44.8026 5.04875 45.0697 5.38332 45.0265 5.75298C44.9834 6.12263 44.6488 6.38706 44.2791 6.34658C43.6747 6.27643 29.8464 4.6737 23.7917 1.76234C22.9256 3.22747 20.8182 7.81711 25.0328 12.4688C25.2838 12.744 25.2622 13.1703 24.987 13.4213C24.8575 13.54 24.6956 13.5967 24.5337 13.5967Z" fill="#F0F3F5"/>
<path d="M28.4807 16.9722C27.1747 18.9149 24.4199 17.3418 24.2607 19.3979C24.0259 22.4576 29.9566 21.6671 32.2366 18.529C32.7034 17.8842 33.1594 17.1772 33.1809 16.3813C33.2025 15.5853 32.6521 14.73 31.8588 14.6733C31.8588 14.6733 30.5394 13.9124 28.4807 16.9722Z" fill="#F0F3F5"/>
<path d="M47.7871 14.5705C49.5598 16.1004 51.802 13.8555 52.4982 15.7982C53.5343 18.688 47.6009 19.4893 44.5763 17.0636C43.9557 16.5672 43.3297 16.0032 43.0976 15.2424C42.8656 14.4815 43.1705 13.5101 43.9206 13.2457C43.9206 13.2457 44.9945 12.1637 47.7871 14.5705Z" fill="#F0F3F5"/>
<path d="M24.602 35.0069C24.3699 34.5401 23.949 33.3745 24.5831 31.966C23.6522 31.3077 22.8481 30.4227 22.1709 29.3164C21.7905 29.624 21.4559 29.9883 21.1995 30.4092C21.5044 30.3039 21.8255 30.2581 22.1493 30.3039C24.0542 30.5549 23.2529 31.6854 22.1061 32.3627C21.6555 32.6325 21.1456 32.8483 20.6113 32.8537C20.6302 33.0993 20.668 33.3529 20.73 33.6092C21.2238 36.1159 24.1109 37.5918 26.4502 36.7823C25.692 36.4397 25.004 35.8164 24.602 35.0069Z" fill="#4AB69F"/>
<path d="M24.988 28.3018C24.4133 28.3099 23.8547 28.4259 23.334 28.6363C23.9006 29.5537 24.559 30.2849 25.3118 30.83C25.614 30.4711 25.9944 30.1069 26.4693 29.7399C26.1023 29.5699 25.471 29.1733 24.988 28.3018Z" fill="#4AB69F"/>
<path d="M60.3526 29.4511C60.3418 29.1867 60.3094 28.9331 60.2581 28.693C59.7455 28.8333 59.1951 28.7685 58.6878 28.6336C57.4008 28.299 56.3188 27.4329 58.078 26.6666C58.3775 26.5317 58.6986 26.4885 59.0197 26.5047C58.6797 26.1944 58.2912 25.9462 57.8756 25.76C57.4655 26.7449 56.9232 27.5921 56.2405 28.299C56.4159 28.523 56.5643 28.7604 56.6803 29.014C57.0311 29.7776 56.7424 30.8623 55.9086 31.9146C55.5956 32.3112 54.9724 32.9696 53.9443 33.6226C54.2762 33.7791 54.6351 33.9005 55.0209 33.9733C57.7245 34.6371 60.59 32.2438 60.3526 29.4511Z" fill="#4AB69F"/>
<path d="M53.084 26.432C53.942 26.6856 54.6651 27.004 55.2425 27.3953C55.7822 26.8421 56.222 26.1757 56.5647 25.404C55.3667 25.2556 54.0985 25.574 53.084 26.432Z" fill="#4AB69F"/>
<path d="M55.906 31.9174C56.7398 30.8651 57.0312 29.7804 56.6777 29.0168C56.5617 28.7632 56.4133 28.5258 56.2379 28.3018C56.9205 27.5949 57.4629 26.7449 57.873 25.7628C58.4639 24.3408 58.7715 22.6383 58.785 20.6605C58.785 20.4581 58.696 20.2638 58.5395 20.1343C58.4612 20.0696 50.4719 13.656 41.5219 19.5299C41.3519 19.6406 41.2413 19.8241 41.2197 20.0264C41.2089 20.1289 41.0902 21.4106 41.3627 23.0484C39.7681 22.7867 38.6375 23.4019 38.0763 23.8228C37.9576 21.8774 37.391 20.3961 37.3478 20.2908C37.2722 20.102 37.1184 19.9563 36.9242 19.8942C34.4175 19.0982 32.1672 19.0011 30.1949 19.306C30.0087 19.3195 29.8252 19.3411 29.6471 19.3842C29.5446 19.4085 29.4394 19.4382 29.3341 19.4679C23.8244 20.6956 20.7377 25.0019 20.6972 25.0613C20.5812 25.2285 20.5461 25.439 20.6027 25.6333C21.0102 27.0525 21.5336 28.2802 22.1677 29.3163C22.845 30.4226 23.6517 31.3103 24.5799 31.966C23.9485 33.3744 24.3667 34.54 24.5988 35.0068C25.0008 35.8163 25.6889 36.4396 26.447 36.7795C26.8572 36.963 27.2862 37.0656 27.7044 37.0656C28.0174 37.0656 28.3223 37.0089 28.6056 36.8902C28.9294 36.7526 29.2721 36.5907 29.6336 36.418C30.6697 35.9269 31.8839 35.3576 33.4003 34.9826L33.4651 36.0888C33.4813 36.3775 33.6809 36.6231 33.9588 36.7013C34.6091 36.8794 35.3592 36.9468 36.1147 36.9468C38.1465 36.9468 40.2025 36.4693 40.3212 36.4423C40.6342 36.3694 40.8501 36.0861 40.842 35.765L40.8204 35.0473C41.1172 35.104 41.4086 35.1552 41.6946 35.2038L41.8295 36.7013C41.8565 37.0035 42.0831 37.2517 42.3826 37.3057C42.7469 37.3705 43.1408 37.3974 43.5456 37.3974C45.8552 37.3974 48.5588 36.4989 48.691 36.4531C48.9851 36.3532 49.174 36.0699 49.147 35.7596L49.1147 35.3576C51.2786 35.0122 52.8409 34.3242 53.9417 33.628C54.9697 32.9751 55.593 32.314 55.906 31.9174ZM57.4305 20.9843C57.3873 22.7165 57.0959 24.1924 56.5617 25.4012C56.219 26.1756 55.7792 26.8421 55.2396 27.3925C54.6622 27.0013 53.939 26.6829 53.081 26.4292C53.0513 26.4212 53.0244 26.4104 52.992 26.4023C53.6099 25.895 53.9606 25.3284 54.1549 24.8508C54.7053 23.499 54.4706 21.7883 53.51 20.1505C53.1592 19.5542 52.706 19.0524 52.1636 18.653C54.8348 19.2223 56.7614 20.4932 57.4305 20.9843ZM46.4003 19.5353C47.1045 19.0793 48.4968 18.7421 49.8917 19.0712C50.6472 19.2493 51.686 19.6999 52.3498 20.8332C53.0945 22.104 53.2996 23.383 52.9083 24.3408C52.6088 25.0774 51.9666 25.6306 51.0088 25.9894C49.9996 25.8437 48.8664 25.7601 47.6063 25.7412C47.5902 25.7277 47.5713 25.7142 47.5551 25.7007C46.8401 25.0451 46.6431 24.0548 46.7618 23.41C46.9696 22.2848 48.4509 21.4996 49.4762 21.6669C49.7811 21.7182 50.005 21.899 50.1373 22.2066C50.3099 22.6086 50.2614 23.0727 50.1211 23.2804C50.0779 23.329 49.8701 23.445 49.6678 23.4154C49.576 23.4019 49.4573 23.3587 49.3521 23.1374C49.1929 22.8002 48.7909 22.6599 48.4536 22.819C48.1163 22.9782 47.9733 23.3803 48.1352 23.7176C48.4293 24.3354 48.9635 24.7159 49.5976 24.7645C50.2371 24.8103 50.9225 24.5108 51.2354 24.0467C51.6618 23.4153 51.7211 22.4629 51.3811 21.675C51.0681 20.9492 50.4584 20.4635 49.7029 20.3367C48.0246 20.0588 45.7958 21.2325 45.4424 23.1671C45.2859 24.0224 45.4694 24.9641 45.9119 25.752C45.5746 25.7601 45.2319 25.7709 44.8812 25.7871C44.784 25.5955 44.6869 25.3904 44.5952 25.1557C43.5672 22.533 44.927 20.4905 46.4003 19.5353ZM42.5445 20.477C43.1678 20.0858 43.7857 19.762 44.3955 19.4895C43.4484 20.5391 42.7712 21.9907 42.8899 23.723C42.5337 22.3253 42.5256 21.049 42.5445 20.477ZM38.0709 25.2906C38.106 25.296 38.1411 25.2987 38.1761 25.2987C38.3569 25.2987 38.5377 25.2259 38.6699 25.0855C38.7185 25.0343 39.8004 23.9226 41.7 24.5162C41.843 24.9938 42.0265 25.4795 42.2558 25.9598C42.0643 25.976 41.8727 25.9921 41.6784 26.011C40.2996 26.1432 39.0531 26.2835 37.9225 26.4292C37.9954 26.0461 38.0439 25.6657 38.0709 25.2906ZM36.193 21.0814C36.4547 21.9044 37.0888 24.3004 36.4898 26.6316C36.1498 26.6802 35.8206 26.7314 35.5076 26.7827C35.8719 25.7655 35.9312 24.6808 35.7774 23.8336C35.5454 22.5573 34.8735 21.4295 33.8671 20.593C34.6118 20.6848 35.3862 20.8413 36.193 21.0814ZM29.952 20.6956C30.7264 20.5175 31.7409 20.7549 32.5963 21.3188C33.5865 21.9718 34.2449 22.9486 34.4499 24.0683C34.6037 24.9048 34.4715 26.119 33.886 27.0579C31.9109 27.4276 30.5186 27.7999 29.5446 28.1237C28.9726 27.8782 28.5436 27.5031 28.2845 27.0067C27.8366 26.1459 27.9877 25.1476 28.3169 24.5837C28.8943 23.5961 30.5564 23.3614 31.463 23.8714C31.7328 24.0225 31.8812 24.2707 31.9001 24.6053C31.9244 25.0397 31.7193 25.4606 31.517 25.609C31.4603 25.6387 31.2283 25.6764 31.0448 25.5793C30.9638 25.5361 30.864 25.4552 30.8424 25.2097C30.8074 24.84 30.4809 24.5675 30.1058 24.6026C29.7362 24.6376 29.4636 24.9668 29.4987 25.3392C29.5635 26.0191 29.9358 26.5588 30.5186 26.8205C31.1015 27.0822 31.8489 27.0336 32.3021 26.7045C32.9173 26.2566 33.2978 25.3796 33.2492 24.5243C33.2034 23.7364 32.7932 23.07 32.1268 22.6922C30.6427 21.8585 28.1496 22.2039 27.1567 23.8983C26.5226 24.983 26.4956 26.4832 27.0892 27.6272C27.3159 28.0617 27.6235 28.434 27.9985 28.747C27.9203 28.7875 27.8501 28.8253 27.7908 28.8603C27.7179 28.9035 27.6504 28.944 27.5776 28.9871C27.5101 28.7686 27.3375 28.5905 27.1 28.5338C27.0434 28.5177 25.7428 28.1075 25.6835 25.4822C25.616 22.7111 28.2009 21.1003 29.952 20.6956ZM25.3111 30.8273C24.5583 30.285 23.9 29.5511 23.3333 28.6337C22.8045 27.7756 22.3566 26.7584 21.995 25.5793C22.397 25.0693 23.4035 23.901 24.9657 22.8136C24.5259 23.6393 24.3101 24.5513 24.3317 25.5146C24.3613 26.7665 24.6339 27.6596 24.99 28.2991C25.473 29.1706 26.1044 29.57 26.4713 29.7345C25.9938 30.1042 25.6106 30.4685 25.3111 30.8273ZM34.7818 35.5006L34.7359 34.7235C36.0769 34.5319 37.6284 34.5104 39.4605 34.7991L39.474 35.2389C38.4891 35.4278 36.3522 35.765 34.7818 35.5006ZM43.1219 36.0348L43.0653 35.3981C44.463 35.5627 45.723 35.6112 46.8589 35.5708C45.7958 35.8325 44.3172 36.1185 43.1219 36.0348ZM40.6315 33.6389C34.8439 32.457 31.3605 34.1083 29.0562 35.1984C28.7055 35.363 28.3763 35.5195 28.0768 35.6463C27.4589 35.908 26.3094 35.4143 25.8103 34.4078C25.1087 32.9913 26.072 31.3993 28.4572 30.0367C29.1506 29.6401 32.1591 28.2775 41.8079 27.3574C43.0653 27.2387 44.9162 27.1011 46.8589 27.1011C50.5339 27.1011 54.5381 27.5868 55.4554 29.5807C55.5229 29.7264 55.4635 30.3066 54.851 31.0809C53.0486 33.3501 48.3672 35.2146 40.6315 33.6389Z" fill="#F0F3F5"/>
<path d="M38.1512 30.0557C38.4075 29.8587 38.1053 29.6402 37.8166 29.4972C37.5063 29.3434 37.1825 29.2166 36.8506 29.1167C36.6105 29.0466 36.3542 28.9899 36.1113 29.0466C35.8685 29.1059 35.6445 29.3137 35.6445 29.5619C35.6445 29.8506 35.9197 30.0557 36.1815 30.1798C36.3973 30.2824 36.6375 30.3633 36.8749 30.3363C37.1124 30.3093 37.3255 30.1798 37.5495 30.0908C37.7707 30.0017 37.9596 30.2014 38.1512 30.0557Z" fill="#F0F3F5"/>
<path d="M42.3651 29.2435C42.0953 29.0654 42.3813 28.8253 42.6619 28.6634C42.9614 28.488 43.2744 28.3396 43.5982 28.2182C43.8329 28.1318 44.0838 28.0563 44.3294 28.0994C44.5749 28.1426 44.8124 28.3342 44.8312 28.5824C44.8501 28.8711 44.5884 29.0951 44.3375 29.2354C44.127 29.3514 43.8949 29.4485 43.6575 29.4404C43.4174 29.4296 43.1961 29.3163 42.9695 29.2408C42.7428 29.1652 42.5648 29.3757 42.3651 29.2435Z" fill="#F0F3F5"/>
<path d="M58.437 14.7298C58.3291 14.7298 58.2212 14.7056 58.1186 14.6489C57.7895 14.4735 57.668 14.0634 57.8434 13.7369C58.1267 13.208 58.4964 11.7078 57.7841 7.62546C57.5385 6.2197 57.2336 4.91377 57.0204 4.06923C52.8895 6.83219 45.6206 6.30334 45.2914 6.27906C44.919 6.24938 44.6438 5.9256 44.6708 5.55324C44.7005 5.18089 45.0243 4.90028 45.3966 4.93266C45.4776 4.93806 53.5101 5.52087 56.9638 2.40984C57.1365 2.25334 57.3793 2.19938 57.6033 2.26413C57.8272 2.32889 58.0026 2.50427 58.0647 2.72822C58.3183 3.62942 60.5092 11.6134 59.0306 14.3737C58.9092 14.6003 58.6771 14.7298 58.437 14.7298Z" fill="#F0F3F5"/>
<path d="M60.5251 36.0269C60.2499 36.0269 59.9882 35.8569 59.8911 35.5817C59.7642 35.2309 59.9477 34.8451 60.2985 34.7182C61.4371 34.3081 63.1882 34.0977 64.165 34.0059C63.7333 32.2413 61.7528 29.5512 60.9353 28.5582C60.7491 28.3316 60.7302 28.0105 60.8894 27.765L64.5805 22.0259C61.6449 18.4508 58.5743 16.6538 58.5447 16.6376C58.2209 16.4514 58.1102 16.0386 58.2964 15.7175C58.4826 15.3937 58.8954 15.2831 59.2165 15.4693C59.3595 15.5502 62.7485 17.5253 65.9404 21.5645C66.1185 21.7912 66.1347 22.1041 65.9782 22.347L62.2871 28.0888C63.1964 29.249 65.6005 32.5111 65.6005 34.6238C65.6005 34.98 65.3226 35.2741 64.9664 35.2983C64.9394 35.301 62.1872 35.4764 60.7572 35.9891C60.6789 36.0134 60.6007 36.0269 60.5251 36.0269Z" fill="#F0F3F5"/>
<path d="M41.2734 40.6596C40.5881 40.6596 39.8299 40.5139 39.0609 40.0957C38.7344 39.9176 38.613 39.5075 38.7911 39.181C38.9692 38.8545 39.3793 38.7331 39.7058 38.9112C41.5055 39.8934 43.3051 38.752 43.324 38.7412C43.637 38.5389 44.0553 38.6279 44.2576 38.9409C44.46 39.2539 44.3709 39.6721 44.0579 39.8745C43.9878 39.9203 42.8168 40.6596 41.2734 40.6596Z" fill="#F0F3F5"/>
<path d="M2.31728 83.4287C2.14729 83.4287 1.98539 83.3639 1.85858 83.2506C1.72637 83.1292 1.64812 82.9565 1.64273 82.7784L0.218083 39.734C0.20729 39.3751 0.479806 39.0675 0.838667 39.0379L18.5632 37.6132C18.9355 37.5862 19.2593 37.8614 19.289 38.2311C19.3187 38.6034 19.0407 38.9272 18.6711 38.9569L1.58876 40.3303L2.97024 82.0499L83.4037 78.3156L79.7233 36.2992L63.437 37.0601C63.0646 37.0763 62.7489 36.7903 62.7327 36.4179C62.7166 36.0456 63.0026 35.7299 63.3749 35.7137L80.3088 34.9231C80.6785 34.9096 80.9807 35.1767 81.0131 35.5383L84.8121 78.9011C84.8283 79.0846 84.769 79.2654 84.6475 79.403C84.5261 79.5406 84.3534 79.6242 84.17 79.6323L2.35235 83.4314C2.33886 83.4287 2.32807 83.4287 2.31728 83.4287Z" fill="#4AB69F"/>
<path d="M32.1325 52.7719C32.03 52.7719 31.9274 52.7476 31.8303 52.7017C31.4957 52.5344 31.3608 52.1297 31.5281 51.7978C33.317 48.22 34.1049 45.7323 34.113 45.708C34.4179 44.7151 34.7444 42.8128 34.3234 41.944C33.7514 40.7622 27.7695 37.1844 25.4518 37.6566C24.7691 37.7969 24.4345 38.4363 23.5684 40.2657C23.393 40.6354 23.1988 41.0428 22.9802 41.4907C22.7347 41.9926 22.3596 42.8641 21.882 43.9677C21.5421 44.7528 21.1562 45.6513 20.7326 46.6092C20.5815 46.9492 20.1822 47.103 19.8422 46.9519C19.5022 46.8008 19.3484 46.4014 19.4995 46.0615C19.9204 45.109 20.3063 44.2159 20.6436 43.4334C21.1265 42.3137 21.5097 41.4286 21.7687 40.8971C21.9846 40.4546 22.1761 40.0526 22.3488 39.6883C23.2878 37.7078 23.8032 36.6151 25.1819 36.3344C28.1338 35.73 34.7363 39.7045 35.5376 41.3531C36.3282 42.9801 35.4972 45.7916 35.4 46.1073C35.3676 46.2153 34.5771 48.7165 32.7342 52.3995C32.6182 52.6343 32.3807 52.7719 32.1325 52.7719Z" fill="#F0F3F5"/>
<path d="M33.139 45.3112C31.3096 45.3112 25.387 45.0279 22.8345 41.4906C22.616 41.1884 22.6861 40.7675 22.9856 40.5489C23.2878 40.3303 23.7088 40.4005 23.9273 40.7C26.4771 44.2373 33.5437 43.954 33.6138 43.954C33.9943 43.9351 34.3019 44.2238 34.3181 44.5962C34.3343 44.9686 34.0483 45.2842 33.6759 45.3004C33.6327 45.3031 33.4412 45.3112 33.139 45.3112Z" fill="#F0F3F5"/>
<path d="M51.7218 51.5496C51.5033 51.5496 51.2874 51.4417 51.1579 51.2448C48.8968 47.8018 47.8202 45.4085 47.7743 45.3087C47.6394 45.0038 46.4873 42.311 47.0809 40.603C47.6826 38.8708 53.7697 34.1462 56.7755 34.4053C58.1786 34.524 58.8181 35.5466 59.9837 37.4057C60.1996 37.7483 60.4343 38.1261 60.7014 38.5389C61.0225 39.0381 61.5082 39.8745 62.1207 40.9349C62.547 41.6715 63.0327 42.5107 63.5588 43.4038C63.7477 43.7248 63.6425 44.1377 63.3214 44.3266C63.0003 44.5154 62.5875 44.4102 62.3986 44.0891C61.8698 43.1933 61.3814 42.3488 60.9524 41.6095C60.348 40.5653 59.8704 39.7396 59.5655 39.2674C59.2957 38.8492 59.0555 38.4661 58.8397 38.1207C57.7658 36.4046 57.3584 35.8083 56.6622 35.749C54.3094 35.5493 48.7862 39.8044 48.3545 41.0455C48.0388 41.9575 48.5865 43.8085 49.0074 44.761C49.0155 44.7825 50.0894 47.1597 52.2858 50.5054C52.4908 50.8157 52.4044 51.234 52.0915 51.439C51.9781 51.5146 51.8486 51.5496 51.7218 51.5496Z" fill="#F0F3F5"/>
<path d="M49.3445 44.3105C48.9938 44.3105 48.6997 44.0407 48.6727 43.6845C48.6457 43.3121 48.9263 42.9911 49.296 42.9641C49.3661 42.9587 56.4219 42.4028 58.5346 38.6011C58.7154 38.2746 59.1255 38.1586 59.452 38.3394C59.7785 38.5201 59.8945 38.9302 59.7137 39.2567C57.2449 43.698 49.7115 44.2889 49.3931 44.3105C49.3769 44.3105 49.3607 44.3105 49.3445 44.3105Z" fill="#F0F3F5"/>
<path d="M42.6712 62.5393C42.5579 62.5393 42.4445 62.5123 42.342 62.4529L7.6809 43.1149C7.35442 42.9342 7.23841 42.5213 7.41919 42.1975C7.59997 41.8711 8.01278 41.755 8.33657 41.9358L42.628 61.0688L74.0891 38.841C74.394 38.6251 74.8149 38.698 75.028 39.0029C75.2439 39.3078 75.1711 39.7287 74.8662 39.9418L43.057 62.4152C42.9464 62.4988 42.8088 62.5393 42.6712 62.5393Z" fill="#4AB69F"/>
<path d="M3.9795 81.926C3.81221 81.926 3.64761 81.8639 3.5181 81.7425C3.24558 81.4862 3.23479 81.0598 3.48842 80.79L26.6741 56.1824C26.9304 55.9099 27.3567 55.8991 27.6265 56.1527C27.8991 56.4091 27.9099 56.8354 27.6562 57.1052L4.47056 81.7128C4.33835 81.8558 4.15758 81.926 3.9795 81.926Z" fill="#4AB69F"/>
<path d="M82.5536 77.7327C82.381 77.7327 82.2083 77.6653 82.0761 77.5331L58.9713 54.3474C58.7096 54.083 58.7096 53.6567 58.974 53.3922C59.2385 53.1305 59.6648 53.1305 59.9292 53.3949L83.0339 76.5806C83.2957 76.845 83.2957 77.2713 83.0312 77.5358C82.8963 77.6653 82.7236 77.7327 82.5536 77.7327Z" fill="#4AB69F"/>
<path d="M41.0441 48.193C38.7183 48.193 36.87 47.7559 36.7378 47.7235C36.3762 47.6345 36.155 47.2702 36.2413 46.9086C36.3277 46.5471 36.6946 46.3231 37.0562 46.4122C37.1102 46.4257 42.4067 47.6722 46.0898 45.832C46.4243 45.6648 46.8291 45.7997 46.9937 46.1343C47.1609 46.4688 47.026 46.8736 46.6915 47.0382C44.8999 47.934 42.8303 48.193 41.0441 48.193Z" fill="#F0F3F5"/>
<path d="M41.8806 52.9661C41.7646 52.9661 41.6513 52.9365 41.546 52.8771L36.0066 49.7121C35.6828 49.5259 35.5695 49.1158 35.7557 48.792C35.9419 48.4682 36.352 48.3549 36.6758 48.5411L41.8401 51.4929L46.7104 48.023C47.0126 47.8072 47.4362 47.8773 47.6521 48.1822C47.8679 48.4844 47.7978 48.908 47.4929 49.1239L42.2718 52.842C42.1558 52.923 42.0182 52.9661 41.8806 52.9661Z" fill="#F0F3F5"/>
<path d="M37.8199 55.0598C37.7335 55.0598 37.6445 55.0571 37.5555 55.0517C36.12 54.9573 34.8572 54.0993 33.7996 52.5019C33.5945 52.1916 33.6781 51.7734 33.9911 51.5684C34.3014 51.3633 34.7197 51.4469 34.9247 51.7599C35.7342 52.9822 36.6462 53.6379 37.6391 53.7053C39.4631 53.8241 41.1171 51.9839 41.136 51.965C41.3815 51.6844 41.8078 51.6574 42.0884 51.9029C42.3691 52.1485 42.3987 52.5721 42.1532 52.8527C42.0696 52.9444 40.197 55.0598 37.8199 55.0598Z" fill="#F0F3F5"/>
<path d="M45.8287 54.8575C43.5595 54.8575 41.633 53.1037 41.5439 53.0227C41.2714 52.7691 41.2525 52.3428 41.5061 52.0703C41.7598 51.7978 42.1834 51.7789 42.4586 52.0298C42.4775 52.0487 44.4013 53.789 46.3035 53.4679C47.2965 53.3007 48.1518 52.5721 48.8399 51.3013C49.0179 50.9748 49.4281 50.8534 49.7546 51.0288C50.081 51.2068 50.2025 51.6143 50.0271 51.9435C49.1286 53.6001 47.9494 54.5607 46.5221 54.7982C46.2873 54.8413 46.0553 54.8575 45.8287 54.8575Z" fill="#F0F3F5"/>
<path d="M33.3361 62.0644C33.2551 62.0644 33.1715 62.0509 33.0905 62.0186C32.7425 61.8836 32.5725 61.4924 32.7074 61.1443L35.4757 54.0238C35.6107 53.6757 36.0019 53.503 36.35 53.6406C36.698 53.7755 36.868 54.1668 36.7331 54.5149L33.9648 61.6354C33.8595 61.9025 33.6059 62.0644 33.3361 62.0644Z" fill="#F0F3F5"/>
<path d="M51.5354 61.7487C51.2683 61.7487 51.0147 61.5895 50.9094 61.3251L47.9819 54.0453C47.8416 53.7 48.0116 53.306 48.3569 53.1684C48.7023 53.0281 49.0962 53.1981 49.2339 53.5435L52.1614 60.8232C52.3017 61.1686 52.1317 61.5625 51.7863 61.7001C51.7054 61.7325 51.6191 61.7487 51.5354 61.7487Z" fill="#F0F3F5"/>
<path d="M2.52714 38.3257C2.34366 38.3257 2.16287 38.2528 2.02796 38.1071C1.77703 37.8319 1.79593 37.4056 2.07115 37.1547L14.4154 25.8654C14.6906 25.6144 15.1169 25.6333 15.3679 25.9085C15.6188 26.1838 15.5999 26.6101 15.3247 26.861L2.98314 38.1503C2.85363 38.269 2.69173 38.3257 2.52714 38.3257Z" fill="#4AB69F"/>
<path d="M78.1743 34.316C78.0286 34.316 77.8829 34.2701 77.7587 34.173L65.9433 24.8884C65.6519 24.6591 65.6006 24.2355 65.83 23.9414C66.0593 23.65 66.483 23.5987 66.7771 23.828L78.5925 33.1126C78.8839 33.3419 78.9352 33.7655 78.7058 34.0596C78.5709 34.2296 78.3739 34.316 78.1743 34.316Z" fill="#4AB69F"/>
<path d="M33.26 64.3391C33.2276 64.3391 33.198 64.3364 33.1683 64.3337C33.1521 64.331 33.1251 64.331 33.0927 64.331C32.7339 64.3148 31.892 64.277 31.3524 63.5971C30.9584 63.1033 30.8424 62.4045 31.0043 61.5249C31.0637 61.1984 31.3578 60.9609 31.6897 60.9744C32.9983 61.0149 34.6577 61.2065 35.1461 61.8891C35.4051 62.2507 35.4078 62.7013 35.1542 63.1249C34.825 63.6753 33.8644 64.3391 33.26 64.3391ZM32.286 62.3586C32.2968 62.534 32.3399 62.6689 32.4101 62.7579C32.5693 62.9576 32.9497 62.9738 33.1548 62.9846C33.1872 62.9873 33.2168 62.9873 33.2438 62.99C33.4003 62.9387 33.6675 62.766 33.8428 62.6122C33.5056 62.5043 32.92 62.4099 32.286 62.3586Z" fill="#F0F3F5"/>
<path d="M51.6839 64.1529C51.4816 64.1529 51.2684 64.1205 51.0525 64.0369C50.4616 63.8102 50.0083 63.2679 49.7034 62.4287C49.5901 62.1157 49.7223 61.765 50.0137 61.6058C51.1605 60.9771 52.6904 60.2998 53.4567 60.6398C53.8614 60.8206 54.0934 61.2065 54.0907 61.7002C54.088 62.3748 53.543 63.5134 52.9926 63.7509C52.9764 63.7589 52.9548 63.7697 52.9251 63.7859C52.6904 63.9074 52.2317 64.1529 51.6839 64.1529ZM51.2279 62.4935C51.3278 62.6392 51.4303 62.7336 51.5355 62.7741C51.773 62.8658 52.1102 62.6878 52.291 62.5906C52.3207 62.5744 52.345 62.5609 52.3693 62.5502C52.4772 62.426 52.6202 62.1427 52.693 61.9215C52.3531 62.0024 51.7973 62.2183 51.2279 62.4935Z" fill="#F0F3F5"/>
</svg>
