<svg xmlns="http://www.w3.org/2000/svg" width="42" height="42" fill="none" viewBox="0 0 42 42">
  <path fill="#232323" d="M20.58 40.5c10.715 0 19.4-8.686 19.4-19.4 0-10.714-8.685-19.4-19.4-19.4-10.714 0-19.4 8.686-19.4 19.4 0 10.714 8.686 19.4 19.4 19.4Z"/>
  <path fill="#fff" d="m22.1 29.52 4.35.35c.15.01.15.24 0 .24l-3.84.4c-.06 0-.1.04-.12.1l-.87 4.41c-.03.17.14.31.3.24l8.43-4.74a.22.22 0 0 0 0-.4l-9.59-4.6a.216.216 0 0 0-.28.28L22 29.44s.06.07.1.07v.01Z"/>
  <path fill="#00E1EC" d="M9.03 13.65s-.06 0-.09-.02c-.19-.08-.35-.18-.5-.3a.251.251 0 0 1-.02-.35c.09-.1.25-.11.35-.02.1.09.22.16.36.22.13.05.19.2.14.33-.04.1-.13.15-.23.15l-.01-.01Zm8.63 17.29h-.03c-.35-.05-.7-.14-1.04-.27a.254.254 0 0 1-.14-.33c.05-.13.2-.19.33-.14.29.12.6.2.92.24.14.02.23.14.22.28-.02.13-.12.22-.25.22h-.01Zm-2.24-1.07c-.06 0-.13-.02-.17-.07-.27-.27-.49-.56-.65-.87a.263.263 0 0 1 .11-.34.26.26 0 0 1 .34.11c.14.27.32.52.55.74.1.1.1.25 0 .35a.25.25 0 0 1-.18.08Zm-.85-2.28h-.04a.251.251 0 0 1-.21-.29c.02-.12.05-.25.09-.37.06-.19.2-.4.42-.64.09-.1.25-.11.35-.01.1.09.11.25.01.35-.21.23-.29.37-.31.46-.03.1-.06.2-.07.3-.02.12-.13.21-.25.21l.01-.01Zm1.61-1.86c-.08 0-.15-.04-.2-.1a.253.253 0 0 1 .05-.35c.26-.19.54-.39.84-.59.11-.08.27-.05.35.07.08.11.05.27-.07.35-.29.2-.56.39-.82.58a.27.27 0 0 1-.15.05v-.01Zm2.09-1.43a.26.26 0 0 1-.21-.11.248.248 0 0 1 .07-.35c.29-.19.57-.38.83-.57.11-.08.27-.05.35.06.08.11.05.27-.06.35-.26.18-.55.38-.84.57a.23.23 0 0 1-.14.04v.01Zm2.03-1.51a.25.25 0 0 1-.18-.08.25.25 0 0 1 0-.35c.27-.27.28-.37.28-.37v-.28c0-.14.11-.28.25-.28s.25.08.25.22h-.25l.25.04v.32c-.01.21-.15.43-.43.71-.05.05-.11.07-.17.07Zm-6.65-.5h-.04c-.35-.06-.67-.2-.96-.42l-.06-.04a.243.243 0 0 1-.04-.35c.08-.11.24-.13.35-.04l.05.04c.23.17.48.28.75.33.14.02.23.15.2.29-.02.12-.13.21-.25.21v-.02Zm1.48-.23c-.1 0-.19-.06-.23-.15-.05-.13 0-.27.13-.33.27-.12.55-.28.83-.48.11-.08.27-.05.35.06.08.11.05.27-.06.35-.31.22-.62.4-.92.52-.03.01-.07.02-.1.02v.01Zm13.58-1.18h-.04c-.37-.06-.74-.17-1.04-.31-.12-.06-.18-.21-.12-.33.06-.12.21-.18.33-.12.25.12.58.22.9.26.14.02.23.15.21.28-.02.12-.12.21-.25.21l.01.01Zm1.49-.17c-.09 0-.18-.05-.22-.13a.26.26 0 0 1 .1-.34c.25-.13.42-.33.5-.61.04-.13.18-.2.31-.16.13.04.21.18.16.31-.13.41-.38.71-.75.91-.04.02-.08.03-.12.03l.02-.01Zm-18.34-.03c-.11 0-.21-.08-.24-.19-.03-.13-.05-.27-.05-.4 0-.25.05-.5.16-.74.05-.13.2-.19.33-.13.13.05.19.2.13.33-.08.18-.12.37-.12.54 0 .1.01.19.04.29.03.13-.05.27-.18.3h-.07Zm5.3-.11c-.06 0-.13-.02-.18-.07-.1-.1-.1-.26 0-.35.23-.23.45-.48.66-.73.09-.11.25-.12.35-.03.11.09.12.25.03.35-.22.27-.46.53-.69.77-.05.05-.11.07-.18.07l.01-.01Zm3.22-.14c-.1 0-.19-.06-.23-.15-.13-.28-.3-.53-.52-.75-.1-.1-.1-.25 0-.35.1-.1.25-.1.35 0 .26.26.47.56.63.9.06.13 0 .27-.13.33-.03.01-.07.02-.1.02Zm6.27-.86c-.08 0-.17-.04-.21-.12-.2-.32-.33-.67-.39-1.03-.02-.14.07-.27.2-.29.13-.02.26.07.29.2.05.29.16.59.32.85.07.12.03.27-.08.34-.04.02-.08.04-.13.04v.01Zm-8.14-.73s-.06 0-.08-.01a7.71 7.71 0 0 1-.26-.09c-.21-.07-.35-.12-.45-.2-.08-.07-.16-.13-.25-.2a.255.255 0 0 1-.06-.35c.08-.11.24-.14.35-.06.1.07.19.14.28.22.03.02.17.06.28.1.05.02.1.03.16.05 0-.04.02-.08.04-.11.11-.17.21-.34.3-.51.06-.12.12-.23.18-.35.06-.12.21-.18.33-.12.12.06.18.21.12.33-.06.13-.12.25-.19.38-.09.17-.2.35-.31.53-.04.07-.11.11-.18.12 0 .03 0 .06-.01.09a.26.26 0 0 1-.24.17l-.01.01Zm-5.59-.31c-.07 0-.15-.03-.2-.1a.243.243 0 0 1 .04-.35c.28-.22.59-.42.9-.57.12-.06.27 0 .33.12s0 .27-.12.33c-.28.14-.56.31-.81.51-.05.04-.1.05-.15.05l.01.01Zm17.8-.06c-.1 0-.19-.06-.23-.15-.11-.26-.28-.53-.5-.78-.09-.1-.08-.26.02-.35.1-.09.26-.08.35.02.26.29.45.6.58.92.05.13 0 .27-.13.33-.03.01-.07.02-.1.02l.01-.01Zm-14.48-.7h-.06c-.29-.07-.59-.11-.89-.11-.14 0-.28-.11-.28-.25s.09-.25.22-.25h.05c.34 0 .68.04 1.01.12.13.03.22.17.18.3-.03.11-.13.19-.24.19h.01Zm10.25-.62s-.06 0-.09-.02a.254.254 0 0 1-.14-.33c.14-.34.32-.66.48-.93.07-.12.22-.16.34-.09.12.07.16.22.09.34-.15.25-.32.55-.44.87-.04.1-.13.16-.23.16h-.01Zm2.53-.51s-.09-.01-.14-.04c-.26-.17-.55-.34-.85-.49a.248.248 0 0 1-.11-.33c.06-.12.21-.17.33-.11.32.16.63.33.91.52.12.08.15.23.07.35a.26.26 0 0 1-.21.11v-.01Zm-9.26-.35s-.05 0-.08-.01c-.13-.04-.2-.18-.16-.32.07-.2.13-.4.19-.6l.11-.36c.04-.13.18-.2.31-.16.13.04.21.18.16.31l-.11.36c-.06.2-.13.41-.19.61-.03.11-.13.17-.24.17h.01Zm6.96-.66h-.06c-.29-.07-.61-.12-.97-.17a.256.256 0 0 1-.22-.28c.02-.14.13-.24.28-.22.38.05.71.11 1.02.18.13.03.22.17.19.3-.03.12-.13.19-.24.19Zm-2.51-.3h-.01l-1.01-.05c-.14 0-.24-.13-.24-.26 0-.14.12-.25.26-.23l1.01.05c.14 0 .24.12.24.26 0 .13-.12.24-.25.24v-.01Zm-2.52-.19h-.04c-.34-.05-.68-.12-1.02-.2-.13-.03-.22-.17-.18-.3.03-.13.17-.21.3-.18.32.08.64.14.97.19.14.02.23.15.21.28-.02.12-.12.21-.25.21h.01Zm6-.22s-.07 0-.1-.02a.253.253 0 0 1-.13-.33c.14-.32.23-.62.27-.9.02-.14.14-.24.28-.21.14.02.23.14.21.28-.04.32-.15.67-.3 1.03-.04.09-.13.15-.23.15Zm-8.43-.46s-.07 0-.1-.02c-.32-.14-.64-.3-.93-.47a.247.247 0 0 1-.09-.34c.07-.12.22-.16.34-.09.28.16.57.31.88.44.13.05.19.2.13.33-.04.09-.13.15-.23.15Zm1.33-.56s-.07 0-.1-.02a.24.24 0 0 1-.12-.33c.15-.33.32-.65.49-.92.08-.12.23-.15.35-.08.12.07.15.23.08.35-.17.26-.32.55-.46.86-.04.09-.13.15-.23.15l-.01-.01Zm-10.06-.09c-.13 0-.25-.11-.25-.24 0-.14.1-.25.24-.26.33-.01.67-.03 1-.05.14-.01.26.1.27.23 0 .14-.1.26-.23.27-.34.02-.68.04-1.02.05h-.01Zm2.52-.18c-.12 0-.23-.09-.25-.22-.02-.14.08-.26.22-.28.33-.04.66-.09.99-.14.13-.02.27.07.29.2.02.14-.07.27-.2.29-.34.06-.67.11-1.01.15h-.04Zm2.48-.47c-.11 0-.21-.07-.24-.18-.04-.13.04-.27.17-.31.1-.03.19-.05.29-.08.21-.06.41-.13.61-.2-.03-.04-.07-.08-.1-.13a.253.253 0 0 1 .05-.35c.11-.08.27-.06.35.05.19.25.41.5.65.72.1.09.11.25.01.35-.09.1-.25.11-.35.01-.1-.09-.19-.18-.28-.28-.03.03-.06.06-.1.07-.23.08-.45.16-.68.23l-.3.09h-.07l-.01.01Zm12.1-.64c-.07 0-.15-.03-.2-.1-.16-.21-.4-.39-.71-.55a.257.257 0 0 1-.11-.34c.07-.12.22-.17.34-.11.38.2.66.42.87.69.08.11.07.27-.04.35-.05.04-.1.05-.15.05v.01Zm-9.75-.29a.26.26 0 0 1-.22-.13c-.07-.12-.02-.27.1-.34.3-.16.58-.33.84-.51.11-.08.27-.05.35.06.08.11.05.27-.06.35-.28.19-.57.37-.89.54-.04.02-.08.03-.12.03Zm4.18-.35c-.07 0-.15-.03-.2-.1a.243.243 0 0 1 .04-.35c.3-.23.61-.41.94-.54.13-.05.27.02.32.15.05.13-.02.27-.15.32-.28.1-.55.26-.81.46-.05.04-.1.05-.16.05l.02.01Zm3.36-.5h-.06c-.34-.09-.66-.15-.95-.17a.248.248 0 0 1-.23-.27c.01-.14.13-.23.27-.23.33.03.66.09 1.04.19.13.03.21.17.18.31-.03.11-.13.19-.24.19l-.01-.02Zm-9.68-.35c-.1 0-.2-.06-.24-.17-.13-.37-.2-.73-.2-1.07 0-.14.11-.25.25-.25s.25.11.25.25c0 .28.06.59.17.91.05.13-.02.27-.15.32-.03.01-.06.01-.08.01Zm4.17-.29c-.06 0-.13-.02-.18-.07-.1-.1-.1-.26 0-.35.15-.14.28-.3.42-.45.07-.09.15-.18.21-.28.08-.11.23-.14.35-.06.11.08.14.23.06.35-.08.11-.16.22-.24.32-.14.17-.29.33-.45.49-.05.05-.11.07-.18.07l.01-.02Zm-3.93-2.13s-.09-.01-.13-.04c-.12-.07-.15-.23-.08-.35.2-.31.44-.58.73-.81.1-.1.25-.09.35 0 .1.1.09.26 0 .36a.18.18 0 0 1-.07.05c-.2.17-.41.4-.57.66-.05.07-.13.12-.21.12l-.02.01Zm5.01-.06c-.12 0-.22-.08-.25-.2a.864.864 0 0 0-.07-.21c-.08-.16-.21-.31-.4-.46a.253.253 0 0 1-.05-.35c.08-.11.24-.13.35-.05.26.19.44.41.55.65.05.1.08.21.1.32.03.14-.06.27-.2.29h-.05l.02.01Zm-2.97-1.31c-.12 0-.22-.08-.25-.2-.03-.14.06-.27.2-.29.23-.05.47-.06.7-.07.13 0 .25 0 .38.02.14.02.24.14.22.28-.02.14-.14.23-.28.22a2.88 2.88 0 0 0-.92.04h-.05Zm1.26 23.58c-.11 0-.21-.07-.24-.18-.04-.13.04-.27.17-.31.15-.04.3-.09.45-.15.13-.05.27 0 .33.14.05.13 0 .27-.14.33-.17.07-.34.13-.5.17h-.07Z"/>
  <path fill="#232323" d="M27.78 29.6c-1.55 0-2.8-1.26-2.8-2.8 0-1.54 1.26-2.8 2.8-2.8 1.54 0 2.8 1.26 2.8 2.8 0 1.54-1.26 2.8-2.8 2.8Zm0-4.6c-.99 0-1.8.81-1.8 1.8s.81 1.8 1.8 1.8 1.8-.81 1.8-1.8-.81-1.8-1.8-1.8Z"/>
  <path fill="#00E1EC" d="M27.78 29.1a2.3 2.3 0 1 0 0-4.6 2.3 2.3 0 0 0 0 4.6Z"/>
  <path fill="#F1FBFC" d="M27.93 24.87c.87 0 1.49.37 1.89.89a2.285 2.285 0 0 0-2.04-1.26 2.3 2.3 0 0 0-2.25 2.78c.04-1.22.84-2.41 2.41-2.41h-.01Z"/>
  <path fill="#05DBDB" d="M29.83 25.78c0 1.25-.81 2.49-2.41 2.49-.83 0-1.44-.34-1.85-.83.28.96 1.15 1.67 2.2 1.67a2.3 2.3 0 0 0 2.3-2.3c0-.37-.09-.71-.25-1.02l.01-.01Z" style="mix-blend-mode:multiply"/>
  <path fill="#232323" d="M27 27.91c-.06 0-.11-.02-.15-.06-.08-.08-.08-.22 0-.31l1.71-1.71a.23.23 0 0 1 .31 0c.08.08.08.22 0 .31l-1.71 1.71s-.1.06-.15.06H27Z"/>
  <path fill="#232323" d="M28.71 27.91c-.06 0-.11-.02-.15-.06l-1.71-1.71a.23.23 0 0 1 0-.31.23.23 0 0 1 .31 0l1.71 1.71c.08.08.08.22 0 .31a.22.22 0 0 1-.15.06h-.01Z"/>
  <path fill="#fff" d="M22.24 18.88h-.03c-.03 0-.06 0-.09-.02-.04 0-.09 0-.13-.03-.16-.06-.68-.29-.82-.68a.608.608 0 0 1 .04-.51c.18-.32.52-.47.84-.37.2.06.65.3.57 1.27-.02.2-.18.35-.37.35l-.01-.01Z"/>
  <path fill="#fff" d="M23.01 19.05c-.13 0-.25-.01-.31-.02-.05 0-.09-.02-.13-.04-.03 0-.06-.02-.09-.03a.372.372 0 0 1-.18-.5c.41-.88.92-.87 1.12-.82.32.07.55.37.55.73 0 .18-.08.35-.21.47-.2.18-.51.22-.75.22v-.01Z"/>
  <path fill="#fff" d="M22.32 19.58c-.15 0-.3-.04-.44-.13a.8.8 0 0 1-.22-1.1c.25-.36.74-.46 1.1-.22a.8.8 0 0 1 .22 1.1c-.15.23-.4.35-.66.35Zm-10.44-8.69h-.04c-.17-.02-.73-.11-.97-.45a.635.635 0 0 1-.09-.5c.09-.35.38-.59.72-.57.21 0 .71.13.88 1.08.04.2-.1.4-.3.44h-.1c-.03 0-.06.01-.09.01l-.01-.01Z"/>
  <path fill="#fff" d="M12.54 10.89s-.06 0-.09-.01h-.1a.377.377 0 0 1-.3-.44c.17-.95.67-1.07.88-1.08.34-.02.63.22.72.57.05.18.01.35-.09.5-.24.35-.8.44-.97.45h-.04l-.01.01Z"/>
  <path fill="#fff" d="M12.16 11.54c-.09 0-.18-.02-.26-.04a.773.773 0 0 1-.45-.4.806.806 0 0 1 .37-1.06c.19-.09.41-.11.61-.04.41.14.63.6.49 1.01-.07.2-.21.36-.4.45-.11.05-.23.08-.34.08h-.02Zm-1.21 14.62a.92.92 0 0 1-.46-.11.579.579 0 0 1-.29-.42c-.07-.35.1-.69.4-.82.19-.08.69-.18 1.25.6.12.17.08.4-.09.52a.3.3 0 0 1-.08.04c-.04.03-.08.05-.12.07-.1.03-.35.11-.61.11v.01Z"/>
  <path fill="#fff" d="M11.93 25.83c-.17 0-.32-.11-.36-.28-.25-.93.15-1.26.33-1.35.3-.15.66-.07.89.21.12.14.17.31.14.49-.07.41-.54.74-.68.82-.04.03-.08.04-.13.05-.03.02-.06.03-.09.04-.03 0-.07.01-.1.01v.01Z"/>
  <path fill="#fff" d="M11.8 26.59c-.18 0-.35-.06-.5-.18a.748.748 0 0 1-.29-.53c-.05-.43.27-.83.7-.87.21-.03.42.04.58.17a.788.788 0 0 1-.41 1.4h-.09l.01.01Zm0-.84.05.04s-.02-.04-.04-.04h-.01Z"/>
  <path fill="#00E1EC" d="M22.11 18.49s-.79-.31-.59-.66c.2-.35.79-.32.71.68m.53.15s.84.12.84-.29-.53-.67-.95.25"/>
  <path fill="#232323" d="M22.32 19.21a.42.42 0 1 0 0-.84.42.42 0 0 0 0 .84Z"/>
  <path fill="#00E1EC" d="M11.88 10.51s-.84-.1-.74-.49c.1-.39.68-.51.86.48m.54.01s.84-.1.74-.49c-.1-.39-.68-.51-.86.48"/>
  <path fill="#232323" d="M12.16 11.17a.42.42 0 1 0 0-.84.42.42 0 0 0 0 .84Z"/>
  <path fill="#00E1EC" d="M11.44 25.7s-.8.27-.88-.13c-.08-.4.4-.76.98.07m.51-.22s.72-.45.46-.76c-.26-.31-.84-.17-.57.8"/>
  <path fill="#232323" d="M11.8 26.22a.42.42 0 1 0 0-.84.42.42 0 0 0 0 .84Z"/>
</svg>
