<svg width="86" height="108" viewBox="0 0 86 108" fill="none" xmlns="http://www.w3.org/2000/svg">
<path d="M36.003 49.0671C33.4561 47.4903 30.3255 48.5033 29.0119 50.7269C29.3496 50.6038 29.7045 50.5466 30.0679 50.5924C32.1941 50.8356 31.3213 52.109 30.0593 52.8846C29.5614 53.1936 28.9976 53.4426 28.4053 53.4598C28.431 53.7345 28.4768 54.0121 28.5512 54.2982C29.2065 57.3488 33.0383 58.9656 35.7054 57.3831C39.0106 55.6461 39.2567 50.9987 36.003 49.0671Z" fill="#4AB69F"/>
<path d="M59.3306 57.4632C59.2962 57.4632 59.2647 57.4603 59.2304 57.4574C57.5964 57.2285 55.7449 56.9681 53.0892 57.3315C52.6915 57.383 52.3366 57.1112 52.2823 56.7191C52.2279 56.3271 52.5026 55.9665 52.8947 55.9121C55.7477 55.523 57.7881 55.8091 59.4278 56.0381C59.8199 56.0924 60.0918 56.4559 60.0374 56.8451C59.9887 57.2056 59.6797 57.4632 59.3306 57.4632Z" fill="#021D30"/>
<path d="M40.0742 58.7312C40.0742 58.7312 40.3489 58.5137 41.8713 58.093" stroke="#021D30" stroke-width="5" stroke-miterlimit="10" stroke-linecap="round" stroke-linejoin="round"/>
<path d="M53.9572 42.2618C53.8484 42.2618 53.734 42.2446 53.6252 42.2046C53.1073 42.0214 52.8325 41.4605 53.01 40.9426C53.0643 40.7795 53.5966 39.3372 55.0818 38.7563C56.1521 38.3385 57.3712 38.4901 58.7104 39.2113C59.1969 39.4745 59.3801 40.0812 59.1168 40.5677C58.8535 41.0542 58.2468 41.2373 57.7603 40.9741C56.9705 40.5477 56.3181 40.4275 55.823 40.6164C55.1791 40.8596 54.9015 41.595 54.8987 41.6008C54.7527 42.0071 54.3664 42.2618 53.9572 42.2618Z" fill="#021D30"/>
<path d="M22.4865 52.1348C22.4121 52.1348 22.3348 52.1233 22.2575 52.0976C21.8655 51.9659 12.6509 48.778 9.96952 40.3046C9.84933 39.9269 10.0582 39.5262 10.436 39.406C10.8137 39.2858 11.2143 39.4947 11.3345 39.8725C13.7927 47.6419 22.6238 50.7096 22.7125 50.7411C23.0874 50.867 23.2877 51.2734 23.1618 51.6483C23.0645 51.9459 22.7869 52.1348 22.4865 52.1348Z" fill="#021D30"/>
<path d="M46.4408 57.4461C45.485 57.4461 44.3775 57.366 43.1041 57.1628C42.7807 57.1113 42.5346 56.848 42.5031 56.5218L42.3772 55.1367C42.34 54.7418 42.6319 54.3956 43.024 54.3584C43.4189 54.324 43.7651 54.613 43.8023 55.0051L43.8767 55.8293C47.6656 56.3444 49.6316 55.6661 50.3413 55.3199L50.2239 54.2668C50.181 53.8747 50.4643 53.5199 50.8564 53.477C51.2513 53.434 51.6033 53.7173 51.6462 54.1094L51.815 55.6203C51.8408 55.8636 51.7435 56.104 51.5517 56.2585C51.4745 56.3186 50.015 57.4461 46.4408 57.4461Z" fill="#021D30"/>
<path d="M13.223 40.2617C13.1429 40.2617 13.0656 40.2617 12.9969 40.2617C12.602 40.256 12.2844 39.9326 12.2901 39.5377C12.2958 39.1457 12.6135 38.8309 13.0055 38.8309C13.0084 38.8309 13.0113 38.8309 13.0141 38.8309C15.1089 38.8566 22.3603 38.539 28.1066 33.3479C35.5813 26.5972 51.3605 22.2475 60.0743 30.5063C60.0829 30.5149 60.0943 30.5263 60.1029 30.5349C60.1745 30.6122 61.8743 32.435 63.3252 35.4942C63.494 35.8519 63.3423 36.2783 62.9846 36.4471C62.6269 36.6159 62.2005 36.4643 62.0317 36.1066C60.7468 33.3937 59.2244 31.6939 59.0727 31.5279C55.4155 28.0738 49.9182 26.7374 43.5911 27.7648C38.1997 28.6405 32.6337 31.1873 29.0681 34.4096C23.1273 39.7752 15.7041 40.2617 13.223 40.2617Z" fill="#021D30"/>
<path d="M48.865 63.5756C48.8163 63.5756 48.7705 63.5756 48.7219 63.5756C41.7251 63.5327 38.2167 61.3492 36.5054 59.5206C35.1776 58.1041 34.7598 56.6818 34.8084 55.8233C34.8657 54.8761 35.2921 54.3496 35.6383 54.072C36.4482 53.4281 37.507 53.5598 37.6959 53.5884C45.9833 54.6501 60.615 52.727 65.7317 45.2323C66.387 44.2736 66.6073 43.4409 66.3355 42.9458C64.7272 40.0069 60.8869 41.7725 60.7237 41.8498C60.698 41.8613 60.6722 41.8727 60.6465 41.8813L47.0507 46.4685C46.6758 46.5945 46.2694 46.3941 46.1435 46.0193C46.0176 45.6444 46.2179 45.238 46.5928 45.1121L60.1485 40.5363C61.9628 39.6892 65.7975 38.9795 67.5889 42.2562C68.1355 43.252 67.8922 44.5941 66.9107 46.0336C63.5883 50.8984 52.2646 56.8965 37.4984 55.002C37.487 55.002 37.4784 54.9992 37.4698 54.9963C37.3095 54.9706 36.8116 54.9563 36.5226 55.1881C36.4596 55.2396 36.265 55.397 36.2335 55.8977C36.2078 56.3299 36.4568 57.3686 37.5442 58.5333C38.789 59.8612 41.8968 62.0933 48.7247 62.1362C48.7705 62.1362 48.8192 62.1362 48.865 62.1362C58.0681 62.1362 61.7682 56.679 62.1632 51.5509C62.1946 51.156 62.5409 50.8641 62.9301 50.8927C63.325 50.9242 63.6198 51.2676 63.5883 51.6596C63.3364 54.9305 61.9314 57.878 59.6334 59.9613C57.0379 62.3308 53.312 63.5756 48.865 63.5756Z" fill="#021D30"/>
<path d="M54.5859 46.1451C54.3198 46.291 54.0851 46.1308 53.8533 46.3769C53.7045 46.4942 53.487 46.4255 53.3697 46.2939C53.2295 46.1222 53.2609 45.8503 53.3554 45.6643C53.5471 45.3696 53.8905 45.1435 54.2539 45.2036C54.6403 45.2265 54.9894 45.4297 54.7977 45.8589C54.749 45.9676 54.7004 46.0907 54.5859 46.1451Z" fill="#021D30"/>
<path d="M53.6793 46.723C53.4847 46.723 53.2901 46.6286 53.1613 46.4855C52.9295 46.2051 52.9667 45.8073 53.1041 45.5354L53.1212 45.5068C53.3988 45.0776 53.8624 44.8486 54.3031 44.9202C54.6322 44.9402 54.9155 45.0804 55.05 45.3065C55.1301 45.441 55.1988 45.6671 55.0614 45.9761C55.0013 46.1135 54.9184 46.2995 54.718 46.3997C54.5492 46.4912 54.3918 46.4998 54.2773 46.5055C54.1457 46.5141 54.1142 46.5199 54.0656 46.5714L54.0341 46.6C53.9254 46.6858 53.8023 46.723 53.6793 46.723ZM53.6077 45.8073C53.5562 45.9218 53.5476 46.0591 53.5934 46.1135C53.6163 46.1364 53.6564 46.1507 53.6764 46.1507C53.8796 45.9532 54.0971 45.9418 54.2459 45.9332C54.3403 45.9275 54.3975 45.9246 54.4519 45.8931L54.4634 45.8874C54.4834 45.8703 54.512 45.8016 54.532 45.7586C54.5492 45.7186 54.5835 45.6385 54.5607 45.6013C54.5378 45.5612 54.4319 45.5011 54.2401 45.4868C53.9683 45.4467 53.7365 45.6156 53.6077 45.8073Z" fill="#021D30"/>
<path d="M49.4054 47.5102C49.3567 47.513 49.3052 47.5216 49.2594 47.5388C49.185 47.5874 49.1306 47.659 49.0562 47.7047C48.9217 47.8135 48.7472 47.8564 48.5783 47.8221C48.4209 47.7792 48.2693 47.6561 48.2063 47.5044C48.0976 47.3327 48.1062 47.0895 48.2435 46.9378C48.5354 46.623 49.0534 46.5458 49.4197 46.7718C49.5456 46.852 49.6744 46.9092 49.7144 47.0666C49.7545 47.2068 49.7516 47.3957 49.6143 47.4815C49.5542 47.5159 49.4769 47.5102 49.4054 47.5102Z" fill="#021D30"/>
<path d="M48.6934 48.1197C48.6362 48.1197 48.579 48.114 48.5246 48.1025C48.2642 48.0339 48.0553 47.8564 47.9551 47.6361C47.7891 47.3528 47.8206 46.9808 48.0381 46.7433C48.4216 46.3254 49.0969 46.231 49.5748 46.5286L49.6235 46.5572C49.7494 46.6316 49.9354 46.7461 49.9983 47.0008C50.0842 47.2984 49.9955 47.5874 49.7694 47.7277C49.6435 47.7992 49.5262 47.7963 49.4489 47.7963H49.4232C49.4117 47.7963 49.4031 47.7992 49.3917 47.7992C49.3802 47.8078 49.3716 47.8192 49.3602 47.8278C49.3259 47.8622 49.2801 47.9022 49.2257 47.9366C49.0712 48.0568 48.8852 48.1197 48.6934 48.1197ZM48.9481 46.9264C48.7678 46.9264 48.5818 46.9979 48.4588 47.1296C48.4101 47.1811 48.4073 47.2812 48.453 47.3499L48.4759 47.3928C48.5046 47.4587 48.5818 47.5245 48.6562 47.5445C48.722 47.556 48.8108 47.5359 48.8794 47.4816L48.9109 47.4587C48.9252 47.4501 48.9481 47.43 48.971 47.4072C49.0139 47.3671 49.0597 47.327 49.1084 47.2956L49.1627 47.2698C49.2286 47.244 49.303 47.2297 49.3888 47.224H49.4518C49.4546 47.224 49.4575 47.224 49.4632 47.224C49.4604 47.2068 49.4575 47.1811 49.4489 47.1467C49.4403 47.1153 49.4088 47.0924 49.3316 47.0466L49.2772 47.0122C49.177 46.955 49.0626 46.9264 48.9481 46.9264Z" fill="#021D30"/>
<path d="M32.5166 33.7971C31.7354 34.3924 29.9984 36.1036 30.7109 37.7834C31.4235 39.4632 34.8203 37.8292 35.9564 37.1539C36.8692 36.6102 38.7665 35.2251 37.6362 33.2505C36.5029 31.2789 33.5983 32.9701 32.5166 33.7971Z" fill="#021D30"/>
<path d="M52.4397 33.7571C52.2222 33.6484 51.9875 33.5683 51.7815 33.4366C51.6527 33.345 51.544 33.2306 51.4238 33.1333C51.2721 32.9873 51.1119 32.8471 51.0031 32.664C50.6826 32.1317 50.7169 31.3991 51.1405 30.9326C51.564 30.429 52.1879 30.1543 52.806 29.9711C53.2152 29.8309 53.6444 29.7651 54.0737 29.7136C54.626 29.6277 55.184 29.6735 55.7363 29.7422C56.3287 29.7708 56.8409 30.1428 57.2044 30.5921C57.5964 31.0557 57.8053 31.7225 57.605 32.312C57.3074 33.1562 55.971 33.6455 55.1669 33.8516C54.5859 34.0204 53.9735 34.0376 53.3754 33.9717C53.0521 33.9345 52.7316 33.8916 52.4397 33.7571Z" fill="#021D30"/>
<path d="M51.4039 43.3379C51.0777 43.3379 50.783 43.1119 50.7057 42.7799C50.6084 42.3506 50.4539 41.8556 50.2908 41.3319C49.9302 40.1758 49.5925 39.0855 49.6927 38.267C50.0675 35.2508 53.4128 34.647 56.9728 34.441C61.8061 34.1663 62.739 37.1682 63.1855 38.6133C63.3028 38.991 63.091 39.3945 62.7133 39.5119C62.3355 39.6292 61.9349 39.4203 61.8204 39.0426L61.8176 39.0368C61.3769 37.6089 60.7759 35.6543 57.0529 35.8718C52.354 36.1437 51.2809 37.0966 51.1121 38.4445C51.0491 38.9567 51.3725 39.9926 51.6558 40.9084C51.8218 41.4378 51.9906 41.9844 52.0993 42.4651C52.1852 42.8514 51.9448 43.2349 51.5585 43.3208C51.5098 43.3322 51.4583 43.3379 51.4039 43.3379Z" fill="#021D30"/>
<path d="M37.6388 53.3823C34.8143 53.3823 31.0054 51.94 29.0423 46.5658C28.9822 46.4027 27.7031 42.5881 34.5911 39.9553C40.509 37.6946 42.6639 37.1137 44.7672 41.0571C45.972 43.3178 46.055 46.2109 44.9847 48.6119C43.9516 50.927 41.9799 52.5495 39.4302 53.1763C38.9151 53.3022 38.3056 53.3823 37.6388 53.3823ZM40.8553 39.5919C39.6877 39.5919 37.9822 40.19 35.1033 41.2917C29.6061 43.3922 30.3587 45.982 30.393 46.0908C32.4649 51.7626 36.8375 52.3406 39.0896 51.7855C41.1987 51.2675 42.8299 49.9311 43.6798 48.0281C44.5755 46.0221 44.5097 43.6097 43.5052 41.7324C42.7268 40.2673 42.0944 39.5919 40.8553 39.5919Z" fill="#021D30"/>
<path d="M46.714 44.4425C46.5681 44.4425 46.4221 44.3996 46.2934 44.3052C45.9729 44.0734 45.9013 43.6269 46.1331 43.3064C46.9744 42.1475 47.9245 41.5007 48.9604 41.3863C50.2425 41.246 51.121 41.9872 51.2154 42.0702C51.5102 42.3335 51.5388 42.7856 51.2755 43.0804C51.0151 43.3751 50.5658 43.4037 50.2711 43.1462C50.2425 43.1204 49.7589 42.7284 49.0978 42.8114C48.4883 42.8858 47.8816 43.3351 47.2921 44.1449C47.1519 44.3395 46.9344 44.4425 46.714 44.4425Z" fill="#021D30"/>
<path d="M36.1571 48.1313C36.0198 48.1313 35.8796 48.1027 35.7479 48.0426C35.2471 47.8165 35.0211 47.2299 35.2443 46.7262C35.2843 46.6375 36.2315 44.5513 38.4264 43.773C39.9031 43.2464 41.5428 43.4324 43.2999 44.3224C43.7921 44.5714 43.9924 45.1752 43.7406 45.6674C43.4916 46.1596 42.8878 46.3599 42.3956 46.1081C41.1536 45.4785 40.0519 45.3269 39.1161 45.6531C37.7339 46.1338 37.0786 47.5303 37.0729 47.5447C36.9012 47.9109 36.5377 48.1313 36.1571 48.1313Z" fill="#021D30"/>
<path d="M54.7119 55.4914C54.3828 55.4914 54.0937 55.2653 54.0165 54.9419L53.5958 53.1792C53.5042 52.7957 53.7418 52.4094 54.1252 52.3178C54.5087 52.2262 54.895 52.4637 54.9866 52.8472L55.2584 53.9947C56.3716 53.8516 58.7525 53.4653 60.1777 52.6412L60.0374 50.6294C60.0117 50.2345 60.3064 49.894 60.7013 49.8653C61.0905 49.8396 61.4368 50.1343 61.4654 50.5292L61.6342 52.9617C61.6514 53.2106 61.5398 53.4481 61.3366 53.5941C59.2419 55.0907 54.9522 55.4714 54.772 55.4885C54.7548 55.4914 54.7348 55.4914 54.7119 55.4914Z" fill="#021D30"/>
<path d="M43.331 107.076C35.945 107.076 29.9498 103.522 26.2268 96.8341C23.1476 91.3053 24.3438 87.0386 25.3082 83.6132C25.9292 81.404 26.4643 79.4952 25.7431 77.7353C24.6786 75.1312 18.3171 69.7942 8.72764 63.4556C7.36549 62.557 6.75595 60.9029 7.2081 59.3462C8.35277 55.3942 11.4062 52.5669 13.126 51.2333C14.0761 50.495 15.3295 50.2661 16.4799 50.621C26.3155 53.6457 36.8493 68.9156 37.2929 69.5652C37.5161 69.8915 37.4331 70.3379 37.1068 70.5582C36.7806 70.7814 36.3342 70.6984 36.1138 70.3722C36.008 70.2177 25.4198 54.8677 16.0621 51.9888C15.3581 51.7713 14.5912 51.9116 14.0074 52.3637C12.4249 53.5914 9.61762 56.1812 8.58742 59.744C8.30984 60.6998 8.68758 61.7099 9.52319 62.2622C15.381 66.1341 25.4484 73.2196 27.0738 77.1944C27.981 79.4094 27.3543 81.6386 26.6932 83.9995C25.7546 87.3391 24.6929 91.1251 27.4859 96.1387C32.6054 105.33 40.7469 106.249 46.6763 105.402C53.4613 104.432 62.2838 100.78 65.3487 98.2821C65.6549 98.0331 66.107 98.0789 66.356 98.3851C66.605 98.6913 66.5592 99.1435 66.253 99.3924C63.045 102.005 53.8848 105.82 46.8795 106.818C45.6604 106.99 44.4785 107.076 43.331 107.076Z" fill="#021D30"/>
<path d="M69.2555 101.127C69.1782 101.127 69.1181 101.121 69.0695 101.115C68.4113 101.041 67.2351 100.603 64.6653 97.6584C63.3175 96.1131 62.2358 94.6193 62.19 94.5592C61.9582 94.2387 62.0297 93.7923 62.3502 93.5605C62.6707 93.3287 63.1172 93.4002 63.349 93.7207C66.2335 97.7099 68.5229 99.6158 69.2268 99.6959C69.2268 99.6959 69.2268 99.6959 69.2297 99.6959C69.6704 99.6959 71.519 98.5655 74.5953 95.5207C78.0952 92.0524 79.961 89.308 79.961 88.6584C79.961 87.9945 78.5273 85.6021 75.6742 83.1955C72.5407 80.557 69.2698 79.2979 66.7 79.7386C64.342 80.1449 62.4676 81.4155 60.4844 82.7605C57.2193 84.9726 53.5191 87.4794 46.8085 86.7669C46.4165 86.7239 46.1303 86.3719 46.1732 85.9799C46.2161 85.5878 46.5653 85.3074 46.9602 85.3446C53.1471 86.0056 56.4695 83.7535 59.6803 81.5758C61.7951 80.1421 63.7954 78.7885 66.4567 78.3278C70.5461 77.6209 74.5639 80.3882 76.5956 82.0995C79.3314 84.4031 81.3918 87.2219 81.3918 88.6556C81.3918 90.7389 76.2122 96.073 73.8513 98.1878C70.8723 100.849 69.7448 101.127 69.2555 101.127Z" fill="#021D30"/>
<path d="M51.9161 96.1931C51.6586 96.1931 51.4096 96.0529 51.2808 95.8068C51.2694 95.781 50.4996 94.3473 49.0916 93.5203C48.7511 93.32 48.6366 92.8821 48.837 92.5416C49.0373 92.2011 49.4751 92.0866 49.8156 92.2869C51.5956 93.3314 52.5113 95.0742 52.5514 95.1486C52.7317 95.5006 52.5943 95.9298 52.2452 96.113C52.1393 96.1673 52.0277 96.1931 51.9161 96.1931Z" fill="#021D30"/>
<path d="M26.6841 89.6768C26.5124 89.6768 26.3436 89.6167 26.2062 89.4936C25.9114 89.2304 25.8886 88.7782 26.1518 88.4835C27.3051 87.2014 29.7146 86.8838 29.9836 86.8523C30.3699 86.8065 30.7305 87.087 30.7763 87.479C30.8221 87.8711 30.5416 88.2259 30.1496 88.2717C29.5601 88.3432 27.886 88.6895 27.2135 89.4393C27.0733 89.5967 26.8787 89.6768 26.6841 89.6768Z" fill="#021D30"/>
<path d="M42.0656 102.56C40.7893 102.56 39.4414 102.168 38.1021 101.39C35.933 100.128 34.0357 97.9847 32.7651 95.3548C31.4945 92.7249 30.9909 89.909 31.3486 87.4251C31.7206 84.8353 32.9769 82.9037 34.8856 81.9793C36.7944 81.0579 39.0894 81.2725 41.3501 82.5889C43.5193 83.8509 45.4166 85.9943 46.6872 88.6242C47.9577 91.254 48.4614 94.0699 48.1037 96.5538C47.7317 99.1437 46.4754 101.075 44.5667 102C43.7883 102.374 42.9441 102.56 42.0656 102.56ZM37.3839 82.8493C36.7171 82.8493 36.0847 82.9867 35.5066 83.2671C34.0414 83.9768 33.0656 85.525 32.7623 87.6283C32.4446 89.8346 32.9025 92.3586 34.05 94.731C35.1976 97.1061 36.8917 99.0321 38.8176 100.151C40.6548 101.221 42.4719 101.419 43.94 100.709C45.4051 99.9993 46.381 98.4511 46.6814 96.3478C46.9991 94.1415 46.5412 91.6175 45.3937 89.2451C44.2462 86.87 42.552 84.944 40.6261 83.8251C39.5158 83.1755 38.4083 82.8493 37.3839 82.8493Z" fill="#021D30"/>
<path d="M33.9208 88.8729C33.7119 88.8729 33.503 88.7813 33.3628 88.6039C33.1167 88.2948 33.1653 87.8456 33.4744 87.5995C35.3659 86.0828 35.2228 83.5101 35.2228 83.4844C35.2028 83.181 35.3774 82.8977 35.6578 82.7775C35.9354 82.6573 36.2616 82.7289 36.4648 82.9521C36.5278 83.0179 38.0817 84.6519 40.7487 84.5232C41.1522 84.5031 41.4785 84.8093 41.4985 85.2042C41.5185 85.5991 41.2123 85.934 40.8174 85.954C38.9259 86.0427 37.475 85.416 36.5535 84.8322C36.3618 85.9683 35.8238 87.5479 34.3701 88.7126C34.2356 88.8214 34.0782 88.8729 33.9208 88.8729Z" fill="#021D30"/>
<path d="M33.9444 106.881C33.9186 106.881 33.89 106.881 33.8614 106.876C22.9813 105.639 14.485 101.959 8.61 95.9382C4.73244 91.9634 2.05677 87.0356 0.663137 81.2893C0.425619 80.3135 0.809083 79.3262 1.64183 78.7711C2.47458 78.2159 3.53339 78.2417 4.34325 78.834C13.4062 85.4702 23.5994 82.8947 23.7025 82.869C24.0831 82.7688 24.4751 82.9978 24.5753 83.3784C24.6754 83.759 24.4494 84.151 24.0659 84.2512C23.6252 84.3685 13.1286 87.0384 3.49619 79.9873C3.00971 79.6296 2.56043 79.8757 2.43451 79.9615C2.3086 80.0445 1.91083 80.365 2.05391 80.9517C4.43196 90.7414 11.9066 102.938 34.0216 105.453C34.4137 105.499 34.697 105.851 34.6512 106.246C34.614 106.609 34.305 106.881 33.9444 106.881Z" fill="#021D30"/>
<path d="M47.0366 69.3249C46.4042 69.3249 45.7489 69.3077 45.0678 69.2762C40.4061 69.0444 36.8806 68.0972 36.7346 68.0572C36.354 67.9541 36.1279 67.5592 36.231 67.1786C36.334 66.798 36.726 66.572 37.1095 66.675C37.2468 66.7122 51.083 70.378 59.4334 64.7577C67.6693 59.2146 65.7777 47.1269 65.7577 47.0067C65.6919 46.6175 65.958 46.2484 66.3472 46.1854C66.7364 46.1224 67.1055 46.3829 67.1714 46.772C67.1942 46.9037 67.7065 50.0744 67.1313 54.0207C66.3615 59.3033 63.9749 63.427 60.2347 65.9453C57.8766 67.5306 53.7301 69.3249 47.0366 69.3249Z" fill="#021D30"/>
<path d="M66.379 77.3946C66.0471 77.3946 65.7523 77.1628 65.6808 76.828C64.8051 72.6872 60.3409 67.3759 60.2951 67.3244C60.0404 67.0239 60.0776 66.5718 60.3781 66.3171C60.6786 66.0624 61.1307 66.0996 61.3854 66.4001C61.58 66.629 66.13 72.0433 67.0773 76.5332C67.1602 76.9196 66.9113 77.3002 66.525 77.3803C66.4763 77.3917 66.4277 77.3946 66.379 77.3946Z" fill="#021D30"/>
<path d="M53.4357 72.2466C49.0402 72.2466 38.9814 69.8485 38.5178 69.7369C38.1343 69.6454 37.8968 69.259 37.9884 68.8756C38.08 68.4921 38.4663 68.2546 38.8497 68.3462C38.9699 68.3748 51.009 71.245 54.2713 70.7671C57.2846 70.3264 59.0818 66.592 59.0989 66.5548C59.2678 66.1971 59.6942 66.0454 60.0519 66.2142C60.4096 66.3831 60.5641 66.8066 60.3953 67.1643C60.3094 67.3474 58.2576 71.6314 54.4802 72.1837C54.1883 72.2266 53.8335 72.2466 53.4357 72.2466Z" fill="#021D30"/>
<path d="M58.5011 74.2066C58.4925 74.2066 58.4868 74.2066 58.4782 74.2066C57.8573 74.1952 56.6954 73.6171 56.2261 73.3681C55.877 73.1821 55.7425 72.75 55.9285 72.4009C56.1116 72.0518 56.5466 71.9173 56.8957 72.1033C57.5167 72.4324 58.235 72.7329 58.4782 72.7729C58.9676 72.4724 59.6086 70.0343 59.8375 67.5933C59.8747 67.2012 60.2181 66.9094 60.6159 66.9466C61.008 66.9838 61.2998 67.3329 61.2626 67.7249C61.0337 70.1488 60.3755 74.2066 58.5011 74.2066Z" fill="#021D30"/>
<path d="M47.7751 76.8339C47.5175 76.8339 47.2571 76.8081 47.0024 76.748C44.1808 76.1013 38.8152 71.5655 37.1755 69.1989C36.9494 68.8727 37.0324 68.4291 37.3557 68.203C37.6791 67.977 38.1255 68.06 38.3516 68.3833C40.3548 71.2793 45.5544 74.948 47.323 75.3515C49.08 75.755 51.4466 73.646 52.2107 72.7989C52.474 72.507 52.9261 72.4812 53.2209 72.7474C53.5156 73.0135 53.5385 73.4628 53.2752 73.7576C53.1493 73.8978 50.4737 76.8339 47.7751 76.8339Z" fill="#021D30"/>
<path d="M41.6226 78.11C41.2277 78.11 40.9072 77.7895 40.9072 77.3946V73.995C40.9072 73.6 41.2277 73.2795 41.6226 73.2795C42.0176 73.2795 42.3381 73.6 42.3381 73.995V77.3946C42.3381 77.7895 42.0176 78.11 41.6226 78.11Z" fill="#021D30"/>
<path d="M41.7975 80.5025C41.7631 80.5025 41.7316 80.4996 41.7002 80.4968C41.683 80.4939 41.6544 80.4939 41.62 80.4939C41.2394 80.4767 40.3466 80.4367 39.7742 79.7155C39.3564 79.1918 39.2334 78.4507 39.4051 77.5178C39.4681 77.1715 39.7771 76.9225 40.132 76.934C41.5199 76.9769 43.2798 77.1801 43.7978 77.9041C44.0725 78.2875 44.0753 78.7654 43.8063 79.2147C43.4572 79.7956 42.4385 80.5025 41.7975 80.5025ZM40.7672 78.3991C40.7787 78.5852 40.8245 78.7282 40.8989 78.8227C41.0677 79.0344 41.4712 79.0516 41.6887 79.0631C41.723 79.0659 41.7545 79.0659 41.7831 79.0688C41.9491 79.0144 42.2324 78.8313 42.4184 78.6681C42.0607 78.5565 41.4369 78.4535 40.7672 78.3991Z" fill="#021D30"/>
<path d="M61.4247 75.466C61.0898 75.466 60.7922 75.2313 60.7236 74.8908C60.6606 74.5731 60.0825 73.4227 59.5846 72.5442C59.39 72.2008 59.5131 71.763 59.8565 71.5684C60.1999 71.3738 60.6377 71.494 60.8323 71.8402C61.1013 72.3153 61.9913 73.9235 62.1286 74.6132C62.2059 74.9995 61.9541 75.3773 61.5677 75.4545C61.5191 75.4602 61.4733 75.466 61.4247 75.466Z" fill="#021D30"/>
<path d="M62.0489 77.7925C61.8858 77.7925 61.7227 77.7696 61.5653 77.7209C60.9443 77.5292 60.4607 76.9798 60.1259 76.0926C60.0286 75.8322 60.0887 75.5403 60.2833 75.3429C61.8658 73.7203 62.3551 73.7175 62.564 73.7146C62.5669 73.7146 62.5669 73.7146 62.5698 73.7146C62.7901 73.7146 62.9961 73.7976 63.1478 73.9493C63.5771 74.3785 63.7717 75.6892 63.7116 76.3702C63.6686 76.8481 63.5027 77.1915 63.2194 77.3918C62.8445 77.658 62.441 77.7925 62.0489 77.7925ZM61.654 75.9982C61.7799 76.2186 61.903 76.3273 61.9888 76.3531C62.0804 76.3817 62.1977 76.3359 62.2864 76.2901C62.3122 76.107 62.2865 75.775 62.2349 75.4745C62.0604 75.6205 61.8572 75.8036 61.654 75.9982Z" fill="#021D30"/>
<path d="M51.566 81.3953C51.4372 81.3953 51.3056 81.361 51.1854 81.2866C50.8506 81.0777 50.7504 80.6341 50.9593 80.2993L51.9123 78.7797L50.5701 77.9785C50.2296 77.7753 50.118 77.3374 50.3212 76.9969C50.5244 76.6564 50.9622 76.5448 51.3027 76.7479L53.2744 77.9241C53.4404 78.0214 53.5577 78.1845 53.6035 78.3705C53.6493 78.5565 53.615 78.754 53.5148 78.9199L52.1727 81.0605C52.0353 81.278 51.8035 81.3953 51.566 81.3953Z" fill="#021D30"/>
<path d="M54.2928 80.8515C53.9838 80.8515 53.7005 80.6511 53.6089 80.3421C53.4944 79.9643 53.7091 79.5637 54.0897 79.4521L56.1873 78.8225C56.565 78.7081 56.9656 78.9227 57.0773 79.3033C57.1889 79.6839 56.9771 80.0817 56.5965 80.1933L54.4989 80.8228C54.4302 80.84 54.3615 80.8515 54.2928 80.8515Z" fill="#021D30"/>
<path d="M52.7346 66.3888C52.3197 66.3888 51.8732 66.3659 51.3925 66.3144C51.0004 66.2715 50.7143 65.9195 50.7572 65.5274C50.8001 65.1354 51.1492 64.8492 51.5442 64.8921C55.9883 65.3643 56.4519 63.1723 56.4691 63.0778C56.5406 62.6944 56.9069 62.4311 57.2933 62.4969C57.6767 62.5627 57.94 62.9176 57.8828 63.301C57.8627 63.4413 57.3591 66.3888 52.7346 66.3888Z" fill="#021D30"/>
<path d="M66.9111 72.5841C66.5219 72.5841 66.2014 72.2693 66.1956 71.8773C66.1498 68.5949 70.9632 62.3307 75.4789 56.7161C76.2458 55.7632 76.8525 55.0077 77.1873 54.5498C77.4849 54.1406 77.7597 53.7715 78.0086 53.4395C79.2363 51.7969 79.6512 51.196 79.4566 50.5292C78.7841 48.2313 72.7546 44.5626 71.4125 44.6084C70.4395 44.6427 68.8913 45.8361 68.1444 46.5829C67.864 46.8605 67.4118 46.8605 67.1314 46.5829C66.8538 46.3025 66.8538 45.8504 67.1314 45.5728C67.3689 45.3353 69.5094 43.2462 71.361 43.1804C71.3753 43.1804 71.3896 43.1804 71.4067 43.1804C73.3355 43.1804 79.9717 47.1982 80.8302 50.1286C81.2366 51.5165 80.4525 52.5638 79.1562 54.298C78.91 54.6271 78.6382 54.9905 78.3463 55.394C77.9914 55.8805 77.3762 56.6475 76.5978 57.6176C73.6732 61.2547 67.5893 68.821 67.6293 71.8601C67.6351 72.255 67.3203 72.5784 66.9225 72.5841C66.9168 72.5841 66.9139 72.5841 66.9111 72.5841Z" fill="#021D30"/>
<path d="M77.3733 54.736C77.339 54.736 77.3075 54.7331 77.2731 54.7303C72.1364 54.0149 68.8083 47.0696 68.6681 46.7748C68.4993 46.4171 68.6538 45.9907 69.0086 45.8219C69.3663 45.6531 69.7927 45.8047 69.9616 46.1624C69.993 46.2282 73.1008 52.7013 77.4706 53.3109C77.8626 53.3653 78.1345 53.7258 78.0801 54.1179C78.0315 54.4784 77.7253 54.736 77.3733 54.736Z" fill="#021D30"/>
<path d="M12.445 64.3597C12.2018 64.3597 11.9643 64.2366 11.8298 64.0134C11.6266 63.6757 11.7353 63.235 12.0759 63.0318C17.8107 59.5921 17.7706 52.7584 17.7706 52.6898C17.7649 52.2948 18.0796 51.9686 18.4746 51.9629C18.4774 51.9629 18.4831 51.9629 18.486 51.9629C18.8752 51.9629 19.1957 52.2748 19.2014 52.6669C19.2071 52.9816 19.2472 60.3962 12.8113 64.2566C12.6968 64.3282 12.5709 64.3597 12.445 64.3597Z" fill="#021D30"/>
<path d="M41.4968 42.9031C41.2478 42.9031 41.0046 42.7714 40.8729 42.5397C40.8472 42.4967 40.4751 41.9101 39.4993 41.7613C39.1073 41.7012 38.8411 41.3377 38.8984 40.9457C38.9585 40.5565 39.3219 40.2847 39.7139 40.3448C41.0847 40.5537 41.8716 41.3835 42.1235 41.8414C42.3123 42.1877 42.1836 42.6226 41.8373 42.8115C41.7286 42.8773 41.6112 42.9031 41.4968 42.9031Z" fill="#021D30"/>
<path d="M52.5856 39.9612C52.2021 39.9612 51.8845 39.6607 51.8702 39.2772C51.8501 38.702 52.1163 37.5516 53.2838 37.3198C53.6673 37.2426 54.0479 37.4944 54.1252 37.8807C54.2024 38.2671 53.9506 38.6448 53.5643 38.7221C53.2981 38.7764 53.301 39.2143 53.301 39.2343C53.3067 39.6264 52.9948 39.9526 52.6028 39.964C52.5999 39.9612 52.5913 39.9612 52.5856 39.9612Z" fill="#021D30"/>
<path d="M70.2394 98.4309C70.2223 98.4309 70.2051 98.4309 70.1879 98.4281C69.793 98.3994 69.4983 98.0618 69.524 97.6669C69.5326 97.5467 69.7501 94.6821 71.9049 92.8221C73.0782 91.809 74.5777 91.2968 76.3691 91.2939C76.3863 90.2551 76.6496 88.4809 78.0718 87.2218C78.3666 86.9585 78.8187 86.9871 79.082 87.2847C79.3453 87.5795 79.3167 88.0316 79.0191 88.2949C77.5224 89.6198 77.8229 91.9149 77.8257 91.9378C77.8572 92.1524 77.7885 92.3699 77.6397 92.5273C77.4909 92.6847 77.2792 92.7677 77.0645 92.7505C75.3103 92.6132 73.8938 92.9995 72.8493 93.8952C71.1466 95.3575 70.952 97.7413 70.952 97.7642C70.9262 98.1419 70.6115 98.4309 70.2394 98.4309Z" fill="#021D30"/>
<path d="M1.4245 50.289C1.32721 50.289 1.22705 50.269 1.13547 50.2289C0.952328 50.1488 0.812106 49.9942 0.746287 49.8054C0.689054 49.6337 -0.67024 45.5758 0.42578 42.923C1.37872 40.6223 1.54756 38.3844 1.54756 38.3615C1.57045 38.041 1.80224 37.7749 2.11703 37.7119L5.80859 36.9565C6.01463 36.9135 6.23211 36.965 6.39809 37.0967C6.56407 37.2283 6.66136 37.4258 6.66709 37.6375C6.66995 37.7778 6.74149 41.1087 5.48236 43.3008C4.47505 45.0521 5.51669 47.7736 5.52814 47.8022C5.66836 48.1599 5.50239 48.5634 5.1504 48.7179L1.71067 50.2289C1.6191 50.269 1.5218 50.289 1.4245 50.289ZM2.9183 39.0083C2.80669 39.8725 2.50622 41.6382 1.74787 43.4696C1.104 45.0292 1.57045 47.393 1.88237 48.592L3.98284 47.6706C3.67092 46.5774 3.2388 44.3338 4.24325 42.5882C4.95295 41.3548 5.15899 39.5835 5.21622 38.539L2.9183 39.0083Z" fill="#4AB69F"/>
<path d="M3.7029 55.8262C2.45235 55.8262 1.43359 54.8075 1.43359 53.5569C1.43359 52.3064 2.45235 51.2876 3.7029 51.2876C4.95345 51.2876 5.96934 52.3064 5.96934 53.5569C5.96934 54.8075 4.95345 55.8262 3.7029 55.8262ZM3.7029 52.7213C3.24217 52.7213 2.86443 53.0962 2.86443 53.5598C2.86443 54.0234 3.23931 54.3982 3.7029 54.3982C4.16363 54.3982 4.53851 54.0234 4.53851 53.5598C4.53851 53.0962 4.16363 52.7213 3.7029 52.7213Z" fill="#4AB69F"/>
<path d="M16.6974 37.1538C16.457 37.1538 16.2253 37.0307 16.0908 36.819L14.328 34.0088C14.2249 33.8457 14.1935 33.6454 14.2393 33.4594C14.285 33.2705 14.4052 33.1102 14.5712 33.0129C15.6071 32.4063 16.5315 31.2301 16.8233 30.4432C18.2828 26.5198 20.5292 24.9974 20.6236 24.9344C20.9213 24.737 21.319 24.7885 21.5537 25.0575L24.4068 28.2883C24.5613 28.4629 24.6214 28.7004 24.567 28.9265C24.5127 29.1525 24.3553 29.3385 24.1406 29.4244C24.1177 29.433 21.568 30.509 20.9556 32.8842C20.1543 35.9919 17.058 37.0736 16.9264 37.1166C16.852 37.1423 16.7747 37.1538 16.6974 37.1538ZM15.9076 33.8342L16.975 35.5369C17.7391 35.1449 19.1384 34.2148 19.5734 32.5293C20.1114 30.4346 21.7197 29.1668 22.7356 28.5516L20.9441 26.5255C20.2831 27.1465 19.064 28.5316 18.1683 30.9411C17.8392 31.8139 16.995 33.0015 15.9076 33.8342Z" fill="#4AB69F"/>
<path d="M21.1017 21.3374C20.9272 21.3374 20.7555 21.2745 20.621 21.1514C20.4493 20.994 18.944 19.5718 19.047 17.8548C19.0585 17.6802 19.13 17.5142 19.2559 17.3912C19.5765 17.0707 20.6982 16.0176 21.6512 15.9661C21.9974 15.946 22.3008 16.175 22.3838 16.5069C22.627 17.4742 22.999 18.6675 23.1764 18.9193C23.3109 19.0624 23.3796 19.2541 23.3682 19.4516C23.3567 19.6548 23.2566 19.8465 23.0963 19.9724L21.5453 21.1886C21.4136 21.2859 21.2591 21.3374 21.1017 21.3374ZM20.4836 18.1953C20.5466 18.7276 20.8814 19.2684 21.1847 19.649L21.7399 19.2141C21.5481 18.7734 21.365 18.201 21.2076 17.6373C20.9787 17.7804 20.7211 17.9778 20.4836 18.1953ZM23.1621 18.8993C23.165 18.9021 23.1678 18.905 23.1707 18.9079C23.1678 18.905 23.165 18.8993 23.1621 18.8993Z" fill="#4AB69F"/>
<path d="M27.7834 23.8871C27.5201 23.8871 27.254 23.8327 26.9993 23.7154C26.0292 23.2747 25.6085 22.1072 26.0606 21.117C26.2781 20.642 26.6616 20.2757 27.1424 20.0868C27.6317 19.8951 28.164 19.9065 28.6361 20.124C29.1112 20.3386 29.4689 20.7336 29.6435 21.2286C29.8152 21.7151 29.7923 22.2474 29.5748 22.7224C29.24 23.455 28.5245 23.8871 27.7834 23.8871ZM27.8492 21.386C27.7891 21.386 27.7261 21.3975 27.666 21.4204C27.5315 21.4719 27.4228 21.5777 27.3627 21.7122C27.2397 21.9841 27.3427 22.2989 27.5945 22.4162C27.8463 22.5307 28.1525 22.4019 28.2756 22.13C28.3385 21.9927 28.3443 21.8439 28.2985 21.7094C28.2527 21.5835 28.164 21.4833 28.0466 21.4289C27.9808 21.3975 27.915 21.386 27.8492 21.386Z" fill="#4AB69F"/>
<path d="M69.1291 38.8253C68.8658 38.8253 68.5997 38.7709 68.345 38.6536C67.3749 38.2129 66.9542 37.0454 67.4063 36.0552C67.8585 35.0651 69.0146 34.6187 69.9847 35.0622C70.9548 35.5029 71.3755 36.6705 70.9233 37.6606C70.5857 38.3932 69.8702 38.8253 69.1291 38.8253ZM69.1949 36.3242C68.9974 36.3242 68.8 36.4473 68.7055 36.6533C68.5825 36.9252 68.6855 37.2399 68.9373 37.3544C69.1892 37.4689 69.4954 37.3401 69.6184 37.0682C69.7415 36.7964 69.6384 36.4816 69.3866 36.3643C69.3237 36.3357 69.2578 36.3242 69.1949 36.3242Z" fill="#4AB69F"/>
<path d="M59.6653 25.9505C59.5423 25.9505 59.4192 25.919 59.3105 25.8561C59.073 25.7187 58.9327 25.4583 58.9528 25.1864L59.0844 23.2891L58.2746 21.9069C58.1515 21.698 58.1429 21.4405 58.2517 21.2259C58.3604 21.0084 58.5693 20.8624 58.8097 20.8338L60.0774 20.6879L61.2307 19.3887C61.3737 19.2256 61.5826 19.1397 61.8001 19.1483C62.0176 19.1597 62.2179 19.2656 62.3439 19.443L63.5057 21.0427L64.4615 21.1715C64.7219 21.2058 64.9423 21.3804 65.0367 21.6265C65.1311 21.8726 65.0796 22.1502 64.9079 22.3476L63.8834 23.5324L63.9893 25.1921C64.0065 25.4526 63.8806 25.7015 63.6602 25.8417C63.4399 25.982 63.1623 25.9934 62.9334 25.8675L61.3022 24.9861L60.0688 25.8303C59.9486 25.9104 59.8055 25.9505 59.6653 25.9505ZM61.2593 23.4294C61.3766 23.4294 61.4939 23.458 61.5998 23.5152L62.4755 23.9902L62.4326 23.3292C62.4211 23.1432 62.4812 22.9572 62.6043 22.8141L62.9562 22.4077C62.7845 22.3705 62.63 22.2732 62.527 22.1273L61.7057 20.9998L60.9531 21.8468C60.8071 22.01 60.5982 22.0901 60.3979 22.0872L60.0602 22.1273L60.4265 22.754C60.4981 22.8771 60.5324 23.023 60.5238 23.1661L60.478 23.81L60.8529 23.5524C60.976 23.4723 61.1191 23.4294 61.2593 23.4294Z" fill="#4AB69F"/>
<path d="M42.4549 19.28L35.9646 14.3522L39.0867 11.3131L42.4549 14.2692L49.5718 2.80535C49.4545 2.72236 49.3343 2.64509 49.2056 2.57355C48.6561 2.27594 48.058 2.12427 47.4542 2.12427C47.1079 2.12427 46.7588 2.17292 46.4183 2.27594L36.2365 5.28928C35.3035 5.56686 34.5309 6.19357 34.0616 7.05779C33.5923 7.92202 33.4864 8.91215 33.764 9.84506L36.7773 20.0269C37.3496 21.9642 39.3929 23.0746 41.3331 22.4994L51.5149 19.486C52.4478 19.2084 53.2205 18.5817 53.6898 17.7175C54.1591 16.8533 54.265 15.8632 53.9874 14.9302L51.6065 6.89181L44.2634 18.948L42.4549 19.28Z" fill="#4AB69F"/>
<path d="M48.2872 0.770601C46.9394 -0.150857 45.1222 -0.285356 43.6198 0.581731L39.9512 2.69937L46.0093 0.905099C46.7591 0.684751 47.5346 0.644687 48.2872 0.770601Z" fill="#4AB69F"/>
<path d="M55.6815 12.7096L53.9102 9.64478L55.3553 14.5268C55.6644 15.5742 55.6243 16.673 55.258 17.6861C56.3855 16.3153 56.6173 14.3322 55.6815 12.7096Z" fill="#4AB69F"/>
<path d="M40.291 24.0848C39.3667 24.0848 38.4738 23.8301 37.7012 23.3722C38.9603 25.2981 41.5387 25.9363 43.5533 24.7716L48.6528 21.8269L41.7361 23.8759C41.2554 24.0161 40.7689 24.0848 40.291 24.0848Z" fill="#4AB69F"/>
<path d="M32.4877 7.08643C30.8823 8.42283 30.413 10.7723 31.4918 12.6409L34.7827 18.3442L32.3875 10.2543C32.0784 9.2012 32.1185 8.10232 32.4877 7.08643Z" fill="#4AB69F"/>
<path d="M55.3582 14.5265L53.9102 9.64445L52.6081 5.24606L51.6037 6.89439L53.9846 14.9328C54.2622 15.8657 54.1563 16.8559 53.687 17.7201C53.2177 18.5843 52.445 19.211 51.5121 19.4886L41.3303 22.5019C39.3901 23.0771 37.3497 21.9668 36.7745 20.0295L33.7612 9.84763C33.4836 8.91473 33.5895 7.92459 34.0588 7.06036C34.5281 6.19614 35.3007 5.56943 36.2337 5.29185L46.4155 2.27851C46.756 2.17835 47.1051 2.12684 47.4514 2.12684C48.0552 2.12684 48.6533 2.27851 49.2027 2.57612C49.3315 2.6448 49.4517 2.72493 49.569 2.80792L50.3245 1.58885C50.1843 1.49155 50.0355 1.40284 49.8838 1.31985C49.3773 1.04513 48.8365 0.864844 48.2842 0.773271C47.5315 0.647357 46.756 0.68742 46.0063 0.907769L39.9481 2.70204L35.8244 3.92397C34.5252 4.3103 33.4492 5.18025 32.7968 6.37929C32.6709 6.61108 32.5707 6.8486 32.4849 7.08898C32.1157 8.10487 32.0756 9.20376 32.3847 10.254L34.7799 18.3439L35.398 20.4358C35.7786 21.7207 36.6228 22.7395 37.696 23.3719C38.4715 23.8298 39.3643 24.0845 40.2858 24.0845C40.7637 24.0845 41.2502 24.0158 41.7309 23.8756L48.6476 21.8266L51.9128 20.8593C53.2119 20.473 54.2879 19.6031 54.9404 18.404C55.0663 18.1722 55.1693 17.9319 55.2552 17.6886C55.6272 16.6727 55.6673 15.5738 55.3582 14.5265Z" fill="#021D30"/>
<path d="M66.1089 14.1889C65.6282 13.4478 64.5665 13.4163 63.8139 13.7597C63.2015 14.0401 62.6921 14.6583 62.5175 15.3336C62.3945 15.8058 62.4574 16.2465 62.695 16.567C62.9239 16.8789 63.3073 17.0678 63.7767 17.0964C63.8224 17.0993 63.8682 17.1021 63.9169 17.1021C64.5694 17.1021 65.2533 16.8188 65.6911 16.3581C66.2177 15.8086 66.5697 14.8958 66.1089 14.1889ZM64.6581 15.3708C64.4463 15.5912 64.1058 15.6741 63.9083 15.6741C63.9655 15.4824 64.1487 15.1819 64.412 15.0617C64.5779 14.9845 64.7754 14.973 64.8841 14.9902C64.8527 15.0904 64.7697 15.2535 64.6581 15.3708Z" fill="#4AB69F"/>
<path d="M72.8403 31.6854C72.8031 31.6854 72.7659 31.6825 72.7287 31.6768C72.5227 31.6453 72.3424 31.5251 72.2336 31.3477C72.2193 31.3248 71.6928 30.5693 70.4136 30.7296C68.1157 31.0215 66.9252 27.825 66.7965 27.4587C66.6906 27.1582 66.7965 26.8205 67.0597 26.6374L68.9627 25.2953C69.2861 25.0663 69.7325 25.1436 69.9586 25.467C70.1875 25.7903 70.1103 26.2368 69.7869 26.4628L68.3532 27.4759C68.751 28.3143 69.4807 29.4018 70.2362 29.3102C71.5239 29.1471 72.3853 29.5849 72.8918 29.9941L74.5115 28.6263C74.3169 28.2399 73.922 27.7306 73.2123 27.8221C70.9917 28.1083 70.4422 26.9007 70.385 26.7633L71.7128 26.231C71.7128 26.231 71.7071 26.211 71.6899 26.1795C71.6928 26.1824 71.9417 26.543 73.0292 26.4027C74.8921 26.1595 75.8222 27.7792 76.0511 28.6692C76.1198 28.9353 76.0282 29.2158 75.8193 29.3932L73.301 31.5194C73.1723 31.6282 73.0091 31.6854 72.8403 31.6854Z" fill="#4AB69F"/>
<path d="M75.3012 37.0568C75.2268 37.0568 75.1495 37.0454 75.0751 37.0196C74.8834 36.9567 74.7289 36.8165 74.6459 36.6333L73.6958 34.5071C73.5556 34.1952 73.6558 33.8317 73.9333 33.6314L75.8907 32.2321C76.071 32.1004 76.3057 32.0661 76.5174 32.1319C76.7321 32.1977 76.9009 32.3608 76.9782 32.5697L77.8739 35.0308C77.9941 35.3599 77.8567 35.729 77.5505 35.9007L75.6475 36.9624C75.5445 37.0282 75.4243 37.0568 75.3012 37.0568ZM75.244 34.4584L75.636 35.337L76.3257 34.9535L75.9594 33.9491L75.244 34.4584Z" fill="#4AB69F"/>
<path d="M79.2929 43.8304C78.36 43.8304 77.4185 43.5843 76.6172 43.1121C76.2996 42.9261 76.1766 42.5283 76.3311 42.1935L77.3928 39.8984C77.4843 39.701 77.6589 39.5579 77.8707 39.5035C78.0738 39.452 78.2913 39.4949 78.463 39.618C78.6118 39.7153 78.9266 39.784 79.3616 39.1687C80.0942 38.1357 81.7654 37.4717 83.2535 37.6263C84.4353 37.7493 85.3196 38.3617 85.7488 39.3547C85.8318 39.5436 85.8261 39.7611 85.7374 39.9471L84.6185 42.2965C84.4811 42.5827 84.1749 42.7458 83.8573 42.6943C83.159 42.5827 82.3263 42.5999 82.1031 42.7258C81.7482 43.2838 80.9927 43.5528 80.5664 43.6644C80.1543 43.776 79.725 43.8304 79.2929 43.8304ZM77.925 42.1563C79.3301 42.68 80.698 42.2193 80.8983 41.9589C81.3619 41.1633 82.664 41.1347 83.5482 41.2177L84.2865 39.6666C84.0376 39.3175 83.6426 39.1115 83.1018 39.0571C82.0401 38.9455 80.9126 39.4577 80.5263 40.0015C80.077 40.6368 79.5476 41.0031 78.9524 41.0946C78.7578 41.1232 78.5775 41.1204 78.4144 41.0946L77.925 42.1563Z" fill="#4AB69F"/>
<path d="M7.68094 29.6563C7.60081 29.6563 7.52068 29.642 7.44056 29.6134C7.06854 29.4817 6.87394 29.0697 7.00844 28.6977L7.56933 27.1323C7.64946 26.9091 7.8326 26.7403 8.06154 26.6802C8.29047 26.6201 8.53371 26.6773 8.71114 26.8318L10.4453 28.3428C10.7429 28.6032 10.7744 29.0554 10.514 29.353C10.2536 29.6506 9.8043 29.6821 9.50382 29.4217L8.55947 28.6004L8.35343 29.1784C8.25041 29.476 7.97569 29.6563 7.68094 29.6563Z" fill="#4AB69F"/>
<path d="M11.4845 31.8111C11.3558 31.8111 11.227 31.7767 11.1125 31.7052C10.7748 31.4992 10.669 31.0585 10.875 30.7208L11.3271 29.9853L10.2855 29.9052C9.89058 29.8766 9.59583 29.5303 9.6273 29.1383C9.65592 28.7434 10.0022 28.4486 10.3942 28.4801L12.6034 28.6489C12.8524 28.669 13.0728 28.8149 13.1872 29.0353C13.3017 29.2585 13.2902 29.5217 13.1615 29.7335L12.0998 31.4677C11.9624 31.6909 11.7249 31.8111 11.4845 31.8111Z" fill="#4AB69F"/>
<path d="M12.1282 34.8588C12.0738 34.8588 12.0194 34.8531 11.9679 34.8416L9.30941 34.2264C8.92595 34.1377 8.68557 33.7542 8.77428 33.3679C8.86299 32.9844 9.24645 32.744 9.63278 32.8328L10.8948 33.1246C10.7717 32.7755 10.9348 32.3863 11.2782 32.2318C11.6388 32.0715 12.0623 32.2347 12.2226 32.5952L12.7835 33.8544C12.8951 34.1033 12.855 34.3924 12.6805 34.6013C12.5431 34.7672 12.3399 34.8588 12.1282 34.8588Z" fill="#4AB69F"/>
<path d="M7.14808 35.56C7.02217 35.56 6.89339 35.5257 6.78179 35.4599C6.5643 35.3283 6.4298 35.0936 6.43266 34.8389L6.46128 32.209C6.46414 31.817 6.78465 31.5022 7.1767 31.5022C7.17956 31.5022 7.18242 31.5022 7.18528 31.5022C7.58019 31.5051 7.89784 31.8313 7.89211 32.2262L7.87781 33.6313L8.73345 33.1591C9.07971 32.9674 9.51468 33.0933 9.70641 33.4395C9.89815 33.7858 9.77223 34.2208 9.42597 34.4125L7.49434 35.4742C7.3856 35.5314 7.26827 35.56 7.14808 35.56Z" fill="#4AB69F"/>
<path d="M6.92542 32.7611C6.77948 32.7611 6.63353 32.7182 6.50762 32.6238L4.57599 31.2244C4.35278 31.0613 4.24117 30.7866 4.29268 30.5147C4.34133 30.2428 4.54451 30.0254 4.81065 29.9538L6.26438 29.5618C6.64498 29.4587 7.03989 29.6848 7.14005 30.0654C7.24307 30.446 7.017 30.8409 6.63639 30.9411L6.63067 30.944L7.34609 31.4619C7.66659 31.6937 7.73814 32.1401 7.50634 32.4606C7.36612 32.6581 7.14577 32.7611 6.92542 32.7611Z" fill="#4AB69F"/>
</svg>
