<svg width="22" height="24" viewBox="0 0 22 24" fill="none" xmlns="http://www.w3.org/2000/svg">
<path d="M15 13C18.2 13 20.3333 11 21 10" stroke="white" stroke-width="0.5" stroke-linecap="round"/>
<path d="M17 14.9065C19.0669 15.4349 20.9998 14.5 21.6184 12.9907" stroke="white" stroke-width="0.5" stroke-linecap="round"/>
<path d="M1.52786 19.8305C2.3507 21.36 3.85518 21.8653 4.50456 21.9268" stroke="white" stroke-width="0.5" stroke-linecap="round"/>
<path d="M1.131 21.2765C1.40994 22.4003 2.35381 23.0837 3.23426 22.9913" stroke="white" stroke-width="0.5" stroke-linecap="round"/>
<path d="M20.4308 0.18989C20.3239 -0.0542184 20.0183 -0.0639827 19.8903 0.166455C19.2983 1.21905 18.2383 1.87521 17.0274 1.87521H15.4995C13.475 1.87521 11.8325 3.55467 11.8325 5.62471C11.8325 5.76141 11.8477 5.89225 11.8611 6.02504C13.0796 5.13259 14.8387 4.37488 17.333 4.37488C17.5011 4.37488 17.6386 4.51548 17.6386 4.68733C17.6386 4.85919 17.5011 4.99979 17.333 4.99979C12.5315 4.99979 10.4955 8.00915 10.0448 9.13986C9.91874 9.45818 10.0677 9.82141 10.379 9.95225C10.6923 10.085 11.0475 9.93077 11.1774 9.61441C11.206 9.5441 11.5765 8.67899 12.5506 7.84511C13.1694 8.70242 14.3459 9.52067 15.891 9.35272C18.8896 9.1301 21 6.38047 21 3.01373C21 2.03339 20.7937 1.0179 20.4308 0.18989Z" fill="#292929"/>
<path d="M11.1006 20.3491C11.3695 20.2887 11.4373 19.984 11.2268 19.8113C10.2666 19.0151 9.79871 17.8257 10.0278 16.6109L10.3169 15.0781C10.6999 13.0471 9.2999 11.0766 7.19126 10.6789C7.05201 10.6527 6.91584 10.6429 6.77804 10.6308C7.4566 12.0247 7.89563 13.9349 7.4237 16.4373C7.39191 16.6059 7.22266 16.7168 7.0476 16.6838C6.87255 16.6508 6.75533 16.4858 6.78713 16.3172C7.69558 11.5003 5.01529 8.87962 3.94877 8.21021C3.64837 8.0226 3.25017 8.10227 3.05799 8.38945C2.86346 8.67817 2.9534 9.0642 3.25109 9.25527C3.31729 9.29751 4.12844 9.83542 4.79357 10.9728C3.8032 11.4289 2.74709 12.452 2.62583 14.0343C2.28529 17.0853 4.68691 19.7308 8.11644 20.3776C9.11506 20.5659 10.1885 20.5541 11.1006 20.3491Z" fill="#292929"/>
</svg>
