<svg width="250" height="170" version="1.1" viewBox="0 0 66.1458 44.9792" xmlns="http://www.w3.org/2000/svg" xmlns:xlink="http://www.w3.org/1999/xlink"><defs><linearGradient id="a" x1="113.63" x2="116.53" y1="226.36" y2="226.36" gradientTransform="matrix(1 0 0 -1 111.838 817.913)" gradientUnits="userSpaceOnUse"><stop stop-color="#ea68a3" offset="0"/><stop stop-color="#e73b88" offset="1"/></linearGradient></defs><g transform="matrix(1.00475 0 0 1.00475 -212.928 -1074.38)" stroke-width=".995276"><g transform="matrix(.527589 0 0 .527589 113.712 801.191)" stroke-width=".378855"><g class="cls-374" transform="matrix(.986253 0 0 1.04138 113.717 -42.476)" opacity=".84" stroke-width=".373829" style="mix-blend-mode:multiply"><path class="cls-375" d="m144 539.89c-16.3-8.93-30.06-16.45-40.46-6.09s-25.4 3.36-26.68 22.4c-0.6 8.76 15 13.85 0.59 32.16-22.26 28.36 54.18 11.13 82.07 19.4 40.44 12 18.45-22.47 35.54-32.47 11.57-6.77 1.49-36.24-18-30.1-15.31 4.81-16.36 3.86-33.06-5.3z" fill="#f3f4fa" stroke-width=".373829"/></g><g stroke-width=".378855"><path class="cls-401" d="m190.508 556.605a2.19 2.19 0 1 0-2.76-1.41 2.19 2.19 0 0 0 2.76 1.41z" fill="#e2e9f7"/><path class="cls-402" d="m262.838 511.102a1.49 1.49 0 1 0-1.88-1 1.5 1.5 0 0 0 1.88 1z" fill="#64bb90"/><path class="cls-403" d="m226.888 593.043a1.49 1.49 0 1 0-1.49-1.49 1.48 1.48 0 0 0 1.49 1.49z" fill="url(#a)"/><path class="cls-386" d="m306.518 536.085a3.34 3.34 0 1 0-4.71-0.22 3.35 3.35 0 0 0 4.71 0.22z" fill="#e9edf9"/><path class="cls-386" d="m306.698 521.185a1.41 1.41 0 0 0-1.86-2.08 1.41 1.41 0 0 0 1.89 2.08z" fill="#e9edf9"/><rect class="cls-404" x="199.693" y="513.755" width="92.16" height="73.44" rx="5.66052" ry="5.66052" fill="#e3e2f0"/><path class="cls-373" d="m285.428 515.415h-79.31a4.86 4.86 0 0 0-4.85 4.85v60.42a4.86 4.86 0 0 0 4.85 4.85h79.31a4.86 4.86 0 0 0 4.85-4.85v-60.42a4.86 4.86 0 0 0-4.85-4.85z" fill="#fff"/></g><g fill="#f3f4fa" fill-opacity=".843137"><path transform="matrix(.499126 0 0 .499126 15.576 -1792.1)" d="m381.75 4623.11a9.73702 9.73702 0 0 0-9.7168 9.7168v6.9121h178.332v-6.9121a9.73702 9.73702 0 0 0-9.71679-9.7168z" stroke-width=".759037"/><g stroke-width=".378855"><path class="cls-405" d="m208.438 520.795a0.91 0.91 0 1 1-1.82 0 0.91 0.91 0 1 1 1.82 0z"/><path class="cls-406" d="m211.968 520.795a0.91 0.91 0 1 1-0.91-0.91 0.91 0.91 0 0 1 0.91 0.91z"/><path class="cls-407" d="m215.508 520.795a0.91 0.91 0 1 1-0.91-0.91 0.91 0.91 0 0 1 0.91 0.91z"/></g></g><g stroke-width=".378855"><path class="cls-405" d="m208.438 520.795a0.91 0.91 0 1 1-1.82 0 0.91 0.91 0 1 1 1.82 0z" fill="#f5a9a1"/><path class="cls-406" d="m211.968 520.795a0.91 0.91 0 1 1-0.91-0.91 0.91 0.91 0 0 1 0.91 0.91z" fill="#dfc54b"/><path class="cls-407" d="m215.508 520.795a0.91 0.91 0 1 1-0.91-0.91 0.91 0.91 0 0 1 0.91 0.91z" fill="#0c8076"/></g><g fill="#cbccde" stroke-width=".378855"><rect class="cls-409" x="204.758" y="566.235" width="28.87" height="4.87" rx=".404292" ry=".404292" opacity=".48"/><rect class="cls-409" x="248.288" y="529.995" width="36.6" height="8.76" rx=".404292" ry=".404292" opacity=".48"/><rect class="cls-410" x="204.828" y="574.665" width="21.69" height="1.15" rx=".229598" ry=".229598"/><rect class="cls-409" x="204.758" y="577.215" width="16.82" height="1.15" rx=".229598" ry=".229598" opacity=".48"/><rect class="cls-409" x="248.288" y="574.665" width="11.8" height="1.15" rx=".229598" ry=".229598" opacity=".48"/></g><g stroke-width=".378855"><rect class="cls-411" x="248.288" y="577.405" width="8.1" height="1.15" rx=".229598" ry=".229598" fill="#d7d8ea" opacity=".48"/><path class="cls-410" d="m283.538 540.495-1.92-1.89 1.4-0.6a0.29 0.29 0 0 0 0.17-0.27 0.3 0.3 0 0 0-0.2-0.26l-4.57-1.46a0.29 0.29 0 0 0-0.36 0.36l1.46 4.57a0.3 0.3 0 0 0 0.26 0.2 0.29 0.29 0 0 0 0.27-0.17l0.6-1.4 1.92 1.92a0.28 0.28 0 0 0 0.2 0.08 0.32 0.32 0 0 0 0.2-0.08l0.57-0.57a0.28 0.28 0 0 0 0-0.4z" fill="#cbccde"/><g class="cls-412" transform="translate(111.838 -22.3951)" opacity=".48"><path class="cls-410" d="m171 562.2-0.18-0.07a14.48 14.48 0 0 1-4.38-2.67l1.23 3.85a0.3 0.3 0 0 0 0.26 0.2 0.29 0.29 0 0 0 0.27-0.17l0.6-1.4 1.92 1.92a0.28 0.28 0 0 0 0.2 0.08 0.32 0.32 0 0 0 0.2-0.08l0.57-0.57a0.28 0.28 0 0 0 0-0.4z" stroke-width=".378855"/></g><path class="cls-373" d="m284.088 539.945-1.91-1.92 1.39-0.6a0.26 0.26 0 0 0 0.17-0.27 0.28 0.28 0 0 0-0.2-0.26l-4.57-1.45a0.25 0.25 0 0 0-0.28 0.07 0.26 0.26 0 0 0-0.07 0.28l1.45 4.57a0.28 0.28 0 0 0 0.26 0.2 0.26 0.26 0 0 0 0.27-0.17l0.6-1.39 1.92 1.91a0.28 0.28 0 0 0 0.2 0.08 0.3 0.3 0 0 0 0.2-0.08l0.57-0.57a0.28 0.28 0 0 0 0-0.4z" fill="#fff"/><path class="cls-413" d="m283.398 539.255-0.18-0.07a14.6 14.6 0 0 1-4.37-2.66l1.22 3.84a0.28 0.28 0 0 0 0.26 0.2 0.26 0.26 0 0 0 0.27-0.17l0.6-1.39 1.92 1.91a0.28 0.28 0 0 0 0.2 0.08 0.3 0.3 0 0 0 0.2-0.08l0.57-0.57a0.28 0.28 0 0 0 0-0.4z" fill="#e5e6f4" opacity=".48"/></g><g fill="#cecee4" stroke-width=".378855"><path class="cls-420" d="m223.838 558.995h-12.69a6.21 6.21 0 1 1 0-12.41h12.69a6.21 6.21 0 1 1 0 12.41zm-12.69-9.89a3.68 3.68 0 0 0 0 7.36h12.69a3.68 3.68 0 0 0 0-7.36z"/><path class="cls-420" d="m211.128 554.045h-7.74a1.26 1.26 0 0 1 0-2.52h7.74a1.26 1.26 0 1 1 0 2.52z"/><path class="cls-420" d="m232.098 554.045h-7.74a1.26 1.26 0 0 1 0-2.52h7.74a1.26 1.26 0 1 1 0 2.52z"/><path class="cls-420" d="m251.778 558.995h-12.68a6.21 6.21 0 0 1 0-12.41h12.68a6.21 6.21 0 0 1 0 12.41zm-12.68-9.89a3.68 3.68 0 0 0 0 7.36h12.68a3.68 3.68 0 0 0 0-7.36z"/><path class="cls-420" d="m239.088 554.045h-7.74a1.26 1.26 0 0 1 0-2.52h7.74a1.26 1.26 0 1 1 0 2.52z"/><path class="cls-420" d="m260.058 554.045h-7.74a1.26 1.26 0 1 1 0-2.52h7.74a1.26 1.26 0 1 1 0 2.52z"/><path class="cls-420" d="m279.728 558.995h-12.67a6.21 6.21 0 1 1 0-12.41h12.67a6.21 6.21 0 1 1 0 12.41zm-12.67-9.89a3.68 3.68 0 0 0 0 7.36h12.67a3.68 3.68 0 1 0 0-7.36z"/><path class="cls-420" d="m267.048 554.045h-7.75a1.26 1.26 0 0 1 0-2.52h7.75a1.26 1.26 0 1 1 0 2.52z"/><path class="cls-420" d="m288.008 554.045h-7.74a1.26 1.26 0 0 1 0-2.52h7.74a1.26 1.26 0 1 1 0 2.52z"/></g><g stroke-width=".378855"><path class="cls-32" d="m250.498 574.245a22.77 22.77 0 1 0-17.18-2.81 22.6 22.6 0 0 0 17.18 2.81zm-0.73-3.11a19.57 19.57 0 1 1 12.1-8.71 19.43 19.43 0 0 1-12.1 8.71z" fill="#454459"/><path class="cls-13" d="m298.898 585.275c1.35-2.17 0.22-5.31-2.51-7l-21.38-13.23c-2.74-1.68-6-1.29-7.38 0.88-1.34 2.18-0.22 5.31 2.52 7l21.39 13.23c2.72 1.68 6 1.29 7.37-0.88z" fill="#4ab7a1"/><path class="cls-13" d="m276.838 571.605c1.35-2.17 1.79-4.33 1-4.83l-6.33-3.88c-0.81-0.49-2.55 0.87-3.9 3-1.34 2.17-1.78 4.34-1 4.83l6.32 3.88c0.81 0.49 2.56-0.87 3.9-3z" fill="#4ab7a1"/><path class="cls-421" d="m228.688 541.805a19.53 19.53 0 1 1 33.15 20.62 19.5326 19.5326 0 1 1-33.18-20.62z" fill="#fff" opacity=".2"/><path class="cls-421" d="m257.528 540.605a17.81 17.81 0 0 0-26.69 19.2 17.9 17.9 0 0 0 2 5 17.65 17.65 0 0 1-4.92-8.67 17.82 17.82 0 0 1 32.65-13.18 17.9 17.9 0 0 0-3.04-2.35z" fill="#fff" opacity=".2"/><path class="cls-422" d="m264.298 547.605a19.53 19.53 0 0 0-35.61-5.82 19.36 19.36 0 0 0-2.43 14.82l-1.86 0.44a21.4521 21.4521 0 0 1 41.77-9.8l-1.86 0.44z" fill="#474f5a"/><path class="cls-32" d="m266.438 568.535-4.44-2.66a2.85 2.85 0 0 1-1.3-1.78c0.41-0.54 0.8-1.1 1.16-1.68a19.74 19.74 0 0 0 1-1.85 2.83 2.83 0 0 1 2.16 0.36l4.47 2.68c1.41 0.87 1.34 2.3 0.45 3.69-0.84 1.41-2.1 2.11-3.5 1.24z" fill="#454459"/><path class="cls-423" d="m294.838 583.205-23.83-14.76c0.08-0.11 0.16-0.23 0.23-0.35a10.73 10.73 0 0 0 1.13-2.41l24.07 14.92c1.27 0.78 1.93 2 1.49 2.73-0.45 0.69-1.84 0.64-3.09-0.13z" fill="#71c1b1"/></g></g></g></svg>
