<?xml version="1.0" encoding="UTF-8" standalone="no"?>
<svg
   xmlns:dc="http://purl.org/dc/elements/1.1/"
   xmlns:cc="http://creativecommons.org/ns#"
   xmlns:rdf="http://www.w3.org/1999/02/22-rdf-syntax-ns#"
   xmlns:svg="http://www.w3.org/2000/svg"
   xmlns="http://www.w3.org/2000/svg"
   xmlns:sodipodi="http://sodipodi.sourceforge.net/DTD/sodipodi-0.dtd"
   xmlns:inkscape="http://www.inkscape.org/namespaces/inkscape"
   viewBox="0 0 304.11356 217.5875"
   version="1.1"
   id="svg1390462"
   sodipodi:docname="Community.svg"
   width="304.11356"
   height="217.58751"
   inkscape:version="1.0.2 (e86c870879, 2021-01-15)"
   inkscape:export-filename="/keybase/team/witnet.design/2021/Witnet Project/Web/Illustrations/Community.png"
   inkscape:export-xdpi="182"
   inkscape:export-ydpi="182">
  <metadata
     id="metadata1390466">
    <rdf:RDF>
      <cc:Work
         rdf:about="">
        <dc:format>image/svg+xml</dc:format>
        <dc:type
           rdf:resource="http://purl.org/dc/dcmitype/StillImage" />
        <dc:title />
      </cc:Work>
    </rdf:RDF>
  </metadata>
  <sodipodi:namedview
     pagecolor="#ffffff"
     bordercolor="#666666"
     borderopacity="1"
     objecttolerance="10"
     gridtolerance="10"
     guidetolerance="10"
     inkscape:pageopacity="0"
     inkscape:pageshadow="2"
     inkscape:window-width="2560"
     inkscape:window-height="1381"
     id="namedview1390464"
     showgrid="false"
     fit-margin-top="0"
     fit-margin-left="0"
     fit-margin-right="0"
     fit-margin-bottom="0"
     inkscape:zoom="7.48691"
     inkscape:cx="104.32169"
     inkscape:cy="86.682489"
     inkscape:window-x="0"
     inkscape:window-y="0"
     inkscape:window-maximized="1"
     inkscape:current-layer="g1390460"
     inkscape:document-rotation="0" />
  <defs
     id="defs1390066">
    <style
       id="style1390042">.cls-1{fill:none;}.cls-2{isolation:isolate;}.cls-3{fill:#e3e2f0;}.cls-4{fill:#122439;}.cls-5{fill:#f5a9a1;}.cls-6{fill:#dfc54b;}.cls-7{fill:#0c8076;}.cls-8{clip-path:url(#clip-path);}.cls-9{fill:#f3f4fa;}.cls-10{font-size:2.67px;font-family:DroidSansMono, Droid Sans Mono;}.cls-10,.cls-14,.cls-18,.cls-25,.cls-27,.cls-35{fill:#fff;}.cls-11{letter-spacing:0.6em;}.cls-12{fill:#e3e4e4;opacity:0.62;}.cls-13{fill:#5f5da4;}.cls-14{stroke:#fff;stroke-linecap:round;stroke-linejoin:round;}.cls-15{fill:#46446b;}.cls-16{fill:#4b9a5f;}.cls-17{fill:#5aaf72;}.cls-19{fill:#75be88;}.cls-20{fill:#5d4d96;}.cls-21{fill:#52388d;}.cls-22{fill:#4e4385;}.cls-23{fill:#5ca86e;}.cls-24,.cls-28{fill:#dddcdf;}.cls-25{opacity:0.23;}.cls-26{clip-path:url(#clip-path-2);}.cls-27{opacity:0.3;}.cls-28{mix-blend-mode:multiply;}.cls-29{clip-path:url(#clip-path-3);}.cls-30{fill:#383166;}.cls-31{fill:#9acc9c;}.cls-32{fill:#442c63;}.cls-33{fill:#f3b6be;}.cls-34{fill:#e39fab;}.cls-35{opacity:0.13;}.cls-36{fill:url(#Degradado_sin_nombre_13);}.cls-37{fill:#585b97;}.cls-38{fill:#4b528d;}.cls-39{fill:#6364a5;}.cls-40{fill:#13b1a5;}.cls-41{fill:#6aad7a;}.cls-42{fill:#4d4e90;}.cls-43{fill:#efeff3;}</style>
    <clipPath
       id="clip-path">
      <path
         class="cls-1"
         d="m 257.2,106.92 h -176 a 6.15,6.15 0 0 0 -6.12,6.13 v 80.24 a 10.41,10.41 0 0 0 10.42,10.38 h 167.44 a 10.42,10.42 0 0 0 10.39,-10.38 v -80.24 a 6.15,6.15 0 0 0 -6.13,-6.13 z"
         id="path1390044" />
    </clipPath>
    <clipPath
       id="clip-path-2">
      <path
         class="cls-1"
         d="m 293.23,120.26 c -4.43,-6.27 -3.8,-14.68 -3,-22.32 0.16,-1.49 0.39,-3.12 1.51,-4.11 A 5.8,5.8 0 0 1 294.48,92.7 72.23,72.23 0 0 1 305,91.22 c 5.4,-0.37 11.68,0.29 14.76,4.75 a 14.52,14.52 0 0 1 2.09,6.35 c 1,7.64 -0.51,15.87 -5.46,21.77"
         id="path1390047" />
    </clipPath>
    <clipPath
       id="clip-path-3">
      <path
         class="cls-1"
         d="m 242.68,89.53 a 108.65,108.65 0 0 1 28.22,-4.75 9.25,9.25 0 0 1 5.19,0.88 7.94,7.94 0 0 1 2.58,3 23.94,23.94 0 0 1 3,14.68 c -0.62,5.14 -2.9,9.93 -5.51,14.4 a 24.43,24.43 0 0 1 -5.56,7.07 16.82,16.82 0 0 1 -12.17,3.19 26.84,26.84 0 0 1 -11.91,-4.59 15.61,15.61 0 0 1 -4.83,-4.6 17.14,17.14 0 0 1 -1.85,-5.24 68.78,68.78 0 0 1 -1.6,-13.34 c -0.08,-4.04 0.33,-9.44 4.44,-10.7 z"
         id="path1390050" />
    </clipPath>
    <radialGradient
       id="Degradado_sin_nombre_13"
       cx="307.88"
       cy="162.38"
       r="60.02"
       gradientUnits="userSpaceOnUse">
      <stop
         offset="0"
         stop-color="#fff"
         id="stop1390053" />
      <stop
         offset="0.09"
         stop-color="#fff"
         stop-opacity="0.94"
         id="stop1390055" />
      <stop
         offset="0.27"
         stop-color="#fff"
         stop-opacity="0.79"
         id="stop1390057" />
      <stop
         offset="0.51"
         stop-color="#fff"
         stop-opacity="0.55"
         id="stop1390059" />
      <stop
         offset="0.81"
         stop-color="#fff"
         stop-opacity="0.22"
         id="stop1390061" />
      <stop
         offset="1"
         stop-color="#fff"
         stop-opacity="0"
         id="stop1390063" />
    </radialGradient>
  </defs>
  <g
     class="cls-2"
     id="g1390460"
     transform="translate(-72.720001,-46.43)">
    <g
       id="Capa_1"
       data-name="Capa 1">
      <rect
         class="cls-3"
         x="72.720001"
         y="104.63"
         width="192.56"
         height="101.32"
         rx="6.9306731"
         id="rect1390068"
         ry="6.9306731" />
      <path
         class="cls-4"
         d="M 259.7,118.27 H 75.12 V 197 a 6.71,6.71 0 0 0 6.69,6.69 h 174.82 a 6.72,6.72 0 0 0 6.7,-6.69 v -79.2 a 13.39,13.39 0 0 1 -3.63,0.47 z"
         id="path1390070" />
      <path
         class="cls-5"
         d="m 85,114.34 a 1.26,1.26 0 1 1 -1.25,-1.26 1.26,1.26 0 0 1 1.25,1.26 z"
         id="path1390072" />
      <path
         class="cls-6"
         d="m 89.88,114.34 a 1.26,1.26 0 1 1 -1.25,-1.26 1.26,1.26 0 0 1 1.25,1.26 z"
         id="path1390074" />
      <path
         class="cls-7"
         d="m 94.76,114.34 a 1.26,1.26 0 1 1 -1.25,-1.26 1.26,1.26 0 0 1 1.25,1.26 z"
         id="path1390076" />
      <g
         class="cls-8"
         clip-path="url(#clip-path)"
         id="g1390086">
        <polygon
           class="cls-9"
           points="58.39,42.83 59.38,118.38 274.53,118.38 273.54,42.83 "
           id="polygon1390078" />
        <path
           class="cls-5"
           d="m 85,114.34 a 1.26,1.26 0 1 1 -1.25,-1.26 1.26,1.26 0 0 1 1.25,1.26 z"
           id="path1390080" />
        <path
           class="cls-6"
           d="m 89.88,114.34 a 1.26,1.26 0 1 1 -1.25,-1.26 1.26,1.26 0 0 1 1.25,1.26 z"
           id="path1390082" />
        <path
           class="cls-7"
           d="m 94.76,114.34 a 1.26,1.26 0 1 1 -1.25,-1.26 1.26,1.26 0 0 1 1.25,1.26 z"
           id="path1390084" />
      </g>
      <text
         class="cls-10"
         transform="rotate(-0.04,181238.14,-115215.83)"
         id="text1390088">// Your contract needs to inherit from UsingWitnet</text>
      <text
         class="cls-10"
         transform="rotate(-0.04,185191.54,-115214.45)"
         id="text1390090">contract PriceFeed is UsingWitnet {</text>
      <text
         class="cls-10"
         transform="rotate(-0.04,189108.68,-257521.49)"
         id="text1390092">t</text>
      <text
         class="cls-10"
         transform="rotate(-0.04,189107.88,-255229.66)"
         id="text1390094">n</text>
      <text
         class="cls-10"
         transform="rotate(-0.04,189107.08,-252923.5)"
         id="text1390096">i</text>
      <text
         class="cls-10"
         transform="rotate(-0.04,189106.28,-250631.67)"
         id="text1390098">o</text>
      <text
         class="cls-10"
         transform="rotate(-0.04,189105.48,-248339.84)"
         id="text1390100">p</text>
      <text
         class="cls-10"
         transform="rotate(-0.04,189104.68,-246048.01)"
         id="text1390102" />
      <text
         class="cls-10"
         transform="rotate(-0.04,189103.87,-243741.85)"
         id="text1390104">e</text>
      <text
         class="cls-10"
         transform="rotate(-0.04,189117.4,-241450.02)"
         id="text1390106">c</text>
      <text
         class="cls-10"
         transform="rotate(-0.04,189116.6,-239158.19)"
         id="text1390108">i</text>
      <text
         class="cls-10"
         transform="rotate(-0.04,189115.8,-236866.36)"
         id="text1390110">r</text>
      <text
         class="cls-10"
         transform="rotate(-0.04,189115,-234574.53)"
         id="text1390112">p</text>
      <text
         class="cls-10"
         transform="rotate(-0.04,189114.19,-232268.37)"
         id="text1390114" />
      <text
         class="cls-10"
         transform="rotate(-0.04,189113.39,-229976.54)"
         id="text1390116">n</text>
      <text
         class="cls-10"
         transform="rotate(-0.04,189112.59,-227684.71)"
         id="text1390118">i</text>
      <text
         class="cls-10"
         transform="rotate(-0.04,189111.79,-225392.88)"
         id="text1390120">o</text>
      <text
         class="cls-10"
         transform="rotate(-0.04,189110.99,-223086.72)"
         id="text1390122">c</text>
      <text
         class="cls-10"
         transform="rotate(-0.04,189110.19,-220794.89)"
         id="text1390124">t</text>
      <text
         class="cls-10"
         transform="rotate(-0.04,189123.71,-218503.05)"
         id="text1390126">i</text>
      <text
         class="cls-10"
         transform="rotate(-0.04,189122.91,-216211.22)"
         id="text1390128">B</text>
      <text
         class="cls-10"
         transform="rotate(-0.04,189122.11,-213905.07)"
         id="text1390130" />
      <text
         class="cls-10"
         transform="rotate(-0.04,189121.31,-211613.24)"
         id="text1390132">c</text>
      <text
         class="cls-10"
         transform="rotate(-0.04,189120.51,-209321.41)"
         id="text1390134">i</text>
      <text
         class="cls-10"
         transform="rotate(-0.04,189119.71,-207029.58)"
         id="text1390136">l</text>
      <text
         class="cls-10"
         transform="rotate(-0.04,189118.91,-204737.74)"
         id="text1390138">b</text>
      <text
         class="cls-10"
         transform="rotate(-0.04,189118.1,-202431.59)"
         id="text1390140">u</text>
      <text
         class="cls-10"
         transform="rotate(-0.04,189117.3,-200139.76)"
         id="text1390142">p</text>
      <text
         class="cls-10"
         transform="rotate(-0.04,189116.5,-197847.93)"
         id="text1390144" />
      <text
         class="cls-10"
         transform="rotate(-0.04,189130.03,-195556.09)"
         id="text1390146">e</text>
      <text
         class="cls-10"
         transform="rotate(-0.04,189129.22,-193249.94)"
         id="text1390148">h</text>
      <text
         class="cls-10"
         transform="rotate(-0.04,189128.42,-190958.1)"
         id="text1390150">T</text>
      <text
         class="cls-10"
         transform="rotate(-0.04,189127.62,-188666.27)"
         id="text1390152" />
      <text
         class="cls-10"
         transform="rotate(-0.04,189126.82,-186374.44)"
         id="text1390154">/</text>
      <text
         class="cls-10"
         transform="rotate(-0.04,189126.02,-184068.29)"
         id="text1390156">/</text>
      <text
         class="cls-10"
         transform="rotate(-0.04,189125.22,-181776.46)"
         id="text1390158" />
      <text
         class="cls-10"
         transform="rotate(-0.04,189124.42,-179484.63)"
         id="text1390160">;</text>
      <text
         class="cls-10"
         transform="rotate(-0.04,189123.62,-177192.79)"
         id="text1390162">e</text>
      <text
         class="cls-10"
         transform="rotate(-0.04,189122.82,-174900.96)"
         id="text1390164">c</text>
      <text
         class="cls-10"
         transform="rotate(-0.04,189136.33,-172594.8)"
         id="text1390166">i</text>
      <text
         class="cls-10"
         transform="rotate(-0.04,189135.53,-170302.97)"
         id="text1390168">r</text>
      <text
         class="cls-10"
         transform="rotate(-0.04,189134.73,-168011.14)"
         id="text1390170">P</text>
      <text
         class="cls-10"
         transform="rotate(-0.04,189133.93,-165719.31)"
         id="text1390172">n</text>
      <text
         class="cls-10"
         transform="rotate(-0.04,189133.13,-163413.15)"
         id="text1390174">i</text>
      <text
         class="cls-10"
         transform="rotate(-0.04,189132.33,-161121.32)"
         id="text1390176">o</text>
      <text
         class="cls-10"
         transform="rotate(-0.04,189131.53,-158829.49)"
         id="text1390178">c</text>
      <text
         class="cls-10"
         transform="rotate(-0.04,189130.73,-156537.66)"
         id="text1390180">t</text>
      <text
         class="cls-10"
         transform="rotate(-0.04,189129.92,-154231.51)"
         id="text1390182">i</text>
      <text
         class="cls-10"
         transform="rotate(-0.04,189143.45,-151939.67)"
         id="text1390184">b</text>
      <text
         class="cls-10"
         transform="rotate(-0.04,189142.65,-149647.84)"
         id="text1390186" />
      <text
         class="cls-10"
         transform="rotate(-0.04,189141.85,-147356.01)"
         id="text1390188">c</text>
      <text
         class="cls-10"
         transform="rotate(-0.04,189141.05,-145064.18)"
         id="text1390190">i</text>
      <text
         class="cls-10"
         transform="rotate(-0.04,189140.24,-142758.02)"
         id="text1390192">l</text>
      <text
         class="cls-10"
         transform="rotate(-0.04,189139.44,-140466.19)"
         id="text1390194">b</text>
      <text
         class="cls-10"
         transform="rotate(-0.04,189138.64,-138174.36)"
         id="text1390196">u</text>
      <text
         class="cls-10"
         transform="rotate(-0.04,189137.84,-135882.53)"
         id="text1390198">p</text>
      <text
         class="cls-10"
         transform="rotate(-0.04,189136.24,-131284.54)"
         id="text1390200">4</text>
      <text
         class="cls-10"
         transform="rotate(-0.04,189149.76,-128992.71)"
         id="text1390202">6</text>
      <text
         class="cls-10"
         transform="rotate(-0.04,189148.96,-126700.88)"
         id="text1390204">t</text>
      <text
         class="cls-10"
         transform="rotate(-0.04,189148.16,-124394.72)"
         id="text1390206">n</text>
      <text
         class="cls-10"
         transform="rotate(-0.04,189147.36,-122102.89)"
         id="text1390208">i</text>
      <text
         class="cls-10"
         transform="rotate(-0.04,189146.56,-119811.06)"
         id="text1390210">u</text>
      <text
         class="cls-10"
         transform="rotate(-0.04,189145.76,-117519.23)"
         id="text1390212" />
      <text
         class="cls-10"
         transform="rotate(-0.04,189144.96,-115227.4)"
         id="text1390214" />
      <text
         class="cls-10"
         transform="rotate(-0.04,193098.37,-115226.02)"
         id="text1390218"><tspan
           xml:space="preserve"
           id="tspan1390216">  uint256 public lastRequestId;      // Stores the ID of the last Witnet request</tspan></text>
      <text
         class="cls-10"
         transform="rotate(-0.04,197051.77,-115224.64)"
         id="text1390222"><tspan
           xml:space="preserve"
           id="tspan1390220">  bool public pending;               // Tells if an update has been requested but not yet completed</tspan></text>
      <text
         class="cls-10"
         transform="rotate(-0.04,201005.18,-115223.26)"
         id="text1390226"><tspan
           xml:space="preserve"
           id="tspan1390224">  Request public request;            // The Witnet request object, is set in the constructor</tspan></text>
      <text
         class="cls-10"
         transform="rotate(-0.04,208912,-115220.5)"
         id="text1390230"><tspan
           xml:space="preserve"
           id="tspan1390228">  // emits when the price is updated</tspan></text>
      <text
         class="cls-10"
         transform="rotate(-0.04,212865.41,-115233.44)"
         id="text1390234"><tspan
           xml:space="preserve"
           id="tspan1390232">  event PriceUpdated(uint64);</tspan></text>
      <text
         class="cls-10"
         transform="rotate(-0.04,220772.23,-115230.68)"
         id="text1390238"><tspan
           xml:space="preserve"
           id="tspan1390236">  // emits when found an error decoding request result</tspan></text>
      <text
         class="cls-10"
         transform="rotate(-0.04,224725.64,-115229.3)"
         id="text1390242"><tspan
           xml:space="preserve"
           id="tspan1390240">  event ResultError(string);</tspan></text>
      <text
         class="cls-10"
         transform="rotate(-0.04,232632.46,-115226.54)"
         id="text1390246"><tspan
           xml:space="preserve"
           id="tspan1390244">  // This constructor does a nifty trick to tell the `UsingWitnet` library where</tspan></text>
      <text
         class="cls-10"
         transform="rotate(-0.04,236585.87,-115239.48)"
         id="text1390250"><tspan
           xml:space="preserve"
           id="tspan1390248">  // to find the Witnet contracts on whatever Ethereum network you use.</tspan></text>
      <text
         class="cls-10"
         transform="rotate(-0.04,240539.28,-115238.1)"
         id="text1390254"><tspan
           xml:space="preserve"
           id="tspan1390252">  constructor (address _wrb) public UsingWitnet(_wrb) {</tspan></text>
      <text
         class="cls-10"
         transform="rotate(-0.04,244492.69,-115236.72)"
         id="text1390258"><tspan
           xml:space="preserve"
           id="tspan1390256">    // Instantiate the Witnet request</tspan></text>
      <text
         class="cls-10"
         transform="rotate(-0.04,248446.1,-115235.34)"
         id="text1390262"><tspan
           xml:space="preserve"
           id="tspan1390260">    request = new BitcoinPriceRequest();</tspan></text>
      <text
         class="cls-10"
         transform="rotate(-0.04,252399.51,-115233.95)"
         id="text1390266"><tspan
           xml:space="preserve"
           id="tspan1390264">  }</tspan></text>
      <text
         class="cls-10"
         transform="rotate(-0.04,260306.33,-115245.51)"
         id="text1390270"><tspan
           xml:space="preserve"
           id="tspan1390268">  function requestUpdate(uint256 _witnetRequestReward, uint256 _witnetResultReward, uint256 _witnetBlockReward)</tspan></text>
      <text
         class="cls-10"
         transform="rotate(-0.04,264259.74,-115244.13)"
         id="text1390274"><tspan
           xml:space="preserve"
           id="tspan1390272">    require(!pending, &quot;An update is already pending. Complete it first before requesting another update.&quot;);</tspan></text>
      <text
         class="cls-10"
         transform="rotate(-0.04,272166.55,-115241.37)"
         id="text1390282"><tspan
           xml:space="preserve"
           id="tspan1390276">    // Send the request to Witnet and store the I</tspan><tspan
           class="cls-11"
           x="78.519997"
           y="0"
           id="tspan1390278">D</tspan><tspan
           x="81.730003"
           y="0"
           id="tspan1390280">for later retrieval of the result</tspan></text>
      <text
         class="cls-10"
         transform="rotate(-0.04,276119.96,-115239.99)"
         id="text1390286"><tspan
           xml:space="preserve"
           id="tspan1390284">    // The `witnetPostRequest` method comes with `UsingWitnet`</tspan></text>
      <text
         class="cls-10"
         transform="rotate(-0.04,280073.38,-115252.94)"
         id="text1390290"><tspan
           xml:space="preserve"
           id="tspan1390288">    lastRequestId = witnetPostRequest(request, _witnetRequestReward, _witnetResultReward, _witnetBlockReward);</tspan></text>
      <path
         class="cls-12"
         d="m 197.87,226.57 c 2.83,0.82 2.86,4.81 0.66,6.65 -2.2,1.84 -5.46,2.06 -8.44,2.07 -2.98,0.01 -6.17,-0.07 -8.69,1.39 -5.54,3.21 -3.79,11.21 0.74,15.42 8.27,7.69 21.46,8.5 33.39,8.83 L 325.75,264 c 9.91,0.27 41.44,-2.59 49.33,-8.09 7.21,-5 -10.52,-10.59 -4.75,-16.95 3.84,-4.24 -16.49,-9.49 -15.28,-14.84 1.43,-6.33 -3.83,-12.58 -10.35,-15.16 -6.52,-2.58 -13.95,-2.36 -21.09,-2 -45.46,2.16 -65.9,8.77 -110.44,0.78 -3.48,-0.62 -7,-1.33 -10.56,-0.92 -3.56,0.41 -7.13,2.18 -8.47,5.17 -1.34,2.99 0.56,7 4.09,7.46"
         id="path1390292" />
      <path
         class="cls-13"
         d="m 227.68,130.09 c -4.12,7.82 -11.36,13.61 -16.62,20.75 -2.23,3 -4.11,6.3 -6.62,9.11 a 9.18,9.18 0 0 0 -2.08,2.94 c -0.71,2.11 0.64,4.53 2.65,5.63 a 9.94,9.94 0 0 0 6.7,0.66 23.11,23.11 0 0 0 10.81,-5.85 c 3.63,-3.31 6.48,-7.42 9,-10.86 -5.52,14.08 -1.32,46.35 -1.32,46.35 0,0 4.23,15.57 3.2,24.07 -0.21,1.77 -0.36,3.73 0.77,5.13 1.13,1.4 17.25,5.82 26.33,7.28 a 73,73 0 0 0 11.44,0.9 c 12.42,0.05 25,-0.25 36.86,-3.8 7.45,-2.24 14.42,-5.72 21.34,-9.18 -2.09,-9.41 -1.72,-18.87 -3.31,-28.37 -1.47,-8.81 -4.48,-25.74 -8.22,-35.93"
         id="path1390294" />
      <path
         class="cls-14"
         d="m 281.74,193.61 a 1.34,1.34 0 0 0 -0.31,-1.9 l -3.36,-2.3 v -0.15 l 0.85,-1.17 a 1.33,1.33 0 0 1 1.85,-0.31 l 5.51,3.91 0.07,0.37 -4,5.47 a 1.33,1.33 0 0 1 -1.85,0.31 l -1.18,-0.83 v -0.15 z"
         id="path1390296" />
      <path
         class="cls-14"
         d="m 290.28,196.16 9,-1.49 a 1.33,1.33 0 0 1 1.53,1.1 v 0 a 1.33,1.33 0 0 1 -1.09,1.53 l -9,1.49 a 1.34,1.34 0 0 1 -1.54,-1.1 v 0 a 1.33,1.33 0 0 1 1.1,-1.53 z"
         id="path1390298" />
      <path
         class="cls-15"
         d="m 281.93,204.26 a 48.38,48.38 0 0 1 16.32,-0.74 1.17,1.17 0 0 1 0.55,0.16 1.31,1.31 0 0 1 0.37,1 7.41,7.41 0 0 0 10.54,6 q 0.42,3.5 0.54,7 a 3.91,3.91 0 0 1 -0.27,2 2.92,2.92 0 0 1 -1.94,1.48 c -7.88,1.64 -8.31,3 -17.54,2.79 -9.82,-0.23 -13,-0.59 -16.25,-0.7 a 3.63,3.63 0 0 1 -2.81,-1 3.71,3.71 0 0 1 -0.6,-2.34 30.85,30.85 0 0 1 1,-8.34 c 0.91,0.73 5.77,0.54 7.41,-0.69 1.12,-0.88 3.22,-5.47 2.68,-6.62 z"
         id="path1390300" />
      <path
         class="cls-16"
         d="m 245.44,232 c 2.2,-4 20.29,-21.77 41.54,-22.34 0.44,0 22,43.94 21.52,43.85 -14.33,-2.72 -35,-1.67 -41.64,-4 -12.21,-4.34 -29.77,-8.49 -31.08,-20.18"
         id="path1390302" />
      <path
         class="cls-17"
         d="m 336.46,203.56 c -8.7,-3.1 -20.27,-0.42 -28.78,23.14 -2.42,6.67 -5.29,2.63 -6.29,17.19 a 2.93,2.93 0 0 0 0.14,1.44 2.82,2.82 0 0 0 1.13,1.06 c 4.79,2.91 14.74,3.46 20.29,4.26 12.37,1.76 25.2,3.5 37.16,-0.1 a 2,2 0 0 0 1.11,-0.64 2.05,2.05 0 0 0 0.24,-1.2 c -0.1,-8.04 -3.32,-37.42 -25,-45.15 z"
         id="path1390304" />
      <path
         class="cls-18"
         d="m 312.43,249.21 c 0.21,-2.38 2.6,-3.93 4.85,-4.76 a 20.06,20.06 0 0 1 13.32,-0.5 14.39,14.39 0 0 1 9.25,9.25 c 1.94,-4.62 7.14,-7 12.09,-7.74 a 12.47,12.47 0 0 1 6.75,0.5 5.86,5.86 0 0 1 3.74,5.25 99.61,99.61 0 0 1 -50,-2 z"
         id="path1390306" />
      <path
         class="cls-19"
         d="m 264.58,228 c 6.85,-18 22,-20.85 31.09,-19.59 22.8,3.16 24.9,37.12 25,45.15 a 2,2 0 0 1 -0.24,1.2 2,2 0 0 1 -1.11,0.64 c -12,3.6 -24.79,1.86 -37.16,0.1 -5.55,-0.79 -15.5,-1.34 -20.29,-4.26 a 2.89,2.89 0 0 1 -1.13,-1.06 2.92,2.92 0 0 1 -0.14,-1.44 l 0.46,-8.6"
         id="path1390308" />
      <path
         class="cls-18"
         d="m 271,254.43 c 0.21,-2.38 2.61,-3.92 4.85,-4.76 a 20.06,20.06 0 0 1 13.32,-0.5 14.37,14.37 0 0 1 9.25,9.25 c 1.94,-4.62 7.14,-7 12.09,-7.74 a 12.56,12.56 0 0 1 6.75,0.5 5.84,5.84 0 0 1 3.74,5.25 99.5,99.5 0 0 1 -50,-2 z"
         id="path1390310" />
      <path
         class="cls-20"
         d="m 285.65,177 c -4,2 -9.92,7 -14.35,7.27 a 21.78,21.78 0 0 1 -12.69,-3.88 58.84,58.84 0 0 1 -10.13,-7.84 l -7.14,-7.11 a 44.41,44.41 0 0 1 -6.81,-7.95 15,15 0 0 1 -2.39,-10"
         id="path1390312" />
      <path
         class="cls-20"
         d="m 292.06,175.57 c 6.33,0.19 11.33,4.26 16.6,0.75 a 19.38,19.38 0 0 0 7.34,-10.17 38.08,38.08 0 0 0 1.56,-12.58 c 0,0 -15.62,12.85 -48.56,10.05 -29.26,-2.48 -35.18,-18.89 -35.18,-18.89 -1.91,2.29 -1.64,5.82 -0.15,8.41 1.49,2.59 4,4.43 6.38,6.19 12.45,9 27.53,13.56 42.55,16.9 a 13.44,13.44 0 0 0 12.27,-2 c 9,-5.58 14.84,-9.45 20.11,-18.67"
         id="path1390314" />
      <path
         class="cls-15"
         d="m 317.51,153.57 c 0,0 -15.57,12.85 -48.51,10.05 -29.26,-2.48 -35.18,-18.89 -35.18,-18.89 -1.91,2.29 -1.64,5.82 -0.15,8.41 1.49,2.59 4,4.43 6.38,6.19 12.45,9 27.53,13.56 42.55,16.9 a 13.44,13.44 0 0 0 12.27,-2 c 9,-5.58 14.84,-9.45 20.11,-18.67"
         id="path1390316" />
      <path
         class="cls-21"
         d="m 308.34,197 a 2.71,2.71 0 0 1 -0.48,0 1.43,1.43 0 0 1 -0.91,-0.23 1.33,1.33 0 0 1 -0.49,-0.63 7.79,7.79 0 0 1 -0.63,-4 2.1,2.1 0 0 1 0.43,-1.18 2.18,2.18 0 0 1 1.11,-0.65 l 0.69,-0.21 a 60.72,60.72 0 0 1 -0.8,-13.14 1.0015114,1.0015114 0 1 1 2,0.11 57.79,57.79 0 0 0 0.72,12.32 l 0.34,-0.2 c 0.24,-0.14 0.48,-0.28 0.73,-0.4 a 3,3 0 0 1 3.52,0.27 3.37,3.37 0 0 1 0.76,2.35 c 0,0.7 0,1.41 0,2.11 a 2.43,2.43 0 0 1 -0.22,1 2.29,2.29 0 0 1 -0.83,0.88 7.73,7.73 0 0 1 -1.64,0.85 13.48,13.48 0 0 1 -4.3,0.75 z m -0.22,-2 a 12,12 0 0 0 3.75,-0.57 6.37,6.37 0 0 0 1.24,-0.65 1.28,1.28 0 0 0 0.18,-0.14 1.87,1.87 0 0 1 0,-0.21 c 0,-0.66 0,-1.32 0,-2 0,-0.25 0,-0.83 -0.2,-1 -0.2,-0.17 -0.72,-0.14 -1.23,0.12 -0.21,0.1 -0.41,0.22 -0.62,0.34 a 6.31,6.31 0 0 1 -1.5,0.71 l -0.19,0.08 -1.63,0.51 h -0.16 a 0.41,0.41 0 0 1 0,0.1 6,6 0 0 0 0.36,2.71 z"
         id="path1390318" />
      <path
         class="cls-21"
         d="m 258.75,204.75 a 6,6 0 0 1 -1.42,-0.13 c -1.28,-0.22 -2.57,-0.47 -3.83,-0.75 a 2,2 0 0 1 -1.38,-0.88 1.89,1.89 0 0 1 -0.21,-1.07 14.83,14.83 0 0 1 0.66,-3.74 3.17,3.17 0 0 1 1.26,-1.86 3.08,3.08 0 0 1 2.32,-0.19 c 0.87,-2.81 1.57,-5.62 2.25,-8.35 0.43,-1.75 0.87,-3.48 1.34,-5.2 a 1,1 0 0 1 1.21,-0.69 1,1 0 0 1 0.68,1.21 c -0.47,1.7 -0.89,3.42 -1.32,5.15 -0.69,2.75 -1.39,5.58 -2.28,8.43 a 1.15,1.15 0 0 1 0.12,0.25 2.73,2.73 0 0 1 2.44,0.7 2.82,2.82 0 0 1 0.6,1.84 l 0.12,2.33 a 3.2,3.2 0 0 1 -0.18,1.47 2.51,2.51 0 0 1 -1.94,1.44 3.42,3.42 0 0 1 -0.44,0.04 z m -4.87,-2.81 v 0 c 1.23,0.27 2.49,0.52 3.75,0.74 a 3.63,3.63 0 0 0 1.19,0.08 0.66,0.66 0 0 0 0.46,-0.26 1.67,1.67 0 0 0 0,-0.61 l -0.12,-2.33 a 2.1,2.1 0 0 0 -0.1,-0.64 c -0.08,-0.09 -0.57,-0.05 -0.86,0 a 3.4,3.4 0 0 1 -2.12,-0.33 1,1 0 0 1 -0.41,-0.51 1.57,1.57 0 0 0 -0.9,0 c -0.2,0.12 -0.35,0.6 -0.4,0.75 a 12.71,12.71 0 0 0 -0.49,3.11 z"
         id="path1390320" />
      <path
         class="cls-22"
         d="m 201.81,172.94 a 9.83,9.83 0 0 0 6.6,0.59 22.23,22.23 0 0 0 10,-5.33 c 2.86,-4.1 7.64,-8.8 10.88,-12.67 1.88,-2.25 2,-3.74 3.92,-6 1,-1.13 1.92,-2.27 2.86,-3.41 0.23,-0.29 2.48,-3.19 1.19,-1.48 a 24.73,24.73 0 0 1 4.08,-4.26 L 230.1,125.67 c -4,7.72 -17.37,22.78 -22.48,29.84 -2.16,3 -4,6.22 -6.42,9 a 9,9 0 0 0 -2,2.9 c -0.71,2.1 0.64,4.46 2.61,5.53 z"
         id="path1390322" />
      <path
         class="cls-19"
         d="m 230.09,126.87 a 27.78,27.78 0 0 0 2.67,14.72 c 2.28,4.68 5.84,8.62 9.66,12.15 a 43.64,43.64 0 0 0 7.76,5.92 48.28,48.28 0 0 0 10,4 76.2,76.2 0 0 0 24.05,3.68 72.49,72.49 0 0 0 31.13,-7.85 c 3,-1.6 3.59,-5.54 3.77,-8.92 0.55,-10.45 0.34,-21 1.79,-31.31 0.72,-5.17 1.86,-10.32 1.8,-15.54 a 56,56 0 0 0 -2.24,-13.69 c -0.88,-3.33 -2.18,-10.06 -4.06,-13 -3.58,-5.5 -9.87,-8.63 -16.16,-10.52 -6.29,-1.89 -12.87,-2.81 -19,-5.19 a 74.91,74.91 0 0 1 -11.35,-5.89 q -7.14,-4.3 -14.05,-9 a 15,15 0 0 0 1.62,12.18 v 0.12 a 16.43,16.43 0 0 0 -5.91,0.42 66.24,66.24 0 0 1 -34,-2.82 c -0.62,2.3 0.44,4.73 1.88,6.63 a 17.63,17.63 0 0 0 11.89,6.83 c -2,0.79 -3.12,2.88 -4.2,4.76 -3.86,6.68 -9.1,15.79 -15.64,19.89 2.39,1.65 5.61,1.66 8.36,0.74 a 28.27,28.27 0 0 0 7.46,-4.39 115.33,115.33 0 0 1 -17.25,42.46 20.14,20.14 0 0 0 17.11,-8.62 z"
         id="path1390324" />
      <path
         class="cls-17"
         d="m 320.88,119.66 a 29.38,29.38 0 0 1 -5,4.5 c 0.5,1.15 0.7,-1.49 0.45,0.07 a 9.55,9.55 0 0 1 -6.42,8.08 2.72,2.72 0 0 1 -0.24,0.24 c -3.27,2.58 -7.14,3.36 -11.08,4.2 a 4.11,4.11 0 0 1 -0.15,0.46 5.48,5.48 0 0 1 -1.31,2.58 c -0.07,0.08 -0.15,4.16 -0.22,4.24 a 7.5,7.5 0 0 1 3.93,2.76 5.21,5.21 0 0 0 3,1.49 7.41,7.41 0 0 1 5.51,1.66 7.49,7.49 0 0 1 2.65,4.91 7.58,7.58 0 0 1 -1.66,5.51 7.86,7.86 0 0 1 -4.91,2.65 c -0.27,0 -0.52,0.1 -0.79,0.15 a 8.31,8.31 0 0 0 -1,0.41 8.1,8.1 0 0 1 -1.73,0.79 c -11.34,3.58 -22.84,2.89 -34.31,1.25 a 70.09,70.09 0 0 0 16.67,1.75 72.49,72.49 0 0 0 31.13,-7.85 c 3,-1.6 3.59,-5.54 3.77,-8.92 0.51,-10.32 0.32,-20.7 1.71,-30.93 z"
         id="path1390326" />
      <path
         class="cls-17"
         d="m 295.51,120.47 a 40,40 0 0 1 10.86,1.86 20.39,20.39 0 0 0 4.51,-13.75 c -0.33,-5 -3.13,-11.89 -8.07,-12.76 -5.83,-1 -12.75,6.73 -13.22,14.42 a 17.52,17.52 0 0 0 2.85,10.27 c 1.02,-0.05 2.05,-0.08 3.07,-0.04 z"
         id="path1390328" />
      <path
         class="cls-17"
         d="m 302.39,121.29 a 13.93,13.93 0 0 0 3.63,-7.18 c 0.82,-5.35 -2.31,-11.26 -4.66,-11.17 -2.35,0.09 -4,6.43 -4.45,9.5 a 26.23,26.23 0 0 0 0,8.11 39.36,39.36 0 0 1 5.48,0.74 z"
         id="path1390330" />
      <polygon
         class="cls-17"
         points="301.91,115.92 294.87,112.28 296.15,106.51 303.84,110.15 "
         id="polygon1390332" />
      <path
         class="cls-17"
         d="m 264.61,90.79 c -7.46,-1 -16.34,6.77 -17,14.46 -0.6,7.34 6.26,15.48 13.43,15.5 7.72,0 14.48,-9.37 13.84,-17.22 -0.38,-4.95 -3.94,-11.88 -10.27,-12.74 z"
         id="path1390334" />
      <path
         class="cls-17"
         d="m 265.27,99.61 c -2.41,0.08 -4,6.43 -4.45,9.5 -0.51,3.39 -0.73,10 1.59,10.75 2.32,0.75 6.72,-3.91 7.52,-9.08 0.83,-5.35 -2.3,-11.26 -4.66,-11.17 z"
         id="path1390336" />
      <polygon
         class="cls-17"
         points="265.82,112.59 258.78,108.95 260.06,103.18 267.75,106.82 "
         id="polygon1390338" />
      <path
         class="cls-17"
         d="m 300.27,66.58 c -6.29,-1.89 -12.87,-2.81 -19,-5.19 A 74.91,74.91 0 0 1 269.92,55.5 q -7.14,-4.3 -14.05,-9 a 15,15 0 0 0 1.62,12.18 v 0.12 a 16.43,16.43 0 0 0 -5.91,0.42 66.24,66.24 0 0 1 -34,-2.82 c -0.62,2.3 0.44,4.73 1.88,6.63 a 17.63,17.63 0 0 0 11.89,6.83 c -2,0.79 -3.12,2.88 -4.2,4.76 -3.86,6.68 -9.1,15.79 -15.64,19.89 2.39,1.65 5.61,1.66 8.36,0.74 a 28.27,28.27 0 0 0 7.46,-4.39 115.33,115.33 0 0 1 -17.25,42.46 20.14,20.14 0 0 0 17.11,-8.62 l 2.9,2.13 a 27.78,27.78 0 0 0 2.67,14.72 36.34,36.34 0 0 0 6.6,9.14 13.72,13.72 0 0 1 -2,-3.73 31,31 0 0 1 -1.21,-4.83 c -2,-2.45 -3.73,-5.76 -3.76,-8.66 a 41,41 0 0 1 2.22,-14.27 c 0.82,-2.56 1.81,-5 2.65,-7.59 a 10.67,10.67 0 0 1 2.54,-4.05 16.92,16.92 0 0 1 0.63,-11.4 C 244.09,87.82 249,80 255.9,74 c 6.9,-6 15.87,-8.38 25,-8.24 a 85.86,85.86 0 0 1 31.27,6.76 35.09,35.09 0 0 0 -11.9,-5.94 z"
         id="path1390340" />
      <circle
         class="cls-23"
         cx="243.78999"
         cy="118.04"
         r="10.43"
         id="circle1390342" />
      <ellipse
         class="cls-18"
         cx="236.94"
         cy="115.04"
         rx="4.6599998"
         ry="2.21"
         transform="rotate(-15.89,236.91331,115.02433)"
         id="ellipse1390344" />
      <path
         class="cls-16"
         d="m 230.31,76.33 c 3.8,-4.66 7.3,-9.34 12.7,-12.27 A 33,33 0 0 1 258.39,60.17 70.94,70.94 0 0 1 269,61 c 1.46,-0.43 2.94,-0.83 4.47,-1.15 1.05,-0.21 2.11,-0.39 3.16,-0.54 -2.3,-1.17 -4.53,-2.48 -6.74,-3.81 q -7.14,-4.3 -14.05,-9 a 15,15 0 0 0 1.62,12.18 v 0.12 a 16.43,16.43 0 0 0 -5.91,0.42 66.24,66.24 0 0 1 -34,-2.82 c -0.62,2.3 0.44,4.73 1.88,6.63 a 17.63,17.63 0 0 0 11.89,6.83 c -2,0.79 -3.12,2.88 -4.2,4.76 -3.86,6.68 -9.1,15.79 -15.64,19.89 2.39,1.65 5.61,1.66 8.36,0.74 a 28,28 0 0 0 7.41,-4.35 16.79,16.79 0 0 1 3.06,-14.57 z"
         id="path1390346" />
      <path
         class="cls-16"
         d="m 227.3,91.05 q -0.51,2.69 -1.14,5.34 c 0.58,-1.1 1.21,-2.17 1.87,-3.24 a 15.33,15.33 0 0 1 -0.73,-2.1 z"
         id="path1390348" />
      <path
         class="cls-16"
         d="m 220.06,122.5 a 51.9,51.9 0 0 1 0.46,-8.76 114.93,114.93 0 0 1 -10.44,19.62 20,20 0 0 0 11.14,-3 35.33,35.33 0 0 1 -1.16,-7.86 z"
         id="path1390350" />
      <path
         class="cls-18"
         d="m 284.81,137.78 -0.9,4.19 a 1.05,1.05 0 0 1 -0.28,0.6 1,1 0 0 1 -0.53,0.13 c -5.77,0.37 -11.47,-1.26 -17,-2.87 a 15.17,15.17 0 0 1 0.67,-4.39"
         id="path1390352" />
      <path
         class="cls-18"
         d="m 291.65,138.53 a 25.75,25.75 0 0 0 0.92,4.16 q 7.05,-1 14,-2.56 a 1.31,1.31 0 0 0 1,-0.55 1.26,1.26 0 0 0 0.07,-0.77 19.46,19.46 0 0 0 -0.93,-4.55"
         id="path1390354" />
      <path
         class="cls-24"
         d="m 276.45,140 a 16.59,16.59 0 0 1 -9.95,-3.7 15.81,15.81 0 0 0 -0.43,3.5 c 5.56,1.61 11.26,3.24 17,2.88 a 0.71,0.71 0 0 0 0.81,-0.74 l 0.84,-3.89 a 17,17 0 0 1 -8.27,1.95 z"
         id="path1390356" />
      <path
         class="cls-24"
         d="m 307.15,135.88 a 17.56,17.56 0 0 1 -11.68,4.21 17.27,17.27 0 0 1 -3.64,-0.52 25.71,25.71 0 0 0 0.74,3.12 q 7.05,-1 14,-2.56 a 1.31,1.31 0 0 0 1,-0.55 1.26,1.26 0 0 0 0.07,-0.77 22.81,22.81 0 0 0 -0.49,-2.93 z"
         id="path1390358" />
      <path
         class="cls-17"
         d="m 270.08,104.74 a 4.9,4.9 0 0 1 -4.41,7 0.84,0.84 0 0 1 -0.93,-0.71 2.82,2.82 0 0 1 0.5,-2.55 c 0.38,-0.48 0.92,-0.82 1.35,-1.27 a 7.71,7.71 0 0 0 1.52,-3"
         id="path1390360" />
      <path
         class="cls-17"
         d="m 302.34,107.66 a 2.9,2.9 0 0 1 0.06,2.73 1.86,1.86 0 0 1 -2.44,0.76 2.8,2.8 0 0 1 -1,-2 2.3,2.3 0 0 1 0,-1 1.66,1.66 0 0 1 1.14,-1.06 4.77,4.77 0 0 1 1.6,-0.16"
         id="path1390362" />
      <path
         class="cls-25"
         d="m 293.23,120.26 c -4.43,-6.27 -3.8,-14.68 -3,-22.32 0.16,-1.49 0.39,-3.12 1.51,-4.11 A 5.8,5.8 0 0 1 294.48,92.7 72.23,72.23 0 0 1 305,91.22 c 5.4,-0.37 11.68,0.29 14.76,4.75 a 14.52,14.52 0 0 1 2.09,6.35 c 1,7.64 -0.51,15.87 -5.46,21.77"
         id="path1390364" />
      <g
         class="cls-26"
         clip-path="url(#clip-path-2)"
         id="g1390368">
        <polygon
           class="cls-27"
           points="289.42,134.95 280.45,127.18 316.53,82.44 326.46,87.67 "
           id="polygon1390366" />
      </g>
      <path
         class="cls-18"
         d="m 298.51,120.47 a 40,40 0 0 1 10.86,1.86 20.39,20.39 0 0 0 4.51,-13.75 c -0.33,-5 -3.13,-11.89 -8.07,-12.76 -5.82,-1 -12.75,6.73 -13.22,14.42 a 17.52,17.52 0 0 0 2.85,10.27 c 1.02,-0.05 2.05,-0.08 3.07,-0.04 z"
         id="path1390370" />
      <path
         class="cls-19"
         d="m 305.39,121.29 a 13.93,13.93 0 0 0 3.63,-7.18 c 0.82,-5.35 -2.31,-11.26 -4.66,-11.17 -2.35,0.09 -4,6.43 -4.45,9.5 a 26.23,26.23 0 0 0 0,8.11 39.36,39.36 0 0 1 5.48,0.74 z"
         id="path1390372" />
      <polygon
         class="cls-18"
         points="304.91,115.92 297.87,112.28 299.15,106.51 306.84,110.15 "
         id="polygon1390374" />
      <path
         class="cls-18"
         d="m 267.61,90.79 c -7.46,-1 -16.34,6.77 -17,14.46 -0.6,7.34 6.26,15.48 13.43,15.5 7.72,0 14.48,-9.37 13.84,-17.22 -0.38,-4.95 -3.94,-11.88 -10.27,-12.74 z"
         id="path1390376" />
      <path
         class="cls-28"
         d="m 307.85,117.89 a 10.34,10.34 0 0 1 -8.43,-1 10.77,10.77 0 0 1 -3.6,-3.69 12,12 0 0 1 -1.44,-5.53 7.39,7.39 0 0 1 0.9,-3.89 15.26,15.26 0 0 1 0.16,-1.79 17.26,17.26 0 0 0 -2.85,8.2 17.52,17.52 0 0 0 2.85,10.27 c 1,-0.05 2.05,-0.08 3.07,0 a 40,40 0 0 1 10.86,1.86 19.74,19.74 0 0 0 3.78,-7.42 c -0.08,0 -0.17,0.08 -0.25,0.12 a 14.41,14.41 0 0 1 -5.05,2.87 z"
         id="path1390378" />
      <path
         class="cls-19"
         d="m 268.27,99.61 c -2.41,0.08 -4,6.43 -4.45,9.5 -0.51,3.39 -0.73,10 1.59,10.75 2.32,0.75 6.72,-3.91 7.52,-9.08 0.83,-5.35 -2.3,-11.26 -4.66,-11.17 z"
         id="path1390380" />
      <polygon
         class="cls-18"
         points="268.82,112.59 261.78,108.95 263.06,103.18 270.75,106.82 "
         id="polygon1390382" />
      <path
         class="cls-28"
         d="m 258.14,111.91 c -3.8,-3.29 -5.21,-8.93 -4.46,-14.06 a 14.62,14.62 0 0 0 -3,7.4 c -0.6,7.34 6.26,15.48 13.43,15.5 4.48,0 8.62,-3.16 11.2,-7.34 -5.11,3.32 -12.43,2.59 -17.17,-1.5 z"
         id="path1390384" />
      <path
         class="cls-25"
         d="m 293.23,120.26 c -4.43,-6.27 -3.8,-14.68 -3,-22.32 0.16,-1.49 0.39,-3.12 1.51,-4.11 A 5.8,5.8 0 0 1 294.48,92.7 72.23,72.23 0 0 1 305,91.22 c 5.4,-0.37 11.68,0.29 14.76,4.75 a 14.52,14.52 0 0 1 2.09,6.35 c 1,7.64 -0.51,15.87 -5.46,21.77"
         id="path1390386" />
      <path
         class="cls-17"
         d="m 316.5,122.52 c -9.87,9.92 -28.94,8.59 -41.53,7.66 -9.92,-0.74 -18.18,-1.71 -27.78,-6.32 l -2.88,6.75 c 0.88,-0.88 2.45,-4.62 3.53,-4 34.49,20 59.07,8.88 64.6,6.15 2,-1 2.38,-1.86 3.6,-3.77 a 8.44,8.44 0 0 0 1.15,-4.21 10.69,10.69 0 0 0 -0.26,-2.75 c -0.14,0.17 -0.28,0.34 -0.43,0.49 z"
         id="path1390388" />
      <path
         class="cls-16"
         d="m 313.53,121.23 a 10.38,10.38 0 0 0 -4.3,-0.7 c -12.56,-0.23 -25.13,-0.47 -37.69,-0.44 h -3.67 a 44.84,44.84 0 0 0 5.72,1.24 c 7.86,1.15 36.52,-0.08 38.38,4 1.41,3.11 0.58,4 -2.77,5.32 -1.55,0.61 -13.68,5.13 -34.45,3.1 -10.18,-1 -19.52,-5 -28.91,-8.68 l -1.53,1.46 c 0.88,-0.88 2.45,-0.62 3.53,0 34.49,20 59.07,8.88 64.6,6.15 2,-1 2.38,-1.86 3.6,-3.77 a 8.44,8.44 0 0 0 1.15,-4.21 c 0.12,-2.88 -0.97,-2.2 -3.66,-3.47 z"
         id="path1390390" />
      <path
         class="cls-16"
         d="m 228.94,129.6 a 1.48,1.48 0 0 1 -1.42,-1.44 27.49,27.49 0 0 1 1.09,-8.22 1.47,1.47 0 0 1 1.82,-1 1.49,1.49 0 0 1 1,1.83 24.57,24.57 0 0 0 -1,7.34 1.47,1.47 0 0 1 -1.45,1.5 z"
         id="path1390392" />
      <path
         class="cls-25"
         d="m 242.68,89.53 a 108.65,108.65 0 0 1 28.22,-4.75 9.25,9.25 0 0 1 5.19,0.88 7.94,7.94 0 0 1 2.58,3 23.94,23.94 0 0 1 3,14.68 c -0.62,5.14 -2.9,9.93 -5.51,14.4 a 24.43,24.43 0 0 1 -5.56,7.07 16.82,16.82 0 0 1 -12.17,3.19 26.84,26.84 0 0 1 -11.91,-4.59 15.61,15.61 0 0 1 -4.83,-4.6 17.14,17.14 0 0 1 -1.85,-5.24 68.78,68.78 0 0 1 -1.6,-13.34 c -0.08,-4.04 0.33,-9.44 4.44,-10.7 z"
         id="path1390394" />
      <path
         class="cls-16"
         d="m 286.83,152.05 a 11.77,11.77 0 0 1 -5.66,-1.57 1.4727525,1.4727525 0 1 1 1.62,-2.46 9.38,9.38 0 0 0 5,1.06 6.21,6.21 0 0 0 2.62,-0.9 l 1.19,-0.58 a 1.47,1.47 0 1 1 1.23,2.67 c -0.39,0.18 -0.74,0.36 -1.07,0.53 a 9,9 0 0 1 -3.76,1.2 11.84,11.84 0 0 1 -1.17,0.05 z"
         id="path1390396" />
      <g
         class="cls-29"
         clip-path="url(#clip-path-3)"
         id="g1390400">
        <polygon
           class="cls-27"
           points="246.86,132.43 237.89,124.66 273.97,79.92 283.9,85.14 "
           id="polygon1390398" />
      </g>
      <path
         class="cls-16"
         d="m 286.82,127.13 c 0.63,-0.31 0.08,-0.9 -0.48,-1.33 a 12.9,12.9 0 0 0 -1.89,-1.21 3.07,3.07 0 0 0 -1.54,-0.46 1.26,1.26 0 0 0 -1.21,0.9 c -0.12,0.61 0.38,1.17 0.88,1.54 a 2.81,2.81 0 0 0 1.41,0.62 5.37,5.37 0 0 0 1.53,-0.24 c 0.48,-0.09 0.83,0.41 1.3,0.18 z"
         id="path1390402" />
      <path
         class="cls-16"
         d="m 296.12,127.18 c -0.5,-0.5 0.21,-0.88 0.87,-1.11 a 13.65,13.65 0 0 1 2.18,-0.55 3,3 0 0 1 1.61,0.06 1.26,1.26 0 0 1 0.86,1.23 c -0.08,0.62 -0.73,1 -1.32,1.18 a 2.81,2.81 0 0 1 -1.54,0.15 6,6 0 0 1 -1.38,-0.71 c -0.4,-0.26 -0.91,0.12 -1.28,-0.25 z"
         id="path1390404" />
      <path
         class="cls-22"
         d="m 269.94,75.4 c 1.67,0.55 2.4,2.7 1.92,4.4 a 8.53,8.53 0 0 1 -3.19,4.12 c -3.47,2.78 -7.91,4.84 -12.27,4 a 7.51,7.51 0 0 1 -3.73,-1.78 4.81,4.81 0 0 1 -1.58,-3.74 c 0.13,-2 1.67,-3.56 3.3,-4.69 a 18.6,18.6 0 0 1 14.18,-2.88"
         id="path1390406" />
      <path
         class="cls-30"
         d="m 271.94,78 a 3.23,3.23 0 0 0 -2,-2.59 l -1.37,-0.57 a 18.6,18.6 0 0 0 -14.18,2.88 c -1.63,1.13 -3.17,2.72 -3.3,4.69 a 4.27,4.27 0 0 0 0.36,2 c 5.45,-4.75 13.19,-6.1 20.49,-6.41 z"
         id="path1390408" />
      <path
         class="cls-22"
         d="m 317.35,87.91 c 0.77,1.59 -0.26,3.6 -1.81,4.45 a 8.54,8.54 0 0 1 -5.18,0.59 c -4.41,-0.54 -7.49,-1.2 -9.94,-4.91 a 7.51,7.51 0 0 1 -1.32,-3.92 4.85,4.85 0 0 1 1.57,-3.74 c 1.51,-1.28 3.72,-1.29 5.66,-0.91 a 14.35,14.35 0 0 1 10.47,7.07"
         id="path1390410" />
      <path
         class="cls-30"
         d="m 302.39,84.22 1.22,0.56 c 1.16,0.53 2.32,1.06 3.47,1.61 1.31,0.62 2.61,1.27 3.85,2 a 31.57,31.57 0 0 1 5,3.72 3.53,3.53 0 0 0 1.43,-4.21 l -0.55,-1.37 a 14.35,14.35 0 0 0 -10.47,-7.07 c -1.94,-0.38 -4.15,-0.37 -5.66,0.91 a 4.56,4.56 0 0 0 -1.5,2.84 13.07,13.07 0 0 1 3.21,1.01 z"
         id="path1390412" />
      <path
         class="cls-31"
         d="m 309.94,78.06 a 1.47,1.47 0 0 1 -1.24,-0.74 c -1.58,-2.79 -7.58,-4.16 -9.75,-4.46 a 1.4729647,1.4729647 0 0 1 0.39,-2.92 c 1,0.13 9.34,1.38 11.92,5.92 a 1.46,1.46 0 0 1 -0.55,2 1.42,1.42 0 0 1 -0.77,0.2 z"
         id="path1390414" />
      <path
         class="cls-31"
         d="m 295.54,72.29 h -0.19 l -2.14,-0.35 a 1.4738555,1.4738555 0 1 1 0.47,-2.91 l 2.15,0.35 a 1.4721583,1.4721583 0 0 1 -0.29,2.93 z"
         id="path1390416" />
      <path
         class="cls-32"
         d="m 279,113 a 1,1 0 0 1 -0.72,-0.35 1,1 0 0 1 0.12,-1.38 12.21,12.21 0 0 1 14.23,-0.79 1,1 0 0 1 -1.09,1.64 10.2,10.2 0 0 0 -11.87,0.65 A 1,1 0 0 1 279,113 Z"
         id="path1390418" />
      <path
         class="cls-33"
         d="m 255.86,130.61 c 0,0 -8,-3.19 -9.53,-5.94 -1.53,-2.75 -3.61,-3 -4.36,-1.28 -0.75,1.72 1.08,8.51 5.88,9.61 0,0 6.85,0.38 8.01,-2.39 z"
         id="path1390420" />
      <path
         class="cls-34"
         d="m 241.89,125.45 c 0.42,2.69 2.35,6.72 6,7.55 0,0 5.21,0.29 7.31,-1.47 a 26.87,26.87 0 0 1 -13.31,-6.08 z"
         id="path1390422" />
      <path
         class="cls-35"
         d="m 242.68,89.53 a 108.65,108.65 0 0 1 28.22,-4.75 9.25,9.25 0 0 1 5.19,0.88 7.94,7.94 0 0 1 2.58,3 23.94,23.94 0 0 1 3,14.68 c -0.62,5.14 -2.9,9.93 -5.51,14.4 a 24.43,24.43 0 0 1 -5.56,7.07 16.82,16.82 0 0 1 -12.17,3.19 26.84,26.84 0 0 1 -11.91,-4.59 15.61,15.61 0 0 1 -4.83,-4.6 17.14,17.14 0 0 1 -1.85,-5.24 68.78,68.78 0 0 1 -1.6,-13.34 c -0.08,-4.04 0.33,-9.44 4.44,-10.7 z"
         id="path1390424" />
      <circle
         class="cls-36"
         cx="307.88"
         cy="162.38"
         r="60.02"
         id="circle1390426"
         style="fill:url(#Degradado_sin_nombre_13)" />
      <path
         class="cls-37"
         d="m 362.15,160.91 c 0,-0.4 0,-0.81 0,-1.25 -0.1,-3 -0.24,-8.72 -3.86,-8.2 -0.59,0.09 -11.64,-0.48 -12.25,-0.4 l -2.12,0.25 -11,-0.2 c -9.18,-0.18 -18.67,-0.36 -28,-0.34 -2.13,0 -4.34,-0.05 -6.47,-0.11 -5.49,-0.13 -13.93,-0.19 -19.33,0.61 -6.39,0.94 -6.44,5.64 -6.55,6.35 -1.66,10.26 -2,18.32 -2.87,26.28 -0.28,2.7 -0.57,5.49 -0.89,8.33 l -5.21,0.84 c -3.81,0.63 -8.55,1.41 -8.88,1.42 h -0.46 a 0.8,0.8 0 0 0 -1,-0.87 5.06,5.06 0 0 0 -3.3,2.32 c -0.92,2 1.08,4.35 2.23,5.84 1.37,1.74 2.84,3.4 4.34,5 a 101.88,101.88 0 0 0 9.8,9.58 6.58,6.58 0 0 0 2.78,1.72 c 0.34,0.06 0.69,0.09 1,0.12 a 1.68,1.68 0 0 0 0.76,0.21 1.25,1.25 0 0 0 0.43,-0.07 h 0.09 c 1.31,0.06 2.64,0 3.92,0.09 4.77,0.16 9.55,0.21 14.32,0.2 10.54,0 21.08,-0.3 31.61,-0.71 8.64,-0.35 17.29,-0.77 25.93,-1.38 2.4,-0.17 4.8,-0.34 7.19,-0.61 a 10.19,10.19 0 0 0 1.55,-0.24 c 2.1,-0.58 2.09,-3.15 2.32,-4.89 a 0.81,0.81 0 0 0 -0.62,-0.91 c 0,0 0,-0.09 0,-0.13 a 0.65,0.65 0 0 0 -0.13,-0.28 c 1.45,-2.17 1.18,-4.5 1.44,-7 0.81,-7.52 2.19,-14.64 2.7,-20.76 a 155.73,155.73 0 0 0 0.53,-20.81 z"
         id="path1390428" />
      <path
         class="cls-38"
         d="m 357.61,209.89 c 0,0 0,-0.09 0,-0.13 a 0.65,0.65 0 0 0 -0.13,-0.28 c 0.07,-0.1 0.12,-0.21 0.19,-0.31 -21.07,3.62 -42.7,3.35 -64,3.65 -8.2,0.11 -17.68,2.74 -23.63,-4.48 a 169.24,169.24 0 0 1 -11.16,-14.5 c -2.23,0.36 -4,0.64 -4.22,0.65 h -0.46 a 0.8,0.8 0 0 0 -1,-0.87 5.06,5.06 0 0 0 -3.3,2.32 c -0.92,2 1.08,4.35 2.23,5.84 1.37,1.74 2.84,3.4 4.34,5 a 101.88,101.88 0 0 0 9.8,9.58 6.58,6.58 0 0 0 2.78,1.72 c 0.34,0.06 0.69,0.09 1,0.12 a 1.68,1.68 0 0 0 0.76,0.21 1.25,1.25 0 0 0 0.43,-0.07 h 0.09 c 1.31,0.06 2.64,0 3.92,0.09 4.77,0.16 9.55,0.21 14.32,0.2 10.54,0 21.08,-0.3 31.61,-0.71 8.64,-0.35 17.29,-0.77 25.93,-1.38 2.4,-0.17 4.8,-0.34 7.19,-0.61 a 10.19,10.19 0 0 0 1.55,-0.24 c 2.1,-0.58 2.09,-3.15 2.32,-4.89 a 0.81,0.81 0 0 0 -0.56,-0.91 z"
         id="path1390430" />
      <path
         class="cls-39"
         d="m 273.07,212.66 c 11.56,1.58 24,0.19 35.65,-0.42 12.69,-0.66 25.42,-1.18 38.12,-1.5 3.42,-0.09 9.37,0.75 11.4,-2.86 1.09,-1.95 1.06,-4.87 1.36,-7 0.35,-2.61 0.69,-5.23 1,-7.84 1.46,-12.31 1.65,-24.35 2.09,-36.73 a 1.11,1.11 0 0 0 -1.78,-0.89 c -12.41,0.62 -24.85,-0.58 -37.28,-0.48 -12.1,0.1 -24.24,0.2 -36.34,0.61 -2.76,0.09 -8.66,-0.49 -10.07,2.58 -0.72,1.58 -0.31,4.29 -0.37,6 q -0.15,4.76 -0.39,9.53 c -0.62,12.47 -4.3,38.87 -3.39,39 z"
         id="path1390432" />
      <path
         class="cls-40"
         d="m 268.71,197.78 -3.24,0.38 1.88,1.65 0.38,0.33 0.48,-0.11 a 0.58,0.58 0 0 1 0.7,0.39 0.61,0.61 0 0 1 -0.2,0.6 c 0.21,0.18 0.41,0.37 0.61,0.56 l 0.09,-1.32 a 3.15,3.15 0 0 0 -0.32,-1.9 0.64,0.64 0 0 0 0,-1.06 0.41,0.41 0 0 1 -0.38,0.48 z"
         id="path1390434" />
      <path
         class="cls-40"
         d="m 268.89,202.53 c -0.47,-0.37 -0.93,-0.76 -1.37,-1.16 -0.88,0.22 -1.76,0.44 -2.65,0.62 h -0.16 c 1.28,1.22 2.53,2.49 3.8,3.71 a 1.11,1.11 0 0 0 0.61,-0.93 c 0,-0.7 0.08,-1.4 0.13,-2.1 a 0.62,0.62 0 0 1 -0.36,-0.14 z"
         id="path1390436" />
      <path
         class="cls-40"
         d="m 264.35,198.54 a 0.44,0.44 0 0 1 -0.13,-0.24 23.7,23.7 0 0 1 -3.67,0.2 33.41,33.41 0 0 1 3.63,3 0.57,0.57 0 0 1 0.39,-0.59 c 0.63,-0.17 1.26,-0.33 1.9,-0.48 z"
         id="path1390438" />
      <path
         class="cls-13"
         d="m 230.1,161.18 c 2.17,3.52 2.66,8.91 4.83,12.43 a 43.41,43.41 0 0 0 -6,2.7 q 6.7,-3.24 13.62,-6 c 3.62,7.57 7.63,21.86 10.17,29.86 a 2.23,2.23 0 0 1 -1.1,3.35 89.12,89.12 0 0 1 -17.46,7.48 c -3,0.92 -6.34,1.68 -9.25,0.48 a 10.06,10.06 0 0 1 -5.06,-5.34 29.63,29.63 0 0 1 -1.87,-7.28 c -1.16,-6.83 6.85,-37.17 11.17,-39.12 0.54,0.92 1.09,1.83 0.95,1.44 z"
         id="path1390440" />
      <path
         class="cls-19"
         d="m 242.21,171.28 9.79,-5.77 a 2.36,2.36 0 0 1 1.69,-0.47 2.2,2.2 0 0 1 1.1,0.86 48.68,48.68 0 0 1 11.21,31.25 48.61,48.61 0 0 1 -13.71,4.7"
         id="path1390442" />
      <path
         class="cls-18"
         d="m 265.77,196.39 c -1.17,1.88 -4.32,0.47 -5.87,-1.11 A 12,12 0 0 1 260,179 c -1.66,0.28 -3.25,-0.68 -4.63,-1.64 -2.1,-1.45 -4.22,-3.12 -5.16,-5.49 -0.94,-2.37 -0.17,-5.6 2.22,-6.51 a 2.28,2.28 0 0 1 1.34,-0.13 3.15,3.15 0 0 1 1.61,1.35 71.34,71.34 0 0 1 7.5,12.58 c 2.69,5.71 3.27,16.62 2.89,17.23 z"
         id="path1390444" />
      <path
         class="cls-19"
         d="m 239.49,174 c 3.26,-1.92 9.25,-6.53 12.51,-8.46 a 2.36,2.36 0 0 1 1.69,-0.47 2.2,2.2 0 0 1 1.1,0.86 48.68,48.68 0 0 1 11.21,31.22 48.61,48.61 0 0 1 -13.71,4.7"
         id="path1390446" />
      <path
         class="cls-41"
         d="m 247.78,177.33 c 8.16,1.08 13.71,9.81 12.32,17.65 a 14.89,14.89 0 0 1 -2.15,5.47 48.41,48.41 0 0 0 8,-3.3 48.68,48.68 0 0 0 -11.19,-31.25 2.2,2.2 0 0 0 -1.1,-0.86 2.36,2.36 0 0 0 -1.69,0.47 c -3.26,1.93 -9.25,6.54 -12.51,8.46 l 1.74,3.79 a 16.51,16.51 0 0 1 6.58,-0.43 z"
         id="path1390448" />
      <path
         class="cls-18"
         d="m 266.86,195.19 c -1.17,1.88 -4.32,0.47 -5.87,-1.11 a 12,12 0 0 1 0.14,-16.29 c -1.66,0.27 -3.25,-0.68 -4.63,-1.64 -2.1,-1.45 -4.22,-3.12 -5.16,-5.49 -0.94,-2.37 -0.17,-5.6 2.22,-6.51 a 2.17,2.17 0 0 1 1.33,-0.13 3.07,3.07 0 0 1 1.61,1.35 70.43,70.43 0 0 1 7.5,12.63 c 2.66,5.67 3.24,16.58 2.86,17.19 z"
         id="path1390450" />
      <path
         class="cls-42"
         d="m 244.65,193.49 c 3.75,2.65 5.32,6.95 5.23,11.29 l 1.23,-0.49 a 2.57,2.57 0 0 0 1.76,-3.78 c -2.38,-8.75 -8.57,-16.51 -9.34,-25.5 a 10.74,10.74 0 0 0 -1,-3.89 c -0.46,-0.57 -4.78,2.12 -20.2,10.11 11.47,-0.35 12.75,5.48 22.32,12.26 z"
         id="path1390452" />
      <g
         id="g2108">
        <g
           id="g1020">
          <path
             id="path3386"
             class="cls-43"
             d="m 320,174.69 -0.79,0.49 -3.12,1.94 a 6.18,6.18 0 0 0 -0.64,0.4 l -10.67,6.64 10.67,6.63 a 7.23,7.23 0 0 0 0.66,0.4 l 3.89,2.42 3.83,-2.38 v 0 a 8.18,8.18 0 0 0 0.7,-0.43 l 10.67,-6.62 -10.68,-6.63 a 7.39,7.39 0 0 0 -0.66,-0.42 z m 0,3.1 a 6.37,6.37 0 1 1 -6.37,6.37 6.35,6.35 0 0 1 6.37,-6.37 z m -7.53,3.54 a 7.93,7.93 0 0 0 0,5.65 l -4.55,-2.82 z m 15.06,0 4.55,2.83 -4.59,2.84 a 8,8 0 0 0 0,-5.66 z" />
          <path
             id="path3388"
             class="cls-43"
             d="m 336.75,185.66 a 3.14,3.14 0 0 0 -1.56,0.45 l -13.66,8.48 0.14,0.08 a 2.74,2.74 0 0 0 1.45,0.37 3,3 0 0 0 1.56,-0.45 l 2.69,-1.67 v 0 l 11,-6.81 -0.14,-0.09 a 2.79,2.79 0 0 0 -1.44,-0.36 z" />
          <path
             id="path3390"
             class="cls-43"
             d="m 316.8,173.26 a 3.19,3.19 0 0 0 -1.57,0.46 l -2.68,1.67 v 0 l -11,6.81 a 2.94,2.94 0 0 0 3.15,0 l 13.65,-8.48 -0.13,-0.08 a 2.77,2.77 0 0 0 -1.45,-0.38 z" />
        </g>
      </g>
    </g>
  </g>
</svg>
