<svg width="320" height="320" version="1.1" viewBox="0 0 84.6667 84.6666" xmlns="http://www.w3.org/2000/svg" xmlns:xlink="http://www.w3.org/1999/xlink"><defs><linearGradient id="a" x1="-964.576" x2="-964.576" y1="783.206" y2="479.136" gradientTransform="matrix(.27845 0 0 .278444 17.5923 -6.64115)" gradientUnits="userSpaceOnUse"><stop stop-color="#0094a8" offset="0"/><stop stop-color="#4abab3" offset="1"/></linearGradient></defs><g transform="translate(335.661 -126.771)"><path d="m-293.149 126.772c-1.4852-5e-3 -2.98351 0.0658-4.44813 0.2121-8.26121 0.82526-16.103 4.08193-22.5442 9.36213-7.05705 5.78511-12.0624 13.6672-14.2613 22.4588-0.60023 2.39982-0.99896 4.93414-1.16492 7.40487-0.13291 1.97902-0.12347 4.17086 0.0262 6.14807 0.72948 9.64319 4.75861 18.7416 11.4252 25.8012 2.77596 2.93965 5.97981 5.48851 9.4483 7.51636 6.06982 3.54873 12.7897 5.48809 19.9244 5.74943 0.73634 0.0269 2.69604 0.0111 3.46869-0.0277 2.92331-0.14694 5.66368-0.55832 8.45737-1.2704 9.37843-2.39047 17.6836-7.97698 23.504-15.8099 4.75656-6.40112 7.58648-13.961 8.20014-21.9057 0.0966-1.25032 0.1191-1.87762 0.1191-3.30109 0-1.36385-0.0216-2.02076-0.10496-3.15425-0.53489-7.27883-2.94492-14.2797-7.00259-20.3422-3.36581-5.02878-7.72587-9.25444-12.8441-12.4484-5.90822-3.68694-12.575-5.83548-19.5541-6.30143-0.87147-0.0582-1.75797-0.0887-2.64909-0.0919zm-0.54601 0.93595c3.53504-0.0297 7.07058 0.38502 10.4392 1.22961 6.51045 1.63232 12.4464 4.77846 17.4956 9.2724 0.22778 0.20271 0.44714 0.4036 0.48785 0.44649l0.074 0.0778-6e-3 4.38658-7e-3 4.38658-0.37416-0.47041c-0.20583-0.25883-0.56559-0.69405-0.79946-0.96695-2.76899-3.23087-6.12448-5.96986-9.79307-7.99384l-0.46064-0.25397v-1.55646l0.15607-0.0571c0.33233-0.12117 0.69602-0.45513 0.83591-0.76735 0.0828-0.18475 0.13093-0.41507 0.13051-0.62541-3e-3 -0.85125-0.66889-1.52227-1.51516-1.52437-0.43332-7.9e-4 -0.77008 0.14018-1.07791 0.45138-0.23209 0.23465-0.32673 0.39723-0.4008 0.68687-0.13903 0.54354-4e-3 1.02531 0.40027 1.42811 0.16401 0.1634 0.24501 0.22066 0.43508 0.30727l0.23384 0.10659v1.13227l-0.48784-0.23548c-3.885-1.87185-8.09174-3.02234-12.3568-3.38049-1.12914-0.0948-1.49828-0.10836-3.02054-0.10876-1.58333-5.3e-4 -2.00783 0.016-3.19238 0.12236l-0.59934 0.0538-0.149-0.14575c-0.25291-0.2465-0.51777-0.37348-0.87015-0.41821-0.60594-0.0768-1.25233 0.25821-1.52062 0.78802-0.0477 0.0941-0.0955 0.15255-0.13268 0.16097-0.032 8e-3 -0.24473 0.0502-0.47262 0.0946-2.4686 0.48105-5.08954 1.31115-7.47137 2.36623-1.0768 0.477-2.64172 1.28703-3.68894 1.90941-1.02317 0.60808-2.42547 1.54938-3.28538 2.20526l-0.0963 0.0734 0.012-7.20582 0.17403-0.1066c1.13087-0.69314 2.88728-1.61231 4.26759-2.23299 4.49491-2.02122 9.27882-3.21646 14.1901-3.54472 0.81367-0.0544 1.62936-0.0845 2.44516-0.0914zm-21.9187 6.4934v7.34124l-0.34099 0.28116c-1.73542 1.43135-3.50327 3.22342-4.9746 5.043-0.17392 0.21509-0.4744 0.60018-0.66784 0.85545l-0.35187 0.46389v-9.00484l0.28716-0.26702c1.92465-1.78772 3.62726-3.12287 5.81427-4.55952zm21.557 0.40679c0.98753-8e-3 2.38279 9e-3 2.87534 0.044 2.03655 0.14341 3.81816 0.40274 5.64026 0.82065 5.23539 1.2008 10.1984 3.67118 14.3391 7.1373 4.9842 4.17229 8.65298 9.57631 10.6768 15.7272 2.45434 7.45931 2.26817 15.6696-0.5221 23.014-1.96288 5.16669-5.18555 9.84704-9.29871 13.5056-4.02636 3.58135-8.69431 6.12359-13.8328 7.53321-2.56428 0.70346-5.13563 1.09533-7.88472 1.20188-4.91453 0.19049-9.96106-0.71673-14.5017-2.6066-7.67382-3.19395-13.9394-9.04258-17.6528-16.4788-2.163-4.33145-3.34862-8.90409-3.58722-13.8325-0.0359-0.74097-0.019-3.08656 0.0267-3.72963 0.16323-2.29502 0.46744-4.24742 0.98109-6.29489 1.28327-5.11502 3.78618-9.95109 7.22882-13.9674 1.37291-1.60163 3.02086-3.20167 4.60315-4.46978 1.98616-1.59182 3.97608-2.8674 6.23793-3.99883 4.32364-2.16278 8.93157-3.35514 13.8676-3.58823 0.19001-9e-3 0.47409-0.0146 0.80325-0.0174zm0.25019 1.97031c-4.37376 0.0638-8.66306 0.99701-12.6787 2.76813-0.6342 0.27972-1.98658 0.95324-2.60613 1.29759-7.1396 3.96832-12.5613 10.5003-15.1184 18.2152-0.82547 2.49042-1.34879 5.07948-1.5478 7.65775-0.13602 1.76247-0.13056 3.58499 0.0153 5.34591 0.52725 6.36785 2.94668 12.4568 6.94439 17.4762 3.53821 4.44241 8.15848 7.88525 13.3955 9.98156 3.38284 1.35411 7.02043 2.13371 10.6926 2.29118 4.04844 0.17362 8.132-0.42024 11.9886-1.74245 2.72396-0.93389 5.46392-2.3208 7.87276-3.98577 3.38824-2.34194 6.34491-5.35267 8.62598-8.78404 2.8474-4.28331 4.63653-9.16915 5.21768-14.2474 1.0715-9.36354-1.92194-18.6763-8.2306-25.6071-5.61236-6.16582-13.2919-9.93641-21.5315-10.5716-1.01598-0.0783-2.03024-0.10989-3.03956-0.0952zm1.10455 0.94139c0.31574 3e-3 0.59533 9e-3 0.80164 0.019 3.60654 0.17545 6.91222 0.88019 10.208 2.17588 1.19445 0.46958 2.6961 1.18415 3.80261 1.80989l0.44758 0.25343v0.22134c1.1e-4 0.18693-7e-3 0.22364-0.0468 0.23711-0.24487 0.0837-0.46268 0.21907-0.63738 0.39591-0.3627 0.36721-0.5117 0.85977-0.40951 1.35633 0.0754 0.36628 0.34063 0.74996 0.66619 0.96422 0.37087 0.24405 0.90009 0.31417 1.30254 0.17294 0.46838-0.16437 0.77108-0.45461 0.95608-0.91582 0.0593-0.14796 0.0781-0.24341 0.0876-0.45628 0.0145-0.30969-0.0237-0.48205-0.16696-0.75321-0.0485-0.0919-0.0824-0.16696-0.075-0.16696 0.0228 0 0.67176 0.45133 1.08988 0.75757 1.27633 0.9348 2.35569 1.85557 3.51162 2.99708 1.49525 1.47658 2.68972 2.89292 3.84445 4.55843 0.68984 0.99495 1.51461 2.35809 1.98288 3.27715l0.13761 0.26975v24.6439l-1.43795 1.41887-1.43794 1.41833-0.10114-0.0517c-0.15348-0.0787-0.48684-0.15555-0.67493-0.15555-0.57108 0-1.10272 0.33924-1.34548 0.85927-0.16191 0.34695-0.19602 0.61863-0.12182 0.97183 0.15482 0.7373 0.84332 1.2595 1.5902 1.20677 0.40479-0.0286 0.70919-0.16517 0.99198-0.44648 0.1918-0.1908 0.31579-0.40997 0.38452-0.67926 0.0783-0.30686 0.0362-0.75085-0.0963-1.01044l-0.0576-0.11203 1.55539-1.53743 1.5554-1.53797v-23.3088l0.0941 0.21373c0.0517 0.11762 0.17926 0.42414 0.28335 0.68143 1.11658 2.76121 1.83699 5.68804 2.13187 8.66059 0.40144 4.04636 0.0367 8.09031-1.07952 11.9622-1.4389 4.99119-4.1329 9.60091-7.78573 13.324l-0.45955 0.46879v-1.50425l0.093-0.0174c0.0512-0.01 0.20475-0.0732 0.34099-0.1414 0.47019-0.2353 0.82491-0.68484 0.94467-1.19698 0.0593-0.25329 0.0393-0.70604-0.0419-0.94899-0.19477-0.58334-0.69554-1.05865-1.28346-1.21874-0.26539-0.0723-0.70615-0.0665-0.96207 0.0125-0.28722 0.0887-0.53466 0.22607-0.73366 0.40842-0.82399 0.75499-0.79601 2.05399 0.0587 2.73821 0.1686 0.13495 0.5258 0.32131 0.66569 0.34752l0.0892 0.0169v2.29009l-0.43725 0.38395c-1.60329 1.40657-3.32236 2.63525-5.15189 3.68231l-0.51884 0.29694-8e-3 -0.3089-7e-3 -0.3089h-0.80055v1.04199l-0.42583 0.21319c-1.56074 0.7815-3.51906 1.53441-5.28131 2.03068v5.3e-4c-0.60703 0.17096-0.60084 0.16919-0.61346 0.12889-6e-3 -0.0187-0.0303-0.0961-0.0544-0.1724-0.0548-0.1736-0.21602-0.42562-0.36655-0.57266-0.46162-0.45087-1.15348-0.56372-1.72781-0.28171-0.31376 0.15407-0.63844 0.51476-0.74074 0.82283l-0.0408 0.12399-6.83562-0.0131-6.83563-0.0136-0.49436-0.14249c-2.96257-0.85403-6.21131-2.40966-8.86146-4.24409-0.3937-0.27252-1.2354-0.88854-1.37649-1.00719l-0.0935-0.0788 8.66187-0.00106 0.0495 0.14031c0.0623 0.17615 0.24492 0.45713 0.3807 0.58626 0.1449 0.13781 0.39331 0.28113 0.59824 0.34533 0.22485 0.0704 0.59475 0.0755 0.81523 0.0114 0.81602-0.23722 1.29067-1.04756 1.08659-1.85448-0.0736-0.291-0.18528-0.48327-0.41659-0.71514-0.20831-0.20884-0.41976-0.32811-0.71024-0.40135-0.22808-0.0575-0.6171-0.0386-0.8419 0.0408-0.21967 0.0775-0.50082 0.27445-0.6477 0.4541-0.11659 0.14256-0.30131 0.48383-0.30131 0.55634 0 0.0278-0.9293 0.0341-4.84515 0.0332l-4.84515-1e-3 -0.32086-0.2828c-0.94252-0.83006-2.12045-1.9918-2.82746-2.78879l-0.36764-0.4144 13.1056-8e-3 13.1051-7e-3 1.40966 1.42376c0.88561 0.89477 1.40559 1.4394 1.39821 1.46455-6e-3 0.0221-0.0432 0.1244-0.0827 0.22733-0.0533 0.13886-0.0754 0.25259-0.0848 0.44105-0.0236 0.47072 0.10645 0.81098 0.43508 1.13879 0.30463 0.30387 0.63108 0.43724 1.06811 0.43724 0.43753 0 0.76835-0.13496 1.07139-0.43778 0.13458-0.1345 0.21792-0.24751 0.2877-0.38994 0.16743-0.34156 0.2105-0.65513 0.13758-1.00229-0.11534-0.54935-0.52878-0.99504-1.06811-1.15075-0.3132-0.0904-0.77534-0.0489-1.05781 0.0952l-0.0957 0.0489-3.04446-3.09226-13.6191-3e-3c-7.49073-1e-3 -13.6321-0.0115-13.6473-0.0223-0.0442-0.0314-0.32534-0.38571-0.67165-0.84784-1.01262-1.35127-1.81057-2.60566-2.66594-4.19026l-0.12617-0.23384h7.78138v-0.82881h-8.19905l-0.28227-0.62161c-0.4803-1.05721-0.90546-2.14494-1.25684-3.21406-0.17038-0.51852-0.39264-1.25422-0.39264-1.30032 0-0.0122 1.13541-0.0228 2.52345-0.0228h2.52399l0.12945 0.10278c0.0711 0.0566 0.41105 0.33919 0.75541 0.62814 0.34433 0.28893 0.63278 0.52456 0.64118 0.52371 0.0214-2e-3 2.26133-2.67711 2.26133-2.70069 0-0.0199-3.1177-2.64359-3.14128-2.64359-0.0148 3e-5 -2.25431 2.66609-2.2662 2.69798-4e-3 0.0111 0.14407 0.14503 0.32902 0.29802l0.33609 0.27844-2.15744 7e-3c-1.18661 4e-3 -2.16083 4e-3 -2.16397 0-0.0176-0.0183-0.31543-1.37813-0.39972-1.82457-0.10536-0.55828-0.23128-1.34452-0.28391-1.77128l-0.0337-0.27409 0.13761-0.14031c0.50158-0.51062 0.59368-1.28306 0.2219-1.85828-0.11931-0.18458-0.33509-0.40293-0.47044-0.47586-0.0845-0.0455-0.0895-0.0566-0.10715-0.24473-0.0315-0.3355 6e-3 -2.72407 0.0528-3.34785 0.1233-1.65403 0.33174-3.1088 0.66076-4.61119 0.10448-0.47706 0.39228-1.63715 0.41659-1.67882 7e-3 -0.012 0.0568 0.0522 0.1104 0.14303 0.2806 0.47472 0.87434 0.78197 1.42055 0.73472 0.39228-0.034 0.71177-0.18521 0.99415-0.47096 0.55762-0.56432 0.60062-1.43085 0.10169-2.05135-0.14031-0.17449-0.424-0.37763-0.6401-0.45845l-0.16153-0.0604v-2.78716l0.35569-0.70807c1.47531-2.93716 3.29786-5.5012 5.61523-7.89922l0.36165-0.37416v2.06767l-0.13215 0.0435c-0.32504 0.10797-0.6775 0.41913-0.84025 0.74179-0.16618 0.32944-0.21009 0.64838-0.13706 0.99631 0.12094 0.57599 0.58107 1.05753 1.14861 1.20242 0.20653 0.0523 0.56439 0.0515 0.77228-2e-3 0.49153-0.12681 0.90645-0.51054 1.07466-0.99413 0.25461-0.73219-0.0679-1.5259-0.7614-1.87298-0.12216-0.0612-0.23857-0.11094-0.25887-0.11094-0.0306 0-0.0369-0.22989-0.0348-1.43681l3e-3 -1.43682 0.25884-0.23113c2.2344-1.99887 4.60847-3.61331 7.18971-4.88908 0.90705-0.44831 2.02233-0.93569 2.81711-1.2307 0.51304-0.19044 0.71681-0.26233 0.71681-0.2518 0 6e-3 -0.72456 0.67517-1.61033 1.48685-0.88581 0.81166-1.64333 1.5057-1.68324 1.54232l-0.0729 0.0663-0.15607-0.0702c-0.38256-0.17164-0.83109-0.19866-1.16874-0.0707-1.05377 0.39933-1.34051 1.71785-0.54657 2.5147 0.27194 0.27293 0.6929 0.45084 1.06758 0.45084 0.38421 0 0.80119-0.17892 1.08281-0.46444 0.41896-0.42479 0.54574-1.04585 0.3252-1.59181l-0.0625-0.15608 2.17813-2.00077c1.19806-1.10045 2.25363-2.07017 2.34561-2.15468 0.16548-0.15202 0.17138-0.15468 0.5569-0.25886 1.90212-0.51377 3.91972-0.8504 6.03073-1.0061 0.59132-0.0436 1.86339-0.0672 2.81062-0.0593zm28.3051 1.96052 0.36329 0.36002c1.58071 1.56993 3.20951 3.50526 4.56398 5.42205l0.36546 0.51719v11.0078h0.80218v-9.74446l-0.062-0.093c-0.0977-0.14708-0.19018-0.30944-0.15935-0.28007 0.0507 0.0482 0.69081 1.08816 1.02951 1.67284 2.69562 4.65331 4.45024 9.74785 5.17798 15.0338 1.05567 7.66797-0.0256 15.4502-3.11734 22.437-0.1403 0.31703-0.33638 0.74545-0.43562 0.95171-0.0993 0.20627-0.22252 0.44308-0.27356 0.52643l-0.0924 0.15119-1.19429-1.19372-1.19375-1.19426v-4.33546c0-3.80219 5e-3 -4.35919 0.0413-4.5307 0.16471-0.78191 0.3678-2.07331 0.47532-3.01993l0.0631-0.55253 0.14793-0.1637c0.48407-0.53491 0.52193-1.29197 0.0946-1.88982l-0.0794-0.11095-6e-3 -1.41234c-4e-3 -0.77693-0.0216-1.65028-0.0403-1.9404l-0.0343-0.52752 0.10442-0.12726c0.14627-0.17867 0.18996-0.25331 0.26594-0.45519 0.12744-0.33857 0.11389-0.74779-0.037-1.12466l-0.068-0.17022 2.36084-2.36133 2.36139-2.3608-0.11257-0.43507c-0.0619-0.23909-0.11881-0.44075-0.12617-0.44812-8e-3 -8e-3 -1.13758 1.10988-2.51095 2.48316-1.57454 1.57443-2.50141 2.48266-2.50878 2.45814-6e-3 -0.0213-0.0499-0.28542-0.0968-0.5868-0.43665-2.80508-1.31369-5.80336-2.47614-8.46535-0.85859-1.96617-1.82824-3.73533-3.05044-5.56508l-0.54223-0.8114v-4.56061zm-58.356 0.50686v9.33494l-0.25071 0.3883c-1.57102 2.43271-2.73898 4.76855-3.66174 7.32384-0.12352 0.34204-0.24278 0.67614-0.26539 0.74234-0.0368 0.10892-0.0409-0.49095-0.043-6.34874l-3e-3 -6.46894 0.46392-0.61997c1.0577-1.41258 2.25609-2.82207 3.324-3.91018zm36.3024 2.748c-0.519 0.031-0.9247 0.26633-1.20733 0.69937-0.23136 0.35443-0.29048 0.86434-0.14683 1.27041 0.039 0.1102 0.0735 0.20694 0.0778 0.21535 4e-3 8e-3 -1.33447 1.24681-2.97376 2.75236-1.6393 1.50554-3.33286 3.06117-3.76398 3.45716l-0.78423 0.72004-0.0979-0.0544c-0.29482-0.16388-0.79508-0.22059-1.12031-0.12672-0.66021 0.19068-1.10188 0.77932-1.10294 1.47108 0 0.66248 0.48356 1.294 1.12577 1.46673v5.2e-4c0.19174 0.0514 0.5882 0.052 0.7837 1e-3 0.40361-0.10512 0.78693-0.41099 0.9626-0.76789 0.19052-0.38701 0.2165-0.78218 0.0783-1.19427l-0.0669-0.19849 0.0887-0.087c0.0486-0.0478 1.74065-1.60244 3.76016-3.45444l3.67151-3.36689 0.12399 0.0614c0.2581 0.12811 0.37937 0.15615 0.68527 0.15825 0.2412 2e-3 0.32643-9e-3 0.47315-0.0598 0.49491-0.17069 0.87737-0.59753 0.99958-1.11595 0.0504-0.21369 0.0381-0.55883-0.0273-0.7679-0.2097-0.6716-0.8505-1.1212-1.53911-1.08005zm-11.5475 1.19481c-0.17974 0-0.51021 0.0799-0.67273 0.16261-0.38273 0.19471-0.67898 0.5543-0.78532 0.9528-0.0796 0.29803-0.0397 0.78844 0.0832 1.02622l0.037 0.0723-1.58316 1.45259c-0.8708 0.79889-2.5334 2.32317-3.6949 3.38756-1.1615 1.06438-2.14376 1.96511-2.18302 2.00131l-0.0718 0.0658-0.14682-0.0696c-0.78325-0.37052-1.69459-0.0438-2.04216 0.73201-0.41269 0.92116 0.15117 1.95858 1.16276 2.1389v-5.3e-4c0.0696 0.0126 0.21666 0.0171 0.32684 9e-3 0.62192-0.0446 1.14179-0.43903 1.34222-1.01915 0.0514-0.14857 0.0614-0.23135 0.0593-0.48673-3e-3 -0.26788-0.0114-0.33273-0.0761-0.50577l-0.0745-0.19849 0.17021-0.15282c0.0935-0.0842 1.78732-1.63818 3.76451-3.45282l3.59541-3.29891 0.15226 0.0756c0.29017 0.14394 0.6709 0.19271 0.9898 0.12672 0.5216-0.10797 0.98895-0.56637 1.13012-1.10834 0.0522-0.20045 0.0521-0.54391 0-0.74831-0.0999-0.39243-0.40461-0.78462-0.75267-0.96858-0.20308-0.10733-0.52748-0.19306-0.73041-0.19306zm-29.7985 2.24604c0.0111-2.6e-4 0.0161 3.29839 0.012 7.33037l-9e-3 7.33091-0.12127 0.50522-0.12129 0.50522-0.12343 0.0631c-0.15847 0.0805-0.4443 0.34817-0.55309 0.51773-0.1559 0.24288-0.22284 0.48361-0.22246 0.80107 0 0.40483 0.1135 0.70888 0.36494 0.98162l0.10768 0.11693-0.0723 0.63357c-0.0819 0.71907-0.13346 1.28848-0.18272 2.02361-0.0381 0.56881-0.0475 3.19702-0.0142 3.92269l0.0206 0.44758h-2.15908l-2.1591-5.3e-4 -0.10386-0.22678c-0.22925-0.50134-0.68947-0.83632-1.21714-0.88536-0.10665-0.01-0.21758-5e-3 -0.2643 0.0109-0.0719 0.025-0.0818 0.0218-0.0957-0.0299-0.0256-0.0958-0.0184-1.90656 0.0108-2.65065 0.1519-3.86968 0.78273-7.49292 1.93393-11.1068 0.25442-0.79865 0.7864-2.28683 0.80926-2.26399 5e-3 5e-3 -0.0625 0.20333-0.15012 0.4405-0.0876 0.23718-0.23793 0.66198-0.33391 0.94356l-0.17459 0.51175v4.2082c0 3.98406-3e-3 4.20868-0.0468 4.22289-0.2251 0.0721-0.46396 0.22196-0.65099 0.40842-0.40465 0.40373-0.54112 0.90104-0.39866 1.45803 0.0708 0.27671 0.18559 0.47035 0.41333 0.69882 0.47974 0.48123 1.17771 0.59502 1.78927 0.29204 0.52822-0.26167 0.84963-0.78027 0.85384-1.37699 3e-3 -0.43547-0.13497-0.76771-0.44975-1.08332-0.17014-0.17055-0.4093-0.32026-0.63468-0.39646-0.0448-0.015-0.0468-0.29288-0.0468-5.34101 0-3.01452-0.0103-5.31464-0.0234-5.30022-0.0128 0.0139-0.0446 0.0826-0.0707 0.15281-0.0262 0.0702-0.0519 0.12324-0.0582 0.11693-0.0139-0.014 0.25305-0.68212 0.552-1.38026 0.61868-1.44485 1.35346-2.91264 2.16072-4.31751 0.47216-0.82173 1.3867-2.28361 1.42923-2.28466zm58.6812 5.10717c-0.14646 4e-5 -0.29315 0.0125-0.38721 0.0375-0.42222 0.11234-0.80592 0.43041-0.98708 0.81847-0.21299 0.4568-0.21193 0.88794 3e-3 1.32805 0.15847 0.3241 0.54237 0.64622 0.9104 0.76409 0.0447 0.0142 0.0468 0.32627 0.0468 6.05779 0 5.73128-3e-3 6.0435-0.0468 6.05833-0.64634 0.21577-1.12091 0.90569-1.0665 1.55048 0.0178 0.21151 0.10139 0.4682 0.21756 0.66728 0.17996 0.30843 0.5814 0.60287 0.93977 0.68959v5.3e-4c0.20995 0.0504 0.52487 0.0511 0.71678 1e-3 0.26921-0.0701 0.51653-0.21765 0.73639-0.43888 0.59711-0.60078 0.60304-1.47707 0.0136-2.07636-0.15062-0.15314-0.23574-0.21308-0.43399-0.30727l-0.24638-0.11693v-12.0558l0.24095-0.11421c0.63091-0.29868 0.97972-0.96845 0.84568-1.62335-0.12085-0.59033-0.54916-1.05295-1.11489-1.2035-0.0938-0.025-0.24022-0.037-0.38668-0.037zm-29.9981 6.28239c-0.0467 3e-3 -0.16336 0.13479-0.61835 0.67871-0.32609 0.38982-0.59254 0.71746-0.59226 0.72819 0 0.0244 1.49296 1.2753 1.5217 1.2753 0.0117 0 0.18653-0.19848 0.3883-0.44105 0.20176-0.24259 0.37766-0.45208 0.39103-0.46607 0.0148-0.0152 0.0239 0.29295 0.0239 0.76844v0.794h-9.67668v-2.91387h-5.15896v2.91387h-2.00462v2.56582h2.00462v3.02046h-2.00515l7e-3 1.27639 8e-3 1.27638 0.99579 8e-3 0.99577 7e-3v3.82913c1.1e-4 2.43721 0.01 3.93566 0.0278 4.12282 0.21959 2.32894 2.00735 4.14192 4.335 4.39583 0.16852 0.0188 1.41996 0.0283 3.5682 0.0283h3.30877l0.68471 0.68415 0.68524 0.68415-0.0772 0.18326c-0.38747 0.92211 0.20533 1.9558 1.19374 2.08181v-5.3e-4c0.76808 0.0979 1.5087-0.40928 1.68429-1.15402 0.12291-0.52129-0.024-1.04374-0.40083-1.42702-0.30044-0.30552-0.63762-0.44483-1.06919-0.44378-0.1906 5.3e-4 -0.28831 0.0163-0.45521 0.0723-0.11689 0.0393-0.22841 0.0843-0.24799 0.10061-0.0279 0.0232-0.12388-0.0581-0.44159-0.37579l-0.40573-0.4057h21.6925v-12.3772l0.89789 8e-3 0.89845 7e-3 0.0631 0.16805c0.33244 0.88444 1.43131 1.21384 2.24118 0.67218 0.47674-0.31884 0.73553-0.87998 0.66458-1.44171-0.12369-0.97996-1.08838-1.57655-2.01222-1.2443-0.30615 0.11013-0.27984 0.14-0.28825-0.3263l-7e-3 -0.40733h-0.78695l-0.83536-0.83533-0.83588-0.83534v-1.3498h2.45984l-7e-3 -1.27638-8e-3 -1.27638-1.22256-8e-3 -1.22312-7e-3v-2.91333h-5.18614v1.64347l-0.56776-0.56776-0.56835-0.56777h-7.76506v-0.50794h-5.15949v0.24037c0 0.13232-6e-3 0.24092-0.0142 0.24092-0.0109 0-0.74892-0.61289-1.08337-0.8995-4e-3 -4e-3 -0.0103-6e-3 -0.017-5e-3zm6.27438 1.73429h7.41917l0.75488 0.75648c0.41498 0.41592 0.7543 0.77646 0.7543 0.80161v5.3e-4c0 0.0425-0.27043 0.0457-4.4639 0.0457h-4.46445v-0.80216zm-5.15896 4.17014v3.01992h-4.82554c-3.83602 0-4.82811-7e-3 -4.83864-0.0337-7e-3 -0.0184-0.0109-0.6951-6e-3 -1.50371l8e-3 -1.46998 4.83156-6e-3zm5.15896 5.3e-4 4.45738 6e-3 4.45794 7e-3v2.99545l-4.45794 7e-3 -4.45738 6e-3v-1.51023zm-14.8356 5.58573h9.67668v7.21726h-9.67668v-4.64437zm14.8351 5.3e-4h8.92891l-6e-3 3.60183-7e-3 3.60291-4.45737 7e-3 -4.45794 6e-3v-3.60835zm-41.8442 1.45803c0 2e-3 3e-3 0.0128 4e-3 0.0321 5e-3 0.0772 5e-3 0.20348 0 0.28062-5e-3 0.0772-0.01 0.0141-0.01-0.14031 0-0.11575 3e-3 -0.17994 6e-3 -0.17239zm0.0223 0.73961c3e-3 -0.0132 4e-3 -9e-3 8e-3 0.0147 6e-3 0.0481 6e-3 0.12023 0 0.16043-7e-3 0.0402-0.0111 5.3e-4 -0.0109-0.0876 5e-5 -0.0441 0-0.0743 3e-3 -0.0876zm0.0256 0.51121c3e-3 -8e-3 5e-3 -5e-3 8e-3 0.0114 7e-3 0.0333 6e-3 0.081 0 0.10659-6e-3 0.0256-0.0117-2e-3 -0.0114-0.0604 1.2e-4 -0.0294 3e-3 -0.0492 4e-3 -0.0577zm0.0262 0.41603c3e-3 -6e-3 6e-3 -3e-3 9e-3 0.01 6e-3 0.026 6e-3 0.0618 0 0.0799-7e-3 0.0181-0.0131-3e-3 -0.0125-0.0473 0-0.022 3e-3 -0.0365 5e-3 -0.0424zm5.96712 2e-3 0.0337 0.38122c0.0865 0.98546 0.32631 2.58179 0.55311 3.68177 0.0652 0.31649 0.11845 0.58391 0.11856 0.59496v5.3e-4c9e-5 0.0105-1.3639 0.0196-3.03143 0.0196h-3.03193l-0.0153-0.0734c-0.14303-0.70283-0.38069-2.32837-0.48458-3.31359-0.0201-0.18888-0.0515-0.16534 0.29476-0.21754 0.45619-0.0688 0.90678-0.44206 1.0964-0.9082l0.062-0.15173 2.20258-6e-3zm58.5779 0.77279c-0.13004-2e-3 -0.26291 0.0124-0.39699 0.044-0.50444 0.1189-0.91011 0.50163-1.08879 1.02785-0.0798 0.23491-0.0682 0.67598 0.0245 0.9354l0.0718 0.20067-0.11366 0.1104c-0.0623 0.0607-1.75245 1.61529-3.75582 3.45499l-3.64213 3.34513-0.12781-0.0647c-0.47248-0.23945-1.06861-0.2142-1.50157 0.0636-0.18954 0.12161-0.43645 0.39718-0.5319 0.59332-0.29997 0.61645-0.19132 1.28193 0.28825 1.76149 0.21544 0.21543 0.42305 0.33763 0.69721 0.41005 0.19729 0.052 0.55599 0.052 0.75761 0 0.40582-0.1047 0.78949-0.40958 0.96531-0.76681 0.19074-0.38751 0.21719-0.7795 0.08-1.18828l-0.0685-0.20448 0.14193-0.13922c0.078-0.0766 1.76983-1.63272 3.76016-3.45771 3.55442-3.2591 3.62039-3.31715 3.68131-3.27716 0.0341 0.0223 0.1524 0.0706 0.26269 0.10768 0.57127 0.19176 1.12377 0.0634 1.53964-0.35784 0.60936-0.61728 0.60994-1.53125 0-2.14381-0.29057-0.29232-0.65461-0.44817-1.04475-0.45464zm-63.7809 4.70798 3.05427 7e-3 3.05371 6e-3 0.0745 0.28117c0.41545 1.56707 0.83176 2.84215 1.37215 4.20276 0.13856 0.34888 0.25233 0.64089 0.25233 0.64825v1e-3c0 0.022-6.3576 0.0157-6.37064-7e-3 -6e-3 -0.011-0.10859-0.31471-0.22679-0.6749-0.44636-1.36011-0.77821-2.55574-1.07248-3.86232-0.0595-0.26464-0.115-0.50851-0.12235-0.54166zm74.3919 1.9638 1e-3 2.87363 5.5e-4 2.87363 1.4151 1.41451 1.41509 1.41452 0.0576-0.0979c0.0911-0.15375 0.0896-0.11562-3e-3 0.0685-0.15043 0.30012-0.50896 0.95553-0.52265 0.95553-7e-3 0 0.0535-0.1281 0.13542-0.28498 0.0819-0.15687 0.14902-0.29177 0.14902-0.3002 0-0.0345-0.0925 0.12537-0.40136 0.69231-0.81674 1.49945-1.11543 2.00716-1.66635 2.83338-2.16897 3.2528-4.86593 6.261-7.86297 8.7699-1.23348 1.03258-2.49976 1.97504-3.8586 2.87146-0.3232 0.21322-0.59468 0.38775-0.60312 0.38775-8e-3 0-0.0153-1.63924-0.0153-3.64261v-3.64262l0.48784-0.40298c2.10559-1.73912 4.11455-3.84637 5.75718-6.03821 2.30727-3.07868 4.03174-6.35642 5.26608-10.0104zm-72.6484 4.02329h6.43755l0.12561 0.2741c0.70155 1.52749 1.73617 3.38118 2.63169 4.71669 0.10071 0.15021 0.18274 0.28032 0.18274 0.28769 0 8e-3 -1.56333 0.0142-3.47411 0.0142h-3.47411l-0.10877-0.1936c-0.21515-0.38293-1.06367-2.10358-1.3199-2.67676-0.30282-0.67736-0.6454-1.49671-0.8544-2.04156zm6.41469 6.09423h3.53665l0.36113 0.48782c0.6754 0.91298 1.48628 1.89509 2.30102 2.78662l0.39103 0.428-0.0125 0.15118c-0.0308 0.3715 0.15571 0.83155 0.45903 1.13173 0.30646 0.30327 0.66029 0.44859 1.09041 0.44648l0.21482-1e-3 0.36438 0.32575c1.17314 1.04903 2.32387 1.95336 3.65411 2.87092l0.50959 0.35131-0.16206 0.16968c-0.28354 0.29638-0.41606 0.61743-0.41606 1.00827 0 0.41593 0.14691 0.78145 0.42748 1.06157 0.2966 0.29615 0.6095 0.43737 1.01317 0.45736 0.39704 0.0197 0.66628-0.0618 0.98329-0.29693 0.19363-0.14364 0.40929-0.43376 0.49327-0.66402l0.0571-0.15609 0.12343 5.3e-4c0.0985 5.3e-4 0.18542 0.0334 0.43074 0.16207 3.05318 1.60192 6.2139 2.72537 9.54291 3.39244 7.0938 1.4215 14.531 0.64053 21.0845-2.21395l0.24743-0.10768-0.012 6.42488-0.54766 0.19523c-1.85773 0.66273-4.03087 1.24582-6.08458 1.6326-2.19127 0.41269-4.33595 0.63639-6.69422 0.69774-0.55067 0.0144-1.07349 0.0238-1.16167 0.0207-0.0882-3e-3 -0.34072-9e-3 -0.56125-0.012-3.71834-0.0585-7.53256-0.64549-11.107-1.70982-9.66329-2.87733-17.9942-9.24453-23.3403-17.8384-0.23913-0.38438-0.59657-0.97976-0.70974-1.18284-6e-3 -0.0115 1.58054-0.0201 3.52577-0.0201zm53.6327 7.72519c7e-3 0 0.0131 1.61069 0.0131 3.57953v3.57953l-0.5547 0.31978c-1.71589 0.98851-3.55086 1.88606-5.19975 2.54297-0.18768 0.0748-0.34723 0.13596-0.35458 0.13596-7e-3 0-0.0125-1.45533-0.0125-3.23365v-3.2331l0.82229-0.41495c1.76042-0.88768 3.56458-1.99869 5.06593-3.12053 0.11439-0.0855 0.2129-0.15554 0.22028-0.15554z" fill="url(#a)"/></g></svg>
