<svg version="1.1" viewBox="0 0 266.08 59.257" xmlns="http://www.w3.org/2000/svg">

  <defs>
    <clipPath id="v">
      <path d="m105 28h64v41h-64z" />
    </clipPath>
    <clipPath id="u">
      <path d="m0 0.0039062v1609.6s380.8 125.66 695.53 125.66c268.03 0 693.37-103.05 740.24-114.61v-1620.7z" />
    </clipPath>
    <clipPath id="t">
      <path d="m140 51h36v21h-36z" />
    </clipPath>
    <clipPath id="s">
      <path d="m0 0.0039062v1609.6s380.8 125.66 695.53 125.66c268.03 0 693.37-103.05 740.24-114.61v-1620.7z" />
    </clipPath>
    <clipPath id="r">
      <path d="m98 25h36v21h-36z" />
    </clipPath>
    <clipPath id="q">
      <path d="m0 0.0039062v1609.6s380.8 125.66 695.53 125.66c268.03 0 693.37-103.05 740.24-114.61v-1620.7z" />
    </clipPath>
    <clipPath id="p">
      <path d="m229 34h11v30h-11z" />
    </clipPath>
    <clipPath id="o">
      <path d="m0 0.0039062v1609.6s380.8 125.66 695.53 125.66c268.03 0 693.37-103.05 740.24-114.61v-1620.7z" />
    </clipPath>
    <clipPath id="n">
      <path d="m288 34h10v30h-10z" />
    </clipPath>
    <clipPath id="m">
      <path d="m0 0.0039062v1609.6s380.8 125.66 695.53 125.66c268.03 0 693.37-103.05 740.24-114.61v-1620.7z" />
    </clipPath>
    <clipPath id="l">
      <path d="m220 41h5v23h-5z" />
    </clipPath>
    <clipPath id="k">
      <path d="m0 0.0039062v1609.6s380.8 125.66 695.53 125.66c268.03 0 693.37-103.05 740.24-114.61v-1620.7z" />
    </clipPath>
    <clipPath id="j">
      <path d="m220 34h5v6h-5z" />
    </clipPath>
    <clipPath id="i">
      <path d="m0 0.0039062v1609.6s380.8 125.66 695.53 125.66c268.03 0 693.37-103.05 740.24-114.61v-1620.7z" />
    </clipPath>
    <clipPath id="h">
      <path d="m183 41h33v23h-33z" />
    </clipPath>
    <clipPath id="g">
      <path d="m0 0.0039062v1609.6s380.8 125.66 695.53 125.66c268.03 0 693.37-103.05 740.24-114.61v-1620.7z" />
    </clipPath>
    <clipPath id="f">
      <path d="m242 41h20v23h-20z" />
    </clipPath>
    <clipPath id="e">
      <path d="m0 0.0039062v1609.6s380.8 125.66 695.53 125.66c268.03 0 693.37-103.05 740.24-114.61v-1620.7z" />
    </clipPath>
    <clipPath id="d">
      <path d="m264 40h23v23h-23z" />
    </clipPath>
    <clipPath id="c">
      <path d="m0 0.0039062v1609.6s380.8 125.66 695.53 125.66c268.03 0 693.37-103.05 740.24-114.61v-1620.7z" />
    </clipPath>
    <clipPath id="b">
      <path d="m298 58h6v6h-6z" />
    </clipPath>
    <clipPath id="a">
      <path d="m0 0.0039062v1609.6s380.8 125.66 695.53 125.66c268.03 0 693.37-103.05 740.24-114.61v-1620.7z" />
    </clipPath>
  </defs>
  <g transform="matrix(3.7795 0 0 3.7795 -240 -39.258)">
    <g transform="matrix(.97413 0 0 .97413 -33.82 -11.454)" stroke-width="1.0538">
      <g transform="matrix(.35278 0 0 .35278 65.161 13.309)" clip-path="url(#v)">
        <g clip-path="url(#u)" stroke-width="1.0818">
          <path
            d="m152.75 42.727 9.5352 5.9219-9.5352 5.9297c0.6914-1.8438 1.0976-3.8438 1.0976-5.9297 0-2.0898-0.40625-4.0742-1.0976-5.9219m-31.539 0c-0.6875 1.8477-1.0976 3.8398-1.0976 5.9219 0 2.0859 0.39453 4.0781 1.0976 5.9219l-9.5312-5.9219zm15.773-7.418c7.3828 0 13.32 5.9531 13.32 13.34 0 7.3906-5.9492 13.332-13.32 13.332-7.3906 0-13.336-5.9531-13.336-13.332 0-7.3789 5.957-13.34 13.336-13.34m0-6.4844-1.6523 1.0195-6.5312 4.0586c-0.46875 0.26172-0.91406 0.53906-1.3555 0.84766l-22.355 13.898 22.355 13.891c0.44922 0.30469 0.91015 0.58984 1.3867 0.85938l8.1602 5.0586 8.0234-4.9883c0.0195-0.01563 0.043-0.03516 0.0625-0.04297 0.5-0.27344 0.98438-0.58203 1.4531-0.91016l22.352-13.867-22.359-13.891c-0.44531-0.30469-0.90234-0.60156-1.3828-0.86328z"
            fill="#3fbda3" />
        </g>
      </g>
      <g transform="matrix(.35278 0 0 .35278 65.161 13.309)" clip-path="url(#t)">
        <g clip-path="url(#s)" stroke-width="1.0818">
          <path
            d="m172.16 51.797c-1.0273 0.01172-2.1484 0.28906-3.2773 0.94922l-28.602 17.762 0.28515 0.17188c0.80469 0.46875 1.8633 0.79687 3.0352 0.77344 1.0273-0.0078 2.1523-0.28125 3.2812-0.94531l5.6211-3.4922 22.969-14.281-0.29297-0.17969c-0.80859-0.44922-1.8476-0.76563-3.0195-0.75781"
            fill="#3fbda3" />
        </g>
      </g>
      <g transform="matrix(.35278 0 0 .35278 65.161 13.309)" clip-path="url(#r)">
        <g clip-path="url(#q)" stroke-width="1.0818">
          <path
            d="m130.36 25.832c-1.0273 0.0078-2.1484 0.28516-3.2812 0.94531l-5.6211 3.5-22.977 14.277c1.4883 0.99219 4.0039 1.5039 6.5977 0l28.602-17.77-0.28515-0.17188c-0.80469-0.47656-1.8516-0.80078-3.0352-0.78125"
            fill="#3fbda3" />
        </g>
      </g>
      <g transform="matrix(.35278 0 0 .35278 65.161 13.309)" clip-path="url(#p)">
        <g clip-path="url(#o)" stroke-width="1.0818">
          <path d="m234.81 34.363h-4.8594v28.703h4.8594v-16.797h4.3125v-4.9258h-4.3125z" fill="#ffffff" />
        </g>
      </g>
      <g transform="matrix(.35278 0 0 .35278 65.161 13.309)" clip-path="url(#n)">
        <g clip-path="url(#m)" stroke-width="1.0818">
          <path d="m293.23 41.344v-6.9805h-4.8594v28.703h4.8594v-16.797h4.3125v-4.9258z" fill="#ffffff" />
        </g>
      </g>
      <g transform="matrix(.35278 0 0 .35278 65.161 13.309)" clip-path="url(#l)">
        <g clip-path="url(#k)" stroke-width="1.0818">
          <path d="m220.14 41.344h4.7852v21.723h-4.7852z" fill="#ffffff" />
        </g>
      </g>
      <g transform="matrix(.35278 0 0 .35278 65.161 13.309)" clip-path="url(#j)">
        <g clip-path="url(#i)" stroke-width="1.0818">
          <path d="m220.17 34.363h4.7148v5.0234h-4.7148z" fill="#ffffff" />
        </g>
      </g>
      <g transform="matrix(.35278 0 0 .35278 65.161 13.309)" clip-path="url(#h)">
        <g clip-path="url(#g)" stroke-width="1.0818">
          <path
            d="m210.33 58.285h-8.2578v-16.941h-4.7812v16.941h-7.1758c-0.98438 0-1.7891-0.80469-1.7891-1.7891v-15.152h-4.7812v17.234c0 2.4805 2.0117 4.4883 4.4883 4.4883h27.082v-21.723h-4.7852z"
            fill="#ffffff" />
        </g>
      </g>
      <g transform="matrix(.35278 0 0 .35278 65.161 13.309)" clip-path="url(#f)">
        <g clip-path="url(#e)" stroke-width="1.0818">
          <path
            d="m256.81 41.344h-14.527v21.707h4.7812v-16.922h7.6641c0.98828 0 1.7891 0.79688 1.7891 1.7891v15.133h4.7812v-17.215c0-2.4844-2.0117-4.4922-4.4883-4.4922"
            fill="#ffffff" />
        </g>
      </g>
      <g transform="matrix(.35278 0 0 .35278 65.161 13.309)" clip-path="url(#d)">
        <g clip-path="url(#c)" stroke-width="1.0818">
          <path
            d="m272.32 45.906c2.1914-1.1641 4.3125-0.76562 6.1016 0.71484l-9.1836 4.8789c-0.19141-2.3281 0.8125-4.3867 3.082-5.5938m6.3711 11.797c-2.7969 1.4883-6.0312 0.68359-8.0547-2.207l14.957-7.9531c-0.25391-0.60547-0.56641-1.1836-0.91797-1.7305-0.082-0.125-0.16406-0.24609-0.24219-0.36328-2.0156-2.8633-5.3398-4.7383-9.1016-4.7383-1.4844 0-2.8906 0.29297-4.1836 0.82031-0.0977 0.04297-0.19532 0.07422-0.28907 0.125-0.39453 0.16797-0.77343 0.36719-1.1445 0.58594-0.33593 0.19531-0.65625 0.41016-0.96875 0.63672-2.75 2.0234-4.5469 5.2773-4.5469 8.957 0 6.1484 4.9844 11.129 11.133 11.129 5.5781 0 10.184-4.1094 10.988-9.4688-1.1992-0.0039-4.3945-0.01172-4.4141-0.01172-0.40234 1.8125-1.5547 3.3398-3.2148 4.2188"
            fill="#ffffff" />
        </g>
      </g>
      <g transform="matrix(.35278 0 0 .35278 65.161 13.309)" clip-path="url(#b)">
        <g clip-path="url(#a)" stroke-width="1.0818">
          <path d="m298.49 58.195h4.8594v4.8594h-4.8594z" fill="#3fbda3" />
        </g>
      </g>
    </g>
  </g>
</svg>
